<?xml version="1.0" encoding="UTF-8"?>
<svg width="16px" height="16px" viewBox="0 0 16 16" version="1.1" xmlns="http://www.w3.org/2000/svg" xmlns:xlink="http://www.w3.org/1999/xlink">
    <symbol id="feed">
        <path d="M2.25227294,16.001596 C1.00837694,16.001596 0,14.9932191 0,13.7493231 C0,12.5054271 1.00837694,11.4970501 2.25227294,11.4970501 C3.49616893,11.4970501 4.50454588,12.5054271 4.50454588,13.7493231 C4.50454588,14.9932191 3.49616893,16.001596 2.25227294,16.001596 Z M1.64271283,5.90769389 C5.98195427,6.59990622 9.40168979,10.0196417 10.1042336,14.3588832 C10.2385435,15.2267315 9.52566812,16.001596 8.6474883,16.001596 C7.91394987,16.001596 7.32505281,15.4540251 7.20107449,14.7308182 C6.66383507,11.7140122 4.2875838,9.32742941 1.27077785,8.80052152 C0.547570944,8.67654319 0,8.08764614 0,7.35410771 C0,6.47592789 0.774864543,5.76305251 1.64271283,5.90769389 Z M1.61171825,0.00839183969 C9.20539077,0.762593328 15.2390027,6.80653676 15.9932042,14.3898778 C16.0758564,15.2473945 15.3939756,16.001596 14.5261273,16.001596 C13.7719258,16.001596 13.1520342,15.433362 13.0797135,14.6791605 C12.4598219,8.46991265 7.52135183,3.53144263 1.31210396,2.91155099 C0.568233998,2.8392303 0,2.21933867 0,1.46513718 C0,0.60762042 0.754201489,-0.0845919055 1.61171825,0.00839183969 Z" />
    </symbol>
</svg>
