<svg xmlns="http://www.w3.org/2000/svg" viewBox="0 0 21 29">
  <g fill="none" fill-rule="evenodd">
    <path d="M19.79 13.954c0 5.489-4.347 9.943-9.705 9.943-5.357 0-9.706-4.454-9.706-9.943 0-5.488 4.349-9.942 9.706-9.942 5.358 0 9.706 4.454 9.706 9.942" fill="#D33833"/>
    <path d="M.779 16.42S.08 6.057 9.619 5.757l-.665-1.111-5.18 1.744-1.476 1.7-1.297 2.477-.744 2.889.222 1.921" fill="#EF3D3A" fill-rule="nonzero"/>
    <path d="M3.44 7.178a9.714 9.714 0 00-2.761 6.82 9.714 9.714 0 002.762 6.822c1.708 1.744 4.049 2.822 6.644 2.822a9.242 9.242 0 006.644-2.822A9.714 9.714 0 0019.491 14a9.714 9.714 0 00-2.762-6.821c-1.708-1.744-4.048-2.822-6.644-2.822a9.242 9.242 0 00-6.644 2.822zm-.432 14.064A10.36 10.36 0 01.08 14a10.36 10.36 0 012.928-7.243 9.854 9.854 0 017.077-3 9.854 9.854 0 017.077 3 10.34 10.34 0 012.928 7.243 10.36 10.36 0 01-2.928 7.243 9.854 9.854 0 01-7.077 3c-2.762 0-5.269-1.156-7.077-3" fill="#231F20" fill-rule="nonzero"/>
    <path fill="#F0D6B7" d="M14.178 14.01l-1.475.222-1.997.222-1.309.045-1.253-.034-.965-.3-.854-.922-.666-1.888-.144-.411-.887-.3-.522-.856-.366-1.222.41-1.077.966-.333.776.366.366.811.444-.078.144-.189-.144-.855-.033-1.078.222-1.477-.011-.844.676-1.078 1.187-.855 2.074-.89 2.296.334 1.997 1.444.92 1.478.588 1.077.145 2.667-.444 2.3-.81 2.032-.776 1.078"/>
    <path fill="#335061" d="M12.914 20.42l-5.291.222v.89l.443 3.11-.221.255-3.694-1.255-.255-.445-.377-4.188-.855-2.522-.188-.588 2.962-2.033.92-.367.81 1 .699.633.81.256.365.11.444 1.923.333.41.854-.3-.588 1.145 3.217 1.522-.388.222"/>
    <path fill="#6D6B6D" d="M4.15 7.5l.966-.333.776.366.366.811.444-.078.111-.444-.222-.855.222-2.033-.189-1.111.666-.778 1.442-1.144-.41-.556-2.03 1-.854.667-.477 1.033-.744 1-.221 1.188L4.15 7.5"/>
    <path d="M5.67 4.012s.555-1.367 2.774-2.033c2.218-.667.11-.478.11-.478l-2.407.922-.92.922-.41.744.853-.077M4.561 7.233s-.776-2.588 2.185-2.966l-.11-.444-2.03.477-.588 1.922.144 1.256.4-.245" fill="#DCD9D8"/>
    <path d="M5.737 10.677l.488-.466s.222.022.255.288c.033.256.144 2.589 1.742 3.855.144.111-1.187-.188-1.187-.188L5.848 12.31M12.548 9.977s.088-1.122.388-1.033c.3.089.3.389.3.389s-.733.467-.688.644" fill="#F7E4CD"/>
    <path d="M15.62 5.867s-.61.133-.665.666c-.056.534.665.111.776.078M11.139 5.9s-.81.111-.81.633c0 .523.92.478 1.187.256" fill="#F7E4CD" fill-rule="nonzero"/>
    <path d="M6.114 8.31s-1.409-.855-1.553-.032c-.144.81-.477 1.41.222 2.255l-.477-.145-.444-1.144-.144-1.11.854-.89.965.078.555.445.022.544M6.78 5.978s.632-3.255 3.804-3.888c2.618-.523 3.994.11 4.515.7 0 0-2.33-2.778-4.548-1.922-2.218.855-3.849 2.41-3.805 3.41.056 1.7.034 1.7.034 1.7M15.354 3.167s-1.076-.033-1.11.922c0 0 0 .145.078.3 0 0 .854-.966 1.365-.444" fill="#F7E4CD"/>
    <path d="M10.662 4.49s-.189-1.478-1.442-.623c-.81.556-.743 1.333-.588 1.478.144.144.111.444.222.244.11-.2.078-.866.477-1.055.4-.19 1.076-.39 1.331-.045" fill="#F7E4CD"/>
    <path d="M7.179 14.499l-3.472 1.555s1.442 5.744.699 7.521l-.521-.189-.034-2.188-.965-4.144-.41-1.144 3.627-2.444 1.076 1.033M7.545 17.665l.488.6v2.222h-.588s-.077-1.556-.077-1.744c0-.19.077-.856.077-.856M7.556 20.831l-1.664.078.477.333 1.187.19" fill="#49728B"/>
    <path fill="#335061" d="M13.246 20.453l1.365-.033.333 3.41-1.41.19-.288-3.567"/>
    <path d="M13.624 20.453l2.074-.11s.854-2.145.854-2.256c0-.11.743-3.11.743-3.11l-1.664-1.745-.332-.3-.888.89v3.443l-.787 3.188" fill="#335061"/>
    <path d="M14.544 20.198l-1.298.255.189 1.034c.477.222 1.298-.367 1.298-.367M14.578 13.721l2.584 1.922.078-.889-1.964-1.81-.698.777" fill="#49728B"/>
    <path fill="#FFF" d="M8.843 27.752l-.766-3.11-.377-2.3-.077-1.7 3.46-.189h2.152l-.2 3.889.333 3-.033.555-2.806.222-1.686-.367"/>
    <path d="M12.77 20.42s-.19 3.855.366 6.588c0 0-1.11.7-2.74.889l3.106-.111.366-.223-.444-6.076-.111-1.3" fill="#DCD9D8"/>
    <path fill="#FFF" d="M15.01 23.53l1.442-.41 2.74-.145.41-1.255-.743-2.189-.854-.11-1.176.366-1.131.555-.6-.11-.465.188"/>
    <path d="M14.988 22.786s.965-.444 1.11-.41l-.411-2.034.477-.188s.332 1.921.332 2.144c0 0 2.075.11 2.252.11 0 0 .444-.855.333-1.743l.41 1.188.034.667-.588.889-.666.144-1.109-.033-.366-.478-1.298.189-.41.144" fill="#DCD9D8"/>
    <path d="M13.535 20.165l-.81-2.078-.854-1.222s.189-.522.444-.522h.854l.81.3-.078 1.366-.366 2.156" fill="#FFF" fill-rule="nonzero"/>
    <path d="M13.69 19.454s-1.031-2-1.031-2.3c0 0 .188-.444.443-.333.255.11.81.41.81.41v-.7l-1.253-.255-.855.111 1.442 3.411.3.033" fill="#DCD9D8"/>
    <path fill="#FFF" fill-rule="nonzero" d="M9.176 14.565l-1.02-.11-.966-.3v.333l.466.522 1.475.666"/>
    <path d="M7.523 14.677s1.142.477 1.52.366l.033.445-1.032-.223-.632-.444.11-.144" fill="#DCD9D8"/>
    <path d="M15.01 16.476c-.632-.022-1.198-.089-1.686-.233.033-.2-.033-.4.022-.555.133-.1.366-.1.577-.123a1.052 1.052 0 00-.643-.077c0-.145-.067-.234-.111-.345.355-.122 1.187-.955 1.653-.678.221.134.321.878.332 1.234.022.31-.022.61-.144.777" fill="#D33833"/>
    <path d="M15.066 16.587h-.056c-.654-.022-1.231-.1-1.72-.233l-.099-.022.011-.1a.984.984 0 000-.256.728.728 0 01.022-.31l.011-.034h.011l-.088.022v-.133c0-.078-.034-.133-.056-.2-.01-.033-.033-.067-.044-.1l-.033-.1.1-.033c.088-.034.243-.134.41-.245.421-.289.954-.644 1.342-.422.322.189.388 1.211.388 1.322.011.178.011.6-.177.833l-.022.011zm-1.631-.433c.433.111.943.178 1.509.2.077-.133.11-.378.1-.644-.023-.49-.145-1.067-.278-1.145-.266-.155-.754.178-1.098.412a5.482 5.482 0 01-.355.222c.022.044.044.1.055.155.2-.022.422.011.6.1l.343.167-.377.044c-.044 0-.089.011-.133.011-.133.012-.277.023-.366.067-.011.056 0 .122 0 .2 0 .078.011.144 0 .211z" fill="#D33833" fill-rule="nonzero"/>
    <path d="M12.004 15.443c0 .045 0 .1-.011.145-.2.133-.51.122-.732.233.322.011.566.089.787.2 0 .122-.01.244-.01.355-.356.245-.688.611-1.11.845-.2.11-.898.388-1.11.344-.121-.033-.132-.178-.177-.322-.1-.3-.343-.778-.354-1.233-.023-.578-.09-1.533.532-1.422.5.1 1.076.322 1.464.533.233.133.366.3.721.322" fill="#D33833"/>
    <path d="M9.874 17.687c-.033 0-.055 0-.077-.01-.156-.034-.2-.19-.233-.3-.011-.034-.011-.056-.022-.09a3.231 3.231 0 00-.09-.233c-.11-.3-.254-.667-.276-1.033v-.034c-.023-.477-.056-1.133.244-1.4.11-.1.255-.133.421-.1.566.112 1.154.367 1.498.545a.958.958 0 01.177.111.97.97 0 00.51.2l.111.011-.01.311-.045.034a.766.766 0 01-.278.11c.111.034.222.079.322.123l.067.033-.023.49-.044.032c-.144.1-.277.211-.421.334-.211.177-.433.377-.7.51-.143.056-.798.356-1.13.356zM9.72 14.7a.24.24 0 00-.155.055c-.222.19-.189.834-.167 1.222v.034c.012.333.156.677.267.955.033.089.066.178.088.245l.034.1c.022.088.044.144.066.144.156.033.81-.2 1.032-.333.244-.134.455-.311.665-.49.133-.11.255-.221.389-.31l.01-.234c-.21-.1-.42-.144-.676-.155l-.421-.022.377-.19c.11-.055.244-.088.366-.11.1-.022.188-.045.277-.078-.21-.044-.344-.133-.477-.211-.055-.033-.1-.067-.155-.1a5.312 5.312 0 00-1.431-.522h-.089z" fill="#D33833" fill-rule="nonzero"/>
    <path d="M12.37 16.132c-.055-.311-.122-.4-.089-.678.821-.555.977.956.09.678" fill="#D33833"/>
    <path d="M12.657 16.276a.91.91 0 01-.294-.046l-.08-.024-.013-.07c-.027-.105-.04-.174-.067-.244-.04-.152-.08-.28-.053-.49v-.058l.053-.035c.467-.269.747-.105.854-.024a.557.557 0 01.106.735c-.093.175-.28.256-.506.256zm-.134-.245c.147.035.334.024.427-.116.093-.14.067-.35-.053-.443-.134-.117-.334-.047-.467.023-.013.14.013.222.053.362.014.035.027.105.04.174z" fill="#D33833" fill-rule="nonzero"/>
    <path d="M13.568 16.387s-.255-.366-.078-.477c.178-.111.367 0 .477-.19.111-.188 0-.3.034-.521.033-.222.222-.256.41-.3.189-.045.699-.111.777.078l-.222-.667-.444-.144-1.409.81-.077.412v.81M9.686 17.61c-.045-.578-.089-1.156-.144-1.734-.078-.866.21-.71.954-.71.11 0 .698.133.743.222.2.41-.333.322.233.633.477.266 1.33-.156 1.131-.745-.11-.133-.566-.044-.732-.122-.288-.144-.577-.3-.865-.455-.366-.19-1.22-.467-1.609-.2-.998.677.067 2.366.422 3.066" fill="#EF3D3A"/>
    <path d="M10.662 4.49c-1.01-.234-1.509.421-1.82 1.1-.276-.068-.166-.434-.099-.623.177-.5.91-1.155 1.497-1.067.267.034.61.267.422.59M15.576 5.634h.044c.233.477.422.977.71 1.388-.188.445-1.453.845-1.442.045.277-.123.743-.023.987-.178-.133-.378-.332-.711-.3-1.255M11.172 5.645c.211.4.289.81.6 1.11.132.134.41.3.276.678-.033.09-.255.29-.388.322-.477.145-1.597.034-1.22-.566.4.022.932.255 1.231-.033-.233-.356-.643-1.078-.499-1.511M15.387 9.677c-.72.467-1.53.967-2.717.856-.255-.222-.355-.711-.1-1.033.133.222.044.622.4.688.676.111 1.452-.41 1.94-.6.3-.51-.022-.688-.3-1.022-.554-.666-1.297-1.5-1.264-2.5.222-.166.244.245.278.323.288.678 1.02 1.544 1.541 2.122.134.144.344.278.366.378.078.277-.166.61-.144.788M5.859 9.189c-.222-.134-.277-.7-.543-.711-.378-.023-.311.744-.311 1.188-.266-.233-.31-.966-.111-1.344-.222-.111-.322.122-.444.2.156-1.144 1.664-.533 1.409.667M15.853 10.155c-.333.644-.81 1.344-1.797 1.367-.022-.212-.033-.523 0-.645.754-.078 1.22-.455 1.797-.722M11.117 10.566c.632.333 1.786.367 2.64.344.044.19.044.423.044.645-1.087.055-2.396-.211-2.684-.989M10.995 11.188c.432 1.1 1.93.967 3.194.945-.055.144-.177.31-.321.366-.4.167-1.52.289-2.086-.011-.355-.189-.588-.622-.776-.867-.089-.122-.566-.433-.011-.433" fill="#231F20"/>
    <path d="M15.343 17.232c-.51.877-.998 1.777-1.608 2.555.255-.744.366-2 .399-2.955.532-.256.987.044 1.209.4" fill="#81B0C4"/>
    <path d="M18.094 20.376c-.577.11-.976.666-1.531.633.3-.422.832-.611 1.53-.633M18.338 21.276c-.466.044-1.01.122-1.487.088.222-.344 1.087-.222 1.487-.088M18.504 22.053c-.521.011-1.176 0-1.675-.044.3-.311 1.331-.122 1.675.044" fill="#231F20"/>
    <path d="M14.356 24.164c.077.655.332 1.322.3 2.044-.29.1-.456.189-.844.178-.022-.611-.11-1.555-.089-2.133.189.022.477-.122.633-.089" fill="#DCD9D8"/>
    <path d="M13.502 14.454c-.267.167-.488.39-.744.567-.565.022-.865-.033-1.275-.367.01-.022.044-.01.044-.044.61.267 1.376-.111 1.975-.156" fill="#F0D6B7"/>
    <path d="M10.351 18.543c.167-.711.81-1.09 1.398-1.478.61.767.976 1.755 1.375 2.71-.954-.288-1.93-.755-2.773-1.232" fill="#81B0C4"/>
    <path d="M13.723 24.264c-.022.589.056 1.522.09 2.133.387 0 .554-.089.842-.178.033-.722-.233-1.388-.3-2.044-.155-.044-.443.1-.632.089zm-6.045-3.333c.255 2.355.632 4.344 1.309 6.433 1.509.455 3.328.5 4.67.088-.244-1.177-.133-2.61-.277-3.866-.111-.944-.056-1.9-.2-2.855-1.63-.355-3.916-.089-5.502.2zm5.868-.2a34.4 34.4 0 00.122 3.022c.388-.056.654-.1 1.01-.178-.123-.977-.1-2.077-.345-2.933-.266 0-.51 0-.787.09zm1.974-.166c-.188-.045-.399 0-.576 0 .077.822.288 1.733.355 2.6.277.01.421-.123.654-.167.011-.756-.067-1.8-.433-2.433zm2.984 2.732c.577-.144.943-.844.777-1.577-.111-.489-.3-1.411-.51-1.722-.156-.233-.566-.533-.9-.322-.532.344-1.485.444-1.874.866.2.656.255 1.556.344 2.389.677.044 1.498-.189 2.052.055-.388.123-.898.123-1.231.311.277.134.92.1 1.342 0zm-5.368-3.521c-.41-.956-.777-1.944-1.376-2.71-.588.399-1.242.766-1.409 1.477.843.477 1.82.944 2.785 1.233zm.998-2.955c-.033.955-.144 2.21-.4 2.955.61-.778 1.099-1.678 1.609-2.555-.222-.345-.677-.645-1.21-.4zm-1.132-.4c-.233-.022-.421.266-.72.144l-.2.233c.654.8.965 1.922 1.464 2.867.277-.9.244-1.889.3-2.867-.378.012-.588-.355-.844-.377zm-.732-.967c-.022.278.034.367.09.678.898.278.742-1.233-.09-.678zm-.987-.322c-.388-.211-.965-.444-1.464-.533-.621-.122-.555.844-.532 1.422.022.455.255.933.354 1.233.045.144.056.289.178.322.21.045.91-.233 1.11-.344.42-.234.753-.6 1.108-.845 0-.122.011-.244.011-.355a1.785 1.785 0 00-.787-.2c.21-.111.532-.111.732-.233 0-.045 0-.1.011-.145-.355-.033-.488-.2-.72-.322zm-3.694-.678c-.321.323.899.767 1.287.79 0-.212.122-.4.089-.545-.455-.078-1.054-.022-1.376-.245zm3.95.156c0 .033-.045.022-.045.044.41.323.72.39 1.275.367.256-.189.477-.4.744-.567-.61.045-1.376.423-1.975.156zm3.615 1.1c-.022-.367-.11-1.1-.332-1.233-.466-.278-1.298.555-1.653.677.033.111.1.2.11.345a.977.977 0 01.644.077c-.21.023-.444.023-.577.123-.055.144.011.344-.022.555.5.145 1.065.211 1.686.233.122-.177.166-.477.144-.777zm-8.097-.933c-.1-.067-.776-.956-.876-.923-1.232.49-2.385 1.322-3.406 2.122.977 2.111 1.376 4.689 1.442 7.177 1.12.522 2.108 1.289 3.639 1.367-.178-1.245-.333-2.367-.433-3.544-.388-.167-.932.01-1.287-.056 0-.433.544-.189.588-.478.033-.222-.3-.233-.188-.577.277.1.432.322.72.41.278-.6 0-1.655.034-2.155.011-.088.044-.522.255-.444.189.067-.011 1.133.011 1.611.022.433-.055.855.122 1.133 1.475-.2 2.973-.333 4.56-.378-.356-.155-.766-.288-1.221-.555-.244-.144-1.032-.433-1.098-.667-.111-.377.3-.577.366-.9-.743.412-.888-.388-1.065-.955-.155-.51-.255-.889-.288-1.189-.644-.3-1.32-.61-1.875-1zm7.454-.811c1.02-.5 1.209 1.866.81 2.621.066.223.277.311.366.523-.577 1.022-1.21 1.988-1.797 3 .432-.268 1.054-.045 1.564-.256.188-.078.321-.5.466-.845.388-.944.798-2.133.976-3.033.044-.2.155-.655.133-.833-.044-.322-.488-.566-.71-.766-.41-.378-.677-.7-1.11-1.056-.177.256-.554.433-.698.645zm-9.806-9.11c-.488.533-.388 1.544-.321 2.266.887-.555 2.052.045 2.04.989.422-.011.156-.522.078-.856-.244-1.088.422-2.266.034-3.255-.755.045-1.376.356-1.83.856zm3.506-3.122c-1.11.311-2.518 1.122-2.973 2.11.355-.055.599-.232.943-.255.133-.01.3.056.454.023.3-.078.555-.745.777-1 .222-.245.488-.345.665-.578.122-.055.289-.055.3-.233-.056-.045-.111-.09-.166-.067zm5.756.289c-1.142-.644-3.094-1.133-4.314-.522-.988.489-2.319 1.31-2.773 2.333.421 1-.123 1.91-.156 2.922-.022.533.255 1.01.278 1.588-.145.245-.588.267-.899.256-.1-.522-.288-1.1-.82-1.156-.755-.077-1.31.545-1.343 1.2-.044.767.588 2.044 1.475 1.955.344-.033.433-.377.81-.377.2.41-.31.533-.366.822-.011.078.044.366.078.51.166.667.521 1.534.876 2.045.455.644 1.342.744 2.296.811.166-.367.799-.333 1.21-.244-.489-.19-.944-.667-1.32-1.078-.433-.478-.877-.989-.9-1.622.821 1.133 1.498 2.133 2.984 2.633 1.132.378 2.44-.178 3.306-.778.355-.255.577-.655.832-1.022.954-1.377 1.397-3.344 1.309-5.243-.045-.79-.034-1.567-.3-2.1-.277-.556-1.209-1.044-1.752-.545-.1-.533.454-.866 1.098-.677-.466-.611-.954-1.333-1.609-1.711zm2.13 17.73c.899-.444 2.574-1.2 3.14 0 .21.445.454 1.19.554 1.656.155.644-.167 2-.832 2.222-.588.189-1.265.178-1.974.033a1.214 1.214 0 01-.245-.311c-.499-.022-.976.022-1.375.233.033.378-.21.434-.455.511-.177.7.355 1.6.222 2.233-.089.456-.643.522-1.054.611-.01.256.023.456.045.678-.089.344-.51.544-.91.589-1.309.155-3.283.222-4.537-.222-.355-.856-.62-1.911-.92-2.889-1.22.134-2.219-.533-3.15-.955-.322-.145-.766-.234-.888-.489-.122-.244-.066-.722-.1-1.178-.077-1.155-.133-2.266-.443-3.444-.133-.533-.377-1-.544-1.51-.155-.478-.421-1.056-.488-1.534-.1-.7.555-.733.976-1.044.655-.466 1.165-.722 1.864-1.155.21-.122.832-.445.91-.589.143-.289-.245-.7-.345-.922a2.932 2.932 0 01-.277-1.022 1.933 1.933 0 01-1.309-.844c-.443-.656-.754-1.867-.366-2.8.033-.078.178-.211.2-.322.044-.222-.078-.511-.089-.745-.044-1.2.2-2.233 1.01-2.6.332-1.31 1.497-1.743 2.606-2.388.41-.244.865-.4 1.342-.566 1.686-.622 4.27-.5 5.68.555.599.445 1.541 1.4 1.885 2.089.899 1.81.832 4.844.211 7.054-.089.3-.21.734-.377 1.089-.122.244-.488.744-.444.967.045.222.843.833 1.01 1 .31.3.887.688.942 1.066.056.4-.177.944-.288 1.333-.377 1.278-.743 2.466-1.187 3.61" fill="#231F20"/>
    <path d="M10.118 10.844c.045-.067.322-.167.688.022 0 0-.444.078-.41.811l-.189-.033c.011 0-.177-.667-.089-.8" fill="#F7E4CD"/>
    <path d="M13.357 17.22c0 .112-.088.2-.2.2-.11 0-.199-.088-.199-.2 0-.11.089-.2.2-.2.11-.01.2.09.2.2M13.568 18.165c0 .111-.089.2-.2.2-.11 0-.2-.089-.2-.2 0-.111.09-.2.2-.2.1-.011.2.089.2.2" fill="#1D1919"/>
  </g>
</svg>