<svg width="87" height="120" xmlns="http://www.w3.org/2000/svg"><g fill="none" fill-rule="evenodd"><path d="M85.602 57.693c0 23.62-18.783 42.774-41.947 42.774-23.163 0-41.946-19.153-41.946-42.774 0-23.62 18.783-42.774 41.946-42.774 23.164 0 41.947 19.153 41.947 42.774" fill="#D33833" fill-rule="nonzero"/><path d="M3.402 68.284S.365 23.683 41.605 22.405l-2.874-4.777-22.419 7.487-6.392 7.331-5.593 10.677-3.2 12.387.955 8.284" fill="#EF3D3A" fill-rule="nonzero"/><path d="M14.907 28.514A41.733 41.733 0 0 0 2.99 57.855 41.733 41.733 0 0 0 14.907 87.19a40.117 40.117 0 0 0 28.74 12.139 40.117 40.117 0 0 0 28.742-12.14 41.733 41.733 0 0 0 11.916-29.334 41.733 41.733 0 0 0-11.916-29.341 40.124 40.124 0 0 0-28.741-12.14 40.124 40.124 0 0 0-28.741 12.14zm-1.865 60.518A44.361 44.361 0 0 1 .381 57.88a44.361 44.361 0 0 1 12.661-31.154A42.731 42.731 0 0 1 43.64 13.804a42.731 42.731 0 0 1 30.597 12.921A44.353 44.353 0 0 1 86.9 57.88a44.353 44.353 0 0 1-12.654 31.153 42.739 42.739 0 0 1-30.597 12.922 42.739 42.739 0 0 1-30.606-12.922z" fill="#231F20" fill-rule="nonzero"/><path fill="#F0D6B7" fill-rule="nonzero" d="M61.312 57.925l-6.393.952-8.63.953-5.593.162-5.438-.162-4.187-1.262-3.674-3.98-2.85-8.136-.638-1.75-3.837-1.277-2.206-3.662-1.6-5.257 1.755-4.645 4.156-1.433 3.356 1.595 1.6 3.507 1.919-.317.637-.774-.637-3.662-.163-4.645.955-6.372v-3.639l2.913-4.645 5.111-3.662 8.949-3.824 9.888 1.455 8.63 6.194 3.993 6.371 2.556 4.645.637 11.474-1.919 9.879-3.519 8.764-3.355 4.645"/><path fill="#335061" fill-rule="nonzero" d="M55.874 85.486l-22.86.953v3.824l1.941 13.386-.955 1.115-15.986-5.42-1.119-1.912-1.6-18-3.674-10.838-.777-2.548 12.74-8.756 3.992-1.595L31.07 60l3.038 2.71 3.518 1.115 1.6.48 1.92 8.283 1.436 1.75 3.675-1.277L43.702 78l13.904 6.534-1.755.952"/><path fill="#6D6B6D" fill-rule="nonzero" d="M17.99 29.892l4.156-1.433 3.356 1.595 1.6 3.507 1.919-.317.481-1.912-.955-3.662.97-8.772-.776-4.777 2.874-3.344 6.214-4.94-1.755-2.392-8.809 4.297-3.674 2.864-2.074 4.46-3.208 4.289-.956 5.094.637 5.42"/><path d="M24.546 14.919s2.4-5.892 11.986-8.764c9.586-2.872.482-2.075.482-2.075L26.628 8.06l-3.992 3.979-1.756 3.19 3.674-.318M19.754 28.777s-3.356-11.149 9.43-12.743l-.482-1.913-8.793 2.075-2.556 8.284.637 5.42 1.756-1.115" fill="#DCD9D8" fill-rule="nonzero"/><path d="M24.857 43.587l2.09-2.02c.603.11 1.056.613 1.103 1.223.163 1.115.637 11.148 7.511 16.567.63.496-5.111-.774-5.111-.774l-5.111-7.966M54.274 40.56s.373-4.831 1.678-4.46a1.79 1.79 0 0 1 1.305 1.673s-3.17 2.044-2.983 2.787M67.542 22.877s-2.634.558-2.875 2.865c-.24 2.307 2.875.48 3.356.317M48.2 23.04s-3.52.48-3.52 2.71 3.993 2.075 5.112 1.115M26.465 33.391s-6.074-3.662-6.711-.163c-.637 3.5-2.082 6.055.955 9.717l-2.074-.635-1.919-4.94-.637-4.776 3.675-3.825 4.155.317L26.31 31l.164 2.392M29.34 23.357s2.718-14.02 16.46-16.73c11.317-2.23 17.26.48 19.497 3.027 0 0-10.099-11.946-19.66-8.284-9.563 3.662-16.624 10.359-16.46 14.656.27 7.324.162 7.331.162 7.331M66.423 11.249s-4.66-.163-4.793 3.98c.015.443.124.878.319 1.277 0 0 3.674-4.142 5.911-1.912" fill="#F7E4CD" fill-rule="nonzero"/><path d="M46.126 16.94s-.777-6.357-6.215-2.664c-3.519 2.392-3.192 5.737-2.555 6.372.637.635.466 1.92.955 1.037.49-.882.326-3.747 2.082-4.544 1.755-.798 4.66-1.688 5.756-.21" fill="#F7E4CD" fill-rule="nonzero"/><path d="M31.071 60l-15.023 6.689s6.215 24.69 3.038 32.338l-2.238-.774-.163-9.399-4.155-17.806-1.756-4.94 15.66-10.513 4.66 4.46M32.625 73.657l2.128 2.593v9.562h-2.555s-.319-6.69-.319-7.487c0-.797.319-3.662.319-3.662M32.695 87.236l-7.193.318 2.082 1.432 5.11.774" fill="#49728B" fill-rule="nonzero"/><path fill="#335061" fill-rule="nonzero" d="M57.311 85.649l5.912-.163 1.437 14.656-6.075.774-1.282-15.29"/><path d="M58.911 85.649l8.949-.48s3.674-9.236 3.674-9.716c0-.48 3.2-13.378 3.2-13.378l-7.192-7.487-1.438-1.277-3.837 3.824v14.819l-3.356 13.703" fill="#335061" fill-rule="nonzero"/><path d="M62.92 84.534l-5.593 1.115.777 4.46c2.074.952 5.592-1.595 5.592-1.595M63.067 56.655l11.186 8.284.318-3.824-8.467-7.804-3.037 3.344" fill="#49728B" fill-rule="nonzero"/><path fill="#FFF" fill-rule="nonzero" d="M38.241 117.027l-3.286-13.378-1.646-9.879-.272-7.331 14.976-.774h9.322l-.847 16.73 1.437 12.906-.163 2.392-12.15.952-7.355-1.595"/><path d="M55.237 85.486s-.777 16.568 1.6 28.36a30.607 30.607 0 0 1-11.83 3.831l13.423-.48 1.6-.952-1.919-26.129-.481-5.574" fill="#DCD9D8" fill-rule="nonzero"/><path fill="#FFF" fill-rule="nonzero" d="M64.94 98.872l6.214-1.75 11.83-.634 1.756-5.42-3.177-9.406-3.675-.48-5.11 1.595-4.918 2.384-2.602-.48-2.028.774"/><path d="M64.823 95.683s4.156-1.913 4.793-1.75L67.86 85.16l2.074-.774s1.437 8.284 1.437 9.236c0 0 8.949.48 9.749.48a14.428 14.428 0 0 0 1.437-7.486l1.755 5.094.163 2.864L81.92 98.4l-2.874.635-4.793-.163-1.6-2.098-5.593.774-1.756.635" fill="#DCD9D8" fill-rule="nonzero"/><path d="M58.546 84.387l-3.518-8.919-3.675-5.256s.777-2.23 1.919-2.23h3.674l3.519 1.277-.318 5.892-1.6 9.236" fill="#FFF" fill-rule="nonzero"/><path d="M59.23 81.345s-4.474-8.602-4.474-9.88c0 0 .776-1.911 1.918-1.431s3.52 1.75 3.52 1.75v-3.028l-5.438-1.115-3.675.48 6.215 14.656 1.281.162" fill="#DCD9D8" fill-rule="nonzero"/><path fill="#FFF" fill-rule="nonzero" d="M39.686 60.317l-4.428-.48-4.187-1.27V60l2.028 2.23 6.393 2.864"/><path d="M32.54 60.797s4.955 2.075 6.556 1.595l.155 1.913-4.474-.953-2.72-1.912.483-.635" fill="#DCD9D8" fill-rule="nonzero"/><path d="M64.916 68.508a30.468 30.468 0 0 1-7.31-1.006c.148-.875-.124-1.734.094-2.37.598-.425 1.6-.425 2.5-.526a4.371 4.371 0 0 0-2.78-.31 4.425 4.425 0 0 0-.458-1.462c1.553-.542 5.126-4.096 7.146-2.92.963.558 1.375 3.763 1.453 5.312a5.404 5.404 0 0 1-.645 3.275" fill="#D33833" fill-rule="nonzero"/><path d="M64.916 68.508a30.468 30.468 0 0 1-7.31-1.006c.148-.875-.124-1.734.094-2.37.598-.425 1.6-.425 2.5-.526a4.371 4.371 0 0 0-2.78-.31 4.425 4.425 0 0 0-.458-1.462c1.553-.542 5.126-4.096 7.146-2.92.963.558 1.375 3.763 1.453 5.312a5.404 5.404 0 0 1-.645 3.282z" stroke="#D33833" stroke-width="2"/><path d="M51.951 64.088v.62c-.846.557-2.213.549-3.107 1.013a8.186 8.186 0 0 1 3.38.852c0 .516-.021 1.032-.063 1.548-1.553 1.06-2.967 2.64-4.8 3.631-.863.473-3.884 1.68-4.816 1.463-.52-.123-.568-.774-.777-1.37-.443-1.3-1.46-3.368-1.554-5.319-.116-2.47-.365-6.603 2.33-6.1a23.898 23.898 0 0 1 6.324 2.322c1.017.558 1.608 1.24 3.153 1.363" fill="#D33833" fill-rule="nonzero"/><path d="M51.951 64.088v.62c-.846.557-2.213.549-3.107 1.013a8.186 8.186 0 0 1 3.38.852c0 .516-.021 1.032-.063 1.548-1.553 1.06-2.967 2.64-4.8 3.631-.863.473-3.884 1.68-4.816 1.463-.52-.123-.568-.774-.777-1.37-.443-1.3-1.46-3.368-1.554-5.319-.116-2.47-.365-6.603 2.33-6.1a23.898 23.898 0 0 1 6.324 2.322c.947.535 1.538 1.224 3.083 1.34z" stroke="#D33833" stroke-width="2"/><path d="M53.49 67.037c-.234-1.347-.513-1.726-.404-2.903 3.596-2.392 4.272 4.111.403 2.903" fill="#D33833" fill-rule="nonzero"/><path d="M53.49 67.037c-.234-1.347-.513-1.726-.404-2.903 3.62-2.392 4.272 4.103.403 2.903z" stroke="#D33833" stroke-width="2"/><path d="M58.702 68.129s-1.119-1.595-.319-2.075c.8-.48 1.6 0 2.082-.774.482-.774 0-1.277.163-2.23.163-.952.963-1.115 1.756-1.277.792-.163 3.037-.48 3.355.317l-.955-2.864-1.919-.635-6.074 3.507-.319 1.75v3.507M41.946 73.378a594.31 594.31 0 0 0-.621-7.455c-.342-3.709.893-3.097 4.117-3.097.49 0 3.03.588 3.216.952.87 1.773-1.46 1.378 1.002 2.717 2.082 1.13 5.748-.689 4.91-3.197-.467-.557-2.448-.17-3.155-.542l-3.744-1.935c-1.553-.821-5.258-2.021-6.99-.875-4.296 2.91.271 10.18 1.801 13.215" fill="#EF3D3A" fill-rule="nonzero"/><path d="M46.126 16.94c-4.358-1.015-6.525 1.819-7.846 4.753-1.18-.287-.707-1.881-.412-2.694.777-2.137 3.884-4.986 6.486-4.599 1.104.163 2.603 1.169 1.764 2.547M67.355 21.886h.225a44.848 44.848 0 0 0 3.108 6c-.832 1.928-6.3 3.64-6.215.17 1.18-.518 3.224-.108 4.273-.773-.606-1.657-1.484-3.097-1.344-5.42M48.355 21.94c.932 1.704 1.235 3.5 2.563 4.793.598.58 1.764 1.285 1.181 2.903a3.695 3.695 0 0 1-1.686 1.394c-2.074.611-6.913.124-5.274-2.455 1.717.078 4.024 1.115 5.305-.131-.986-1.549-2.742-4.645-2.097-6.503M66.57 39.283c-3.107 1.997-6.61 4.18-11.729 3.67a3.452 3.452 0 0 1-.45-4.452c.551.944.202 2.694 1.747 2.957 2.905.496 6.285-1.773 8.382-2.563 1.297-2.175-.109-2.98-1.282-4.381-2.392-2.873-5.6-6.434-5.484-10.73.963-.698 1.049 1.068 1.189 1.385 1.25 2.911 4.388 6.635 6.68 9.128.56.611 1.491 1.2 1.592 1.61.295 1.177-.777 2.594-.652 3.376M25.37 37.161c-.979-.557-1.212-3.011-2.33-3.096-1.647-.101-1.344 3.181-1.337 5.101-1.134-1.021-1.328-4.172-.497-5.79-.947-.465-1.367.51-1.895.851.676-4.885 7.177-2.268 6.098 2.919M68.56 41.319c-1.453 2.756-3.512 5.798-7.769 5.891a10.471 10.471 0 0 1 0-2.787c3.263-.31 5.282-1.966 7.768-3.097M48.106 43.107c2.727 1.425 7.73 1.548 11.427 1.471.169.922.236 1.859.202 2.795-4.754.24-10.386-.937-11.652-4.266M47.594 45.77c1.88 4.715 8.358 4.173 13.81 4.042A2.914 2.914 0 0 1 60 51.406c-1.748.713-6.572 1.247-9.003 0-1.554-.812-2.532-2.655-3.371-3.739-.404-.519-2.44-1.858 0-1.858" fill="#231F20" fill-rule="nonzero"/><path d="M66.345 71.76c-2.206 3.77-4.326 7.649-6.944 10.97 1.095-3.22 1.553-8.609 1.732-12.72 2.33-1.076 4.265.24 5.212 1.75" fill="#81B0C4" fill-rule="nonzero"/><path d="M78.238 85.316c-2.47.496-4.21 2.888-6.626 2.733 1.328-1.866 3.65-2.648 6.626-2.733M79.325 89.172a36.372 36.372 0 0 1-6.431.371c.97-1.47 4.66-.968 6.431-.371M80.009 92.5c-2.268.047-5.08 0-7.24-.177 1.274-1.363 5.764-.504 7.24.178" fill="#231F20" fill-rule="nonzero"/><path d="M62.08 101.605c.327 2.834 1.453 5.714 1.313 8.818a9.293 9.293 0 0 1-3.65.774c-.117-2.64-.474-6.673-.366-9.19.824.055 2.043-.588 2.704-.41" fill="#DCD9D8" fill-rule="nonzero"/><path d="M58.43 59.799c-1.134.774-2.105 1.664-3.2 2.454-2.424.116-3.745-.17-5.523-1.548 0-.109.21-.062.217-.202 2.594 1.154 5.888-.472 8.545-.704" fill="#F0D6B7" fill-rule="nonzero"/><path d="M44.813 77.42c.714-3.097 3.503-4.646 6.043-6.365 2.618 3.314 4.21 7.572 5.966 11.675a61.205 61.205 0 0 1-12.01-5.31" fill="#81B0C4" fill-rule="nonzero"/><path d="M59.377 102.015c-.108 2.517.25 6.55.366 9.19a9.293 9.293 0 0 0 3.65-.774c.14-3.097-.986-5.977-1.312-8.818-.66-.194-1.88.457-2.704.402zM33.24 87.701a131.167 131.167 0 0 0 5.647 27.654c6.525 1.974 14.394 2.144 20.196.364-1.056-5.071-.598-11.242-1.211-16.653-.467-4.065-.226-8.16-.87-12.302-7.023-1.448-16.903-.34-23.762.937zm25.385-.875c-.062 4.359.194 8.655.528 13.014 1.678-.248 2.82-.418 4.374-.774-.505-4.196-.443-8.927-1.476-12.635a10.434 10.434 0 0 0-3.434.395h.008zm8.545-.705a10.49 10.49 0 0 0-2.486 0c.357 3.554 1.227 7.471 1.554 11.195 1.196 0 1.833-.526 2.82-.712.054-3.275-.288-7.742-1.865-10.49l-.023.007zm12.84 11.745c2.493-.604 4.063-3.654 3.363-6.782-.466-2.106-1.305-6.062-2.198-7.41-.66-.998-2.447-2.322-3.884-1.385-2.33 1.486-6.416 1.912-8.11 3.708.847 2.818 1.111 6.69 1.46 10.266 2.906.178 6.48-.774 8.887.24-1.685.542-3.884.55-5.328 1.34 1.188.572 3.977.456 5.794 0l.016.023zm-23.21-15.128c-1.756-4.11-3.348-8.369-5.966-11.675-2.517 1.711-5.313 3.26-6.02 6.356a61.205 61.205 0 0 0 12.001 5.32H56.8zm4.319-12.728c-.164 4.111-.637 9.5-1.733 12.72 2.618-3.329 4.739-7.2 6.945-10.97-.925-1.51-2.898-2.857-5.197-1.75h-.016zm-4.902-1.734c-.994-.108-1.833 1.138-3.107.596-.295.325-.567.682-.87.999 2.85 3.422 4.148 8.284 6.354 12.31 1.18-3.871 1.049-8.106 1.305-12.326-1.64.109-2.525-1.463-3.659-1.579h-.023zm-3.154-4.142c-.109 1.177.171 1.549.404 2.903 3.892 1.2 3.24-5.295-.38-2.903h-.024zm-4.264-1.424a23.898 23.898 0 0 0-6.323-2.323c-2.672-.51-2.416 3.631-2.33 6.1.085 1.952 1.11 4.019 1.553 5.32.21.603.256 1.246.777 1.37.916.217 3.953-.999 4.816-1.463 1.825-.991 3.247-2.57 4.8-3.631 0-.517.021-1.033.062-1.549a8.186 8.186 0 0 0-3.379-.851c.933-.465 2.33-.457 3.108-1.015v-.619c-1.476-.077-2.067-.766-3.084-1.34zm-15.924-2.88c-1.383 1.401 3.883 3.305 5.554 3.414 0-.883.505-1.719.404-2.323-1.997-.371-4.607-.14-5.966-1.076l.008-.015zm17.05.658c0 .14-.186.085-.217.201 1.778 1.386 3.107 1.672 5.522 1.548 1.096-.774 2.059-1.71 3.2-2.454-2.617.248-5.918 1.874-8.513.72l.008-.015zm15.644 4.73c-.077-1.548-.481-4.753-1.452-5.31-2.028-1.178-5.624 2.376-7.147 2.918.237.457.392.952.459 1.463a4.371 4.371 0 0 1 2.78.31c-.9.1-1.902.093-2.5.526-.218.635.054 1.494-.094 2.37 2.387.63 4.841.967 7.31 1.006.55-.996.773-2.139.637-3.267l.007-.016zm-35.025-4.057c-.435-.31-3.371-4.118-3.775-3.964-5.32 2.09-10.292 5.706-14.759 9.128 4.241 9.066 5.95 20.13 6.214 30.867 4.855 2.26 9.12 5.528 15.707 5.869-.777-5.373-1.46-10.173-1.888-15.236-1.654-.697-4.031 0-5.577-.217 0-1.858 2.33-.813 2.563-2.067.148-.945-1.305-1.015-.83-2.509 1.211.442 1.848 1.41 3.106 1.773 1.181-2.57 0-7.122.156-9.29 0-.403.202-2.238 1.11-1.912.91.325-.046 4.877.04 6.913.077 1.874-.226 3.693.535 4.87 6.54-.893 13.124-1.43 19.723-1.61a47.797 47.797 0 0 1-5.29-2.37c-1.072-.603-4.443-1.85-4.754-2.864-.49-1.61 1.29-2.47 1.6-3.871-3.216 1.75-3.837-1.672-4.598-4.096a31.762 31.762 0 0 1-1.25-5.101 55.438 55.438 0 0 1-8.11-4.336l.077.023zm32.214-3.5c4.435-2.144 5.227 8.006 3.495 11.273.272.976 1.189 1.347 1.554 2.222-2.47 4.413-5.22 8.516-7.768 12.898 1.88-1.161 4.56-.209 6.766-1.084.776-.317 1.39-2.16 2.004-3.63a78.857 78.857 0 0 0 4.233-13.038c.316-1.171.5-2.373.552-3.585-.195-1.4-2.105-2.446-3.107-3.313-1.795-1.603-2.921-3.02-4.793-4.521-.777 1.114-2.385 1.865-3.006 2.771l.07.008zm-42.35-39.173c-2.114 2.322-1.67 6.658-1.415 9.74 3.814-2.393 8.887.185 8.84 4.257 1.826-.046.684-2.268.35-3.7-1.08-4.646 1.817-9.748.132-14.021a11.598 11.598 0 0 0-7.908 3.716v.008zm15.108-13.44c-4.778 1.347-10.875 4.815-12.872 9.097 1.554-.217 2.58-.984 4.078-1.077.651.09 1.31.116 1.966.078 1.297-.318 2.392-3.22 3.379-4.305.986-1.084 2.105-1.502 2.89-2.47.504-.24 1.25-.224 1.281-.983-.233-.2-.458-.379-.722-.31v-.03zm24.857 1.27c-4.964-2.788-13.36-4.893-18.643-2.269-4.257 2.114-10.02 5.62-11.978 10.065 1.833 4.28-.544 8.206-.691 12.557-.078 2.323 1.095 4.335 1.18 6.852-.629 1.03-2.548 1.16-3.884 1.091-.45-2.23-1.227-4.73-3.534-4.986a5.356 5.356 0 0 0-4.001 1.332 5.32 5.32 0 0 0-1.786 3.809c-.179 3.298 2.548 8.772 6.4 8.392 1.492-.147 1.857-1.633 3.48-1.618.878 1.75-1.359 2.323-1.553 3.546.029.735.138 1.464.326 2.176a29.67 29.67 0 0 0 3.83 8.84c1.95 2.788 5.78 3.206 9.904 3.477.738-1.548 3.449-1.448 5.212-1.037-2.12-.837-4.086-2.865-5.717-4.646-1.872-2.059-3.775-4.265-3.884-6.967 3.542 4.893 6.47 9.174 12.91 11.326 4.87 1.626 10.565-.774 14.309-3.368 1.553-1.091 2.478-2.818 3.588-4.397 4.133-5.923 6.06-14.377 5.64-22.576-.171-3.383-.163-6.75-1.305-9.019-1.142-2.268-5.212-4.506-7.566-2.323-.435-2.322 1.957-3.739 4.77-2.91-2.005-2.579-4.11-5.675-6.992-7.286l-.015-.062zm9.244 76.257c3.883-1.92 11.123-5.171 13.554 0a43.811 43.811 0 0 1 2.416 7.108c.66 2.779-.714 8.624-3.58 9.553a17.067 17.067 0 0 1-8.545.163 4.647 4.647 0 0 1-1.041-1.355 11.81 11.81 0 0 0-5.935 1.006c.163 1.603-.924 1.866-1.95 2.191-.776 2.989 1.554 6.898.971 9.631-.388 1.943-2.788 2.245-4.552 2.61-.03.968.036 1.938.195 2.895-.404 1.478-2.214 2.322-3.923 2.531-5.64.674-14.2.976-19.622-.967-1.515-3.701-2.703-8.2-3.97-12.387-5.29.565-9.57-2.277-13.6-4.135-1.399-.642-3.325-.998-3.885-2.105-.559-1.108-.295-3.097-.427-5.071-.318-4.963-.59-9.74-1.903-14.818-.59-2.277-1.616-4.29-2.33-6.488-.66-2.036-1.818-4.552-2.121-6.58-.45-3.005 2.393-3.175 4.21-4.476 2.812-2.013 5.01-3.096 8.055-4.947.902-.542 3.62-1.904 3.931-2.531.614-1.247-1.056-3.004-1.5-3.98a11.93 11.93 0 0 1-1.172-4.374 8.477 8.477 0 0 1-5.655-3.623c-1.934-2.826-3.27-8.052-1.6-12.023.132-.31.776-.93.885-1.41.194-.944-.357-2.206-.388-3.212-.179-5.164.878-9.616 4.365-11.172 1.414-5.62 6.487-7.494 11.264-10.289a35.485 35.485 0 0 1 5.787-2.454C44.844-.813 56.03-.302 62.08 4.258c2.564 1.936 6.666 6.016 8.134 8.973 3.884 7.804 3.596 20.857.893 30.356a30.481 30.481 0 0 1-1.631 4.645c-.513 1.069-2.113 3.213-1.919 4.158.194.944 3.643 3.584 4.389 4.296 1.328 1.278 3.884 2.981 4.062 4.591.18 1.61-.776 4.073-1.258 5.73-1.662 5.535-3.278 10.645-5.158 15.576l.024-.008z" fill="#231F20" fill-rule="nonzero"/><path d="M43.78 44.315c.21-.279 1.367-.705 2.983.077 0 0-1.92.318-1.756 3.507l-.777-.162s-.823-2.888-.427-3.422" fill="#F7E4CD" fill-rule="nonzero"/><path d="M57.793 71.706a.876.876 0 0 1-.878.875.876.876 0 0 1-.878-.875c0-.483.393-.875.878-.875s.878.392.878.875M58.67 75.77a.876.876 0 0 1-.877.875.876.876 0 0 1-.878-.875c0-.483.393-.875.878-.875s.878.392.878.875" fill="#1D1919" fill-rule="nonzero"/></g></svg>