<?xml version="1.0" encoding="UTF-8"?>
<!DOCTYPE svg PUBLIC "-//W3C//DTD SVG 1.1//EN" "https://www.w3.org/Graphics/SVG/1.1/DTD/svg11.dt">
<svg version="1.1" xmlns="http://www.w3.org/2000/svg" xmlns:xlink="http://www.w3.org/1999/xlink" x="0" y="0" width="304.793" height="356.129" viewBox="0, 0, 304.793, 356.129">
    <g id="fire">
        <path d="M267.834,171.3 C269.804,172.558 270.625,167.558 268.371,158.959 C268.343,152.538 265.937,145.021 261.932,141.252 C266.444,143.302 262.678,142.745 271.054,152.52 C274.597,156.379 272.142,164.944 278.029,169.154 C280.618,179.425 280.375,181.2 280.175,183.104 C280.063,188.073 279.969,193.055 274.273,193.836 C272.305,191.868 269.623,189.901 266.224,187.933 C265.421,183.059 265.778,177.604 267.834,171.3 z" fill="#FFB801" id="path4141-5-0" />
        <path d="M220.348,224.939 L210.69,209.379 L220.885,198.648 L234.835,195.965 L250.396,198.111 C251.016,199.351 269.996,195.366 274.005,194.892 C277.631,194.463 290.668,189.749 292.248,187.38 C298.728,181.756 298.754,174.519 299.76,167.527 C301.642,172.569 301.977,175.332 300.833,187.38 C292.784,201.867 286.115,200.679 274.005,206.16 C282.411,206.818 290.817,202.632 299.223,199.184 C294.591,203.11 301.544,204.463 284.199,214.745 C270.412,222.809 264.035,219.17 256.835,220.647 C239.295,218.39 238.93,213.987 231.616,210.452 L225.714,218.501 L233.762,228.159 z" fill="#FF7401" id="path4119" />
        <path d="M278.297,222.793 C273.046,227.329 270.135,229.525 269.176,229.769 C262.171,237.997 253.987,239.156 245.567,238.89 C234.316,231.378 236.309,223.866 232.689,216.354 C237.731,211.526 230.13,211.966 250.396,200.794 C252.909,197.687 250.396,200.794 259.517,192.209 C264.307,189.759 262.352,168.912 263.273,160.015 C264.905,167.717 270.338,178.124 267.566,187.917 C269.593,192.159 265.489,204.358 261.664,202.404 C265.789,204.229 268.448,197.895 274.005,182.551 L275.614,165.381 C279.191,151.497 282.768,147.501 286.346,143.382 L298.15,136.943 C296.544,141.419 287.379,148.667 285.809,158.406 C283.477,172.613 281.258,186.52 283.126,189.526 C290.503,166.835 292.884,158.051 299.76,155.723 C293.876,164.392 291.598,184.727 288.492,207.233 C284.709,218.034 281.428,221.513 278.297,222.793 z" fill="#D40000" id="path4121" />
        <path d="M236.418,269.246 C241.441,270.427 248.783,270.034 248.783,270.034 C248.783,270.034 248.452,267.271 262.694,263.342 C280.383,258.462 280.412,238.628 279.31,237.754 C275.318,243.765 277.088,245.949 266.558,248.383 L261.535,251.139 L261.535,251.139 C265.353,249.314 268.07,247.135 268.877,243.266 C280.301,237.92 287.696,230.235 286.652,216.891 C280.212,226.692 279.568,229.965 273.127,231.456 C272.645,234.897 252.486,244.805 250.715,242.085 C249.282,239.884 227.916,246.021 224.439,246.415 C220.961,246.808 216.324,255.862 216.324,255.862 L219.029,264.129 z" fill="#AA0000" id="path4117-5" />
        <path d="M234.903,283.736 C241.879,285.346 252.073,284.809 252.073,284.809 C252.073,284.809 251.614,281.043 271.39,275.688 C295.952,269.036 295.992,242.001 294.462,240.811 C288.918,249.004 291.377,251.981 276.755,255.298 L269.78,259.054 L269.78,259.054 C275.082,256.567 278.855,253.598 279.975,248.323 C295.839,241.037 306.107,230.561 304.657,212.373 C295.714,225.732 294.82,230.193 285.877,232.226 C285.207,236.916 257.216,250.421 254.756,246.713 C252.767,243.714 223.099,252.079 218.27,252.615 C213.441,253.152 207.002,265.493 207.002,265.493 L210.758,276.761 z" fill="#D50000" id="path4117" />
        <path d="M243.42,263.036 C242.162,265.006 249.845,263.144 258.444,260.889 C264.865,260.862 267.553,255.236 271.322,251.231 C269.272,255.744 271.976,257.879 262.2,266.255 C258.433,269.913 254.897,273.744 245.567,273.23 L231.616,275.377 L220.348,268.401 L226.787,261.426 z" fill="#FFB801" id="path4141" />
        <path d="M221.421,152.503 L227.324,136.406 L240.738,131.577 L248.786,136.943 L261.664,131.577 C266.378,136.677 273.79,122.561 277.224,118.7 L283.126,105.286 C282.534,112.045 284.357,120.415 279.907,124.602 C275.591,133.459 272.627,136.91 269.712,140.162 C276.33,137.945 282.947,134.086 289.565,130.504 C284.736,135.835 279.907,141.547 275.078,145.528 C266.216,155.397 260.229,153.771 254.152,152.503 L235.372,156.259 L222.494,155.186" fill="#FF0101" id="path4143" />
        <path d="M215.798,132.645 L214.725,116.548 L223.847,108.5 L231.359,99.915 C234.134,97.934 235.622,101.104 241.017,88.647 C241.786,78.022 241.814,68.387 238.334,63.428 C237.291,39.7 241.794,39.966 242.09,34.99 L246.919,30.161 C245.959,38.272 240.437,48.207 245.846,53.77 C249.788,69.166 248.609,74.319 246.919,78.452 C244.568,93.389 246.113,94.688 246.383,100.451 C249.423,101.933 252.464,92.24 255.504,79.525 C258.991,70.434 255.302,63.734 254.968,55.916 C256.244,67.275 261.505,64.02 258.724,90.256 C261.167,99.378 259.5,108.5 253.358,117.621 C237.789,126.405 245.106,126.865 243.7,130.499 L223.31,138.547 z" fill="#D40000" id="path4145" />
        <path d="M262.104,156.841 C258.869,160.231 257.076,161.873 256.485,162.055 C252.17,168.205 247.129,169.072 241.942,168.873 C235.011,163.258 236.239,157.643 234.009,152.028 C237.115,148.42 232.433,148.748 244.916,140.398 C246.465,138.075 244.916,140.398 250.535,133.981 C253.486,132.149 252.281,116.568 252.849,109.918 C253.854,115.674 257.201,123.453 255.493,130.772 C256.742,133.943 254.214,143.062 251.857,141.601 C254.399,142.965 256.037,138.231 259.459,126.762 L260.451,113.928 C262.654,103.551 264.858,100.564 267.061,97.485 L274.333,92.672 C273.344,96.017 267.698,101.435 266.731,108.714 C265.294,119.334 263.927,129.728 265.078,131.976 C269.622,115.015 271.089,108.449 275.325,106.709 C271.7,113.189 270.297,128.388 268.384,145.21 C266.054,153.284 264.032,155.884 262.104,156.841 z" fill="#D33833" id="path4121-0" />
        <path d="M233.766,122.992 C235.736,124.25 236.557,119.25 234.302,110.651 C234.275,104.231 231.868,96.713 227.863,92.945 C232.376,94.994 228.61,94.437 236.985,104.213 C240.529,108.071 238.074,116.637 243.96,120.846 C246.549,131.117 246.306,132.892 246.107,134.797 C245.995,139.765 245.901,144.748 240.204,145.528 C238.237,143.561 235.554,141.593 232.156,139.626 C231.352,134.751 231.71,129.296 233.766,122.992 z" fill="#FFB801" id="path4141-5" />
        <path d="M66.002,139.897 C71.253,144.433 74.165,146.629 75.124,146.873 C82.129,155.101 90.312,156.261 98.733,155.994 C109.984,148.482 107.99,140.971 111.61,133.459 C106.569,128.63 114.169,129.07 93.904,117.898 C91.39,114.791 93.904,117.898 84.782,109.313 C79.992,106.863 81.948,86.016 81.026,77.119 C79.394,84.821 73.962,95.228 76.734,105.021 C74.707,109.263 78.81,121.462 82.636,119.508 C78.51,121.333 75.851,114.999 70.295,99.655 L68.685,82.485 C65.108,68.602 61.531,64.606 57.954,60.486 L46.15,54.047 C47.756,58.523 56.92,65.771 58.491,75.51 C60.823,89.717 63.042,103.624 61.173,106.63 C53.797,83.939 51.416,75.155 44.54,72.827 C50.424,81.496 52.702,101.831 55.808,124.337 C59.59,135.138 62.871,138.617 66.002,139.897 z" fill="#D40000" id="path4121-4" />
        <path d="M81.145,230.234 C88.914,225.957 90.052,220.354 90.803,214.674 C88.979,210.834 90.388,206.456 80.608,203.943 C75.958,200.757 71.308,201.892 66.657,201.26 L51.097,203.406 C50.477,204.646 31.497,200.66 27.488,200.187 C23.862,199.758 10.825,195.044 9.245,192.675 C2.765,187.051 2.739,179.814 1.733,172.822 C-0.149,177.864 -0.484,180.627 0.66,192.675 C8.708,207.162 15.378,205.973 27.488,211.455 C19.082,212.112 10.676,207.927 2.27,204.479 C6.902,208.405 -0.051,209.758 17.293,220.04 C31.081,228.104 37.458,224.465 44.658,225.942 C62.198,223.685 62.562,219.282 69.877,215.747 C75.773,217.644 77.021,220.471 75.779,223.795 L67.73,233.454 z" fill="#FF7401" id="path4119-0" />
        <path d="M79.836,284.723 C72.861,281.035 62.666,284.452 62.666,285.797 C56.401,285.315 51.181,281.111 43.35,276.675 C21.21,264.131 18.748,242.988 20.278,241.798 C25.821,249.991 23.363,252.968 37.984,256.286 L44.96,260.041 L44.96,260.041 C39.658,257.555 35.885,254.585 34.765,249.31 C18.901,242.024 8.633,231.548 10.083,213.36 C19.026,226.719 19.92,231.18 28.863,233.213 C29.533,237.903 57.524,251.409 59.983,247.701 C61.973,244.701 91.641,253.066 96.47,253.603 C101.299,254.139 107.738,266.48 107.738,266.48 L103.982,277.748 C95.933,286.755 87.885,285.428 79.836,284.723 z" fill="#D50000" id="path4117-1" />
        <path d="M69.577,216.354 L70.65,200.258 L61.528,192.209 L54.017,183.624 C51.241,181.644 49.753,184.814 44.358,172.356 C43.589,161.732 43.562,152.097 47.041,147.138 C48.085,123.409 43.581,123.675 43.285,118.7 L38.456,113.871 C39.416,121.981 44.938,131.916 39.529,137.479 C35.587,152.875 36.767,158.029 38.456,162.161 C40.808,177.099 39.262,178.397 38.993,184.161 C35.952,185.642 32.912,175.949 29.871,163.235 C26.384,154.143 30.073,147.443 30.408,139.626 C29.132,150.985 23.87,147.73 26.652,173.966 C24.209,183.087 25.876,192.209 32.017,201.331 C47.587,210.114 40.269,210.575 41.676,214.208 L62.065,222.257 z" fill="#D33833" id="path4145-8" />
        <path d="M132.521,85.85 C137.771,90.386 140.683,92.582 141.642,92.826 C148.647,101.054 156.83,102.214 165.251,101.947 C176.502,94.435 174.509,86.923 178.128,79.412 C173.087,74.583 180.687,75.023 160.422,63.851 C157.908,60.744 160.422,63.851 151.3,55.266 C146.511,52.816 148.466,31.969 147.544,23.072 C145.912,30.774 140.48,41.181 143.252,50.974 C141.225,55.216 145.328,67.415 149.154,65.461 C145.028,67.286 142.369,60.952 136.813,45.608 L135.203,28.438 C131.626,14.554 128.049,10.558 124.472,6.439 L112.668,-0 C114.274,4.476 123.439,11.724 125.009,21.463 C127.341,35.67 129.56,49.577 127.691,52.583 C120.315,29.892 117.934,21.108 111.058,18.78 C116.942,27.449 119.22,47.784 122.326,70.29 C126.108,81.091 129.39,84.57 132.521,85.85 z" fill="#D40000" id="path4121-5" />
        <path d="M166.729,75.09 C165.119,68.114 165.656,57.92 165.656,57.92 C165.656,57.92 169.422,58.379 174.778,38.603 C181.429,14.041 208.464,14.001 209.654,15.531 C201.462,21.075 198.484,18.616 195.167,33.238 L191.411,40.213 L191.411,40.213 C193.898,34.911 196.868,31.138 202.142,30.018 C209.428,14.154 219.904,3.887 238.092,5.336 C224.734,14.279 220.272,15.173 218.239,24.116 C213.549,24.786 200.044,52.777 203.752,55.237 C206.752,57.226 198.386,86.894 197.85,91.723 C197.313,96.552 184.972,102.991 184.972,102.991 L173.704,99.235 z" fill="#D50000" id="path4117-0" />
        <path d="M191.968,52.702 C189.998,53.96 189.177,48.96 191.431,40.361 C191.459,33.941 193.865,26.424 197.87,22.655 C193.357,24.704 197.124,24.147 188.748,33.923 C185.204,37.781 187.66,46.347 181.773,50.556 C179.184,60.827 179.427,62.602 179.627,64.507 C179.739,69.476 179.833,74.458 185.529,75.238 C187.496,73.271 190.179,71.303 193.577,69.336 C194.381,64.461 194.024,59.007 191.968,52.702 z" fill="#FFB801" id="path4141-5-13" />
        <path d="M102.464,162.625 L112.122,147.065 L101.928,136.334 L87.977,133.651 L72.416,135.797 C71.796,137.037 52.816,133.051 48.808,132.578 C45.181,132.149 32.144,127.435 30.564,125.066 C24.084,119.442 24.059,112.205 23.053,105.213 C21.17,110.255 20.835,113.018 21.979,125.066 C30.028,139.553 36.698,138.364 48.808,143.846 C40.401,144.503 31.995,140.318 23.589,136.87 C28.221,140.796 21.268,142.149 38.613,152.431 C52.4,160.495 58.777,156.856 65.978,158.333 C83.517,156.076 83.882,151.673 91.196,148.138 L97.098,156.187 L89.05,165.845 z" fill="#FF7401" id="path4119-9" />
        <path d="M19.748,208.607 C22.983,211.997 24.776,213.638 25.367,213.821 C29.682,219.971 34.723,220.838 39.91,220.639 C46.841,215.024 45.613,209.409 47.843,203.794 C44.737,200.185 49.419,200.514 36.935,192.164 C35.387,189.841 36.935,192.164 31.317,185.747 C28.366,183.915 29.571,168.333 29.003,161.683 C27.998,167.44 24.651,175.219 26.359,182.538 C25.11,185.709 27.638,194.827 29.994,193.367 C27.453,194.731 25.815,189.997 22.392,178.528 L21.401,165.694 C19.197,155.317 16.994,152.33 14.79,149.251 L7.519,144.438 C8.508,147.783 14.154,153.201 15.121,160.48 C16.557,171.1 17.924,181.494 16.774,183.741 C12.23,166.781 10.763,160.215 6.527,158.475 C10.152,164.955 11.555,180.154 13.468,196.976 C15.798,205.049 17.82,207.65 19.748,208.607 z" fill="#D40000" id="path4121-0-0" />
        <path d="M57.206,190.797 C55.948,192.767 60.948,193.588 69.547,191.333 C75.967,191.306 83.485,188.9 87.253,184.895 C85.204,189.407 85.761,185.641 75.986,194.016 C72.127,197.56 63.561,195.105 59.352,200.992 C49.081,203.581 47.306,203.338 45.401,203.138 C40.433,203.026 35.45,202.932 34.67,197.236 C36.637,195.268 38.605,192.585 40.572,189.187 C45.447,188.384 50.902,188.741 57.206,190.797 z" fill="#FFB801" id="path4141-5-1" />
        <path d="M99.696,88.953 C102.931,92.343 104.724,93.985 105.315,94.167 C109.63,100.317 114.671,101.184 119.858,100.985 C126.789,95.37 125.561,89.755 127.791,84.14 C124.685,80.532 129.367,80.86 116.884,72.51 C115.335,70.188 116.884,72.51 111.265,66.093 C108.314,64.261 109.519,48.68 108.951,42.03 C107.946,47.786 104.599,55.565 106.307,62.884 C105.058,66.055 107.586,75.174 109.943,73.713 C107.401,75.077 105.763,70.343 102.341,58.874 L101.349,46.04 C99.145,35.663 96.942,32.676 94.738,29.597 L87.467,24.784 C88.456,28.13 94.102,33.547 95.069,40.826 C96.506,51.446 97.873,61.84 96.722,64.088 C92.178,47.127 90.711,40.561 86.475,38.821 C90.1,45.301 91.503,60.5 93.416,77.323 C95.746,85.396 97.768,87.996 99.696,88.953 z" fill="#D33833" id="path4121-0-01" />
        <path d="M87.062,85.65 C89.032,86.908 89.853,81.908 87.599,73.309 C87.571,66.889 85.165,59.371 81.16,55.602 C85.673,57.652 81.906,57.095 90.282,66.87 C93.826,70.729 91.37,79.294 97.257,83.504 C99.846,93.775 99.603,95.55 99.403,97.454 C99.292,102.423 99.198,107.405 93.501,108.186 C91.534,106.218 88.851,104.251 85.453,102.283 C84.649,97.409 85.007,91.954 87.062,85.65 z" fill="#FFB801" id="path4141-5-0-5" />
        <path d="M76.817,264.914 C78.075,266.884 70.392,265.022 61.793,262.767 C55.373,262.74 52.685,257.114 48.916,253.109 C50.965,257.622 48.262,259.757 58.037,268.133 C61.805,271.791 65.341,275.622 74.671,275.108 L88.622,277.254 L99.89,270.279 L93.451,263.304 z" fill="#FFB801" id="path4141-8" /> </g>
    <g id="Layer2">
        <path d="M266.151,194.537 C266.151,256.323 217.182,306.411 156.776,306.411 C96.37,306.411 47.402,256.323 47.402,194.537 C47.402,132.749 96.37,82.661 156.776,82.661 C217.182,82.661 266.151,132.749 266.151,194.537" fill="#D33833" id="path22-5" />
        <path d="M51.859,222.244 C51.859,222.244 43.941,105.578 151.441,102.244 L143.942,89.744 L85.609,109.328 L68.942,128.494 L54.359,156.412 L46.025,188.912 L48.525,210.578" fill="#EF3D3A" id="path24-2" />
        <path d="M81.863,118.218 C62.673,137.853 50.799,164.963 50.799,194.954 L50.799,194.954 C50.799,224.939 62.673,252.053 81.863,271.684 L81.863,271.684 C101.063,291.316 127.522,303.429 156.774,303.429 L156.774,303.429 C186.027,303.429 212.488,291.316 231.686,271.684 L231.686,271.684 C250.874,252.053 262.752,224.939 262.752,194.954 L262.752,194.954 C262.752,164.963 250.874,137.853 231.686,118.218 L231.686,118.218 C212.488,98.591 186.027,86.477 156.774,86.474 L156.774,86.474 C127.522,86.477 101.063,98.591 81.863,118.218 L81.863,118.218 z M77.006,276.433 C56.611,255.576 44.003,226.751 44.003,194.954 L44.003,194.954 C44.003,163.153 56.611,134.331 77.006,113.472 L77.006,113.472 C97.396,92.609 125.62,79.678 156.774,79.682 L156.774,79.682 C187.928,79.678 216.156,92.609 236.542,113.472 L236.542,113.472 C256.938,134.331 269.548,163.156 269.546,194.954 L269.546,194.954 C269.548,226.751 256.938,255.576 236.542,276.433 L236.542,276.433 C216.156,297.295 187.928,310.224 156.774,310.224 L156.774,310.224 C125.62,310.224 97.396,297.295 77.006,276.433 L77.006,276.433" fill="#231F20" id="path26-2" /> </g>
    <g id="ink_ext_XXXXXX">
        <path d="M211.013,40.711 L211.19,53.439 L210.218,59.714 L218.172,68.907 L221.62,71.382 L221.62,65.902 L219.41,52.908 L216.405,45.661 z" fill="#FFA59B" id="path4057" />
        <path d="M208.45,58.3 C208.813,56.924 209.147,56.006 209.245,53.439 C209.473,52.925 209.593,47.918 209.599,44.512 C209.634,43.197 209.562,41.658 209.157,37.264 C209.884,37.132 210.291,36.519 211.897,37.706 L215.344,41.86 C217.663,45.196 219.613,48.48 220.294,51.583 C220.827,52.964 221.449,55.147 222.68,62.808 C223.521,71.104 223.365,70.767 223.564,73.503 L222.857,76.066 L220.736,74.033 L220.382,69.614 C220.235,65.371 220.491,65.58 219.498,59.272 C218.565,55.537 218.693,54.479 217.377,51.229 L215.609,47.782 C214.177,44.077 212.298,42.299 211.543,41.86 C211.785,44.82 212.067,47.973 212.074,49.285 C212.015,54.179 211.779,55.68 211.72,57.77 L211.367,61.305 z" fill="#231F20" id="path4055" />
        <g id="g3393">
            <g id="path28">
                <path d="M203.401,195.169 L186.733,197.669 L164.233,200.169 L149.649,200.585 L135.483,200.169 L124.649,196.835 L115.066,186.419 L107.566,165.169 L105.899,160.585 L95.899,157.253 L90.066,147.669 L85.899,133.919 L90.483,121.835 L101.316,118.085 L110.066,122.253 L114.233,131.419 L119.233,130.585 L120.899,128.503 L119.233,118.919 L118.816,106.835 L121.316,90.169 L121.218,80.649 L128.816,68.503 L142.149,58.919 L165.483,48.919 L191.316,52.669 L213.816,68.919 L224.233,85.585 L230.9,97.669 L232.566,127.669 L227.566,153.503 L218.4,176.419 L209.65,188.503" fill="#FFA59B" />
                <path d="M203.401,195.169 L186.733,197.669 L164.233,200.169 L149.649,200.585 L135.483,200.169 L124.649,196.835 L115.066,186.419 L107.566,165.169 L105.899,160.585 L95.899,157.253 L90.066,147.669 L85.899,133.919 L90.483,121.835 L101.316,118.085 L110.066,122.253 L114.233,131.419 L119.233,130.585 L120.899,128.503 L119.233,118.919 L118.816,106.835 L121.316,90.169 L121.218,80.649 L128.816,68.503 L142.149,58.919 L165.483,48.919 L191.316,52.669 L213.816,68.919 L224.233,85.585 L230.9,97.669 L232.566,127.669 L227.566,153.503 L218.4,176.419 L209.65,188.503" fill-opacity="0" stroke="#000000" stroke-width="1.25" /> </g>
            <path d="M189.234,267.251 L129.649,269.751 L129.649,279.751 L134.649,314.751 L132.149,317.669 L90.483,303.501 L87.566,298.501 L83.399,251.419 L73.817,223.085 L71.733,216.419 L105.066,193.503 L115.483,189.335 L124.649,200.585 L132.566,207.669 L141.733,210.585 L145.899,211.835 L150.899,233.502 L154.649,238.085 L164.233,234.752 L157.566,247.669 L193.816,264.751 L189.234,267.251" fill="#335061" id="path30" />
            <path d="M90.483,121.835 L101.316,118.085 L110.066,122.253 L114.233,131.419 L119.233,130.585 L120.483,125.585 L117.983,116.003 L120.483,93.085 L118.399,80.585 L125.899,71.835 L142.149,58.919 L137.566,52.669 L114.649,63.919 L105.066,71.419 L99.649,83.085 L91.316,94.335 L88.816,107.669 L90.483,121.835" fill="#6D6B6D" id="path32" />
            <path d="M107.566,82.669 C107.566,82.669 113.816,67.253 138.816,59.753 C163.816,52.253 140.066,54.335 140.066,54.335 L112.983,64.753 L102.566,75.169 L97.983,83.503 L107.566,82.669" fill="#DCD9D8" id="path34" />
            <path d="M95.066,118.919 C95.066,118.919 86.316,89.751 119.649,85.585 L118.399,80.585 L95.483,86.003 L88.816,107.669 L90.483,121.835 L95.066,118.919" fill="#DCD9D8" id="path36" />
            <path d="M108.399,157.669 L113.855,152.383 C113.855,152.383 116.317,152.669 116.733,155.585 C117.149,158.503 118.399,184.753 136.316,198.92 C137.95,200.213 122.983,196.835 122.983,196.835 L109.649,176.003" fill="#F2C5C1" id="path38" />
            <path d="M185.069,149.753 C185.069,149.753 186.04,137.123 189.441,138.094 C192.842,139.065 192.842,142.467 192.842,142.467 C192.842,142.467 184.582,147.81 185.069,149.753" fill="#F2C5C1" id="path40" />
            <path d="M112.566,131.003 C112.566,131.003 96.732,121.419 95.066,130.587 C93.399,139.753 89.648,146.42 97.566,156.003 L92.149,154.337 L87.149,141.42 L85.483,128.92 L95.066,118.919 L105.899,119.753 L112.149,124.753 L112.566,131.003" fill="#F2C5C1" id="path46" />
            <path d="M120.066,104.753 C120.066,104.753 127.149,68.086 162.983,61.003 C192.485,55.171 207.982,62.253 213.816,68.919 C213.816,68.919 187.566,37.67 162.566,47.253 C137.566,56.836 119.233,74.336 119.649,85.585 C120.359,104.745 120.066,104.753 120.066,104.753" fill="#F2C5C1" id="path48" />
            <path d="M124.649,200.585 L85.483,218.085 C85.483,218.085 101.733,282.669 93.399,302.669 L87.566,300.587 L87.149,276.003 L76.317,229.337 L71.733,216.419 L112.566,188.92 L124.649,200.585" fill="#49728B" id="path54" />
            <path d="M128.677,236.307 L134.233,243.087 L134.233,268.086 L127.566,268.086 C127.566,268.086 126.733,250.587 126.733,248.503 C126.733,246.419 127.566,238.919 127.566,238.919" fill="#49728B" id="path56" />
            <path d="M128.816,271.837 L110.066,272.669 L115.483,276.419 L128.816,278.503" fill="#49728B" id="path58" />
            <path d="M192.984,267.669 L208.4,267.253 L212.15,305.586 L196.316,307.669 L192.984,267.669" fill="#335061" id="path60" />
            <path d="M197.15,267.669 L220.484,266.419 C220.484,266.419 230.066,242.253 230.066,241.003 C230.066,239.753 238.4,206.003 238.4,206.003 L219.65,186.42 L215.9,183.087 L205.9,193.087 L205.9,231.837 L197.15,267.669" fill="#335061" id="path62" />
            <path d="M207.566,264.753 L192.984,267.669 L195.066,279.337 C200.482,281.837 209.65,275.169 209.65,275.169" fill="#49728B" id="path64" />
            <path d="M207.984,191.836 L237.15,213.503 L237.984,203.503 L215.9,183.086 L207.984,191.836" fill="#49728B" id="path66" />
            <path d="M143.276,349.756 L134.649,314.751 L130.359,288.923 L129.649,269.751 L168.693,267.673 L192.984,267.669 L190.775,311.423 L194.525,345.173 L194.109,351.423 L162.443,353.923 L143.276,349.756" fill="#FFFFFF" id="path68" />
            <path d="M187.566,267.253 C187.566,267.253 185.484,310.587 191.734,341.419 C191.734,341.419 179.234,349.337 160.899,351.419 L195.9,350.169 L200.066,347.669 L195.066,279.337 L193.816,264.751" fill="#DCD9D8" id="path70" />
            <path d="M212.86,302.257 L229.11,297.673 L259.942,296.007 L264.526,281.84 L256.192,257.257 L246.61,256.007 L233.276,260.173 L220.484,266.419 L213.692,265.173 L208.4,267.253" fill="#FFFFFF" id="path72" />
            <path d="M212.566,293.919 C212.566,293.919 223.398,288.92 225.066,289.337 L220.484,266.419 L225.9,264.337 C225.9,264.337 229.65,286.003 229.65,288.503 C229.65,288.503 252.982,289.753 255.066,289.753 C255.066,289.753 260.066,280.169 258.816,270.169 L263.4,283.503 L263.816,291.003 L257.15,301.003 L249.65,302.669 L237.15,302.253 L232.984,296.837 L218.4,298.919 L213.816,300.587" fill="#DCD9D8" id="path74" />
            <path d="M196.192,264.34 L187.026,241.007 L177.442,227.257 C177.442,227.257 179.525,221.423 182.442,221.423 C185.36,221.423 192.026,221.423 192.026,221.423 L201.192,224.757 L200.36,240.173 L196.192,264.34" fill="#FFFFFF" id="path76" />
            <path d="M197.984,256.419 C197.984,256.419 186.316,233.92 186.316,230.587 C186.316,230.587 188.398,225.587 191.316,226.837 C194.234,228.087 200.484,231.419 200.484,231.419 L200.484,223.503 L186.316,220.585 L176.734,221.835 L192.984,260.169 L196.316,260.586" fill="#DCD9D8" id="path78" />
            <path d="M147.026,201.424 L135.483,200.169 L124.649,196.835 L124.649,200.585 L129.943,206.423 L146.609,213.923" fill="#FFFFFF" id="path80" />
            <path d="M128.401,202.673 C128.401,202.673 141.318,208.09 145.485,206.84 L145.899,211.835 L134.235,209.34 L127.151,204.34 L128.401,202.673" fill="#DCD9D8" id="path82" />
            <path d="M212.815,222.842 C205.745,222.634 199.357,221.794 193.765,220.217 C194.145,217.924 193.434,215.674 194.005,214.023 C195.564,212.9 198.176,212.918 200.532,212.654 C198.495,211.653 195.632,211.257 193.281,211.835 C193.226,210.244 192.512,209.258 192.08,208.013 C196.055,206.594 205.439,197.293 210.717,200.373 C213.232,201.838 214.301,210.205 214.496,214.274 C214.659,217.649 214.19,221.054 212.815,222.842" fill="#D33833" id="path84" />
            <path d="M212.815,222.842 C205.745,222.634 199.357,221.794 193.765,220.217 C194.145,217.924 193.434,215.674 194.005,214.023 C195.564,212.9 198.176,212.918 200.532,212.654 C198.495,211.653 195.632,211.257 193.281,211.835 C193.226,210.244 192.512,209.258 192.08,208.013 C196.055,206.594 205.439,197.293 210.717,200.373 C213.232,201.838 214.301,210.205 214.496,214.274 C214.659,217.649 214.19,221.054 212.815,222.842 z" fill-opacity="0" stroke="#D33833" stroke-width="2.5" id="path86" />
            <path d="M179.006,211.284 C178.987,211.819 178.965,212.358 178.944,212.898 C176.736,214.348 173.172,214.33 170.75,215.549 C174.321,215.705 177.132,216.565 179.565,217.778 C179.511,219.125 179.46,220.471 179.407,221.819 C175.361,224.589 171.665,228.714 166.901,231.312 C164.648,232.54 156.743,235.701 154.347,235.143 C152.991,234.828 152.868,233.145 152.327,231.559 C151.172,228.163 148.513,222.757 148.281,217.644 C147.986,211.187 147.334,200.364 154.293,201.694 C159.907,202.765 166.437,205.352 170.784,207.727 C173.44,209.179 174.976,210.974 179.006,211.284" fill="#D33833" id="path88" />
            <path d="M179.006,211.284 C178.987,211.819 178.965,212.358 178.944,212.898 C176.736,214.348 173.172,214.33 170.75,215.549 C174.321,215.705 177.132,216.565 179.565,217.778 C179.511,219.125 179.46,220.471 179.407,221.819 C175.361,224.589 171.665,228.714 166.901,231.312 C164.648,232.54 156.743,235.701 154.347,235.143 C152.991,234.828 152.868,233.145 152.327,231.559 C151.172,228.163 148.513,222.757 148.281,217.644 C147.986,211.187 147.334,200.364 154.293,201.694 C159.907,202.765 166.437,205.352 170.784,207.727 C173.44,209.179 174.976,210.974 179.006,211.284 z" fill-opacity="0" stroke="#D33833" stroke-width="2.5" id="path90" />
            <path d="M183.025,218.989 C182.407,215.471 181.694,214.468 181.97,211.399 C191.351,205.144 193.112,222.143 183.025,218.989" fill="#D33833" id="path92" />
            <path d="M183.025,218.989 C182.407,215.471 181.694,214.468 181.97,211.399 C191.351,205.144 193.112,222.143 183.025,218.989 z" fill-opacity="0" stroke="#D33833" stroke-width="2.5" id="path94" />
            <path d="M196.608,221.84 C196.608,221.84 193.691,217.673 195.775,216.423 C197.858,215.173 199.942,216.424 201.192,214.34 C202.442,212.257 201.192,211.007 201.608,208.507 C202.025,206.007 204.11,205.589 206.192,205.173 C208.275,204.757 214.11,203.923 214.942,206.007 L212.442,198.507 L207.442,196.84 L191.608,206.007 L190.775,210.59 L190.775,219.757" fill="#EF3D3A" id="path96" />
            <path d="M152.859,235.59 C152.358,229.088 151.829,222.594 151.239,216.098 C150.357,206.398 153.569,208.09 161.977,208.09 C163.262,208.09 169.885,209.622 170.359,210.59 C172.631,215.232 166.559,214.2 172.976,217.7 C178.394,220.654 187.964,215.906 185.775,209.34 C184.55,207.88 179.392,208.885 177.544,207.926 C174.289,206.239 171.034,204.551 167.778,202.864 C163.637,200.715 154.065,197.583 149.649,200.585 C138.461,208.194 150.355,227.205 154.347,235.143" fill="#EF3D3A" id="path98" />
            <path d="M217.125,146.403 C208.977,151.636 199.892,157.328 186.542,156.008 C183.69,153.528 182.602,148.009 185.374,144.364 C186.816,146.844 185.91,151.405 189.93,152.091 C197.505,153.388 206.321,147.458 211.77,145.385 C215.148,139.689 211.479,137.594 208.435,133.928 C202.203,126.416 193.845,117.106 194.148,105.861 C196.667,104.035 196.885,108.649 197.246,109.489 C200.5,117.104 208.688,126.843 214.665,133.36 C216.132,134.965 218.548,136.505 218.817,137.566 C219.592,140.653 216.801,144.35 217.125,146.403" fill="#231F20" id="path106" />
            <path d="M109.714,140.893 C107.16,139.435 106.553,133.015 103.555,132.833 C99.27,132.573 100.051,141.161 100.068,146.184 C97.119,143.507 96.6,135.263 98.767,131.029 C96.298,129.816 95.195,132.367 93.826,133.265 C95.586,120.478 112.532,127.334 109.714,140.893" fill="#231F20" id="path108" />
            <path d="M216.532,231.346 C210.772,241.211 205.261,251.344 198.427,260.046 C201.292,251.622 202.519,237.522 202.951,226.774 C208.945,223.969 214.077,227.405 216.532,231.346" fill="#81B0C4" id="path116" />
            <path d="M247.527,266.803 C241.079,268.094 236.547,274.361 230.256,273.959 C233.714,269.085 239.772,267.03 247.527,266.803" fill="#231F20" id="path118" />
            <path d="M250.372,276.895 C245.116,277.45 238.942,278.301 233.611,277.863 C236.135,274.008 245.859,275.338 250.372,276.895" fill="#231F20" id="path120" />
            <path d="M252.193,285.596 C246.286,285.724 238.943,285.607 233.329,285.135 C236.65,281.568 248.362,283.812 252.193,285.596" fill="#231F20" id="path122" />
            <path d="M205.417,309.408 C206.265,316.827 209.206,324.344 208.837,332.469 C205.571,333.57 203.695,334.534 199.318,334.528 C199.01,327.623 198.086,317.066 198.362,310.484 C200.515,310.627 203.688,308.946 205.417,309.408" fill="#DCD9D8" id="path124" />
            <path d="M195.894,200.068 C192.927,202.004 190.401,204.421 187.552,206.489 C181.235,206.801 177.787,206.051 173.146,202.424 C173.222,202.133 173.689,202.263 173.706,201.905 C180.469,204.919 189.065,200.678 195.894,200.068" fill="#FFB5AC" id="path126" />
            <path d="M160.393,246.165 C162.251,238.114 169.531,233.944 176.142,229.51 C182.966,238.171 187.116,249.308 191.686,260.055 C180.889,256.8 169.856,251.519 160.393,246.165" fill="#81B0C4" id="path128" />
            <path d="M198.362,310.484 C198.086,317.066 199.01,327.623 199.319,334.528 C203.695,334.534 205.571,333.57 208.837,332.469 C209.206,324.344 206.265,316.827 205.417,309.408 C203.689,308.946 200.515,310.626 198.362,310.484 z M130.22,273.048 C133.105,299.577 137.285,321.878 144.951,345.369 C161.965,350.535 182.476,350.985 197.515,346.324 C194.754,333.065 195.96,316.923 194.346,302.774 C193.13,292.139 193.75,281.439 192.082,270.589 C173.86,266.798 148.103,269.703 130.22,273.048 z M196.391,270.755 C196.237,282.149 196.901,293.388 197.771,304.796 C202.146,304.139 205.115,303.7 209.18,302.809 C207.86,291.827 208.022,279.469 205.334,269.754 C202.226,269.784 199.49,269.718 196.391,270.755 z M218.585,268.919 C216.509,268.443 214.091,268.901 212.107,268.939 C213.04,278.227 215.302,288.475 216.099,298.224 C219.22,298.321 220.887,296.849 223.455,296.354 C223.592,287.797 222.707,276.007 218.585,268.919 z M252.19,299.623 C258.696,298.043 262.787,290.074 260.967,281.89 C259.746,276.39 257.571,266.034 255.244,262.515 C253.524,259.913 248.86,256.505 245.136,258.89 C239.079,262.769 228.407,263.895 223.99,268.59 C226.205,275.965 226.892,286.095 227.806,295.44 C235.374,295.912 244.685,293.358 250.979,296.068 C246.585,297.491 240.884,297.503 237.087,299.577 C240.19,301.075 247.454,300.772 252.19,299.623 z M191.686,260.055 C187.116,249.308 182.966,238.171 176.142,229.51 C169.531,233.944 162.251,238.114 160.393,246.165 C169.856,251.519 180.889,256.8 191.686,260.055 z M202.951,226.774 C202.519,237.523 201.292,251.622 198.427,260.046 C205.261,251.344 210.772,241.212 216.532,231.346 C214.077,227.405 208.945,223.969 202.951,226.774 z M190.181,222.236 C187.592,221.958 185.395,225.213 182.029,223.805 C181.257,224.658 180.556,225.581 179.77,226.414 C187.205,235.374 190.584,248.087 196.326,258.616 C199.407,248.501 199.052,237.42 199.731,226.38 C195.497,226.649 193.149,222.551 190.181,222.236 z M181.97,211.399 C181.694,214.468 182.407,215.471 183.025,218.989 C193.112,222.143 191.351,205.144 181.97,211.399 z M170.784,207.727 C166.437,205.352 159.907,202.765 154.293,201.694 C147.334,200.363 147.986,211.187 148.281,217.644 C148.513,222.757 151.172,228.163 152.327,231.559 C152.869,233.145 152.991,234.828 154.347,235.143 C156.743,235.701 164.648,232.54 166.901,231.312 C171.665,228.714 175.361,224.589 179.407,221.819 C179.46,220.471 179.511,219.125 179.565,217.778 C177.132,216.565 174.321,215.705 170.75,215.549 C173.172,214.33 176.736,214.348 178.944,212.898 C178.965,212.358 178.987,211.819 179.006,211.284 C174.976,210.974 173.44,209.179 170.784,207.727 z M129.267,200.185 C125.659,203.848 139.385,208.84 143.755,209.109 C143.73,206.792 145.076,204.607 144.805,202.944 C139.614,202.033 132.793,202.634 129.267,200.185 z M173.706,201.905 C173.689,202.263 173.222,202.133 173.146,202.424 C177.787,206.051 181.235,206.801 187.552,206.489 C190.401,204.422 192.927,202.004 195.894,200.068 C189.065,200.678 180.469,204.919 173.706,201.905 z M214.496,214.274 C214.301,210.205 213.232,201.838 210.717,200.373 C205.439,197.292 196.055,206.594 192.08,208.013 C192.512,209.258 193.226,210.244 193.281,211.835 C195.632,211.257 198.495,211.653 200.532,212.654 C198.176,212.918 195.564,212.9 194.005,214.023 C193.434,215.674 194.145,217.924 193.765,220.217 C199.357,221.794 205.745,222.634 212.815,222.842 C214.19,221.054 214.659,217.649 214.496,214.274 z M123.193,203.728 C122.06,202.92 114.397,192.949 113.347,193.363 C99.48,198.831 86.514,208.288 74.927,217.232 C85.974,240.937 90.434,269.979 91.222,297.971 C103.877,303.89 114.993,312.423 132.165,313.314 C130.178,299.254 128.364,286.71 127.236,273.473 C122.921,271.654 116.731,273.555 112.693,272.909 C112.659,268.043 118.86,270.778 119.376,267.505 C119.766,265.03 115.964,264.843 117.202,260.945 C120.359,262.093 122.017,264.628 125.383,265.579 C128.459,258.849 125.34,246.941 125.784,241.316 C125.868,240.26 126.311,235.465 128.677,236.307 C130.77,237.051 128.557,249.059 128.787,254.383 C128.996,259.288 128.194,264.034 130.181,267.113 C146.775,264.854 163.638,263.394 181.592,262.901 C177.642,261.207 172.95,259.603 167.805,256.703 C165.016,255.131 156.225,251.859 155.42,249.21 C154.136,244.989 158.789,242.74 159.585,239.122 C151.208,243.69 149.574,234.743 147.593,228.404 C145.797,222.663 144.775,218.374 144.335,215.063 C137.119,211.623 129.404,208.139 123.193,203.728 z M207.167,194.569 C218.721,188.967 220.804,215.508 216.275,224.058 C216.975,226.608 219.382,227.584 220.365,229.876 C213.917,241.426 206.756,252.208 200.177,263.622 C205.071,260.575 212.061,263.077 217.82,260.797 C219.925,259.964 221.449,255.145 223.042,251.29 C227.426,240.684 232.029,227.313 234.076,217.191 C234.539,214.885 235.799,209.86 235.516,207.808 C235.012,204.133 230.026,201.408 227.49,199.135 C222.817,194.938 219.875,191.244 215.001,187.319 C213.025,190.236 208.784,192.197 207.167,194.569 z M96.77,92.109 C91.265,98.167 92.417,109.517 93.083,117.591 C103.035,111.332 116.243,118.087 116.118,128.734 C120.869,128.608 117.893,122.8 117.034,119.059 C114.225,106.839 121.765,93.563 117.375,82.388 C108.852,83.034 101.85,86.515 96.77,92.109 z M136.162,56.952 C123.699,60.484 107.725,69.54 102.604,80.737 C106.57,80.16 109.323,78.16 113.235,77.913 C114.713,77.817 116.65,78.533 118.35,78.11 C121.736,77.27 124.594,69.678 127.148,66.853 C129.639,64.094 132.632,62.915 134.68,60.4 C135.996,59.765 137.942,59.809 138.017,57.833 C137.446,57.223 136.846,56.758 136.162,56.952 z M201.306,60.716 C188.37,53.417 166.208,47.485 152.448,54.345 C141.344,59.882 126.335,69.042 121.218,80.649 C125.998,91.85 119.802,102.114 119.407,113.487 C119.197,119.538 122.256,124.82 122.49,131.408 C120.854,134.107 115.857,134.439 112.397,134.254 C111.233,128.426 109.194,121.877 103.193,121.219 C94.702,120.29 88.494,127.318 88.108,134.661 C87.651,143.298 94.741,157.611 104.79,156.618 C108.672,156.234 109.625,152.343 113.855,152.383 C116.147,156.956 110.319,158.393 109.719,161.664 C109.563,162.509 110.203,165.812 110.575,167.36 C112.4,174.902 116.469,184.661 120.474,190.403 C125.557,197.685 135.543,198.783 146.287,199.497 C148.205,195.363 155.274,195.703 159.88,196.784 C154.36,194.598 149.228,189.298 144.975,184.607 C140.09,179.224 135.142,173.45 134.892,166.415 C144.123,179.223 151.75,190.408 168.538,196.042 C181.24,200.301 196.075,194.089 205.835,187.235 C209.885,184.387 212.302,179.867 215.181,175.729 C225.952,160.235 230.979,138.12 229.874,116.685 C229.419,107.845 229.439,99.035 226.472,93.088 C224.565,87.936 223.039,85.347 219.185,79.319 C213.957,72.573 208.736,64.908 201.306,60.716 z M225.142,259.733 C235.251,254.708 254.139,246.207 260.476,259.751 C262.815,264.744 265.559,273.184 266.77,278.338 C268.481,285.609 264.915,300.892 257.441,303.332 C250.84,305.486 243.137,305.355 235.186,303.758 C234.25,302.979 233.207,301.622 232.479,300.207 C226.801,299.986 221.485,300.511 217,302.845 C217.425,307.044 214.585,307.718 211.922,308.583 C209.949,316.409 215.871,326.629 214.454,333.765 C213.442,338.849 207.187,339.635 202.59,340.587 C202.44,343.412 202.791,345.77 203.105,348.16 C202.054,352.034 197.339,354.239 192.871,354.779 C178.172,356.546 155.854,357.34 141.716,352.256 C137.771,342.579 134.663,330.809 131.377,319.759 C117.588,321.232 106.435,313.809 95.922,308.946 C92.282,307.259 87.246,306.329 85.886,303.432 C84.568,300.626 85.107,295.25 84.78,290.172 C83.948,277.2 83.235,264.689 79.809,251.408 C78.271,245.448 75.591,240.189 73.721,234.446 C71.992,229.124 68.972,222.547 68.184,217.239 C67.017,209.373 74.424,208.935 79.16,205.527 C86.482,200.255 92.229,197.34 100.159,192.583 C102.507,191.174 109.59,187.608 110.395,185.965 C111.997,182.709 107.646,178.118 106.483,175.565 C104.643,171.529 103.684,168.1 103.42,164.118 C96.768,163.066 91.726,159.108 88.68,154.644 C83.642,147.257 80.147,133.589 84.507,123.193 C84.849,122.374 86.554,120.764 86.805,119.507 C87.301,117.03 85.871,113.738 85.783,111.104 C85.325,97.591 88.069,85.949 97.165,81.874 C100.858,67.163 114.076,62.272 126.528,54.96 C131.183,52.228 136.314,50.482 141.614,48.532 C160.624,41.535 189.791,42.853 205.569,54.785 C212.259,59.845 222.952,70.529 226.777,78.264 C236.88,98.685 236.162,132.814 229.096,157.655 C228.146,160.99 226.769,165.893 224.845,169.899 C223.504,172.697 219.335,178.294 219.841,180.764 C220.362,183.318 229.346,190.139 231.272,191.997 C234.741,195.343 241.331,199.784 241.865,204.007 C242.439,208.5 239.885,214.648 238.591,218.984 C234.266,233.455 230.046,246.832 225.142,259.733" fill="#231F20" id="path130" />
            <path d="M194.234,231.212 C194.234,232.477 193.207,233.503 191.941,233.503 C190.676,233.503 189.65,232.477 189.65,231.212 C189.65,229.947 190.676,228.919 191.941,228.919 C193.207,228.919 194.234,229.947 194.234,231.212" fill="#1D1919" id="path134" />
            <path d="M196.525,241.837 C196.525,243.102 195.499,244.128 194.232,244.128 C192.967,244.128 191.941,243.102 191.941,241.837 C191.941,240.571 192.967,239.544 194.232,239.544 C195.499,239.544 196.525,240.571 196.525,241.837" fill="#1D1919" id="path136" /> </g>
        <path d="M182.994,104.616 C184.824,107.98 185.726,110.116 187.142,114.479 C187.931,116.913 188.342,119.139 187.944,122.47 C186.964,124.356 186.281,125.444 184.846,126.321 C182.231,127.919 176.935,127.697 172.918,128.127 C170.737,127.656 169.097,128.075 164.786,126.006 C157.561,123.627 157.213,123.764 154.193,122.78 C147.865,120.716 147.266,120.756 143.438,119.706 C148.434,119.666 155.561,119.374 159.818,119.14 C165.304,118.839 172.764,117.225 177.121,115.808 C179.846,114.921 177.121,115.808 180.696,113.631 L182.64,110.803 z" fill="#231F20" id="path3271" />
        <path d="M200.495,105.853 C200.613,112.6 200.907,114.851 201.555,118.935 L201.555,118.935 L204.914,124.061 L206.328,127.243 C211.429,125.996 214.283,123 214.283,123 C220.882,119.031 221.929,117.664 223.299,115.576 C225.531,112.917 226.928,110.395 228.956,107.09 C228.774,107.302 229.917,107.447 222.238,111.333 C216.359,113.427 210.71,113.69 209.157,113.101 C207.814,113.327 206.198,112.461 204.384,110.803 C202.894,110.339 201.679,107.168 200.495,105.853 z" fill="#231F20" id="path4047" />
        <path d="M144.912,79.425 C144.912,79.425 143.748,76.429 143.495,79.835 C143.342,81.895 143.419,91.441 143.442,95.445 C140.863,100.125 139.785,102.864 138.121,105.715 L138.623,107.444 C140.512,104.531 143.388,99.412 144.587,96.97 L144.987,93.99 L145.164,87.01 z" fill="#000000" id="path4049" />
        <path d="M125.276,85.347 L121.918,72 L121.652,54.499 L122.801,40.004 L124.216,38.324 L126.249,38.324 L127.663,42.921 L128.989,52.466 L132.789,60.687 L137.916,71.735 L133.496,77.834 L125.718,85.877" fill="#F2C5C1" id="path4053" />
        <path d="M136.502,71.735 C138.862,73.278 139.455,73.509 140.567,71.912 C140.621,70.884 140.273,70.056 139.86,69.26 L137.651,66.343 C136.351,64.866 134.288,60.916 133.231,58.212 C131.97,55.064 130.619,52.048 129.961,48.931 C128.461,42.66 129.782,39.312 126.602,36.557 C125.744,35.933 124.748,35.653 123.42,36.203 C122.234,37.739 121.326,37.203 120.945,41.948 C119.611,47.289 120.203,51.5 119.708,56.002 C119.625,60.997 118.745,58.5 119.708,73.326 C121.193,85.366 121.389,82.669 122.448,85.966 C122.987,86.419 124.237,87.662 125.011,87.645 C125.467,87.083 126.26,87.197 126.072,85.347 C123.912,79.782 123.877,74.741 123.509,73.503 L123.067,66.609 C122.614,61.815 122.718,58.133 122.713,54.234 C122.931,51.666 122.569,50.767 123.243,46.103 C123.622,41.56 123.212,39.944 124.923,39.031 C125.527,39.376 126.258,40.137 126.602,43.628 C127.295,50.647 128.424,53.416 128.723,55.56 C129.629,60.278 131.669,64.408 133.85,67.846 C134.67,69.271 135.456,70.763 136.502,71.735 z" fill="#231F20" id="path4051" />
        <path d="M180.88,181.71 L188.168,177.643 L193.761,173.999 C196.295,173.416 197.563,173.593 199.015,173.66 L201.981,174.677 L208.676,180.27 L211.303,180.524 L211.811,174.846 L216.133,167.389 L209.354,166.711 L201.134,167.558 L191.897,167.473 C184.08,168.05 176.147,168.47 167.66,168.151 C165.058,168.147 161.641,168.469 157.914,168.914 L156.304,170.355 L158.508,173.151 C159.694,176.158 160.88,178.022 162.067,180.185 L164.016,185.27 L168.931,187.049 C173.629,185.635 177.345,183.706 180.88,181.71 z" fill="#231F20" id="path4067" />
        <path d="M165.711,170.355 L167.575,169.761 L170.287,169.761 L171.897,170.1 C172.633,171.457 172.728,172.468 172.666,174.184 C172.52,175.526 172.452,175.749 171.727,176.091 L169.27,176.117 L166.558,173.66 L164.863,171.033 z" fill="#E7E7E7" id="path4069" />
        <path d="M174.185,169.761 C172.965,169.84 173.923,172.098 173.846,173.321 C174.085,175.113 174.467,175.473 174.863,175.694 L177.321,175.553 L180.117,174.846 C180.703,174.383 180.229,172.431 180.386,171.252 C179.9,170.094 179.951,169.797 179.778,169.423 C174.622,169.799 175.799,169.668 174.185,169.761 z" fill="#E7E7E7" id="path4071" />
        <path d="M181.417,169.565 L181.515,171.791 C181.576,172.652 181.878,173.505 182.08,173.799 C182.876,173.658 183.236,173.97 184.354,173.829 C186.215,173.547 186.947,173.264 188.083,172.982 C188.437,172.469 188.342,170.809 188.077,169.278 L184.27,169.338 z" fill="#E7E7E7" id="path4073" />
        <path d="M189.552,169.281 C189.768,170.126 189.406,171.409 189.993,172.411 L191.665,172.441 C193.142,172.124 193.622,171.394 195.241,171.093 L196.275,171.058 C196.289,170.26 196.466,170.03 196.311,169.076 L192.095,169.111 z" fill="#E7E7E7" id="path4075" />
        <path d="M197.49,169.168 C197.23,170.148 197.432,170.313 197.492,171.133 C199.482,170.804 200.407,171.425 200.826,171.568 C202.54,171.729 202.182,171.862 202.624,172.16 L203.409,171.34 L203.525,168.971 L201.388,168.914 C200.445,168.951 200.62,168.839 197.489,169.168 z" fill="#E7E7E7" id="path4077" />
        <path d="M193.796,160.307 C194.906,160.386 195.127,161.899 195.231,163.602 L195.614,166.897 L194.083,169.162 L182.702,169.986 L163.287,169.368 L158.218,166.073 C155.982,163.085 154.285,161.755 150.375,153.615 C147.46,148.939 146.28,145.123 144.828,141.877 C143.477,137.696 142.955,134.705 142.341,131.581 C143.444,130.098 145.244,137.589 147.027,140.745 C149.664,145.95 151.242,147.944 152.479,149.599 C155.546,153.224 156.301,153.842 157.548,155.262 C161.207,159.078 161.948,159.587 161.948,159.587 C163.291,160.237 162.76,159.911 175.816,160.307 C179.35,160.454 177.526,160.922 193.796,160.307 z" fill="#231F20" id="path4059" />
        <path d="M200.335,160.402 C199.526,161.469 199.4,162.123 199.318,162.75 C198.93,166.339 199.261,166.021 199.318,167.195 L200.427,168.537 L203.756,168.537 C209.937,166.176 214.058,164.301 218.272,162.163 C220.787,159.881 220.972,159.463 222.155,158.389 C223.091,156.808 223.422,155.682 224.744,148.242 C225.168,145.739 225.765,144.499 226.593,132.559 L225.299,132.307 C224.528,139.965 224.336,140.376 222.987,145.726 C222.389,147.504 222.185,148.133 220.676,152.099 C217.522,155.141 213.857,156.108 211.522,156.88 C206.03,158.59 204.455,158.979 200.335,160.402 z" fill="#231F20" id="path4061" />
        <path d="M148.963,163.952 C149.167,164.736 148.013,165.48 153.086,167.698 C153.98,168.089 155.351,169.248 156.696,171.016 C157.381,171.929 158.631,174.379 159.818,177.155 C161.396,181.676 161.248,182.185 161.934,184.493 L164.531,187.282 C169.876,187.504 170.126,186.688 172.451,185.791 L173.338,183.529 C171.388,177.109 169.438,175.358 167.488,172.223 C165.035,169.252 162.583,167.998 160.131,166.57 C158.403,165.674 156.679,164.778 153.483,164.402 z" fill="#231F20" id="path4063" />
        <path d="M158.5,167.992 C159.779,168.767 160.82,169.095 161.825,169.709 C163.251,170.545 164.847,172.049 165.462,173.203 C166.311,174.572 167.127,175.658 167.437,176.391 C168.187,177.761 168.902,179.128 169.515,180.008 C169.904,180.918 169.813,181.321 170.45,182.522 C169.114,183.092 168.886,183.613 168.164,184.116 C166.337,184.371 164.923,184.001 164.891,183.441 C164.448,181.036 163.95,179.773 163.384,177.985 C162.854,176.491 162.382,175.083 160.371,171.364 C158.639,169.051 156.964,168.219 155.851,167.073 z" fill="#F0F0F0" id="path4081" />
        <path d="M204.861,169.212 L204.691,170.856 L204.408,172.501 L205.939,173.522 L208.491,173.465 L208.604,169.382 z" fill="#E7E7E7" id="path4083" />
        <path d="M206.404,175.912 L210.8,179.849 L212.767,177.922 C212.93,176.449 213.17,174.977 213.626,173.505 C213.977,172.423 214.667,170.595 215.149,169.676 C216.406,166.904 216.321,166.964 217.177,165.603 C217.177,165.603 218.687,163.217 219.451,161.953 C218.117,161.847 216.541,162.116 215.772,162.532 C213.557,163.466 211.541,165.436 209.468,167.188 C206.498,171.513 206.671,171.259 206.046,173.17 z" fill="#231F20" id="path4065" />
        <path d="M207.758,174.102 L209.375,176.03 L210.652,177.159 L211.696,176.591 C211.892,175.188 211.903,176.371 212.366,173.339 C212.884,171.536 213.219,169.895 214.129,167.745 C215.106,165.488 215.649,164.957 216.372,163.709 C215.427,164.043 214.276,164.441 212.206,166.825 L210.603,168.878 C209.67,169.908 208.894,171.191 208.2,172.348 z" fill="#F0F0F0" id="path4079" /> </g>
</svg>
