<svg xmlns="http://www.w3.org/2000/svg" width="512" height="512" fill="none">
<g clip-path="url(#a)">
<path fill="#1e2122" d="M259.1 27.3h.9c4.5 0 8.7.6 13 2.7l.9.4c11.5 5.3 20.7 17 26.4 33C303 71 303 71 303 74.5l.9.4q1.8 1 3.5 2.4l.6.5c15.3 12.6 27.1 33.2 35 56l.6 1.5c3 9 3 9 3 11.2h.7l.3-1q1.2-4.3 4-6.2c1.3-.6 2.1-.6 3.4-.3q2.6 2 4 6v4.8q0 4-.7 7.7 6-3.3 11.7-8c3.3-2.6 6.5-4.4 10.3-3.5q1.5 1 2.8 2.3c1.2 1 2.2 1.2 3.5 1.5q2 .6 3.5 2.8c.7 1.8.8 2.8.6 4.9q-.6 2.7-1.9 4.7-.7 1.4-1 3.4-.9 5.8-3.6 10.3l-.5.9q-3 4.6-6 8.7l-.8 1c-5.5 7.3-14.2 9.2-21.2 11.5v13.2q.2 14.6-1.3 29c0 .8 0 .8-.2 1.5a174 174 0 0 1-18.5 62.3l-.9 1.6c-4 7.6-8.6 15-13.8 20.9l-.7.8-4.1 4.7-1.2 1-.4 2.4c-1.1 5.1-3.3 10.1-6.3 13.1-1.4 1.5-2 3.2-2.7 5.4-2.5 7-6.3 13.1-10 18.7l-.5.9c-1.2 1.7-1.9 2.4-3.5 2.7-1.4-.2-1.8-.7-2.6-2.3l-.5-.8-.5-1-.9-1.7-2-3.7-2.1-4.2q-1.4.9-2.4 2.7l-.6 1-.7 1-1.3 2.2-.7 1-2.7 4.4-1 1.3c-.6.9-.6.9-1.3.9l-.2.9c-.5 1.3-1.1 2-2 3l-.7.9c-1.4 1.4-2.3 1.2-4 1q-2.8-.9-5.4-2.5l-3-1.4c-8.9-4.5-18-10.3-26.4-16.9l-2.1-1.6c-11.9-9-11.9-9-15.2-16.4v-1.5l-.6-.4a48 48 0 0 1-9.7-8.6l-1.2-1.4q-4.5-4.7-8.5-10.1l-.5-.7a126 126 0 0 1-12.1-19.8l-.5-.8q-3.6-7.4-6.5-15.2l-.4-1a185 185 0 0 1-11.4-62v-4.8c0-3.3-.4-6-1.3-9a8 8 0 0 1 0-3.7l-.7-.1c-9.3-2-18-5.1-25.2-14.4l-1.8-2.1a82 82 0 0 1-4.8-6.6c-1.4-2-2.4-4-2.5-7-.3-2.3-1-3-2.3-4.5a7 7 0 0 1-1.4-3.9q-.2-2.8.8-5.1c1.4-1.8 2.2-2.2 4-2.5 1.5-.2 2.2-1.3 3.3-2.8 2.4-2 5-2 7.6-1q2.6 1.5 5 3.4 4.8 3.9 10 6.1l-.2-1-.4-1.4-.3-1.4c-.9-3.2-1.2-7-.5-10.3q1.4-3.6 3.8-5.4c1.3-.3 2.5-.4 3.7.5q2.6 3 4.2 7c1.6 3.5 1.6 3.5 3.4 6.5l2.3-9c2.5-10.6 5.8-20 9.7-29.7l.5-1.3q1.4-3.1 2.9-6l.5-1 2.1-4 .4-.8c5.7-10.3 14.2-24.8 23-29.2v-1.2q1.4-7.4 5.5-12.5 1-2 1.7-4.6A47 47 0 0 1 235.3 35l.7-.5q11-7.3 23.1-7.2"/><path fill="#f1d4af" d="M285.1 45.9 288 50l1 1.4a57 57 0 0 1 4 6.6v1h-1c-3 .1-3 .1-5.7 2.5-.7 1.7-.8 3-1 5l.7-.7c2.1-1.7 4.9-1.1 7.1-.2q5 2.5 7.4 9.4a101 101 0 0 1 2.9 25.8c.2 23.9-2.2 50-13.6 68.1-5 7-12.3 11.9-19.2 11.8-7.4-.3-13.2-5.2-18.4-13l-1.5-2a81 81 0 0 1-6.3-11.3l-2.7-5.4a54 54 0 0 0 18.3 32.5c-.9.6-1.1.4-2 0q-2.4-.7-5-.7h-.6c-2 0-2.7.8-4 2.7q-1.5.4-3 0l-1-.1c-3.9-.8-8.1-2.8-11-6.9l-1-1.2a72 72 0 0 1-7.8-25c-1.3-6-1.3-6-1-8.3l1.8-3q1.3-2.4 1.6-5.5c-1.9.1-2.8.8-4.1 2.8q-1.7 2.1-3.8 2c-1.6-.5-2.8-2-4.1-3.3l-1-1.1A36 36 0 0 1 209 115c0-4 .7-7 2.4-10 2-2.8 4-3.7 6.7-3.8 2 0 3 .3 4.5 2.2 1.7 3.3 2.4 6.4 2.6 10.5 3.4.3 3.4.3 6.4-1.5q.6-1 .4-2.5c0-3.7-.8-7-1.6-10.5-1-5.5-.4-10.7.3-16.2q1-6.7 1-13.5v-1.3c0-2.4-.3-4.3-.8-6.5 0-2.8.6-4.3 1.7-6.5l.4-1c5-10 14-18.2 22.2-20.3A31 31 0 0 1 285 46"/><path fill="#2f4551" d="M226 171.5v19.4q0 4-.3 8.1v2a26 26 0 0 0 9.6 4.5l.4 2-.8 1.7-.5.9-.5 1-.5.9q-.8 1.7-2 3.3l-.4.7c0 1.8.7 2.6 1.5 3.8q1.9 2.8 3.5 6l2 3.4 3.3 6q3.8 7 7.9 13.9L259 266l.4.7q4.3 7 8.8 13.7l.6.9 4.3 6c.6.7.6.7.8 1.9v1.5l.1 1.7v2l.1 1c.7 19 .9 38.7-.8 57.6l-.1 1.8q-.4 5.4-1.5 10.6l-.2 1.4c-.6 3-1.3 6-2.8 8.2-2.7.4-5.3-.5-8-1.4l-.6-.3a79 79 0 0 1-22.7-12.1 96 96 0 0 1-16.1-13.8l-1.5-1.5-.7-.6a6 6 0 0 1-1.4-2.3c-.3-3.8.5-7.8 1-11.5 2.6-17 3-32.8-.4-49.4a21 21 0 0 1 .1-10.7l.3-.9h.6l.2.8a48 48 0 0 0 6.9 19.5c1 .7 1.5.9 2.6.7a76 76 0 0 0-1-13.8l-.2-1.5a145 145 0 0 1-.6-19c-.3-22-2-41.2-11.5-58.7h-.4l.5.9c3 5.5 5.3 11 6.5 18.1l.3 1.5a82 82 0 0 1 1 17.2c0 5.5-.4 10.5-3 14.7-1 1.1-1 1.1-1.6 1.1l-.2-1.6q-.6-5.8-1.8-11.4h-.7v1.5c.3 11.4-2.8 21.1-8 29.5-1.4 2-2.8 3.8-4.8 4.3-5.4-1.3-9.1-6.3-12.3-13a112 112 0 0 1-7.8-24.7c-2.3-10.3-2.3-10.3-2-13.6.6-.9.6-.9 1.5-1.6q5-4.3 8.4-11.4c1 .7 1 1.3 1.4 2.7l.5 1.3.4 1.6 1 3.1 3 9.4.5 1.5 5.2 16q1 3.6 2.4 6.9c-.3-4-.9-7.5-1.8-11.3l-.3-1.2c-.6-2-1.1-3.5-2.3-5v-1l1.7-.5-.6-.5-.8-.6-.8-.6c-1.4-1.4-1.9-3.5-2.5-5.6l-.5-1.5-1.1-4-.4-1.2-.7-2.4-.3-1.2-.3-1-1-2.4a64 64 0 0 1 4.7-28c2.6-4.2 6.8-4.8 10.5-5.9 5.1-1.5 11.8-7.1 16.8-7.1"/><path fill="#2c3f4b" d="M294.3 171a24 24 0 0 1 13.9 3.2c2.7 1.5 4.2 4.5 5.3 8.3l.4 1.3q2.1 7.1 4.8 13.8l.5 1.2c.4 1.2.4 1.2 1 2.2 1.5 3.4 1.4 7 1.3 11v3.4q0 6.6-.8 13.1h.6c-.5 1.9-.5 1.9-1.1 2.6q-1 2-1.4 4.4l-1.1 5.4c-.8 3.6-1.5 9.6-.4 13.1l.2-1.5q.7-6.2 2-12.2l1.7-8.3 3.9-20.8c.7-3.8.7-3.8 2-5l.9-.7-.4-1.3c-.3-2.1 0-2.8.6-4.8l2.5-8.3.3-1.1.7 1c5.7 8.6 12 12.1 20 13-.2 8.2-.2 8.2-1.4 11.5-2.4 2.4-6.3 1-9 .2a35 35 0 0 1-11.6-7.7c1.9 5 5 7.2 8.3 9.5l.8.6q1.5.7 3.2.9.4 9.8-1.8 19l-.5 3.3q-.5 2.9-1.3 5.5l-1 3.6c-2 7.1-4.7 14.4-9.4 18.1a9 9 0 0 1-8.8-.8 25 25 0 0 1-4.2-4.7l-1-1.1c-1.6-2.3-1.3-6-1.3-9v-6.6q0-4.7-.5-9.5l-.3-5.4q-.4-5.3-1.2-10.4v16.8a638 638 0 0 1 .4 24.5v15.4q0 21 .7 41.7c.4 9.2.5 16.5-3.5 24.1l-.4 1a23 23 0 0 1-5.2 6.5h-1l-.7-6.2-.2-2.1q-1.3-11.3-2-22.4l-.1-2.1-1.5-25.2a85 85 0 0 1 4.2-29.9q2-7.5 3.4-15.6l.3-1.7a382 382 0 0 0 3.8-27.6q.6-7.3.4-14.7l-1-.7-1.6-1-.7-.4q-1.8-1-3.3-2.9c.4-2.3 1.3-3.5 2.4-5 .7-1.3 1-2 .9-3.5-.7-1.4-.7-1.4-1.6-2.7l-.6-.7-2.8-3.7q-1.9-2.6-3.6-5.7l-.6-1q-1.5-2.5-2.5-5.2"/><path fill="#d63b32" d="m207.7 86 .1 4.7V92l.4 6.4c.2 2 0 3-.8 4.7a25 25 0 0 0-1.8 11.8v1.6c0 8.5 1.8 16.6 5.8 22.6a22 22 0 0 0 8.3 6.4l.9 4.2q1.2 6 2.9 11.7.8 2.7 1.2 5.6l-1.8 1.4-1 .7q-4 2.9-8.6 4.4l-1 .4q-3 1.2-6.4 2.1c-3.5 1.1-7.2 2.5-9.6 7-3 7.2-3.5 15.2-4.3 23.5q-1.4-2.3-2.4-5.2l-.8-2.1-.4-1.1-2.4-6.3c-1-2-2-3-3.6-3.7l-.7-.1-.2-1.6c-1-8.3-2.4-13.7-7-18.8l-3.8-3.6c.1-4.1 1-7.6 2-11.5l.4-1.7q3.6-14.4 9.2-27.3l.5-1q4.4-10 9.9-18.5l.5-.9a86 86 0 0 1 10-13c3.5-4.1 3.5-4.1 4.5-4.1M304.3 83c4.5 2.4 8.5 7.3 12.2 11.8l1.4 1.8a89 89 0 0 1 11.7 18c5.7 10.2 12.4 25 14.2 38.2-.2 1.9-1.2 2.8-2.1 3.9l-1.2 1.4-.6.8a26 26 0 0 0-7.4 14.6l-.2 10.5-1 .3c-1.2.5-1.3.7-2 2.4l-1.4 5.7-1.7 6.6a13 13 0 0 1-2.2 4h-.7l-.4-1.4a476 476 0 0 0-7.2-20.2l-.8-2.5-.4-1c-1.9-5.2-5-6.8-8.6-8.4a45 45 0 0 0-7.7-2.2l-3.2-.8.5-1q2.4-5.6 4.2-11.5l.4-1.4c2.1-7 3.2-14.6 4.2-22.1l.2-1.7q1-9.8.9-19.7V108a273 273 0 0 0-1-24.9"/><path fill="#497480" d="M294 225.5h.3q.4 8.5.5 17.2v6.1l1 52.6.1 1.9.8 15.9v1.1l.1 1.2q.1 5.3.7 10.5l.5 6.8q.4 6.3 1 12.6l.1 1.3.2 1.2c.2 3.2.2 3.2-.5 4.8a39 39 0 0 1-4 6q-1.3 2-2.5 4.3c-1.6-1-2.5-2.9-3.7-4.9l-1.9-2.9c-2.3-3.2-3-6.5-3-11.2v-22.3q0-10.7-.6-21.5-.2-5-.2-10-.2-9.2-.7-18.3l-.1-2.4-1-14.7-.1-2.9c-.2-3-.2-5 1-7.4l1.3-2 .7-1.3.6-1q2.4-4.4 4.4-9.2l.5-1.1 1.6-3.7.5-1.1z"/><path fill="#fafafa" d="M354.3 142.5c1 .6 1.5 1 2 2.3q.6 2.5.5 5.1v1c0 3.8-1 6.5-2.6 9.3a8 8 0 0 1-2.5 2.3c7.1.5 14.6-5.2 20.4-11q3.3-3.2 7.2-2.5c1.9 1 1.9 1 2.4 2.5l-1 .7a55 55 0 0 0-8.7 7.8c-4.8 5.3-4.8 5.3-8.3 5l.5.6c4.2 5.5 4.2 5.5 4.8 7.4 3.4-2 6.1-4.3 8.8-8 1.5-1.8 2.4-2.1 4.4-2.2h1.1c1 .2 1 .2 1.7.9q.6 1.5.2 3.3a40 40 0 0 1-8.9 15.5l-.8 1c-5 5.8-11.5 7.5-17.5 9.5-5.4 1.8-5.4 1.8-9.3 7a19 19 0 0 1-14-9.5c-.7-1.5-.7-1.5-.6-3l.2-1.5.1-2.9v-4.9c.2-5.2.7-8.8 3.1-12.6q1.9-2.4 3.9-4.5 1.7-2.2 3.3-4.6l1.6-2.5h.7l.3-1q.6-2.7 1.6-5l.4-1c1.2-3.3 2.4-5 5-4.5"/><path fill="#fbfbfb" d="M157.3 148.5c1.7 1.6 2.6 3.7 3.7 6.1 2.1 4.6 4.1 7.7 7.3 10.4 9.2 8.4 9.2 8.4 10.7 16.5l.9 9.3.3 3.1c.2 2.3-.3 3.2-1.2 5q-3 5.2-7.5 7.7l-1 .5q-1.1.7-2.5.4l-1.3-2.5q-3-2.4-6.3-3.5l-1-.4-6.3-2.1c-9.6-3-19.1-9.8-24.8-22.5-.2-3-.2-3 .5-4.5a4 4 0 0 1 4.2-.2l2 1.5.7.6 4.5 4c2.4 2.2 2.4 2.2 5.2 3 .9-.6 1.2-1.5 1.7-2.7q1.5-3.6 3.9-6.2-.3 0-.5.3c-2.6 1-4.4.3-6.8-1.5l-3-2.7A32 32 0 0 0 130 161q.3-1.7 1.2-2.6c2.8-1.6 5.7-.4 8.3 1.3l4.5 3.3a32 32 0 0 0 18 7v-1h-1.2q-1.8.3-3.1-1.5v-1l-.6-.4c-2-1.6-3.3-5-4-8.1-.4-3.2-.1-5.7.9-8.5 1.3-1.3 1.8-1.3 3.3-1"/><path fill="#d83a32" d="M167.7 239.5c.8 1.2 1 2.4 1.4 4l1.3 4.7.3 1c3.8 12.5 7.6 23.9 14 33.8l.6 1.1c3.2 5 7.9 10 12.6 10.5 4.5.2 7.7-1 11.1-5.6l.6-.8q2.7-4 4.7-8.7c.8 1.6 1 2.8 1.3 4.8l.1 1 .5 3q0 1 .3 2c1.9 12.5 1.9 12.5 1 19.5l-1.4 11.5q0 1-.2 2l-1.2 12.7a12 12 0 0 1-3.8-2.7l-1-1-1.1-1-1.1-1.2a131 131 0 0 1-7.9-8.6 121 121 0 0 1-16.4-25.7c-7.4-14.5-15.7-37.6-15.7-56.3"/><path fill="#436a77" d="M227.7 174.5q1.5 2.4 2.9 5.2a43 43 0 0 0 3.7 6.2c.4.6.4.6.4 1.6l.5.3q1.6 1.6 2.7 3.7l.5.8a140 140 0 0 1 5.4 9.6c2.2 3.5 3.3 7 4.3 11.5.8 3.4 1.7 5.8 3.9 7.6l.8.3c1.3 1 1.9 2.6 2.6 4.5l.5 1.2 1.4 3.5.4 1q3.9 10.2 7 21l.5 1.8c6.8 22.9 6.8 22.9 6.8 27.2h-.7l-.5-1-2-3.2a38 38 0 0 1-3.1-4.7l-2.5-4-8.6-14.4-4.9-8.4q-1-2-2.4-4l-3.9-7-2.4-4-4-7-3.7-6.3 1.7-4 .6-1.3.5-1.2.6-1.2 2.6-5.3-1.2-.3c-3.6-.8-7-1.7-10.4-3.7z"/><path fill="#4c7985" d="m262 236.5 1.2.8A192 192 0 0 0 281 248c-1.3 3.4-1.3 3.4-1.7 4l.1 5.3v1.7l.8 17q.6 10.3.7 20.6v3.8l.3 5.5a647 647 0 0 1 .7 29.5c.5 18.8.5 18.8-2.5 24q-2.1 3.3-4.7 5.6c-.5-1.5-.3-2.5-.1-4.1l.2-2q0-1 .2-2l.3-3.9.2-1.7q.7-9 .5-18.1V331l-.3-35.5v-1.4a95 95 0 0 0-3.6-22q-4.3-17.3-9.8-33.6c-.3-1-.3-1-.3-2"/><path fill="#d73a32" d="M349 244c.4 2.2.1 3.8-.3 5.9l-2.4 11.3-.3 1.6a72 72 0 0 1-3.4 11.6q-4.4 14.7-11.3 27.1l-.5 1q-5.7 10.6-12.8 19l-2.7 3.3c-.6.7-.6.7-1.3.7q-.9-16-.7-32V276h.7v1l.5.4q2 1.5 3.9 3.5c3 2.8 6 3.1 9.6 2.6 7.4-2.7 12-13.4 15.7-22.5q3.1-8.2 5.3-17"/><path fill="#446b77" d="M291.7 172a8 8 0 0 1 2.5 2.7l.6 1 .6 1 .7 1c1.6 2.7 1.6 2.7 1.6 3.8l.6.4q1 1 1.8 2.4a41 41 0 0 0 3.9 5.7c-.5 2.3-1.4 3.8-2.5 5.4l-.6.8-1.2 1.8q1 1.8 2.5 2.7l1 .7 2.7 2 .8.6 1 1c.3 5.2-.3 10.4-.9 15.5l-.3 3.1a385 385 0 0 1-7.8 45.9l-.8 3.4-.6 2.6h-.3V274l-.2-32.1q0-9.8-.7-19.6a17 17 0 0 1 .9-7.8c.2-1.5.1-2.4 0-4l-.7-1.5c-.7-1.6-.7-1.7-.5-3.5.7-8 1-18.5-2.1-25.5-1.1-1.5-2-1.7-3.6-1.6q-2.3.3-4.4 1.1 1.5-2.3 3.2-4 1.5-1.5 2.8-3.5"/><path fill="#717272" d="M228.7 63c.7 2.7 1.1 5 1.1 8V72q-.1 6-1 11.9a54 54 0 0 0 .3 16.4c.2 1.6.2 1.6.6 3.1v3.4a4 4 0 0 1-1 2.6h-.7v-1a15 15 0 0 0-3.6-9.3c-2-2.2-3.9-2.9-6.3-2.9h-.7c-2 .1-3.4.6-5 1.7q-.6-4.8-.5-9.6v-3.1c0-6.4.7-10.5 3.6-15.3 1.7-2.6 4-4 6.2-5.5l.8-.6c2-1.1 4-1 6.2-.9"/><path fill="#d93931" d="M255.7 185q2 .8 4 1.8l1 .5c3.4 1.8 6.4 4 9 7.7v1h-.7c-2.3.2-4 1-6 2.5v.5h4.3l.8-.1h.9c.7.1.7.1 1.3 1.1a7 7 0 0 1-.7 4.6c-3.8 6.1-9.7 12-15.4 12.5-1.8-1.2-2.5-4.3-3.2-7q-1.9-7.1-1.8-14.8v-1.2c0-3 .1-6 1.2-8.6 1.6-1.4 3.6-1 5.3-.5"/><path fill="#fafafa" d="M183.3 192c1 .7 1 1.3 1.5 2.7l2.2 5.8.6 1.3 1 2.7.6 1.3.4 1q.6 1.8.7 3.7l-1.6 3-.5.7c-4.1 6.3-10.5 11.9-16.5 12-1.4 0-2.1 0-3.3-1q-1-1.6-1.6-3.7l-.4-1.4-.4-1.6-.5-1.8c-1.2-4.5-1.2-4.5-1.2-5.7h.6a17 17 0 0 0 13-6q4-4 5.2-11z"/><path fill="#f7e0c0" d="M279.7 41v1l-2-.2-1.1-.1-2.7-.5a36 36 0 0 0-17.2 1.5c-6.5 2-12 7-16.7 13.8l-.7 1q-2.8 4.8-4.6 10.5l-2.4 6.5v-2L232 70v-1.3a39 39 0 0 0-1-6.6c0-2.8.6-4.3 1.7-6.5l.4-1c5-10 14-18.2 22.2-20.3 7.7-1.4 17.8-.2 24.4 6.8"/><path fill="#fbfbfb" d="m331 190 .7 1c5.7 8.6 12 12.1 20 13-.2 8.2-.2 8.2-1.4 11.5-2.4 2.4-6.3 1-9 .2A22 22 0 0 1 328 205l-.7-2.5c.3-1.5.3-1.5.9-3l2.5-8.4z"/><path fill="#446d7a" d="M224.3 174c-2.7 4.4-6.9 6-10.5 8l-7.1 4 2.8 4a25 25 0 0 1 3.3 5.7 132 132 0 0 1 4.5 11c1.4 3.6 1.4 3.6 1.4 5.3l-.4-.9c-5.6-13.2-5.6-13.2-13.2-22.5l-.8-.1c-3.3 6-5 13.7-5.2 21.5-.1 1-.1 1-.4 1.5l-.2 2.7-.1 1.6v1.7l-.2 1.8-.2 4.2c-.9-.6-1-1.2-1.3-2.5l-.3-1.2-.4-1.2-.7-2.5-.3-1.1-1-2.5a64 64 0 0 1 4.7-28c2.8-4.5 7.5-5 11.4-6.2 3-1 6-2 9-3.4q2.6-1.1 5.2-.9"/><path fill="#94d1de" d="M268.3 212.5c1.4.7 1.9 2.2 2.6 4l.5 1q2.2 5.3 4 11 .4.7.6 1.6c3.3 9.6 3.3 9.6 3.3 12.4-4.6-1-8.8-4.3-13-7.3l-1.1-.8c-6.2-4.5-6.2-4.5-6.9-7.4q0-4.4 2-7.5 1.5-1.2 3-2.2 2.2-1.8 4.2-4z"/><path fill="#fbfbfb" d="m278.8 205 1.9 2q1.9 1.8 4 3.2c.6.8.6.8.9 2a111 111 0 0 1-1.5 25.1c-.6 3.6-.6 3.6-1.8 4.7l-4.4-13.2-3.7-10.8-.4-1q-1.4-3.7-3.1-7c.8-2.6.8-2.6 1.6-3.5l1.8-.2c1.3-.2 1.8-.2 2.9-1.3 1-.5 1-.5 1.8 0"/><path fill="#d93931" d="M291.3 181.5c1.7 2 2 5.4 2.4 8.5v7.1c0 3 0 5.8-1.1 8.4-1.8 1.7-5 .4-7-.2-1.8-.6-3.8-1.4-5.2-3.3-.8-2-.6-4.2-.7-6.4 0-1.6-.2-2.2-.7-3.6 0-1 0-1 .3-2 2.8-3.8 8-9.4 12-8.5"/><path fill="#d8d8d9" d="m129 172 .5 1a46 46 0 0 0 11.3 14.5c5.2 4.2 11 5.5 16.8 6.8l2 .5 2.7.6c6.6 1.6 6.6 1.6 8 3.6 2 4.3 2 4.3 2 6l1 .5-1.7 1-1 .6a4 4 0 0 1-2.6.4l-1.3-2.5q-3-2.4-6.3-3.5l-1-.4-6.3-2.1c-9.6-3-19.1-9.8-24.8-22.5V173z"/><path fill="#f7dfc0" d="M227 133h1.3l.2 1.5c1.4 15 3.3 33.3 11 44.3 1 1 1.8.9 3 1h6c.8.2.8.2 1.5 1.2-1.2 2.4-1.2 2.4-2.3 2.7q-1.2 0-2.4-.2l-.9-.1c-3.9-.8-8.1-2.8-11-6.9l-1-1.2a72 72 0 0 1-7.8-25c-1.3-6-1.3-6-1-8.3l1.8-3c1.1-1.9 1.4-3.6 1.6-6"/><path fill="#dadada" d="M383.7 163c1.3.9 1.3.9 1.6 2 0 3.5-1.7 6.4-3.1 8.9l-.5.9c-4.3 7.1-8.5 12-14.7 14.7l-.7.3-7.5 3c-5.8 1.7-5.8 1.7-10.1 7.2a32 32 0 0 1-5.7-1.5l1.3-.5.1-1.3q.8-4.3 3.3-6.7c.9-.5.9-.5 1.9-.7l1.2-.4 5.4-1.4a36 36 0 0 0 19.1-9.5l.8-.8q5-5.5 7.6-14.2"/><path fill="#1c1c1b" d="M279.3 85.5c.7 0 .7 0 1.4.5l.7 2.7c2 7.7 6 13.7 9.6 19.7l1.5 2.7q1.4 2.3 3.2 4.1c.6.8.6.8 1 1.8.2 3.2.3 6.8-1 9.5q-1 1.1-2.1 1.8l-2.6 2.2c-4.5 4-9.4 7.1-14.7 6q-1.4-1.5-2-4v-5.3c0-1.6.2-2.4.7-3.7h.3l.2 1.2q0 .8.3 1.7l.2 1.6c.4 1.7.7 2.5 1.7 3.5 1 .3 1 .3 2.2.2h1.2c2.5-.4 4.4-1.5 6.6-3.2l.7-.5c2.3-1.5 2.3-1.5 4-4.1.4-2 .5-3 .3-4.9l-3-5c-10.5-17-10.5-17-10.4-28.5"/><path fill="#8bc9d6" d="M295 209c.6.8.6.8 1 2a30 30 0 0 1-1.3 7.8l-.3 1q-4 12.2-9.7 22.7h-.4q.4-5.5 1.4-10.8c.9-5.4 1.4-10.4 1.5-16v-1.6l.1-4.1h1l1.3-.2 1.2-.1c1.5-.2 2.8-1 4.2-.7"/><path fill="#d0d3d5" d="m278.8 205 1.9 2q1.5 1.4 3 2.4c1.1.8 1.5 1.2 2 3v4.1l-.4-2-.6-.1q-2-.8-3.7-2.4v1.4c0 1.6 0 1.6-.7 2.6-1 .2-1 .2-2 0-.6-1.5-.6-1.5-.6-2.7.3-1.3.3-1.3 1-2.8H276c-.7.9-.7.9-.7 2 .3 4.3 1.7 8 3.4 11.5l.5-.7c1-1 1.6-1 2.8-.8.3.5.3.5.4 2 0 1.5 0 1.5-.7 2.5h-2l.3 1.2 1.8 7 .5 1.8.4 1.6c.3 1.4.3 1.4.3 2.9h-1q0-.4-.3-.8l-2.7-8.5-1-3.2c-2.6-8-2.6-8-5.7-15.5l-.5-1-1.1-2.5a9 9 0 0 1 1.6-3.5l1.8-.2c1.3-.2 1.8-.2 2.9-1.3 1-.5 1-.5 1.8 0"/><path fill="#f8f8f8" d="m386.7 152.8 1.3 1.7c.3 2 0 2.8-.6 4.7l-1 1.8-2-.1c-3-.2-4.9.4-7.4 3.1l-1.1 1.1-2.2 2.4a11 11 0 0 1-3.8 2.8c-1.5-.5-2.3-2.2-3.2-3.8l2.2-2q2.3-1.9 4.4-4.2 3.3-3.5 6.7-6.3l.6-.5a6 6 0 0 1 6-.7"/><path fill="#cdd5d8" d="M174 209v1.2c-.2 4 0 7 1.7 10.3 1.2 1.6 2.4 1.8 4 2-2.7 3.3-6 3.7-9.3 3.8-1.3-.4-1.8-.9-2.7-2.3l-.9-2.5-.4-1.4-.4-1.6-.5-1.8c-1.2-4.5-1.2-4.5-1.2-5.7l4.6-.6h1l.9-.2c1.1-.3 2-1.2 3.2-1.2"/><path fill="#f7f7f7" d="M129.7 162c4 1.5 7.4 4.6 11 7.6q3 2.7 6.6 4.4l-.8 2-.5 1.1c-.7.9-.7.9-1.8 1.1q-2-.4-3.6-2l-5.2-4.6a6 6 0 0 0-4.5-1.7h-1.1c-1.1 0-1.1 0-2.2.4-1 .2-1 .2-1.8-.6-1.2-1.8-1.2-1.8-1.5-3.2.1-1.8.1-1.8.4-3.5 1.6-1.6 3-1.3 5-1"/><path fill="#446e7b" d="M223.3 300h.4q0 15.1-.7 30.2l-.2 5.9-.5 11.4c-1.8-1-3.4-2.2-4.6-4.5v-2.8l.1-1.6 1-7.5q.8-4.9 1.2-9.8.5-4.5 1.3-8.8 1.2-6.2 2-12.5"/><path fill="#36505c" d="M226 171.5V191q0 3.8-.3 7.5c-1.5-.7-2-2.3-2.7-4l-.5-1.2-1.5-3.3-.5-1c-2.4-5.5-2.4-5.5-2.9-7.4q0-.6-.3-1.1l-1-.5 1.2-.7 1.5-1q.4 0 .8-.4 2.3-1.4 4.2-3.4h-3q1.3-1.3 2.7-2l.9-.6c.7-.4.7-.4 1.4-.4"/><path fill="#191a19" d="M262.7 143.5q1.4 1 2.3 2.8c2.8 4.8 5.5 6.4 9.7 7.2l.6.1q3.7.6 7.6.7h1.4l3.4.2a8 8 0 0 1-3.4 4.5q-1.7.8-3.6.7H276c-3.6.1-6.2-.5-8.9-4.3l-3.8-6.9-.7-1.3c-.6-1.2-.6-1.2-.5-2.3.2-.9.2-.9.6-1.4"/><path fill="#cfcfcf" d="m240.3 38.5.4 2q-2.7 2.9-5.6 5c-4 2.8-7.8 6.1-10.3 11.5-1.6 3.2-3.7 4.1-6.1 5h-1c3.7-10.6 14.2-23.8 22.6-23.5"/><path fill="#1b1b1a" d="m264.7 137 .6.4c6 3.4 12.7 3.7 19 4.1.5 1.3.4 2.3.4 3.8v2.7c-7 .3-13-.5-18.6-7.4-.8-1.1-1.1-2-1.4-3.6"/><path fill="#ccd4d7" d="m344.3 203 1.7.2 1 .1 1 .2q1 0 2 .3l1.7.2c-.2 8.2-.2 8.2-1.4 11.5-2.4 2.5-6.4 1-9.2.1a8 8 0 0 1-3.1-1.6l.9-.2c2.4-.6 2.4-.6 4.4-2.5q.7-3.2.6-6.5c.1-1.3.1-1.3.4-1.8"/><path fill="#1b1c1b" d="M262.7 81.5q1.7 2.5 2.6 5.7 1.3 4.5 3.8 7.6c.9 1.2.9 1.2 1.2 2.2.2 3.5.2 3.5-.5 5.4-1.9 2.5-4 2.8-6.5 2.8h-.8q-2.4.1-4.5-1.7a6 6 0 0 1-.7-4c.7-1 .7-1 1.8-1s1.2 0 1.8.3q1.5.3 3 .2h2.1c.4-1.7.3-2-.2-3.8l-.7-2a32 32 0 0 1-2.4-11.7"/><path fill="#1c1c1b" d="M257.9 62.1c.8 1 1.2 1.4 1.4 2.9l-.3 2.5h-1.3c-4.4 0-4.4 0-8.4 3a28 28 0 0 0-2.6 6.2l-.3 1-.7 2.3-1.4-.5c-.8-1.8-.7-2.6-.5-4.7.9-5.3 3.8-9.6 6.9-12.3a7 7 0 0 1 7.2-.4"/><path fill="#d0d0d0" d="M228.7 63c.3.5.3.5.3 1.8V66l-1 .3a20 20 0 0 0-14.7 19.2l-.3.5a128 128 0 0 0 .3 11.5l-1 .5q-.5-4.8-.4-9.6v-3.1c0-6.4.7-10.5 3.6-15.3 1.7-2.6 4-4 6.2-5.5l.8-.6q3-1.5 6.2-.9"/><path fill="#436a77" d="M294.3 171a24 24 0 0 1 13.9 3.2c3.2 1.8 4.6 5.7 6 10.2l.4 1.5c.8 2.5.8 2.5 1 3.6l-.3 1-.4-.9a28 28 0 0 0-8.3-10.7 11 11 0 0 0-5.2-1.8c-4.6-.8-4.6-.8-6.2-3.4-.9-2-.9-2-.9-2.7"/><path fill="#282727" d="M138 165q2 1.6 3.8 3.4c3.2 3 3.2 3 6.9 4.1l1.6-1 1 .5-.6.8q-3 3.8-5 8.7c-1.9-.3-3.2-1.3-4.7-2.6l-.8-.6q-2.7-2.1-5.4-4.6c-.8-.7-.8-.7-1.7-1.2s-.8-.5-1.4-1.5v-1.5c3.5.7 6.6 4 9.7 6.7 1.4 1.2 2.2 1.6 4 1.3l1.6-3-.7-.4a74 74 0 0 1-8.3-6 39 39 0 0 0-8.3-5.6v-1c2.5-1.2 6 1.9 8.3 3.5"/><path fill="#416674" d="m326.7 206.5 2 .5c.6 2.6-.1 4.7-.7 7.2l-.3 1.3-1 4-.6 2.2L320 245h-.7q2.1-16.8 5.7-33l.3-1.3.2-1.3.3-1c.2-.9.2-.9.9-1.9"/><path fill="#1d1d1c" d="M219.8 107.5c2 1.9 3.4 4.1 4 7.5q.6 3.3-.1 6.5h-.7l-.5-1.4-.6-1.8-.3-.9q-.7-2-1.6-3.4c-1-.2-1-.2-2 0a9 9 0 0 0-.8 4.3v3.3l-.1 1.7-.1 4.2c-2-4.3-1.9-9-1.7-14l.4-1.5-2.7 1c.1-2.4.8-3.4 2-5q2.3-2.2 4.8-.5"/><path fill="#476d7b" d="M191.3 210c1 .7 1 1.3 1.4 2.7l.5 1.3.4 1.6 1 3.1 3 9.4.5 1.5 4.7 14.5.4 1.1.8 2.8-.3 1-.6-1.4q-2.5-6.6-5.4-13l-1.4-3-4-9.3-.7-1.4-1.1-2.4c-1.2-2.6-1.2-2.6-1.2-4.4.5-1.7 1.2-2.7 2-4.1"/><path fill="#1a1b1a" d="M299 133a17 17 0 0 1-2.4 6.3l-.5.9c-2.2 3.8-4.9 6.7-8.3 7.2l-1.5.1v-7l1.7-.6q5.1-1.7 9.4-6.3c.6-.6.6-.6 1.6-.6"/><path fill="#1c1c1c" d="M294.7 81.5c1.4 1.8 2.1 4 3 6.4q1.4 4.1 3.3 7.6c.2 1.3.2 1.3 0 2.5-1.7 2.6-3.2 3.6-5.7 3.7H294c-1.7 0-1.7 0-2.6-.9q-.5-1.5-.3-3.3c.8-1.2 1-1.2 2-1.3l.9-.1.8-.2h.9l2-.4-.3-1.2c-2.7-8.5-2.7-8.5-2.6-12.8"/><path fill="#282827" d="m381 152.5.7.5c-.9 1.3-1.8 1.8-2.8 2.6a32 32 0 0 0-5.3 5q-3.2 3.4-6.6 5.9c1.2 2.4 1.2 2.4 3 3.2 3-1.1 5.6-4.4 8-7 .7-.7.7-.7 1.7-1.2v1h-.7l.3 1.5-.4.5-.7.8-.8.8-1.4 1.8q-3 3.6-6.3 5.6c-1.1-.6-1.4-1-2-2.3a49 49 0 0 0-4.4-6.2c1-.5 1-.5 2-.5 3 0 5.5-3.4 7.7-6 6-7.3 6-7.3 8-6"/><path fill="#6b6c6c" d="m235.3 44.5.7.5-.4.7-1 2-1.2 2.4c-1.3 2.5-1.3 2.5-2.4 5.2-1.3 3.4-1.3 3.4-2.7 4q-2.4.4-5 .2a31 31 0 0 1 12-15"/><path fill="#d93931" d="M291.3 181.5c1.7 2 2 5.4 2.4 8.5v11l-.7.5v-1l-.3-4.7v-1.6a53 53 0 0 0-1.4-9.7c-4.3 1-8 4.7-11.3 9l-1-1.5c0-1 0-1 .3-2 2.8-3.8 8-9.4 12-8.5"/><path fill="#cecfd0" d="M275.3 217q1.4 2 2.3 4.3l.6 1.5.5 1.2.6-.7c1-1 1.6-1 2.7-.8.3.5.3.5.4 2 0 1.5 0 1.5-.7 2.5h-2l.3 1.2 1.8 7 .5 1.8.4 1.6c.3 1.4.3 1.4.3 2.9h-1l-3.8-11.5-1.4-4.2-.4-1.3c-.7-2.2-1.3-4-1.4-6.5z"/><path fill="#4b7887" d="M218.7 271h.3l.2 1.5q.8 5 1.8 10c1 4.9 2.4 11.7 1 16.7l-.3.8q-1-2.8-1.3-6l-2-12c-1-4.1-.9-7 .3-11"/><path fill="#edd0a5" d="M281.7 183c-2.6 4-4.1 5.7-7.9 6-1.1 0-1.1 0-2.1.4-1.5.2-2.3-.7-3.5-1.9l-.6-.6-1.6-1.4v-.5h.6a46 46 0 0 0 13.1-2c1.3-.5 1.3-.5 2 0"/><path fill="#b0e5ef" d="m236.7 184 .6.2 2.7 1 1 .4 1.7.6q1.8.6 3.6.8l-.3 8.5c-3-1.8-5.4-5-7.7-8.6-.7-1-.7-1-1.6-1.9z"/><path fill="#d3302a" d="M274.4 191.8c1.2 0 1.6.2 2.6 1.1 1 2.2 1 4 .7 6.6-.7 1.7-1.2 2-2.5 2.5-1.2 0-1.2 0-2-1.1-.7-1.9-1-3.3-1-5.4V194c.2-2 1-2.3 2.2-2.3"/><path fill="#f4ddbe" d="M277.1 118.3c1.3.3 1.8 1.2 2.6 2.7 0 1.5-.3 2-1 3l-.8.9-.8 1c-.8.6-.8.6-1.8.6l-.3-2.5-1 7.5h-.3c-.3-4.7.3-8 2-12 .6-1 .6-1 1.4-1.2"/><path fill="#f8e1c3" d="M258 139.9h1.6c.7.1.7.1 1.4.6l-1.2 3c-.7 2.3-.7 4.6-.8 7-1-.7-1.3-1-2-2.5q-.8-3.3-.3-7c.6-1 .6-1 1.3-1.1"/><path fill="#181a1a" d="M290.7 338.5c.8 1.9.8 2.8.6 5-.7 1.2-1.1 1.5-2.2 1.7-.8-.2-.8-.2-1.4-1a11 11 0 0 1-.4-4.7c.8-2.2 2-1.5 3.4-1"/><path fill="#e9f0f2" d="m236.7 184 .6.2 2.7 1 1 .4q2.6 1 5.3 1.4v2c-5.8.7-5.8.7-7.7-.9a15 15 0 0 1-2-3.1z"/><path fill="#1c1f1f" d="M289.3 285.5c.7 1 .7 1 .8 2.7-.1 1.8-.1 1.8-.5 2.8q-1.2 1-2.6.5c-.6-.5-.6-.5-1-1.5a10 10 0 0 1 .4-4.5c1-.8 1.8-.4 3 0"/><path fill="#1a1c1c" d="M290 312c.7 1 .7 1 .8 3 0 1.3-.1 1.9-.5 3-1 .8-1.6.4-2.6 0-.7-.6-.7-.6-1-1.5a8 8 0 0 1 .3-4q1.4-1 3-.5"/><path fill="#242a2a" d="M285.7 217h.3v8h.7l.3-1.5q-.6 6-1.6 11.8l-.3 1.7-.3 1.5-.1 4.5h-.7l-.1-1.2-.6-2.8.6-3.5q1.6-9 1.8-18.5"/><path fill="#1b1d1d" d="M285.3 259c1.2-.2 2-.3 3 .6.5 1.4.5 2.3.4 3.9-.6 1.2-.6 1.2-1.4 2-1 0-1 0-2-.5a8 8 0 0 1-.6-4.5z"/><path fill="#447180" d="M299 317h.3l.1 1 1 10 .4 5.2.6 5.9.2 1.8.1 1.8.2 1.5c0 1.3 0 1.3.3 2.4q.3 2.1.1 4.4h-.6l-.7-6.2-.2-2.1q-1.3-10.3-1.7-20.7v-1.5z"/><path fill="#537885" d="M201.3 234c2.8.7 4.8 2.1 6.6 5.5 1.6 3.6 1.6 7.3 1.4 11.5h-.3l-.1-1.2c-.5-5.6-1.3-8.5-4.4-12-1-1-2-2-3.2-2.8z"/><path fill="#e6554e" d="M291.7 182.5c1.5 2 1.8 4.7 2 7.5v11l-.7.5-.3-5.7v-1.6c-.3-5.8-.3-5.8-2-10.7z"/><path fill="#212928" d="M295 206h.7c1.2 3 2 5 1.6 8.5-.6 1.8-1.6 2.8-2.6 4l.2-1c.6-2.7 1-4.7.4-7.5-.4-1-.4-1-1-1.5h.7z"/><path fill="#f9e4c5" d="M272.3 160h5.6q3-.1 5.8.5l-.4 1q-1.5.7-3.3.6h-1.2q-1.4 0-2.8-.6v-1h-3.7z"/><path fill="#212122" d="M279.3 211.4c1 .1 1 .1 1.7 1.1v2.5c-.7 1-.7 1-1.7 1.2l-1-.2c-.6-1.5-.6-1.5-.5-2.8.3-1.7.3-1.7 1.5-1.8"/><path fill="#d8bd9c" d="m243.1 181 1.1.1 1.2.1 4 .3-1 2q-3.7.4-7-1l-.7-1c.8-.7 1.5-.5 2.4-.4"/><path fill="#454546" d="M161.7 181.5c4-.3 7.1.2 10.3 4l.3 1.5h-.6v-1l-.7-.4-2-1.3c-1.5-1-3-1.2-4.6-1.4l-3-.4z"/><path fill="#1f1e1e" d="M281 222.4c1 .1 1 .1 1.3.6v3c-.6 1-.6 1-1.5 1.1-.8-.1-.8-.1-1.5-1.1v-2.5c.7-1 .7-1 1.7-1"/><path fill="#323131" d="m373.3 158 .7 2c-4.2 4.8-4.2 4.8-6 4.8l-1-.3q1.1-1.5 2.4-2.4 2.2-1.7 4-4.1"/><path fill="#1c2327" d="m215.7 182.5 2.2 4.2a203 203 0 0 1 6.8 12.8c-3.2-2-5.5-8-7.4-12l-.5-1c-1.1-2.3-1.1-2.3-1.1-4"/><path fill="#151514" d="M286.7 212h.3v10.3c0 1.2 0 1.2-.3 2.7h-.7v-10.5h.3z"/><path fill="#d13932" d="M292.7 199.5c.7 2.2.7 2.7.3 5q-.6 1.4-1.7 1.7-2.7 0-5.3-1.2v-.5l6-.5z"/><path fill="#27363d" d="M221.7 191.5q1.7 2.4 2.8 5.5c.5 1 .5 1 1.2 1.5v1.5l-1 .5-.4-1.1-2-3.8-.8-1.2-.5-.9z"/><path fill="#2a2929" d="m369 165-2 1.5.3 2.5c-1.3 0-1.6-.7-2.5-2l-.8-1.1-.7-.9q1.5-.7 3-.8l1.1-.2c1 0 1 0 1.6 1"/><path fill="#212020" d="M148 175.5q-.8 2.9-2 5.5l-2-1-.3-1.5h1.6l.3-1.2c.4-1.3.4-1.3 1-1.7z"/><path fill="#f5dec1" d="M293.7 154.5c.6 1 .6 1 .7 2-.2 3-.5 4.8-1.7 7h-.4c-.1-3.2.2-5.5 1-8.5z"/><path fill="#5a7c8b" d="M321.3 228.5c-.5 1.9-1.2 3-2.2 4.3a35 35 0 0 0-3.8 7.2l-.6-.5a34 34 0 0 1 4.6-9.1c1.3-1.9 1.3-1.9 2-1.9"/><path fill="#26323b" d="M209 189c1.7.7 2.6 2.2 3.8 4l.5 1 1.4 2-.4 1c-1.7-.7-2.5-2.3-3.6-4.3l-.5-.9c-1.2-2.2-1.2-2.2-1.2-2.8"/><path fill="#2f2f2e" d="m141 176.5.9.5q1.6.7 3.4 1l-1.3 1v1l1.7.5v1c-1.8-.3-3-1-4.4-2.5-.3-1.4-.3-1.4-.3-2.5"/><path fill="#494d4e" d="M285.7 217h.3v8h.7l.3-1.5-.7 6.5-.6-1-.7 1.5z"/><g filter="url(#b)"><path fill="#110" d="M283.5 194.5h2.1l.4 1.3-2.5.8-1.4.5c-1.2.4-1.2.4-2.4.4v-1.7c1.3-1.2 2.3-1.3 3.8-1.3"/></g><path fill="#396475" d="M301 339h.3l.5 4 .2 1.2q.4 3.3.3 6.8h-.6l-.5-4.3-.2-1.3c-.4-4-.4-4-.3-5.9q0-.2.3-.5"/><path fill="#272726" d="m151.3 172-1.3 2-.8 1.1c-1 1-1.6 1-2.9.9l.7-1.5-.3-1h2v-1c1.5-1 1.5-1 2.6-.5"/><path fill="#282d2e" d="m186 216.5 1 .5q-1.8 2.9-4 5l-1.3-1 .7-.7 1-1 1-1c1-.7 1-.7 1.6-1.8"/><path fill="#2d2d2c" d="M131.7 169.5q1.9.4 3.6 1.5l-.6 2c-2.3-.9-2.3-.9-3-2z"/><path fill="#d54d44" d="M291.7 182.5q1.3 1.8 1.6 4.5c0 1.2 0 1.2-.3 2l-.7.5-.2-1-.2-1.4-.3-1.4c-.2-1.3-.2-1.3-1-2.2z"/><path fill="#da4941" d="m280.3 200.5 2.5 1.4.7.4c1.8 1 1.8 1 2.2 2.2-2 .4-3.1-.5-4.8-2.2l-.6-.8z"/><path fill="#c33528" d="M349 244c.6 2 0 3.9-.3 5.9l-.7 3.6-.3-1.5h-.7q.9-4 2-8"/><path fill="#252522" d="M262.7 81.5c1.1 1.5 1.6 2.8 2 5l-.7 1h-.7q-.7-2.8-.6-6"/><path fill="#b52d2c" d="M167.7 239.5c.6 1 .8 1.6 1.1 2.9l1.2 5.1-1-.5-.3 1.5-.5-3.4-.3-1.9c-.2-1.7-.2-1.7-.2-3.7"/><path fill="#f8e3c4" d="M278 129.5h1.6l.9-.1q1.2.1 2.2 1.1c-.4.5-.4.5-1.3.5h-3.1z"/><path fill="#363635" d="M133.3 162v2l-3.6-1.5v-1c1.4-.7 2.2-.1 3.6.5"/><path fill="#c9c9ca" d="M212.3 90.5h.4q0 1.2.3 2.3l.2 1.4q.1 1.9-.2 3.8h-.7a44 44 0 0 1-.3-7z"/><path fill="#efdec3" d="M211.7 123h.3l.3 7a9 9 0 0 1-1.6-4c0-1.5.2-1.9 1-3"/><path fill="#2a2b2b" d="M382.4 160.5h1.6l-.3 1.5-2.6.1c-.8-.1-.8-.1-1.4-1.1a5 5 0 0 1 2.7-.5"/><path fill="#577b8a" d="M200.7 240q1.4 2.1 2.4 5l.5 1.7.4 1.3-.3 1-1.5-3.7-.5-1-.4-1-.4-1c-.2-.8-.2-.8-.2-2.3"/><path fill="#d5d5d5" d="m212 83.5 1 .5-.1 3.2V89l-.2 1.5-.7.5z"/><path fill="#32312d" d="m279.3 85.5 1.4.5.3 2.5-1.7 1z"/><path fill="#f5e2c6" d="M266 86h.7c.5 1.6.3 3.2.3 5l-1-.5c-.3-1.7-.4-2.8 0-4.5"/><path fill="#3c3d3d" d="M168.3 182.5c1.8 1 2.8 1.9 4 4l-.6.5v-1l-.7-.4-3.3-2.1z"/><path fill="#12161a" d="M266.3 196.5h3.7v.5h-3.7zm-1.6.5h1.6v1.5H264z"/><path fill="#bebebe" d="m212 79.5.3 1c.3 1.2.3 1.2 1.4 1.5l-.4 3.5-1-.5c-.4-2-.3-3.5-.3-5.5"/><path fill="#2f4855" d="M320 238h.3c-.3 5.3-.3 5.3-.6 7.5h-.7c.3-5.3.3-5.3 1-7.5"/><path fill="#467b8c" d="M294 225.5h.3v8h-.3l-.3-4.5-.7.5c.2-1.7.4-2.5 1-4"/><path fill="#f7dcbc" d="M285.7 140.5h.3v7l-1 .5v-3.5h.7z"/><path fill="#354142" d="M284 235.5c.4 1.9.4 1.9 0 3h.7v4.5h-.7l-.1-1.2-.6-2.8z"/><path fill="#191919" d="m379.7 161.5 4.3.5v.5l-5 1v-1h.7z"/><path fill="#383c3d" d="M175.3 225.5v1h-1v1l-.5-.2q-1.5-.6-3.1-.8v-.5l1.7-.2 1-.2z"/><path fill="#212021" d="m144.7 172 1.6.2h1c.7.3.7.3 1.4 1.3H147l-.9.1-.8-.1z"/><path fill="#2e3232" d="m178.7 223 .6.5v1.5l-2 1-1-1.5z"/><path fill="#e2caa9" d="m243 181.2 1.7.3-.4 1H243l-.8.1c-.8-.1-.8-.1-1.4-1.1.8-.7 1.4-.4 2.3-.3"/><path fill="#335969" d="M301.7 345.5q.9 2.5.6 5.5h-.6l-.2-2.2-.1-1.2c0-1.1 0-1.1.3-2.1"/><path fill="#2e2f2f" d="m379.3 161.5.4 1h-.7l.3 1.5-1.3 1-1-1.5z"/><path fill="#c43c34" d="M199 95c0 1.5 0 1.5-.4 2.3l-.6.8-.6.8-.4.6-1-.5z"/><path fill="#486e7f" d="M320.7 239.5a5 5 0 0 1 .1 3l-.8 2.5h-.7l.8-3.9c.2-1.1.2-1.1.6-1.6"/><path fill="#65b9c3" d="m284.7 238 1.3 1c-.5 1.5-.8 2.2-1.7 3.5z"/><path fill="#4a4a4a" d="m151.3 172-2.3 2.5-.3-2c1.5-1 1.5-1 2.6-.5"/><path fill="#1c1c1c" d="M372 170.5v1l-1.7 1V171l-1-.5c1.1-.5 1.6-.4 2.7 0"/><path fill="#2e3337" d="M328 205.5c1 .7 1.3 1 2 2.5l-.7 1-.2-1c-.4-1.2-.4-1.2-1.4-1.5z"/><path fill="#d7bb98" d="M281.7 183c-.7 1-.7 1-1.7 2-1.1-.4-1.1-.4-2-1v-.5l1.5-.5.8-.3c.7-.2.7-.2 1.4.3"/><path fill="#7d7e7e" d="m235.3 44.5.7.5-1.7 3-.3-1.5-.7-.5z"/><path fill="#283534" d="M296.3 214.5h.7l-.7 2zm-1 .5.7 1.5-1.3 2z"/><path fill="#b3a085" d="m259 180.5 1 1.5-4-1v-.5c1.1-.4 2-.7 3 0"/><path fill="#564e43" d="M223.7 116h.3c0 3.8 0 3.8-.3 5.5h-.7l-.3-2.5 1 .5z"/><path fill="#232223" d="m133 162.5 2 .5v1.5l-1.7-.5z"/><path fill="#171716" d="m129.3 160 .4 1 1 .5a7 7 0 0 1-4.4 0v-.5h3z"/><path fill="#e0c8a7" d="M293 58v1h-3.7v-.5c2.6-1 2.6-1 3.7-.5"/><path fill="#d7d8d8" d="m281.3 234.5.7 1.5-.3 1.5-.4-1h-1V235z"/><path fill="#2d4854" d="M224.3 172.5v1.5l-3.3.5c1-1 2-2 3.3-2"/><path fill="#383838" d="m143.7 170.5 2 1-.7 1.5-2-1 .7-.5z"/><path fill="#252624" d="M283.3 154.5h4.4l-.4 1.5-.6-.5-1.7-.3-1-.1-.7-.1z"/><path fill="#454034" d="m262.7 81.5 1.3 2-.7 2.5a10 10 0 0 1-.6-4.5"/><path fill="#dcc6a7" d="M231.7 76a8 8 0 0 1 .3 5h-.7z"/><path fill="#e0cba9" d="m250 69.5.7.5-2.4 3c.4-2.1.5-2.4 1.7-3.5"/></g>
<defs>
<clipPath id="a"><path fill="#fff" d="M0 0h512v512H0z"/></clipPath>
<filter id="b" width="14.3" height="11" x="275.7" y="194.5" color-interpolation-filters="sRGB" filterUnits="userSpaceOnUse">
<feFlood flood-opacity="0" result="BackgroundImageFix"/><feColorMatrix in="SourceAlpha" result="hardAlpha" values="0 0 0 0 0 0 0 0 0 0 0 0 0 0 0 0 0 0 127 0"/><feOffset dy="4"/><feGaussianBlur stdDeviation="2"/><feComposite in2="hardAlpha" operator="out"/><feColorMatrix values="0 0 0 0 0 0 0 0 0 0 0 0 0 0 0 0 0 0 0.25 0"/><feBlend in2="BackgroundImageFix" result="effect1_dropShadow_0_1"/><feBlend in="SourceGraphic" in2="effect1_dropShadow_0_1" result="shape"/></filter>
</defs>
</svg>