<?xml version="1.0" encoding="iso-8859-1"?>
<!-- Uploaded to: SVG Repo, www.svgrepo.com, Generator: SVG Repo Mixer Tools -->
<svg height="800px" width="800px" version="1.1" id="Layer_1" xmlns="http://www.w3.org/2000/svg" xmlns:xlink="http://www.w3.org/1999/xlink" 
	 viewBox="0 0 504.413 504.413" xml:space="preserve">
<circle style="fill:#DF5C4E;" cx="128.8" cy="342.606" r="16"/>
<g>
	<circle style="fill:#54B265;" cx="164.8" cy="227.806" r="16"/>
	<circle style="fill:#54B265;" cx="240.4" cy="184.606" r="16"/>
	<path style="fill:#54B265;" d="M366.4,332.606c0,8.8-7.2,16-16,16s-16-7.2-16-16s7.2-16,16-16S366.4,323.806,366.4,332.606z"/>
	<circle style="fill:#54B265;" cx="484.4" cy="389.406" r="16"/>
</g>
<g>
	<circle style="fill:#DF5C4E;" cx="227.6" cy="365.406" r="16"/>
	<circle style="fill:#DF5C4E;" cx="350.4" cy="255.406" r="16"/>
	<circle style="fill:#DF5C4E;" cx="472.4" cy="65.406" r="16"/>
</g>
<path d="M500,478.206H30c-2.4,0-4-1.6-4-4v-470c0-2.4,1.6-4,4-4s4,1.6,4,4v466h466c2.4,0,4,1.6,4,4S502.4,478.206,500,478.206z"/>
<path d="M30,504.206c-2.4,0-4-1.6-4-4v-28c0-2.4,1.6-4,4-4s4,1.6,4,4v28C34,502.606,32.4,504.206,30,504.206z"/>
<path d="M70,504.206c-2.4,0-4-1.6-4-4v-24c0-2.4,1.6-4,4-4s4,1.6,4,4v24C74,502.606,72.4,504.206,70,504.206z"/>
<path d="M114,504.206c-2.4,0-4-1.6-4-4v-24c0-2.4,1.6-4,4-4s4,1.6,4,4v24C118,502.606,116.4,504.206,114,504.206z"/>
<path d="M158,504.206c-2.4,0-4-1.6-4-4v-24c0-2.4,1.6-4,4-4s4,1.6,4,4v24C162,502.606,160.4,504.206,158,504.206z"/>
<path d="M202,504.206c-2.4,0-4-1.6-4-4v-24c0-2.4,1.6-4,4-4s4,1.6,4,4v24C206,502.606,204.4,504.206,202,504.206z"/>
<path d="M246,504.206c-2.4,0-4-1.6-4-4v-24c0-2.4,1.6-4,4-4s4,1.6,4,4v24C250,502.606,248.4,504.206,246,504.206z"/>
<path d="M290,504.206c-2.4,0-4-1.6-4-4v-24c0-2.4,1.6-4,4-4s4,1.6,4,4v24C294,502.606,292.4,504.206,290,504.206z"/>
<path d="M334,504.206c-2.4,0-4-1.6-4-4v-24c0-2.4,1.6-4,4-4s4,1.6,4,4v24C338,502.606,336.4,504.206,334,504.206z"/>
<path d="M462,504.206c-2.4,0-4-1.6-4-4v-24c0-2.4,1.6-4,4-4s4,1.6,4,4v24C466,502.606,464.4,504.206,462,504.206z"/>
<path d="M378,504.206c-2.4,0-4-1.6-4-4v-24c0-2.4,1.6-4,4-4s4,1.6,4,4v24C382,502.606,380.4,504.206,378,504.206z"/>
<path d="M422,504.206c-2.4,0-4-1.6-4-4v-24c0-2.4,1.6-4,4-4s4,1.6,4,4v24C426,502.606,424.4,504.206,422,504.206z"/>
<path d="M24,478.206H4c-2.4,0-4-1.6-4-4s1.6-4,4-4h20c2.4,0,4,1.6,4,4S26.4,478.206,24,478.206z"/>
<path d="M24,438.206H4c-2.4,0-4-1.6-4-4s1.6-4,4-4h20c2.4,0,4,1.6,4,4S26.4,438.206,24,438.206z"/>
<path d="M24,394.206H4c-2.4,0-4-1.6-4-4s1.6-4,4-4h20c2.4,0,4,1.6,4,4S26.4,394.206,24,394.206z"/>
<path d="M24,350.206H4c-2.4,0-4-1.6-4-4s1.6-4,4-4h20c2.4,0,4,1.6,4,4S26.4,350.206,24,350.206z"/>
<path d="M24,306.206H4c-2.4,0-4-1.6-4-4s1.6-4,4-4h20c2.4,0,4,1.6,4,4S26.4,306.206,24,306.206z"/>
<path d="M24,262.206H4c-2.4,0-4-1.6-4-4c0-2.4,1.6-4,4-4h20c2.4,0,4,1.6,4,4C28,260.606,26.4,262.206,24,262.206z"/>
<path d="M24,218.206H4c-2.4,0-4-1.6-4-4s1.6-4,4-4h20c2.4,0,4,1.6,4,4S26.4,218.206,24,218.206z"/>
<path d="M24,174.206H4c-2.4,0-4-1.6-4-4s1.6-4,4-4h20c2.4,0,4,1.6,4,4S26.4,174.206,24,174.206z"/>
<path d="M24,46.206H4c-2.4,0-4-1.6-4-4s1.6-4,4-4h20c2.4,0,4,1.6,4,4S26.4,46.206,24,46.206z"/>
<path d="M24,130.206H4c-2.4,0-4-1.6-4-4s1.6-4,4-4h20c2.4,0,4,1.6,4,4S26.4,130.206,24,130.206z"/>
<path d="M24,86.206H4c-2.4,0-4-1.6-4-4s1.6-4,4-4h20c2.4,0,4,1.6,4,4S26.4,86.206,24,86.206z"/>
<path d="M128.8,362.606c-11.2,0-20-9.2-20-20s9.2-20,20-20s20,9.2,20,20S140,362.606,128.8,362.606z M128.8,330.606
	c-6.8,0-12,5.6-12,12s5.6,12,12,12s12-5.6,12-12S135.6,330.606,128.8,330.606z"/>
<path d="M164.8,247.806c-11.2,0-20-8.8-20-20s9.2-20,20-20s20,9.2,20,20S176,247.806,164.8,247.806z M164.8,215.806
	c-6.8,0-12,5.6-12,12c0,6.8,5.6,12,12,12s12-5.6,12-12C176.8,221.006,171.6,215.806,164.8,215.806z"/>
<path d="M240.4,204.606c-11.2,0-20-9.2-20-20s9.2-20,20-20s20,8.8,20,20S251.2,204.606,240.4,204.606z M240.4,172.206
	c-6.8,0-12,5.6-12,12c0,6.8,5.6,12,12,12s12-5.6,12-12S246.8,172.206,240.4,172.206z"/>
<path d="M350.4,353.006c-11.2,0-20-9.2-20-20c0-11.2,9.2-20,20-20c11.2,0,20,8.8,20,20C370.4,343.806,361.2,353.006,350.4,353.006z
	 M350.4,320.606c-6.8,0-12,5.6-12,12c0,6.8,5.6,12,12,12c6.8,0,12-5.6,12-12S356.8,320.606,350.4,320.606z"/>
<path d="M484.4,409.806c-11.2,0-20-9.2-20-20c0-11.2,9.2-20,20-20c11.2,0,20,9.2,20,20C504.8,400.606,495.6,409.806,484.4,409.806z
	 M484.4,377.406c-6.8,0-12,5.6-12,12c0,6.8,5.6,12,12,12c6.8,0,12-5.6,12-12C496.8,383.006,491.2,377.406,484.4,377.406z"/>
<path d="M227.6,385.806c-11.2,0-20-9.2-20-20c0-11.2,9.2-20,20-20s20,9.2,20,20S238.8,385.806,227.6,385.806z M227.6,353.406
	c-6.8,0-12,5.6-12,12c0,6.8,5.6,12,12,12c6.8,0,12-5.6,12-12C239.6,359.006,234.4,353.406,227.6,353.406z"/>
<path d="M350.4,275.406c-11.2,0-20-9.2-20-20c0-10.8,9.2-20,20-20c11.2,0,20,9.2,20,20C370.4,266.206,361.2,275.406,350.4,275.406z
	 M350.4,243.406c-6.8,0-12,5.6-12,12c0,6.4,5.6,12,12,12c6.8,0,12-5.6,12-12C362.4,249.006,356.8,243.406,350.4,243.406z"/>
<path d="M472.4,85.406c-11.2,0-20-9.2-20-20s9.2-20,20-20c11.2,0,20,8.8,20,20S483.2,85.406,472.4,85.406z M472.4,53.406
	c-6.8,0-12,5.6-12,12c0,6.8,5.6,12,12,12c6.8,0,12-5.6,12-12C484.4,58.606,478.8,53.406,472.4,53.406z"/>
<path d="M240,359.006c-1.2,0-2.4-0.4-3.2-1.2c-1.6-1.6-1.2-4,0.4-5.6l87.6-75.6c1.6-1.6,4-1.2,5.6,0.4s1.2,4-0.4,5.6l-87.6,75.6
	C241.6,358.606,240.8,359.006,240,359.006z"/>
<path d="M196,363.406c-0.4,0-0.4,0-0.8,0l-52.4-10.4c-2-0.4-3.6-2.4-3.2-4.8c0.4-2,2.4-3.6,4.8-3.2l52.4,10.4c2,0.4,3.6,2.4,3.2,4.8
	C199.6,361.806,198,363.406,196,363.406z"/>
<path d="M30.4,433.006c-1.2,0-2.4-0.4-3.2-1.2c-1.6-1.6-1.2-4,0.4-5.6l72.4-63.6c1.6-1.6,4-1.2,5.6,0.4s1.2,4-0.4,5.6l-72.4,63.6
	C32,432.606,31.2,433.006,30.4,433.006z"/>
<path d="M358.8,245.806c-0.8,0-1.6-0.4-2-0.8c-2-1.2-2.4-3.6-1.2-5.6l95.6-149.2c1.2-2,3.6-2.4,5.6-1.2c2,1.2,2.4,3.6,1.2,5.6
	l-95.6,149.2C361.6,245.406,360.4,245.806,358.8,245.806z"/>
<path d="M133.2,228.206h-0.4L30,215.806c-2-0.4-3.6-2.4-3.6-4.4c0.4-2,2.4-3.6,4.4-3.6l102.8,12.4c2,0.4,3.6,2.4,3.6,4.4
	C136.8,226.606,135.2,228.206,133.2,228.206z"/>
<path d="M178.8,223.806c-1.2,0-2.8-0.8-3.6-2c-1.2-2-0.4-4.4,1.6-5.6l33.6-19.2c2-1.2,4.4-0.4,5.6,1.6c1.2,2,0.4,4.4-1.6,5.6
	l-33.6,19.2C180,223.806,179.2,223.806,178.8,223.806z"/>
<path d="M330.8,310.606c-1.2,0-2.4-0.4-3.2-1.6l-81.2-109.6c-1.2-1.6-0.8-4.4,0.8-5.6s4.4-0.8,5.6,0.8l81.2,109.6
	c1.2,1.6,0.8,4.4-0.8,5.6C332.4,310.606,331.6,310.606,330.8,310.606z"/>
<path d="M456,381.406c-0.4,0-1.2,0-1.6-0.4l-91.2-38.4c-2-0.8-2.8-3.2-2-5.2s3.2-2.8,5.2-2l91.2,38.4c2,0.8,2.8,3.2,2,5.2
	C459.2,380.606,457.6,381.406,456,381.406z"/>
</svg>