<?xml version="1.0" encoding="utf-8"?>
<!-- Uploaded to: SVG Repo, www.svgrepo.com, Generator: SVG Repo Mixer Tools -->
<svg width="800px" height="800px" viewBox="0 0 1024 1024" class="icon"  version="1.1" xmlns="http://www.w3.org/2000/svg"><path d="M896 618.666667H443.733333c-10.666667 0-21.333333-4.266667-29.866666-12.8l-78.933334-78.933334c-8.533333-8.533333-8.533333-21.333333 0-29.866666l78.933334-78.933334c8.533333-8.533333 19.2-12.8 29.866666-12.8H896c12.8 0 21.333333 8.533333 21.333333 21.333334v170.666666c0 12.8-8.533333 21.333333-21.333333 21.333334z" fill="#3F51B5" /><path d="M192 128h42.666667v768H192z" fill="#CFD8DC" /><path d="M213.333333 213.333333m-64 0a64 64 0 1 0 128 0 64 64 0 1 0-128 0Z" fill="#90A4AE" /><path d="M213.333333 512m-64 0a64 64 0 1 0 128 0 64 64 0 1 0-128 0Z" fill="#90A4AE" /><path d="M213.333333 810.666667m-64 0a64 64 0 1 0 128 0 64 64 0 1 0-128 0Z" fill="#90A4AE" /><path d="M725.333333 917.333333H443.733333c-10.666667 0-21.333333-4.266667-29.866666-12.8l-78.933334-78.933333c-8.533333-8.533333-8.533333-21.333333 0-29.866667l78.933334-78.933333c8.533333-8.533333 19.2-12.8 29.866666-12.8H725.333333c12.8 0 21.333333 8.533333 21.333334 21.333333v170.666667c0 12.8-8.533333 21.333333-21.333334 21.333333z" fill="#448AFF" /><path d="M746.666667 320H443.733333c-10.666667 0-21.333333-4.266667-29.866666-12.8l-78.933334-78.933333c-8.533333-8.533333-8.533333-21.333333 0-29.866667l78.933334-78.933333c8.533333-8.533333 19.2-12.8 29.866666-12.8H746.666667c12.8 0 21.333333 8.533333 21.333333 21.333333v170.666667c0 12.8-8.533333 21.333333-21.333333 21.333333z" fill="#00BCD4" /></svg>