<?xml version="1.0" encoding="utf-8"?>
<!-- Uploaded to: SVG Repo, www.svgrepo.com, Generator: SVG Repo Mixer Tools -->
<svg width="800px" height="800px" viewBox="0 0 1024 1024" class="icon"  version="1.1" xmlns="http://www.w3.org/2000/svg"><path d="M953.6 234.666667L768 418.133333s-55.466667 0-110.933333-55.466666-55.466667-110.933333-55.466667-110.933334l185.6-185.6c-104.533333-25.6-230.4 8.533333-307.2 85.333334-115.2 115.2-12.8 262.4-42.666667 292.266666C275.2 612.266667 108.8 740.266667 104.533333 746.666667c-49.066667 49.066667-51.2 128-4.266666 174.933333 46.933333 46.933333 125.866667 44.8 174.933333-4.266667 6.4-6.4 142.933333-179.2 302.933333-339.2 29.866667-29.866667 170.666667 78.933333 290.133334-38.4 74.666667-76.8 110.933333-200.533333 85.333333-305.066666zM200.533333 876.8c-29.866667 0-53.333333-23.466667-53.333333-53.333333C147.2 791.466667 170.666667 768 200.533333 768s53.333333 23.466667 53.333334 53.333333-23.466667 55.466667-53.333334 55.466667z" fill="#607D8B" /></svg>