<?xml version="1.0" encoding="UTF-8"?>
<svg width="512px" height="512px" viewBox="0 0 512 512" version="1.1" xmlns="http://www.w3.org/2000/svg" xmlns:xlink="http://www.w3.org/1999/xlink">
    <g stroke="none" stroke-width="1" fill="none" fill-rule="evenodd">
        <path d="M17,54.1613996 L17,131.8386 C17,136.509947 21.5534911,139.477751 25.3034249,137.238505 L91.704039,97.4972421 C94.9504102,95.5553121 94.9504102,90.4446879 91.704039,88.5027579 L25.3034249,48.7614949 C21.5534911,46.5222487 17,49.4900535 17,54.1613996 Z" stroke="currentColor" stroke-width="32"></path>
        <path d="M206.638057,48 L457.361943,48 C469.750459,48 474.763797,49.3923842 479.652686,52.0069906 C484.541574,54.6215969 488.378403,58.4584256 490.993009,63.3473144 C493.607616,68.2362033 495,73.249541 495,85.6380575 L495,100.361943 C495,112.750459 493.607616,117.763797 490.993009,122.652686 C488.378403,127.541574 484.541574,131.378403 479.652686,133.993009 C474.763797,136.607616 469.750459,138 457.361943,138 L206.638057,138 C194.249541,138 189.236203,136.607616 184.347314,133.993009 C179.458426,131.378403 175.621597,127.541574 173.006991,122.652686 C170.392384,117.763797 169,112.750459 169,100.361943 L169,85.6380575 C169,73.249541 170.392384,68.2362033 173.006991,63.3473144 C175.621597,58.4584256 179.458426,54.6215969 184.347314,52.0069906 C189.236203,49.3923842 194.249541,48 206.638057,48 Z" stroke="currentColor" stroke-width="32"></path>
        <path d="M17,217.1614 L17,294.8386 C17,299.509947 21.5534911,302.477751 25.3034249,300.238505 L91.704039,260.497242 C94.9504102,258.555312 94.9504102,253.444688 91.704039,251.502758 L25.3034249,211.761495 C21.5534911,209.522249 17,212.490053 17,217.1614 Z" stroke="currentColor" stroke-width="32"></path>
        <path d="M206.638057,211 L457.361943,211 C469.750459,211 474.763797,212.392384 479.652686,215.006991 C484.541574,217.621597 488.378403,221.458426 490.993009,226.347314 C493.607616,231.236203 495,236.249541 495,248.638057 L495,263.361943 C495,275.750459 493.607616,280.763797 490.993009,285.652686 C488.378403,290.541574 484.541574,294.378403 479.652686,296.993009 C474.763797,299.607616 469.750459,301 457.361943,301 L206.638057,301 C194.249541,301 189.236203,299.607616 184.347314,296.993009 C179.458426,294.378403 175.621597,290.541574 173.006991,285.652686 C170.392384,280.763797 169,275.750459 169,263.361943 L169,248.638057 C169,236.249541 170.392384,231.236203 173.006991,226.347314 C175.621597,221.458426 179.458426,217.621597 184.347314,215.006991 C189.236203,212.392384 194.249541,211 206.638057,211 Z" stroke="currentColor" stroke-width="32"></path>
        <path d="M17,380.1614 L17,457.8386 C17,462.509947 21.5534911,465.477751 25.3034249,463.238505 L91.704039,423.497242 C94.9504102,421.555312 94.9504102,416.444688 91.704039,414.502758 L25.3034249,374.761495 C21.5534911,372.522249 17,375.490053 17,380.1614 Z" stroke="currentColor" stroke-width="32"></path>
        <path d="M206.638057,374 L457.361943,374 C469.750459,374 474.763797,375.392384 479.652686,378.006991 C484.541574,380.621597 488.378403,384.458426 490.993009,389.347314 C493.607616,394.236203 495,399.249541 495,411.638057 L495,426.361943 C495,438.750459 493.607616,443.763797 490.993009,448.652686 C488.378403,453.541574 484.541574,457.378403 479.652686,459.993009 C474.763797,462.607616 469.750459,464 457.361943,464 L206.638057,464 C194.249541,464 189.236203,462.607616 184.347314,459.993009 C179.458426,457.378403 175.621597,453.541574 173.006991,448.652686 C170.392384,443.763797 169,438.750459 169,426.361943 L169,411.638057 C169,399.249541 170.392384,394.236203 173.006991,389.347314 C175.621597,384.458426 179.458426,380.621597 184.347314,378.006991 C189.236203,375.392384 194.249541,374 206.638057,374 Z" stroke="currentColor" stroke-width="32"></path>
    </g>
</svg>
