<?xml version="1.0" encoding="UTF-8"?>
<svg width="580px" height="580px" viewBox="0 0 580 580" version="1.1" xmlns="http://www.w3.org/2000/svg" xmlns:xlink="http://www.w3.org/1999/xlink">
    <g stroke="none" stroke-width="1" fill="none" fill-rule="evenodd">
        <path d="M47.265625,85.0076715 L47.265625,163.898578 C47.265625,168.642915 51.8902644,171.657091 55.6987909,169.382857 L123.136915,129.020637 C126.43401,127.048364 126.43401,121.857886 123.136915,119.885613 L55.6987909,79.5233933 C51.8902644,77.2491588 47.265625,80.2633356 47.265625,85.0076715 Z" stroke="currentColor" stroke-width="26"></path>
        <path d="M239.866777,84.75 L494.508223,84.75 C507.09031,84.75 512.181981,85.9876748 517.147259,88.3117694 C522.112536,90.6358639 526.009316,94.0463783 528.664775,98.3920572 C531.320235,102.737736 532.734375,107.194036 532.734375,118.206051 L532.734375,131.293949 C532.734375,142.305964 531.320235,146.762264 528.664775,151.107943 C526.009316,155.453621 522.112536,158.864136 517.147259,161.18823 C512.181981,163.512325 507.09031,164.75 494.508223,164.75 L239.866777,164.75 C227.28469,164.75 222.193019,163.512325 217.227741,161.18823 C212.262464,158.864136 208.365684,155.453621 205.710225,151.107943 C203.054765,146.762264 201.640625,142.305964 201.640625,131.293949 L201.640625,118.206051 C201.640625,107.194036 203.054765,102.737736 205.710225,98.3920572 C208.365684,94.0463783 212.262464,90.6358639 217.227741,88.3117694 C222.193019,85.9876748 227.28469,84.75 239.866777,84.75 Z" stroke="currentColor" stroke-width="32.5"></path>
        <path d="M47.265625,250.554547 L47.265625,329.445453 C47.265625,334.18979 51.8902644,337.203966 55.6987909,334.929732 L123.136915,294.567511 C126.43401,292.595239 126.43401,287.404761 123.136915,285.432489 L55.6987909,245.070268 C51.8902644,242.796034 47.265625,245.81021 47.265625,250.554547 Z" stroke="currentColor" stroke-width="26"></path>
        <path d="M239.866777,250.296875 L494.508223,250.296875 C507.09031,250.296875 512.181981,251.53455 517.147259,253.858645 C522.112536,256.182739 526.009316,259.593254 528.664775,263.938932 C531.320235,268.284611 532.734375,272.740911 532.734375,283.752926 L532.734375,296.840824 C532.734375,307.852839 531.320235,312.309139 528.664775,316.654818 C526.009316,321.000496 522.112536,324.411011 517.147259,326.735105 C512.181981,329.0592 507.09031,330.296875 494.508223,330.296875 L239.866777,330.296875 C227.28469,330.296875 222.193019,329.0592 217.227741,326.735105 C212.262464,324.411011 208.365684,321.000496 205.710225,316.654818 C203.054765,312.309139 201.640625,307.852839 201.640625,296.840824 L201.640625,283.752926 C201.640625,272.740911 203.054765,268.284611 205.710225,263.938932 C208.365684,259.593254 212.262464,256.182739 217.227741,253.858645 C222.193019,251.53455 227.28469,250.296875 239.866777,250.296875 Z" stroke="currentColor" stroke-width="32.5"></path>
        <path d="M47.265625,416.101422 L47.265625,494.992328 C47.265625,499.736665 51.8902644,502.750841 55.6987909,500.476607 L123.136915,460.114386 C126.43401,458.142114 126.43401,452.951636 123.136915,450.979364 L55.6987909,410.617143 C51.8902644,408.342909 47.265625,411.357085 47.265625,416.101422 Z" stroke="currentColor" stroke-width="26"></path>
        <path d="M239.866777,415.84375 L494.508223,415.84375 C507.09031,415.84375 512.181981,417.081425 517.147259,419.40552 C522.112536,421.729614 526.009316,425.140129 528.664775,429.485807 C531.320235,433.831486 532.734375,438.287786 532.734375,449.299801 L532.734375,462.387699 C532.734375,473.399714 531.320235,477.856014 528.664775,482.201693 C526.009316,486.547371 522.112536,489.957886 517.147259,492.28198 C512.181981,494.606075 507.09031,495.84375 494.508223,495.84375 L239.866777,495.84375 C227.28469,495.84375 222.193019,494.606075 217.227741,492.28198 C212.262464,489.957886 208.365684,486.547371 205.710225,482.201693 C203.054765,477.856014 201.640625,473.399714 201.640625,462.387699 L201.640625,449.299801 C201.640625,438.287786 203.054765,433.831486 205.710225,429.485807 C208.365684,425.140129 212.262464,421.729614 217.227741,419.40552 C222.193019,417.081425 227.28469,415.84375 239.866777,415.84375 Z" stroke="currentColor" stroke-width="32.5"></path>
    </g>
</svg>