<?xml version="1.0" encoding="UTF-8"?>
<svg width="512px" height="512px" viewBox="0 0 512 512" version="1.1" xmlns="http://www.w3.org/2000/svg" xmlns:xlink="http://www.w3.org/1999/xlink">
    <g stroke="none" fill="none" stroke-width="32">
        <path d="M406.5,264.938815 L406.5,347 C406.5,382.070082 378.070082,410.5 343,410.5 L149,410.5 C113.929918,410.5 85.5,382.070082 85.5,347 L85.5,227 C85.5,191.929918 113.929918,163.5 149,163.5 L237.059224,163.5" stroke="currentColor" stroke-linecap="round" fill-rule="nonzero"></path>
        <path d="M414.210207,90.5004486 C422.473806,90.5004486 430.737415,93.6256822 437.042278,99.8761853 C443.347125,106.126673 446.49955,114.318928 446.49955,122.511205 C446.49955,130.703511 443.347104,138.895832 437.042278,145.146379 L437.042278,145.146379 L292.628663,288.314875 C287.494083,293.405186 281.281811,297.29966 274.441786,299.716231 L274.441786,299.716231 L215.617478,320.500449 C215.30681,320.511448 215.021375,320.388803 214.816804,320.185992 C214.612147,319.983094 214.488432,319.699988 214.49955,319.391869 L214.49955,319.391869 L235.464235,261.074683 C237.901822,254.293533 241.8302,248.134734 246.964841,243.044363 L246.964841,243.044363 L391.378135,99.8761853 C397.682998,93.6256822 405.946607,90.5004486 414.210207,90.5004486 Z" stroke="currentColor"></path>
    </g>
</svg>