<?xml version="1.0" encoding="UTF-8" standalone="no"?>
<!-- Uploaded to: SVG Repo, www.svgrepo.com, Generator: SVG Repo Mixer Tools -->
<svg width="800px" height="800px" viewBox="0 0 24 24" xmlns:rdf="http://www.w3.org/1999/02/22-rdf-syntax-ns#" xmlns="http://www.w3.org/2000/svg" version="1.1" xmlns:cc="http://creativecommons.org/ns#" xmlns:dc="http://purl.org/dc/elements/1.1/">
 <g transform="translate(0 -1028.4)">
  <path d="m5 1030.4c-1.1046 0-2 0.9-2 2v8 4 6c0 1.1 0.8954 2 2 2h14c1.105 0 2-0.9 2-2v-6-4-4l-6-6h-10z" fill="#95a5a6"/>
  <path d="m5 1029.4c-1.1046 0-2 0.9-2 2v8 4 6c0 1.1 0.8954 2 2 2h14c1.105 0 2-0.9 2-2v-6-4-4l-6-6h-10z" fill="#bdc3c7"/>
  <path d="m21 1035.4-6-6v4c0 1.1 0.895 2 2 2h4z" fill="#95a5a6"/>
  <g fill="#3498db">
   <rect height="1" width="6" y="1038.4" x="12"/>
   <path d="m5 1034.4 1.4688 5h1.0312l1.0312-3.5 1.0313 3.5h1.0315l1.468-5h-1l-0.968 3.2-0.969-3.2h-1.1562l-0.9688 3.2-0.9688-3.2h-1.0312z"/>
   <rect height="1" width="12" y="1041.4" x="6"/>
   <rect height="1" width="12" y="1044.4" x="6"/>
   <rect height="1" width="12" y="1047.4" x="6"/>
  </g>
 </g>
</svg>