<?xml version="1.0" encoding="utf-8"?><!-- Uploaded to: SVG Repo, www.svgrepo.com, Generator: SVG Repo Mixer Tools -->
<svg width="800px" height="800px" viewBox="0 0 48 48" xmlns="http://www.w3.org/2000/svg"><title>70 Basic icons by Xicons.co</title><path d="M42,48H6a2,2,0,0,1-2-2V35.61a2.07,2.07,0,0,1,1.66-2.08A2,2,0,0,1,8,35.5V44H40V35.61a2.07,2.07,0,0,1,1.66-2.08,2,2,0,0,1,2.34,2V46A2,2,0,0,1,42,48Z" fill="#4dbe86"/><path d="M24,37a2,2,0,0,1-2-2V2a2,2,0,0,1,4,0V35A2,2,0,0,1,24,37Z" fill="#4dbe86"/><path d="M24,38a2.07,2.07,0,0,1-1.44-.59l-14-14a2,2,0,0,1,2.83-2.83L24,33.19l12.61-12.6a2,2,0,0,1,2.83,2.83l-14,14A2,2,0,0,1,24,38Z" fill="#4dbe86"/></svg>