<?xml version="1.0" encoding="iso-8859-1"?>

<!DOCTYPE svg PUBLIC "-//W3C//DTD SVG 1.1//EN" "http://www.w3.org/Graphics/SVG/1.1/DTD/svg11.dtd">
<!-- Uploaded to: SVG Repo, www.svgrepo.com, Generator: SVG Repo Mixer Tools -->
<svg height="800px" width="800px" version="1.1" id="_x34_" xmlns="http://www.w3.org/2000/svg" xmlns:xlink="http://www.w3.org/1999/xlink" 
	 viewBox="0 0 512 512"  xml:space="preserve">
<g>
	<g>
		<g>
			<path style="fill:#B28D61;" d="M502.703,206.646l-13.423,0.21l-28.172,0.349l-23.139,0.35l-151.839,2.517v0.349l-13.422-0.14
				l-13.422,0.14v-0.349l-3.286-0.07l-181.968-2.447l-23.139-0.35l-28.173-0.349l-13.422-0.21l2.307-13.352l4.754-27.683
				l10.626-61.588l1.258-7.131C31.179,79.834,45.929,67.39,63.266,67.39h385.468c17.337,0,32.088,12.444,35.024,29.501l1.258,7.131
				l10.626,61.588l4.754,27.683L502.703,206.646z"/>
			<path style="fill:#C8A373;" d="M502.703,203.22v91.858c0,12.723-10.347,23.07-23.069,23.07H32.367
				c-12.723,0-23.069-10.347-23.069-23.07V203.22c0-3.565,0.839-6.921,2.307-9.927c3.635-7.76,11.604-13.143,20.762-13.143h447.266
				c9.158,0,17.127,5.383,20.762,13.143l0.07,0.07c0,0.07,0.07,0.14,0.07,0.21c0.349,0.699,0.629,1.398,0.839,2.097
				c0.21,0.489,0.349,0.909,0.489,1.398c0.139,0.489,0.279,0.978,0.349,1.538c0.14,0.699,0.279,1.468,0.349,2.237
				C502.633,201.612,502.703,202.451,502.703,203.22z"/>
			<path style="fill:#6A573F;" d="M476.219,193.601H35.781c-7.175,0-13.045,5.87-13.045,13.045v85.005
				c0,7.175,5.87,13.045,13.045,13.045l440.438,0c7.175,0,13.045-5.87,13.045-13.045v-85.005
				C489.264,199.471,483.394,193.601,476.219,193.601z"/>
			<g>
				<polygon style="fill:#FFFFFF;" points="439.087,54.248 439.017,67.39 438.178,180.15 438.038,193.573 437.969,207.554 
					437.899,212.098 437.829,223.912 437.689,242.438 74.311,242.438 74.172,223.912 74.102,212.098 74.032,207.554 73.962,193.573 
					73.822,180.15 72.983,67.39 72.494,0 388.684,0 				"/>
				<polygon style="fill:#C4E5E1;" points="439.506,0 439.437,7.55 439.087,54.248 388.684,0 				"/>
				<g>
					<polygon style="fill:#E5E5E4;" points="390.864,67.521 120.733,67.521 120.593,41.886 391.004,41.886 					"/>
					<polygon style="fill:#E5E5E4;" points="390.537,127.224 121.061,127.224 120.921,101.713 390.676,101.713 					"/>
					<polygon style="fill:#E5E5E4;" points="313.874,187.777 121.393,187.777 121.253,162.393 313.934,162.393 					"/>
				</g>
			</g>
			<path style="fill:#D4B58F;" d="M512,239.852l-0.21,8.948l-2.796,116.256l-0.349,13.213c0,15.24-18.945,27.683-42.084,27.683
				H45.44c-23.139,0-42.084-12.444-42.084-27.683l-0.35-13.213L0.21,248.799L0,239.852c0-6.501,3.495-12.583,9.298-17.337
				c3.635-3.006,8.179-5.452,13.422-7.27c5.802-2.027,12.374-3.146,19.365-3.146h427.832c6.991,0,13.562,1.119,19.364,3.146
				c5.243,1.818,9.787,4.264,13.423,7.27v0.07c1.818,1.468,3.425,3.076,4.754,4.824c0.419,0.559,0.839,1.119,1.188,1.678
				c0.419,0.629,0.839,1.328,1.188,2.028c0.21,0.349,0.35,0.699,0.489,1.048c0.21,0.419,0.419,0.909,0.559,1.328
				c0.14,0.419,0.28,0.839,0.349,1.189c0.28,0.769,0.419,1.608,0.559,2.377C511.93,237.964,512,238.873,512,239.852z"/>
			<path style="fill:#C8A373;" d="M512,251.596l-2.726,113.459l-0.35,12.514l-0.279,12.234c0,0,0,0,0,0.07v0.14
				c0,0.909-0.07,1.748-0.21,2.586c-2.028,14.052-20.063,25.167-41.875,25.167H45.44c-5.733,0-11.185-0.769-16.149-2.167
				c-14.051-3.845-24.258-12.654-25.726-23c-0.14-0.909-0.21-1.818-0.21-2.796v-0.14l-0.629-24.608L0,251.596
				c0-0.979,0.07-1.888,0.21-2.796c0.839-5.453,4.124-10.416,9.088-14.54c3.635-2.936,8.179-5.453,13.422-7.201
				c5.802-2.027,12.374-3.146,19.365-3.146h427.832c6.991,0,13.562,1.119,19.364,3.146c5.243,1.748,9.787,4.264,13.423,7.201
				c4.963,4.124,8.249,9.088,9.088,14.54C511.93,249.708,512,250.687,512,251.596z"/>
			<g>
				<g>
					<circle style="opacity:0.2;fill:#6A573F;" cx="155.796" cy="320.737" r="33.896"/>
					<circle style="opacity:0.2;fill:#6A573F;" cx="356.204" cy="320.737" r="33.896"/>
				</g>
				<path style="opacity:0.1;fill:#040000;" d="M341.691,340.665H170.309c-10.201,0-18.547-8.346-18.547-18.547l0,0
					c0-10.201,8.346-18.547,18.547-18.547h171.381c10.201,0,18.547,8.346,18.547,18.547l0,0
					C360.238,332.319,351.892,340.665,341.691,340.665z"/>
				<path style="fill:#F4EEA8;" d="M333.835,340.665H178.165c-10.201,0-18.547-8.346-18.547-18.547l0,0
					c0-10.201,8.346-18.547,18.547-18.547h155.671c10.201,0,18.547,8.346,18.547,18.547l0,0
					C352.382,332.319,344.036,340.665,333.835,340.665z"/>
				<path style="opacity:0.1;fill:#FFFFFF;" d="M351.896,313.938c-2.895-4.461-7.928-7.423-13.617-7.423h-160.23
					c-8.938,0-16.26,7.322-16.26,16.277v4.545c0,1.919,0.337,3.77,0.96,5.487c-1.666-2.559-2.643-5.588-2.643-8.854v-4.545
					c0-8.955,7.322-16.277,16.26-16.277h160.23C343.614,303.148,349.64,307.659,351.896,313.938z"/>
			</g>
		</g>
		<path style="opacity:0.2;fill:#6A573F;" d="M509.274,365.055l-0.35,12.514l-0.279,12.234c0,0,0,0,0,0.07v0.14
			c0,0.909-0.07,1.748-0.21,2.586c-2.167,13.911-20.203,24.887-41.875,24.887H45.44c-5.872,0-11.465-0.839-16.568-2.237
			c-13.701-3.915-23.699-12.513-25.306-22.65c-0.14-0.909-0.21-1.818-0.21-2.796v-0.14l-0.629-24.608h0.419l0.21,9.018
			c0,15.24,18.945,27.683,42.084,27.683H466.56c23.139,0,42.084-12.443,42.084-27.683l0.21-9.018H509.274z"/>
	</g>
	<path style="opacity:0.04;fill:#040000;" d="M511.79,248.799c0.14,0.909,0.21,1.888,0.21,2.796l-2.796,113.459l-0.28,12.514
		l-0.279,12.234c0,0,0,0,0,0.07v0.14c0,0.909-0.07,1.748-0.21,2.586c-2.028,14.052-20.063,25.167-41.875,25.167H256V0h183.506
		l-0.069,7.55l-0.35,46.698l-0.07,13.142h9.717c17.337,0,32.088,12.444,35.024,29.501l1.258,7.131l10.626,61.588l4.824,27.753
		c0,0.07,0.07,0.14,0.07,0.21c0.349,0.699,0.629,1.398,0.839,2.097c0.21,0.489,0.349,0.909,0.489,1.398
		c0.139,0.489,0.279,0.978,0.349,1.538c0.14,0.769,0.279,1.538,0.349,2.237c0.07,0.769,0.14,1.608,0.14,2.377v19.364
		c1.818,1.468,3.425,3.076,4.754,4.824c0.419,0.559,0.839,1.119,1.188,1.678c0.419,0.629,0.839,1.328,1.188,2.028
		c0.21,0.349,0.35,0.699,0.489,1.048c0.21,0.419,0.419,0.909,0.559,1.328c0.14,0.419,0.28,0.839,0.349,1.189
		c0.28,0.769,0.419,1.608,0.559,2.377c0.14,0.909,0.21,1.818,0.21,2.797L511.79,248.799z"/>
</g>
</svg>