<?xml version="1.0" encoding="utf-8"?>
<!-- Uploaded to: SVG Repo, www.svgrepo.com, Generator: SVG Repo Mixer Tools -->
<!DOCTYPE svg PUBLIC "-//W3C//DTD SVG 1.1//EN" "http://www.w3.org/Graphics/SVG/1.1/DTD/svg11.dtd">
<svg xmlns="http://www.w3.org/2000/svg" xmlns:xlink="http://www.w3.org/1999/xlink" version="1.1" id="Layer_1"  width="512" height="512" viewBox="0 0 512 512" enable-background="new 0 0 512 512" xml:space="preserve">
<g id="fingerprint">
	<path fill="#967ADC" d="M314.424,152.984c-13.672-9.609-28.203-15.641-43.188-17.922c-15.969-2.422-32.532-0.609-49.219,5.391   c-24.766,8.922-43.531,20.109-57.375,34.234c-12.859,13.094-21.141,28.375-25.312,46.672c-7.469,32.734-0.344,69.609,7.203,108.64   c10.062,52.078,20.469,105.938-1.719,156.375l0,0c-0.578,1.312-0.906,2.766-0.906,4.297c0,5.891,4.781,10.656,10.672,10.656   c4.359,0,8.109-2.625,9.766-6.375l0,0c0.016-0.016,0.016-0.047,0.031-0.078s0.031-0.078,0.047-0.109   c24.75-56.469,13.219-116.156,3.047-168.812c-7.094-36.766-13.812-71.5-7.344-99.843c4.344-19.031,16.234-46.547,69.125-65.578   c25.797-9.297,50.329-5.953,72.907,9.906c28.078,19.734,53.453,59.406,71.453,111.671c16.578,48.156,26.094,104.734,26.078,155.219   l0,0c0,5.891,4.781,10.672,10.672,10.672s10.672-4.781,10.672-10.672l0,0c0-52.75-9.938-111.859-27.25-162.156   C368.846,202.765,336.861,168.765,314.424,152.984z"/>
	<path fill="#AC92EB" d="M506.486,222.468h0.016c-4.75-33.062-16.844-67.109-34.984-98.484c-20-34.578-46.516-63.938-76.688-84.906   c-24.562-17.062-51.516-28.703-80.109-34.594c-31.406-6.453-64.813-5.938-99.266,1.531C158.267,18.437,112.345,38,78.97,64.187   c-29.672,23.281-50.547,52.672-62.078,87.359c-20.969,63.141-8.844,132.687,1.844,194.062c3.125,17.891,6.062,34.781,7.906,50.188   h0.016c0.625,5.297,5.125,9.406,10.578,9.406c5.891,0,10.672-4.781,10.672-10.672c0-0.422-0.031-0.844-0.078-1.266l0,0   c-1.906-15.969-4.906-33.141-8.078-51.328c-10.25-58.875-21.891-125.625-2.609-183.671C59.236,91.75,119.048,48.781,219.97,26.875   c31.547-6.844,61.969-7.344,90.454-1.484c25.75,5.297,50.047,15.797,72.234,31.203c27.609,19.188,51.953,46.188,70.391,78.062   c16.547,28.625,28.031,60.891,32.328,90.844h0.016c0.734,5.172,5.172,9.141,10.547,9.141c5.891,0,10.656-4.766,10.656-10.656   C506.596,223.468,506.549,222.968,506.486,222.468z"/>
	<path fill="#967ADC" d="M407.486,113.015c-21.062-25.109-45.094-43.609-71.422-54.984c-30.078-13.016-63.25-16.75-98.579-11.109   c-40.062,6.391-74.062,16.859-101.094,31.125c-25.172,13.281-45.203,30.328-59.516,50.641   c-19.797,28.125-29.328,62.828-29.125,106.125c0.172,36.828,7.375,75.265,13.734,109.187c7.438,39.719,14.484,77.25,8.109,101.266   h0.016c-0.234,0.875-0.375,1.781-0.375,2.734c0,5.891,4.781,10.656,10.672,10.656c4.938,0,9.094-3.359,10.297-7.922h0.016   c7.609-28.672,0.484-66.672-7.766-110.672C69.798,272.608,55.47,196.14,94.314,140.984c12.359-17.547,29.859-32.375,52.031-44.078   c24.969-13.156,56.75-22.891,94.5-28.922c59.094-9.422,109.672,10.344,150.313,58.75c37.266,44.406,56,101.281,63.844,131.218   c12.125,46.328,12.875,80.844,9.516,90.562l0,0c-0.375,1.094-0.578,2.25-0.578,3.469c0,5.891,4.766,10.672,10.656,10.672   c4.672,0,8.641-3,10.078-7.188h0.016c0.016-0.047,0.031-0.109,0.047-0.172c0.031-0.078,0.062-0.172,0.078-0.266   c5.797-17.625,2.062-59.609-9.172-102.484C467.33,220.875,447.439,160.609,407.486,113.015z"/>
	<path fill="#AC92EB" d="M392.377,170.921c-14.344-20.75-30.469-38.078-47.922-51.516c-40.312-31.016-85.141-39.594-129.641-24.828   c-67.344,22.359-106.359,56.516-119.266,104.406c-11.219,41.672-1.312,87.265,8.266,131.359   c10.938,50.375,21.281,97.969-0.938,133.312h0.016c-1.047,1.641-1.656,3.594-1.656,5.672c0,5.891,4.781,10.672,10.672,10.672   c3.812,0,7.141-2,9.031-5l0,0c26.859-42.719,15.094-96.844,3.719-149.188c-9.031-41.594-18.375-84.625-8.5-121.281   c5.141-19.125,15.078-35.234,30.359-49.281c17.562-16.125,42.797-29.734,75.016-40.422c37.469-12.438,75.485-5,109.907,21.484   c31.297,24.094,58.531,63.422,76.672,110.75c18.906,49.328,27.141,103.781,23.844,157.484h0.016   c-0.016,0.219-0.047,0.438-0.047,0.656c0,5.891,4.781,10.672,10.672,10.672c5.672,0,10.297-4.438,10.641-10.016h0.016   c3.484-56.719-5.234-114.266-25.219-166.421C418.377,214.218,406.377,191.171,392.377,170.921z"/>
	<path fill="#AC92EB" d="M301.439,194.125c-19.203-14.953-41.531-19.234-64.563-12.375c-31.656,9.438-49.5,30.234-54.547,63.594   c-4.234,27.843,0.812,61.734,6.156,97.625c7.484,50.328,15.953,107.359-1.266,154.719h0.016c-0.422,1.141-0.656,2.359-0.656,3.641   c0,5.891,4.781,10.672,10.672,10.672c4.609,0,8.516-2.938,10.016-7.031v0.016c19.078-52.453,10.172-112.328,2.312-165.156   c-5.094-34.25-9.906-66.609-6.156-91.296c3.781-25.016,15.984-39.312,39.547-46.328c16.61-4.953,31.438-2.078,45.36,8.75   c22.375,17.422,41.656,55.703,54.297,107.765c11.359,46.797,16.688,101.531,14.641,150.156h0.016c0,0.156-0.016,0.297-0.016,0.453   c0,5.891,4.766,10.672,10.656,10.672c5.75,0,10.406-4.547,10.641-10.219h0.016c2.141-50.547-3.422-107.438-15.234-156.094   C353.611,273.546,334.955,220.234,301.439,194.125z"/>
	<path fill="#967ADC" d="M317.627,292.187c-8.109-24.391-17.234-42.515-27.109-53.89c-13.203-15.172-25.922-16-34.266-14.031   c-19.797,4.703-30.953,19.672-33.141,44.5c-1.766,19.781,1.766,44.609,5.859,73.344c6.609,46.516,14.828,104.406,0.656,156.422   h0.016c-0.25,0.891-0.391,1.828-0.391,2.797c0,5.891,4.781,10.672,10.672,10.672c4.922,0,9.047-3.328,10.281-7.859l0,0   c15.344-56.266,6.766-116.578-0.125-165.031c-8.031-56.5-11.469-88.734,11.094-94.078c3.812-0.906,8.266,1.547,13.234,7.266   c15.656,18.015,30.859,62.718,39.656,116.703c8.312,51.062,8.828,98.391,1.25,117.781l0.016,0.016   c-0.469,1.203-0.734,2.5-0.734,3.875c0,5.891,4.766,10.656,10.656,10.656c4.531,0,8.391-2.812,9.938-6.797v0.016   c10.891-27.922,7.109-84.938-0.078-128.984C330.768,338.858,324.721,313.483,317.627,292.187z"/>
	<path fill="#AC92EB" d="M282.111,295.499c0-0.016-0.016-0.047-0.016-0.062c-0.016-0.062-0.031-0.109-0.047-0.141l0,0   c-1.406-4.234-5.406-7.312-10.125-7.312c-5.891,0-10.672,4.781-10.672,10.672c0,1.172,0.203,2.281,0.547,3.344l0,0   c0.078,0.25,8.234,25.234,13.531,62c8.812,60.984,3.156,107.062-3.141,134.984l0,0c-0.172,0.766-0.266,1.547-0.266,2.344   c0,5.891,4.781,10.672,10.672,10.672c5.078,0,9.328-3.562,10.391-8.328v0.016c0.016-0.062,0.031-0.109,0.047-0.156   c0-0.031,0-0.047,0.016-0.078c12.094-53.859,8.5-107.484,3.328-143C290.986,323.28,282.971,298.155,282.111,295.499z"/>
</g>
</svg>