<?xml version="1.0" encoding="iso-8859-1"?>
<svg fill="currentColor" version="1.1" xmlns="http://www.w3.org/2000/svg" xmlns:xlink="http://www.w3.org/1999/xlink" 
	viewBox="0 0 489.882 489.882">
<g>
	<path d="M388.953,173.187L256.559,224.16c-3.937,1.515-6.539,5.303-6.539,9.525v158.084c0.38,9.305,9.514,11.497,13.876,9.525
		l132.395-50.971c3.938-1.516,6.539-5.304,6.539-9.526V182.713C403.232,177.879,398.035,170.387,388.953,173.187z M382.413,333.789
		l-111.977,43.112V240.693l111.977-43.111V333.789z"/>
	<path d="M239.865,391.769V233.685c0-4.222-2.601-8.01-6.54-9.525l-132.394-50.972c-4.194-1.859-13.282-0.177-13.877,9.525v158.084
		c0,4.222,2.602,8.01,6.54,9.526l132.395,50.971C235.722,404.484,240.168,395.532,239.865,391.769z M219.448,376.901
		l-111.977-43.112V197.582l111.977,43.111V376.901z"/>
	<path d="M98.374,161.229l142.887,55.299c3.574,1.292,6.18,0.458,7.366,0l142.882-55.299c3.933-1.52,6.525-5.303,6.525-9.52
		c0-4.217-2.592-8-6.525-9.52L248.628,86.89c-2.372-0.918-4.994-0.918-7.366,0L98.374,142.189c-3.933,1.52-6.525,5.303-6.525,9.52
		C91.849,155.926,94.441,159.709,98.374,161.229z M244.945,107.357l114.6,44.352l-114.6,44.352L130.34,151.709L244.945,107.357z"/>
	<path d="M218.248,51.251l16.483-16.487v35.523c0,5.638,4.571,10.208,10.208,10.208c5.638,0,10.208-4.57,10.208-10.208V34.762
		l16.489,16.489c3.988,3.987,10.448,3.987,14.435,0c3.987-3.987,3.987-10.448,0-14.436L252.157,2.901
		c-3.828-3.828-10.606-3.828-14.435,0l-33.91,33.914c-3.987,3.987-3.987,10.452,0,14.436
		C205.806,53.245,212.201,56.858,218.248,51.251z"/>
	<path d="M487.011,237.692l-33.914-33.91c-3.987-3.987-10.452-3.987-14.435,0c-1.994,1.994-5.607,8.389,0,14.436l16.487,16.483
		h-35.523c-5.638,0-10.208,4.571-10.208,10.208c0,5.638,4.57,10.208,10.208,10.208h35.525l-16.489,16.489
		c-3.987,3.988-3.987,10.448,0,14.436s10.448,3.987,14.435,0l33.914-33.915C490.839,248.298,490.839,241.52,487.011,237.692z"/>
	<path d="M70.256,234.706H34.732l16.489-16.489c3.987-3.988,3.987-10.448,0-14.436c-3.988-3.987-10.448-3.987-14.436,0
		L2.871,237.697c-3.828,3.828-3.828,10.606,0,14.435l33.914,33.91c3.987,3.987,10.452,3.987,14.436,0
		c1.994-1.994,5.607-8.388,0-14.436l-16.487-16.483h35.523c5.638,0,10.208-4.571,10.208-10.208
		C80.465,239.276,75.894,234.706,70.256,234.706z"/>
	<path d="M271.636,438.631l-16.483,16.487v-35.523c0-5.638-4.571-10.208-10.208-10.208c-5.638,0-10.208,4.57-10.208,10.208v35.525
		l-16.489-16.489c-3.988-3.987-10.448-3.987-14.436,0c-3.987,3.987-3.987,10.448,0,14.436l33.915,33.914
		c3.828,3.828,10.606,3.828,14.435,0l33.91-33.914c3.987-3.988,3.987-10.452,0-14.436
		C284.078,436.637,277.683,433.024,271.636,438.631z"/>
</g>
</svg>