<?xml version="1.0" encoding="UTF-8"?>
<svg width="512px" height="512px" viewBox="0 0 512 512" version="1.1" xmlns="http://www.w3.org/2000/svg" xmlns:xlink="http://www.w3.org/1999/xlink">
    <g stroke="none" stroke-width="1" fill="none" fill-rule="evenodd">
        <path d="M128,124.484 L128,161.51 L96.707,179.724136 L256,273.426293 L415.292,179.724136 L391,165.587 L391,128.563 L440.164988,157.175487 C454.751601,165.67452 463.789525,181.203071 463.996406,198.076708 L464,198.61 L464,369.37 C464,386.257202 455.122424,401.887313 440.637192,410.557174 L440.177904,410.828639 L288.17,499.293235 C278.566623,504.874804 267.873441,507.760483 257.142311,507.949755 C256.765116,507.976463 256.384139,507.99 256,507.99 C255.611721,507.99 255.226672,507.976169 254.84532,507.948974 C244.368183,507.75831 233.926008,504.997049 224.498193,499.664826 L223.842096,499.288639 L71.8350028,410.824508 C57.2392416,402.320132 48.1998345,386.777928 48.0032642,369.903319 L48,369.37 L48,198.590487 C48.0206007,181.708472 56.9067951,166.092598 71.3762303,157.446207 L71.8350119,157.175487 L128,124.484 Z M432,207.022136 L272,301.140293 L272,471.678136 L272.082096,471.631361 L424.065,383.181325 C428.874238,380.374508 431.870592,375.276842 431.99592,369.73222 L432.000012,369.37 L432,207.022136 Z M79.999,207.022136 L79.9999972,369.360492 C79.9999972,374.92957 82.9010275,380.086826 87.6271049,382.985536 L87.9379037,383.171361 L239.93,471.626765 C239.953568,471.640463 239.977149,471.654128 240.000744,471.667761 L240,301.141293 L79.999,207.022136 Z" fill="currentColor" fill-rule="nonzero"></path>
        <path d="M256,5 C339.394997,5 407,72.6050028 407,156 C407,166.416067 405.945355,176.585808 403.937024,186.408265 L361.297382,211.490202 C370.046594,194.92213 375,176.03953 375,156 C375,90.2781148 321.721885,37 256,37 C190.278115,37 137,90.2781148 137,156 C137,176.03953 141.953406,194.92213 150.702618,211.490202 L108.062976,186.408265 C106.054645,176.585808 105,166.416067 105,156 C105,72.6050028 172.605003,5 256,5 Z" fill="currentColor" fill-rule="nonzero"></path>
    </g>
</svg>