<?xml version="1.0" encoding="utf-8"?><!-- Uploaded to: SVG Repo, www.svgrepo.com, Generator: SVG Repo Mixer Tools -->
<svg width="800px" height="800px" viewBox="0 0 48 48" xmlns="http://www.w3.org/2000/svg"><title>70 Basic icons by Xicons.co</title><path d="M46,14.57A12.35,12.35,0,0,0,33.91,2,12,12,0,0,0,24,7.37,12,12,0,0,0,14.09,2,12.35,12.35,0,0,0,2,14.57a13.17,13.17,0,0,0,.25,2.54A12.83,12.83,0,0,0,3,19.5a12.73,12.73,0,0,0,2,3.18L20.8,43.75a4,4,0,0,0,6.39,0L43,22.71a12.86,12.86,0,0,0,2.3-4,12.83,12.83,0,0,0,.42-1.59A13.14,13.14,0,0,0,46,14.57Z" fill="#ec5044"/></svg>