<?xml version="1.0" encoding="UTF-8" standalone="no"?>
<!-- Uploaded to: SVG Repo, www.svgrepo.com, Generator: SVG Repo Mixer Tools -->
<svg width="800px" height="800px" viewBox="0 0 24 24" xmlns:rdf="http://www.w3.org/1999/02/22-rdf-syntax-ns#" xmlns="http://www.w3.org/2000/svg" version="1.1" xmlns:cc="http://creativecommons.org/ns#" xmlns:dc="http://purl.org/dc/elements/1.1/">
 <g transform="translate(0 -1028.4)">
  <path d="m3 1033.4c-1.1046 0-2 0.9-2 2v10 1c0 1.1 0.8954 2 2 2h16 2c1.105 0 2-0.9 2-2v-1-9-1c0-1.1-0.895-2-2-2h-2-14-2z" fill="#95a5a6"/>
  <path d="m3 1032.4c-1.1046 0-2 0.9-2 2v10 1c0 1.1 0.8954 2 2 2h16 2c1.105 0 2-0.9 2-2v-1-9-1c0-1.1-0.895-2-2-2h-2-14-2z" fill="#bdc3c7"/>
  <path d="m13 1035.4v1h4v-1h-4zm0 2v1h7v-1h-7zm0 2v1h7v-1h-7z" fill="#7f8c8d"/>
  <path d="m4 6c-0.5523 0-1 0.4477-1 1v9c0 0.552 0.4477 1 1 1h6c0.552 0 1-0.448 1-1v-9c0-0.5523-0.448-1-1-1h-6z" transform="translate(0 1028.4)" fill="#ecf0f1"/>
  <path d="m7 1035.5c-0.6655 0-1.2798 0.4-1.7324 0.8-0.3868 0.5-0.6104 1-0.7546 1.6-0.4216 0.4-0.3708 1-0.0589 1.4 0.3297 0.4 0.3253 0.9 0.5757 1.4 0.1042 0.4 0.6974 0.7 0.6972 1.1 0.1491 0.7-0.7098 0.5-1.0969 0.7-0.5399 0.2-1.2466 0.4-1.6286 0.8 0.04 0.6-0.1095 1.2 0.125 1.7 0.2 0.4 0.7004 0.4 1.1035 0.4h6.208c0.459-0.2 0.621-0.8 0.562-1.2v-1c-0.705-0.3-1.3602-0.7-2.1396-0.9-0.4624 0-0.6621-0.3-0.6986-0.7 0.6429-0.5 0.9832-1.3 1.2132-2.1 0.3596-0.3 0.655-1.1 0.1842-1.5-0.2308-0.4-0.2642-0.9-0.5832-1.4-0.4221-0.6-1.1761-1.1-1.976-1.1z" fill="#34495e"/>
 </g>
</svg>