<?xml version="1.0" encoding="UTF-8"?>
<svg width="230px" height="317px" viewBox="0 0 230 317" version="1.1" xmlns="http://www.w3.org/2000/svg" xmlns:xlink="http://www.w3.org/1999/xlink">
    <title>Group</title>
    <g id="Page-1" stroke="none" stroke-width="1" fill="none" fill-rule="evenodd">
        <g id="Group" transform="translate(2.000000, 2.144840)" stroke="currentColor">
            <path d="M161.584238,9.71389821 C168.37257,14.8482723 179.206309,25.7005078 183.086304,33.5467193 C187.458228,42.3834728 189.840565,53.7540089 190.562625,65.8457122 C191.473834,66.7191816 192.37098,67.6077428 193.253993,68.5110275 C213.824992,89.5486972 226.543,118.620821 226.543,150.69316 C226.543,171.903084 220.979673,191.802862 211.262683,208.931926 C213.520248,210.1735 215.429842,212.137117 216.794598,215.054023 C219.157226,220.098607 221.931712,228.627046 223.155382,233.834971 C224.126316,237.958606 223.486032,244.573216 221.411014,250.133142 C219.628489,254.909346 216.780365,258.828121 213.164173,260.00884 C206.41294,262.211529 198.536567,262.098434 190.402078,260.464579 C189.055254,259.501181 188.054417,258.259305 187.284584,256.912792 C182.249434,256.761314 177.516077,257.231203 173.452321,259.170144 C173.495554,260.828846 173.03776,261.962084 172.340074,262.800431 C171.429582,263.89449 170.027571,264.475252 168.54555,264.968201 C167.38941,268.929321 168.50312,273.335446 169.529421,277.612927 C170.571023,281.955703 171.543004,286.181329 170.846815,289.6861 C170.404774,291.910162 169.106734,293.434557 167.353884,294.516078 C165.116929,295.896296 162.099367,296.518209 159.394538,297.053055 C158.924736,299.36683 159.185487,301.31116 159.442278,303.252806 C158.920723,305.858816 157.550805,307.609287 155.713265,308.894734 C153.650332,310.337854 150.990974,311.185203 148.403353,311.498011 C133.569855,313.28118 111.054147,314.052308 96.7905174,308.923168 C93.0790123,300.697791 90.4760482,291.729438 87.8977837,282.837728 C87.277811,280.70026 86.673023,278.615122 86.0640976,276.558162 C75.3271373,277.442583 66.1488174,273.125338 57.6142031,268.862671 L55.4704385,267.790293 C53.9286993,267.020693 52.4150252,266.274151 50.914095,265.579496 C49.9325881,265.124725 48.8467045,264.727422 47.7617566,264.32916 C44.5364045,263.145382 41.4648621,261.865343 40.3938219,259.583405 C39.4473796,257.569028 39.3663693,254.301307 39.3293538,250.717528 C39.3131819,249.157862 39.2969434,247.544882 39.1949567,245.962263 C39.1676499,245.537157 39.1404431,245.11205 39.1133386,244.68798 C38.9899285,242.758222 38.8689399,240.866262 38.7394645,238.981342 C36.5120414,237.029385 34.3597968,234.990266 32.2879103,232.870295 C11.718412,211.834328 -1,182.762489 -1,150.69316 C-1,118.617807 11.7184016,89.5487167 32.2877332,68.5112058 C34.8108738,65.9295385 37.4528783,63.4683178 40.204728,61.1363568 C40.4437956,55.2290263 41.4467938,49.8776659 43.476005,45.5992823 C45.322357,41.7064387 48.0129802,38.6893154 51.7288476,36.89157 C54.8954599,25.070401 64.1034696,19.4709856 74.1939407,13.8855468 L75.0734716,13.3997406 L75.5146696,13.1565804 C77.479858,12.073939 79.4668199,10.9793523 81.4345562,9.82406922 C85.6319665,7.36008882 90.2097054,5.68310703 94.9520859,3.95199286 C95.5412317,3.73692623 96.1101879,3.52923098 96.6810274,3.31919397 C115.983676,-3.78453516 145.577747,-2.39222131 161.584238,9.71389821 Z M146.609461,227.156452 C128.855373,223.66067 104.231149,226.37751 86.7307158,229.587705 C89.5805525,255.448971 93.6986456,277.314266 101.151922,300.284824 C117.549897,305.158012 137.127098,305.641538 151.764873,301.355928 C150.430425,294.439171 150.101133,286.786849 149.862836,279.053059 L149.862836,279.053059 L149.796438,276.841753 L149.754184,275.414133 C149.583417,269.704564 149.381065,264.013505 148.765436,258.61343 C148.219956,253.846761 148.040896,249.065674 147.861546,244.250434 C147.650468,238.585727 147.44031,232.892315 146.609461,227.156452 Z M159.934696,266.042104 C159.224998,266.070981 158.362475,266.344846 157.484141,266.58246 C156.554582,266.834151 155.608254,267.078204 154.743952,267.174674 C154.63171,271.747647 155.010983,277.913552 155.354391,283.525974 C155.478357,285.550967 155.597065,287.490729 155.684131,289.238299 C158.603112,289.133802 160.305959,288.52395 162.433491,287.768767 C162.706226,287.672234 162.985362,287.573472 163.273937,287.47299 C163.381624,282.736432 162.378645,278.206792 161.406891,273.773338 C160.836077,271.168487 160.274376,268.598286 159.934696,266.042104 Z M68.7958896,150.151112 C55.3920398,155.503858 42.8446906,164.589442 31.5843202,173.261023 C42.3576481,196.772904 46.7844022,225.397107 47.6158417,253.051911 C50.4736878,254.412401 53.259088,255.896451 56.0608846,257.389924 L56.0608846,257.389924 L56.585485,257.669425 C56.7677116,257.766494 56.950023,257.863573 57.1324443,257.960628 L58.2284909,258.542396 C66.4617386,262.899407 75.0190519,267.06967 86.1860963,267.947379 L86.1860963,267.947379 L86.415,267.964 L86.3664296,267.613691 L86.3664296,267.613691 L86.291427,267.083007 C84.4496387,254.066509 82.7821372,242.277602 81.7066699,229.913113 C79.3481816,229.125959 76.4895541,229.381329 73.7920727,229.586951 C71.6635747,229.748226 69.6269552,229.890929 67.9477289,229.622635 C67.6920118,229.581779 67.4313891,229.529283 67.1663199,229.466758 C67.1286283,229.213184 67.1076193,228.939064 67.1055249,228.642215 C67.0948782,227.133191 67.5812551,226.204591 68.2605267,225.571731 C69.1004752,224.789171 70.33811,224.488958 71.568165,224.251266 C72.2520824,224.119378 72.9309885,224.021194 73.411209,223.704024 C73.6157094,223.568959 73.7545153,223.371283 73.8012222,223.075291 C73.9143477,222.35633 73.395839,221.970295 72.9843782,221.529192 C72.3732486,220.874057 71.7613595,220.166816 71.499649,219.174123 C71.3057136,218.438508 71.2900864,217.538481 71.6615974,216.368512 C71.7713002,216.023034 71.8949965,215.716257 72.0298622,215.442858 C72.3365238,215.523212 72.6452005,215.618241 72.9562998,215.731314 C74.5255889,216.301694 75.7527919,217.184494 76.9746529,218.077941 C77.9759826,218.810118 78.9725866,219.552706 80.2252377,220.055366 C81.7644937,215.779534 81.1123126,209.75844 80.6031888,204.63092 C80.3059928,201.637461 80.0446275,198.926828 80.1992888,196.963623 C80.2582865,196.221933 80.5056284,193.827055 81.3241286,192.409985 C81.6676778,191.815197 82.1089057,191.375705 82.6183467,191.14048 C83.1306831,190.903917 83.7266112,190.842595 84.4247019,191.091049 C84.9049156,191.261698 85.3516203,191.674413 85.6260357,192.464165 C85.8017054,192.969733 85.9148382,193.662689 85.9643753,194.497084 C86.0757184,196.372527 85.8845534,199.041601 85.6590351,201.767772 L85.6590351,201.767772 L85.5806367,202.707314 L85.5373772,203.223479 C85.3217787,205.800456 85.122419,208.304787 85.1982739,210.066133 C85.2550859,211.399184 85.2388505,212.719616 85.2226198,214.000827 C85.1851466,216.951623 85.088203,219.693039 86.1254883,221.757253 L86.1254883,221.757253 L88.0964434,221.495618 C101.903029,219.690561 115.924982,218.44115 130.631524,217.844161 L130.631524,217.844161 L132.298,217.78 L132.155374,217.722135 C129.255945,216.542648 126.087227,215.194361 122.726968,213.300301 C122.030292,212.90728 120.949897,212.408323 119.651439,211.806424 C115.651323,209.954438 110.512081,207.321348 109.875255,205.227088 C109.091037,202.648489 110.127664,200.686313 112.035862,198.123022 L112.035862,198.123022 L112.431395,197.59748 L112.732896,197.186453 L112.732896,197.186453 L113.023287,196.770269 C112.451302,196.938232 111.914427,197.037835 111.410374,197.077945 C110.013707,197.189083 108.843516,196.857601 107.843832,196.215943 C105.609553,194.781846 104.251198,191.62045 102.794105,186.904643 C102.728289,186.683662 102.666035,186.473246 102.602016,186.256871 C102.417304,185.633592 102.235437,185.019772 102.050577,184.428616 C100.329282,178.923351 99.313386,174.736314 98.8318835,171.460949 C98.334991,171.224364 97.7848206,170.963523 97.0280939,170.604746 C90.4438819,167.484529 83.6297366,164.248543 78.0269704,160.269466 C77.5954808,159.961639 76.2556601,158.419095 74.6723701,156.552038 C74.3811065,156.208603 74.0810014,155.854742 73.7766814,155.497332 L73.7766814,155.497332 L73.4073594,155.064355 L73.0374327,154.632584 L72.6657381,154.201233 L72.3787276,153.870207 C71.328876,152.662995 70.3125521,151.536569 69.5213304,150.780007 C69.2430426,150.51391 68.9988665,150.297148 68.7958896,150.151112 Z M159.98,226.486 L159.505728,226.489977 C157.223575,226.508099 155.099792,226.559608 152.795495,227.2209 C152.682556,237.978554 153.297996,248.603344 154.416654,259.32493 C157.741525,258.824575 160.31602,258.420663 163.493869,257.7488 C163.101675,254.254416 162.844411,250.633603 162.587421,247.011716 C162.079474,239.857737 161.578497,232.701366 159.995009,226.544274 L159.995009,226.544274 L159.98,226.486 Z M205.211605,215.164333 C203.868814,214.682724 202.407796,214.613342 201.088259,215.4583 C198.412333,217.171957 194.862981,218.371853 191.320968,219.555596 C187.172899,220.942837 183.012159,222.28229 180.528623,224.604817 C182.067729,230.012813 182.852625,236.785771 183.511769,243.632612 L183.511769,243.632612 L183.672058,245.31994 L183.691926,245.531555 C183.738421,246.02727 183.786573,246.543901 183.85091,247.234515 C183.943562,248.230541 184.035879,249.222988 184.130601,250.208016 C186.606749,250.289666 189.248944,250.082984 191.898023,249.878665 L191.898023,249.878665 L192.436656,249.837453 L193.512597,249.757885 C198.347875,249.412582 203.073685,249.277056 206.786472,250.875681 C207.474109,251.171759 208.142412,251.533959 208.794471,251.951455 C208.092206,252.250788 207.392628,252.521068 206.698905,252.745577 C204.870111,253.337426 202.821973,253.695337 200.771824,254.048634 C198.997377,254.35449 197.219071,254.652572 195.60385,255.129102 C199.033776,255.624757 203.912025,255.215375 207.36623,254.377351 C210.365205,253.649153 212.781172,251.417326 214.247724,248.454649 C215.740538,245.43892 216.254867,241.66003 215.403847,237.833242 C215.325809,237.482553 215.24403,237.112252 215.148218,236.678397 C213.917889,231.101235 211.954671,222.016455 209.822003,218.792928 C208.934567,217.450424 207.180097,215.870357 205.211605,215.164333 Z M173.354092,225.539064 C172.103344,225.33473 170.745157,225.45329 169.445822,225.553825 C169.16861,225.575216 168.894665,225.596245 168.625448,225.61428 C169.055893,229.530756 169.703292,233.610312 170.365892,237.788925 C171.164662,242.825136 171.974477,247.936624 172.426803,252.929734 C173.745548,252.827548 174.778918,252.410823 175.814882,252.005807 C176.482763,251.743985 177.151778,251.485119 177.876705,251.286084 C177.947689,243.132666 177.088132,232.311467 173.354092,225.539064 Z M41.119628,72.140205 C40.2579757,72.9638522 39.4096878,73.8025845 38.5752636,74.6556236 C19.5603563,94.1114707 7.79541,120.974856 7.79541,150.69316 L7.79541,150.69316 L7.79893496,151.583641 C8.02673631,180.347977 19.2816642,206.392647 37.4433194,225.547141 L37.4433194,225.547141 L37.563,225.673 L37.4674438,224.857018 C36.7714958,219.11326 35.7864119,213.32598 34.2537905,207.383913 C33.3630259,203.931299 32.0817756,200.718484 30.8029645,197.504899 C29.8823049,195.191147 28.9626914,192.878207 28.1823425,190.481789 C27.6355242,188.79805 26.958313,186.98816 26.2621747,185.127341 C24.7426532,181.063695 23.1533473,176.787351 22.6079321,173.111948 C22.1954029,170.333394 22.7615031,168.386093 23.8418057,166.889819 C25.2233431,164.97632 27.5364991,163.816551 29.9540255,162.660939 C31.3434056,161.996624 32.7607418,161.324365 33.9889052,160.441258 C39.2458046,156.656162 43.6953739,154.07746 48.7762827,151.135629 C50.7518682,149.991083 52.8171327,148.79462 55.0569267,147.451533 C55.5978236,147.126835 56.3871542,146.689171 57.3367357,146.163078 C58.0221185,145.783188 58.7860536,145.3686 59.5584744,144.941541 L59.5584744,144.941541 L60.1382862,144.619256 C62.3586039,143.37753 64.5042751,142.078657 64.9102613,141.250835 C65.9577401,139.120853 63.8949611,136.400305 62.4999406,134.25736 C61.8762509,133.29897 61.3134158,132.424486 60.9859801,131.705724 C59.2121483,127.814651 58.2370697,124.470087 57.8964883,120.695241 C51.3300044,119.420929 46.3307109,115.424373 43.2666677,110.933782 C38.0736891,103.319269 34.5087024,89.2363183 38.9971949,78.5321585 C39.1520808,78.1610353 39.5324262,77.6385035 39.9795127,77.0606978 C40.4770911,76.4179402 41.1077155,75.6837311 41.2371095,75.0365925 C41.41246,74.1615667 41.3113444,73.1769379 41.119628,72.140205 Z M170.576774,144.472249 C169.506269,145.71974 168.091919,146.813735 166.724483,147.855303 C166.42939,148.080097 166.136597,148.301711 165.851831,148.521984 C166.99966,148.569944 168.034936,148.943613 168.9636,149.564842 C170.922529,150.875264 172.424292,153.414147 173.409885,156.605555 C175.677937,163.94964 175.260964,174.670952 172.764502,179.867883 C173.145423,180.890896 173.86921,181.600747 174.566248,182.324443 C175.391876,183.181227 176.199686,184.049835 176.696145,185.20824 C176.763717,185.365909 176.823424,185.524052 176.650209,186.089506 C173.109172,192.434196 169.352169,198.547871 165.563964,204.71176 C163.004602,208.874878 160.445212,213.03856 157.9538,217.27605 C160.065911,216.716064 162.389243,216.665985 164.769174,216.640218 C167.506341,216.61056 170.3136,216.602767 172.863983,215.593341 C174.345852,215.007228 175.359152,212.108407 176.45409,209.335674 L176.45409,209.335674 L176.713958,208.675707 L176.986287,207.985687 C177.167718,207.527564 177.349,207.074537 177.530696,206.634503 C181.891307,196.085086 186.471818,182.786695 188.508861,172.718847 C188.59132,172.305578 188.700961,171.800291 188.839769,171.160981 C189.366924,168.735305 190.157337,165.265655 189.938293,163.670174 C189.587592,161.114016 186.769284,159.140983 184.452399,157.379976 C183.633505,156.756997 182.861325,156.16789 182.234363,155.605647 C180.271877,153.843313 178.612434,152.168178 176.952429,150.491785 C174.948227,148.467032 172.997528,146.495455 170.576774,144.472249 Z M131.334654,186.586042 L130.382029,187.216984 L129.677359,187.683388 L128.975068,188.150344 L128.620937,188.387176 C123.548436,191.787066 118.64455,195.431051 116.964763,201.395641 C125.612016,206.247379 135.523144,211.00299 145.336597,214.182154 C145.000639,213.380286 144.664976,212.577 144.329314,211.773713 L144.329314,211.773713 L143.597693,210.024318 L143.235121,209.16026 C139.846912,201.099665 136.325182,193.164214 131.334654,186.586042 L131.334654,186.586042 Z M190.727097,78.7061187 C190.34066,90.861175 188.471074,103.105982 185.402026,113.896651 C184.441325,117.269242 183.061622,122.0958 181.158408,126.05813 C180.758383,126.893055 180.113309,127.974241 179.408962,129.150212 C177.90249,131.665215 175.903519,134.679251 176.233622,136.289312 C176.470076,137.449692 178.71039,139.494356 180.993498,141.519832 L180.993498,141.519832 L181.512115,141.976634 L182.187721,142.563115 C183.088972,143.339843 183.987577,144.093612 184.830528,144.800757 C185.962969,145.75091 186.892961,146.533145 187.380175,147.004319 C188.189248,147.784356 189.172515,148.624995 190.257255,149.553443 C193.847916,152.624306 197.84132,156.221442 198.26911,159.606792 C198.741738,163.305072 197.208985,168.09475 195.850149,172.218572 C195.527399,173.198463 195.219432,174.132974 194.96236,174.995721 C190.892899,188.611718 186.915949,201.260044 182.377322,213.454648 C188.004203,210.762197 195.433781,207.663491 202.067471,207.225831 C212.008873,190.80794 217.749,171.444284 217.749,150.69316 C217.749,122.986521 207.519916,97.7609189 190.727097,78.7061187 Z M145.316412,178.945854 L145.1445,178.947429 C144.342865,178.985045 143.54009,179.43971 142.3232,180.033558 C140.939611,180.686781 139.469924,181.175137 137.749557,180.695818 C137.566298,180.909326 137.385488,181.125315 137.204624,181.341256 C136.970631,181.620906 136.736411,181.900235 136.497609,182.174755 C140.951752,187.795624 143.961036,194.759758 146.973823,201.769015 C148.41026,205.108698 149.845893,208.449004 151.449744,211.633976 C153.19806,204.621007 153.486161,197.18368 153.788766,189.614986 C153.875547,187.443685 153.962649,185.2658 154.08466,183.087641 C151.945673,182.883994 150.23827,181.729673 148.65657,180.605182 C147.584435,179.841613 146.597127,179.074415 145.489192,178.957652 L145.489192,178.957652 L145.316412,178.945854 Z M165.417541,182.919762 C163.608711,182.310825 161.543453,182.278114 159.337366,183.166648 C158.963896,191.913422 158.062777,202.697882 156.21518,210.903081 C160.602614,204.702445 164.520323,197.913088 168.587186,190.870251 C169.313272,189.61314 170.039104,188.356473 170.768852,187.103808 C169.520621,185.304778 167.669454,183.677861 165.417541,182.919762 Z M109.518606,158.402445 C108.656255,158.237446 107.938086,158.288465 107.346329,158.550536 C106.713312,158.830881 106.242173,159.345548 105.872869,159.99642 C104.733137,162.005113 104.520719,165.205519 104.529741,168.302435 L104.529741,168.302435 L104.533425,168.809928 L104.541771,169.346149 C104.566255,170.597125 104.624656,171.856208 104.69292,173.323693 C104.865054,177.115502 106.426441,181.067531 107.657625,184.222927 C108.050284,185.229169 108.41019,186.1526 108.685787,186.963299 C108.804573,187.308564 108.904485,187.662018 109.011718,188.043651 C109.176112,188.629335 109.311041,189.187808 109.58028,189.590091 C109.677109,189.734769 109.798295,189.851608 109.985534,189.895156 C112.258677,190.424323 119.71417,187.316273 121.834257,186.160204 C124.611456,184.645368 127.013786,182.595523 129.342537,180.617062 C130.847632,179.337499 132.323145,178.086402 133.839904,177.009567 L133.839904,177.009567 L133.871742,176.183639 L133.951849,174.12133 L133.5624,173.946416 C131.466434,173.031194 129.063123,172.402814 126.118369,172.274207 C124.984789,172.2247 123.924682,172.255966 122.925802,172.354739 C123.83353,171.585064 124.752448,170.864505 125.712852,170.381702 C126.889321,169.790282 128.31499,169.46165 129.745146,169.143955 L129.745146,169.143955 L130.021871,169.083072 C131.129542,168.839918 132.241157,168.589106 133.164868,167.889852 L133.164868,167.889852 L133.185,167.872 L132.850933,167.815027 C130.544916,167.386546 129.073419,166.445892 127.503319,165.424691 C126.939065,165.058618 126.362081,164.683302 125.715615,164.329217 C121.447354,161.9967 115.03347,159.454532 109.518606,158.402445 Z M165.626663,156.96325 C164.343339,156.214033 162.775557,156.405565 161.135287,156.967814 C158.411469,157.90148 155.469856,159.917591 152.929071,161.644249 C151.360544,162.710332 149.932369,163.66791 148.845881,164.406436 C149.12245,165.031388 149.391321,165.658223 149.550654,166.387192 C151.874934,166.08888 154.464966,166.539103 156.38586,167.482584 L156.38586,167.482584 L159.462708,168.993832 L156.0559,169.373991 L155.338175,169.446429 L155.338175,169.446429 L154.612817,169.510471 C153.02045,169.648256 151.401991,169.734289 150.275373,170.384029 C150.117238,171.088109 150.187278,171.900183 150.237306,172.77474 C150.281225,173.555752 150.323056,174.372884 150.266919,175.203416 C155.443979,176.578274 161.288109,177.331275 167.710861,177.55123 C168.7559,175.82087 169.047316,172.905737 168.91015,170.048104 C168.731089,166.311694 167.991649,158.340866 165.626663,156.96325 Z M142.109448,166.860902 C141.121957,166.545725 139.857052,166.781136 138.342594,167.698806 C138.248859,169.34967 138.494399,170.35076 138.823703,171.731106 C138.974423,172.360487 139.14187,173.063099 139.307194,173.919176 C140.874799,174.296833 142.078322,174.09395 142.905575,173.469858 C143.419547,173.082111 143.774017,172.545128 143.989525,171.950518 C144.239672,171.260334 144.304868,170.491295 144.202651,169.755913 C144.105331,169.055765 143.856271,168.382955 143.452183,167.843615 C143.115255,167.393914 142.667941,167.039157 142.109448,166.860902 Z M85.09,157.305 L85.092006,157.328093 C85.1107839,157.433766 85.1529901,157.539347 85.2070282,157.645478 C85.5815359,158.381009 86.4850722,159.089776 87.6076911,159.781248 C90.6733029,161.669497 95.4516035,163.26903 98.2422113,163.720581 C98.3564461,162.883372 98.5832314,162.069228 98.8052878,161.29535 C98.9852452,160.6677 99.1763825,160.073793 99.237498,159.527339 C97.7709863,159.317381 96.1985351,159.206183 94.626185,159.093606 C91.1657745,158.846105 87.7296,158.55141 85.2591999,157.389546 L85.2591999,157.389546 L85.09,157.305 Z M147.352671,157.459968 C146.435698,157.660088 145.501675,157.884527 144.55801,158.110634 L144.55801,158.110634 L143.71811,158.311414 L143.059509,158.466794 C139.761241,159.237588 136.386431,159.902543 133.045676,159.818232 C135.813656,161.121446 138.606706,161.408822 142.616997,161.230406 C143.706543,160.427773 144.752175,159.573456 145.833117,158.690931 C146.338109,158.278633 146.843041,157.866626 147.352671,157.459968 Z M155.962553,16.8710669 C143.287991,9.7203687 121.815164,4.23198432 108.306144,10.9663208 C97.5204426,16.3443575 82.9165454,25.1551115 77.7211624,36.3905418 C80.3729857,42.9430548 79.4768388,49.190308 78.1220792,55.5288128 L78.1220792,55.5288128 L77.8291566,56.8762901 L77.6297931,57.7786642 L77.4639369,58.5286882 C76.6909578,62.0319312 75.9462346,65.5807244 75.8187966,69.2473944 C75.7124461,72.3112163 76.4853455,75.1693271 77.2661319,78.1120902 C78.0208397,80.9567501 78.787576,83.8759679 78.7580663,87.6523133 C77.9433738,88.9963717 76.4464126,89.8884784 74.6324917,90.4000045 C72.4572241,91.0134305 69.8416407,91.0902323 67.7566004,90.9787328 C67.5030969,90.9651765 67.2420925,90.9480161 66.9753887,90.9268154 C66.9278683,90.6751261 66.8790537,90.4246609 66.829387,90.1761139 C66.1916597,86.9847394 65.3026917,83.5553942 63.5635605,81.0923809 C62.3704253,79.4026245 60.7600426,78.1871559 58.4970849,77.9392107 C54.7620166,77.5307034 51.5047729,78.7882278 49.0784682,80.9502775 C46.3854802,83.3499653 44.7074414,86.8545511 44.5191236,90.4401085 C44.2775859,95.0096441 46.2552398,101.227631 49.6761039,105.730074 C52.3472348,109.24574 55.9265154,111.762254 60.1041641,111.349016 C61.5124456,111.209811 62.4662593,110.515198 63.373951,109.780337 L63.373951,109.780337 L63.7613284,109.464435 L63.956397,109.306041 C65.3886994,108.148187 66.8737092,107.086616 69.2769981,107.109204 C69.4820305,107.111131 69.6802323,107.120822 69.8721523,107.137673 C69.971946,107.300998 70.0684737,107.475276 70.161607,107.661107 C70.9048586,109.144128 70.92934,110.360031 70.6008144,111.416415 C70.1922582,112.73014 69.1585711,113.807894 68.0892136,114.856349 C67.2328071,115.696473 66.3122255,116.497088 66.1155181,117.570425 C65.9699915,118.357188 66.6153213,121.41927 66.9595531,122.852644 C68.7574539,130.281426 72.7603847,139.900352 76.7063637,145.557031 C81.3072383,152.148329 90.1088285,153.385879 99.6846895,154.081614 L99.6846895,154.081614 L100.64473,154.14956 C100.805124,154.160643 100.965702,154.171619 101.126447,154.182512 C102.169254,152.518117 104.00165,151.539308 106.208838,151.098813 C107.448048,150.851499 108.801132,150.774814 110.158126,150.816928 C106.32027,148.150458 102.750463,144.427742 99.647153,141.004833 C99.3408402,140.667301 99.0339568,140.327877 98.7279899,139.986707 L98.7279899,139.986707 L98.1182372,139.302667 L97.8115558,138.954836 C93.4266062,133.959786 89.5314204,128.552905 89.3048308,122.176674 L89.3048308,122.176674 L89.1877285,118.881414 L91.1154915,121.556518 L91.5601611,122.173899 L91.5601611,122.173899 L92.0034832,122.790285 C100.719557,134.900048 108.246652,145.442791 124.268135,150.819114 C136.682585,154.982675 151.153621,148.827327 160.6723,142.142795 C163.782654,139.955283 165.88149,136.73262 168.013457,133.503216 C168.591886,132.626504 169.172571,131.746592 169.773329,130.883758 C180.430608,115.553346 185.380428,93.667139 184.287326,72.4629425 C184.227192,71.2929283 184.175074,70.1236701 184.123332,68.9471499 C183.791668,61.4891829 183.511838,54.3155521 180.990154,49.260334 C179.40906,46.0885591 175.768419,43.1170257 171.866207,41.8987594 C168.724433,40.9179008 165.370261,41.0727407 162.837627,43.3937035 C162.409595,43.7859609 162.041158,44.2069813 161.727793,44.6513594 C161.487545,44.0982859 161.302083,43.4947281 161.179219,42.8412338 C160.862109,41.1545844 161.054323,39.6264263 161.631384,38.3128956 C162.241822,36.9233939 163.287554,35.7674536 164.661069,34.9267435 C166.608736,33.7346022 169.240014,33.1765298 172.171937,33.5230599 C172.003991,33.3015358 171.830221,33.0726943 171.649586,32.8348115 C167.128878,26.8805165 162.26893,20.4297149 155.962553,16.8710669 Z M72.1143082,39.1767816 C64.207745,39.9426596 57.6895372,43.2592097 52.9228544,48.5074865 C48.0652462,53.8522974 48.6812404,63.4695931 49.3626356,71.6795309 C54.271804,69.2044231 59.7328262,69.4737498 64.1128073,71.592473 C66.6498691,72.8197229 68.8225626,74.6670641 70.3235947,76.9544405 C71.5378478,78.8048033 72.314772,80.9427719 72.6171122,83.2136381 C72.8241574,83.0900295 72.9493741,82.9061948 73.0236057,82.6848665 C73.343155,81.732102 72.9973419,80.3308212 72.5668102,78.7861839 C72.4415661,78.354275 72.3076477,77.9199558 72.1740101,77.4863911 C71.9065983,76.6185107 71.6468406,75.7719122 71.4715881,75.0090605 C70.1302917,69.1728377 71.0739267,63.0999349 72.0289988,57.1175219 C73.0214835,50.9003137 74.0464056,44.7794351 72.1143082,39.1767816 Z M91.908574,13.634478 L91.8473569,13.639771 C80.3386069,16.9017208 65.7070211,24.9261243 59.874849,35.0428429 C60.8329928,34.7784184 61.7339308,34.4498576 62.6266672,34.126527 C64.5187256,33.4412037 66.3769885,32.7805665 68.5843783,32.6409538 C69.2403153,32.5982045 69.981003,32.6930582 70.7555725,32.8009628 C71.6631144,32.9273539 72.6290569,33.0877375 73.5209266,32.8660024 C75.5249219,32.3688472 77.2082728,29.165366 78.8356698,26.3982125 C79.8750382,24.630912 80.8712845,22.9564921 81.8192866,21.9081426 C83.0898754,20.5006198 84.4828994,19.4830662 85.8298835,18.5065497 C87.1007829,17.5851926 88.3289185,16.7085236 89.3173323,15.4949496 L89.3173323,15.4949496 L89.4435573,15.3364748 L89.5505844,15.2795293 L89.5505844,15.2795293 L89.6580422,15.2258639 C90.0309483,15.0458869 90.4473776,14.9108186 90.8654642,14.7791946 C91.3454722,14.6280504 91.8505592,14.5115466 92.1831321,14.1921035 C92.2631523,14.1152425 92.3225737,14.0210143 92.0213281,13.6720712 C91.9673446,13.6464171 91.910604,13.6218471 91.8473569,13.639771 Z" id="Shape" stroke-width="2" fill="currentColor"></path>
            <g id="jenkins-outline" transform="translate(49.238200, 36.945014)" fill="currentColor">
                <path d="M69.9978,6.74514539 C58.6408,4.10014539 52.9978,11.4976454 49.5558,19.1701454 C46.4821,18.4251454 47.7052,14.2451454 48.4816,12.1151454 C50.5143,6.52514539 58.7058,-0.916154608 65.3998,0.0926453919 C68.2798,0.526345392 72.1778,3.16014539 69.9978,6.74514539" id="Path"></path>
                <path d="M125.3308,19.6776454 C125.5098,19.6851454 125.6908,19.6913454 125.8688,19.6988454 C128.4358,25.0301454 130.6568,30.6776454 133.8938,35.3838454 C131.7258,40.4351454 117.4718,44.9051454 117.6918,35.8351454 C120.7748,34.4876454 126.0958,35.5601454 128.8278,33.8389454 C127.2478,29.5026454 124.9678,25.8113454 125.3308,19.6776454" id="Path"></path>
                <path d="M75.8118,19.8164454 C78.2468,24.2801454 79.0388,28.9701454 82.5008,32.3439454 C84.0588,33.8626454 87.0908,35.7139454 85.5878,39.9376454 C85.2368,40.9339454 82.6708,43.1551454 81.1888,43.5914454 C75.7778,45.1889454 63.1688,43.9214454 67.4388,37.1751454 C71.9138,37.3839454 77.9288,40.0813454 81.2738,36.8326454 C78.7058,32.7263454 74.1258,24.6026454 75.8118,19.8164454" id="Path"></path>
                <path d="M123.2988,65.1841454 C115.1518,70.4171454 106.0668,76.1091454 92.7168,74.7891454 C89.8638,72.3091454 88.7768,66.7901454 91.5478,63.1451454 C92.9908,65.6251454 92.0838,70.1861454 96.1038,70.8731454 C103.6788,72.1691454 112.4958,66.2391454 117.9438,64.1661454 C121.3228,58.4701454 117.6528,56.3751454 114.6088,52.7088454 C108.3778,45.1976454 100.0188,35.8876454 100.3228,24.6426454 C102.8418,22.8163454 103.0588,27.4301454 103.4208,28.2701454 C106.6738,35.8851454 114.8628,45.6239454 120.8388,52.1414454 C122.3068,53.7464454 124.7228,55.2863454 124.9918,56.3476454 C125.7668,59.4338454 122.9758,63.1311454 123.2988,65.1841454" id="Path"></path>
                <path d="M15.8888,59.6739454 C13.335,58.2164454 12.7272,51.7964454 9.729,51.6139454 C5.4444,51.3539454 6.2256,59.9426454 6.2428,64.9651454 C3.2935,62.2876454 2.7749,54.0438454 4.9415,49.8101454 C2.4723,48.5976454 1.3696,51.1476454 0,52.0463454 C1.7603,39.2588454 18.7062,46.1151454 15.8888,59.6739454 Z" id="Path"></path>
                <path d="M128.4868,70.5091454 C124.6938,77.7281454 119.3298,85.6771454 108.2008,85.9091454 C107.9748,83.5771454 107.8008,80.0301454 108.2128,78.6261454 C116.7208,77.8091454 121.9728,73.4791454 128.4868,70.5091454 Z" id="Path"></path>
                <path d="M75.1698,75.1891454 C82.2678,78.9211454 95.3128,79.3221454 104.9608,79.0401454 C105.4778,81.1541454 105.4658,83.7651454 105.4858,86.3421454 C93.0848,86.9611454 78.4218,83.8931454 75.1698,75.1891454 Z" id="Path"></path>
                <path d="M73.8208,82.1491454 C78.7298,94.4731454 95.5988,93.0541454 109.8258,92.7141454 C109.1988,94.3141454 107.8418,96.2041454 106.1538,96.8881454 C101.5958,98.7431454 89.0218,100.150145 82.6928,96.7891454 C78.6788,94.6551454 76.1008,89.8341454 73.9018,87.0071454 C72.8398,85.6421454 67.5518,82.1561454 73.8208,82.1491454" id="Path"></path>
            </g>
        </g>
    </g>
</svg>