<?xml version="1.0" ?><!-- Uploaded to: SVG Repo, www.svgrepo.com, Generator: SVG Repo Mixer Tools -->
<svg width="800px" height="800px" viewBox="0 0 512 512" data-name="Camada 1" id="Camada_1" xmlns="http://www.w3.org/2000/svg"><defs><style>.cls-1{fill:#1d001d;}.cls-2{fill:#310c31;}.cls-3,.cls-5,.cls-7{fill:#e6e6e6;}.cls-3{opacity:0.8;}.cls-4,.cls-6{fill:none;}.cls-4{stroke:#333;}.cls-4,.cls-6,.cls-7{stroke-miterlimit:10;stroke-width:2px;}.cls-6,.cls-7{stroke:#b3b3b3;}</style></defs><title/><path class="cls-1" d="M433,42.11V464.68a12.23,12.23,0,0,1-12.34,12.05H91.36A12.23,12.23,0,0,1,79,464.68V42.11a12.23,12.23,0,0,1,12.34-12H420.64A12.23,12.23,0,0,1,433,42.11Z"/><rect class="cls-2" height="451.74" rx="12" ry="12" width="342.15" x="79.21" y="30.2"/><rect class="cls-3" height="72.95" rx="12" ry="12" width="124.15" x="125.69" y="367.89"/><line class="cls-4" x1="137.24" x2="238.28" y1="386.47" y2="385.56"/><line class="cls-4" x1="137.24" x2="238.28" y1="404.59" y2="403.68"/><line class="cls-4" x1="137.24" x2="238.28" y1="422.72" y2="421.81"/><path class="cls-5" d="M395.41,31.6V480.49A5.5,5.5,0,0,1,390,486H360.26a5.51,5.51,0,0,1-5.47-5.51V31.6a5.55,5.55,0,0,1,5.47-5.6H390A5.55,5.55,0,0,1,395.41,31.6Z"/><line class="cls-6" x1="384.24" x2="384.24" y1="26" y2="486"/><line class="cls-7" x1="368" x2="366.98" y1="26" y2="486"/></svg>