<?xml version="1.0" encoding="utf-8"?><!-- Uploaded to: SVG Repo, www.svgrepo.com, Generator: SVG Repo Mixer Tools -->
<svg width="800px" height="800px" viewBox="0 0 48 48" xmlns="http://www.w3.org/2000/svg"><title>70 Basic icons by Xicons.co</title><path d="M44.88,13H15.13A2.07,2.07,0,0,1,13,11a2.07,2.07,0,0,1,2.13-2H44.88A2.07,2.07,0,0,1,47,11,2.07,2.07,0,0,1,44.88,13Z" fill="#817ec5"/><path d="M44.88,25H15.13a2,2,0,1,1,0-4H44.88A2,2,0,1,1,44.88,25Z" fill="#817ec5"/><path d="M44.88,37H15.13a2,2,0,1,1,0-4H44.88A2,2,0,1,1,44.88,37Z" fill="#817ec5"/><circle cx="6" cy="11" r="3" fill="#817ec5"/><circle cx="6" cy="23" r="3" fill="#817ec5"/><circle cx="6" cy="35" r="3" fill="#817ec5"/></svg>