<?xml version="1.0" encoding="UTF-8" standalone="no"?>
<!-- Uploaded to: SVG Repo, www.svgrepo.com, Generator: SVG Repo Mixer Tools -->

<svg
   width="800px"
   height="800px"
   viewBox="0 0 24 24"
   version="1.1"
   id="svg8"
   sodipodi:docname="people.svg"
   inkscape:version="1.1 (c68e22c387, 2021-05-23)"
   xmlns:inkscape="http://www.inkscape.org/namespaces/inkscape"
   xmlns:sodipodi="http://sodipodi.sourceforge.net/DTD/sodipodi-0.dtd"
   xmlns="http://www.w3.org/2000/svg"
   xmlns:svg="http://www.w3.org/2000/svg">
  <defs
     id="defs12" />
  <sodipodi:namedview
     id="namedview10"
     pagecolor="#ffffff"
     bordercolor="#666666"
     borderopacity="1.0"
     inkscape:pageshadow="2"
     inkscape:pageopacity="0.0"
     inkscape:pagecheckerboard="0"
     showgrid="false"
     inkscape:zoom="1.04"
     inkscape:cx="399.51923"
     inkscape:cy="399.51923"
     inkscape:current-layer="g6" />
  <g
     transform="translate(0,-1028.4)"
     id="g6">
    <path
       d="M 6.25,6.5 C 6.0391,6.5 5.8241,6.5126 5.625,6.5625 5.5084,6.5921 5.3934,6.642 5.2812,6.6875 5.2378,6.7052 5.1988,6.7299 5.1562,6.75 5.1385,6.7582 5.1426,6.7726 5.125,6.7812 5.0192,6.8336 4.9122,6.8716 4.8125,6.9375 4.7985,6.9466 4.7639,6.9594 4.75,6.9688 4.7207,6.9888 4.7162,7.01 4.6875,7.0312 4.6059,7.0898 4.5141,7.1522 4.4375,7.2188 4.3676,7.2816 4.3154,7.3678 4.25,7.4375 4.0288,7.6644 3.8124,7.9061 3.6562,8.1875 3.388,8.6578 3.2094,9.173 3.125,9.7188 3.0843,9.7102 3.0357,9.707 3,9.7188 2.7267,9.8076 2.6658,10.328 2.8438,10.875 c 0.1044,0.321 0.2603,0.576 0.4374,0.719 0.238,0.925 0.7497,1.704 1.4063,2.187 v 0.531 l -0.5313,0.5 -1.0312,0.532 C 2.2834,15.761 1.4344,16.177 0.5938,16.594 0.1279,16.875 -0.04441,17.42 0,17.938 c 0.021682,0.325 -0.10493,0.751 0.21875,0.968 0.3075,0.158 0.69739,0.068 1.0312,0.094 h 1.8125 c 0.1817,-0.238 0.4088,-0.458 0.6875,-0.625 l 0.0312,-0.031 h 0.0313 c 1.411,-0.693 2.8041,-1.4 4.2187,-2.094 l 1.625,-0.781 c -0.0921,-0.046 -0.1892,-0.08 -0.2812,-0.125 l -1.0312,-0.532 -0.5313,-0.5 v -0.531 c 0.4155,-0.305 0.7667,-0.747 1.0313,-1.25 -0.3565,-0.576 -0.6309,-1.238 -0.8126,-1.937 -0.3019,-0.31 -0.5849,-0.6542 -0.75,-1.1565 -0.1699,-0.5171 -0.2184,-1.0514 -0.1562,-1.5 0.0551,-0.3974 0.246,-0.7736 0.625,-0.9687 C 7.63835,6.8963 7.49315,6.8398 7.37495,6.7812 7.31535,6.752 7.27995,6.7123 7.21875,6.6875 7.17525,6.6698 7.13795,6.6716 7.09375,6.6562 6.96085,6.6102 6.82565,6.5548 6.68745,6.5312 6.67685,6.5296 6.66685,6.533 6.65615,6.5312 6.52645,6.5108 6.38285,6.4985 6.24995,6.5 Z"
       transform="translate(0,1028.4)"
       fill="#007733"
       id="path2" />
    <path
       d="m 13.499,1030.6 c -0.354,0 -0.703,0 -1.038,0.1 -0.195,0 -0.385,0.1 -0.573,0.2 -0.073,0 -0.147,0 -0.219,0.1 h -0.082 c -0.177,0.1 -0.351,0.2 -0.519,0.3 h -0.082 c -0.049,0.1 -0.088,0.1 -0.136,0.2 -0.137,0.1 -0.281,0.1 -0.41,0.3 -0.117,0.1 -0.218,0.2 -0.328,0.3 -0.3711,0.4 -0.6932,0.8 -0.9555,1.3 -0.4505,0.7 -0.7868,1.6 -0.9287,2.5 H 8.0366 c -0.459,0.2 -0.572,1 -0.2731,1.9 0.1754,0.6 0.4673,1 0.7648,1.2 0.3996,1.6 1.2461,2.9 2.3487,3.7 v 0.9 l -0.874,0.8 -1.7479,0.9 c -1.4135,0.7 -2.8216,1.4 -4.2335,2.1 -0.7825,0.4 -1.0852,1.4 -1.0106,2.2 0.0364,0.6 -0.1613,1.3 0.3823,1.6 0.5165,0.3 1.1327,0.1 1.6935,0.1 h 4.9162 6.992 c 2.069,0 4.132,0.1 6.201,0 0.671,0 0.857,-0.7 0.792,-1.3 0.012,-0.8 0.06,-1.7 -0.574,-2.3 -0.517,-0.5 -1.253,-0.7 -1.884,-1.1 -0.927,-0.4 -1.86,-0.9 -2.786,-1.3 l -1.749,-0.9 -0.874,-0.8 v -0.9 c 1.103,-0.8 1.95,-2.1 2.349,-3.7 0.298,-0.2 0.59,-0.6 0.765,-1.2 0.299,-0.9 0.186,-1.7 -0.273,-1.9 h -0.191 c -0.142,-0.9 -0.478,-1.8 -0.929,-2.5 -0.262,-0.5 -0.584,-0.9 -0.956,-1.3 -0.11,-0.1 -0.21,-0.2 -0.328,-0.3 h -0.027 c -0.342,-0.3 -0.723,-0.6 -1.12,-0.8 -0.1,0 -0.197,-0.1 -0.3,-0.1 -0.073,0 -0.144,-0.1 -0.219,-0.1 -0.223,-0.1 -0.45,-0.1 -0.683,-0.2 h -0.054 z"
       fill="#11aa44"
       id="path4" />
  </g>
</svg>
