<?xml version="1.0" encoding="UTF-8"?>
<svg width="512" height="512" viewBox="0 0 512 512" xmlns="http://www.w3.org/2000/svg">
  <path fill="currentColor" stroke="none" d="M 259.24942 23.021637 C 128.221512 21.251862 21.253086 128.220276 23.022827 259.24823 C 24.770166 384.910919 127.090225 487.230988 252.75293 488.978302 C 383.803253 490.770447 490.749237 383.802032 488.957123 252.774109 C 487.232178 127.08902 384.912109 24.768951 259.24942 23.021637 Z M 400.850983 389.570496 C 399.947693 390.547302 398.656952 391.072144 397.328308 391.002899 C 395.999664 390.933685 394.770477 390.277466 393.973633 389.212036 C 383.955017 376.104187 371.685822 364.881744 357.73877 356.068665 C 329.221344 337.766418 293.08728 327.685608 256.00116 327.685608 C 218.915054 327.685608 182.781006 337.766418 154.263565 356.068665 C 140.317032 364.877808 128.047821 376.096497 118.028717 389.200867 C 117.231857 390.266296 116.002693 390.922485 114.674026 390.99173 C 113.345375 391.060944 112.054665 390.536102 111.151367 389.559265 C 78.284332 354.078979 59.666458 307.717773 58.86565 259.360229 C 57.039909 150.364441 146.478943 59.13327 255.519547 58.864441 C 364.56012 58.595642 453.136688 147.13858 453.136688 255.999969 C 453.174255 305.523621 434.498657 353.232788 400.850983 389.570496 Z"/>
  <path fill="currentColor" stroke="none" d="M 256 144 C 236.279999 144 218.449997 151.390015 205.779999 164.820007 C 193.110001 178.25 186.779999 196.820007 188.210007 216.75 C 191.110001 256 221.520004 288 256 288 C 290.480011 288 320.829987 256 323.790009 216.76001 C 325.269989 197.02002 318.98999 178.619995 306.109985 164.940002 C 293.390015 151.440002 275.589996 144 256 144 Z"/>
</svg>
