<?xml version="1.0" encoding="UTF-8" standalone="no"?>
<!-- Uploaded to: SVG Repo, www.svgrepo.com, Generator: SVG Repo Mixer Tools -->

<svg
   width="800px"
   height="800px"
   viewBox="0 0 24 24"
   version="1.1"
   id="svg8"
   sodipodi:docname="person.svg"
   inkscape:version="1.1 (c68e22c387, 2021-05-23)"
   xmlns:inkscape="http://www.inkscape.org/namespaces/inkscape"
   xmlns:sodipodi="http://sodipodi.sourceforge.net/DTD/sodipodi-0.dtd"
   xmlns="http://www.w3.org/2000/svg"
   xmlns:svg="http://www.w3.org/2000/svg">
  <defs
     id="defs12" />
  <sodipodi:namedview
     id="namedview10"
     pagecolor="#ffffff"
     bordercolor="#666666"
     borderopacity="1.0"
     inkscape:pageshadow="2"
     inkscape:pageopacity="0.0"
     inkscape:pagecheckerboard="0"
     showgrid="false"
     inkscape:zoom="0.52"
     inkscape:cx="135.57692"
     inkscape:cy="354.80769"
     inkscape:current-layer="g6" />
  <g
     transform="translate(0,-1028.4)"
     id="g6">
    <path
       d="M 12,0 C 11.595,0 11.195,0.060326 10.812,0.15625 10.588,0.21303 10.372,0.2876 10.156,0.375 10.073,0.40901 9.9881,0.43034 9.9062,0.46875 9.8722,0.48458 9.8462,0.51469 9.8125,0.53125 9.6093,0.63183 9.4104,0.74829 9.2188,0.875 9.1918,0.8924 9.1517,0.88839 9.125,0.90625 9.0687,0.94489 9.024,0.99044 8.9688,1.0312 8.8119,1.1438 8.6472,1.2472 8.5,1.375 8.3658,1.4957 8.2506,1.6474 8.125,1.7812 7.6999,2.2171 7.3314,2.6783 7.0312,3.2188 6.5158,4.1222 6.131,5.1393 5.9688,6.1875 5.8905,6.171 5.8187,6.1651 5.75,6.1875 5.2249,6.3585 5.0955,7.356 5.4375,8.4062 5.6382,9.0225 5.9721,9.5077 6.3125,9.7812 6.7698,11.559 7.7382,13.041 9,13.969 V 15 L 8,16 6,17 C 4.3827,17.801 2.7716,18.605 1.1562,19.406 0.26107,19.946 -0.0853,21.006 0,22 0.041664,22.626 -0.18448,23.427 0.4375,23.844 1.0284,24.148 1.7334,23.95 2.375,24 4.2516,23.999 6.1234,24 8,24 c 2.669,0.001 5.331,0 8,0 2.367,0 4.727,0.004 7.094,0 0.768,-0.054 0.981,-0.865 0.906,-1.5 0.014,-0.932 0.069,-1.976 -0.656,-2.688 C 22.752,19.21 21.91,18.972 21.188,18.562 20.127,18.037 19.06,17.525 18,17 l -2,-1 -1,-1 v -1.031 c 1.262,-0.928 2.23,-2.41 2.688,-4.1878 0.34,-0.2736 0.674,-0.7588 0.874,-1.375 C 18.904,7.356 18.775,6.3585 18.25,6.1875 18.181,6.1651 18.11,6.171 18.031,6.1875 17.869,5.1393 17.484,4.1222 16.969,3.2188 16.669,2.6783 16.3,2.2171 15.875,1.7812 15.749,1.6474 15.634,1.4957 15.5,1.375 15.494,1.3695 15.475,1.3805 15.469,1.375 15.077,1.0251 14.642,0.75606 14.188,0.53125 14.073,0.47503 13.961,0.42271 13.844,0.375 13.76,0.34099 13.679,0.31074 13.594,0.28125 13.339,0.19277 13.078,0.10769 12.812,0.0625 12.792,0.059095 12.77,0.065648 12.75,0.0625 12.501,0.023356 12.255,-0.00275 12,0 Z"
       transform="translate(0,1028.4)"
       fill="#11aa44"
       id="path2" />
    <path
       d="m 0,1051.4 c 0.026419,0.3 0.12651,0.6 0.4375,0.8 0.5909,0.3 1.2959,0.1 1.9375,0.2 H 8 h 8 7.094 c 0.576,-0.1 0.842,-0.5 0.906,-1 z"
       fill="#118844"
       id="path4" />
  </g>
</svg>
