<svg width="528" height="448" viewBox="0 0 528 448" fill="none" xmlns="http://www.w3.org/2000/svg">
    <path d="M461.66 214.1H434C433.47 214.1 432.961 213.889 432.586 213.514C432.211 213.139 432 212.63 432 212.1V134.86C432 124.554 427.906 114.669 420.618 107.382C413.331 100.094 403.446 96 393.14 96H315.9C315.37 96 314.861 95.7893 314.486 95.4142C314.111 95.0391 313.9 94.5304 313.9 94V66.34C313.9 39.2 292.4 16.48 265.26 16.01C258.684 15.8945 252.152 17.0896 246.043 19.5257C239.934 21.9618 234.372 25.5901 229.68 30.1988C224.989 34.8075 221.262 40.3044 218.718 46.3687C216.173 52.4331 214.862 58.9434 214.86 65.52V94C214.86 94.5304 214.649 95.0391 214.274 95.4142C213.899 95.7893 213.39 96 212.86 96H135.62C125.122 96.0317 115.063 100.216 107.639 107.639C100.216 115.063 96.0317 125.122 96 135.62V206C96 206.53 96.2107 207.039 96.5858 207.414C96.9609 207.789 97.4696 208 98 208H124.91C154.28 208 178.59 233.48 179 262.85C179.42 292.72 155.49 320 125.71 320H98C97.4696 320 96.9609 320.211 96.5858 320.586C96.2107 320.961 96 321.47 96 322V392.38C96.0317 402.878 100.216 412.937 107.639 420.361C115.063 427.784 125.122 431.968 135.62 432H206C206.53 432 207.039 431.789 207.414 431.414C207.789 431.039 208 430.53 208 430V409.07C208 378.79 232.75 352.72 263 352.01C293.1 351.31 320 372.32 320 402.29V430C320 430.53 320.211 431.039 320.586 431.414C320.961 431.789 321.47 432 322 432H393.14C403.446 432 413.331 427.906 420.618 420.618C427.906 413.331 432 403.446 432 393.14V315.14C432 314.61 432.211 314.101 432.586 313.726C432.961 313.351 433.47 313.14 434 313.14H462.48C490.11 313.14 512 290.47 512 262.74C512 235.01 488.8 214.1 461.66 214.1V214.1Z" stroke="currentColor" stroke-width="32" stroke-linecap="round" stroke-linejoin="round"/>
</svg>