<?xml version="1.0" encoding="iso-8859-1"?>
<!-- Uploaded to: SVG Repo, www.svgrepo.com, Generator: SVG Repo Mixer Tools -->
<svg height="800px" width="800px" version="1.1" id="Layer_1" xmlns="http://www.w3.org/2000/svg" xmlns:xlink="http://www.w3.org/1999/xlink" 
	 viewBox="0 0 512.002 512.002" xml:space="preserve">
<path style="fill:#1EB615;" d="M478.54,338.879c-19.344,0-19.996,13.029-38.304,18.442c-3.225,0.953-6.683,1.225-10.209,1.225
	c-24.599,0-44.525-19.943-44.527-44.539c0.002-24.598,19.928-44.541,44.527-44.541c3.523,0,6.984,0.27,10.209,1.223
	c18.31,5.415,18.961,18.445,38.304,18.442c14.756,0.002,22.458-10.755,23.01-23.206v-95.386c0-24.304-19.703-44.008-44.009-44.008
	h-93.304c-13.051,0-24.651-7.721-24.65-23.045c-0.001-19.343,13.029-19.994,18.442-38.304c0.954-3.225,1.224-6.683,1.224-10.209
	c0-24.598-19.944-44.524-44.541-44.526c-24.596,0.002-44.539,19.928-44.539,44.526c0,3.524,0.271,6.984,1.224,10.209
	c5.415,18.308,18.442,18.961,18.442,38.304c0,15.324-9.336,23.045-24.65,23.045h-94.648c-24.306,0-44.009,19.704-44.009,44.008
	v93.977h-0.001c0,13.051-7.721,24.651-23.045,24.649c-19.344,0.002-19.994-13.029-38.304-18.442
	c-3.225-0.953-6.683-1.223-10.209-1.223c-24.599,0-44.524,19.943-44.526,44.541c0.002,24.596,19.927,44.539,44.526,44.539
	c3.525,0,6.984-0.27,10.209-1.223c18.309-5.415,18.96-18.445,38.304-18.445c15.324,0,23.045,9.337,23.045,24.651h0.001v93.977
	c0,24.306,19.703,44.008,44.009,44.008h94.648c15.314,0,24.65-7.721,24.65-23.045c0-19.343-13.029-19.994-18.442-38.304
	c-0.953-3.225-1.224-6.682-1.224-10.209c0-24.598,19.943-44.524,44.539-44.526c24.597,0.002,44.541,19.928,44.541,44.526
	c0,3.524-0.27,6.984-1.224,10.209c-5.415,18.31-18.443,18.961-18.442,38.304c-0.001,15.326,11.599,23.046,24.65,23.046h93.304
	c24.306,0,44.009-19.702,44.009-44.008v-95.1C501.183,347.785,493.493,338.879,478.54,338.879z"/>
<path d="M165.395,272.41c-5.77,0-10.449-4.678-10.449-10.449v-65.768c0-22.744,18.504-41.247,41.248-41.247h27.756
	c5.771,0,10.449,4.678,10.449,10.449s-4.678,10.449-10.449,10.449h-27.756c-11.221,0-20.35,9.128-20.35,20.349v65.768
	C175.844,267.732,171.165,272.41,165.395,272.41z"/>
<path d="M257.754,175.843h-0.245c-5.77,0-10.449-4.678-10.449-10.449s4.679-10.449,10.449-10.449h0.245
	c5.77,0,10.449,4.678,10.449,10.449C268.203,171.165,263.524,175.843,257.754,175.843z"/>
<path d="M457.541,512h-93.304c-9.19,0-17.706-2.933-23.98-8.258c-7.17-6.086-11.12-15.048-11.119-25.236
	c-0.001-14.63,6.141-22.048,11.076-28.01c3.236-3.909,6.03-7.285,7.796-13.257c0.543-1.833,0.795-4.135,0.795-7.245
	c0-18.789-15.294-34.076-34.093-34.077c-18.796,0.001-34.089,15.289-34.089,34.077c0,3.109,0.253,5.411,0.795,7.246
	c1.765,5.971,4.56,9.347,7.796,13.257c4.935,5.961,11.076,13.38,11.076,28.01c0,20.66-13.449,33.494-35.099,33.494h-94.648
	c-30.028,0-54.458-24.43-54.458-54.457v-93.977c-0.001-12.481-6.055-14.202-12.597-14.202c-7.103,0-9.637,2.097-14.685,6.277
	c-4.715,3.903-10.581,8.76-20.656,11.739c-3.813,1.127-7.997,1.652-13.172,1.652c-30.311,0-54.973-24.667-54.975-54.987
	c0.002-30.323,24.664-54.991,54.975-54.991c5.174,0,9.359,0.525,13.17,1.651c10.077,2.98,15.943,7.837,20.658,11.739
	c5.047,4.179,7.581,6.276,14.684,6.275c11.371,0,12.597-9.931,12.597-14.2l0.001-93.977c0-30.028,24.43-54.457,54.458-54.457h94.648
	c12.48,0,14.201-6.054,14.201-12.596c0-7.103-2.098-9.637-6.277-14.686c-3.902-4.715-8.758-10.581-11.737-20.654
	c-1.127-3.815-1.652-8-1.652-13.172c0-30.311,24.668-54.973,54.987-54.975c30.323,0.002,54.991,24.664,54.991,54.975
	c0,5.176-0.526,9.361-1.653,13.173c-2.979,10.074-7.836,15.941-11.737,20.656c-4.179,5.048-6.276,7.581-6.276,14.684
	c0,4.122,1.225,7.165,3.743,9.303c2.503,2.124,6.216,3.294,10.458,3.294h93.304c30.028,0,54.458,24.429,54.458,54.457v95.384
	c0,0.155-0.003,0.308-0.01,0.462c-0.865,19.544-14.617,33.193-33.444,33.193c-14.635,0.001-22.054-6.141-28.017-11.076
	c-3.908-3.236-7.284-6.031-13.255-7.797c-1.831-0.541-4.134-0.793-7.245-0.793c-18.789,0-34.076,15.294-34.078,34.093
	c0.002,18.796,15.289,34.089,34.078,34.089c3.106,0,5.409-0.253,7.247-0.796c5.968-1.765,9.345-4.56,13.253-7.795
	c5.962-4.935,13.381-11.076,28.013-11.076c20.115,0,32.935,12.933,33.456,33.751c0.002,0.087,0.003,0.174,0.003,0.261v95.1
	C511.999,487.57,487.569,512,457.541,512z M314.712,375.018c30.323,0.002,54.991,24.664,54.991,54.975
	c0,5.176-0.526,9.362-1.653,13.173c-2.979,10.074-7.836,15.941-11.737,20.656c-4.179,5.048-6.276,7.581-6.276,14.684
	c0,4.123,1.225,7.165,3.743,9.303c2.503,2.124,6.216,3.294,10.458,3.294h93.304c18.505,0,33.56-15.055,33.56-33.559v-94.959
	c-0.33-11.646-6.231-13.256-12.561-13.256c-7.104,0-9.638,2.097-14.687,6.277c-4.714,3.902-10.581,8.758-20.654,11.737
	c-3.817,1.128-8.002,1.653-13.171,1.653c-30.311,0-54.974-24.667-54.976-54.987c0.002-30.323,24.665-54.991,54.976-54.991
	c5.174,0,9.359,0.525,13.17,1.651c10.076,2.98,15.944,7.836,20.658,11.738c5.048,4.18,7.582,6.276,14.685,6.276
	c10.284,0,12.298-8.052,12.562-13.01v-95.133c0-18.505-15.055-33.559-33.56-33.559h-93.304c-9.19,0-17.706-2.933-23.98-8.258
	c-7.17-6.085-11.12-15.048-11.119-25.236c-0.001-14.63,6.141-22.048,11.076-28.01c3.236-3.909,6.03-7.285,7.796-13.257
	c0.543-1.833,0.795-4.135,0.795-7.245c0-18.788-15.294-34.076-34.093-34.077c-18.796,0.001-34.089,15.289-34.089,34.077
	c0,3.109,0.253,5.412,0.795,7.246c1.765,5.97,4.56,9.346,7.796,13.255c4.935,5.961,11.076,13.381,11.076,28.012
	c0,20.66-13.449,33.494-35.099,33.494h-94.648c-18.505,0-33.56,15.055-33.56,33.559v93.977
	c-0.002,20.665-13.774,35.098-33.491,35.098c-14.635,0.002-22.054-6.14-28.016-11.076c-3.908-3.236-7.285-6.031-13.256-7.796
	c-1.831-0.541-4.134-0.794-7.245-0.794c-18.788,0-34.075,15.294-34.077,34.093c0.002,18.796,15.289,34.089,34.077,34.089
	c3.112,0,5.415-0.252,7.247-0.794c5.97-1.765,9.345-4.56,13.255-7.796c5.961-4.935,13.38-11.078,28.012-11.078
	c20.66,0,33.494,13.45,33.494,35.1l0.001,93.977c0,18.504,15.055,33.559,33.56,33.559h94.648c12.48,0,14.201-6.054,14.201-12.596
	c0-7.103-2.097-9.637-6.276-14.684c-3.902-4.715-8.759-10.582-11.738-20.658c-1.127-3.814-1.652-7.999-1.652-13.171
	C259.724,399.682,284.392,375.021,314.712,375.018z"/>
</svg>