<?xml version="1.0" encoding="utf-8"?>
<!-- Uploaded to: SVG Repo, www.svgrepo.com, Generator: SVG Repo Mixer Tools -->
<svg width="800px" height="800px" viewBox="0 0 1024 1024" class="icon"  version="1.1" xmlns="http://www.w3.org/2000/svg"><path d="M277.333333 277.333333c0-70.4 57.6-128 128-128h213.333334c70.4 0 128 57.6 128 128h85.333333c0-117.333333-96-213.333333-213.333333-213.333333H405.333333C288 64 192 160 192 277.333333v238.933334h85.333333V277.333333z" fill="#1565C0" /><path d="M98.133333 469.333333l136.533334 179.2 136.533333-179.2z" fill="#1565C0" /><path d="M746.666667 746.666667c0 70.4-57.6 128-128 128H405.333333c-70.4 0-128-57.6-128-128H192c0 117.333333 96 213.333333 213.333333 213.333333h213.333334c117.333333 0 213.333333-96 213.333333-213.333333V490.666667h-85.333333v256z" fill="#1565C0" /><path d="M652.8 554.666667l136.533333-179.2 136.533334 179.2z" fill="#1565C0" /></svg>