<?xml version="1.0" encoding="utf-8"?>
<!-- Uploaded to: SVG Repo, www.svgrepo.com, Generator: SVG Repo Mixer Tools -->
<svg width="800px" height="800px" viewBox="0 0 1024 1024" class="icon"  version="1.1" xmlns="http://www.w3.org/2000/svg"><path d="M825.6 253.866667l-66.133333 53.333333c46.933333 57.6 72.533333 130.133333 72.533333 202.666667 0 177.066667-142.933333 320-320 320-19.2 0-40.533333-2.133333-59.733333-6.4l-14.933334 83.2c25.6 4.266667 51.2 6.4 74.666667 6.4 224 0 405.333333-181.333333 405.333333-405.333334 0-89.6-32-181.333333-91.733333-253.866666z" fill="#FF6F00" /><path d="M661.333333 170.666667l253.866667 34.133333-209.066667 209.066667z" fill="#FF6F02" /><path d="M512 106.666667C288 106.666667 106.666667 288 106.666667 512c0 98.133333 34.133333 192 98.133333 264.533333l64-55.466666C219.733333 663.466667 192 588.8 192 512c0-177.066667 142.933333-320 320-320 19.2 0 40.533333 2.133333 59.733333 6.4l14.933334-83.2C563.2 108.8 537.6 106.666667 512 106.666667z" fill="#FF6F00" /><path d="M362.666667 853.333333L108.8 819.2l209.066667-209.066667z" fill="#FF6F02" /></svg>