<svg width="460px" height="460px" viewBox="0 0 460 460" version="1.1" xmlns="http://www.w3.org/2000/svg" xmlns:xlink="http://www.w3.org/1999/xlink"><g stroke="none" stroke-width="1" fill="none" fill-rule="evenodd"><g transform="translate(56.440081, 56.222063)" stroke="currentColor"><path d="M51.8355914,263.237609 C60.9709503,263.260732 69.2414786,266.967806 75.2384778,272.952922 C81.2358437,278.938404 84.9594026,287.202208 85.0001926,296.338927 C84.9725106,305.421743 81.2764727,313.639618 75.3166433,319.590173 C69.3466112,325.550914 61.1050301,329.236566 52.0036901,329.237536 C42.9023476,329.238505 34.6599806,325.554606 28.6886687,319.595137 C22.7173419,313.635654 19.017079,305.400589 18.9999666,296.299365 C18.9829135,287.198016 22.6522367,278.949119 28.6011501,272.967262 C34.5402452,266.995277 42.7514145,263.282855 51.8355914,263.237609 Z" stroke-width="38" fill-rule="nonzero"></path><path d="M15.5639188,0 C189.695661,18.9886079 327.916779,157.508264 346.44594,331.777403" stroke-width="40" stroke-linecap="round"></path><path d="M16.5639188,121.777403 C126.781388,133.796328 214.269067,221.472967 225.997183,331.777403" stroke-width="40" stroke-linecap="round"></path></g></g></svg>