<svg width="335" height="335" xmlns="http://www.w3.org/2000/svg"><g stroke="currentColor" stroke-width="32" fill="none" fill-rule="evenodd"><path d="m44.552 261.781-.343.004c-15.416.306-27.798 12.912-27.77 28.388.03 15.632 12.712 28.288 28.344 28.287 15.476-.002 28.057-12.41 28.332-27.825l.004-.385-.004-.396c-.291-15.217-12.463-27.552-27.644-28.058l-.426-.011-.493-.004Z" fill="currentColor" fill-rule="nonzero"/><path d="M16 138.825v15.529c0 .77.577 1.419 1.343 1.508 42.493 5.12 80.224 21.793 109.3 50.354l1.073 1.063c29.211 29.203 46.174 67.26 51.334 110.326a1.577 1.577 0 0 0 1.567 1.395h15.558a2 2 0 0 0 1.98-2.28l-.111-.786c-13.694-91.506-87.452-165.28-178.972-178.977l-.792-.112a2 2 0 0 0-2.28 1.98ZM16 18.187v15.485a2 2 0 0 0 1.827 1.992l1.646.143C169.384 49.949 284.872 165.515 299.004 315.51l.143 1.662A2 2 0 0 0 301.14 319h15.672a2 2 0 0 0 1.992-2.178l-.242-2.717C303.219 157.046 178.022 31.79 20.908 16.439l-2.73-.244A2 2 0 0 0 16 18.187Z"/></g></svg>