<?xml version="1.0" encoding="utf-8"?>
<!-- Uploaded to: SVG Repo, www.svgrepo.com, Generator: SVG Repo Mixer Tools -->
<svg width="800px" height="800px" viewBox="0 0 1024 1024" class="icon"  version="1.1" xmlns="http://www.w3.org/2000/svg"><path d="M622.4 682.453333l60.330667-60.309333 256.405333 256.405333-60.330667 60.309334z" fill="#616161" /><path d="M426.666667 426.666667m-341.333334 0a341.333333 341.333333 0 1 0 682.666667 0 341.333333 341.333333 0 1 0-682.666667 0Z" fill="#616161" /><path d="M692.266667 753.92l60.309333-60.330667 185.514667 185.514667-60.330667 60.330667z" fill="#37474F" /><path d="M426.666667 426.666667m-277.333334 0a277.333333 277.333333 0 1 0 554.666667 0 277.333333 277.333333 0 1 0-554.666667 0Z" fill="#64B5F6" /><path d="M573.866667 302.933333c-36.266667-42.666667-89.6-68.266667-147.2-68.266666s-110.933333 25.6-147.2 68.266666c-8.533333 8.533333-6.4 23.466667 2.133333 29.866667 8.533333 8.533333 23.466667 6.4 29.866667-2.133333C341.333333 296.533333 381.866667 277.333333 426.666667 277.333333s85.333333 19.2 115.2 53.333334c4.266667 4.266667 10.666667 8.533333 17.066666 8.533333 4.266667 0 10.666667-2.133333 12.8-4.266667 8.533333-8.533333 8.533333-23.466667 2.133334-32z" fill="#BBDEFB" /></svg>