<?xml version="1.0" encoding="UTF-8"?>
<svg width="444px" height="460px" viewBox="0 0 444 460" version="1.1" xmlns="http://www.w3.org/2000/svg" xmlns:xlink="http://www.w3.org/1999/xlink">
    <g stroke="none" stroke-width="1" fill="none" fill-rule="evenodd" stroke-linecap="round" stroke-linejoin="round">
        <path d="M228.29,166.31 C201.384283,163.652748 175.711119,178.189611 164.148206,202.628874 C152.585293,227.068138 157.62725,256.137201 176.745025,275.254975 C195.862799,294.37275 224.931862,299.414707 249.371126,287.851794 C273.810389,276.288881 288.347252,250.615717 285.69,223.71 C282.641749,193.360931 258.639069,169.358251 228.29,166.31 L228.29,166.31 Z M427.295,293.125 C428.086107,297.564887 427.282266,302.141508 425.025535,306.04607 L389.232466,367.97469 C386.985676,371.862053 383.418781,374.81433 379.18,376.295 C374.860979,377.803699 370.246929,378.272089 365.712832,377.662103 L336.901252,373.785994 C316.258184,371.00882 296.367107,382.61094 288.621985,401.946453 L278.067143,428.296365 C276.347784,432.588704 273.618168,436.402837 270.11,439.415 C266.664388,442.373452 262.273129,444 257.731689,444 L186.175376,444 C181.686775,444 177.339323,442.431216 173.885,439.565 C170.375201,436.652754 167.63265,432.924675 165.897355,428.70702 L154.737364,401.582532 C146.832183,382.368896 126.897557,370.968685 106.328873,373.89869 L78.2481219,377.898788 C73.7219343,378.543543 69.1071495,378.09476 64.79,376.59 C60.5514943,375.112652 56.9844706,372.162306 54.7383582,368.276117 L18.9444651,306.34607 C16.6877337,302.441508 15.8838929,297.864887 16.675,293.425 C17.479534,288.909758 19.3724026,284.65863 22.1897483,281.039618 L39.8681429,258.330895 C52.7852891,241.738218 52.778239,218.490855 39.8510311,201.906016 L22.1176418,179.155131 C19.3157696,175.560495 17.4429984,171.330725 16.665,166.84 C15.8993812,162.420732 16.709389,157.87293 18.9537511,153.989769 L54.7675339,92.0253095 C57.0143242,88.1379474 60.5812188,85.1856702 64.82,83.705 C69.1399674,82.1959703 73.7532146,81.7192136 78.2904865,82.3128907 L107.615814,86.1499486 C128.170942,88.839474 147.925467,77.2195013 155.56215,57.9470371 L165.957212,31.7133384 C167.660175,27.4156234 170.382647,23.5964633 173.89,20.585 C177.335612,17.6265481 181.726871,16 186.268311,16 L257.824624,16 C262.313225,16 266.660677,17.5687841 270.115,20.435 C273.624102,23.3466683 276.360778,27.0789954 278.082508,31.3012287 L288.991429,58.053395 C296.868747,77.3711009 316.848609,88.8820729 337.511657,86.007291 L365.748717,82.0787615 C370.277888,81.4486329 374.891986,81.904939 379.21,83.41 C383.448506,84.8873483 387.015529,87.837694 389.261642,91.7238833 L425.055535,153.65393 C427.312266,157.558492 428.116107,162.135113 427.325,166.575 C426.518927,171.098876 424.693104,175.379748 421.986048,179.092841 L401.939911,206.588825 C390.134474,222.781577 390.962192,244.954539 403.942045,260.222054 L421.546789,280.929585 C424.509053,284.41394 426.492744,288.622543 427.295,293.125 Z" stroke="currentColor" stroke-width="32"></path>
    </g>
</svg>