<?xml version="1.0" encoding="UTF-8"?>
<svg width="512px" height="512px" viewBox="0 0 512 512" version="1.1" xmlns="http://www.w3.org/2000/svg" xmlns:xlink="http://www.w3.org/1999/xlink">
    <g stroke="none" stroke-width="1" fill="none" fill-rule="evenodd">
        <g transform="translate(50.378500, 42.000000)" stroke="currentColor" stroke-width="32">
            <path d="M211.9115,150.31 C185.005783,147.652748 159.332619,162.189611 147.769706,186.628874 C136.206793,211.068138 141.24875,240.137201 160.366525,259.254975 C179.484299,278.37275 208.553362,283.414707 232.992626,271.851794 C257.431889,260.288881 271.968752,234.615717 269.3115,207.71 C266.263249,177.360931 242.260569,153.358251 211.9115,150.31 L211.9115,150.31 Z M410.9165,277.125 C411.707607,281.564887 410.903766,286.141508 408.647035,290.04607 L372.853966,351.97469 C370.607176,355.862053 367.040281,358.81433 362.8015,360.295 C358.482479,361.803699 353.868429,362.272089 349.334332,361.662103 L320.522752,357.785994 C299.879684,355.00882 279.988607,366.61094 272.243485,385.946453 L261.688643,412.296365 C259.969284,416.588704 257.239668,420.402837 253.7315,423.415 C250.285888,426.373452 245.894629,428 241.353189,428 L169.796876,428 C165.308275,428 160.960823,426.431216 157.5065,423.565 C153.996701,420.652754 151.25415,416.924675 149.518855,412.70702 L138.358864,385.582532 C130.453683,366.368896 110.519057,354.968685 89.9503733,357.89869 L61.8696222,361.898788 C57.3434346,362.543543 52.7286498,362.09476 48.4115003,360.59 C44.1729946,359.112652 40.6059709,356.162306 38.3598585,352.276117 L2.56596537,290.34607 C0.309233973,286.441508 -0.494606827,281.864887 0.296500273,277.425 C1.10103427,272.909758 2.99390287,268.65863 5.81124857,265.039618 L23.4896432,242.330895 C36.4067894,225.738218 36.3997393,202.490855 23.4725314,185.906016 L5.73914207,163.155131 C2.93726987,159.560495 1.06449867,155.330725 0.286500273,150.84 C-0.479118527,146.420732 0.330889273,141.87293 2.57525137,137.989769 L38.3890342,76.0253095 C40.6358245,72.1379474 44.2027191,69.1856702 48.4415003,67.705 C52.7614677,66.1959703 57.3747149,65.7192136 61.9119868,66.3128907 L91.2373143,70.1499486 C111.792442,72.839474 131.546967,61.2195013 139.18365,41.9470371 L149.578712,15.7133384 C151.281675,11.4156234 154.004147,7.5964633 157.5115,4.585 C160.957112,1.6265481 165.348371,0 169.889811,0 L241.446124,0 C245.934725,0 250.282177,1.5687841 253.7365,4.435 C257.245602,7.3466683 259.982278,11.0789954 261.704008,15.3012287 L272.612929,42.053395 C280.490247,61.3711009 300.470109,72.8820729 321.133157,70.007291 L349.370217,66.0787615 C353.899388,65.4486329 358.513486,65.904939 362.8315,67.41 C367.070006,68.8873483 370.637029,71.837694 372.883142,75.7238833 L408.677035,137.65393 C410.933766,141.558492 411.737607,146.135113 410.9465,150.575 C410.140427,155.098876 408.314604,159.379748 405.607548,163.092841 L385.561411,190.588825 C373.755974,206.781577 374.583692,228.954539 387.563545,244.222054 L405.168289,264.929585 C408.130553,268.41394 410.114244,272.622543 410.9165,277.125 Z"></path>
        </g>
    </g>
</svg>