<?xml version="1.0" encoding="iso-8859-1"?>
<!-- Uploaded to: SVG Repo, www.svgrepo.com, Generator: SVG Repo Mixer Tools -->
<svg height="800px" width="800px" version="1.1" id="Layer_1" xmlns="http://www.w3.org/2000/svg" xmlns:xlink="http://www.w3.org/1999/xlink" 
	 viewBox="0 0 512.006 512.006" xml:space="preserve">
<path style="fill:#D83249;" d="M23.151,149.616l115.072,115.072c7.901,7.901,20.713,7.901,28.614,0s7.901-20.713,0-28.614
	l-44.568-44.568h316.313v-0.001c31.036,0,56.198-25.16,56.198-56.198c0-31.036-25.16-56.198-56.198-56.198H122.269l44.568-44.568
	c3.951-3.951,5.927-9.129,5.927-14.308s-1.976-10.357-5.927-14.308c-7.901-7.901-20.713-7.901-28.614,0L23.151,121.002
	C15.25,128.903,15.25,141.715,23.151,149.616z"/>
<path style="fill:#FF4F59;" d="M23.151,149.616l115.072,115.072c7.901,7.901,20.713,7.901,28.614,0s7.901-20.713,0-28.614
	l-44.568-44.568h139.247V79.111H122.269l44.568-44.568c3.951-3.951,5.927-9.129,5.927-14.308s-1.976-10.357-5.927-14.308
	c-7.901-7.901-20.713-7.901-28.614,0L23.151,121.002C15.25,128.903,15.25,141.715,23.151,149.616z"/>
<path style="fill:#CFCDCF;" d="M488.855,362.39L373.783,247.318c-7.901-7.901-20.713-7.901-28.614,0
	c-7.901,7.901-7.901,20.713,0,28.614l44.567,44.568H73.423v0.001c-31.036,0-56.198,25.16-56.198,56.198
	c0,31.036,25.16,56.198,56.198,56.198h316.314l-44.568,44.568c-3.951,3.951-5.927,9.129-5.927,14.308
	c0,5.179,1.976,10.357,5.927,14.308c7.901,7.901,20.713,7.901,28.614,0l115.072-115.072
	C496.757,383.103,496.757,370.291,488.855,362.39z"/>
<path style="fill:#B1B0BC;" d="M488.855,362.39L373.783,247.318c-7.901-7.901-20.713-7.901-28.614,0
	c-7.901,7.901-7.901,20.713,0,28.614l44.567,44.568H261.518v112.395h128.218l-44.568,44.568c-3.951,3.951-5.927,9.129-5.927,14.308
	c0,5.179,1.976,10.357,5.927,14.308c7.901,7.901,20.713,7.901,28.614,0l115.072-115.072
	C496.757,383.103,496.757,370.291,488.855,362.39z"/>
</svg>