<?xml version="1.0" encoding="utf-8"?><!-- Uploaded to: SVG Repo, www.svgrepo.com, Generator: SVG Repo Mixer Tools -->
<svg width="800px" height="800px" viewBox="0 0 48 48" xmlns="http://www.w3.org/2000/svg"><title>70 Basic icons by Xicons.co</title><path d="M46.86,20.06C43.58,11.9,33.13,5,24,5S4.32,12,1.13,20.28a2,2,0,0,0,0,1.44C4.32,30,14.81,37,24,37s19.54-6.9,22.82-15.06A2,2,0,0,0,47,21.2V20.8A2,2,0,0,0,46.86,20.06Z" fill="#e7e9e9"/><circle cx="24" cy="21" r="5" fill="#231f20"/><path d="M24,30a9,9,0,1,1,9-9A9,9,0,0,1,24,30Zm0-14a5,5,0,1,0,5,5A5,5,0,0,0,24,16Z" fill="#4dbe86"/><circle cx="20" cy="18" r="2" fill="#ffffff"/></svg>