<?xml version="1.0" encoding="UTF-8"?>
<svg width="303px" height="329px" viewBox="0 0 303 329" version="1.1" xmlns="http://www.w3.org/2000/svg" xmlns:xlink="http://www.w3.org/1999/xlink">
    <g stroke="none" stroke-width="1" fill="none" fill-rule="evenodd">
        <path d="M151.698361,0.7783203 C167.256816,0.7783203 175.859135,10.2187889 176.029626,26.6402357 L176.03221,27.1399896 L172.990479,128.531025 L262.721545,71.752045 C267.284142,68.710314 272.353694,67.189449 278.437156,67.189449 C290.60408,67.189449 302.264049,76.821597 302.264049,92.537207 C302.264049,102.023414 297.838666,108.559365 288.01938,114.082097 L287.562349,114.33628 L194.789552,166.552663 L287.562349,219.276002 C297.194497,224.852509 302.264049,231.442926 302.264049,241.58203 C302.264049,256.790685 290.60408,266.422833 278.437156,266.422833 C272.549934,266.422833 267.612265,264.998506 263.164687,262.14985 L262.721545,261.860237 L172.990479,204.067347 L176.03221,302.923606 C176.03221,319.653127 167.413972,328.77832 151.698361,328.77832 C136.139907,328.77832 126.046987,319.337852 126.338583,303.408303 L126.350603,302.923606 L129.392334,204.067347 L39.6612671,261.353282 C35.0986705,264.395013 30.0291188,265.915878 23.9456566,265.915878 C12.2856875,265.915878 0.1187633,256.28373 0.1187633,241.075075 C0.1187633,231.091957 5.0335287,224.549176 14.3791443,219.027153 L14.8204634,218.769047 L107.086306,167.059619 L14.8204634,114.843235 C4.6813599,109.773684 0.1187633,102.676311 0.1187633,93.044163 C0.1187633,77.328552 12.2856875,67.696404 24.4526118,67.696404 C30.3459658,67.696404 35.2877886,69.1237 39.2780803,71.978294 L39.6612671,72.259 L129.392334,128.531025 L126.350603,27.1399896 C125.843647,11.424379 135.982751,0.7783203 151.698361,0.7783203 Z" id="Path-path" fill="currentColor" fill-rule="nonzero"></path>
    </g>
</svg>