<?xml version="1.0" encoding="UTF-8"?>
<svg width="254px" height="280px" viewBox="0 0 254 280" version="1.1" xmlns="http://www.w3.org/2000/svg" xmlns:xlink="http://www.w3.org/1999/xlink">
    <g stroke="none" stroke-width="1" fill="none" fill-rule="evenodd">
        <g fill="currentColor" fill-rule="nonzero">
            <path d="M126.756238,280 C136.019194,280 141.381958,274.615385 140.894434,264.825175 L139.919386,163.006993 L230.111324,220.27972 C234.011516,222.727273 236.93666,223.706294 240.349328,223.706294 C247.662188,223.706294 254,217.342657 254,208.531469 C254,202.167832 251.56238,198.741259 245.712092,195.314685 L153.570058,140.48951 L245.712092,86.1538462 C251.56238,82.2377622 254,78.3216783 254,72.4475524 C254,64.1258741 247.662188,57.7622378 240.349328,57.7622378 C236.449136,57.7622378 233.523992,58.7412587 230.111324,60.6993007 L139.919386,117.482517 L140.894434,15.1748252 C141.381958,5.87412587 136.019194,0 126.756238,0 C117.493282,0 111.642994,5.87412587 112.130518,15.1748252 L113.105566,117.482517 L24.3761996,61.6783217 C21.9385797,60.2097902 18.5259117,58.7412587 14.6257198,58.7412587 C7.31285988,58.7412587 0,64.6153846 0,73.9160839 C0,79.7902098 2.92514395,84.1958042 8.77543186,87.1328671 L99.9424184,140.979021 L9.26295585,194.825175 C2.92514395,197.762238 0.487523992,201.678322 0.487523992,207.552448 C0.487523992,216.363636 7.31285988,222.237762 14.1381958,222.237762 C18.0383877,222.237762 20.4760077,221.258741 24.3761996,219.300699 L113.105566,163.006993 L112.130518,264.825175 C111.642994,274.615385 117.493282,280 126.756238,280 Z"></path>
        </g>
    </g>
</svg>