<svg width="512" height="512" viewBox="0 0 512 512" fill="none" xmlns="http://www.w3.org/2000/svg">
<path d="M64 256C64 150 150 64 256 64C362 64 448 150 448 256C448 362 362 448 256 448C150 448 64 362 64 256Z" stroke="currentColor" stroke-width="32" stroke-miterlimit="10"/>
<path d="M170.46 197.85L181.83 184.62C197.379 168.34 217.817 157.581 240.039 153.978C262.261 150.376 285.052 154.126 304.948 164.659C324.844 175.192 340.758 191.933 350.271 212.336C359.783 232.74 362.375 255.691 357.652 277.702C352.929 299.714 341.15 319.581 324.104 334.286C307.058 348.991 285.677 357.73 263.211 359.173C240.746 360.617 218.423 354.687 199.635 342.285C180.847 329.882 166.621 311.686 159.12 290.46" stroke="currentColor" stroke-width="32" stroke-miterlimit="10" stroke-linecap="round"/>
<path d="M144.68 162C145.799 162.005 146.905 162.232 147.935 162.668C148.965 163.104 149.898 163.74 150.68 164.54L210.22 224.08C211.428 225.284 212.252 226.819 212.586 228.491C212.921 230.164 212.751 231.898 212.099 233.473C211.446 235.049 210.341 236.396 208.922 237.342C207.503 238.289 205.835 238.793 204.13 238.79H144.59C142.304 238.79 140.111 237.882 138.495 236.265C136.878 234.649 135.97 232.456 135.97 230.17V170.61C135.967 169.472 136.19 168.344 136.626 167.293C137.062 166.241 137.702 165.287 138.509 164.484C139.317 163.681 140.275 163.047 141.329 162.617C142.383 162.187 143.512 161.971 144.65 161.98L144.68 162Z" fill="currentColor"/>
</svg>
