<svg xmlns="http://www.w3.org/2000/svg" xmlns:xlink="http://www.w3.org/1999/xlink" width="1277" height="311.86" viewBox="0 0 1277 311.86">
  <defs>
    <style>
      .cls-1 {
        clip-path: url(#clip-jenkins);
      }

      .cls-2 {
        fill: #d33833;
      }

      .cls-11, .cls-12, .cls-15, .cls-16, .cls-17, .cls-18, .cls-2, .cls-5, .cls-6, .cls-7, .cls-8, .cls-9 {
        fill-rule: evenodd;
      }

      .cls-15, .cls-3 {
        fill: #ef3d3a;
      }

      .cls-16, .cls-4 {
        fill: #231f20;
      }

      .cls-5 {
        fill: #f0d6b7;
      }

      .cls-6 {
        fill: #335061;
      }

      .cls-7 {
        fill: #6d6b6d;
      }

      .cls-8 {
        fill: #dcd9d8;
      }

      .cls-10, .cls-9 {
        fill: #f7e4cd;
      }

      .cls-11 {
        fill: #49728b;
      }

      .cls-12, .cls-13 {
        fill: #fff;
      }

      .cls-14, .cls-26 {
        fill: none;
      }

      .cls-14 {
        stroke: #d33833;
        stroke-width: 2.5px;
      }

      .cls-17 {
        fill: #81b0c4;
      }

      .cls-18 {
        fill: #1d1919;
      }

      .cls-19 {
        fill: #242925;
        font-size: 180px;
        font-family: Georgia-Bold, Georgia;
        font-weight: 700;
      }
      @media (prefers-color-scheme: dark) {
        .cls-19 {
          fill: #c9d1d9;
        }
      }

      .cls-20 {
        fill: #000;
      }

      .cls-21 {
        fill: #f1b31c;
      }

      .cls-22 {
        fill: #fcea2b;
      }

      .cls-23 {
        fill: #ea5a47;
      }

      .cls-24 {
        fill: #d22f27;
      }

      .cls-25 {
        fill: #8967aa;
      }

      .cls-26 {
        stroke: #000;
        stroke-linecap: round;
        stroke-linejoin: round;
        stroke-miterlimit: 10;
        stroke-width: 2px;
      }
    </style>
    <clipPath id="clip-jenkins">
      <rect width="1277" height="311.86"/>
    </clipPath>
  </defs>
  <g id="jenkins" class="cls-1">
    <g id="g10" transform="translate(0 311.855)">
      <g id="g3393" transform="translate(0 -311.855)">
        <path id="path22" class="cls-2" d="M222.148-161.58c0,61.786-48.969,111.874-109.375,111.874S3.4-99.794,3.4-161.58,52.367-273.456,112.773-273.456,222.148-223.368,222.148-161.58" transform="translate(0 311.855)"/>
        <path id="path24" class="cls-3" d="M7.855-133.872s-7.918-116.666,99.582-120l-7.5-12.5L41.605-246.789,24.938-227.622,10.355-199.7,2.021-167.2l2.5,21.666" transform="translate(0 311.855)"/>
        <path id="path26" class="cls-4" d="M37.86-237.9A109.421,109.421,0,0,0,6.8-161.162h0A109.41,109.41,0,0,0,37.86-84.433h0a104.408,104.408,0,0,0,74.911,31.745h0a104.406,104.406,0,0,0,74.911-31.745h0a109.417,109.417,0,0,0,31.066-76.73h0A109.428,109.428,0,0,0,187.682-237.9h0a104.43,104.43,0,0,0-74.911-31.744h0A104.432,104.432,0,0,0,37.86-237.9ZM33-79.684A116.222,116.222,0,0,1,0-161.162H0a116.224,116.224,0,0,1,33-81.482h0a111.216,111.216,0,0,1,79.768-33.79h0a111.209,111.209,0,0,1,79.768,33.79h0a116.211,116.211,0,0,1,33,81.482h0a116.2,116.2,0,0,1-33,81.479h0a111.23,111.23,0,0,1-79.768,33.791h0A111.237,111.237,0,0,1,33-79.684h0" transform="translate(0 311.855)"/>
        <path id="path28" class="cls-5" d="M158.814-160.96l-16.667,2.5-22.5,2.5-14.584.416L90.9-155.96l-10.834-3.334L70.479-169.71l-7.5-21.25-1.667-4.584-10-3.333-5.833-9.584-4.167-13.75L45.9-234.294l10.833-3.75,8.75,4.167,4.167,9.166,5-.834,1.666-2.083-1.666-9.584-.417-12.084,2.5-16.666-.1-9.52,7.6-12.146,13.334-9.584,23.334-10,25.833,3.75,22.5,16.25,10.417,16.666,6.666,12.084,1.666,30-5,25.834-9.166,22.916-8.75,12.084" transform="translate(0 311.855)"/>
        <path id="path30" class="cls-6" d="M144.646-88.877l-59.584,2.5v10l5,35-2.5,2.917L45.9-52.627l-2.917-5L38.812-104.71,29.23-133.044l-2.084-6.666,33.333-22.916L70.9-166.794l9.166,11.25,7.916,7.084,9.167,2.916,4.166,1.25,5,21.666,3.75,4.584,9.584-3.334-6.667,12.917,36.25,17.083-4.583,2.5" transform="translate(0 311.855)"/>
        <path id="path32" class="cls-7" d="M45.9-234.294l10.833-3.75,8.75,4.167,4.168,9.166,5-.834,1.25-5-2.5-9.583,2.5-22.917-2.084-12.5,7.5-8.75,16.25-12.916-4.584-6.25L70.062-292.21l-9.584,7.5-5.417,11.666-8.333,11.25-2.5,13.334L45.9-234.294" transform="translate(0 311.855)"/>
        <path id="path34" class="cls-8" d="M62.979-273.46s6.25-15.416,31.25-22.916,1.25-5.417,1.25-5.417L68.4-291.376,57.978-280.96,53.4-272.626l9.583-.834" transform="translate(0 311.855)"/>
        <path id="path36" class="cls-8" d="M50.479-237.21s-8.75-29.167,24.583-33.334l-1.25-5L50.9-270.126,44.228-248.46,45.9-234.294l4.583-2.916" transform="translate(0 311.855)"/>
        <path id="path38" class="cls-9" d="M63.812-198.46l5.456-5.286a3.513,3.513,0,0,1,2.878,3.2c.416,2.917,1.666,29.167,19.582,43.335,1.634,1.292-13.333-2.085-13.333-2.085L65.062-180.126" transform="translate(0 311.855)"/>
        <path id="path40" class="cls-9" d="M140.481-206.376s.971-12.63,4.373-11.659a4.682,4.682,0,0,1,3.4,4.372s-8.26,5.344-7.774,7.286" transform="translate(0 311.855)"/>
        <path id="path42" class="cls-10" d="M175.063-252.626s-6.867,1.45-7.5,7.5,7.5,1.25,8.75.834" transform="translate(0 311.855)"/>
        <path id="path44" class="cls-10" d="M124.646-252.209s-9.167,1.25-9.167,7.082,10.418,5.418,13.334,2.918" transform="translate(0 311.855)"/>
        <path id="path46" class="cls-9" d="M67.979-225.126s-15.834-9.584-17.5-.416-5.417,15.834,2.5,25.416l-5.416-1.666-5-12.916-1.666-12.5,9.583-10,10.833.834,6.25,5,.417,6.25" transform="translate(0 311.855)"/>
        <path id="path48" class="cls-9" d="M75.479-251.376s7.083-36.666,42.917-43.75c29.5-5.831,45,1.25,50.833,7.916,0,0-26.25-31.249-51.25-21.666s-43.333,27.084-42.917,38.333c.71,19.16.417,19.167.417,19.167" transform="translate(0 311.855)"/>
        <path id="path50" class="cls-9" d="M172.146-283.044s-12.082-.416-12.5,10.418a8.283,8.283,0,0,0,.833,3.332s9.585-10.834,15.417-5" transform="translate(0 311.855)"/>
        <path id="path52" class="cls-9" d="M119.236-268.165s-2.08-16.629-16.257-6.961c-9.166,6.25-8.333,15-6.666,16.666s1.213,5.024,2.482,2.72.85-9.8,5.435-11.886,12.1-4.411,15.007-.539" transform="translate(0 311.855)"/>
        <path id="path54" class="cls-11" d="M80.062-155.544,40.9-138.044S57.146-73.46,48.812-53.46l-5.833-2.082-.417-24.584L31.73-126.792,27.146-139.71l40.833-27.5,12.083,11.665" transform="translate(0 311.855)"/>
        <path id="path56" class="cls-11" d="M84.089-119.822l5.557,6.78v25H82.979s-.833-17.5-.833-19.584.833-9.584.833-9.584" transform="translate(0 311.855)"/>
        <path id="path58" class="cls-11" d="M84.229-84.292l-18.75.832L70.9-79.71l13.333,2.084" transform="translate(0 311.855)"/>
        <path id="path60" class="cls-6" d="M148.4-88.46l15.416-.416,3.75,38.334L151.729-48.46l-3.333-40" transform="translate(0 311.855)"/>
        <path id="path62" class="cls-6" d="M152.563-88.46,175.9-89.71s9.582-24.166,9.582-25.416,8.334-35,8.334-35l-18.75-19.582-3.75-3.334-10,10v38.75l-8.75,35.833" transform="translate(0 311.855)"/>
        <path id="path64" class="cls-11" d="M162.979-91.376,148.4-88.46l2.083,11.668c5.416,2.5,14.584-4.168,14.584-4.168" transform="translate(0 311.855)"/>
        <path id="path66" class="cls-11" d="M163.4-164.293l29.166,21.666.834-10-22.084-20.416-7.916,8.75" transform="translate(0 311.855)"/>
        <path id="path68" class="cls-12" d="M98.688-6.373l-8.627-35-4.29-25.828-.71-19.171,39.044-2.079,24.291,0-2.209,43.754,3.75,33.75-.416,6.25-31.666,2.5L98.689-6.373" transform="translate(0 311.855)"/>
        <path id="path70" class="cls-8" d="M142.979-88.876S140.9-45.542,147.146-14.71a79.6,79.6,0,0,1-30.834,10l35-1.25,4.166-2.5-5-68.332-1.25-14.585" transform="translate(0 311.855)"/>
        <path id="path72" class="cls-12" d="M168.272-53.872l16.25-4.584,30.833-1.666,4.584-14.166L211.6-98.872l-9.583-1.25-13.334,4.166L175.9-89.71,169.1-90.956l-5.292,2.079" transform="translate(0 311.855)"/>
        <path id="path74" class="cls-8" d="M167.979-62.21s10.833-5,12.5-4.583L175.9-89.71l5.416-2.083s3.75,21.666,3.75,24.166c0,0,23.333,1.25,25.416,1.25,0,0,5-9.584,3.75-19.584l4.584,13.334.416,7.5-6.666,10-7.5,1.666-12.5-.416L188.4-59.293,173.812-57.21l-4.584,1.667" transform="translate(0 311.855)"/>
        <path id="path76" class="cls-13" d="M151.6-91.789l-9.166-23.334-9.584-13.75s2.083-5.834,5-5.834h9.584l9.166,3.334-.833,15.416L151.6-91.789" transform="translate(0 311.855)"/>
        <path id="path78" class="cls-8" d="M153.4-99.71s-11.667-22.5-11.667-25.832c0,0,2.082-5,5-3.75s9.167,4.582,9.167,4.582v-7.916l-14.167-2.917-9.583,1.25L148.4-95.96l3.333.418" transform="translate(0 311.855)"/>
        <path id="path80" class="cls-13" d="M102.439-154.705,90.9-155.96l-10.834-3.334v3.75l5.294,5.837,16.666,7.5" transform="translate(0 311.855)"/>
        <path id="path82" class="cls-8" d="M83.813-153.456s12.918,5.417,17.084,4.167l.414,5-11.665-2.5-7.084-5,1.25-1.667" transform="translate(0 311.855)"/>
        <path id="path84" class="cls-2" d="M168.228-133.287a79.171,79.171,0,0,1-19.05-2.625c.38-2.292-.331-4.543.24-6.194,1.559-1.122,4.171-1.1,6.527-1.369a11.357,11.357,0,0,0-7.251-.819c-.055-1.591-.769-2.577-1.2-3.822,3.975-1.419,13.359-10.72,18.637-7.64,2.515,1.465,3.584,9.832,3.779,13.9.163,3.375-.306,6.78-1.681,8.568" transform="translate(0 311.855)"/>
        <path id="path86" class="cls-14" d="M168.228-133.287a79.171,79.171,0,0,1-19.05-2.625c.38-2.292-.331-4.543.24-6.194,1.559-1.122,4.171-1.1,6.527-1.369a11.357,11.357,0,0,0-7.251-.819c-.055-1.591-.769-2.577-1.2-3.822,3.975-1.419,13.359-10.72,18.637-7.64,2.515,1.465,3.584,9.832,3.779,13.9C170.071-138.48,169.6-135.075,168.228-133.287Z" transform="translate(0 311.855)"/>
        <path id="path88" class="cls-2" d="M134.419-144.845c-.019.535-.041,1.074-.063,1.614-2.207,1.45-5.771,1.433-8.194,2.651a21.291,21.291,0,0,1,8.815,2.229q-.081,2.021-.158,4.041c-4.046,2.77-7.743,6.895-12.507,9.493-2.253,1.229-10.158,4.39-12.554,3.831-1.356-.315-1.478-2-2.02-3.583-1.155-3.4-3.813-8.8-4.045-13.915-.3-6.458-.947-17.28,6.012-15.95A62.167,62.167,0,0,1,126.2-148.4c2.656,1.452,4.193,3.247,8.223,3.557" transform="translate(0 311.855)"/>
        <path id="path90" class="cls-14" d="M134.419-144.845c-.019.535-.041,1.074-.063,1.614-2.207,1.45-5.771,1.433-8.194,2.651a21.291,21.291,0,0,1,8.815,2.229q-.081,2.021-.158,4.041c-4.046,2.77-7.743,6.895-12.507,9.493-2.253,1.229-10.158,4.39-12.554,3.831-1.356-.315-1.478-2-2.02-3.583-1.155-3.4-3.813-8.8-4.045-13.915-.3-6.458-.947-17.28,6.012-15.95A62.167,62.167,0,0,1,126.2-148.4C128.853-146.95,130.389-145.155,134.419-144.845Z" transform="translate(0 311.855)"/>
        <path id="path92" class="cls-2" d="M138.438-137.14c-.618-3.518-1.331-4.521-1.055-7.59,9.381-6.255,11.143,10.744,1.055,7.59" transform="translate(0 311.855)"/>
        <path id="path94" class="cls-14" d="M138.438-137.14c-.618-3.518-1.331-4.521-1.055-7.59C146.764-150.985,148.525-133.986,138.438-137.14Z" transform="translate(0 311.855)"/>
        <path id="path96" class="cls-15" d="M152.021-134.289s-2.917-4.167-.834-5.417,4.167,0,5.417-2.083,0-3.334.416-5.834,2.5-2.917,4.584-3.334,7.917-1.25,8.75.834l-2.5-7.5-5-1.666-15.834,9.166-.834,4.584v9.166" transform="translate(0 311.855)"/>
        <path id="path98" class="cls-15" d="M108.271-120.539q-.751-9.754-1.62-19.493c-.882-9.7,2.33-8.008,10.738-8.008,1.284,0,7.907,1.531,8.381,2.5,2.273,4.641-3.8,3.61,2.618,7.11,5.417,2.954,14.987-1.794,12.8-8.36-1.225-1.46-6.382-.455-8.231-1.414l-9.765-5.062c-4.142-2.149-13.713-5.281-18.129-2.279-11.188,7.609.706,26.62,4.7,34.557" transform="translate(0 311.855)"/>
        <path id="path100" class="cls-16" d="M119.236-268.165c-11.356-2.645-17,4.753-20.442,12.425-3.074-.745-1.851-4.925-1.074-7.055,2.033-5.59,10.225-13.031,16.918-12.022,2.88.434,6.778,3.067,4.6,6.652" transform="translate(0 311.855)"/>
        <path id="path102" class="cls-16" d="M174.569-255.233l.539.021c2.566,5.331,4.788,10.979,8.025,15.685-2.169,5.051-16.423,9.521-16.2.451,3.083-1.348,8.4-.275,11.136-2-1.58-4.336-3.86-8.027-3.5-14.161" transform="translate(0 311.855)"/>
        <path id="path104" class="cls-16" d="M125.05-255.094c2.435,4.464,3.227,9.154,6.689,12.528,1.559,1.519,4.59,3.37,3.087,7.594-.351,1-2.917,3.218-4.4,3.654-5.411,1.6-18.02.33-13.75-6.416,4.475.209,10.49,2.906,13.835-.342-2.569-4.106-7.148-12.23-5.463-17.016" transform="translate(0 311.855)"/>
        <path id="path106" class="cls-16" d="M172.538-209.726c-8.148,5.234-17.233,10.925-30.583,9.605a9.054,9.054,0,0,1-1.169-11.644c1.442,2.48.536,7.041,4.556,7.728,7.575,1.3,16.391-4.634,21.84-6.706,3.379-5.7-.291-7.791-3.335-11.458-6.231-7.511-14.59-16.821-14.286-28.066,2.519-1.826,2.736,2.787,3.1,3.627,3.254,7.615,11.443,17.354,17.419,23.871,1.467,1.6,3.884,3.145,4.153,4.206.775,3.086-2.016,6.784-1.693,8.836" transform="translate(0 311.855)"/>
        <path id="path108" class="cls-16" d="M65.127-215.236c-2.554-1.458-3.162-7.878-6.16-8.06-4.285-.26-3.5,8.329-3.486,13.351-2.949-2.678-3.468-10.921-1.3-15.155-2.469-1.213-3.572,1.337-4.942,2.236,1.76-12.787,18.706-5.931,15.889,7.628" transform="translate(0 311.855)"/>
        <path id="path110" class="cls-16" d="M177.725-204.4c-3.792,7.219-9.158,15.169-20.286,15.4-.226-2.331-.4-5.879.012-7.283,8.508-.818,13.76-5.148,20.274-8.118" transform="translate(0 311.855)"/>
        <path id="path112" class="cls-16" d="M124.408-199.721c7.1,3.732,20.143,4.134,29.79,3.851a33.781,33.781,0,0,1,.525,7.3c-12.4.619-27.064-2.45-30.316-11.154" transform="translate(0 311.855)"/>
        <path id="path114" class="cls-16" d="M123.059-192.761c4.908,12.324,21.778,10.9,36,10.565a7.609,7.609,0,0,1-3.671,4.174c-4.559,1.855-17.133,3.262-23.461-.1-4.014-2.134-6.593-6.955-8.792-9.781-1.062-1.365-6.35-4.851-.08-4.859" transform="translate(0 311.855)"/>
        <path id="path116" class="cls-17" d="M171.945-124.783c-5.76,9.865-11.271,20-18.105,28.7,2.865-8.424,4.091-22.523,4.524-33.271,5.994-2.805,11.126.631,13.581,4.572" transform="translate(0 311.855)"/>
        <path id="path118" class="cls-16" d="M202.94-89.326c-6.449,1.291-10.98,7.559-17.271,7.156,3.458-4.874,9.516-6.929,17.271-7.156" transform="translate(0 311.855)"/>
        <path id="path120" class="cls-16" d="M205.785-79.234c-5.256.555-11.43,1.406-16.761.968,2.524-3.855,12.248-2.525,16.761-.968" transform="translate(0 311.855)"/>
        <path id="path122" class="cls-16" d="M207.606-70.533c-5.908.128-13.25.01-18.865-.461,3.321-3.567,15.034-1.324,18.865.461" transform="translate(0 311.855)"/>
        <path id="path124" class="cls-8" d="M160.83-46.721c.847,7.419,3.789,14.936,3.42,23.061-3.266,1.1-5.143,2.065-9.519,2.059-.309-6.905-1.232-17.461-.956-24.044,2.152.142,5.326-1.538,7.055-1.076" transform="translate(0 311.855)"/>
        <path id="path126" class="cls-5" d="M151.306-156.061c-2.966,1.936-5.492,4.354-8.341,6.421-6.317.313-9.765-.437-14.406-4.065.076-.291.542-.161.56-.519,6.763,3.014,15.359-1.227,22.188-1.837" transform="translate(0 311.855)"/>
        <path id="path128" class="cls-17" d="M115.806-109.964c1.858-8.051,9.138-12.221,15.749-16.655,6.824,8.66,10.974,19.8,15.544,30.545-10.8-3.255-21.83-8.536-31.293-13.89" transform="translate(0 311.855)"/>
        <path id="path130" class="cls-16" d="M153.775-45.645c-.276,6.582.647,17.139.956,24.044,4.376.006,6.253-.958,9.519-2.059.369-8.125-2.573-15.642-3.42-23.061-1.729-.461-4.9,1.219-7.055,1.076ZM85.632-83.081C88.518-56.552,92.7-34.251,100.364-10.76c17.014,5.166,37.525,5.616,52.564.955-2.761-13.259-1.555-29.4-3.169-43.55-1.216-10.635-.6-21.335-2.264-32.185-18.223-3.791-43.979-.886-61.863,2.459ZM151.8-85.373c-.154,11.394.51,22.632,1.38,34.04,4.375-.657,7.344-1.1,11.409-1.986-1.32-10.982-1.158-23.34-3.846-33.055-3.107.03-5.844-.036-8.942,1ZM174-87.21c-2.076-.476-4.494-.019-6.478.02.932,9.288,3.2,19.536,3.991,29.285,3.121.1,4.789-1.375,7.356-1.87C179-68.333,178.12-80.122,174-87.21Zm33.605,30.7c6.506-1.58,10.6-9.549,8.777-17.732-1.221-5.5-3.4-15.857-5.724-19.375-1.72-2.6-6.384-6.01-10.107-3.625-6.057,3.879-16.729,5-21.146,9.7,2.215,7.375,2.9,17.5,3.816,26.85,7.568.472,16.879-2.082,23.172.628C202-58.638,196.3-58.627,192.5-56.552c3.1,1.5,10.366,1.2,15.1.046ZM147.1-96.074c-4.57-10.747-8.72-21.885-15.544-30.545-6.611,4.434-13.891,8.6-15.749,16.655C125.269-104.61,136.3-99.329,147.1-96.074Zm11.265-33.281c-.433,10.748-1.659,24.848-4.524,33.271,6.834-8.7,12.345-18.834,18.105-28.7C169.49-128.724,164.357-132.16,158.364-129.355Zm-12.77-4.538c-2.589-.279-4.786,2.976-8.152,1.569-.771.852-1.473,1.776-2.259,2.609,7.435,8.96,10.814,21.672,16.556,32.2,3.081-10.115,2.726-21.2,3.4-32.236C150.91-129.48,148.561-133.577,145.594-133.893Zm-8.211-10.837c-.276,3.069.438,4.073,1.055,7.59C148.525-133.986,146.764-150.985,137.383-144.73ZM126.2-148.4a62.168,62.168,0,0,0-16.491-6.033c-6.959-1.331-6.307,9.492-6.012,15.95.232,5.113,2.891,10.519,4.045,13.915.542,1.586.664,3.269,2.02,3.583,2.4.559,10.3-2.6,12.554-3.831,4.764-2.6,8.46-6.723,12.507-9.493q.079-2.021.158-4.041a21.291,21.291,0,0,0-8.815-2.229c2.423-1.219,5.986-1.2,8.194-2.651.021-.54.044-1.079.063-1.614-4.03-.31-5.566-2.1-8.223-3.557Zm-41.517-7.541c-3.607,3.662,10.118,8.655,14.488,8.924-.024-2.318,1.321-4.5,1.05-6.165C95.027-154.1,88.206-153.495,84.679-155.944Zm44.44,1.72c-.018.358-.484.228-.56.519,4.641,3.628,8.089,4.378,14.406,4.065,2.849-2.067,5.375-4.485,8.341-6.421C144.478-155.451,135.881-151.21,129.119-154.224Zm40.79,12.369c-.2-4.069-1.264-12.436-3.779-13.9-5.279-3.081-14.663,6.221-18.638,7.64.432,1.245,1.146,2.231,1.2,3.822a11.357,11.357,0,0,1,7.251.819c-2.356.264-4.969.246-6.527,1.369-.571,1.651.14,3.9-.24,6.194a79.171,79.171,0,0,0,19.05,2.625C169.6-135.075,170.071-138.48,169.909-141.855ZM78.606-152.4c-1.133-.807-8.8-10.779-9.846-10.365C54.893-157.3,41.926-147.841,30.339-138.9c11.047,23.705,15.507,52.748,16.295,80.74,12.655,5.919,23.771,14.452,40.944,15.343-1.987-14.06-3.8-26.6-4.929-39.841-4.315-1.819-10.505.083-14.543-.564-.034-4.866,6.167-2.131,6.684-5.4.389-2.475-3.412-2.663-2.174-6.56,3.157,1.147,4.814,3.682,8.181,4.634,3.076-6.73-.043-18.638.4-24.263.084-1.056.527-5.851,2.893-5.01,2.094.745-.12,12.752.11,18.076.209,4.9-.592,9.651,1.394,12.73A474.189,474.189,0,0,1,137-93.228c-3.95-1.695-8.643-3.3-13.787-6.2-2.789-1.572-11.58-4.844-12.385-7.493-1.284-4.221,3.369-6.47,4.165-10.088-8.376,4.568-10.011-4.379-11.992-10.718a83.307,83.307,0,0,1-3.258-13.341c-7.216-3.44-14.931-6.924-21.142-11.335Zm83.974-9.159c11.554-5.6,13.636,20.939,9.107,29.489.7,2.55,3.108,3.526,4.09,5.819-6.448,11.55-13.609,22.331-20.187,33.745,4.894-3.046,11.884-.545,17.643-2.825,2.1-.832,3.629-5.651,5.222-9.506,4.384-10.606,8.986-23.977,11.034-34.1.462-2.306,1.723-7.331,1.44-9.384-.5-3.675-5.49-6.4-8.026-8.673-4.673-4.2-7.615-7.891-12.489-11.816-1.976,2.917-6.217,4.877-7.834,7.25ZM52.183-264.02c-5.505,6.057-4.353,17.408-3.687,25.483,9.951-6.26,23.159.495,23.035,11.142,4.751-.126,1.775-5.934.916-9.675-2.809-12.22,4.731-25.5.342-36.671a30.2,30.2,0,0,0-20.605,9.721Zm39.392-35.158c-12.463,3.533-28.437,12.589-33.558,23.785,3.966-.576,6.719-2.576,10.631-2.824,1.479-.1,3.416.62,5.115.2,3.386-.84,6.244-8.432,8.8-11.257,2.49-2.759,5.483-3.937,7.532-6.453,1.316-.635,3.262-.591,3.336-2.568C92.859-298.906,92.258-299.371,91.575-299.177Zm64.879,3.323c-12.936-7.3-34.833-12.789-48.593-5.929-11.1,5.536-26.112,14.7-31.229,26.3,4.78,11.2-1.416,21.465-1.812,32.838-.21,6.051,2.849,11.334,3.084,17.921-1.636,2.7-6.633,3.031-10.093,2.846-1.165-5.827-3.2-12.378-9.2-13.035-8.491-.929-14.7,6.1-15.085,13.443-.457,8.636,6.633,22.95,16.682,21.956,3.882-.384,4.836-4.275,9.065-4.235,2.292,4.574-3.536,6.01-4.136,9.281a26.277,26.277,0,0,0,.855,5.7c1.825,7.541,5.894,17.3,9.9,23.043,5.083,7.283,15.069,8.38,25.813,9.094,1.919-4.134,8.988-3.794,13.594-2.712-5.52-2.186-10.652-7.486-14.9-12.178C95.5-176.9,90.554-182.679,90.3-189.714c9.232,12.808,16.859,23.993,33.646,29.626,12.7,4.26,27.537-1.952,37.3-8.806,4.05-2.849,6.467-7.369,9.346-11.506,10.771-15.494,15.8-37.609,14.692-59.044-.455-8.84-.435-17.65-3.4-23.6-3.1-6.219-13.585-11.783-19.723-6.158-1.137-6.047,5.1-9.788,12.435-7.611-5.228-6.746-10.714-14.852-18.144-19.045ZM180.555-96.4c10.109-5.025,29-13.526,35.334.019a114.846,114.846,0,0,1,6.294,18.587c1.711,7.271-1.855,22.554-9.329,24.994-6.6,2.155-14.3,2.024-22.255.426a12.124,12.124,0,0,1-2.708-3.551c-5.678-.22-10.994.3-15.479,2.639.425,4.2-2.415,4.873-5.077,5.737-1.974,7.826,3.949,18.046,2.531,25.183-1.011,5.084-7.266,5.87-11.864,6.821a39.058,39.058,0,0,0,.515,7.574C157.466-4.1,152.751-1.89,148.284-1.35c-14.7,1.768-37.017,2.562-51.155-2.522C93.184-13.55,90.076-25.32,86.79-36.37,73-34.9,61.848-42.32,51.335-47.183,47.694-48.87,42.659-49.8,41.3-52.7c-1.318-2.805-.779-8.182-1.106-13.26-.833-12.971-1.545-25.482-4.971-38.764-1.538-5.96-4.219-11.219-6.089-16.961-1.728-5.322-4.748-11.9-5.536-17.207-1.168-7.866,6.239-8.3,10.976-11.712,7.322-5.271,13.069-8.186,21-12.944,2.349-1.409,9.431-4.975,10.237-6.618,1.6-3.256-2.749-7.848-3.912-10.4a31.281,31.281,0,0,1-3.063-11.448,22.085,22.085,0,0,1-14.74-9.474c-5.038-7.387-8.533-21.055-4.173-31.451.342-.819,2.047-2.429,2.3-3.686.5-2.476-.934-5.769-1.022-8.4-.458-13.513,2.286-25.155,11.383-29.23,3.693-14.711,16.91-19.6,29.363-26.914,4.655-2.733,9.786-4.479,15.085-6.429,19.01-7,48.177-5.679,63.955,6.254,6.69,5.06,17.384,15.744,21.209,23.479,10.1,20.421,9.385,54.55,2.319,79.391a79.914,79.914,0,0,1-4.251,12.244c-1.341,2.8-5.51,8.4-5,10.865.521,2.554,9.505,9.375,11.431,11.232,3.469,3.346,10.059,7.787,10.592,12.01.574,4.494-1.98,10.641-3.274,14.978-4.325,14.471-8.545,27.848-13.449,40.749" transform="translate(0 311.855)"/>
        <path id="path132" class="cls-9" d="M113.114-196.569c.548-.73,3.563-1.839,7.782.193,0,0-5,.834-4.584,9.17l-2.083-.417s-2.153-7.559-1.115-8.945" transform="translate(0 311.855)"/>
        <path id="path134" class="cls-18" d="M149.646-124.917a2.292,2.292,0,0,1-2.292,2.291,2.291,2.291,0,0,1-2.291-2.291,2.293,2.293,0,0,1,2.291-2.293,2.293,2.293,0,0,1,2.292,2.293" transform="translate(0 311.855)"/>
        <path id="path136" class="cls-18" d="M151.938-114.292A2.292,2.292,0,0,1,149.645-112a2.291,2.291,0,0,1-2.291-2.291,2.293,2.293,0,0,1,2.291-2.293,2.293,2.293,0,0,1,2.292,2.293" transform="translate(0 311.855)"/>
      </g>
      <text id="text5675" class="cls-19" transform="translate(289.632 -92.925)"><tspan x="0" y="0">Jenkins</tspan><tspan class="cls-20" y="0" xml:space="preserve">  </tspan></text>
    </g>
    <g id="_1F389" data-name="1F389" transform="translate(1068.609 44.562)">
      <g id="color" transform="translate(7.091 26.037)">
        <path id="Pfad_1" data-name="Pfad 1" class="cls-21" d="M73.608,20.181l45.833,45.833,45.833,45.833L86.767,144.521,8.26,177.2,40.934,98.688Z" transform="translate(-3.996 7.874)"/>
        <path id="Pfad_2" data-name="Pfad 2" class="cls-22" d="M127.093,72.926,74.921,20.669,41.006,100.418,7.091,180.166Z" transform="translate(-7.091 9.166)"/>
        <path id="Pfad_3" data-name="Pfad 3" class="cls-23" d="M21.221,45.285,61.558,85.622,41.39,93.832,12.958,65.4Z" transform="translate(8.436 74.311)"/>
        <path id="Pfad_4" data-name="Pfad 4" class="cls-24" d="M17.343,65.043,29.784,77.262l20.169-8.21L32.446,51.546Z" transform="translate(20.042 90.88)"/>
        <path id="Pfad_5" data-name="Pfad 5" class="cls-23" d="M27.828,32.163,52.247,56.581l42.66,42.661L72.034,109.683l-29.8-29.8L18.15,55.8Z" transform="translate(22.179 39.583)"/>
        <path id="Pfad_6" data-name="Pfad 6" class="cls-24" d="M26.537,58.441l23.3,23.3L72.713,71.3,44.13,42.72Z" transform="translate(44.373 67.522)"/>
        <ellipse id="Ellipse_1" data-name="Ellipse 1" class="cls-25" cx="7.293" cy="7.186" rx="7.293" ry="7.186" transform="translate(77.321)"/>
        <ellipse id="Ellipse_2" data-name="Ellipse 2" class="cls-21" cx="7.293" cy="7.186" rx="7.293" ry="7.186" transform="translate(186.715 14.586)"/>
        <ellipse id="Ellipse_3" data-name="Ellipse 3" class="cls-24" cx="7.293" cy="7.186" rx="7.293" ry="7.186" transform="translate(175.776 91.161)"/>
      </g>
      <g id="line" transform="translate(7.09 7.367)">
        <path id="Pfad_7" data-name="Pfad 7" class="cls-26" d="M165.974,111.722l.613.613L86.839,146.251,7.09,180.166l33.916-79.749L74.921,20.669" transform="translate(-7.09 27.836)"/>
        <path id="Pfad_8" data-name="Pfad 8" class="cls-26" d="M25.8,20.778,71.238,66.214l45.22,45.22" transform="translate(42.426 28.124)"/>
        <line id="Linie_1" data-name="Linie 1" class="cls-26" x2="0.396" y2="0.396" transform="translate(67.831 48.505)"/>
        <path id="Pfad_9" data-name="Pfad 9" class="cls-26" d="M56.413,7.367A17.773,17.773,0,0,1,58.2,12.738a19.25,19.25,0,0,1-15.458,21.72" transform="translate(87.257 -7.367)"/>
        <path id="Pfad_10" data-name="Pfad 10" class="cls-26" d="M55.3,14.776A17.778,17.778,0,0,0,49.8,16.1,19.25,19.25,0,0,0,39.547,40.714" transform="translate(75.399 12.241)"/>
        <path id="Pfad_11" data-name="Pfad 11" class="cls-26" d="M81.854,26.717a17.776,17.776,0,0,1-1.978,5.3,19.25,19.25,0,0,1-25.663,7.22" transform="translate(117.616 43.841)"/>
        <path id="Pfad_12" data-name="Pfad 12" class="cls-26" d="M75.085,32.538a17.778,17.778,0,0,0-5.118-2.418A19.25,19.25,0,0,0,46.549,42.86" transform="translate(97.334 50.924)"/>
      </g>
    </g>
  </g>
</svg>
