<svg xmlns="http://www.w3.org/2000/svg" xmlns:svg="http://www.w3.org/2000/svg" xmlns:xlink="http://www.w3.org/1999/xlink" id="svg1306" width="48" height="48" version="1.1"><defs id="defs1308"><linearGradient id="linearGradient3957"><stop style="stop-color:#fffeff;stop-opacity:.33333334" id="stop3959" offset="0"/><stop style="stop-color:#fffeff;stop-opacity:.21568628" id="stop3961" offset="1"/></linearGradient><linearGradient id="linearGradient2536"><stop style="stop-color:#a40000;stop-opacity:1" id="stop2538" offset="0"/><stop style="stop-color:#ff1717;stop-opacity:1" id="stop2540" offset="1"/></linearGradient><linearGradient id="linearGradient2479"><stop style="stop-color:#ffe69b;stop-opacity:1" id="stop2481" offset="0"/><stop style="stop-color:#fff;stop-opacity:1" id="stop2483" offset="1"/></linearGradient><linearGradient id="linearGradient4126"><stop id="stop4128" offset="0" style="stop-color:#000;stop-opacity:1"/><stop id="stop4130" offset="1" style="stop-color:#000;stop-opacity:0"/></linearGradient><radialGradient id="radialGradient2169" cx="23.857" cy="40" r="17.143" fx="23.857" fy="40" gradientTransform="matrix(1.000000,0.000000,0.000000,0.500000,1.899196e-14,20.00000)" gradientUnits="userSpaceOnUse" xlink:href="#linearGradient4126"/><linearGradient id="linearGradient2485" x1="43.936" x2="20.065" y1="53.836" y2="-8.563" gradientUnits="userSpaceOnUse" xlink:href="#linearGradient2479"/><linearGradient id="linearGradient2542" x1="36.918" x2="19.071" y1="66.288" y2="5.541" gradientUnits="userSpaceOnUse" xlink:href="#linearGradient2536"/><linearGradient id="linearGradient3046" x1="36.918" x2="19.071" y1="66.288" y2="5.541" gradientUnits="userSpaceOnUse" xlink:href="#linearGradient2536"/><linearGradient id="linearGradient3048" x1="43.936" x2="20.065" y1="53.836" y2="-8.563" gradientUnits="userSpaceOnUse" xlink:href="#linearGradient2479"/><linearGradient id="linearGradient3064" x1="36.918" x2="19.071" y1="66.288" y2="5.541" gradientUnits="userSpaceOnUse" xlink:href="#linearGradient2536"/><linearGradient id="linearGradient3066" x1="43.936" x2="20.065" y1="53.836" y2="-8.563" gradientUnits="userSpaceOnUse" xlink:href="#linearGradient2479"/><linearGradient id="linearGradient3963" x1="21.994" x2="20.917" y1="33.955" y2="15.815" gradientUnits="userSpaceOnUse" xlink:href="#linearGradient3957"/><radialGradient id="radialGradient3976" cx="23.857" cy="40" r="17.143" fx="23.857" fy="40" gradientTransform="matrix(1,0,0,0.5,0,20)" gradientUnits="userSpaceOnUse" xlink:href="#linearGradient4126"/><linearGradient id="linearGradient3980" x1="43.936" x2="20.065" y1="53.836" y2="-8.563" gradientUnits="userSpaceOnUse" xlink:href="#linearGradient2479"/><linearGradient id="linearGradient3982" x1="21.994" x2="20.917" y1="33.955" y2="15.815" gradientTransform="matrix(1.002994,0,0,1.002994,-7.1859e-2,1.968356e-2)" gradientUnits="userSpaceOnUse" xlink:href="#linearGradient3957"/><linearGradient id="linearGradient2262" x1="21.75" x2="24.302" y1="15.802" y2="35.052" gradientTransform="translate(0,-2)" gradientUnits="userSpaceOnUse" xlink:href="#linearGradient2256"/><radialGradient id="radialGradient2254" cx="16.75" cy="10.666" r="21.25" fx="16.75" fy="10.666" gradientTransform="matrix(4.154957,0,0,3.198723,-52.84553,-23.50921)" gradientUnits="userSpaceOnUse" xlink:href="#linearGradient2248"/><linearGradient id="linearGradient2243" x1="23.996" x2="41.048" y1="20.105" y2="37.96" gradientTransform="matrix(0.988373,0.000000,0.000000,0.988373,0.279002,0.278984)" gradientUnits="userSpaceOnUse" xlink:href="#linearGradient4981"/><radialGradient id="radialGradient2239" cx="24.302" cy="33.302" r="12.302" fx="24.302" fy="33.302" gradientTransform="matrix(1.693981,0,0,1.693981,-16.86529,-25.11111)" gradientUnits="userSpaceOnUse" xlink:href="#linearGradient9647"/><linearGradient id="linearGradient7901" x1="15.579" x2="32.166" y1="16.285" y2="28.394" gradientUnits="userSpaceOnUse" xlink:href="#linearGradient7895"/><linearGradient id="linearGradient4987" x1="23.996" x2="41.048" y1="20.105" y2="37.96" gradientTransform="translate(0,-2)" gradientUnits="userSpaceOnUse" xlink:href="#linearGradient4981"/><linearGradient id="linearGradient2057" x1="15.737" x2="53.57" y1="12.504" y2="47.374" gradientTransform="translate(0,-2)" gradientUnits="userSpaceOnUse" xlink:href="#linearGradient11780"/><linearGradient id="linearGradient15772" x1="5.737" x2="9.894" y1="5.386" y2="9.651" gradientTransform="matrix(-1.000000,0.000000,0.000000,-1.000000,31.72170,31.29079)" gradientUnits="userSpaceOnUse" xlink:href="#linearGradient15762"/><linearGradient id="linearGradient11014"><stop id="stop11016" offset="0" style="stop-color:#a80000;stop-opacity:1"/><stop id="stop13245" offset="0" style="stop-color:#c60000;stop-opacity:1"/><stop id="stop11018" offset="1" style="stop-color:#e50000;stop-opacity:1"/></linearGradient><linearGradient id="linearGradient11780"><stop id="stop11782" offset="0" style="stop-color:#ff8b8b;stop-opacity:1"/><stop id="stop11784" offset="1" style="stop-color:#ec1b1b;stop-opacity:1"/></linearGradient><linearGradient id="linearGradient14236"><stop style="stop-color:#ed4040;stop-opacity:1" id="stop14238" offset="0"/><stop style="stop-color:#a40000;stop-opacity:1" id="stop14240" offset="1"/></linearGradient><linearGradient id="linearGradient15762"><stop style="stop-color:#fff;stop-opacity:1" id="stop15764" offset="0"/><stop style="stop-color:#fff;stop-opacity:0" id="stop15766" offset="1"/></linearGradient><linearGradient id="linearGradient4981"><stop id="stop4983" offset="0" style="stop-color:#c00;stop-opacity:1"/><stop id="stop4985" offset="1" style="stop-color:#b30000;stop-opacity:1"/></linearGradient><linearGradient id="linearGradient7895"><stop id="stop7897" offset="0" style="stop-color:#fff;stop-opacity:1"/><stop id="stop7899" offset="1" style="stop-color:#fff;stop-opacity:0"/></linearGradient><radialGradient id="radialGradient21650" cx="25.125" cy="36.75" r="15.75" fx="25.125" fy="36.75" gradientTransform="matrix(1,0,0,0.595238,0,14.875)" gradientUnits="userSpaceOnUse" xlink:href="#linearGradient21644"/><linearGradient id="linearGradient21644"><stop id="stop21646" offset="0" style="stop-color:#000;stop-opacity:1"/><stop id="stop21648" offset="1" style="stop-color:#000;stop-opacity:0"/></linearGradient><linearGradient id="linearGradient9647"><stop id="stop9649" offset="0" style="stop-color:#fff;stop-opacity:1"/><stop id="stop9651" offset="1" style="stop-color:#dbdbdb;stop-opacity:1"/></linearGradient><linearGradient id="linearGradient2248"><stop id="stop2250" offset="0" style="stop-color:#fff;stop-opacity:1"/><stop id="stop2252" offset="1" style="stop-color:#fff;stop-opacity:0"/></linearGradient><linearGradient id="linearGradient2256"><stop id="stop2258" offset="0" style="stop-color:#ff0202;stop-opacity:1"/><stop id="stop2260" offset="1" style="stop-color:#ff9b9b;stop-opacity:1"/></linearGradient><radialGradient id="radialGradient2335" cx="24.302" cy="33.302" r="12.302" fx="24.302" fy="33.302" gradientTransform="matrix(1.693981,0,0,1.693981,-16.86529,-23.715608)" gradientUnits="userSpaceOnUse" xlink:href="#linearGradient9647"/><linearGradient id="linearGradient2337" x1="21.75" x2="24.302" y1="15.802" y2="35.052" gradientTransform="translate(-7.1723252e-7,-0.6044975)" gradientUnits="userSpaceOnUse" xlink:href="#linearGradient2256"/></defs><metadata id="metadata1311"/><g id="layer2"><path id="path6548" d="M 41 40 A 17.142857 8.5714283 0 1 1 6.7142868,40 A 17.142857 8.5714283 0 1 1 41 40 z" transform="matrix(1.070555,0,0,0.525,-0.892755,22.5)" style="opacity:.6;color:#000;fill:url(#radialGradient3976);fill-opacity:1;fill-rule:nonzero;stroke:none;stroke-width:1;stroke-linecap:butt;stroke-linejoin:miter;marker:none;marker-start:none;marker-mid:none;marker-end:none;stroke-miterlimit:10;stroke-dasharray:none;stroke-dashoffset:0;stroke-opacity:1;visibility:visible;display:block;overflow:visible"/></g><g id="layer1"><g id="g4006"><path id="path1314" d="m 46.857143,23.928572 c 0,12.899794 -10.457349,23.357143 -23.357143,23.357143 -12.899794,0 -23.3571434,-10.457349 -23.3571434,-23.357143 0,-12.899794 10.4573494,-23.3571437 23.3571434,-23.3571437 12.899794,0 23.357143,10.4573497 23.357143,23.3571437 z" transform="matrix(0.920488,0,0,0.920488,2.368532,0.97408)" style="fill:#73d216;fill-opacity:1;fill-rule:nonzero;stroke:#4e9a06;stroke-width:1.0863799999999999;stroke-linecap:butt;stroke-linejoin:miter;stroke-miterlimit:4;stroke-dasharray:none;stroke-opacity:1"/><path id="path3560" d="m 49.901535,26.635273 c 0,13.249931 -10.741192,23.991123 -23.991123,23.991123 -13.249932,0 -23.9911234,-10.741192 -23.9911234,-23.991123 0,-13.249931 10.7411914,-23.9911232 23.9911234,-23.9911232 13.249931,0 23.991123,10.7411922 23.991123,23.9911232 z" transform="matrix(0.856093,0,0,0.856093,1.818275,0.197769)" style="opacity:.34659089;fill:#c00;fill-opacity:0;stroke:url(#linearGradient3980);stroke-width:1.16809607;stroke-linecap:butt;stroke-linejoin:miter;stroke-miterlimit:4;stroke-dasharray:none;stroke-opacity:1"/></g></g><g id="layer3"><g style="font-size:49.56328583px;font-style:normal;font-weight:400;line-height:125%;letter-spacing:0;word-spacing:0;fill:#eeeeec;fill-opacity:1;stroke:#eeeeec;font-family:Sans" id="text4967"><path id="path4984" d="m 14.706884,25.178117 c 0.62921,1.5e-5 1.105159,0.516299 1.427848,1.548852 0.645343,1.936079 1.105158,2.904111 1.379447,2.904099 0.209727,1.2e-5 0.427534,-0.161327 0.653423,-0.484016 4.533602,-7.260228 8.728407,-13.132955 12.584428,-17.6182 1.000272,-1.161608 2.589458,-1.7424276 4.767562,-1.7424589 0.516252,3.13e-5 0.86313,0.048433 1.040635,0.145205 0.17744,0.096834 0.266176,0.2178379 0.266209,0.3630119 -3.3e-5,0.225905 -0.266242,0.669587 -0.798627,1.331046 -6.227704,7.486143 -12.003628,15.391737 -17.327789,23.716806 -0.371094,0.580825 -1.129386,0.871235 -2.274878,0.87123 -1.161651,5e-6 -1.84734,-0.0484 -2.05707,-0.145205 -0.548562,-0.242003 -1.193916,-1.476244 -1.936065,-3.702726 -0.83897,-2.468473 -1.258451,-4.017324 -1.258443,-4.646558 -8e-6,-0.677609 0.564678,-1.331031 1.694057,-1.960267 0.693747,-0.387197 1.306834,-0.580804 1.839263,-0.580819"/></g></g><g id="layer4"><path id="path3955" d="M 43.428679,21.800186 C 43.428679,32.663229 33.043349,15.515116 24.698029,22.187731 C 16.547377,28.704695 4.039397,34.414777 4.039397,23.551734 C 4.039397,12.434496 12.760828,2.1207586 23.623874,2.1207586 C 34.48692,2.1207586 43.428679,10.937141 43.428679,21.800186 z" style="fill:url(#linearGradient3982);fill-opacity:1;fill-rule:nonzero;stroke:none;stroke-width:1;stroke-linecap:round;stroke-linejoin:round;stroke-miterlimit:4;stroke-dashoffset:0;stroke-opacity:1"/></g></svg>