<?xml version="1.0" encoding="UTF-8" standalone="no"?>
<svg
   xmlns:dc="http://purl.org/dc/elements/1.1/"
   xmlns:cc="http://web.resource.org/cc/"
   xmlns:rdf="http://www.w3.org/1999/02/22-rdf-syntax-ns#"
   xmlns:svg="http://www.w3.org/2000/svg"
   xmlns="http://www.w3.org/2000/svg"
   xmlns:sodipodi="http://sodipodi.sourceforge.net/DTD/sodipodi-0.dtd"
   xmlns:inkscape="http://www.inkscape.org/namespaces/inkscape"
   width="191"
   height="191"
   id="svg2"
   sodipodi:version="0.32"
   inkscape:version="0.44.1"
   sodipodi:docname="butler.svg"
   sodipodi:docbase="C:\Documents and Settings\kohsuke\Desktop"
   version="1.0"
   inkscape:export-filename="C:\Documents and Settings\kohsuke\Desktop\butler.png"
   inkscape:export-xdpi="471.20001"
   inkscape:export-ydpi="471.20001">
  <metadata
     id="metadata137">
    <rdf:RDF>
      <cc:Work
         rdf:about="">
        <dc:format>image/svg+xml</dc:format>
        <dc:type
           rdf:resource="http://purl.org/dc/dcmitype/StillImage" />
      </cc:Work>
    </rdf:RDF>
  </metadata>
  <defs
     id="defs135" />
  <sodipodi:namedview
     inkscape:window-height="573"
     inkscape:window-width="853"
     inkscape:pageshadow="2"
     inkscape:pageopacity="0.0"
     guidetolerance="10.0"
     gridtolerance="10.0"
     objecttolerance="10.0"
     borderopacity="1.0"
     bordercolor="#666666"
     pagecolor="#ffffff"
     id="base"
     inkscape:zoom="3.1567078"
     inkscape:cx="67.06864"
     inkscape:cy="-27.541232"
     inkscape:window-x="497"
     inkscape:window-y="211"
     inkscape:current-layer="svg2"
     height="191px"
     width="191px" />
  <desc
     id="desc4">wmf2svg</desc>
  <polygon
     points="30.540396,502.3844 0.112695,505.55191 22.426342,511.2081 178.39648,510.52939 327.15414,510.52939 331.8873,507.13562 282.97763,504.87317 248.26749,501.47946 205.66872,504.87317 179.29804,504.87317 149.54651,500.80069 30.540396,502.3844 30.540396,502.3844 "
     style="fill:#a9a9a9;fill-opacity:1;fill-rule:evenodd;stroke:none"
     id="polygon6"
     transform="translate(-146,0)" />
  <polygon
     points="122.04889,150.11577 118.66803,145.36455 111.45554,144.45956 107.8493,149.43703 109.42703,190.61421 109.87781,215.50154 129.26138,229.30269 179.29804,236.31638 201.38629,458.94473 198.00545,484.73706 186.28514,495.59699 174.56485,500.12192 177.72031,507.58817 206.57027,504.64691 229.78548,494.91824 284.78073,503.06317 303.03735,496.50192 272.15888,491.97699 259.08621,479.30707 221.22066,490.84576 213.1066,479.75958 246.46437,421.38751 262.0163,234.28015 308.67212,179.52806 287.93622,139.93459 253.00069,121.15598 261.11475,92.648689 273.28583,88.123726 280.27292,74.77507 281.39987,48.982765 266.74951,29.751654 260.66394,10.294299 255.0292,4.185594 234.74406,3.280601 222.12221,1.696862 211.97965,3.733097 203.41481,10.294299 194.84998,12.330533 192.37068,20.022978 190.34218,34.729118 191.24373,39.706585 195.30077,43.779053 195.97693,51.471497 200.03395,57.127705 209.50035,60.521427 217.61441,72.738838 222.12221,91.064949 222.12221,108.48608 212.65582,108.48608 205.44333,113.01104 178.1711,135.40962 154.95589,203.28412 134.67075,199.43791 124.0774,170.25186 122.04889,150.11577 122.04889,150.11577 "
     style="fill:white;fill-opacity:1;fill-rule:evenodd;stroke:none"
     id="polygon8"
     transform="translate(-146,0)" />
  <polygon
     points="205.21794,482.24832 223.47456,482.24832 223.02377,487.452 211.97965,492.20325 205.21794,482.24832 205.21794,482.24832 "
     style="fill:#a9a9a9;fill-opacity:1;fill-rule:evenodd;stroke:none"
     id="polygon10"
     transform="translate(-146,0)" />
  <polygon
     points="234.29329,479.75958 232.49017,485.86832 244.21046,487.67831 251.19756,479.30707 234.29329,479.75958 234.29329,479.75958 "
     style="fill:#a9a9a9;fill-opacity:1;fill-rule:evenodd;stroke:none"
     id="polygon12"
     transform="translate(-146,0)" />
  <polygon
     points="179.29804,502.15817 184.70741,499.21692 194.84998,500.12192 194.1738,497.85947 204.31638,496.95447 202.06247,490.61954 196.65309,491.07199 188.98982,495.59699 198.23084,484.51077 209.04956,486.547 212.88121,491.97699 227.30618,487.452 229.10931,503.06317 220.54448,505.0994 219.8683,508.71939 204.54176,511.43439 175.6918,506.68317 179.29804,502.15817 179.29804,502.15817 "
     style="fill:#696969;fill-opacity:1;fill-rule:evenodd;stroke:none"
     id="polygon14"
     transform="translate(-146,0)" />
  <polygon
     points="231.814,487.67831 244.66124,488.35699 252.32454,478.4021 259.98779,479.75958 251.42296,491.75076 259.53702,490.39325 262.6925,496.04947 269.6796,496.50192 279.146,499.21692 309.3483,496.2757 301.45963,506.45691 278.69519,508.71939 262.6925,504.1944 253.00069,506.45691 231.814,504.42062 228.20775,491.07199 231.814,487.67831 231.814,487.67831 "
     style="fill:#696969;fill-opacity:1;fill-rule:evenodd;stroke:none"
     id="polygon16"
     transform="translate(-146,0)" />
  <polygon
     points="113.03327,451.25229 106.49695,441.74988 106.04617,421.84003 108.97624,416.18381 122.72507,411.20633 139.17856,419.8038 141.88324,428.85373 137.37544,440.16614 136.69927,452.38355 144.81332,456.90851 161.94298,469.12592 163.06995,488.80954 155.40666,504.64691 29.188053,505.55191 55.784119,498.08569 66.602852,485.41577 84.634087,480.21207 99.960632,470.48343 110.55398,468.67343 111.45554,456.90851 113.03327,451.25229 113.03327,451.25229 "
     style="fill:#fffacd;fill-opacity:1;fill-rule:evenodd;stroke:none"
     id="polygon18"
     transform="translate(-146,0)" />
  <polygon
     points="126.10591,419.35129 127.68366,414.14755 139.17856,420.70877 142.78481,427.94873 135.7977,441.74988 136.69927,453.74103 133.31841,454.87225 123.17584,454.87225 118.66803,440.16614 124.0774,433.60492 117.0903,423.42377 129.71216,427.94873 126.10591,419.35129 126.10591,419.35129 "
     style="fill:#f0e68c;fill-opacity:1;fill-rule:evenodd;stroke:none"
     id="polygon20"
     transform="translate(-146,0)" />
  <polygon
     points="130.16295,463.4697 136.24847,470.03091 137.82622,475.23462 144.36253,477.72336 143.91174,471.16214 138.72777,459.39722 152.92737,467.08969 149.32112,458.49222 161.04141,469.12592 162.61916,485.41577 156.98439,502.61069 110.55398,506.23062 51.27631,506.23062 68.631371,500.12192 74.040741,493.56076 86.662598,492.42947 102.89071,481.34332 104.91922,485.86832 99.284462,495.59699 113.93483,483.83206 114.611,477.72336 122.72507,477.27084 122.72507,481.34332 124.52818,485.86832 124.0774,491.52448 121.14732,498.53824 129.71216,490.39325 130.61371,479.75958 122.72507,468.67343 130.16295,463.4697 130.16295,463.4697 "
     style="fill:#f0e68c;fill-opacity:1;fill-rule:evenodd;stroke:none"
     id="polygon22"
     transform="translate(-146,0)" />
  <polygon
     points="119.5696,148.07953 111.90633,150.11577 110.55398,192.65047 115.51257,415.27881 126.55669,413.24255 123.62662,159.16571 119.5696,148.07953 119.5696,148.07953 "
     style="fill:#d2b48c;fill-opacity:1;fill-rule:evenodd;stroke:none"
     id="polygon24"
     transform="translate(-146,0)" />
  <polygon
     points="147.96878,212.78656 144.81332,226.13521 141.88324,229.75519 135.7977,230.66019 134.44536,235.41139 145.03871,243.78258 154.27971,238.35263 147.96878,212.78656 147.96878,212.78656 "
     style="fill:#a9a9a9;fill-opacity:1;fill-rule:evenodd;stroke:none"
     id="polygon26"
     transform="translate(-146,0)" />
  <polygon
     points="127.45826,167.5369 130.61371,182.92177 138.72777,190.38798 143.01019,196.27043 148.41956,202.37913 148.64494,215.04904 143.01019,230.43393 136.02309,231.33891 126.55669,235.41139 115.73796,233.37517 107.17312,222.28899 101.98914,214.59654 101.98914,205.32037 97.030556,195.59168 97.030556,189.93549 108.30007,182.24304 110.1032,190.16173 123.17584,191.97171 125.20436,170.70436 125.88052,166.1794 127.45826,167.5369 127.45826,167.5369 "
     style="fill:#ffe4e1;fill-opacity:1;fill-rule:evenodd;stroke:none"
     id="polygon28"
     transform="translate(-146,0)" />
  <polygon
     points="199.80856,401.02518 195.52615,479.98584 206.34488,480.89084 210.40192,442.8811 199.80856,401.02518 199.80856,401.02518 "
     style="fill:#ffe4e1;fill-opacity:1;fill-rule:evenodd;stroke:none"
     id="polygon30"
     transform="translate(-146,0)" />
  <polygon
     points="147.29262,199.21166 154.7305,194.23419 160.36525,132.4684 176.81874,123.41847 202.28786,118.441 211.97965,110.29606 225.95386,136.54088 257.95929,213.23906 276.66669,182.69554 277.56827,139.93459 281.62527,134.05214 298.07877,144.00707 317.68774,174.5506 324.22406,198.30666 288.16159,232.92267 220.99527,270.02737 197.32927,396.72644 176.81874,405.09763 166.22539,357.35925 166.22539,320.25452 179.29804,240.38884 147.29262,199.21166 147.29262,199.21166 "
     style="fill:#d3d3d3;fill-opacity:1;fill-rule:evenodd;stroke:none"
     id="polygon32"
     transform="translate(-146,0)" />
  <polygon
     points="193.27225,239.48386 274.41278,236.31638 284.10458,257.58374 285.68228,279.0773 279.146,306.22711 262.91788,360.5267 253.00069,412.33758 257.95929,475.00839 241.50578,476.5921 226.85541,481.56958 200.48474,480.89084 204.76715,456.90851 204.76715,406.68137 198.00545,389.26025 188.31366,291.29474 187.41209,256.905 193.27225,239.48386 193.27225,239.48386 "
     style="fill:#bc8f8f;fill-opacity:1;fill-rule:evenodd;stroke:none"
     id="polygon34"
     transform="translate(-146,0)" />
  <polygon
     points="177.72031,241.06761 177.72031,260.07245 171.86015,334.28189 178.39648,405.09763 193.94841,399.21518 193.94841,351.47678 186.73592,279.75607 187.41209,258.48874 190.79295,244.46133 177.72031,241.06761 177.72031,241.06761 "
     style="fill:#696969;fill-opacity:1;fill-rule:evenodd;stroke:none"
     id="polygon36"
     transform="translate(-146,0)" />
  <polygon
     points="228.88393,133.3734 241.95656,146.0433 251.87375,162.55943 260.88934,184.73177 257.05771,193.32919 258.41006,198.30666 268.55261,181.79054 271.4827,172.51436 270.58115,158.03445 271.93347,140.61334 278.69519,159.61821 281.62527,174.0981 282.52686,192.19797 280.04755,223.87273 279.146,245.3663 264.0448,255.095 257.50848,241.06761 237.89954,258.94122 225.50307,247.85504 234.0679,229.30269 239.92806,184.27927 235.42024,160.07069 228.88393,133.3734 228.88393,133.3734 "
     style="fill:silver;fill-opacity:1;fill-rule:evenodd;stroke:none"
     id="polygon38"
     transform="translate(-146,0)" />
  <polygon
     points="234.51868,135.40962 247.36595,132.01592 259.98779,132.01592 267.42566,144.91205 267.42566,161.20193 260.43857,183.14803 249.39445,154.64075 234.51868,135.40962 234.51868,135.40962 "
     style="fill:white;fill-opacity:1;fill-rule:evenodd;stroke:none"
     id="polygon40"
     transform="translate(-146,0)" />
  <polygon
     points="237.44876,140.38709 244.88666,134.50464 248.0421,136.54088 258.41006,134.95712 264.49561,143.55457 266.07333,167.98938 270.58115,135.86212 257.05771,126.3597 239.02649,125.9072 225.95386,130.88466 237.44876,140.38709 237.44876,140.38709 "
     style="fill:#a9a9a9;fill-opacity:1;fill-rule:evenodd;stroke:none"
     id="polygon42"
     transform="translate(-146,0)" />
  <polygon
     points="148.19417,203.28412 156.759,201.70039 170.73322,206.9041 161.71759,192.19797 163.74609,172.7406 165.77463,139.4821 174.33945,135.86212 185.38359,143.55457 181.77733,129.52718 198.00545,128.84843 204.99254,121.83473 208.82417,141.06584 224.82689,176.58682 227.98236,204.41538 233.84251,180.2068 223.92534,150.11577 222.79839,128.84843 231.814,149.43703 241.50578,181.56429 237.44876,215.7278 233.39174,230.88643 224.82689,247.85504 211.30348,260.97745 186.96132,241.06761 159.2383,242.4251 152.25121,228.39771 148.19417,203.28412 148.19417,203.28412 "
     style="fill:gray;fill-opacity:1;fill-rule:evenodd;stroke:none"
     id="polygon44"
     transform="translate(-146,0)" />
  <polygon
     points="271.93347,119.346 290.64087,137.44586 292.6694,144.45956 285.45691,139.93459 282.07605,160.07069 270.58115,133.8259 271.93347,129.52718 269.90497,122.51347 271.93347,119.346 271.93347,119.346 "
     style="fill:gray;fill-opacity:1;fill-rule:evenodd;stroke:none"
     id="polygon46"
     transform="translate(-146,0)" />
  <polygon
     points="301.23422,153.50949 306.19281,173.6456 312.05295,183.82677 317.23697,183.82677 321.74475,199.66415 311.15143,220.25276 296.50104,227.49271 290.19009,251.92752 285.00613,256.905 275.08896,237.44763 280.49832,220.9315 298.52954,181.79054 301.23422,153.50949 301.23422,153.50949 "
     style="fill:gray;fill-opacity:1;fill-rule:evenodd;stroke:none"
     id="polygon48"
     transform="translate(-146,0)" />
  <polygon
     points="216.71284,113.68979 224.37611,121.83473 228.43315,119.57224 223.92534,109.61732 241.95656,118.21475 246.46437,122.96597 252.09912,122.06097 249.39445,117.08351 255.47998,118.66725 266.07333,115.72602 270.80652,116.63101 271.4827,133.14714 255.0292,126.3597 239.92806,128.84843 236.99797,125.9072 221.22066,128.16968 217.61441,121.60848 214.00815,113.68979 216.71284,113.68979 216.71284,113.68979 "
     style="fill:#cd5c5c;fill-opacity:1;fill-rule:evenodd;stroke:none"
     id="polygon50"
     transform="translate(-146,0)" />
  <polygon
     points="205.66872,42.195316 200.93552,41.969067 199.80856,47.172779 200.25935,55.091469 208.5988,59.616436 216.71284,72.965088 225.95386,87.444977 227.08079,98.531143 227.75697,110.74856 238.57571,117.08351 244.88666,115.72602 253.90225,117.08351 261.11475,93.77993 241.2804,83.146263 231.13783,70.476357 246.23897,81.336273 260.88934,84.956245 270.35574,79.978783 278.01904,68.440117 279.59677,52.150242 269.45419,30.204153 272.15888,22.964205 264.94638,23.416702 262.46707,17.534246 251.87375,9.615554 241.73117,9.389305 228.88393,7.35307 220.99527,13.688024 216.03668,22.059212 215.58589,29.977903 223.92534,37.670349 223.92534,42.195316 216.48744,44.684048 214.00815,51.245247 208.82417,51.019001 205.66872,42.195316 205.66872,42.195316 "
     style="fill:#ffe4e1;fill-opacity:1;fill-rule:evenodd;stroke:none"
     id="polygon52"
     transform="translate(-146,0)" />
  <polygon
     points="193.27225,42.195316 190.34218,35.181618 195.97693,24.321695 196.20232,33.371632 198.68161,28.167917 202.73865,18.891737 202.96404,30.204153 204.99254,20.249226 210.40192,11.878037 220.0937,7.579319 212.65582,23.416702 210.85269,37.444099 212.20503,48.53027 219.19214,52.376492 212.43042,53.733978 208.82417,53.960228 205.44333,45.589039 205.66872,38.349094 200.25935,38.349094 195.97693,45.362793 193.27225,42.195316 193.27225,42.195316 "
     style="fill:#a9a9a9;fill-opacity:1;fill-rule:evenodd;stroke:none"
     id="polygon54"
     transform="translate(-146,0)" />
  <polygon
     points="244.88666,5.769332 252.54991,7.579319 262.6925,17.534246 262.6925,10.294299 257.50848,5.769332 244.88666,5.769332 244.88666,5.769332 "
     style="fill:#a9a9a9;fill-opacity:1;fill-rule:evenodd;stroke:none"
     id="polygon56"
     transform="translate(-146,0)" />
  <polygon
     points="232.49017,38.349094 228.65854,34.729118 229.78548,30.882895 234.74406,28.620413 239.25188,29.299158 244.88666,32.692886 243.5343,35.860363 241.05501,37.896595 235.42024,39.706585 232.49017,38.349094 232.49017,38.349094 "
     style="fill:white;fill-opacity:1;fill-rule:evenodd;stroke:none"
     id="polygon58"
     transform="translate(-146,0)" />
  <polygon
     points="239.70265,44.457798 250.29602,41.290321 253.67685,39.932831 260.88934,42.874062 264.72101,42.647812 268.10187,40.159081 272.38425,47.172779 270.35574,53.055237 263.36865,49.435261 239.47726,51.923992 239.70265,44.457798 239.70265,44.457798 "
     style="fill:white;fill-opacity:1;fill-rule:evenodd;stroke:none"
     id="polygon60"
     transform="translate(-146,0)" />
  <polygon
     points="242.85812,43.779053 239.25188,47.851524 239.25188,53.960228 256.15616,53.507732 265.39716,52.602737 272.38425,54.865223 275.99051,52.602737 268.32724,41.064072 269.90497,48.756516 265.84793,45.362793 264.27023,46.720284 259.53702,45.362793 250.97218,49.435261 251.87375,43.779053 241.50578,48.53027 242.85812,43.779053 242.85812,43.779053 "
     style="fill:#a9a9a9;fill-opacity:1;fill-rule:evenodd;stroke:none"
     id="polygon62"
     transform="translate(-146,0)" />
  <polygon
     points="271.25732,120.92973 295.82489,135.40962 302.58658,152.37827 301.9104,177.26558 293.34558,201.92664 276.44128,236.09015 280.72369,190.84047 279.82214,164.36942 273.06045,144.68582 272.15888,160.97569 267.87647,176.36058 256.83234,195.13919 253.45148,177.26558 241.50578,149.88951 228.88393,133.59964 239.02649,139.70836 252.54991,158.48695 260.2132,179.7543 267.65109,148.53203 264.0448,130.88466 270.80652,133.59964 279.82214,147.40079 285.68228,168.66814 285.68228,204.41538 294.24713,180.65929 294.92331,155.77197 289.06314,136.31462 271.25732,120.92973 271.25732,120.92973 "
     style="fill:black;fill-opacity:1;fill-rule:evenodd;stroke:none"
     id="polygon64"
     transform="translate(-146,0)" />
  <polygon
     points="218.29057,108.03358 208.14801,104.63985 201.38629,113.23729 201.38629,118.21475 207.24644,138.80336 215.81128,160.97569 223.24916,183.14803 225.50307,209.61908 228.43315,191.97171 224.6015,170.70436 213.1066,143.55457 205.44333,120.92973 210.17653,112.78479 216.03668,120.02473 228.88393,146.0433 237.67415,173.6456 237.22336,201.47414 232.71556,226.58771 224.6015,244.46133 212.65582,259.39371 207.24644,255.5475 193.94841,241.5201 186.73592,236.09015 179.97421,242.4251 192.37068,247.40256 212.20503,266.63367 220.31909,256.45248 225.05229,251.24876 239.02649,264.14493 246.68976,256 256.38156,245.3663 259.08621,254.6425 262.46707,264.14493 266.97488,261.65619 269.90497,255.5475 280.9491,248.30754 278.92056,243.78258 265.39716,254.41626 258.18466,239.93636 259.31165,229.52893 251.87375,243.78258 238.12492,256.45248 227.08079,245.8188 235.64563,228.39771 240.82962,203.51038 242.40735,180.2068 239.02649,160.97569 228.43315,132.01592 220.31909,125.9072 218.74136,118.66725 213.1066,110.97481 218.29057,108.03358 218.29057,108.03358 "
     style="fill:black;fill-opacity:1;fill-rule:evenodd;stroke:none"
     id="polygon66"
     transform="translate(-146,0)" />
  <polygon
     points="240.37883,117.536 222.12221,106.67609 216.93823,108.48608 229.78548,116.17852 237.22336,118.66725 232.71556,121.38223 239.47726,123.41847 219.8683,126.8122 226.40463,132.01592 236.99797,127.71718 239.02649,130.65842 251.87375,129.30093 253.90225,122.06097 249.61983,126.3597 239.47726,126.8122 243.3089,124.32346 240.37883,117.536 240.37883,117.536 "
     style="fill:black;fill-opacity:1;fill-rule:evenodd;stroke:none"
     id="polygon68"
     transform="translate(-146,0)" />
  <polygon
     points="241.05501,116.17852 248.26749,114.82103 253.00069,117.08351 267.87647,113.23729 274.18741,116.63101 272.60968,122.06097 274.18741,129.30093 270.35574,135.86212 259.31165,130.65842 250.07062,128.16968 253.90225,125.22845 259.76242,125.9072 270.35574,132.4684 267.42566,122.06097 270.35574,118.21475 265.84793,115.72602 253.90225,120.02473 249.61983,117.08351 241.05501,116.17852 241.05501,116.17852 "
     style="fill:black;fill-opacity:1;fill-rule:evenodd;stroke:none"
     id="polygon70"
     transform="translate(-146,0)" />
  <polygon
     points="296.72641,141.74458 315.43381,166.85815 329.40802,193.32919 327.37952,203.28412 309.57367,226.58771 295.82489,236.76888 294.69791,252.15376 284.78073,265.50241 282.30142,261.20371 278.92056,248.30754 274.63818,237.67387 282.30142,242.87758 286.58386,254.6425 290.8663,244.46133 291.54245,234.28015 298.75491,221.15775 305.74207,189.03049 306.86899,205.77286 303.03735,223.64647 315.88461,205.77286 323.54788,195.59168 319.26547,180.65929 308.22134,168.21564 296.72641,141.74458 296.72641,141.74458 "
     style="fill:black;fill-opacity:1;fill-rule:evenodd;stroke:none"
     id="polygon72"
     transform="translate(-146,0)" />
  <polygon
     points="205.8941,111.8798 196.65309,119.11975 175.46642,120.92973 162.61916,127.26468 158.33673,136.31462 155.40666,154.18825 153.82892,177.26558 150.44807,193.78169 140.98167,194.23419 148.19417,203.51038 148.64494,217.99028 151.57503,238.12637 142.33403,240.61511 131.28989,231.79141 133.76918,238.57887 143.91174,247.85504 149.54651,250.11754 161.4922,246.7238 181.32655,243.33008 189.89139,236.09015 192.37068,221.15775 201.61168,202.37913 206.79567,177.49182 204.31638,166.40566 197.55466,152.37827 200.03395,175.90808 197.10388,195.59168 186.05974,215.95403 187.18671,229.30269 177.94571,239.48386 167.80313,238.12637 162.16838,241.06761 154.95589,230.43393 154.27971,214.59654 150.89885,199.43791 158.78751,198.53291 172.31094,208.71408 168.70468,199.43791 158.11136,189.48299 161.04141,155.77197 163.06995,137.44586 168.93008,132.01592 182.67889,137.89836 175.46642,125.9072 185.15819,123.41847 197.55466,124.32346 202.96404,119.57224 205.8941,111.8798 205.8941,111.8798 "
     style="fill:black;fill-opacity:1;fill-rule:evenodd;stroke:none"
     id="polygon74"
     transform="translate(-146,0)" />
  <polygon
     points="106.72234,182.69554 93.875092,189.03049 93.875092,201.02164 99.059067,204.86787 99.960632,215.95403 104.46844,221.83649 107.17312,228.85019 109.20164,236.54263 128.58521,239.03136 138.95316,231.79141 140.53088,225.00397 136.47386,220.25276 138.95316,214.14404 138.50238,205.77286 131.28989,201.47414 122.72507,205.32037 111.45554,203.28412 122.72507,210.52408 133.76918,207.3566 135.12154,210.52408 132.86763,219.34776 132.64224,222.74149 135.12154,225.23022 133.31841,231.33891 120.24577,232.92267 112.13171,226.58771 113.93483,224.09897 103.34148,215.04904 103.79227,205.77286 99.059067,198.53291 98.157501,191.29297 106.72234,184.73177 106.72234,182.69554 106.72234,182.69554 "
     style="fill:black;fill-opacity:1;fill-rule:evenodd;stroke:none"
     id="polygon76"
     transform="translate(-146,0)" />
  <polygon
     points="124.52818,180.2068 123.17584,189.48299 111.90633,191.06671 111.00475,160.29694 110.77937,146.9483 117.76647,146.0433 120.69655,148.53203 122.72507,170.70436 124.97897,177.49182 126.3313,166.6319 125.42973,149.66328 121.14732,144.23332 114.38562,142.64957 110.55398,143.78082 105.59539,148.07953 108.97624,188.12549 106.04617,192.19797 121.37271,194.23419 129.93756,191.97171 124.52818,180.2068 124.52818,180.2068 "
     style="fill:black;fill-opacity:1;fill-rule:evenodd;stroke:none"
     id="polygon78"
     transform="translate(-146,0)" />
  <polygon
     points="128.13441,164.82191 131.74068,169.79938 130.38832,177.26558 133.76918,184.50552 140.08012,186.54175 141.88324,195.13919 140.53088,204.86787 137.15004,189.48299 130.16295,184.95802 127.23287,171.15686 124.75358,165.04817 128.13441,164.82191 128.13441,164.82191 "
     style="fill:black;fill-opacity:1;fill-rule:evenodd;stroke:none"
     id="polygon80"
     transform="translate(-146,0)" />
  <polygon
     points="255.25461,117.08351 259.76242,104.18736 266.29874,94.911171 274.63818,89.707458 281.39987,78.621292 283.65378,56.901455 280.27292,42.874062 269.22882,29.977903 275.99051,42.874062 278.92056,53.507732 279.37137,70.023857 274.63818,79.526283 268.32724,88.349968 259.08621,88.349968 245.78819,84.503746 229.78548,70.023857 237.67415,82.467514 241.50578,87.671227 257.28311,93.55368 258.63544,96.947411 253.90225,105.99735 251.87375,117.08351 255.25461,117.08351 255.25461,117.08351 "
     style="fill:black;fill-opacity:1;fill-rule:evenodd;stroke:none"
     id="polygon82"
     transform="translate(-146,0)" />
  <polygon
     points="222.12221,108.48608 220.31909,91.517448 214.00815,70.023857 205.8941,59.390186 197.78006,56.901455 193.94841,49.209015 193.72302,43.779053 196.65309,38.122845 202.51325,36.086609 206.79567,37.896595 206.11951,42.421562 202.96404,39.932831 198.68161,40.159081 197.55466,44.457798 198.23084,50.566502 203.86559,56.448959 208.82417,56.901455 211.97965,56.901455 211.07809,61.652668 217.38901,71.381348 223.69995,89.707458 225.05229,110.29606 222.12221,108.48608 222.12221,108.48608 "
     style="fill:black;fill-opacity:1;fill-rule:evenodd;stroke:none"
     id="polygon84"
     transform="translate(-146,0)" />
  <polygon
     points="208.82417,44.910294 211.97965,53.960228 219.8683,52.150242 213.55739,46.720284 211.97965,33.824127 214.45894,22.285461 220.31909,11.65179 226.40463,6.674325 238.57571,4.411842 233.16634,1.018117 222.573,0.113124 210.17653,3.054352 205.8941,7.35307 197.55466,9.615554 192.37068,14.366769 189.44061,21.606716 189.44061,39.02784 193.94841,44.457798 190.56757,34.729118 193.27225,19.79673 200.48474,11.65179 198.23084,18.891737 206.79567,10.520547 214.00815,5.769332 224.6015,3.506849 212.65582,11.65179 204.99254,21.606716 204.31638,29.525408 210.6273,21.606716 208.5988,33.371632 208.82417,44.910294 208.82417,44.910294 "
     style="fill:black;fill-opacity:1;fill-rule:evenodd;stroke:none"
     id="polygon86"
     transform="translate(-146,0)" />
  <polygon
     points="233.16634,3.959346 244.88666,1.018117 254.35304,1.923111 259.31165,6.221828 262.91788,18.43924 256.38156,8.258063 252.54991,4.411842 244.21046,3.959346 251.87375,7.35307 241.05501,7.35307 233.16634,3.959346 233.16634,3.959346 "
     style="fill:black;fill-opacity:1;fill-rule:evenodd;stroke:none"
     id="polygon88"
     transform="translate(-146,0)" />
  <polygon
     points="232.94095,38.57534 235.42024,36.539108 237.67415,39.02784 241.05501,37.896595 239.70265,34.502872 236.77258,31.335394 231.58861,31.787889 230.46166,35.181618 232.94095,38.57534 232.94095,38.57534 "
     style="fill:black;fill-opacity:1;fill-rule:evenodd;stroke:none"
     id="polygon90"
     transform="translate(-146,0)" />
  <polygon
     points="253.00069,11.65179 253.45148,18.212992 259.31165,21.832964 266.29874,22.285461 272.38425,20.022978 275.08896,21.832964 273.06045,27.489172 268.77801,31.787889 267.87647,39.02784 260.66394,41.969067 253.90225,38.57534 254.80383,34.729118 258.63544,37.21785 264.0448,36.312859 266.29874,29.525408 270.35574,24.095448 261.56552,25.905434 252.77531,22.511709 249.16905,16.855501 253.00069,11.65179 253.00069,11.65179 "
     style="fill:black;fill-opacity:1;fill-rule:evenodd;stroke:none"
     id="polygon92"
     transform="translate(-146,0)" />
  <polygon
     points="250.52139,56.675209 259.98779,61.426426 268.55261,63.010159 274.86356,59.163937 273.06045,64.820145 269.22882,67.761375 260.88934,66.403885 255.70537,63.462658 250.52139,56.675209 250.52139,56.675209 "
     style="fill:black;fill-opacity:1;fill-rule:evenodd;stroke:none"
     id="polygon94"
     transform="translate(-146,0)" />
  <polygon
     points="281.85065,249.21254 287.03464,273.19486 285.90772,296.04593 272.15888,337.67563 259.31165,388.80774 256.83234,420.70877 259.31165,451.47855 262.46707,480.89084 249.61983,479.30707 227.08079,482.47458 237.89954,475.23462 256.15616,475.23462 253.67685,448.98981 252.77531,425.23377 249.61983,434.50992 247.14053,458.71851 244.43587,434.9624 248.0421,413.92133 243.98508,395.36896 252.77531,391.74899 257.28311,364.37293 264.94638,319.57578 268.10187,282.01855 269.6796,302.15466 268.10187,334.50815 279.82214,296.49844 283.87915,272.74237 279.37137,249.21254 281.85065,249.21254 281.85065,249.21254 "
     style="fill:black;fill-opacity:1;fill-rule:evenodd;stroke:none"
     id="polygon96"
     transform="translate(-146,0)" />
  <polygon
     points="174.79024,241.29384 173.66327,264.59741 164.42227,320.707 164.42227,354.64426 169.60626,382.02033 176.36797,408.71759 190.11678,404.64514 193.27225,423.87625 194.84998,448.53729 190.11678,480.89084 197.32927,482.92706 214.23355,484.96332 227.08079,482.02206 230.01088,432.24744 225.95386,398.98895 233.39174,350.57178 241.50578,317.76578 231.814,308.71585 225.95386,337.67563 223.02377,363.92044 222.3476,415.50507 222.3476,469.57843 216.26207,480.89084 198.907,478.4021 197.32927,471.61466 200.93552,409.84888 203.41481,432.47369 206.57027,469.12592 208.5988,421.61377 208.14801,388.80774 201.38629,385.18777 200.48474,351.02429 204.99254,289.711 196.20232,336.77063 192.14529,311.43082 189.21521,275.45734 199.80856,263.91867 202.96404,257.80997 196.87849,263.46619 189.21521,267.76492 189.21521,256.905 190.11678,246.04507 184.9328,253.7375 184.03124,271.83737 184.03124,293.33096 188.08827,342.42685 192.37068,379.53159 192.37068,397.63144 184.03124,400.57266 177.94571,402.60892 173.21251,379.53159 168.02853,341.29562 171.63477,298.98715 178.39648,263.0137 180.87578,239.25761 174.79024,241.29384 174.79024,241.29384 "
     style="fill:black;fill-opacity:1;fill-rule:evenodd;stroke:none"
     id="polygon98"
     transform="translate(-146,0)" />
  <polygon
     points="126.55669,234.73265 131.28989,415.27881 124.97897,413.46884 123.62662,256.905 116.86491,246.95006 118.89342,412.33758 114.8364,414.37384 111.23015,231.11269 126.55669,234.73265 126.55669,234.73265 "
     style="fill:black;fill-opacity:1;fill-rule:evenodd;stroke:none"
     id="polygon100"
     transform="translate(-146,0)" />
  <polygon
     points="113.25867,455.09854 104.01765,442.20236 101.98914,432.02118 103.1161,419.12503 106.04617,416.41006 115.73796,412.33758 128.13441,411.43259 138.95316,416.41006 145.03871,426.36499 143.46097,436.54614 137.37544,446.50107 143.01019,455.09854 133.31841,453.51477 132.19145,440.16614 125.65513,444.91733 125.65513,455.09854 120.92193,451.02603 120.92193,441.29736 127.23287,438.12988 127.23287,423.19748 131.74068,431.34244 131.28989,434.9624 137.82622,434.9624 139.85474,423.64999 132.19145,417.99381 121.37271,415.05255 111.23015,417.08881 107.17312,422.74503 108.07468,429.98496 106.04617,436.54614 110.77937,445.82233 112.80788,439.26114 116.86491,451.47855 113.25867,455.09854 113.25867,455.09854 "
     style="fill:black;fill-opacity:1;fill-rule:evenodd;stroke:none"
     id="polygon102"
     transform="translate(-146,0)" />
  <polygon
     points="138.95316,453.06229 154.7305,458.71851 164.42227,470.03091 165.54924,489.71454 159.46368,506.68317 153.15276,507.81439 122.49967,508.26685 86.662598,508.26685 72.237617,509.85062 52.177872,508.71939 26.257978,507.13562 22.651733,503.06317 26.257978,497.85947 43.613037,498.99069 52.177872,497.40692 62.54583,485.41577 74.266129,480.43835 95.452827,479.30707 68.631371,486.99954 61.41888,493.33447 58.488804,498.53824 36.400547,504.64691 67.729813,503.96817 82.605576,496.95447 103.56687,486.99954 90.71962,496.95447 83.056351,503.51569 98.833679,503.06317 107.17312,495.3707 121.37271,484.51077 116.86491,493.33447 112.3571,503.06317 126.55669,499.44318 136.24847,488.58331 135.7977,481.34332 127.23287,475.6871 127.23287,470.03091 130.61371,462.33847 132.64224,467.08969 130.16295,473.1984 136.92465,476.81836 143.01019,482.92706 143.01019,493.33447 135.34692,501.47946 150.67346,493.33447 153.15276,480.43835 147.518,476.13962 140.98167,472.06714 143.46097,465.95847 136.92465,459.84973 146.61644,464.37469 148.19417,471.16214 154.27971,474.7821 157.43518,484.96332 154.7305,499.44318 161.94298,485.41577 161.04141,469.57843 152.70198,461.88596 138.95316,453.06229 138.95316,453.06229 "
     style="fill:black;fill-opacity:1;fill-rule:evenodd;stroke:none"
     id="polygon104"
     transform="translate(-146,0)" />
  <polygon
     points="114.38562,451.47855 110.77937,454.19354 110.77937,463.92218 107.6239,469.12592 97.481339,470.03091 90.71962,474.10339 81.478622,480.89084 86.662598,480.89084 96.805168,473.1984 107.17312,472.74588 115.73796,469.57843 117.31569,462.33847 112.80788,456.68225 114.38562,451.47855 114.38562,451.47855 "
     style="fill:black;fill-opacity:1;fill-rule:evenodd;stroke:none"
     id="polygon106"
     transform="translate(-146,0)" />
  <polygon
     points="214.23355,493.78699 208.14801,482.47458 195.75154,482.02206 186.51053,493.33447 174.33945,499.44318 173.66327,507.13562 182.00273,510.75561 205.44333,510.3031 199.35779,501.93192 184.9328,501.47946 178.39648,504.64691 178.39648,499.89569 189.666,495.3707 198.45622,486.99954 204.09097,486.547 214.23355,493.78699 214.23355,493.78699 "
     style="fill:black;fill-opacity:1;fill-rule:evenodd;stroke:none"
     id="polygon108"
     transform="translate(-146,0)" />
  <polygon
     points="212.65582,491.29825 220.31909,487.67831 218.29057,481.34332 222.3476,479.30707 223.92534,484.96332 229.10931,490.16699 233.16634,503.96817 226.63002,505.0994 225.95386,509.17184 204.99254,511.88684 218.29057,508.26685 218.29057,499.44318 222.3476,502.61069 227.98236,501.47946 225.50307,489.03577 220.99527,490.61954 214.68433,493.78699 212.65582,491.29825 212.65582,491.29825 "
     style="fill:black;fill-opacity:1;fill-rule:evenodd;stroke:none"
     id="polygon110"
     transform="translate(-146,0)" />
  <polygon
     points="232.26477,480.43835 225.05229,488.58331 229.10931,492.20325 232.26477,487.67831 245.56281,490.16699 253.67685,478.85458 250.07062,478.85458 241.95656,485.41577 234.74406,484.96332 235.64563,480.43835 232.26477,480.43835 232.26477,480.43835 "
     style="fill:black;fill-opacity:1;fill-rule:evenodd;stroke:none"
     id="polygon112"
     transform="translate(-146,0)" />
  <polygon
     points="257.28311,477.72336 268.55261,488.13077 289.06314,493.78699 311.60217,494.23947 314.75766,499.89569 302.81198,508.26685 274.63818,510.75561 261.34015,505.0994 257.28311,509.17184 230.01088,506.68317 230.01088,501.47946 255.25461,503.96817 260.43857,501.47946 278.24442,507.13562 299.43112,505.0994 300.78348,499.89569 306.41821,496.95447 287.48544,496.95447 268.10187,492.88199 257.28311,477.72336 257.28311,477.72336 "
     style="fill:black;fill-opacity:1;fill-rule:evenodd;stroke:none"
     id="polygon114"
     transform="translate(-146,0)" />
  <polygon
     points="147.518,201.24789 150.44807,213.4653 147.06722,220.70526 147.06722,226.81395 143.68636,232.47017 136.69927,232.47017 137.15004,227.94521 142.78481,229.07643 144.81332,222.51524 144.13715,217.08528 142.78481,207.8091 145.71487,213.4653 147.29262,209.84534 147.518,201.24789 147.518,201.24789 "
     style="fill:black;fill-opacity:1;fill-rule:evenodd;stroke:none"
     id="polygon116"
     transform="translate(-146,0)" />
  <polygon
     points="250.29602,41.064072 239.70265,43.552807 235.87103,53.507732 240.15344,56.901455 254.35304,54.638973 262.6925,55.996464 265.39716,54.412724 269.22882,57.127705 276.21591,56.222713 277.34283,53.055237 274.18741,44.684048 268.32724,40.159081 273.5112,52.602737 271.03192,53.281483 266.07333,47.172779 264.72101,50.566502 261.34015,51.471497 260.2132,46.720284 258.41006,49.88776 250.52139,51.697746 251.42296,46.720284 246.0136,49.66151 239.70265,54.186478 239.70265,49.209015 243.75967,44.684048 250.29602,41.064072 250.29602,41.064072 "
     style="fill:black;fill-opacity:1;fill-rule:evenodd;stroke:none"
     id="polygon118"
     transform="translate(-146,0)" />
  <polygon
     points="245.56281,20.022978 237.89954,15.49801 229.56009,17.307999 224.82689,18.891737 223.69995,23.416702 224.82689,27.941668 231.13783,21.154219 239.92806,18.665487 245.56281,20.022978 245.56281,20.022978 "
     style="fill:#a9a9a9;fill-opacity:1;fill-rule:evenodd;stroke:none"
     id="polygon120"
     transform="translate(-146,0)" />
  <polygon
     points="226.17925,27.489172 226.63002,22.737957 231.13783,18.891737 239.25188,17.307999 246.46437,20.249226 234.96947,20.701723 230.46166,24.095448 226.17925,27.489172 226.17925,27.489172 "
     style="fill:black;fill-opacity:1;fill-rule:evenodd;stroke:none"
     id="polygon122"
     transform="translate(-146,0)" />
  <polygon
     points="250.74678,138.5771 250.74678,142.19708 252.77531,143.78082 254.80383,139.70836 250.74678,138.5771 250.74678,138.5771 "
     style="fill:black;fill-opacity:1;fill-rule:evenodd;stroke:none"
     id="polygon124"
     transform="translate(-146,0)" />
  <polygon
     points="255.93077,154.64075 254.80383,159.16571 256.83234,161.20193 259.08621,157.80821 255.93077,154.64075 255.93077,154.64075 "
     style="fill:black;fill-opacity:1;fill-rule:evenodd;stroke:none"
     id="polygon126"
     transform="translate(-146,0)" />
  <polygon
     points="266.07333,211.65532 273.7366,209.61908 268.10187,215.2753 272.38425,218.44276 268.10187,220.479 270.80652,231.33891 264.0448,219.57401 266.07333,211.65532 266.07333,211.65532 "
     style="fill:black;fill-opacity:1;fill-rule:evenodd;stroke:none"
     id="polygon128"
     transform="translate(-146,0)" />
  <polygon
     points="253.90225,215.95403 253.90225,211.88156 258.41006,209.61908 260.43857,212.33406 258.86084,218.89526 253.90225,215.95403 253.90225,215.95403 "
     style="fill:#f0e68c;fill-opacity:1;fill-rule:evenodd;stroke:none"
     id="polygon130"
     transform="translate(-146,0)" />
  <polygon
     points="253.90225,211.88156 252.77531,216.85902 255.93077,220.0265 259.53702,219.57401 260.88934,216.85902 260.43857,211.88156 257.05771,217.31152 253.90225,211.88156 253.90225,211.88156 "
     style="fill:black;fill-opacity:1;fill-rule:evenodd;stroke:none"
     id="polygon132"
     transform="translate(-146,0)" />
  <rect
     style="opacity:1;fill:black;fill-opacity:1;fill-rule:nonzero;stroke:none;stroke-width:1;stroke-linecap:square;stroke-linejoin:round;stroke-miterlimit:4;stroke-dasharray:1, 1;stroke-dashoffset:0;stroke-opacity:1"
     id="rect2019"
     width="169.63629"
     height="4.4124479"
     x="8.7059698"
     y="187.69066" />
</svg>
