<svg xmlns="http://www.w3.org/2000/svg" xmlns:cc="http://web.resource.org/cc/" xmlns:svg="http://www.w3.org/2000/svg" xmlns:xlink="http://www.w3.org/1999/xlink" id="svg2327" width="48" height="48"><defs id="defs3"><linearGradient id="linearGradient2985"><stop id="stop2987" offset="0" style="stop-color:#d8dfd6;stop-opacity:1"/><stop id="stop2989" offset="1" style="stop-color:#d8dfd6;stop-opacity:0"/></linearGradient><linearGradient id="linearGradient2752"><stop id="stop2754" offset="0" style="stop-color:#9d9d9d;stop-opacity:1"/><stop id="stop2756" offset="1" style="stop-color:#b9b9b9;stop-opacity:1"/></linearGradient><linearGradient id="linearGradient2711"><stop id="stop2713" offset="0" style="stop-color:#909090;stop-opacity:1"/><stop id="stop2715" offset="1" style="stop-color:#bebebe;stop-opacity:0"/></linearGradient><linearGradient id="linearGradient2701"><stop id="stop2703" offset="0" style="stop-color:#585956;stop-opacity:1"/><stop id="stop2705" offset="1" style="stop-color:#bbbeb8;stop-opacity:1"/></linearGradient><linearGradient id="linearGradient2691"><stop id="stop2693" offset="0" style="stop-color:#868686;stop-opacity:1"/><stop id="stop2695" offset="1" style="stop-color:#e9e9e9;stop-opacity:1"/></linearGradient><linearGradient id="linearGradient2683"><stop id="stop2685" offset="0" style="stop-color:#000;stop-opacity:1"/><stop id="stop2687" offset="1" style="stop-color:#000;stop-opacity:0"/></linearGradient><linearGradient id="linearGradient2675"><stop id="stop2677" offset="0" style="stop-color:#5b5b97;stop-opacity:1"/><stop id="stop2679" offset="1" style="stop-color:#1b1b43;stop-opacity:1"/></linearGradient><linearGradient id="linearGradient2667"><stop id="stop2669" offset="0" style="stop-color:#fff;stop-opacity:1"/><stop id="stop2671" offset="1" style="stop-color:#fcfcff;stop-opacity:0"/></linearGradient><linearGradient id="linearGradient2635"><stop id="stop2637" offset="0" style="stop-color:#f9fff5;stop-opacity:1"/><stop id="stop2639" offset="1" style="stop-color:#f9fff5;stop-opacity:0"/></linearGradient><linearGradient id="linearGradient2623"><stop id="stop2625" offset="0" style="stop-color:#dfdfde;stop-opacity:1"/><stop id="stop2627" offset="1" style="stop-color:#9d9f9a;stop-opacity:1"/></linearGradient><linearGradient id="linearGradient2454"><stop style="stop-color:#000;stop-opacity:1" id="stop2456" offset="0"/><stop style="stop-color:#000;stop-opacity:0" id="stop2458" offset="1"/></linearGradient><linearGradient id="linearGradient2415"><stop style="stop-color:#fff;stop-opacity:1" id="stop2417" offset="0"/><stop style="stop-color:#fff;stop-opacity:0" id="stop2419" offset="1"/></linearGradient><linearGradient id="linearGradient2379"><stop style="stop-color:#1a4876;stop-opacity:1" id="stop2381" offset="0"/><stop style="stop-color:#3f54a3;stop-opacity:0" id="stop2383" offset="1"/></linearGradient><linearGradient id="linearGradient2328"><stop style="stop-color:#fff;stop-opacity:1" id="stop2330" offset="0"/><stop style="stop-color:#fff;stop-opacity:0" id="stop2332" offset="1"/></linearGradient><linearGradient id="linearGradient2307"><stop style="stop-color:#5a7aa4;stop-opacity:1" id="stop2309" offset="0"/><stop style="stop-color:#5a7aa4;stop-opacity:0" id="stop2311" offset="1"/></linearGradient><linearGradient id="linearGradient2253"><stop style="stop-color:#8f8f8f;stop-opacity:1" id="stop2255" offset="0"/><stop style="stop-color:#494949;stop-opacity:1" id="stop2257" offset="1"/></linearGradient><linearGradient id="linearGradient2245"><stop style="stop-color:#dde1d9;stop-opacity:1" id="stop2247" offset="0"/><stop style="stop-color:#cacdc6;stop-opacity:1" id="stop2249" offset="1"/></linearGradient><linearGradient id="linearGradient2251" x1="8.612" x2="34.784" y1="7.229" y2="33.34" gradientTransform="matrix(1.129863,0.000000,0.000000,0.885063,-1.625000,-1.304372)" gradientUnits="userSpaceOnUse" xlink:href="#linearGradient2245"/><linearGradient id="linearGradient2313" x1="16.852" x2="24.419" y1="9.324" y2="53.735" gradientTransform="matrix(1.208393,0.000000,0.000000,0.984410,-0.789284,-0.503380)" gradientUnits="userSpaceOnUse" xlink:href="#linearGradient2307"/><linearGradient id="linearGradient2334" x1="16.119" x2="27.289" y1="10.842" y2="39.032" gradientTransform="matrix(1.289166,0.000000,0.000000,0.922731,-0.789284,-0.503380)" gradientUnits="userSpaceOnUse" xlink:href="#linearGradient2328"/><linearGradient id="linearGradient2421" x1="17.698" x2="34.975" y1="13.005" y2="55.201" gradientTransform="matrix(1.108069,0.000000,0.000000,0.902471,1.000000,1.000000)" gradientUnits="userSpaceOnUse" xlink:href="#linearGradient2415"/><linearGradient id="linearGradient2445" x1="21.356" x2="19.995" y1="30.078" y2="-1.322" gradientTransform="matrix(1.027870,0.000000,0.000000,0.822296,1.523986,1.001198)" gradientUnits="userSpaceOnUse" xlink:href="#linearGradient2379"/><radialGradient id="radialGradient2460" cx="12.576" cy="67.502" r="8.766" fx="12.576" fy="67.502" gradientTransform="scale(1.925808,0.519262)" gradientUnits="userSpaceOnUse" xlink:href="#linearGradient2454"/><radialGradient id="radialGradient2464" cx="12.576" cy="67.502" r="8.766" fx="12.576" fy="67.502" gradientTransform="scale(1.925808,0.519262)" gradientUnits="userSpaceOnUse" xlink:href="#linearGradient2454"/><linearGradient id="linearGradient2653" x1="10.728" x2="10.728" y1="84.029" y2="92.571" gradientTransform="scale(1.983556,0.504145)" gradientUnits="userSpaceOnUse" xlink:href="#linearGradient2623"/><linearGradient id="linearGradient2655" x1="13.629" x2="8.649" y1="101.285" y2="74.098" gradientTransform="scale(2.143634,0.466498)" gradientUnits="userSpaceOnUse" xlink:href="#linearGradient2635"/><radialGradient id="radialGradient2659" cx="12.576" cy="67.502" r="8.766" fx="12.576" fy="67.502" gradientTransform="scale(1.925808,0.519262)" gradientUnits="userSpaceOnUse" xlink:href="#linearGradient2454"/><linearGradient id="linearGradient2673" x1="11.492" x2="17.199" y1="1.654" y2="26.729" gradientTransform="matrix(1.238977,0.000000,0.000000,0.895955,0.590553,-1.331524)" gradientUnits="userSpaceOnUse" xlink:href="#linearGradient2667"/><linearGradient id="linearGradient2681" x1="19.15" x2="16.316" y1="32.622" y2="8.867" gradientTransform="matrix(1.174139,0.000000,0.000000,0.945431,0.721825,-1.331524)" gradientUnits="userSpaceOnUse" xlink:href="#linearGradient2675"/><linearGradient id="linearGradient2689" x1="3.707" x2="3.707" y1="171.291" y2="162.451" gradientTransform="matrix(5.705159,0.000000,0.000000,0.175280,1.000000,-0.679373)" gradientUnits="userSpaceOnUse" xlink:href="#linearGradient2683"/><linearGradient id="linearGradient2707" x1="12.207" x2="12.128" y1="53.535" y2="64.893" gradientTransform="scale(1.816345,0.550556)" gradientUnits="userSpaceOnUse" xlink:href="#linearGradient2701"/><linearGradient id="linearGradient2717" x1="34.301" x2="35.521" y1="3.938" y2="3.845" gradientUnits="userSpaceOnUse" xlink:href="#linearGradient2711"/><linearGradient id="linearGradient2721" x1="34.301" x2="35.521" y1="3.938" y2="3.845" gradientUnits="userSpaceOnUse" xlink:href="#linearGradient2711"/><linearGradient id="linearGradient2725" x1="34.301" x2="35.521" y1="3.938" y2="3.845" gradientUnits="userSpaceOnUse" xlink:href="#linearGradient2711"/><linearGradient id="linearGradient2729" x1="34.301" x2="35.521" y1="3.938" y2="3.845" gradientUnits="userSpaceOnUse" xlink:href="#linearGradient2711"/><linearGradient id="linearGradient2733" x1="34.301" x2="35.521" y1="3.938" y2="3.845" gradientUnits="userSpaceOnUse" xlink:href="#linearGradient2711"/><linearGradient id="linearGradient2741" x1="13.629" x2="8.649" y1="101.285" y2="74.098" gradientTransform="matrix(2.143634,0.000000,0.000000,0.466498,1.000000,-0.508826)" gradientUnits="userSpaceOnUse" xlink:href="#linearGradient2635"/><linearGradient id="linearGradient2758" x1="8.113" x2="8.113" y1="88.509" y2="100.2" gradientTransform="scale(2.309851,0.432928)" gradientUnits="userSpaceOnUse" xlink:href="#linearGradient2752"/><linearGradient id="linearGradient2979" x1="10.391" x2="32.537" y1="5.382" y2="31.246" gradientTransform="scale(1.104397,0.905471)" gradientUnits="userSpaceOnUse" xlink:href="#linearGradient2253"/><linearGradient id="linearGradient2981" x1="18.317" x2="18.177" y1="48.643" y2="52.536" gradientTransform="scale(1.129863,0.885063)" gradientUnits="userSpaceOnUse" xlink:href="#linearGradient2245"/><linearGradient id="linearGradient2991" x1="-23.886" x2="-23.886" y1="49.953" y2="44.879" gradientTransform="scale(1.492875,0.669848)" gradientUnits="userSpaceOnUse" xlink:href="#linearGradient2985"/><linearGradient id="linearGradient1409" x1="8.113" x2="8.113" y1="88.509" y2="100.2" gradientTransform="scale(2.309851,0.432928)" gradientUnits="userSpaceOnUse" xlink:href="#linearGradient2752"/><linearGradient id="linearGradient1411" x1="8.113" x2="8.113" y1="88.509" y2="100.2" gradientTransform="scale(2.309851,0.432928)" gradientUnits="userSpaceOnUse" xlink:href="#linearGradient2752"/><linearGradient id="linearGradient1413" x1="10.391" x2="32.537" y1="5.382" y2="31.246" gradientTransform="scale(1.104397,0.905471)" gradientUnits="userSpaceOnUse" xlink:href="#linearGradient2253"/><radialGradient id="radialGradient2601" cx="24.446" cy="35.878" r="20.531" fx="24.446" fy="35.878" gradientTransform="matrix(1.995058,-1.383691e-32,0,1.67151,28.3785,-53.54954)" gradientUnits="userSpaceOnUse" xlink:href="#linearGradient11520"/><linearGradient id="linearGradient2596" x1="20.092" x2="31.799" y1="8.947" y2="38.947" gradientTransform="matrix(1.061966,0,0,0.837825,51.18857,-24.35659)" gradientUnits="userSpaceOnUse" xlink:href="#linearGradient11594"/><linearGradient id="linearGradient2594" x1="24.446" x2="24.446" y1="12.947" y2="39.447" gradientTransform="matrix(1,0,0,0.837825,52.70338,-24.35659)" gradientUnits="userSpaceOnUse" xlink:href="#linearGradient11602"/><radialGradient id="radialGradient2591" cx="25" cy="27.75" r="4.75" fx="25" fy="27.75" gradientTransform="matrix(3.070491,2.727143e-15,-3.444813e-15,3.878514,0.31613,-107.1787)" gradientUnits="userSpaceOnUse" xlink:href="#linearGradient11615"/><linearGradient id="linearGradient2588" x1="21.5" x2="21.5" y1="30" y2="27.375" gradientTransform="matrix(0.985,0,0,1.022813,53.90276,-31.16009)" gradientUnits="userSpaceOnUse" xlink:href="#linearGradient11625"/><linearGradient id="linearGradient2585" x1="21.5" x2="21.5" y1="30" y2="27.375" gradientTransform="matrix(0.985,0,0,1,55.89338,-30.52133)" gradientUnits="userSpaceOnUse" xlink:href="#linearGradient11625"/><linearGradient id="linearGradient2582" x1="21.5" x2="21.5" y1="30" y2="27.375" gradientTransform="matrix(1.01625,0,0,1,57.23713,-30.52133)" gradientUnits="userSpaceOnUse" xlink:href="#linearGradient11625"/><linearGradient id="linearGradient12836"><stop id="stop12838" offset="0" style="stop-color:#515152;stop-opacity:1"/><stop id="stop12840" offset="1" style="stop-color:#515152;stop-opacity:0"/></linearGradient><linearGradient id="linearGradient12828"><stop id="stop12830" offset="0" style="stop-color:#cccccd;stop-opacity:1"/><stop style="stop-color:#adadae;stop-opacity:1" id="stop12862" offset="0"/><stop id="stop12832" offset="1" style="stop-color:#8f8f90;stop-opacity:0"/></linearGradient><linearGradient id="linearGradient12810"><stop id="stop12812" offset="0" style="stop-color:#fff;stop-opacity:1"/><stop id="stop12814" offset="1" style="stop-color:#e5e5e5;stop-opacity:1"/></linearGradient><linearGradient id="linearGradient11625"><stop id="stop11627" offset="0" style="stop-color:#fce94f;stop-opacity:1"/><stop id="stop11629" offset="1" style="stop-color:#fce94f;stop-opacity:0"/></linearGradient><linearGradient id="linearGradient11615"><stop id="stop11617" offset="0" style="stop-color:#636363;stop-opacity:1"/><stop id="stop11619" offset="1" style="stop-color:#000;stop-opacity:1"/></linearGradient><linearGradient id="linearGradient11602"><stop id="stop11604" offset="0" style="stop-color:#f6f6f6;stop-opacity:1"/><stop id="stop11606" offset="1" style="stop-color:#e0e0e0;stop-opacity:1"/></linearGradient><linearGradient id="linearGradient11594"><stop id="stop11596" offset="0" style="stop-color:#fff;stop-opacity:1"/><stop id="stop11598" offset="1" style="stop-color:#d1d1d1;stop-opacity:1"/></linearGradient><linearGradient id="linearGradient11520"><stop id="stop11522" offset="0" style="stop-color:#fff;stop-opacity:1"/><stop id="stop11524" offset="1" style="stop-color:#dcdcdc;stop-opacity:1"/></linearGradient><linearGradient id="linearGradient11508"><stop id="stop11510" offset="0" style="stop-color:#000;stop-opacity:1"/><stop id="stop11512" offset="1" style="stop-color:#000;stop-opacity:0"/></linearGradient><radialGradient id="radialGradient11526" cx="24.446" cy="35.878" r="20.531" fx="24.446" fy="35.878" gradientTransform="matrix(1.995058,-1.383691e-32,0,1.67151,-27.19988,-29.02822)" gradientUnits="userSpaceOnUse" xlink:href="#linearGradient11520"/><radialGradient id="radialGradient11532" cx="30.204" cy="44.565" r="6.566" fx="30.204" fy="44.565" gradientTransform="matrix(1,0,0,0.338462,-5.637071e-14,29.48178)" gradientUnits="userSpaceOnUse" xlink:href="#linearGradient11508"/><linearGradient id="linearGradient11600" x1="20.092" x2="31.799" y1="8.947" y2="38.947" gradientTransform="matrix(1.061966,0,0,0.837825,-4.389811,0.164729)" gradientUnits="userSpaceOnUse" xlink:href="#linearGradient11594"/><linearGradient id="linearGradient11608" x1="24.446" x2="24.446" y1="12.947" y2="39.447" gradientTransform="matrix(1,0,0,0.837825,-2.875,0.164729)" gradientUnits="userSpaceOnUse" xlink:href="#linearGradient11602"/><radialGradient id="radialGradient12909" cx="25" cy="27.75" r="4.75" fx="25" fy="27.75" gradientTransform="matrix(3.070491,2.727143e-15,-3.444813e-15,3.878514,-55.26225,-82.65742)" gradientUnits="userSpaceOnUse" xlink:href="#linearGradient11615"/><linearGradient id="linearGradient12918" x1="21.5" x2="21.5" y1="30" y2="27.375" gradientTransform="matrix(1.01625,0,0,1,1.65875,-6.000012)" gradientUnits="userSpaceOnUse" xlink:href="#linearGradient11625"/><linearGradient id="linearGradient12921" x1="21.5" x2="21.5" y1="30" y2="27.375" gradientTransform="matrix(0.985,0,0,1,0.315001,-6.000012)" gradientUnits="userSpaceOnUse" xlink:href="#linearGradient11625"/><linearGradient id="linearGradient12924" x1="21.5" x2="21.5" y1="30" y2="27.375" gradientTransform="matrix(0.985,0,0,1.022813,-1.675625,-6.638771)" gradientUnits="userSpaceOnUse" xlink:href="#linearGradient11625"/><linearGradient id="linearGradient12927" x1="84.999" x2="62.591" y1="25.21" y2="12.022" gradientTransform="matrix(0.755725,0,0,0.755725,-25.19847,17.09924)" gradientUnits="userSpaceOnUse" xlink:href="#linearGradient12810"/><radialGradient id="radialGradient12931" cx="88.593" cy="33.399" r="7.006" fx="88.593" fy="33.399" gradientTransform="matrix(0.732463,0.172296,-0.147115,0.625415,-17.70794,5.185566)" gradientUnits="userSpaceOnUse" xlink:href="#linearGradient12828"/><linearGradient id="linearGradient12934" x1="88.75" x2="92.063" y1="31.656" y2="36.656" gradientTransform="matrix(0.755725,0,0,0.755725,-24.84491,17.27602)" gradientUnits="userSpaceOnUse" xlink:href="#linearGradient12836"/><linearGradient id="linearGradient12941" x1="65.624" x2="87.529" y1="21.46" y2="21.46" gradientTransform="matrix(0.755725,0,0,0.755725,-25.19847,17.09924)" gradientUnits="userSpaceOnUse" xlink:href="#linearGradient12810"/><radialGradient id="radialGradient12962" cx="30.204" cy="44.565" r="6.566" fx="30.204" fy="44.565" gradientTransform="matrix(1,1.166195e-16,-4.328308e-17,0.338462,-4.615251e-14,29.48178)" gradientUnits="userSpaceOnUse" xlink:href="#linearGradient11508"/><linearGradient id="linearGradient3516" x1="9.486" x2="7.378" y1="22.108" y2="22.638" gradientUnits="userSpaceOnUse" xlink:href="#linearGradient3510"/><radialGradient id="radialGradient3508" cx="36.828" cy="24.428" r="1.24" fx="36.828" fy="24.428" gradientTransform="matrix(13.39869,-4.118282e-6,6.831725e-6,22.22678,-456.6246,-518.5208)" gradientUnits="userSpaceOnUse" xlink:href="#linearGradient3498"/><radialGradient id="radialGradient3506" cx="36.828" cy="24.428" r="1.24" fx="36.828" fy="24.428" gradientTransform="matrix(21.09444,2.34445e-15,1.470518e-12,22.22672,-740.0468,-518.5196)" gradientUnits="userSpaceOnUse" xlink:href="#linearGradient3498"/><radialGradient id="radialGradient3504" cx="36.828" cy="24.428" r="1.24" fx="36.828" fy="24.428" gradientTransform="matrix(13.39869,-4.118282e-6,6.831725e-6,22.22678,-456.6246,-518.5208)" gradientUnits="userSpaceOnUse" xlink:href="#linearGradient3498"/><linearGradient id="linearGradient3287" x1="4.683" x2="8.371" y1="24.665" y2="24.317" gradientUnits="userSpaceOnUse" xlink:href="#linearGradient3281"/><linearGradient id="linearGradient4105" x1="11.126" x2="9.347" y1="25.56" y2="25.737" gradientTransform="matrix(1.296181,0,0,1.296181,-4.978245,-7.324566)" gradientUnits="userSpaceOnUse" xlink:href="#linearGradient4099"/><linearGradient id="linearGradient4097" x1="7.576" x2="7.322" y1="20.302" y2="27.345" gradientUnits="userSpaceOnUse" xlink:href="#linearGradient4068"/><linearGradient id="linearGradient4095" x1="7.576" x2="7.322" y1="20.302" y2="27.345" gradientUnits="userSpaceOnUse" xlink:href="#linearGradient4068"/><linearGradient id="linearGradient3794" x1="8.054" x2="10.438" y1="11.03" y2="11.03" gradientTransform="translate(-64.70027,0)" gradientUnits="userSpaceOnUse" xlink:href="#linearGradient3788"/><radialGradient id="radialGradient3680" cx="5.082" cy="12.516" r="2.983" fx="5.082" fy="12.516" gradientTransform="matrix(1.525791,4.898427e-16,-1.480441e-8,1.768964,-8.162983e-2,6.066255)" gradientUnits="userSpaceOnUse" xlink:href="#linearGradient3674"/><linearGradient id="linearGradient3668" x1="10.438" x2="10.438" y1="8.29" y2="18.985" gradientTransform="translate(-64.70027,0)" gradientUnits="userSpaceOnUse" xlink:href="#linearGradient3657"/><radialGradient id="radialGradient3615" cx="6.408" cy="17.404" r="5.524" fx="6.408" fy="17.404" gradientTransform="matrix(1,0,0,0.416,3.036306e-15,10.16382)" gradientUnits="userSpaceOnUse" xlink:href="#linearGradient3609"/><linearGradient id="linearGradient4608"><stop id="stop4610" offset="0" style="stop-color:#eeeeec"/><stop id="stop4612" offset="1" style="stop-color:#8a8c87;stop-opacity:1"/></linearGradient><linearGradient id="linearGradient4641" x1="58.016" x2="57.954" y1="35.015" y2="40.999" gradientTransform="matrix(0.997993,0,0,1,-97.71685,-9.352993)" gradientUnits="userSpaceOnUse" spreadMethod="reflect" xlink:href="#linearGradient4608"/><linearGradient id="linearGradient4585" x1="56.303" x2="56.609" y1="4.937" y2="8.68" gradientTransform="matrix(1.769913,0,0,1.769913,-88.34438,10.67235)" gradientUnits="userSpaceOnUse" xlink:href="#linearGradient4608"/><linearGradient id="linearGradient3609"><stop id="stop3611" offset="0" style="stop-color:#000;stop-opacity:1"/><stop id="stop3613" offset="1" style="stop-color:#000;stop-opacity:0"/></linearGradient><linearGradient id="linearGradient3657"><stop id="stop3659" offset="0" style="stop-color:#fafafa;stop-opacity:1"/><stop id="stop3661" offset="1" style="stop-color:#bfbfbf;stop-opacity:1"/></linearGradient><linearGradient id="linearGradient3674"><stop id="stop3676" offset="0" style="stop-color:#fff;stop-opacity:0"/><stop id="stop3678" offset="1" style="stop-color:#fff;stop-opacity:1"/></linearGradient><linearGradient id="linearGradient3788"><stop id="stop3790" offset="0" style="stop-color:#cccdcb;stop-opacity:1"/><stop id="stop3792" offset="1" style="stop-color:#888a85;stop-opacity:1"/></linearGradient><radialGradient id="radialGradient3702" cx="-1.002" cy=".99" r="9.921" fx="-1.002" fy=".99" gradientTransform="matrix(-0.127582,1.416065,-1.630141,-0.146854,17.48751,15.56121)" gradientUnits="userSpaceOnUse" xlink:href="#linearGradient3676"/><linearGradient id="linearGradient3676"><stop id="stop4022" offset="0" style="stop-color:#eeeeec"/><stop id="stop3680" offset="1" style="stop-color:#555753"/></linearGradient><linearGradient id="linearGradient1549" x1="17.063" x2="20.313" y1="34.95" y2="5.375" gradientUnits="userSpaceOnUse" xlink:href="#linearGradient1557"/><linearGradient id="linearGradient1557"><stop style="stop-color:#2e3436;stop-opacity:1" id="stop1559" offset="0"/><stop style="stop-color:#888a85" id="stop1561" offset="1"/></linearGradient><radialGradient id="radialGradient3728" cx="-1.002" cy=".99" r="9.921" fx="-1.002" fy=".99" gradientTransform="matrix(-0.310032,2.110862,-2.082775,-0.305867,17.75288,16.41459)" gradientUnits="userSpaceOnUse" xlink:href="#linearGradient3730"/><linearGradient id="linearGradient3730"><stop style="stop-color:#eeeeec" id="stop3732" offset="0"/><stop style="stop-color:#888a85" id="stop3734" offset="1"/></linearGradient><radialGradient id="radialGradient3644" cx="12.705" cy="13.847" r="9.375" fx="12.705" fy="13.847" gradientTransform="matrix(6.370852e-2,-1.424475,1.547293,6.92112e-2,-9.530629,30.98681)" gradientUnits="userSpaceOnUse" xlink:href="#linearGradient3628"/><linearGradient id="linearGradient3628"><stop id="stop3630" offset="0" style="stop-color:#d3d7cf"/><stop id="stop3632" offset="1" style="stop-color:#555753"/></linearGradient><linearGradient id="linearGradient3698" x1="-.52" x2="-.52" y1="-.52" y2="19.27" gradientUnits="userSpaceOnUse" xlink:href="#linearGradient3692"/><linearGradient id="linearGradient3692"><stop id="stop3694" offset="0" style="stop-color:#2e3436;stop-opacity:1"/><stop id="stop3696" offset="1" style="stop-color:#babdb6"/></linearGradient><radialGradient id="radialGradient3634" cx="6.88" cy="7.199" r="9.375" fx="6.88" fy="7.199" gradientTransform="matrix(1.240749,9.690094e-9,-9.043116e-9,1.157631,-1.713645,-1.134736)" gradientUnits="userSpaceOnUse" xlink:href="#linearGradient3670"/><linearGradient id="linearGradient3670"><stop style="stop-color:#d3d7cf" id="stop3672" offset="0"/><stop style="stop-color:#555753" id="stop3674" offset="1"/></linearGradient><linearGradient id="linearGradient4068"><stop id="stop4070" offset="0" style="stop-color:#eaeae9;stop-opacity:1"/><stop id="stop4072" offset="1" style="stop-color:#a5a7a2;stop-opacity:1"/></linearGradient><linearGradient id="linearGradient4099"><stop id="stop4101" offset="0" style="stop-color:#6f726f;stop-opacity:1"/><stop id="stop4103" offset="1" style="stop-color:#6f726f;stop-opacity:0"/></linearGradient><linearGradient id="linearGradient3281"><stop id="stop3283" offset="0" style="stop-color:#fff;stop-opacity:1"/><stop id="stop3285" offset="1" style="stop-color:#fff;stop-opacity:0"/></linearGradient><linearGradient id="linearGradient3498"><stop id="stop3500" offset="0" style="stop-color:#3465a4;stop-opacity:1"/><stop id="stop3502" offset="1" style="stop-color:#3465a4;stop-opacity:0"/></linearGradient><linearGradient id="linearGradient3510"><stop id="stop3512" offset="0" style="stop-color:#fff;stop-opacity:1"/><stop id="stop3514" offset="1" style="stop-color:#fff;stop-opacity:0"/></linearGradient><radialGradient id="radialGradient1709" cx="5.082" cy="12.516" r="2.983" fx="5.082" fy="12.516" gradientTransform="matrix(1.525791,4.898427e-16,-1.480441e-8,1.768964,45.95312,-0.69388)" gradientUnits="userSpaceOnUse" xlink:href="#linearGradient3674"/><linearGradient id="linearGradient1712" x1="9.486" x2="7.378" y1="22.108" y2="22.638" gradientTransform="translate(46.03475,-6.760135)" gradientUnits="userSpaceOnUse" xlink:href="#linearGradient3510"/><linearGradient id="linearGradient1715" x1="56.303" x2="56.609" y1="4.937" y2="8.68" gradientTransform="matrix(1.769913,0,0,1.769913,-42.30963,3.912215)" gradientUnits="userSpaceOnUse" xlink:href="#linearGradient4608"/><linearGradient id="linearGradient1717" x1="11.126" x2="9.347" y1="25.56" y2="25.737" gradientTransform="matrix(1.296181,0,0,1.296181,41.05651,-14.0847)" gradientUnits="userSpaceOnUse" xlink:href="#linearGradient4099"/></defs><metadata id="metadata4"/><g id="layer1"><path style="color:#000;fill:url(#radialGradient2460);fill-opacity:1;fill-rule:evenodd;stroke:none;stroke-width:1;stroke-linecap:round;stroke-linejoin:miter;marker:none;marker-start:none;marker-mid:none;marker-end:none;stroke-miterlimit:4;stroke-dashoffset:0;stroke-opacity:.70063692;visibility:visible;display:inline;overflow:visible" id="path2452" d="M 41.100580 35.051105 A 16.882174 4.5520000 0 1 1 7.3362331,35.051105 A 16.882174 4.5520000 0 1 1 41.100580 35.051105 z" transform="matrix(1.000000,0.000000,0.000000,1.368932,-1.978553,-13.61713)"/><path style="color:#000;fill:#adb0aa;fill-opacity:1;fill-rule:evenodd;stroke:#4b4d4a;stroke-width:1;stroke-linecap:butt;stroke-linejoin:miter;marker:none;marker-start:none;marker-mid:none;marker-end:none;stroke-miterlimit:4;stroke-dashoffset:0;stroke-opacity:1;visibility:visible;display:inline;overflow:visible" id="path2407" d="M -26.263968 29.716238 A 9.3944187 3.9395950 0 1 1 -45.052805,29.716238 A 9.3944187 3.9395950 0 1 1 -26.263968 29.716238 z" transform="translate(57.53339,3.203427)"/><path id="path1825" d="M -26.263968 29.716238 A 9.3944187 3.9395950 0 1 1 -45.052805,29.716238 A 9.3944187 3.9395950 0 1 1 -26.263968 29.716238 z" transform="matrix(0.940273,0.000000,0.000000,0.940273,55.40361,4.271194)" style="color:#000;fill:none;fill-opacity:1;fill-rule:evenodd;stroke:#7b7f7a;stroke-width:1;stroke-linecap:butt;stroke-linejoin:miter;marker:none;marker-start:none;marker-mid:none;marker-end:none;stroke-miterlimit:4;stroke-dashoffset:0;stroke-opacity:1;visibility:visible;display:inline;overflow:visible"/><path style="color:#000;fill:none;fill-opacity:1;fill-rule:evenodd;stroke:url(#linearGradient2991);stroke-width:.68065339;stroke-linecap:butt;stroke-linejoin:miter;marker:none;marker-start:none;marker-mid:none;marker-end:none;stroke-miterlimit:4;stroke-dashoffset:0;stroke-opacity:1;visibility:visible;display:inline;overflow:visible" id="path2983" d="M -26.263968 29.716238 A 9.3944187 3.9395950 0 1 1 -45.052805,29.716238 A 9.3944187 3.9395950 0 1 1 -26.263968 29.716238 z" transform="matrix(0.940273,0.000000,0.000000,0.940273,55.40361,3.521194)"/><path style="fill:#d0d0d0;fill-opacity:1;fill-rule:evenodd;stroke:#979797;stroke-width:.40000001;stroke-linecap:butt;stroke-linejoin:round;stroke-miterlimit:4;stroke-opacity:1" id="path2411" d="M 25.687500,28.766243 L 25.625000,29.766243 C 25.625000,29.766243 29.949108,33.365409 34.625000,33.968750 C 36.962946,34.270420 39.378675,34.671162 41.375000,35.156250 C 43.371325,35.641338 44.963356,36.275856 45.500000,36.812500 C 45.810411,37.122911 45.951063,37.386139 46.000000,37.593750 C 46.048937,37.801361 46.038217,37.948565 45.906250,38.156250 C 45.642317,38.571620 44.826393,39.123902 43.437500,39.562500 C 40.659715,40.439695 35.717076,41.000000 28.875000,41.000000 L 28.875000,42.000000 C 35.770998,42.000000 40.738665,41.472329 43.718750,40.531250 C 45.208792,40.060710 46.243692,39.515563 46.750000,38.718750 C 47.003154,38.320344 47.107321,37.830301 47.000000,37.375000 C 46.892679,36.919699 46.615445,36.490445 46.218750,36.093750 C 45.341180,35.216180 43.681912,34.687310 41.625000,34.187500 C 39.568088,33.687690 37.109264,33.273171 34.750000,32.968750 C 30.031473,32.359908 25.687500,28.766243 25.687500,28.766243 z"/><path id="path2462" d="M 41.100580 35.051105 A 16.882174 4.5520000 0 1 1 7.3362331,35.051105 A 16.882174 4.5520000 0 1 1 41.100580 35.051105 z" transform="matrix(1.000000,0.000000,0.000000,1.368932,-1.978553,-19.02126)" style="color:#000;fill:url(#radialGradient2464);fill-opacity:1;fill-rule:evenodd;stroke:none;stroke-width:1;stroke-linecap:round;stroke-linejoin:miter;marker:none;marker-start:none;marker-mid:none;marker-end:none;stroke-miterlimit:4;stroke-dashoffset:0;stroke-opacity:.70063692;visibility:visible;display:inline;overflow:visible"/><rect id="rect2699" width="9.04" height="2.74" x="17.472" y="30.704" style="color:#000;fill:url(#linearGradient2707);fill-opacity:1;fill-rule:evenodd;stroke:none;stroke-width:.60872948;stroke-linecap:butt;stroke-linejoin:miter;marker:none;marker-start:none;marker-mid:none;marker-end:none;stroke-miterlimit:4;stroke-dashoffset:0;stroke-opacity:1;visibility:visible;display:inline;overflow:visible"/><path style="color:#000;fill:url(#linearGradient2251);fill-opacity:1;fill-rule:evenodd;stroke:url(#linearGradient2979);stroke-width:1;stroke-linecap:butt;stroke-linejoin:miter;marker:none;marker-start:none;marker-mid:none;marker-end:none;stroke-miterlimit:4;stroke-dashoffset:0;stroke-opacity:1;visibility:visible;display:inline;overflow:visible" id="rect2404" d="M 7.0809024,1.6956221 L 36.669097,1.6956221 C 37.580439,1.6956221 38.293244,2.2791039 38.335849,3.0972091 L 39.667893,28.675323 C 39.726102,29.793058 38.766837,30.695628 37.647588,30.695628 L 6.1024120,30.695628 C 4.9831629,30.695628 4.0238980,29.793058 4.0821068,28.675323 L 5.4141506,3.0972091 C 5.4544343,2.3236745 5.9616533,1.6956221 7.0809024,1.6956221 z"/><path id="path2377" d="M 8.4105348,4.3058272 L 7.1683398,26.351144 L 34.818729,26.351144 L 33.483712,4.3992558 L 8.4105348,4.3058272 z" style="fill:url(#linearGradient2681);fill-opacity:1;fill-rule:evenodd;stroke:#000079;stroke-width:.5;stroke-linecap:butt;stroke-linejoin:round;stroke-miterlimit:4;stroke-dasharray:none;stroke-opacity:1"/><path style="fill:none;fill-opacity:.75;fill-rule:evenodd;stroke:url(#linearGradient2689);stroke-width:.99618119;stroke-linecap:round;stroke-linejoin:miter;stroke-miterlimit:4;stroke-opacity:.24840762" id="path2393" d="M 6.1774331,28.735789 L 37.605910,28.735789"/><path id="path2397" d="M 6.9145985,2.7063396 L 36.760101,2.6685383 C 37.043798,2.6681790 37.319403,2.9057881 37.342206,3.3210821 L 38.704098,28.124330 C 38.762137,29.181361 38.164349,29.910201 37.105727,29.910201 L 6.5817583,29.910201 C 5.5231355,29.910201 4.9887439,29.181410 5.0458869,28.124330 L 6.3699773,3.6301633 C 6.4086732,2.9143326 6.5363627,2.7068187 6.9145985,2.7063396 z" style="color:#000;fill:none;fill-opacity:1;fill-rule:evenodd;stroke:url(#linearGradient2421);stroke-width:.99999964;stroke-linecap:butt;stroke-linejoin:miter;marker:none;marker-start:none;marker-mid:none;marker-end:none;stroke-miterlimit:4;stroke-dashoffset:0;stroke-opacity:.70063692;visibility:visible;display:inline;overflow:visible"/><path style="opacity:.53142858;fill:url(#linearGradient2673);fill-opacity:1;fill-rule:evenodd;stroke:none;stroke-width:.25pt;stroke-linecap:butt;stroke-linejoin:miter;stroke-opacity:1" id="path2443" d="M 8.7115364,4.7463626 L 7.9090069,22.616693 C 18.953645,20.216063 19.330470,12.124494 33.063039,9.4699426 L 32.901567,4.8124267 L 8.7115364,4.7463626 z"/><path id="path2657" d="M 41.100580 35.051105 A 16.882174 4.5520000 0 1 1 7.3362331,35.051105 A 16.882174 4.5520000 0 1 1 41.100580 35.051105 z" transform="matrix(1.264398,0.000000,0.000000,1.291262,-6.216332,-4.000423)" style="color:#000;fill:url(#radialGradient2659);fill-opacity:1;fill-rule:evenodd;stroke:none;stroke-width:1;stroke-linecap:round;stroke-linejoin:miter;marker:none;marker-start:none;marker-mid:none;marker-end:none;stroke-miterlimit:4;stroke-dashoffset:0;stroke-opacity:.70063692;visibility:visible;display:inline;overflow:visible"/><path id="path2409" d="M 6.4621839,36.817452 L 37.464590,36.817452 C 38.583839,36.817452 38.441945,37.088890 38.556817,37.430298 L 41.391463,45.855108 C 41.506335,46.196517 41.418485,46.467954 40.299236,46.467954 L 3.6275382,46.467954 C 2.5082891,46.467954 2.4204387,46.196517 2.5353107,45.855108 L 5.3699564,37.430298 C 5.4848284,37.088889 5.3429348,36.817452 6.4621839,36.817452 z" style="opacity:1;color:#000;fill:url(#linearGradient2981);fill-opacity:1;fill-rule:evenodd;stroke:url(#linearGradient1413);stroke-width:1;stroke-linecap:butt;stroke-linejoin:miter;marker:none;marker-start:none;marker-mid:none;marker-end:none;stroke-miterlimit:4;stroke-dasharray:none;stroke-dashoffset:0;stroke-opacity:1;visibility:visible;display:inline;overflow:visible"/><path id="path2611" d="M 6.3916892,38.829113 L 4.6239223,43.955638 L 10.104000,43.955638 L 10.634330,41.922706 L 25.483572,41.922706 L 26.033251,43.997820 L 32.201086,43.997820 L 30.521708,38.829113 L 6.3916892,38.829113 z" style="fill:#7a7d77;fill-opacity:1;fill-rule:evenodd;stroke:none;stroke-width:.25pt;stroke-linecap:butt;stroke-linejoin:miter;stroke-opacity:1"/><path id="path2613" d="M 11.076272,42.276260 L 10.634330,43.955639 L 25.395184,43.955639 L 24.953242,42.187872 L 11.076272,42.276260 z" style="fill:#777874;fill-opacity:1;fill-rule:evenodd;stroke:none;stroke-width:.25pt;stroke-linecap:butt;stroke-linejoin:miter;stroke-opacity:1"/><path style="color:#000;fill:#777a75;fill-opacity:1;fill-rule:evenodd;stroke:none;stroke-width:.25pt;stroke-linecap:butt;stroke-linejoin:miter;marker:none;marker-start:none;marker-mid:none;marker-end:none;stroke-miterlimit:4;stroke-dashoffset:0;stroke-opacity:1;visibility:visible;display:inline;overflow:visible" id="path2619" d="M 37.592776,38.829114 L 39.272155,43.867250 L 33.792077,43.778861 L 32.289475,38.917502 L 37.592776,38.829114 z"/><path id="path2615" d="M 37.592776,38.298786 L 39.272155,43.336922 L 33.792077,43.248533 L 32.289475,38.387174 L 37.592776,38.298786 z" style="opacity:1;color:#000;fill:url(#linearGradient2758);fill-opacity:1;fill-rule:evenodd;stroke:none;stroke-width:.25pt;stroke-linecap:butt;stroke-linejoin:miter;marker:none;marker-start:none;marker-mid:none;marker-end:none;stroke-miterlimit:4;stroke-dasharray:none;stroke-dashoffset:0;stroke-opacity:1;visibility:visible;display:inline;overflow:visible"/><path style="fill:url(#linearGradient1411);fill-opacity:1;fill-rule:evenodd;stroke:none;stroke-width:.25pt;stroke-linecap:butt;stroke-linejoin:miter;stroke-opacity:1" id="path2617" d="M 6.3916892,38.210397 L 4.6239223,43.336922 L 10.104000,43.336922 L 10.634330,41.303990 L 25.483572,41.303990 L 26.033251,43.379104 L 32.201086,43.379104 L 30.521708,38.210397 L 6.3916892,38.210397 z"/><path style="opacity:1;color:#000;fill:url(#linearGradient1409);fill-opacity:1;fill-rule:evenodd;stroke:none;stroke-width:.25pt;stroke-linecap:butt;stroke-linejoin:miter;marker:none;marker-start:none;marker-mid:none;marker-end:none;stroke-miterlimit:4;stroke-dasharray:none;stroke-dashoffset:0;stroke-opacity:1;visibility:visible;display:inline;overflow:visible" id="path2621" d="M 11.076272,41.745932 L 10.634330,43.425311 L 25.395184,43.425311 L 24.953242,41.657544 L 11.076272,41.745932 z"/><path style="color:#000;fill:none;fill-opacity:1;fill-rule:evenodd;stroke:url(#linearGradient2741);stroke-width:.5;stroke-linecap:butt;stroke-linejoin:round;marker:none;marker-start:none;marker-mid:none;marker-end:none;stroke-miterlimit:4;stroke-dashoffset:0;stroke-opacity:1;visibility:visible;display:inline;overflow:visible" id="path2631" d="M 6.1278189,37.578116 L 37.953634,37.578116 L 40.590813,45.670679 L 3.3297429,45.670679 L 6.1278189,37.578116 z"/><path id="path2709" d="M 35.620504 3.9384086 A 0.83968931 0.83968931 0 1 1 33.941126,3.9384086 A 0.83968931 0.83968931 0 1 1 35.620504 3.9384086 z" transform="matrix(1.331237,0.000000,0.000000,0.658449,-10.41933,2.853866)" style="color:#000;fill:url(#linearGradient2717);fill-opacity:1;fill-rule:evenodd;stroke:none;stroke-width:.5;stroke-linecap:butt;stroke-linejoin:miter;marker:none;marker-start:none;marker-mid:none;marker-end:none;stroke-miterlimit:4;stroke-dashoffset:0;stroke-opacity:1;visibility:visible;display:inline;overflow:visible"/><path style="color:#000;fill:url(#linearGradient2721);fill-opacity:1;fill-rule:evenodd;stroke:none;stroke-width:.5;stroke-linecap:butt;stroke-linejoin:miter;marker:none;marker-start:none;marker-mid:none;marker-end:none;stroke-miterlimit:4;stroke-dashoffset:0;stroke-opacity:1;visibility:visible;display:inline;overflow:visible" id="path2719" d="M 35.620504 3.9384086 A 0.83968931 0.83968931 0 1 1 33.941126,3.9384086 A 0.83968931 0.83968931 0 1 1 35.620504 3.9384086 z" transform="matrix(1.331237,0.000000,0.000000,0.658449,-10.30573,4.959651)"/><path id="path2723" d="M 35.620504 3.9384086 A 0.83968931 0.83968931 0 1 1 33.941126,3.9384086 A 0.83968931 0.83968931 0 1 1 35.620504 3.9384086 z" transform="matrix(1.331237,0.000000,0.000000,0.658449,-10.19213,6.959651)" style="color:#000;fill:url(#linearGradient2725);fill-opacity:1;fill-rule:evenodd;stroke:none;stroke-width:.5;stroke-linecap:butt;stroke-linejoin:miter;marker:none;marker-start:none;marker-mid:none;marker-end:none;stroke-miterlimit:4;stroke-dashoffset:0;stroke-opacity:1;visibility:visible;display:inline;overflow:visible"/><path style="color:#000;fill:url(#linearGradient2729);fill-opacity:1;fill-rule:evenodd;stroke:none;stroke-width:.5;stroke-linecap:butt;stroke-linejoin:miter;marker:none;marker-start:none;marker-mid:none;marker-end:none;stroke-miterlimit:4;stroke-dashoffset:0;stroke-opacity:1;visibility:visible;display:inline;overflow:visible" id="path2727" d="M 35.620504 3.9384086 A 0.83968931 0.83968931 0 1 1 33.941126,3.9384086 A 0.83968931 0.83968931 0 1 1 35.620504 3.9384086 z" transform="matrix(1.331237,0.000000,0.000000,0.658449,-10.07853,8.959651)"/><path id="path2731" d="M 35.620504 3.9384086 A 0.83968931 0.83968931 0 1 1 33.941126,3.9384086 A 0.83968931 0.83968931 0 1 1 35.620504 3.9384086 z" transform="matrix(1.331237,0.000000,0.000000,0.658449,-9.964930,10.95965)" style="color:#000;fill:url(#linearGradient2733);fill-opacity:1;fill-rule:evenodd;stroke:none;stroke-width:.5;stroke-linecap:butt;stroke-linejoin:miter;marker:none;marker-start:none;marker-mid:none;marker-end:none;stroke-miterlimit:4;stroke-dashoffset:0;stroke-opacity:1;visibility:visible;display:inline;overflow:visible"/><path id="text2735" d="M 20.000000,27.317666 L 20.281716,27.317666 C 20.365481,27.317667 20.429701,27.336330 20.474376,27.373656 C 20.519345,27.410690 20.541829,27.463594 20.541830,27.532370 C 20.541829,27.601440 20.519345,27.654638 20.474376,27.691965 C 20.429701,27.728998 20.365481,27.747515 20.281716,27.747515 L 20.169735,27.747515 L 20.169735,27.975885 L 20.000000,27.975885 L 20.000000,27.317666 M 20.169735,27.440669 L 20.169735,27.624512 L 20.263640,27.624512 C 20.296558,27.624512 20.321982,27.616576 20.339911,27.600705 C 20.357839,27.584540 20.366804,27.561762 20.366804,27.532370 C 20.366804,27.502979 20.357839,27.480348 20.339911,27.464476 C 20.321982,27.448605 20.296558,27.440669 20.263640,27.440669 L 20.169735,27.440669 M 20.961979,27.428765 C 20.910250,27.428766 20.870131,27.447870 20.841621,27.486078 C 20.813112,27.524288 20.798857,27.578074 20.798857,27.647437 C 20.798857,27.716507 20.813112,27.770146 20.841621,27.808355 C 20.870131,27.846564 20.910250,27.865668 20.961979,27.865668 C 21.014001,27.865668 21.054267,27.846564 21.082778,27.808355 C 21.111287,27.770146 21.125541,27.716507 21.125542,27.647437 C 21.125541,27.578074 21.111287,27.524288 21.082778,27.486078 C 21.054267,27.447870 21.014001,27.428766 20.961979,27.428765 M 20.961979,27.305762 C 21.067787,27.305763 21.150671,27.336036 21.210630,27.396582 C 21.270588,27.457128 21.300567,27.540747 21.300568,27.647437 C 21.300567,27.753834 21.270588,27.837305 21.210630,27.897851 C 21.150671,27.958398 21.067787,27.988671 20.961979,27.988671 C 20.856464,27.988671 20.773580,27.958398 20.713328,27.897851 C 20.653370,27.837305 20.623391,27.753834 20.623391,27.647437 C 20.623391,27.540747 20.653370,27.457128 20.713328,27.396582 C 20.773580,27.336036 20.856464,27.305763 20.961979,27.305762 M 21.428420,27.317666 L 21.617994,27.317666 L 21.857387,27.769117 L 21.857387,27.317666 L 22.018305,27.317666 L 22.018305,27.975885 L 21.828730,27.975885 L 21.589338,27.524434 L 21.589338,27.975885 L 21.428420,27.975885 L 21.428420,27.317666 M 22.091489,27.317666 L 22.277095,27.317666 L 22.426991,27.552209 L 22.576887,27.317666 L 22.762935,27.317666 L 22.512079,27.698578 L 22.512079,27.975885 L 22.342344,27.975885 L 22.342344,27.698578 L 22.091489,27.317666" style="font-size:.9029026;font-style:normal;font-variant:normal;font-weight:700;font-stretch:normal;writing-mode:lr-tb;text-anchor:start;fill:#4a4a4a;fill-opacity:1;stroke:none;stroke-width:1pt;stroke-linecap:butt;stroke-linejoin:miter;stroke-opacity:1;font-family:Bitstream Vera Sans"/><g id="g1725" transform="translate(-45.14688,7.709494)"><rect id="rect1686" width="20" height="19" x="72.647" y="20.791" rx="2.21" ry="2.21" style="color:#000;fill:#c00;fill-opacity:1;fill-rule:evenodd;stroke:#a40000;stroke-width:1;stroke-linecap:square;stroke-linejoin:round;marker:none;marker-start:none;marker-mid:none;marker-end:none;stroke-miterlimit:4;stroke-dasharray:none;stroke-dashoffset:0;stroke-opacity:1;visibility:visible;display:inline;overflow:visible"/><g id="g2254" transform="matrix(0.779029,0,0,0.779029,72.84272,1.466428)"><path style="opacity:1;color:#000;fill:none;fill-opacity:1;fill-rule:evenodd;stroke:#fff;stroke-width:2.56729817;stroke-linecap:round;stroke-linejoin:round;marker:none;marker-start:none;marker-mid:none;marker-end:none;stroke-miterlimit:4;stroke-dasharray:none;stroke-dashoffset:0;stroke-opacity:1;visibility:visible;display:inline;overflow:visible" id="path1377" d="M 8,32 L 18,42"/><path id="path2252" d="M 18,32 L 8,42" style="opacity:1;color:#000;fill:none;fill-opacity:1;fill-rule:evenodd;stroke:#fff;stroke-width:2.56729817;stroke-linecap:round;stroke-linejoin:round;marker:none;marker-start:none;marker-mid:none;marker-end:none;stroke-miterlimit:4;stroke-dasharray:none;stroke-dashoffset:0;stroke-opacity:1;visibility:visible;display:inline;overflow:visible"/></g><rect style="opacity:.4;color:#000;fill:none;fill-opacity:1;fill-rule:evenodd;stroke:#fff;stroke-width:1.00000012;stroke-linecap:square;stroke-linejoin:round;marker:none;marker-start:none;marker-mid:none;marker-end:none;stroke-miterlimit:4;stroke-dasharray:none;stroke-dashoffset:0;stroke-opacity:1;visibility:visible;display:inline;overflow:visible" id="rect2258" width="18.095" height="17.19" x="73.599" y="21.695" rx="1.585" ry="1.585"/></g></g></svg>