<svg xmlns="http://www.w3.org/2000/svg" xmlns:cc="http://web.resource.org/cc/" xmlns:svg="http://www.w3.org/2000/svg" xmlns:xlink="http://www.w3.org/1999/xlink" id="svg1306" width="48" height="48"><defs id="defs1308"><linearGradient id="linearGradient2251"><stop id="stop2253" offset="0" stop-color="#ef2929"/><stop id="stop2255" offset="1" stop-color="#c00"/></linearGradient><linearGradient id="linearGradient4126"><stop id="stop4128" offset="0" stop-color="#000" stop-opacity="1"/><stop id="stop4130" offset="1" stop-color="#000" stop-opacity="0"/></linearGradient><radialGradient id="radialGradient7449" cx="23.857" cy="40" r="17.143" fx="23.857" fy="40" gradientTransform="matrix(1.000000,0.000000,0.000000,0.500000,1.635742e-14,20.00000)" gradientUnits="userSpaceOnUse" xlink:href="#linearGradient4126"/><radialGradient id="radialGradient2257" cx="20.935" cy="12.593" r="19.968" fx="20.935" fy="12.593" gradientTransform="matrix(-1.262871,2.796553e-2,-3.606716e-2,-1.629656,47.36662,36.49787)" gradientUnits="userSpaceOnUse" xlink:href="#linearGradient2251"/><radialGradient id="radialGradient2275" cx="23.857" cy="40" r="17.143" fx="23.857" fy="40" gradientTransform="matrix(1.000000,0.000000,0.000000,0.500000,1.713935e-14,20.00000)" gradientUnits="userSpaceOnUse" xlink:href="#linearGradient4126"/><radialGradient id="radialGradient2277" cx="20.935" cy="12.593" r="19.968" fx="20.935" fy="12.593" gradientTransform="matrix(-0.618549,1.369740e-2,-1.766555e-2,-0.798198,22.46266,17.62692)" gradientUnits="userSpaceOnUse" xlink:href="#linearGradient2251"/></defs><metadata id="metadata1311"/><g id="layer1"><path id="path6548" fill="url(#radialGradient7449)" fill-opacity="1" fill-rule="nonzero" stroke="none" stroke-dasharray="none" stroke-dashoffset="0" stroke-linecap="butt" stroke-linejoin="miter" stroke-miterlimit="10" stroke-opacity="1" stroke-width="1" marker-end="none" marker-mid="none" marker-start="none" d="M 41.000000 40.000000 A 17.142857 8.5714283 0 1 1 6.7142868,40.000000 A 17.142857 8.5714283 0 1 1 41.000000 40.000000 z" color="#000" display="block" opacity=".527" overflow="visible" transform="matrix(1.225000,0.000000,0.000000,0.408334,-5.221224,25.17622)" visibility="visible" style="marker:none"/><path id="path1314" fill="url(#radialGradient2257)" fill-opacity="1" stroke="#a40000" stroke-dasharray="none" stroke-dashoffset="0" stroke-linecap="round" stroke-linejoin="miter" stroke-miterlimit="4" stroke-opacity="1" stroke-width="1" d="M 24.035816,3.5720836 C 13.289574,3.5720836 4.5678570,12.294146 4.5678580,23.040834 C 4.5678580,33.787521 13.289575,42.509583 24.035816,42.509584 C 34.782058,42.509584 43.503776,33.787520 43.503775,23.040834 C 43.503775,12.294147 34.782058,3.5720836 24.035816,3.5720836 z M 24.004517,8.4783336 C 32.049892,8.4783336 38.589837,14.990984 38.589837,23.009584 C 38.589837,25.981868 37.657973,28.737374 36.117218,31.040834 L 15.960683,10.915834 C 18.272680,9.3813936 21.022553,8.4783336 24.004517,8.4783336 z M 12.267404,14.447084 L 32.580435,34.728334 C 30.166684,36.490827 27.221538,37.540834 24.004517,37.540834 C 15.959141,37.540834 9.4191980,31.028184 9.4191980,23.009584 C 9.4191980,19.803270 10.497961,16.851741 12.267404,14.447084 z" opacity="1"/><path id="path2242" fill="none" fill-opacity="1" stroke="#fff" stroke-dasharray="none" stroke-dashoffset="0" stroke-linecap="round" stroke-linejoin="miter" stroke-miterlimit="4" stroke-opacity="1" stroke-width=".987" d="M 46.714287 27.214285 A 18.357143 18.142857 0 1 1 10.000000,27.214285 A 18.357143 18.142857 0 1 1 46.714287 27.214285 z" opacity=".554" transform="matrix(1.007576,0.000000,0.000000,1.019157,-4.568194,-4.726048)"/><path id="path2261" fill="none" fill-opacity=".75" fill-rule="evenodd" stroke="#fff" stroke-linecap="round" stroke-linejoin="miter" stroke-opacity="1" stroke-width="1" d="M 15.075203,11.366727 L 35.646632,31.938156" opacity=".478"/><path id="path2263" fill="#fff" fill-opacity="1" fill-rule="evenodd" stroke="none" stroke-linecap="butt" stroke-linejoin="miter" stroke-opacity="1" stroke-width="1" d="M 4.4323460,19.795298 C 4.4561550,21.985774 9.8371077,20.461965 9.8609167,21.652441 C 9.8132977,19.842917 11.837108,15.961965 12.289489,15.152441 L 20.932346,23.509584 C 20.884728,21.771489 27.122823,23.390537 27.003776,21.509584 L 16.718061,10.866727 C 18.241871,10.081013 21.837109,8.7952976 24.075204,8.9381546 C 32.313299,9.1524406 38.051394,16.795298 38.075204,22.009584 L 37.503775,27.009584 C 37.384727,28.866727 43.337108,26.795298 43.146632,28.295298 C 43.551394,27.152441 44.027584,24.795298 43.932346,22.081013 C 43.884727,12.438155 35.765679,3.3667266 24.003775,3.1524406 C 15.420441,3.2833936 8.4978220,8.1822026 6.1287740,14.661370 C 5.9933010,14.694830 4.6585360,16.842917 4.4323460,19.795298 z" opacity=".306"/></g></svg>