<svg xmlns="http://www.w3.org/2000/svg" xmlns:svg="http://www.w3.org/2000/svg" xmlns:xlink="http://www.w3.org/1999/xlink" id="svg1" width="13.854" height="14.646" version="1.0"><defs id="defs3"><linearGradient id="linearGradient5236"><stop style="stop-color:#fff;stop-opacity:1" id="stop5238" offset="0"/><stop style="stop-color:#fff;stop-opacity:0" id="stop5240" offset="1"/></linearGradient><radialGradient id="radialGradient2812" cx="25.25" cy="39.75" r="17.25" fx="25.25" fy="39.75" gradientTransform="matrix(1,0,0,0.333333,0,26.5)" gradientUnits="userSpaceOnUse" xlink:href="#linearGradient2806"/><linearGradient id="linearGradient2794" x1="-.363" x2="59.148" y1="29.208" y2="29.208" gradientUnits="userSpaceOnUse" xlink:href="#linearGradient2788"/><radialGradient id="radialGradient2784" cx="30.324" cy="13.38" r="29.756" fx="30.324" fy="13.38" gradientTransform="matrix(1.531919,0,0,1.531919,-16.12973,-7.117303)" gradientUnits="userSpaceOnUse" xlink:href="#linearGradient2778"/><linearGradient id="linearGradient2778"><stop id="stop2780" offset="0" style="stop-color:#ff0202;stop-opacity:1"/><stop id="stop2782" offset="1" style="stop-color:#b20000;stop-opacity:1"/></linearGradient><linearGradient id="linearGradient2788"><stop id="stop2790" offset="0" style="stop-color:white;stop-opacity:1"/><stop id="stop2792" offset="1" style="stop-color:white;stop-opacity:0"/></linearGradient><linearGradient id="linearGradient2806"><stop id="stop2808" offset="0" style="stop-color:black;stop-opacity:1"/><stop id="stop2810" offset="1" style="stop-color:black;stop-opacity:0"/></linearGradient><radialGradient id="radialGradient5242" cx="24.041" cy="1.116" r="17.106" fx="24.041" fy="1.116" gradientTransform="matrix(1.1246586,0,0,0.6964233,-20.07548,0.8083896)" gradientUnits="userSpaceOnUse" xlink:href="#linearGradient5236"/><filter id="filter5314" width="1.451" height="2.352" x="-.225" y="-.676"><feGaussianBlur id="feGaussianBlur5316" stdDeviation="2.182"/></filter><filter id="filter5407" width="1.412" height="1.192" x="-.206" y="-.096"><feGaussianBlur id="feGaussianBlur5409" stdDeviation=".88"/></filter></defs><metadata id="metadata4"/><path style="opacity:.64432989;fill:url(#radialGradient2812);fill-opacity:1;fill-rule:nonzero;stroke:none;stroke-width:1;stroke-linecap:butt;stroke-linejoin:miter;marker:none;marker-start:none;marker-mid:none;marker-end:none;stroke-miterlimit:4;stroke-dasharray:none;stroke-dashoffset:0;stroke-opacity:1;visibility:visible;display:inline;overflow:visible" id="path2804" d="M 42.5,39.75 A 17.25,5.75 0 1 1 8,39.75 A 17.25,5.75 0 1 1 42.5,39.75 z" transform="matrix(0.3826086,0,0,0.4973912,-2.5538149,-7.9854546)"/><path style="fill:url(#radialGradient2784);fill-opacity:1;fill-rule:evenodd;stroke:#c40000;stroke-width:4.51401442999999958;stroke-linecap:butt;stroke-linejoin:miter;stroke-miterlimit:4;stroke-dasharray:none;stroke-opacity:1" id="path4681" d="M 58.403591,29.207693 A 29.010935,29.010935 0 1 1 0.3817215,29.207693 A 29.010935,29.010935 0 1 1 58.403591,29.207693 z" transform="matrix(0.2215323,0,0,0.2215323,0.4154364,0.4564117)"/><g id="g5323" transform="matrix(0.33,0,0,0.33,-0.9710494,-0.3071034)" style="opacity:.54216865;fill:#000;fill-opacity:1;filter:url(#filter5407)"><rect id="rect5325" width="3.119" height="16.775" x="21.927" y="8.789" rx="1.56" ry="1.56" style="fill:#000;fill-opacity:1;fill-rule:evenodd;stroke:none;stroke-width:1pt;stroke-linecap:butt;stroke-linejoin:miter;stroke-opacity:1"/><rect id="rect5327" width="4.195" height="11.142" x="-2.048" y="31.37" rx="2.097" ry="2.097" transform="matrix(0.710722,-0.703473,0.703473,0.710722,0,0)" style="fill:#000;fill-opacity:1;fill-rule:evenodd;stroke:none;stroke-width:1pt;stroke-linecap:butt;stroke-linejoin:miter;stroke-opacity:1"/><path style="opacity:1;fill:#000;fill-opacity:1;fill-rule:evenodd;stroke:none;stroke-width:1;stroke-linecap:butt;stroke-linejoin:miter;marker:none;marker-start:none;marker-mid:none;marker-end:none;stroke-miterlimit:4;stroke-dasharray:none;stroke-dashoffset:0;stroke-opacity:1;visibility:visible;display:inline;overflow:visible;enable-background:accumulate" id="path5329" d="M 25.625,23.875 A 3.375,3.375 0 1 1 18.875,23.875 A 3.375,3.375 0 1 1 25.625,23.875 z" transform="matrix(1.0370371,0,0,1.0370371,0.7473093,-1.6734729)"/></g><g id="g5318" transform="matrix(0.33,0,0,0.33,-0.9710494,-0.4308534)"><rect style="fill:#eeeeec;fill-opacity:1;fill-rule:evenodd;stroke:none;stroke-width:1pt;stroke-linecap:butt;stroke-linejoin:miter;stroke-opacity:1" id="rect2180" width="3.119" height="16.775" x="21.927" y="8.789" rx="1.56" ry="1.56"/><rect style="fill:#eeeeec;fill-opacity:1;fill-rule:evenodd;stroke:none;stroke-width:1pt;stroke-linecap:butt;stroke-linejoin:miter;stroke-opacity:1" id="rect2181" width="4.195" height="11.142" x="-2.048" y="31.37" rx="2.097" ry="2.097" transform="matrix(0.710722,-0.703473,0.703473,0.710722,0,0)"/><path id="path4652" d="M 25.625,23.875 A 3.375,3.375 0 1 1 18.875,23.875 A 3.375,3.375 0 1 1 25.625,23.875 z" transform="matrix(1.0370371,0,0,1.0370371,0.7473093,-1.6734729)" style="opacity:1;fill:#eeeeec;fill-opacity:1;fill-rule:evenodd;stroke:none;stroke-width:1;stroke-linecap:butt;stroke-linejoin:miter;marker:none;marker-start:none;marker-mid:none;marker-end:none;stroke-miterlimit:4;stroke-dasharray:none;stroke-dashoffset:0;stroke-opacity:1;visibility:visible;display:inline;overflow:visible;enable-background:accumulate"/></g><path style="opacity:1;fill:#ef2929;fill-opacity:1;fill-rule:evenodd;stroke:none;stroke-width:1;stroke-linecap:butt;stroke-linejoin:miter;marker:none;marker-start:none;marker-mid:none;marker-end:none;stroke-miterlimit:4;stroke-dasharray:none;stroke-dashoffset:0;stroke-opacity:1;visibility:visible;display:inline;overflow:visible;filter:url(#filter5314);enable-background:accumulate" id="path5244" d="M 31.5,34.625 A 11.625,3.875 0 1 1 8.25,34.625 A 11.625,3.875 0 1 1 31.5,34.625 z" transform="matrix(0.3317742,0,0,0.3530645,0.3961886,-1.4150874)"/><path style="opacity:.25903625;fill:url(#radialGradient5242);fill-opacity:1;fill-rule:evenodd;stroke:none;stroke-width:1;stroke-linecap:butt;stroke-linejoin:miter;marker:none;marker-start:none;marker-mid:none;marker-end:none;stroke-miterlimit:4;stroke-dasharray:none;stroke-dashoffset:0;stroke-opacity:1;visibility:visible;display:inline;overflow:visible;enable-background:accumulate" id="path5231" d="M 6.9624986,1.2403786 C 3.8438096,1.2403786 1.3173756,3.7668136 1.3173756,6.8855016 C 1.3173756,7.1778786 1.3396206,7.4626796 1.3825116,7.7431266 C 3.0400296,8.0593566 4.9379166,8.2316466 6.9624986,8.2316466 C 8.9829746,8.2316466 10.88733,8.0581636 12.542486,7.7431266 C 12.585377,7.4626796 12.607622,7.1778786 12.607622,6.8855016 C 12.607622,3.7668136 10.081187,1.2403786 6.9624986,1.2403786 z"/></svg>