<svg xmlns="http://www.w3.org/2000/svg" xmlns:cc="http://web.resource.org/cc/" xmlns:svg="http://www.w3.org/2000/svg" xmlns:xlink="http://www.w3.org/1999/xlink" id="svg1306" width="48" height="48"><defs id="defs1308"><linearGradient id="linearGradient3957"><stop style="stop-color:#fffeff;stop-opacity:.33333334" id="stop3959" offset="0"/><stop style="stop-color:#fffeff;stop-opacity:.21568628" id="stop3961" offset="1"/></linearGradient><linearGradient id="linearGradient2536"><stop style="stop-color:#a40000;stop-opacity:1" id="stop2538" offset="0"/><stop style="stop-color:#ff1717;stop-opacity:1" id="stop2540" offset="1"/></linearGradient><linearGradient id="linearGradient2479"><stop style="stop-color:#ffe69b;stop-opacity:1" id="stop2481" offset="0"/><stop style="stop-color:#fff;stop-opacity:1" id="stop2483" offset="1"/></linearGradient><linearGradient id="linearGradient4126"><stop id="stop4128" offset="0" style="stop-color:#000;stop-opacity:1"/><stop id="stop4130" offset="1" style="stop-color:#000;stop-opacity:0"/></linearGradient><radialGradient id="radialGradient2169" cx="23.857" cy="40" r="17.143" fx="23.857" fy="40" gradientTransform="matrix(1.000000,0.000000,0.000000,0.500000,1.899196e-14,20.00000)" gradientUnits="userSpaceOnUse" xlink:href="#linearGradient4126"/><linearGradient id="linearGradient2485" x1="43.936" x2="20.065" y1="53.836" y2="-8.563" gradientUnits="userSpaceOnUse" xlink:href="#linearGradient2479"/><linearGradient id="linearGradient2542" x1="36.918" x2="19.071" y1="66.288" y2="5.541" gradientUnits="userSpaceOnUse" xlink:href="#linearGradient2536"/><linearGradient id="linearGradient3046" x1="36.918" x2="19.071" y1="66.288" y2="5.541" gradientUnits="userSpaceOnUse" xlink:href="#linearGradient2536"/><linearGradient id="linearGradient3048" x1="43.936" x2="20.065" y1="53.836" y2="-8.563" gradientUnits="userSpaceOnUse" xlink:href="#linearGradient2479"/><linearGradient id="linearGradient3064" x1="36.918" x2="19.071" y1="66.288" y2="5.541" gradientUnits="userSpaceOnUse" xlink:href="#linearGradient2536"/><linearGradient id="linearGradient3066" x1="43.936" x2="20.065" y1="53.836" y2="-8.563" gradientUnits="userSpaceOnUse" xlink:href="#linearGradient2479"/><linearGradient id="linearGradient3963" x1="21.994" x2="20.917" y1="33.955" y2="15.815" gradientUnits="userSpaceOnUse" xlink:href="#linearGradient3957"/><radialGradient id="radialGradient3976" cx="23.857" cy="40" r="17.143" fx="23.857" fy="40" gradientTransform="matrix(1,0,0,0.5,1.893048e-14,20)" gradientUnits="userSpaceOnUse" xlink:href="#linearGradient4126"/><linearGradient id="linearGradient3978" x1="36.918" x2="19.071" y1="66.288" y2="5.541" gradientUnits="userSpaceOnUse" xlink:href="#linearGradient2536"/><linearGradient id="linearGradient3980" x1="43.936" x2="20.065" y1="53.836" y2="-8.563" gradientUnits="userSpaceOnUse" xlink:href="#linearGradient2479"/><linearGradient id="linearGradient3982" x1="21.994" x2="20.917" y1="33.955" y2="15.815" gradientUnits="userSpaceOnUse" xlink:href="#linearGradient3957"/></defs><metadata id="metadata1311"/><g id="layer2" style="opacity:1;display:inline"><path id="path6548" d="M 41 40 A 17.142857 8.5714283 0 1 1 6.7142868,40 A 17.142857 8.5714283 0 1 1 41 40 z" transform="matrix(1.070555,0,0,0.525,-0.892755,22.5)" style="opacity:.6;color:#000;fill:url(#radialGradient3976);fill-opacity:1;fill-rule:nonzero;stroke:none;stroke-width:1;stroke-linecap:butt;stroke-linejoin:miter;marker:none;marker-start:none;marker-mid:none;marker-end:none;stroke-miterlimit:10;stroke-dasharray:none;stroke-dashoffset:0;stroke-opacity:1;visibility:visible;display:block;overflow:visible"/></g><g id="layer1" style="display:inline"><g id="g4006"><path id="path1314" d="M 46.857143 23.928572 A 23.357143 23.357143 0 1 1 0.1428566,23.928572 A 23.357143 23.357143 0 1 1 46.857143 23.928572 z" transform="matrix(0.920488,0,0,0.920488,2.368532,0.97408)" style="fill:url(#linearGradient3978);fill-opacity:1;fill-rule:nonzero;stroke:#b20000;stroke-width:1.08638;stroke-linecap:butt;stroke-linejoin:miter;stroke-miterlimit:4;stroke-dasharray:none;stroke-opacity:1"/><path id="path3560" d="M 49.901535 26.635273 A 23.991123 23.991123 0 1 1 1.9192886,26.635273 A 23.991123 23.991123 0 1 1 49.901535 26.635273 z" transform="matrix(0.856093,0,0,0.856093,1.818275,0.197769)" style="opacity:.34659089;fill:#c00;fill-opacity:0;stroke:url(#linearGradient3980);stroke-width:1.16809607;stroke-linecap:butt;stroke-linejoin:miter;stroke-miterlimit:4;stroke-dasharray:none;stroke-opacity:1"/></g></g><g id="layer3" style="display:inline"><rect style="fill:#efefef;fill-opacity:1;fill-rule:nonzero;stroke:none;stroke-width:.73876643;stroke-miterlimit:4;stroke-dasharray:none;stroke-opacity:.8627451" id="rect2070" width="27.836" height="7.174" x="10.079" y="19.165" transform="matrix(1.005876,0,0,1.115201,-0.138045,-2.372708)"/></g><g id="layer4" style="display:inline"><path id="path3955" d="M 43.370686,21.715486 C 43.370686,32.546102 33.016357,15.449178 24.695948,22.101874 C 16.569626,28.599385 4.0989837,34.292422 4.0989837,23.461806 C 4.0989837,12.377753 12.79438,2.0948032 23.625,2.0948032 C 34.455619,2.0948032 43.370686,10.884868 43.370686,21.715486 z" transform="matrix(1.002994,0,0,1.002994,-7.185874e-2,1.968356e-2)" style="fill:url(#linearGradient3982);fill-opacity:1;fill-rule:nonzero;stroke:none;stroke-width:1;stroke-linecap:round;stroke-linejoin:round;stroke-miterlimit:4;stroke-dashoffset:0;stroke-opacity:1"/></g></svg>