<svg xmlns="http://www.w3.org/2000/svg" xmlns:cc="http://web.resource.org/cc/" xmlns:svg="http://www.w3.org/2000/svg" xmlns:xlink="http://www.w3.org/1999/xlink" id="svg13684" width="48" height="48"><defs id="defs3"><linearGradient id="linearGradient6746" x1="-20.75" x2="-19.5" y1="29" y2="18.75" gradientUnits="userSpaceOnUse" xlink:href="#linearGradient6687"/><linearGradient id="linearGradient6687"><stop style="stop-color:#fff;stop-opacity:1" id="stop6689" offset="0"/><stop style="stop-color:#fff;stop-opacity:0" id="stop6691" offset="1"/></linearGradient><linearGradient id="linearGradient6744" x1="-20.75" x2="-19.5" y1="29" y2="18.75" gradientUnits="userSpaceOnUse" xlink:href="#linearGradient6687"/><linearGradient id="linearGradient6719"><stop style="stop-color:#73d216;stop-opacity:1" id="stop6721" offset="0"/><stop style="stop-color:#d5f7b3;stop-opacity:1" id="stop6723" offset="1"/></linearGradient><linearGradient id="linearGradient6742" x1="-17.863" x2="-20.822" y1="30.828" y2="25.015" gradientUnits="userSpaceOnUse" xlink:href="#linearGradient6719"/><linearGradient id="linearGradient6711"><stop style="stop-color:#5b8ccb;stop-opacity:1" id="stop6713" offset="0"/><stop style="stop-color:#3465a4;stop-opacity:1" id="stop6715" offset="1"/></linearGradient><linearGradient id="linearGradient6740" x1="-16.387" x2="-9.735" y1="24.454" y2="28.196" gradientUnits="userSpaceOnUse" xlink:href="#linearGradient6711"/><linearGradient id="linearGradient6699"><stop style="stop-color:#ff7171;stop-opacity:1" id="stop6701" offset="0"/><stop style="stop-color:#c00;stop-opacity:1" id="stop6703" offset="1"/></linearGradient><linearGradient id="linearGradient6738" x1="-22.976" x2="-14.36" y1="18.516" y2="33.016" gradientUnits="userSpaceOnUse" xlink:href="#linearGradient6699"/><linearGradient id="linearGradient4542"><stop style="stop-color:#000;stop-opacity:1" id="stop4544" offset="0"/><stop style="stop-color:#000;stop-opacity:0" id="stop4546" offset="1"/></linearGradient><radialGradient id="radialGradient4548" cx="24.307" cy="42.078" r="15.822" fx="24.307" fy="42.078" gradientTransform="matrix(1.000000,0.000000,0.000000,0.284916,-2.846681e-15,30.08928)" gradientUnits="userSpaceOnUse" xlink:href="#linearGradient4542"/><linearGradient id="linearGradient2456"><stop style="stop-color:#000;stop-opacity:1" id="stop2458" offset="0"/><stop style="stop-color:#000;stop-opacity:0" id="stop2460" offset="1"/></linearGradient><linearGradient id="linearGradient269"><stop id="stop270" offset="0" style="stop-color:#a3a3a3;stop-opacity:1"/><stop id="stop271" offset="1" style="stop-color:#4c4c4c;stop-opacity:1"/></linearGradient><radialGradient id="radialGradient15656" cx="8.824" cy="3.756" r="37.752" fx="8.824" fy="3.756" gradientTransform="matrix(0.971646,0.000000,0.000000,1.034707,3.240408,0.495684)" gradientUnits="userSpaceOnUse" xlink:href="#linearGradient269"/><linearGradient id="linearGradient259"><stop id="stop260" offset="0" style="stop-color:#fafafa;stop-opacity:1"/><stop id="stop261" offset="1" style="stop-color:#bbb;stop-opacity:1"/></linearGradient><radialGradient id="radialGradient15658" cx="33.967" cy="35.737" r="86.708" fx="33.967" fy="35.737" gradientTransform="matrix(0.963839,0.000000,0.000000,1.043088,-0.124825,-0.151970)" gradientUnits="userSpaceOnUse" xlink:href="#linearGradient259"/><linearGradient id="linearGradient15662"><stop id="stop15664" offset="0" style="stop-color:#fff;stop-opacity:1"/><stop id="stop15666" offset="1" style="stop-color:#f8f8f8;stop-opacity:1"/></linearGradient><radialGradient id="radialGradient15668" cx="8.144" cy="7.268" r="38.159" fx="8.144" fy="7.268" gradientTransform="matrix(0.974777,0.000000,0.000000,1.034091,3.161873,0.559274)" gradientUnits="userSpaceOnUse" xlink:href="#linearGradient15662"/><linearGradient id="aigrd13" x1="97.241" x2="118.302" y1="82.094" y2="99.298" gradientUnits="userSpaceOnUse"><stop id="stop12995" offset="0" style="stop-color:#e8f066"/><stop id="stop12997" offset="1" style="stop-color:#949941"/></linearGradient><linearGradient id="aigrd12" x1="90.831" x2="115.517" y1="89.11" y2="100.653" gradientUnits="userSpaceOnUse"><stop id="stop12988" offset="0" style="stop-color:#e8f066"/><stop id="stop12990" offset="1" style="stop-color:#777a34"/></linearGradient><linearGradient id="aigrd11" x1="105.092" x2="124.82" y1="75.11" y2="92.612" gradientUnits="userSpaceOnUse"><stop id="stop12981" offset="0" style="stop-color:#3fa6cc"/><stop id="stop12983" offset="1" style="stop-color:#00687a"/></linearGradient><linearGradient id="aigrd10" x1="107.867" x2="126.111" y1="84.758" y2="94.8" gradientUnits="userSpaceOnUse"><stop id="stop12974" offset="0" style="stop-color:#2c7894"/><stop id="stop12976" offset="1" style="stop-color:#0e3d47"/></linearGradient><linearGradient id="aigrd9" x1="105.818" x2="118.2" y1="78.108" y2="95.9" gradientUnits="userSpaceOnUse"><stop id="stop12967" offset="0" style="stop-color:#c1553a"/><stop id="stop12969" offset="1" style="stop-color:#803926"/></linearGradient><linearGradient id="aigrd8" x1="106.025" x2="118.348" y1="81.176" y2="98.883" gradientUnits="userSpaceOnUse"><stop id="stop12960" offset="0" style="stop-color:#c09287"/><stop id="stop12962" offset="1" style="stop-color:#803926"/></linearGradient><linearGradient id="linearGradient1681" x1="106.025" x2="118.348" y1="81.176" y2="98.883" gradientUnits="userSpaceOnUse" xlink:href="#aigrd8"/><linearGradient id="linearGradient1683" x1="105.818" x2="118.2" y1="78.108" y2="95.9" gradientUnits="userSpaceOnUse" xlink:href="#aigrd9"/><linearGradient id="linearGradient1685" x1="107.867" x2="126.111" y1="84.758" y2="94.8" gradientUnits="userSpaceOnUse" xlink:href="#aigrd10"/><linearGradient id="linearGradient1687" x1="105.092" x2="124.82" y1="75.11" y2="92.612" gradientUnits="userSpaceOnUse" xlink:href="#aigrd11"/><linearGradient id="linearGradient1689" x1="90.831" x2="115.517" y1="89.11" y2="100.653" gradientUnits="userSpaceOnUse" xlink:href="#aigrd12"/><linearGradient id="linearGradient1691" x1="97.241" x2="118.302" y1="82.094" y2="99.298" gradientUnits="userSpaceOnUse" xlink:href="#aigrd13"/><radialGradient id="radialGradient2462" cx="28.284" cy="47.401" r="13.804" fx="28.284" fy="47.401" gradientTransform="scale(1.164226,0.858940)" gradientUnits="userSpaceOnUse" xlink:href="#linearGradient2456"/></defs><metadata id="metadata4"/><g id="layer1" style="display:inline"><path style="opacity:.56725144;color:#000;fill:url(#radialGradient4548);fill-opacity:1;fill-rule:evenodd;stroke:none;stroke-width:2;stroke-linecap:round;stroke-linejoin:round;marker:none;marker-start:none;marker-mid:none;marker-end:none;stroke-miterlimit:4;stroke-dasharray:none;stroke-dashoffset:0;stroke-opacity:1;visibility:visible;display:inline;overflow:visible" id="path3667" d="M 40.128309 42.077980 A 15.821514 4.5078058 0 1 1 8.4852810,42.077980 A 15.821514 4.5078058 0 1 1 40.128309 42.077980 z" transform="matrix(1.169294,0.000000,0.000000,0.776431,-4.394955,10.82935)"/><rect style="color:#000;fill:url(#radialGradient15658);fill-opacity:1;fill-rule:nonzero;stroke:url(#radialGradient15656);stroke-width:.9999997;stroke-linecap:round;stroke-linejoin:round;marker:none;marker-start:none;marker-mid:none;marker-end:none;stroke-miterlimit:4;stroke-dashoffset:0;stroke-opacity:1;visibility:visible;display:block;overflow:visible" id="rect15391" width="34.997" height="40.997" x="6.502" y="3.501" rx="1.149" ry="1.149"/><rect style="color:#000;fill:none;fill-opacity:1;fill-rule:nonzero;stroke:url(#radialGradient15668);stroke-width:.9999997;stroke-linecap:round;stroke-linejoin:round;marker:none;marker-start:none;marker-mid:none;marker-end:none;stroke-miterlimit:4;stroke-dashoffset:0;stroke-opacity:1;visibility:visible;display:block;overflow:visible" id="rect15660" width="32.996" height="38.996" x="7.503" y="4.502" rx=".149" ry=".149"/><path id="rect13655" d="M 10.000000,6.0022030 L 10.000000,10.966297 L 10.000000,41.002203 L 20.000000,41.000000 L 20.000000,11.000000 L 38.000000,11.000000 L 38.000000,6.0022030 L 10.000000,6.0022030 z" style="color:#000;fill:#000;fill-opacity:.2105263;fill-rule:evenodd;stroke:none;stroke-width:.60787594;stroke-linecap:square;stroke-linejoin:round;marker:none;marker-start:none;marker-mid:none;marker-end:none;stroke-miterlimit:4;stroke-dashoffset:0;stroke-opacity:1;visibility:visible;display:inline;overflow:visible"/><path id="path13660" d="M 37.500415,10.502203 L 10.499583,10.502203" style="fill:#000;fill-opacity:.15789469;fill-rule:evenodd;stroke:#000;stroke-width:1.0000001px;stroke-linecap:square;stroke-linejoin:miter;stroke-opacity:.19298245"/><path id="path13662" d="M 37.500755,16.500000 L 10.499230,16.500000" style="fill:#000;fill-opacity:.15789469;fill-rule:evenodd;stroke:#000;stroke-width:.9999997px;stroke-linecap:square;stroke-linejoin:miter;stroke-opacity:.19298245"/><path id="path13664" d="M 37.500755,22.500000 L 10.499230,22.500000" style="fill:#000;fill-opacity:.15789469;fill-rule:evenodd;stroke:#000;stroke-width:.9999997px;stroke-linecap:square;stroke-linejoin:miter;stroke-opacity:.19298245"/><path id="path13666" d="M 37.500755,28.500000 L 10.499230,28.500000" style="fill:#000;fill-opacity:.15789469;fill-rule:evenodd;stroke:#000;stroke-width:.9999997px;stroke-linecap:square;stroke-linejoin:miter;stroke-opacity:.19298245"/><path id="path13668" d="M 37.501332,34.500000 L 10.499823,34.500000" style="fill:#000;fill-opacity:.15789469;fill-rule:evenodd;stroke:#000;stroke-width:.99999964px;stroke-linecap:square;stroke-linejoin:miter;stroke-opacity:.19298245"/><path id="path13682" d="M 37.500755,40.500000 L 10.499230,40.500000" style="fill:#000;fill-opacity:.15789469;fill-rule:evenodd;stroke:#000;stroke-width:.9999997px;stroke-linecap:square;stroke-linejoin:miter;stroke-opacity:.19298245"/><path id="path2464" d="M 37.511644,13.500000 L 10.500000,13.500000" style="fill:#000;fill-opacity:.15789469;fill-rule:evenodd;stroke:#000;stroke-width:1.0000001px;stroke-linecap:square;stroke-linejoin:miter;stroke-opacity:.19298245"/><path id="path2466" d="M 37.500755,19.500000 L 10.499230,19.500000" style="fill:none;fill-opacity:.15789469;fill-rule:evenodd;stroke:#000;stroke-width:.9999997px;stroke-linecap:square;stroke-linejoin:miter;stroke-opacity:.19298245"/><path id="path2468" d="M 37.500755,25.500000 L 10.499230,25.500000" style="fill:#000;fill-opacity:.15789469;fill-rule:evenodd;stroke:#000;stroke-width:.9999997px;stroke-linecap:square;stroke-linejoin:miter;stroke-opacity:.19298245"/><path id="path2470" d="M 37.500755,31.500000 L 10.499230,31.500000" style="fill:#000;fill-opacity:.15789469;fill-rule:evenodd;stroke:#000;stroke-width:.9999997px;stroke-linecap:square;stroke-linejoin:miter;stroke-opacity:.19298245"/><path id="path2472" d="M 37.500755,37.500000 L 10.499230,37.500000" style="fill:#000;fill-opacity:.15789469;fill-rule:evenodd;stroke:#000;stroke-width:.9999997px;stroke-linecap:square;stroke-linejoin:miter;stroke-opacity:.19298245"/><path style="fill:none;fill-opacity:.75;fill-rule:evenodd;stroke:#000;stroke-width:.99999982px;stroke-linecap:square;stroke-linejoin:miter;stroke-opacity:.15789469" id="path2485" d="M 37.500000,6.4997386 L 37.500000,40.500300"/><path style="fill:none;fill-opacity:.75;fill-rule:evenodd;stroke:#000;stroke-width:1px;stroke-linecap:square;stroke-linejoin:miter;stroke-opacity:.15789469" id="path2487" d="M 31.500000,6.4996867 L 31.500000,40.500315"/><path style="fill:none;fill-opacity:.75;fill-rule:evenodd;stroke:#000;stroke-width:1px;stroke-linecap:square;stroke-linejoin:miter;stroke-opacity:.15789469" id="path2489" d="M 25.500000,6.4996865 L 25.500000,40.500314"/><path style="fill:none;fill-opacity:.75;fill-rule:evenodd;stroke:#000;stroke-width:1px;stroke-linecap:square;stroke-linejoin:miter;stroke-opacity:.15789469" id="path2491" d="M 19.500000,6.4996867 L 19.500000,40.500315"/><path style="fill:none;fill-opacity:.75;fill-rule:evenodd;stroke:#000;stroke-width:1px;stroke-linecap:square;stroke-linejoin:miter;stroke-opacity:.15789469" id="path2493" d="M 10.500000,6.4996867 L 10.500000,40.500315"/><path id="path2495" d="M 37.500227,6.5022030 L 10.499460,6.5022030" style="fill:#000;fill-opacity:.15789469;fill-rule:evenodd;stroke:#000;stroke-width:.99999994px;stroke-linecap:square;stroke-linejoin:miter;stroke-opacity:.19298245"/></g><g id="layer2" style="display:inline"><path style="fill:url(#radialGradient2462);fill-opacity:1;fill-rule:evenodd;stroke:none;stroke-width:1px;stroke-linecap:butt;stroke-linejoin:miter;stroke-opacity:1" id="path1693" d="M 48.999998 40.714287 A 16.071428 11.857142 0 1 1 16.857141,40.714287 A 16.071428 11.857142 0 1 1 48.999998 40.714287 z" transform="matrix(0.920000,0.000000,0.000000,0.920000,2.777143,0.114286)"/><g id="g6727" transform="translate(51,9.12499)"><path id="path3931" d="M -27.528542,18.092794 C -30.097576,19.791125 -31.511475,22.097833 -31.511475,24.590696 L -31.511475,26.659988 C -31.511475,29.150828 -30.097576,31.458211 -27.528542,33.156541 C -25.102053,34.760445 -21.895416,35.644009 -18.499359,35.644009 C -15.104587,35.644009 -11.89795,34.760445 -9.4701774,33.156541 C -6.9024275,31.458211 -5.4885277,29.151503 -5.4885277,26.659988 L -5.4885277,24.590696 C -5.4885277,22.097833 -6.9030696,19.79045 -9.4701774,18.092794 C -11.897308,16.490239 -15.103945,15.606001 -18.499359,15.606001 C -21.895416,15.606001 -25.102053,16.490239 -27.528542,18.092794 z" style="fill:#670000;fill-opacity:1;fill-rule:nonzero;stroke:none;stroke-miterlimit:4"/><path id="path3933" d="M -7.0244261,24.453547 C -8.4030105,21.067003 -13.077484,18.573465 -18.636768,18.573465 C -24.196053,18.573465 -28.870526,21.067003 -30.249111,24.453547 L -30.663906,24.453547 L -30.663906,26.523514 C -30.663906,30.913678 -25.27863,34.472213 -18.636768,34.472213 C -11.994265,34.472213 -6.6102729,30.913678 -6.6102729,26.523514 L -6.6102729,24.453547 L -7.0244261,24.453547 L -7.0244261,24.453547 z" style="fill:#a40000;fill-rule:nonzero;stroke:none;stroke-miterlimit:4"/><path id="path3935" d="M -6.6102729,24.453547 C -6.6102729,28.844385 -11.994265,32.402921 -18.636768,32.402921 C -25.279272,32.402921 -30.663906,28.844385 -30.663906,24.453547 C -30.663906,20.062708 -25.27863,16.504173 -18.636768,16.504173 C -11.994265,16.504173 -6.6102729,20.062708 -6.6102729,24.453547 L -6.6102729,24.453547 z" style="fill:url(#linearGradient6738);fill-opacity:1;fill-rule:nonzero;stroke:none;stroke-miterlimit:4"/><path id="path3937" d="M -6.6102729,26.833098 L -6.6256833,24.666681 C -7.9297843,29.167459 -10.862246,31.074203 -14.549173,32.007678 L -14.549173,34.002103 C -10.558534,32.998483 -6.9871844,30.713358 -6.6102729,26.833098 L -6.6102729,26.833098 z" style="fill:#204a87;fill-rule:nonzero;stroke:none;stroke-miterlimit:4"/><path id="path3939" d="M -6.6102729,24.453547 C -6.8857329,29.533025 -13.16802,31.849176 -14.571646,31.937532 L -18.637411,24.453547 L -6.610915,24.453547 L -6.6102729,24.453547 z" style="fill:url(#linearGradient6740);fill-opacity:1;fill-rule:nonzero;stroke:none;stroke-miterlimit:4"/><path id="path3941" d="M -21.154435,34.298198 L -21.154435,32.228906 C -18.891039,32.523652 -16.814494,32.575587 -14.571646,32.015097 L -14.549173,34.002778 C -16.428593,34.619249 -19.36876,34.648251 -21.154435,34.298873 L -21.154435,34.298198 z" style="fill:#4e9a06;fill-rule:nonzero;stroke:none;stroke-miterlimit:4"/><path id="path3943" d="M -18.637411,24.454221 L -14.571646,31.937532 C -17.06106,32.88652 -21.154435,32.228906 -21.154435,32.228906 L -18.637411,24.454221 z" style="fill:url(#linearGradient6742);fill-opacity:1;fill-rule:nonzero;stroke:none;stroke-miterlimit:4"/><path id="path5959" d="M -6.875 24.375 A 11.75 7.75 0 1 1 -30.375,24.375 A 11.75 7.75 0 1 1 -6.875 24.375 z" transform="matrix(0.979592,0,0,0.979592,-0.380102,0.497449)" style="opacity:.31111115;color:#000;fill:none;fill-opacity:1;fill-rule:evenodd;stroke:url(#linearGradient6744);stroke-width:1.02083337;stroke-linecap:butt;stroke-linejoin:miter;marker:none;marker-start:none;marker-mid:none;marker-end:none;stroke-miterlimit:4;stroke-dasharray:none;stroke-dashoffset:0;stroke-opacity:1;visibility:visible;display:block;overflow:visible"/><path style="opacity:.13333327;color:#000;fill:none;fill-opacity:1;fill-rule:evenodd;stroke:url(#linearGradient6746);stroke-width:1.02083337;stroke-linecap:butt;stroke-linejoin:miter;marker:none;marker-start:none;marker-mid:none;marker-end:none;stroke-miterlimit:4;stroke-dasharray:none;stroke-dashoffset:0;stroke-opacity:1;visibility:visible;display:block;overflow:visible" id="path6707" d="M -6.875 24.375 A 11.75 7.75 0 1 1 -30.375,24.375 A 11.75 7.75 0 1 1 -6.875 24.375 z" transform="matrix(0.979592,0,0,0.979592,-0.380102,2.497449)"/></g></g></svg>