<svg xmlns="http://www.w3.org/2000/svg" xmlns:cc="http://web.resource.org/cc/" xmlns:svg="http://www.w3.org/2000/svg" xmlns:xlink="http://www.w3.org/1999/xlink" id="svg1306" width="48" height="48"><defs id="defs1308"><linearGradient id="linearGradient4083"><stop id="stop4085" offset="0" style="stop-color:#fff;stop-opacity:0"/><stop style="stop-color:#fff;stop-opacity:0" id="stop4089" offset=".75"/><stop id="stop4087" offset="1" style="stop-color:#fff;stop-opacity:1"/></linearGradient><linearGradient id="linearGradient4032"><stop id="stop4034" offset="0" style="stop-color:#fff7c2;stop-opacity:.63829786"/><stop style="stop-color:#fcaf3e;stop-opacity:.18348624" id="stop4036" offset=".594"/><stop id="stop4038" offset=".839" style="stop-color:#fcaf3e;stop-opacity:.50458717"/><stop id="stop4040" offset="1" style="stop-color:#fcaf3e;stop-opacity:1"/></linearGradient><linearGradient id="linearGradient4026"><stop id="stop4028" offset="0" style="stop-color:#fff9c6;stop-opacity:1"/><stop style="stop-color:#fff28c;stop-opacity:1" id="stop4042" offset=".542"/><stop id="stop4030" offset="1" style="stop-color:#ffea85;stop-opacity:1"/></linearGradient><linearGradient id="linearGradient7748" x1="-27.007" x2="-34.7" y1="-37.55" y2="-4.449" gradientUnits="userSpaceOnUse" xlink:href="#linearGradient2298"/><linearGradient id="linearGradient7746" x1="-25.137" x2="-35.653" y1="-1.249" y2="-24.884" gradientUnits="userSpaceOnUse" xlink:href="#linearGradient2527"/><linearGradient id="linearGradient7744" x1="11.149" x2="4.963" y1="-43.997" y2="-8.308" gradientUnits="userSpaceOnUse" xlink:href="#linearGradient3478"/><linearGradient id="linearGradient4829"><stop style="stop-color:#000;stop-opacity:1" id="stop4831" offset="0"/><stop style="stop-color:#000;stop-opacity:0" id="stop4833" offset="1"/></linearGradient><linearGradient id="linearGradient3478"><stop style="stop-color:#fff;stop-opacity:1" id="stop3480" offset="0"/><stop style="stop-color:#fff;stop-opacity:0" id="stop3482" offset="1"/></linearGradient><linearGradient id="linearGradient2298"><stop style="stop-color:#fff;stop-opacity:1" id="stop2300" offset="0"/><stop style="stop-color:#fff;stop-opacity:0" id="stop2302" offset="1"/></linearGradient><linearGradient id="linearGradient3347"><stop style="stop-color:#edd400;stop-opacity:1" id="stop3349" offset="0"/><stop style="stop-color:#edd400;stop-opacity:0" id="stop3351" offset="1"/></linearGradient><linearGradient id="linearGradient2527"><stop style="stop-color:#fcaf3e;stop-opacity:0" id="stop2529" offset="0"/><stop id="stop4022" offset=".666" style="stop-color:#fcaf3e;stop-opacity:.17431192"/><stop style="stop-color:#fcaf3e;stop-opacity:.55963302" id="stop4024" offset=".865"/><stop style="stop-color:#fcaf3e;stop-opacity:1" id="stop2531" offset="1"/></linearGradient><linearGradient id="linearGradient2500"><stop style="stop-color:#fce94f;stop-opacity:1" id="stop2502" offset="0"/><stop style="stop-color:#fce94f;stop-opacity:0" id="stop2504" offset="1"/></linearGradient><linearGradient id="linearGradient2392"><stop style="stop-color:#eeeeec;stop-opacity:1" id="stop2394" offset="0"/><stop style="stop-color:#eeeeec;stop-opacity:0" id="stop2396" offset="1"/></linearGradient><linearGradient id="linearGradient2254"><stop style="stop-color:#fff;stop-opacity:1" id="stop2256" offset="0"/><stop style="stop-color:#fff;stop-opacity:0" id="stop2258" offset="1"/></linearGradient><linearGradient id="linearGradient2263" x1="14.261" x2="16.852" y1="9.286" y2="16.269" gradientTransform="translate(-1.608757,3.097272)" gradientUnits="userSpaceOnUse" xlink:href="#linearGradient2254"/><linearGradient id="linearGradient2267" x1="14.261" x2="16.852" y1="9.286" y2="16.269" gradientTransform="translate(3.555020,0.968578)" gradientUnits="userSpaceOnUse" xlink:href="#linearGradient2254"/><linearGradient id="linearGradient2271" x1="14.261" x2="16.852" y1="9.286" y2="16.269" gradientTransform="translate(9.263651,3.495228)" gradientUnits="userSpaceOnUse" xlink:href="#linearGradient2254"/><linearGradient id="linearGradient2275" x1="14.261" x2="16.852" y1="9.286" y2="16.269" gradientTransform="translate(8.497184,-2.330824)" gradientUnits="userSpaceOnUse" xlink:href="#linearGradient2254"/><linearGradient id="linearGradient2279" x1="14.261" x2="16.852" y1="9.286" y2="16.269" gradientTransform="translate(14.46340,2.014073)" gradientUnits="userSpaceOnUse" xlink:href="#linearGradient2254"/><linearGradient id="linearGradient2283" x1="14.261" x2="16.852" y1="9.286" y2="16.269" gradientTransform="matrix(0.751222,0.000000,0.000000,1.000000,-0.197462,7.612867)" gradientUnits="userSpaceOnUse" xlink:href="#linearGradient2254"/><linearGradient id="linearGradient2287" x1="14.261" x2="16.852" y1="9.286" y2="16.269" gradientTransform="matrix(1.284317,0.000000,0.000000,1.000000,14.61983,4.452335)" gradientUnits="userSpaceOnUse" xlink:href="#linearGradient2254"/><linearGradient id="linearGradient2291" x1="14.261" x2="16.852" y1="9.286" y2="16.269" gradientTransform="matrix(0.834148,0.000000,0.000000,1.000000,14.87610,8.569976)" gradientUnits="userSpaceOnUse" xlink:href="#linearGradient2254"/><linearGradient id="linearGradient2295" x1="14.261" x2="16.852" y1="9.286" y2="16.269" gradientTransform="matrix(1.462015,0.000000,0.000000,1.262475,-5.687359,1.810269)" gradientUnits="userSpaceOnUse" xlink:href="#linearGradient2254"/><linearGradient id="linearGradient2299" x1="14.261" x2="16.852" y1="9.286" y2="16.269" gradientTransform="matrix(1.106619,0.000000,0.000000,1.000000,6.383860,6.500432)" gradientUnits="userSpaceOnUse" xlink:href="#linearGradient2254"/><linearGradient id="linearGradient2303" x1="14.261" x2="16.852" y1="9.286" y2="16.269" gradientTransform="translate(1.707748,-5.784024)" gradientUnits="userSpaceOnUse" xlink:href="#linearGradient2254"/><linearGradient id="linearGradient2311" x1="14.261" x2="16.852" y1="9.286" y2="16.269" gradientTransform="matrix(-0.976307,0.000000,0.000000,1.000000,53.94753,8.563694)" gradientUnits="userSpaceOnUse" xlink:href="#linearGradient2254"/><linearGradient id="linearGradient2350" x1="14.261" x2="16.852" y1="9.286" y2="16.269" gradientTransform="translate(16.14002,24.66420)" gradientUnits="userSpaceOnUse" xlink:href="#linearGradient2254"/><linearGradient id="linearGradient2352" x1="14.261" x2="16.852" y1="9.286" y2="16.269" gradientTransform="translate(-0.932144,25.87240)" gradientUnits="userSpaceOnUse" xlink:href="#linearGradient2254"/><linearGradient id="linearGradient2354" x1="14.261" x2="16.852" y1="9.286" y2="16.269" gradientTransform="translate(5.356636,23.86870)" gradientUnits="userSpaceOnUse" xlink:href="#linearGradient2254"/><linearGradient id="linearGradient2356" x1="14.261" x2="16.852" y1="9.286" y2="16.269" gradientTransform="translate(11.19027,26.52035)" gradientUnits="userSpaceOnUse" xlink:href="#linearGradient2254"/><linearGradient id="linearGradient2358" x1="14.261" x2="16.852" y1="9.286" y2="16.269" gradientTransform="translate(10.30638,19.27251)" gradientUnits="userSpaceOnUse" xlink:href="#linearGradient2254"/><linearGradient id="linearGradient2360" x1="14.261" x2="16.852" y1="9.286" y2="16.269" gradientTransform="matrix(0.751222,0.000000,0.000000,1.000000,0.229156,30.76299)" gradientUnits="userSpaceOnUse" xlink:href="#linearGradient2254"/><linearGradient id="linearGradient2362" x1="14.261" x2="16.852" y1="9.286" y2="16.269" gradientTransform="matrix(1.284317,0.000000,0.000000,1.000000,16.67145,27.22746)" gradientUnits="userSpaceOnUse" xlink:href="#linearGradient2254"/><linearGradient id="linearGradient2364" x1="14.261" x2="16.852" y1="9.286" y2="16.269" gradientTransform="matrix(0.834148,0.000000,0.000000,1.000000,17.05272,31.47010)" gradientUnits="userSpaceOnUse" xlink:href="#linearGradient2254"/><linearGradient id="linearGradient2366" x1="14.261" x2="16.852" y1="9.286" y2="16.269" gradientTransform="matrix(1.462015,0.000000,0.000000,1.262475,-4.010744,24.96040)" gradientUnits="userSpaceOnUse" xlink:href="#linearGradient2254"/><linearGradient id="linearGradient2368" x1="14.261" x2="16.852" y1="9.286" y2="16.269" gradientTransform="matrix(1.106619,0.000000,0.000000,1.000000,8.185476,29.52556)" gradientUnits="userSpaceOnUse" xlink:href="#linearGradient2254"/><linearGradient id="linearGradient2370" x1="14.261" x2="16.852" y1="9.286" y2="16.269" gradientTransform="translate(4.207586,21.30544)" gradientUnits="userSpaceOnUse" xlink:href="#linearGradient2254"/><linearGradient id="linearGradient2372" x1="14.261" x2="16.852" y1="9.286" y2="16.269" gradientTransform="matrix(-0.976307,0.000000,0.000000,1.000000,56.12415,32.08882)" gradientUnits="userSpaceOnUse" xlink:href="#linearGradient2254"/><linearGradient id="linearGradient2398" x1="6.665" x2="41.404" y1="13.803" y2="13.803" gradientTransform="matrix(0.992367,0.000000,0.000000,0.990713,1.128541,5.404075)" gradientUnits="userSpaceOnUse" xlink:href="#linearGradient2392"/><linearGradient id="linearGradient2426" x1="14.261" x2="16.852" y1="9.286" y2="16.269" gradientTransform="translate(14.46340,2.014073)" gradientUnits="userSpaceOnUse" xlink:href="#linearGradient2254"/><linearGradient id="linearGradient2428" x1="14.261" x2="16.852" y1="9.286" y2="16.269" gradientTransform="translate(8.497184,-2.330824)" gradientUnits="userSpaceOnUse" xlink:href="#linearGradient2254"/><linearGradient id="linearGradient2430" x1="14.261" x2="16.852" y1="9.286" y2="16.269" gradientTransform="translate(-1.608757,3.097272)" gradientUnits="userSpaceOnUse" xlink:href="#linearGradient2254"/><linearGradient id="linearGradient2432" x1="14.261" x2="16.852" y1="9.286" y2="16.269" gradientTransform="translate(3.555020,0.968578)" gradientUnits="userSpaceOnUse" xlink:href="#linearGradient2254"/><linearGradient id="linearGradient2434" x1="14.261" x2="16.852" y1="9.286" y2="16.269" gradientTransform="translate(9.263651,3.495228)" gradientUnits="userSpaceOnUse" xlink:href="#linearGradient2254"/><linearGradient id="linearGradient2436" x1="14.261" x2="16.852" y1="9.286" y2="16.269" gradientTransform="matrix(0.751222,0.000000,0.000000,1.000000,-0.197462,7.612867)" gradientUnits="userSpaceOnUse" xlink:href="#linearGradient2254"/><linearGradient id="linearGradient2438" x1="14.261" x2="16.852" y1="9.286" y2="16.269" gradientTransform="matrix(1.284317,0.000000,0.000000,1.000000,14.61983,4.452335)" gradientUnits="userSpaceOnUse" xlink:href="#linearGradient2254"/><linearGradient id="linearGradient2440" x1="14.261" x2="16.852" y1="9.286" y2="16.269" gradientTransform="matrix(0.834148,0.000000,0.000000,1.000000,14.87610,8.569976)" gradientUnits="userSpaceOnUse" xlink:href="#linearGradient2254"/><linearGradient id="linearGradient2442" x1="14.261" x2="16.852" y1="9.286" y2="16.269" gradientTransform="matrix(1.462015,0.000000,0.000000,1.262475,-5.687359,1.810269)" gradientUnits="userSpaceOnUse" xlink:href="#linearGradient2254"/><linearGradient id="linearGradient2444" x1="14.261" x2="16.852" y1="9.286" y2="16.269" gradientTransform="matrix(1.106619,0.000000,0.000000,1.000000,6.383860,6.500432)" gradientUnits="userSpaceOnUse" xlink:href="#linearGradient2254"/><linearGradient id="linearGradient2446" x1="14.261" x2="16.852" y1="9.286" y2="16.269" gradientTransform="matrix(-0.976307,0.000000,0.000000,1.000000,53.94753,8.563694)" gradientUnits="userSpaceOnUse" xlink:href="#linearGradient2254"/><linearGradient id="linearGradient2448" x1="6.665" x2="41.404" y1="13.803" y2="13.803" gradientTransform="matrix(0.992367,0.000000,0.000000,0.990713,1.128541,5.404075)" gradientUnits="userSpaceOnUse" xlink:href="#linearGradient2392"/><linearGradient id="linearGradient2451" x1="6.665" x2="41.404" y1="13.803" y2="13.803" gradientTransform="matrix(0.992367,0.000000,0.000000,0.990713,4.378541,10.65407)" gradientUnits="userSpaceOnUse" xlink:href="#linearGradient2392"/><linearGradient id="linearGradient2457" x1="14.261" x2="16.852" y1="9.286" y2="16.269" gradientTransform="matrix(1.106619,0.000000,0.000000,1.000000,9.633860,11.75043)" gradientUnits="userSpaceOnUse" xlink:href="#linearGradient2254"/><linearGradient id="linearGradient2460" x1="14.261" x2="16.852" y1="9.286" y2="16.269" gradientTransform="matrix(1.462015,0.000000,0.000000,1.262475,-2.437359,7.060269)" gradientUnits="userSpaceOnUse" xlink:href="#linearGradient2254"/><linearGradient id="linearGradient2463" x1="14.261" x2="16.852" y1="9.286" y2="16.269" gradientTransform="matrix(0.834148,0.000000,0.000000,1.000000,18.12610,13.81998)" gradientUnits="userSpaceOnUse" xlink:href="#linearGradient2254"/><linearGradient id="linearGradient2469" x1="14.261" x2="16.852" y1="9.286" y2="16.269" gradientTransform="matrix(0.751222,0.000000,0.000000,1.000000,3.052538,12.86287)" gradientUnits="userSpaceOnUse" xlink:href="#linearGradient2254"/><linearGradient id="linearGradient2472" x1="14.261" x2="16.852" y1="9.286" y2="16.269" gradientTransform="translate(12.51365,8.745228)" gradientUnits="userSpaceOnUse" xlink:href="#linearGradient2254"/><linearGradient id="linearGradient2475" x1="14.261" x2="16.852" y1="9.286" y2="16.269" gradientTransform="translate(6.805020,6.218578)" gradientUnits="userSpaceOnUse" xlink:href="#linearGradient2254"/><linearGradient id="linearGradient2478" x1="14.261" x2="16.852" y1="9.286" y2="16.269" gradientTransform="translate(1.641243,8.347272)" gradientUnits="userSpaceOnUse" xlink:href="#linearGradient2254"/><linearGradient id="linearGradient2483" x1="14.261" x2="16.852" y1="9.286" y2="16.269" gradientTransform="translate(0.842481,-3.998086)" gradientUnits="userSpaceOnUse" xlink:href="#linearGradient2254"/><linearGradient id="linearGradient2506" x1="37" x2="53.75" y1="-21.75" y2="9" gradientUnits="userSpaceOnUse" xlink:href="#linearGradient2500"/><linearGradient id="linearGradient2509" x1="37" x2="53.75" y1="-21.75" y2="9" gradientTransform="matrix(0.889091,0.000000,0.000000,0.617886,-4.771368,39.81402)" gradientUnits="userSpaceOnUse" xlink:href="#linearGradient2500"/><linearGradient id="linearGradient2513" x1="38.858" x2="53.75" y1="-18.407" y2="9" gradientTransform="matrix(0.605509,0.000000,0.000000,0.710542,-0.224971,42.19500)" gradientUnits="userSpaceOnUse" xlink:href="#linearGradient2500"/><linearGradient id="linearGradient2517" x1="37" x2="53.75" y1="-21.75" y2="9" gradientTransform="matrix(0.414169,0.000000,0.000000,0.778853,-1.910724,36.87850)" gradientUnits="userSpaceOnUse" xlink:href="#linearGradient2500"/><linearGradient id="linearGradient2533" x1="-25.137" x2="-35.653" y1="-1.249" y2="-24.884" gradientUnits="userSpaceOnUse" xlink:href="#linearGradient2527"/><linearGradient id="linearGradient2537" x1="14.261" x2="16.852" y1="9.286" y2="16.269" gradientTransform="translate(17.33814,3.415985)" gradientUnits="userSpaceOnUse" xlink:href="#linearGradient2254"/><linearGradient id="linearGradient2541" x1="14.261" x2="16.852" y1="9.286" y2="16.269" gradientTransform="translate(13.40064,1.353485)" gradientUnits="userSpaceOnUse" xlink:href="#linearGradient2254"/><linearGradient id="linearGradient2555" x1="14.261" x2="16.852" y1="9.286" y2="16.269" gradientTransform="translate(-7.499805,1.708617)" gradientUnits="userSpaceOnUse" xlink:href="#linearGradient2254"/><linearGradient id="linearGradient2563" x1="14.261" x2="16.852" y1="9.286" y2="16.269" gradientTransform="translate(-0.726830,2.481141)" gradientUnits="userSpaceOnUse" xlink:href="#linearGradient2254"/><linearGradient id="linearGradient3353" x1="23.304" x2="29.75" y1="29.116" y2="46.093" gradientUnits="userSpaceOnUse" xlink:href="#linearGradient3347"/><linearGradient id="linearGradient3366" x1="14.261" x2="16.852" y1="9.286" y2="16.269" gradientTransform="translate(13.40064,1.353485)" gradientUnits="userSpaceOnUse" xlink:href="#linearGradient2254"/><linearGradient id="linearGradient3368" x1="14.261" x2="16.852" y1="9.286" y2="16.269" gradientTransform="translate(1.641243,8.347272)" gradientUnits="userSpaceOnUse" xlink:href="#linearGradient2254"/><linearGradient id="linearGradient3370" x1="14.261" x2="16.852" y1="9.286" y2="16.269" gradientTransform="translate(6.805020,6.218578)" gradientUnits="userSpaceOnUse" xlink:href="#linearGradient2254"/><linearGradient id="linearGradient3372" x1="14.261" x2="16.852" y1="9.286" y2="16.269" gradientTransform="translate(12.51365,8.745228)" gradientUnits="userSpaceOnUse" xlink:href="#linearGradient2254"/><linearGradient id="linearGradient3374" x1="14.261" x2="16.852" y1="9.286" y2="16.269" gradientTransform="matrix(0.751222,0.000000,0.000000,1.000000,3.052538,12.86287)" gradientUnits="userSpaceOnUse" xlink:href="#linearGradient2254"/><linearGradient id="linearGradient3376" x1="14.261" x2="16.852" y1="9.286" y2="16.269" gradientTransform="matrix(0.834148,0.000000,0.000000,1.000000,18.12610,13.81998)" gradientUnits="userSpaceOnUse" xlink:href="#linearGradient2254"/><linearGradient id="linearGradient3378" x1="14.261" x2="16.852" y1="9.286" y2="16.269" gradientTransform="matrix(1.462015,0.000000,0.000000,1.262475,-2.437359,7.060269)" gradientUnits="userSpaceOnUse" xlink:href="#linearGradient2254"/><linearGradient id="linearGradient3380" x1="14.261" x2="16.852" y1="9.286" y2="16.269" gradientTransform="matrix(1.106619,0.000000,0.000000,1.000000,9.633860,11.75043)" gradientUnits="userSpaceOnUse" xlink:href="#linearGradient2254"/><linearGradient id="linearGradient3383" x1="14.261" x2="16.852" y1="9.286" y2="16.269" gradientTransform="matrix(1.106619,0.000000,0.000000,1.000000,0.795022,6.093572)" gradientUnits="userSpaceOnUse" xlink:href="#linearGradient2254"/><linearGradient id="linearGradient3386" x1="14.261" x2="16.852" y1="9.286" y2="16.269" gradientTransform="matrix(1.462015,0.000000,0.000000,1.262475,-11.27620,1.403411)" gradientUnits="userSpaceOnUse" xlink:href="#linearGradient2254"/><linearGradient id="linearGradient3389" x1="14.261" x2="16.852" y1="9.286" y2="16.269" gradientTransform="matrix(0.834148,0.000000,0.000000,1.000000,9.287262,8.163122)" gradientUnits="userSpaceOnUse" xlink:href="#linearGradient2254"/><linearGradient id="linearGradient3392" x1="14.261" x2="16.852" y1="9.286" y2="16.269" gradientTransform="matrix(0.751222,0.000000,0.000000,1.000000,-5.786300,7.206012)" gradientUnits="userSpaceOnUse" xlink:href="#linearGradient2254"/><linearGradient id="linearGradient3395" x1="14.261" x2="16.852" y1="9.286" y2="16.269" gradientTransform="translate(3.674812,3.088370)" gradientUnits="userSpaceOnUse" xlink:href="#linearGradient2254"/><linearGradient id="linearGradient3398" x1="14.261" x2="16.852" y1="9.286" y2="16.269" gradientTransform="translate(-2.033818,0.561720)" gradientUnits="userSpaceOnUse" xlink:href="#linearGradient2254"/><linearGradient id="linearGradient3401" x1="14.261" x2="16.852" y1="9.286" y2="16.269" gradientTransform="translate(-7.197595,2.690414)" gradientUnits="userSpaceOnUse" xlink:href="#linearGradient2254"/><linearGradient id="linearGradient3405" x1="14.261" x2="16.852" y1="9.286" y2="16.269" gradientTransform="translate(4.561802,-4.303373)" gradientUnits="userSpaceOnUse" xlink:href="#linearGradient2254"/><linearGradient id="linearGradient1514" x1="14.261" x2="16.852" y1="9.286" y2="16.269" gradientTransform="translate(88.49344,-9.697877)" gradientUnits="userSpaceOnUse" xlink:href="#linearGradient2254"/><linearGradient id="linearGradient1516" x1="14.261" x2="16.852" y1="9.286" y2="16.269" gradientTransform="matrix(1.462015,0.000000,0.000000,1.262475,56.25514,-12.39388)" gradientUnits="userSpaceOnUse" xlink:href="#linearGradient2254"/><linearGradient id="linearGradient1518" x1="14.261" x2="16.852" y1="9.286" y2="16.269" gradientTransform="matrix(1.284317,0.000000,0.000000,1.000000,79.36909,-3.193747)" gradientUnits="userSpaceOnUse" xlink:href="#linearGradient2254"/><linearGradient id="linearGradient1520" x1="-25.137" x2="-35.653" y1="-1.249" y2="-24.884" gradientUnits="userSpaceOnUse" xlink:href="#linearGradient2527"/><linearGradient id="linearGradient1522" x1="14.261" x2="16.852" y1="9.286" y2="16.269" gradientTransform="translate(-7.197595,2.690414)" gradientUnits="userSpaceOnUse" xlink:href="#linearGradient2254"/><linearGradient id="linearGradient1524" x1="14.261" x2="16.852" y1="9.286" y2="16.269" gradientTransform="translate(-2.033818,0.561720)" gradientUnits="userSpaceOnUse" xlink:href="#linearGradient2254"/><linearGradient id="linearGradient1526" x1="14.261" x2="16.852" y1="9.286" y2="16.269" gradientTransform="translate(3.674812,3.088370)" gradientUnits="userSpaceOnUse" xlink:href="#linearGradient2254"/><linearGradient id="linearGradient1528" x1="14.261" x2="16.852" y1="9.286" y2="16.269" gradientTransform="matrix(0.751222,0.000000,0.000000,1.000000,-5.786300,7.206012)" gradientUnits="userSpaceOnUse" xlink:href="#linearGradient2254"/><linearGradient id="linearGradient1530" x1="14.261" x2="16.852" y1="9.286" y2="16.269" gradientTransform="matrix(0.834148,0.000000,0.000000,1.000000,9.287262,8.163122)" gradientUnits="userSpaceOnUse" xlink:href="#linearGradient2254"/><linearGradient id="linearGradient1532" x1="14.261" x2="16.852" y1="9.286" y2="16.269" gradientTransform="matrix(1.462015,0.000000,0.000000,1.262475,-11.27620,1.403411)" gradientUnits="userSpaceOnUse" xlink:href="#linearGradient2254"/><linearGradient id="linearGradient1534" x1="14.261" x2="16.852" y1="9.286" y2="16.269" gradientTransform="matrix(1.106619,0.000000,0.000000,1.000000,0.795022,6.093572)" gradientUnits="userSpaceOnUse" xlink:href="#linearGradient2254"/><linearGradient id="linearGradient1536" x1="14.261" x2="16.852" y1="9.286" y2="16.269" gradientTransform="matrix(-0.976307,0.000000,0.000000,1.000000,123.1162,-5.446357)" gradientUnits="userSpaceOnUse" xlink:href="#linearGradient2254"/><linearGradient id="linearGradient1538" x1="14.261" x2="16.852" y1="9.286" y2="16.269" gradientTransform="translate(57.97693,-10.56876)" gradientUnits="userSpaceOnUse" xlink:href="#linearGradient2254"/><linearGradient id="linearGradient1557" x1="-25.137" x2="-35.653" y1="-1.249" y2="-24.884" gradientUnits="userSpaceOnUse" xlink:href="#linearGradient2527"/><radialGradient id="radialGradient4835" cx="-35.002" cy="-1.144" r="17.501" fx="-35.002" fy="-1.144" gradientTransform="matrix(1.000000,0.000000,0.000000,0.565657,-5.564992e-15,-0.496855)" gradientUnits="userSpaceOnUse" xlink:href="#linearGradient4829"/><linearGradient id="linearGradient1427" x1="-27.007" x2="-34.7" y1="-37.55" y2="-4.449" gradientUnits="userSpaceOnUse" xlink:href="#linearGradient2298"/><linearGradient id="linearGradient1431" x1="11.149" x2="4.963" y1="-43.997" y2="-8.308" gradientUnits="userSpaceOnUse" xlink:href="#linearGradient3478"/><linearGradient id="linearGradient14128" x1="11.149" x2="4.963" y1="-43.997" y2="-8.308" gradientUnits="userSpaceOnUse" xlink:href="#linearGradient3478"/><linearGradient id="linearGradient14130" x1="-25.137" x2="-35.653" y1="-1.249" y2="-24.884" gradientUnits="userSpaceOnUse" xlink:href="#linearGradient2527"/><linearGradient id="linearGradient14132" x1="-27.007" x2="-34.7" y1="-37.55" y2="-4.449" gradientUnits="userSpaceOnUse" xlink:href="#linearGradient2298"/><linearGradient id="linearGradient3151" x1="-25.137" x2="-35.653" y1="-1.249" y2="-24.884" gradientUnits="userSpaceOnUse" xlink:href="#linearGradient2527"/><linearGradient id="linearGradient3153" x1="-27.007" x2="-34.7" y1="-37.55" y2="-4.449" gradientUnits="userSpaceOnUse" xlink:href="#linearGradient2298"/><linearGradient id="linearGradient3155" x1="11.149" x2="4.963" y1="-43.997" y2="-8.308" gradientUnits="userSpaceOnUse" xlink:href="#linearGradient3478"/><linearGradient id="linearGradient3161" x1="11.149" x2="4.963" y1="-43.997" y2="-8.308" gradientUnits="userSpaceOnUse" xlink:href="#linearGradient3478"/><linearGradient id="linearGradient3168" x1="-28.969" x2="-37.197" y1="-25.327" y2="-9.559" gradientUnits="userSpaceOnUse" xlink:href="#linearGradient4026"/><radialGradient id="radialGradient4020" cx="-33.519" cy="-22.113" r="9.5" fx="-33.519" fy="-22.113" gradientTransform="matrix(0.487739,1.292402,-1.10267,0.497242,-41.77393,32.41492)" gradientUnits="userSpaceOnUse" xlink:href="#linearGradient4032"/><linearGradient id="linearGradient4057" x1="11.149" x2="4.963" y1="-43.997" y2="-8.308" gradientUnits="userSpaceOnUse" xlink:href="#linearGradient3478"/><radialGradient id="radialGradient4081" cx="24" cy="23.382" r="19.142" fx="24" fy="23.382" gradientTransform="matrix(1.006701,2.235326e-16,-2.23715e-16,1.007522,-0.160816,0.426981)" gradientUnits="userSpaceOnUse" xlink:href="#linearGradient4083"/></defs><metadata id="metadata1311"/><g id="layer1"><g id="g3936"><g style="opacity:.7" id="g4091"><path style="fill:#fce94f;fill-opacity:1;stroke:#fcaf3e;stroke-width:.73732895;stroke-linecap:square;stroke-linejoin:miter;stroke-miterlimit:4;stroke-dasharray:none;stroke-opacity:1" id="path7492" d="M 24 2.5 L 21.625 9.1875 C 22.399034 9.0641318 23.191406 9 24 9 C 24.808594 9 25.600966 9.0641317 26.375 9.1875 L 24 2.5 z M 8.8125 8.78125 L 11.84375 15.21875 C 12.779034 13.928569 13.928569 12.779034 15.21875 11.84375 L 8.8125 8.78125 z M 39.21875 8.78125 L 32.78125 11.84375 C 34.071431 12.779034 35.220966 13.928569 36.15625 15.21875 L 39.21875 8.78125 z M 9.1875 21.59375 L 2.5 23.96875 L 9.1875 26.34375 C 9.0673373 25.57952 9 24.797813 9 24 C 9 23.180625 9.0608858 22.377571 9.1875 21.59375 z M 38.8125 21.625 C 38.935868 22.399034 39 23.191406 39 24 C 39 24.808594 38.935868 25.600966 38.8125 26.375 L 45.5 24 L 38.8125 21.625 z M 11.84375 32.78125 L 8.8125 39.1875 L 15.21875 36.15625 C 13.928569 35.220966 12.779034 34.071431 11.84375 32.78125 z M 36.15625 32.78125 C 35.229789 34.05926 34.087617 35.194799 32.8125 36.125 L 39.21875 39.1875 L 36.15625 32.78125 z M 21.625 38.8125 L 24 45.5 L 26.375 38.8125 C 25.600966 38.935868 24.808594 39 24 39 C 23.191406 39 22.399034 38.935868 21.625 38.8125 z"/><path style="fill:none;fill-opacity:1;stroke:url(#radialGradient4081);stroke-width:.84646249;stroke-linecap:square;stroke-linejoin:miter;stroke-miterlimit:4;stroke-dasharray:none;stroke-opacity:1" id="path7494" d="M 24 5.25 L 22.65625 9.0625 C 23.098888 9.0231486 23.547187 9 24 9 C 24.452813 9 24.901112 9.0231486 25.34375 9.0625 L 24 5.25 z M 10.78125 10.75 L 12.5 14.375 C 13.071538 13.694089 13.724004 13.038745 14.40625 12.46875 L 10.78125 10.75 z M 37.25 10.75 L 33.625 12.46875 C 34.304675 13.038189 34.961811 13.695325 35.53125 14.375 L 37.25 10.75 z M 9.0625 22.625 L 5.28125 23.96875 L 9.0625 25.3125 C 9.024981 24.880146 9 24.442031 9 24 C 9 23.536406 9.0212735 23.077908 9.0625 22.625 z M 38.9375 22.65625 C 38.976851 23.098888 39 23.547187 39 24 C 39 24.452813 38.976851 24.901112 38.9375 25.34375 L 42.71875 24 L 38.9375 22.65625 z M 35.53125 33.59375 C 34.958293 34.27954 34.309985 34.957363 33.625 35.53125 L 37.25 37.25 L 35.53125 33.59375 z M 12.5 33.625 L 10.78125 37.21875 L 14.375 35.5 C 13.702932 34.935884 13.064116 34.297068 12.5 33.625 z M 22.65625 38.9375 L 24 42.71875 L 25.34375 38.9375 C 24.901112 38.976851 24.452813 39 24 39 C 23.547187 39 23.098888 38.976851 22.65625 38.9375 z"/></g><g id="g4046"><g id="g3931"><path id="path7498" d="M -22.5 -17.5 A 9.5 9.5 0 1 1 -41.5,-17.5 A 9.5 9.5 0 1 1 -22.5 -17.5 z" transform="matrix(0.778062,-1.061285,1.061287,0.778062,67.47952,3.641324)" style="fill:#ffee54;fill-opacity:1;stroke:#fcaf3e;stroke-width:.75991178;stroke-linecap:square;stroke-linejoin:miter;stroke-miterlimit:4;stroke-dasharray:none;stroke-opacity:1"/><path id="path7500" d="M -22.5 -17.5 A 9.5 9.5 0 1 1 -41.5,-17.5 A 9.5 9.5 0 1 1 -22.5 -17.5 z" transform="matrix(1.244257,-0.167707,0.216642,1.251844,67.61648,40.527)" style="fill:url(#radialGradient4020);fill-opacity:1;stroke:none;stroke-width:1.01737845;stroke-linecap:square;stroke-linejoin:miter;stroke-miterlimit:4;stroke-dasharray:none;stroke-opacity:1"/><path id="path7502" d="M -22.5 -17.5 A 9.5 9.5 0 1 1 -41.5,-17.5 A 9.5 9.5 0 1 1 -22.5 -17.5 z" transform="matrix(0.715791,-0.976349,0.97635,0.715792,64.00044,5.269544)" style="fill:none;fill-opacity:1;stroke:url(#linearGradient3168);stroke-width:.82601947;stroke-linecap:square;stroke-linejoin:miter;stroke-miterlimit:4;stroke-dasharray:none;stroke-opacity:1"/></g></g></g></g></svg>