<svg xmlns="http://www.w3.org/2000/svg" xmlns:cc="http://web.resource.org/cc/" xmlns:svg="http://www.w3.org/2000/svg" xmlns:xlink="http://www.w3.org/1999/xlink" id="svg1306" width="48" height="48"><defs id="defs1308"><linearGradient id="linearGradient6724" x1="284.802" x2="288.9" y1="-441.233" y2="-436.831" gradientUnits="userSpaceOnUse" xlink:href="#linearGradient6538"/><linearGradient id="linearGradient6722" x1="286.666" x2="289.766" y1="-439.484" y2="-436.707" gradientUnits="userSpaceOnUse" xlink:href="#linearGradient6549"/><linearGradient id="linearGradient6720" x1="275.942" x2="279.975" y1="-437.105" y2="-431.918" gradientUnits="userSpaceOnUse" xlink:href="#linearGradient6527"/><linearGradient id="linearGradient6718" x1="285.941" x2="289.391" y1="-439.939" y2="-436.443" gradientUnits="userSpaceOnUse" xlink:href="#linearGradient6538"/><linearGradient id="linearGradient6716" x1="286.512" x2="289.854" y1="-441.291" y2="-436.145" gradientUnits="userSpaceOnUse" xlink:href="#linearGradient6513"/><linearGradient id="linearGradient6714" x1="287.517" x2="289.676" y1="-439.753" y2="-436.322" gradientUnits="userSpaceOnUse" xlink:href="#linearGradient6497"/><linearGradient id="linearGradient6712" x1="271.022" x2="285.029" y1="-441.052" y2="-431.97" gradientUnits="userSpaceOnUse" xlink:href="#linearGradient6470"/><linearGradient id="linearGradient6839" x1="284.802" x2="288.9" y1="-441.233" y2="-436.831" gradientUnits="userSpaceOnUse" xlink:href="#linearGradient6538"/><linearGradient id="linearGradient6549"><stop style="stop-color:#fff;stop-opacity:1" id="stop6551" offset="0"/><stop style="stop-color:#fff;stop-opacity:0" id="stop6553" offset="1"/></linearGradient><linearGradient id="linearGradient6837" x1="286.666" x2="289.766" y1="-439.484" y2="-436.707" gradientUnits="userSpaceOnUse" xlink:href="#linearGradient6549"/><linearGradient id="linearGradient6527"><stop style="stop-color:#fff;stop-opacity:1" id="stop6530" offset="0"/><stop style="stop-color:#fff;stop-opacity:0" id="stop6532" offset="1"/></linearGradient><linearGradient id="linearGradient6835" x1="275.942" x2="279.975" y1="-437.105" y2="-431.918" gradientUnits="userSpaceOnUse" xlink:href="#linearGradient6527"/><linearGradient id="linearGradient6538"><stop style="stop-color:#fff;stop-opacity:1" id="stop6540" offset="0"/><stop style="stop-color:#fff;stop-opacity:0" id="stop6542" offset="1"/></linearGradient><linearGradient id="linearGradient6833" x1="285.941" x2="289.391" y1="-439.939" y2="-436.443" gradientUnits="userSpaceOnUse" xlink:href="#linearGradient6538"/><linearGradient id="linearGradient6513"><stop style="stop-color:#fff;stop-opacity:1" id="stop6515" offset="0"/><stop style="stop-color:#fff;stop-opacity:0" id="stop6517" offset="1"/></linearGradient><linearGradient id="linearGradient6831" x1="286.512" x2="289.854" y1="-441.291" y2="-436.145" gradientUnits="userSpaceOnUse" xlink:href="#linearGradient6513"/><linearGradient id="linearGradient6497"><stop style="stop-color:#fff;stop-opacity:1" id="stop6499" offset="0"/><stop style="stop-color:#fff;stop-opacity:0" id="stop6501" offset="1"/></linearGradient><linearGradient id="linearGradient6829" x1="287.517" x2="289.676" y1="-439.753" y2="-436.322" gradientUnits="userSpaceOnUse" xlink:href="#linearGradient6497"/><linearGradient id="linearGradient6470"><stop style="stop-color:#fff;stop-opacity:1" id="stop6472" offset="0"/><stop style="stop-color:#fff;stop-opacity:0" id="stop6474" offset="1"/></linearGradient><linearGradient id="linearGradient6827" x1="271.022" x2="285.029" y1="-441.052" y2="-431.97" gradientUnits="userSpaceOnUse" xlink:href="#linearGradient6470"/><linearGradient id="linearGradient4083"><stop id="stop4085" offset="0" style="stop-color:#fff;stop-opacity:0"/><stop style="stop-color:#fff;stop-opacity:0" id="stop4089" offset=".75"/><stop id="stop4087" offset="1" style="stop-color:#fff;stop-opacity:1"/></linearGradient><linearGradient id="linearGradient4032"><stop id="stop4034" offset="0" style="stop-color:#fff7c2;stop-opacity:.63829786"/><stop style="stop-color:#fcaf3e;stop-opacity:.18348624" id="stop4036" offset=".594"/><stop id="stop4038" offset=".839" style="stop-color:#fcaf3e;stop-opacity:.50458717"/><stop id="stop4040" offset="1" style="stop-color:#fcaf3e;stop-opacity:1"/></linearGradient><linearGradient id="linearGradient4026"><stop id="stop4028" offset="0" style="stop-color:#fff9c6;stop-opacity:1"/><stop style="stop-color:#fff28c;stop-opacity:1" id="stop4042" offset=".542"/><stop id="stop4030" offset="1" style="stop-color:#ffea85;stop-opacity:1"/></linearGradient><linearGradient id="linearGradient3168" x1="-28.969" x2="-37.197" y1="-25.327" y2="-9.559" gradientUnits="userSpaceOnUse" xlink:href="#linearGradient4026"/><radialGradient id="radialGradient4020" cx="-33.519" cy="-22.113" r="9.5" fx="-33.519" fy="-22.113" gradientTransform="matrix(0.487739,1.292402,-1.10267,0.497242,-41.77393,32.41492)" gradientUnits="userSpaceOnUse" xlink:href="#linearGradient4032"/><radialGradient id="radialGradient4081" cx="24" cy="23.382" r="19.142" fx="24" fy="23.382" gradientTransform="matrix(1.006701,2.235326e-16,-2.23715e-16,1.007522,-0.160816,0.426981)" gradientUnits="userSpaceOnUse" xlink:href="#linearGradient4083"/></defs><metadata id="metadata1311"/><g id="layer1"><g id="g6783" transform="translate(-263.99,459.9855)"><path id="path6785" d="M 280.50000,-445.50000 C 278.22917,-445.50000 276.39009,-443.94972 275.78125,-441.87500 C 275.08802,-442.23883 274.33674,-442.50000 273.50000,-442.50000 C 270.74000,-442.50000 268.49999,-440.26001 268.50000,-437.50000 C 268.50000,-436.92107 268.66252,-436.39230 268.84375,-435.87500 C 267.47028,-435.10426 266.50000,-433.68600 266.50000,-432.00000 C 266.50000,-429.51600 268.51600,-427.49999 271.00000,-427.50000 C 271.17713,-427.50000 289.82287,-427.50000 290.00000,-427.50000 C 292.48399,-427.50000 294.50000,-429.51600 294.50000,-432.00000 C 294.50000,-433.68600 293.52972,-435.10426 292.15625,-435.87500 C 292.33749,-436.39229 292.50000,-436.92108 292.50000,-437.50000 C 292.50000,-440.26000 290.26000,-442.49999 287.50000,-442.50000 C 286.66326,-442.50000 285.91198,-442.23883 285.21875,-441.87500 C 284.60991,-443.94972 282.77083,-445.50000 280.50000,-445.50000 z" style="fill:#c4c5c2;fill-opacity:1;stroke:#888a85;stroke-width:1;stroke-linecap:butt;stroke-linejoin:miter;stroke-miterlimit:2;stroke-dasharray:none;stroke-dashoffset:0;stroke-opacity:1"/><path id="path6787" d="M 280.50000,-445.00000 C 278.31028,-445.00000 276.77640,-443.66423 276.10445,-441.15648 C 275.43599,-441.50010 274.55686,-441.98983 273.75000,-441.98983 C 271.03349,-441.98983 268.99486,-440.05101 268.99487,-437.44429 C 268.99487,-436.89752 269.26208,-436.11085 269.43683,-435.62228 C 268.11240,-434.89433 267.00000,-433.73178 267.00000,-432.24973 C 267.00000,-429.90368 268.54617,-427.99964 271.33928,-427.99964 C 271.51009,-427.99964 289.48992,-427.99964 289.66072,-427.99964 C 292.43173,-427.99964 294.00000,-429.90368 294.00000,-432.24973 C 294.00000,-433.84210 292.88760,-434.91642 291.56317,-435.64437 C 291.73793,-436.13293 292.02724,-436.89753 292.02724,-437.44429 C 292.02724,-440.05100 289.91143,-442.01192 287.25001,-442.01193 C 286.44314,-442.01193 285.60820,-441.52219 284.93974,-441.17857 C 284.29089,-443.60011 282.68973,-445.00000 280.50000,-445.00000 z" style="opacity:1;fill:url(#linearGradient6827);fill-opacity:1;stroke:none;stroke-width:.99999958;stroke-linecap:butt;stroke-linejoin:miter;stroke-miterlimit:2;stroke-dasharray:none;stroke-dashoffset:0;stroke-opacity:1"/><g id="g6789"><path style="opacity:1;fill:#c4c5c2;fill-opacity:1;stroke:none;stroke-width:1;stroke-linecap:butt;stroke-linejoin:miter;stroke-miterlimit:2;stroke-dasharray:none;stroke-dashoffset:0;stroke-opacity:1" id="path6791" d="M 291.68750 -437.59375 A 3.3125000 3.3125000 0 1 1 285.06250,-437.59375 A 3.3125000 3.3125000 0 1 1 291.68750 -437.59375 z" transform="matrix(1.056604,0.000000,0.000000,1.056604,-24.19818,21.86331)"/><path style="opacity:1;fill:url(#linearGradient6829);fill-opacity:1;stroke:none;stroke-width:1;stroke-linecap:butt;stroke-linejoin:miter;stroke-miterlimit:2;stroke-dasharray:none;stroke-dashoffset:0;stroke-opacity:1" id="path6793" d="M 291.68750 -437.59375 A 3.3125000 3.3125000 0 1 1 285.06250,-437.59375 A 3.3125000 3.3125000 0 1 1 291.68750 -437.59375 z" transform="matrix(1.056604,0.000000,0.000000,1.056604,-24.19818,21.86331)"/></g><rect id="rect6795" width="20" height="9" x="271" y="-438" style="opacity:1;fill:#c4c5c2;fill-opacity:1;stroke:none;stroke-width:1;stroke-linecap:butt;stroke-linejoin:miter;stroke-miterlimit:2;stroke-dasharray:none;stroke-dashoffset:0;stroke-opacity:1"/><path id="path6797" d="M 291.68750 -437.59375 A 3.3125000 3.3125000 0 1 1 285.06250,-437.59375 A 3.3125000 3.3125000 0 1 1 291.68750 -437.59375 z" transform="matrix(0.905660,0.000000,0.000000,0.905660,9.830195,-35.68869)" style="opacity:1;fill:#c4c5c2;fill-opacity:1;stroke:none;stroke-width:1;stroke-linecap:butt;stroke-linejoin:miter;stroke-miterlimit:2;stroke-dasharray:none;stroke-dashoffset:0;stroke-opacity:1"/><g id="g6799"><path style="opacity:1;fill:#c4c5c2;fill-opacity:1;stroke:none;stroke-width:1;stroke-linecap:butt;stroke-linejoin:miter;stroke-miterlimit:2;stroke-dasharray:none;stroke-dashoffset:0;stroke-opacity:1" id="path6801" d="M 291.68750 -437.59375 A 3.3125000 3.3125000 0 1 1 285.06250,-437.59375 A 3.3125000 3.3125000 0 1 1 291.68750 -437.59375 z" transform="matrix(1.056604,0.000000,0.000000,1.056604,-17.19811,24.86321)"/><path style="opacity:1;fill:url(#linearGradient6831);fill-opacity:1;stroke:none;stroke-width:1;stroke-linecap:butt;stroke-linejoin:miter;stroke-miterlimit:2;stroke-dasharray:none;stroke-dashoffset:0;stroke-opacity:1" id="path6803" d="M 291.68750 -437.59375 A 3.3125000 3.3125000 0 1 1 285.06250,-437.59375 A 3.3125000 3.3125000 0 1 1 291.68750 -437.59375 z" transform="matrix(1.056604,0.000000,0.000000,1.056604,-17.19818,24.86331)"/></g><g id="g6805"><path style="opacity:1;fill:#c4c5c2;fill-opacity:1;stroke:none;stroke-width:1;stroke-linecap:butt;stroke-linejoin:miter;stroke-miterlimit:2;stroke-dasharray:none;stroke-dashoffset:0;stroke-opacity:1" id="path6807" d="M 291.68750 -437.59375 A 3.3125000 3.3125000 0 1 1 285.06250,-437.59375 A 3.3125000 3.3125000 0 1 1 291.68750 -437.59375 z" transform="matrix(1.056604,0.000000,0.000000,1.056604,-31.19818,24.86331)"/><path style="opacity:1;fill:url(#linearGradient6833);fill-opacity:1;stroke:none;stroke-width:1;stroke-linecap:butt;stroke-linejoin:miter;stroke-miterlimit:2;stroke-dasharray:none;stroke-dashoffset:0;stroke-opacity:1" id="path6809" d="M 291.68750 -437.59375 A 3.3125000 3.3125000 0 1 1 285.06250,-437.59375 A 3.3125000 3.3125000 0 1 1 291.68750 -437.59375 z" transform="matrix(1.056604,0.000000,0.000000,1.056604,-31.19818,24.86331)"/></g><g id="g6811" transform="translate(-1.000000,0.000000)"><path style="opacity:1;fill:#c4c5c2;fill-opacity:1;stroke:none;stroke-width:1;stroke-linecap:butt;stroke-linejoin:miter;stroke-miterlimit:2;stroke-dasharray:none;stroke-dashoffset:0;stroke-opacity:1" id="path6813" d="M 280.46875,-440.96875 C 276.88937,-440.96875 274.00000,-438.04812 274.00000,-434.46875 C 274.00000,-432.09807 275.34943,-430.13096 277.25000,-429.00000 L 283.71875,-429.00000 C 285.61932,-430.13096 286.96875,-432.12931 286.96875,-434.50000 C 286.96875,-438.07938 284.04812,-440.96875 280.46875,-440.96875 z"/><path style="opacity:1;fill:url(#linearGradient6835);fill-opacity:1;stroke:none;stroke-width:1;stroke-linecap:butt;stroke-linejoin:miter;stroke-miterlimit:2;stroke-dasharray:none;stroke-dashoffset:0;stroke-opacity:1" id="path6815" d="M 280.50000,-441.00000 C 276.91200,-441.00000 274.00000,-438.08799 274.00000,-434.50000 C 274.00000,-432.12360 275.34485,-430.13368 277.25000,-429.00000 L 283.75000,-429.00000 C 285.65515,-430.13368 287.00000,-432.12360 287.00000,-434.50000 C 287.00000,-438.08800 284.08800,-440.99999 280.50000,-441.00000 z"/></g><path id="path6817" d="M 291.68750 -437.59375 A 3.3125000 3.3125000 0 1 1 285.06250,-437.59375 A 3.3125000 3.3125000 0 1 1 291.68750 -437.59375 z" transform="matrix(0.905660,0.000000,0.000000,0.905660,9.830296,-35.68884)" style="opacity:1;fill:url(#linearGradient6837);fill-opacity:1;stroke:none;stroke-width:1;stroke-linecap:butt;stroke-linejoin:miter;stroke-miterlimit:2;stroke-dasharray:none;stroke-dashoffset:0;stroke-opacity:1"/><path id="path6819" d="M 292.95640,-437.33396 C 292.95487,-434.64940 289.68714,-433.62001 289.68714,-433.62001 C 289.68714,-433.62001 292.03588,-435.24596 292.02399,-437.32502 C 292.02399,-437.32502 292.95640,-437.33396 292.95640,-437.33396 z" style="fill:#888a85;fill-opacity:1;fill-rule:evenodd;stroke:none;stroke-width:1px;stroke-linecap:butt;stroke-linejoin:miter;stroke-opacity:1"/><g id="g6821" transform="matrix(1.142857,0.000000,0.000000,1.142857,-28.57139,67.00008)"><path style="opacity:1;fill:#c4c5c2;fill-opacity:1;stroke:none;stroke-width:1;stroke-linecap:butt;stroke-linejoin:miter;stroke-miterlimit:2;stroke-dasharray:none;stroke-dashoffset:0;stroke-opacity:1" id="path6823" d="M 291.68750 -437.59375 A 3.3125000 3.3125000 0 1 1 285.06250,-437.59375 A 3.3125000 3.3125000 0 1 1 291.68750 -437.59375 z" transform="matrix(1.056604,0.000000,0.000000,1.056604,-31.19818,24.86331)"/><path style="opacity:1;fill:url(#linearGradient6839);fill-opacity:1;stroke:none;stroke-width:1;stroke-linecap:butt;stroke-linejoin:miter;stroke-miterlimit:2;stroke-dasharray:none;stroke-dashoffset:0;stroke-opacity:1" id="path6825" d="M 291.68750 -437.59375 A 3.3125000 3.3125000 0 1 1 285.06250,-437.59375 A 3.3125000 3.3125000 0 1 1 291.68750 -437.59375 z" transform="matrix(1.056604,0.000000,0.000000,1.056604,-31.19818,24.86331)"/></g></g><g id="g3936"><g style="opacity:.7" id="g4091"><path style="fill:#fce94f;fill-opacity:1;stroke:#fcaf3e;stroke-width:.73732895;stroke-linecap:square;stroke-linejoin:miter;stroke-miterlimit:4;stroke-dasharray:none;stroke-opacity:1" id="path7492" d="M 24 2.5 L 21.625 9.1875 C 22.399034 9.0641318 23.191406 9 24 9 C 24.808594 9 25.600966 9.0641317 26.375 9.1875 L 24 2.5 z M 8.8125 8.78125 L 11.84375 15.21875 C 12.779034 13.928569 13.928569 12.779034 15.21875 11.84375 L 8.8125 8.78125 z M 39.21875 8.78125 L 32.78125 11.84375 C 34.071431 12.779034 35.220966 13.928569 36.15625 15.21875 L 39.21875 8.78125 z M 9.1875 21.59375 L 2.5 23.96875 L 9.1875 26.34375 C 9.0673373 25.57952 9 24.797813 9 24 C 9 23.180625 9.0608858 22.377571 9.1875 21.59375 z M 38.8125 21.625 C 38.935868 22.399034 39 23.191406 39 24 C 39 24.808594 38.935868 25.600966 38.8125 26.375 L 45.5 24 L 38.8125 21.625 z M 11.84375 32.78125 L 8.8125 39.1875 L 15.21875 36.15625 C 13.928569 35.220966 12.779034 34.071431 11.84375 32.78125 z M 36.15625 32.78125 C 35.229789 34.05926 34.087617 35.194799 32.8125 36.125 L 39.21875 39.1875 L 36.15625 32.78125 z M 21.625 38.8125 L 24 45.5 L 26.375 38.8125 C 25.600966 38.935868 24.808594 39 24 39 C 23.191406 39 22.399034 38.935868 21.625 38.8125 z"/><path style="fill:none;fill-opacity:1;stroke:url(#radialGradient4081);stroke-width:.84646249;stroke-linecap:square;stroke-linejoin:miter;stroke-miterlimit:4;stroke-dasharray:none;stroke-opacity:1" id="path7494" d="M 24 5.25 L 22.65625 9.0625 C 23.098888 9.0231486 23.547187 9 24 9 C 24.452813 9 24.901112 9.0231486 25.34375 9.0625 L 24 5.25 z M 10.78125 10.75 L 12.5 14.375 C 13.071538 13.694089 13.724004 13.038745 14.40625 12.46875 L 10.78125 10.75 z M 37.25 10.75 L 33.625 12.46875 C 34.304675 13.038189 34.961811 13.695325 35.53125 14.375 L 37.25 10.75 z M 9.0625 22.625 L 5.28125 23.96875 L 9.0625 25.3125 C 9.024981 24.880146 9 24.442031 9 24 C 9 23.536406 9.0212735 23.077908 9.0625 22.625 z M 38.9375 22.65625 C 38.976851 23.098888 39 23.547187 39 24 C 39 24.452813 38.976851 24.901112 38.9375 25.34375 L 42.71875 24 L 38.9375 22.65625 z M 35.53125 33.59375 C 34.958293 34.27954 34.309985 34.957363 33.625 35.53125 L 37.25 37.25 L 35.53125 33.59375 z M 12.5 33.625 L 10.78125 37.21875 L 14.375 35.5 C 13.702932 34.935884 13.064116 34.297068 12.5 33.625 z M 22.65625 38.9375 L 24 42.71875 L 25.34375 38.9375 C 24.901112 38.976851 24.452813 39 24 39 C 23.547187 39 23.098888 38.976851 22.65625 38.9375 z"/></g><g id="g4046"><g id="g3931"><path id="path7498" d="M -22.5 -17.5 A 9.5 9.5 0 1 1 -41.5,-17.5 A 9.5 9.5 0 1 1 -22.5 -17.5 z" transform="matrix(0.778062,-1.061285,1.061287,0.778062,67.47952,3.641324)" style="fill:#ffee54;fill-opacity:1;stroke:#fcaf3e;stroke-width:.75991178;stroke-linecap:square;stroke-linejoin:miter;stroke-miterlimit:4;stroke-dasharray:none;stroke-opacity:1"/><path id="path7500" d="M -22.5 -17.5 A 9.5 9.5 0 1 1 -41.5,-17.5 A 9.5 9.5 0 1 1 -22.5 -17.5 z" transform="matrix(1.244257,-0.167707,0.216642,1.251844,67.61648,40.527)" style="fill:url(#radialGradient4020);fill-opacity:1;stroke:none;stroke-width:1.01737845;stroke-linecap:square;stroke-linejoin:miter;stroke-miterlimit:4;stroke-dasharray:none;stroke-opacity:1"/><path id="path7502" d="M -22.5 -17.5 A 9.5 9.5 0 1 1 -41.5,-17.5 A 9.5 9.5 0 1 1 -22.5 -17.5 z" transform="matrix(0.715791,-0.976349,0.97635,0.715792,64.00044,5.269544)" style="fill:none;fill-opacity:1;stroke:url(#linearGradient3168);stroke-width:.82601947;stroke-linecap:square;stroke-linejoin:miter;stroke-miterlimit:4;stroke-dasharray:none;stroke-opacity:1"/></g></g></g><g id="g6668" transform="translate(-248.99,467.9855)"><path id="path6670" d="M 280.50000,-445.50000 C 278.22917,-445.50000 276.39009,-443.94972 275.78125,-441.87500 C 275.08802,-442.23883 274.33674,-442.50000 273.50000,-442.50000 C 270.74000,-442.50000 268.49999,-440.26001 268.50000,-437.50000 C 268.50000,-436.92107 268.66252,-436.39230 268.84375,-435.87500 C 267.47028,-435.10426 266.50000,-433.68600 266.50000,-432.00000 C 266.50000,-429.51600 268.51600,-427.49999 271.00000,-427.50000 C 271.17713,-427.50000 289.82287,-427.50000 290.00000,-427.50000 C 292.48399,-427.50000 294.50000,-429.51600 294.50000,-432.00000 C 294.50000,-433.68600 293.52972,-435.10426 292.15625,-435.87500 C 292.33749,-436.39229 292.50000,-436.92108 292.50000,-437.50000 C 292.50000,-440.26000 290.26000,-442.49999 287.50000,-442.50000 C 286.66326,-442.50000 285.91198,-442.23883 285.21875,-441.87500 C 284.60991,-443.94972 282.77083,-445.50000 280.50000,-445.50000 z" style="fill:#c4c5c2;fill-opacity:1;stroke:#888a85;stroke-width:1;stroke-linecap:butt;stroke-linejoin:miter;stroke-miterlimit:2;stroke-dasharray:none;stroke-dashoffset:0;stroke-opacity:1"/><path id="path6672" d="M 280.50000,-445.00000 C 278.31028,-445.00000 276.77640,-443.66423 276.10445,-441.15648 C 275.43599,-441.50010 274.55686,-441.98983 273.75000,-441.98983 C 271.03349,-441.98983 268.99486,-440.05101 268.99487,-437.44429 C 268.99487,-436.89752 269.26208,-436.11085 269.43683,-435.62228 C 268.11240,-434.89433 267.00000,-433.73178 267.00000,-432.24973 C 267.00000,-429.90368 268.54617,-427.99964 271.33928,-427.99964 C 271.51009,-427.99964 289.48992,-427.99964 289.66072,-427.99964 C 292.43173,-427.99964 294.00000,-429.90368 294.00000,-432.24973 C 294.00000,-433.84210 292.88760,-434.91642 291.56317,-435.64437 C 291.73793,-436.13293 292.02724,-436.89753 292.02724,-437.44429 C 292.02724,-440.05100 289.91143,-442.01192 287.25001,-442.01193 C 286.44314,-442.01193 285.60820,-441.52219 284.93974,-441.17857 C 284.29089,-443.60011 282.68973,-445.00000 280.50000,-445.00000 z" style="opacity:1;fill:url(#linearGradient6712);fill-opacity:1;stroke:none;stroke-width:.99999958;stroke-linecap:butt;stroke-linejoin:miter;stroke-miterlimit:2;stroke-dasharray:none;stroke-dashoffset:0;stroke-opacity:1"/><g id="g6674"><path style="opacity:1;fill:#c4c5c2;fill-opacity:1;stroke:none;stroke-width:1;stroke-linecap:butt;stroke-linejoin:miter;stroke-miterlimit:2;stroke-dasharray:none;stroke-dashoffset:0;stroke-opacity:1" id="path6676" d="M 291.68750 -437.59375 A 3.3125000 3.3125000 0 1 1 285.06250,-437.59375 A 3.3125000 3.3125000 0 1 1 291.68750 -437.59375 z" transform="matrix(1.056604,0.000000,0.000000,1.056604,-24.19818,21.86331)"/><path style="opacity:1;fill:url(#linearGradient6714);fill-opacity:1;stroke:none;stroke-width:1;stroke-linecap:butt;stroke-linejoin:miter;stroke-miterlimit:2;stroke-dasharray:none;stroke-dashoffset:0;stroke-opacity:1" id="path6678" d="M 291.68750 -437.59375 A 3.3125000 3.3125000 0 1 1 285.06250,-437.59375 A 3.3125000 3.3125000 0 1 1 291.68750 -437.59375 z" transform="matrix(1.056604,0.000000,0.000000,1.056604,-24.19818,21.86331)"/></g><rect id="rect6680" width="20" height="9" x="271" y="-438" style="opacity:1;fill:#c4c5c2;fill-opacity:1;stroke:none;stroke-width:1;stroke-linecap:butt;stroke-linejoin:miter;stroke-miterlimit:2;stroke-dasharray:none;stroke-dashoffset:0;stroke-opacity:1"/><path id="path6682" d="M 291.68750 -437.59375 A 3.3125000 3.3125000 0 1 1 285.06250,-437.59375 A 3.3125000 3.3125000 0 1 1 291.68750 -437.59375 z" transform="matrix(0.905660,0.000000,0.000000,0.905660,9.830195,-35.68869)" style="opacity:1;fill:#c4c5c2;fill-opacity:1;stroke:none;stroke-width:1;stroke-linecap:butt;stroke-linejoin:miter;stroke-miterlimit:2;stroke-dasharray:none;stroke-dashoffset:0;stroke-opacity:1"/><g id="g6684"><path style="opacity:1;fill:#c4c5c2;fill-opacity:1;stroke:none;stroke-width:1;stroke-linecap:butt;stroke-linejoin:miter;stroke-miterlimit:2;stroke-dasharray:none;stroke-dashoffset:0;stroke-opacity:1" id="path6686" d="M 291.68750 -437.59375 A 3.3125000 3.3125000 0 1 1 285.06250,-437.59375 A 3.3125000 3.3125000 0 1 1 291.68750 -437.59375 z" transform="matrix(1.056604,0.000000,0.000000,1.056604,-17.19811,24.86321)"/><path style="opacity:1;fill:url(#linearGradient6716);fill-opacity:1;stroke:none;stroke-width:1;stroke-linecap:butt;stroke-linejoin:miter;stroke-miterlimit:2;stroke-dasharray:none;stroke-dashoffset:0;stroke-opacity:1" id="path6688" d="M 291.68750 -437.59375 A 3.3125000 3.3125000 0 1 1 285.06250,-437.59375 A 3.3125000 3.3125000 0 1 1 291.68750 -437.59375 z" transform="matrix(1.056604,0.000000,0.000000,1.056604,-17.19818,24.86331)"/></g><g id="g6690"><path style="opacity:1;fill:#c4c5c2;fill-opacity:1;stroke:none;stroke-width:1;stroke-linecap:butt;stroke-linejoin:miter;stroke-miterlimit:2;stroke-dasharray:none;stroke-dashoffset:0;stroke-opacity:1" id="path6692" d="M 291.68750 -437.59375 A 3.3125000 3.3125000 0 1 1 285.06250,-437.59375 A 3.3125000 3.3125000 0 1 1 291.68750 -437.59375 z" transform="matrix(1.056604,0.000000,0.000000,1.056604,-31.19818,24.86331)"/><path style="opacity:1;fill:url(#linearGradient6718);fill-opacity:1;stroke:none;stroke-width:1;stroke-linecap:butt;stroke-linejoin:miter;stroke-miterlimit:2;stroke-dasharray:none;stroke-dashoffset:0;stroke-opacity:1" id="path6694" d="M 291.68750 -437.59375 A 3.3125000 3.3125000 0 1 1 285.06250,-437.59375 A 3.3125000 3.3125000 0 1 1 291.68750 -437.59375 z" transform="matrix(1.056604,0.000000,0.000000,1.056604,-31.19818,24.86331)"/></g><g id="g6696" transform="translate(-1.000000,0.000000)"><path style="opacity:1;fill:#c4c5c2;fill-opacity:1;stroke:none;stroke-width:1;stroke-linecap:butt;stroke-linejoin:miter;stroke-miterlimit:2;stroke-dasharray:none;stroke-dashoffset:0;stroke-opacity:1" id="path6698" d="M 280.46875,-440.96875 C 276.88937,-440.96875 274.00000,-438.04812 274.00000,-434.46875 C 274.00000,-432.09807 275.34943,-430.13096 277.25000,-429.00000 L 283.71875,-429.00000 C 285.61932,-430.13096 286.96875,-432.12931 286.96875,-434.50000 C 286.96875,-438.07938 284.04812,-440.96875 280.46875,-440.96875 z"/><path style="opacity:1;fill:url(#linearGradient6720);fill-opacity:1;stroke:none;stroke-width:1;stroke-linecap:butt;stroke-linejoin:miter;stroke-miterlimit:2;stroke-dasharray:none;stroke-dashoffset:0;stroke-opacity:1" id="path6700" d="M 280.50000,-441.00000 C 276.91200,-441.00000 274.00000,-438.08799 274.00000,-434.50000 C 274.00000,-432.12360 275.34485,-430.13368 277.25000,-429.00000 L 283.75000,-429.00000 C 285.65515,-430.13368 287.00000,-432.12360 287.00000,-434.50000 C 287.00000,-438.08800 284.08800,-440.99999 280.50000,-441.00000 z"/></g><path id="path6702" d="M 291.68750 -437.59375 A 3.3125000 3.3125000 0 1 1 285.06250,-437.59375 A 3.3125000 3.3125000 0 1 1 291.68750 -437.59375 z" transform="matrix(0.905660,0.000000,0.000000,0.905660,9.830296,-35.68884)" style="opacity:1;fill:url(#linearGradient6722);fill-opacity:1;stroke:none;stroke-width:1;stroke-linecap:butt;stroke-linejoin:miter;stroke-miterlimit:2;stroke-dasharray:none;stroke-dashoffset:0;stroke-opacity:1"/><path id="path6704" d="M 292.95640,-437.33396 C 292.95487,-434.64940 289.68714,-433.62001 289.68714,-433.62001 C 289.68714,-433.62001 292.03588,-435.24596 292.02399,-437.32502 C 292.02399,-437.32502 292.95640,-437.33396 292.95640,-437.33396 z" style="fill:#888a85;fill-opacity:1;fill-rule:evenodd;stroke:none;stroke-width:1px;stroke-linecap:butt;stroke-linejoin:miter;stroke-opacity:1"/><g id="g6706" transform="matrix(1.142857,0.000000,0.000000,1.142857,-28.57139,67.00008)"><path style="opacity:1;fill:#c4c5c2;fill-opacity:1;stroke:none;stroke-width:1;stroke-linecap:butt;stroke-linejoin:miter;stroke-miterlimit:2;stroke-dasharray:none;stroke-dashoffset:0;stroke-opacity:1" id="path6708" d="M 291.68750 -437.59375 A 3.3125000 3.3125000 0 1 1 285.06250,-437.59375 A 3.3125000 3.3125000 0 1 1 291.68750 -437.59375 z" transform="matrix(1.056604,0.000000,0.000000,1.056604,-31.19818,24.86331)"/><path style="opacity:1;fill:url(#linearGradient6724);fill-opacity:1;stroke:none;stroke-width:1;stroke-linecap:butt;stroke-linejoin:miter;stroke-miterlimit:2;stroke-dasharray:none;stroke-dashoffset:0;stroke-opacity:1" id="path6710" d="M 291.68750 -437.59375 A 3.3125000 3.3125000 0 1 1 285.06250,-437.59375 A 3.3125000 3.3125000 0 1 1 291.68750 -437.59375 z" transform="matrix(1.056604,0.000000,0.000000,1.056604,-31.19818,24.86331)"/></g></g></g></svg>