<svg xmlns="http://www.w3.org/2000/svg" xmlns:cc="http://web.resource.org/cc/" xmlns:svg="http://www.w3.org/2000/svg" xmlns:xlink="http://www.w3.org/1999/xlink" id="svg6361" width="48" height="48"><defs id="defs3"><linearGradient id="linearGradient2431"><stop style="stop-color:#fff;stop-opacity:1" id="stop2433" offset="0"/><stop style="stop-color:#b8b8b8;stop-opacity:1" id="stop2435" offset="1"/></linearGradient><linearGradient id="linearGradient21644"><stop style="stop-color:#000;stop-opacity:1" id="stop21646" offset="0"/><stop style="stop-color:#000;stop-opacity:0" id="stop21648" offset="1"/></linearGradient><radialGradient id="radialGradient21650" cx="25.125" cy="36.75" r="15.75" fx="25.125" fy="36.75" gradientTransform="matrix(1.000000,0.000000,0.000000,0.595238,3.369686e-16,14.87500)" gradientUnits="userSpaceOnUse" xlink:href="#linearGradient21644"/><linearGradient id="linearGradient2933"><stop id="stop2935" offset="0" style="stop-color:#9cbcde;stop-opacity:1"/><stop id="stop2937" offset="1" style="stop-color:#204a87"/></linearGradient><radialGradient id="radialGradient2207" cx="26.544" cy="28.459" r="22.376" fx="26.544" fy="28.459" gradientTransform="matrix(1.238342,5.954846e-3,-6.507762e-3,1.351272,-6.992513,-9.744842)" gradientUnits="userSpaceOnUse" xlink:href="#linearGradient2933"/><radialGradient id="radialGradient2437" cx="-19.516" cy="16.856" r="8.754" fx="-19.516" fy="16.856" gradientTransform="matrix(4.445991,-8.852599e-16,1.367217e-15,6.8665,67.25071,-104.6679)" gradientUnits="userSpaceOnUse" xlink:href="#linearGradient2431"/></defs><metadata id="metadata4"/><g id="layer1"><path style="opacity:.63068181;color:#000;fill:url(#radialGradient21650);fill-opacity:1;fill-rule:evenodd;stroke:none;stroke-width:1;stroke-linecap:round;stroke-linejoin:round;marker:none;marker-start:none;marker-mid:none;marker-end:none;stroke-miterlimit:4;stroke-dasharray:none;stroke-dashoffset:0;stroke-opacity:1;visibility:visible;display:inline;overflow:visible" id="path21642" d="M 40.875000 36.750000 A 15.750000 9.3750000 0 1 1 9.3750000,36.750000 A 15.750000 9.3750000 0 1 1 40.875000 36.750000 z" transform="matrix(1.173803,0.000000,0.000000,0.600000,-5.004403,20.32500)"/><path style="fill:url(#radialGradient2207);fill-opacity:1;stroke:#204a87" id="path2093" d="M 45.785164 23.825787 A 21.876116 21.876116 0 1 1 2.0329323,23.825787 A 21.876116 21.876116 0 1 1 45.785164 23.825787 z" transform="matrix(0.938442,0.000000,0.000000,0.938680,1.564075,1.633906)"/><path id="path2209" d="M 45.785164 23.825787 A 21.876116 21.876116 0 1 1 2.0329323,23.825787 A 21.876116 21.876116 0 1 1 45.785164 23.825787 z" transform="matrix(0.855103,0.000000,0.000000,0.855213,3.555288,3.625019)" style="fill:none;fill-opacity:1;stroke:#fff;stroke-width:3.0307744;stroke-miterlimit:4;stroke-dasharray:none;stroke-opacity:1;opacity:.96022727"/><path style="font-size:34.15322876px;font-style:normal;font-variant:normal;font-weight:700;font-stretch:normal;text-align:start;line-height:125%;writing-mode:lr-tb;text-anchor:start;fill:url(#radialGradient2437);fill-opacity:1;stroke:#fff;stroke-width:1.09947276px;stroke-linecap:butt;stroke-linejoin:miter;stroke-opacity:.78612713;font-family:Bitstream Vera Sans" id="path1554" d="M -20.25,5.875 C -21.309019,5.8750263 -22.397637,5.9982356 -23.53125,6.21875 C -24.664175,6.4391783 -25.911412,6.7562625 -27.28125,7.21875 C -27.291632,7.21754 -27.302118,7.21754 -27.3125,7.21875 C -27.324563,7.2273788 -27.335121,7.237937 -27.34375,7.25 C -27.355813,7.2586288 -27.366371,7.269187 -27.375,7.28125 C -27.37621,7.2916315 -27.37621,7.3021185 -27.375,7.3125 C -27.37621,7.3228815 -27.37621,7.3333685 -27.375,7.34375 L -27.375,12.5 C -27.37621,12.510382 -27.37621,12.520868 -27.375,12.53125 C -27.37621,12.541632 -27.37621,12.552118 -27.375,12.5625 C -27.366371,12.574563 -27.355813,12.585121 -27.34375,12.59375 C -27.335121,12.605813 -27.324563,12.616371 -27.3125,12.625 C -27.302118,12.62621 -27.291632,12.62621 -27.28125,12.625 C -27.270868,12.62621 -27.260382,12.62621 -27.25,12.625 C -27.239618,12.62621 -27.229132,12.62621 -27.21875,12.625 C -27.208368,12.62621 -27.197882,12.62621 -27.1875,12.625 C -26.045062,11.905957 -24.954148,11.357862 -23.90625,11 C -22.858109,10.631244 -21.863134,10.437521 -20.96875,10.4375 C -20.019532,10.437521 -19.323825,10.648045 -18.8125,11.0625 C -18.303777,11.46459 -18.031262,12.04554 -18.03125,12.78125 C -18.03126,13.261907 -18.175438,13.73266 -18.46875,14.21875 C -18.751741,14.705766 -19.209015,15.249245 -19.84375,15.8125 L -20.9375,16.75 C -22.138959,17.83049 -22.926743,18.741022 -23.3125,19.46875 C -23.695613,20.180196 -23.875005,20.988074 -23.875,21.90625 L -23.875,22.71875 C -23.87621,22.729132 -23.87621,22.739618 -23.875,22.75 C -23.87621,22.760382 -23.87621,22.770868 -23.875,22.78125 C -23.866371,22.793313 -23.855813,22.803871 -23.84375,22.8125 C -23.835121,22.824563 -23.824563,22.835121 -23.8125,22.84375 C -23.802118,22.84496 -23.791632,22.84496 -23.78125,22.84375 C -23.770868,22.84496 -23.760382,22.84496 -23.75,22.84375 L -17.65625,22.84375 C -17.645868,22.84496 -17.635382,22.84496 -17.625,22.84375 C -17.614618,22.84496 -17.604132,22.84496 -17.59375,22.84375 C -17.581687,22.835121 -17.571129,22.824563 -17.5625,22.8125 C -17.550437,22.803871 -17.539879,22.793313 -17.53125,22.78125 C -17.53004,22.770868 -17.53004,22.760382 -17.53125,22.75 C -17.53004,22.739618 -17.53004,22.729132 -17.53125,22.71875 L -17.53125,21.96875 C -17.531261,21.500554 -17.38288,21.075901 -17.15625,20.6875 C -16.933955,20.296216 -16.448177,19.737141 -15.6875,19.0625 L -14.625,18.125 C -13.558412,17.14269 -12.794341,16.240346 -12.34375,15.375 C -11.894481,14.500954 -11.656268,13.50158 -11.65625,12.40625 C -11.656268,10.279985 -12.400019,8.6722224 -13.875,7.5625 C -15.350197,6.4414748 -17.48124,5.8750263 -20.25,5.875 z M -23.8125,25.03125 C -23.824563,25.039879 -23.835121,25.050437 -23.84375,25.0625 C -23.855813,25.071129 -23.866371,25.081687 -23.875,25.09375 C -23.87621,25.104132 -23.87621,25.114618 -23.875,25.125 C -23.87621,25.135382 -23.87621,25.145868 -23.875,25.15625 L -23.875,31 C -23.87621,31.010382 -23.87621,31.020868 -23.875,31.03125 C -23.87621,31.041632 -23.87621,31.052118 -23.875,31.0625 C -23.866371,31.074563 -23.855813,31.085121 -23.84375,31.09375 C -23.835121,31.105813 -23.824563,31.116371 -23.8125,31.125 C -23.802118,31.12621 -23.791632,31.12621 -23.78125,31.125 C -23.770868,31.12621 -23.760382,31.12621 -23.75,31.125 L -17.65625,31.125 C -17.645868,31.12621 -17.635382,31.12621 -17.625,31.125 C -17.614618,31.12621 -17.604132,31.12621 -17.59375,31.125 C -17.581687,31.116371 -17.571129,31.105813 -17.5625,31.09375 C -17.550437,31.085121 -17.539879,31.074563 -17.53125,31.0625 C -17.53004,31.052118 -17.53004,31.041632 -17.53125,31.03125 C -17.53004,31.020868 -17.53004,31.010382 -17.53125,31 L -17.53125,25.15625 C -17.53004,25.145868 -17.53004,25.135382 -17.53125,25.125 C -17.53004,25.114618 -17.53004,25.104132 -17.53125,25.09375 C -17.539879,25.081687 -17.550437,25.071129 -17.5625,25.0625 C -17.571129,25.050437 -17.581687,25.039879 -17.59375,25.03125 C -17.604132,25.03004 -17.614618,25.03004 -17.625,25.03125 C -17.635382,25.03004 -17.645868,25.03004 -17.65625,25.03125 L -23.75,25.03125 C -23.760382,25.03004 -23.770868,25.03004 -23.78125,25.03125 C -23.791632,25.03004 -23.802118,25.03004 -23.8125,25.03125 z" transform="matrix(0.849895,0,0,0.835205,41.72981,8.548327)" xlink:href="#text2215"/></g></svg>