<svg xmlns="http://www.w3.org/2000/svg" xmlns:svg="http://www.w3.org/2000/svg" xmlns:xlink="http://www.w3.org/1999/xlink" id="svg2" width="30.253" height="50.243" enable-background="new 0 0 30.253 50.243" overflow="visible" space="preserve" viewBox="0 0 30.253 50.243"><defs id="defs25"><linearGradient id="rect1511_1_" x1="-317.258" x2="-316.715" y1="542.412" y2="542.412" gradientTransform="matrix(29.4937, 0, 0, -4.0625, 9368.05, 2205.97)" gradientUnits="userSpaceOnUse"><stop id="stop11" offset="0" stop-color="#e4e200" stop-opacity="1"/><stop id="stop13" offset="1" stop-color="#aeac00" stop-opacity="1"/></linearGradient><linearGradient id="rect1512_1_" x1="-317.259" x2="-316.716" y1="542.41" y2="542.41" gradientTransform="matrix(29.4937, 0, 0, -4.0625, 9368.05, 2251.38)" gradientUnits="userSpaceOnUse" xlink:href="#rect1511_1_"><stop id="stop17" offset="0" stop-color="#A7873D"/><stop id="stop19" offset="1" stop-color="#663624"/></linearGradient><linearGradient id="linearGradient3163" x1="-317.258" x2="-316.715" y1="542.412" y2="542.412" gradientTransform="matrix(29.4937, 0, 0, -4.0625, 9368.08, 2251.54)" gradientUnits="userSpaceOnUse" xlink:href="#rect1511_1_"/></defs><metadata id="metadata4"/><path id="path1508" fill="#DDD" stroke="#000" stroke-dasharray="none" stroke-miterlimit="4" stroke-width="1.038" d="M 0.697,4.347 C 0.697,19.895 14.037,17.569 14.037,25.159 C 14.037,32.138 0.70908201,29.332918 0.70908201,46.104918 L 29.565082,46.104918 C 29.565082,29.392918 15.923,32.236 15.923,25.159 C 15.923,17.625 29.528,17.625 29.624,4.347 L 0.697,4.347 L 0.697,4.347 z"/><path id="path1509" fill="#B5AB93" d="M 1.956,44.819 C 4.12,44.886 26.85,44.886 28.541,44.886 C 28.608,44.346 28.406,40.896 26.984,37.513 C 25.428,37.513 3.579,37.446 3.579,37.446 C 1.82,41.099 1.889,44.955 1.956,44.819 z"/><path id="path1510" fill="#B5AB93" d="M 4.797,13.973 C 10.209,14.312 18.665,14.514 24.009,14.04 C 23.873,15.935 15.011,19.385 14.944,23.645 C 14.876,19.385 5.338,16.475 4.797,13.973 z"/><rect id="rect1511" width="29.493" height="4.062" x=".38" y=".38" fill="url(#rect1511_1_) rgb(0, 0, 0)" stroke="#000" stroke-width=".759"/><path id="path1513" fill="#fff" d="M 2.1232558,6.3959488 L 8.2112558,6.3959488 C 8.2112558,17.327949 12.898256,17.648949 13.384256,23.749949 C 11.298256,16.458949 2.8092558,16.385949 2.1232558,6.3959488 z" enable-background="new" opacity=".6"/><path id="path1514" fill="#FFF" d="M 3.722,45.108 L 9.81,45.108 C 8.147,33.92 14.497,34.435 14.982,26.906 C 12.896,34.197 2.863,32.046 3.722,45.108 z" enable-background="new" opacity=".6"/><rect id="rect3161" width="29.493" height="4.062" x=".406" y="45.952" fill="url(#linearGradient3163) rgb(0, 0, 0)" stroke="#000" stroke-width=".759"/></svg>