<svg xmlns="http://www.w3.org/2000/svg" xmlns:cc="http://web.resource.org/cc/" xmlns:svg="http://www.w3.org/2000/svg" xmlns:xlink="http://www.w3.org/1999/xlink" id="svg7854" width="48" height="48" version="1.0"><defs id="defs7856"><linearGradient id="linearGradient6256"><stop style="stop-color:#fff;stop-opacity:1" id="stop6258" offset="0"/><stop style="stop-color:#fff;stop-opacity:0" id="stop6260" offset="1"/></linearGradient><linearGradient id="linearGradient6242"><stop style="stop-color:#d7b47f;stop-opacity:1" id="stop6244" offset="0"/><stop style="stop-color:#f4dbb3;stop-opacity:1" id="stop6246" offset="1"/></linearGradient><linearGradient id="linearGradient6234"><stop style="stop-color:#fff;stop-opacity:1" id="stop6236" offset="0"/><stop style="stop-color:#fff;stop-opacity:0" id="stop6238" offset="1"/></linearGradient><linearGradient id="linearGradient6222"><stop style="stop-color:#000;stop-opacity:1" id="stop6224" offset="0"/><stop style="stop-color:#000;stop-opacity:0" id="stop6226" offset="1"/></linearGradient><linearGradient id="linearGradient6210"><stop id="stop6212" offset="0" style="stop-color:#f9ead2;stop-opacity:1"/><stop id="stop6214" offset="1" style="stop-color:#e4a546;stop-opacity:1"/></linearGradient><linearGradient id="linearGradient6204"><stop id="stop6206" offset="0" style="stop-color:#120c02;stop-opacity:1"/><stop id="stop6208" offset="1" style="stop-color:#b97a1b;stop-opacity:1"/></linearGradient><linearGradient id="linearGradient6190"><stop style="stop-color:#a0670c;stop-opacity:1" id="stop6192" offset="0"/><stop style="stop-color:#e6c99d;stop-opacity:1" id="stop6194" offset="1"/></linearGradient><linearGradient id="linearGradient4210"><stop style="stop-color:#eaba6f;stop-opacity:1" id="stop4212" offset="0"/><stop style="stop-color:#b97a1b;stop-opacity:1" id="stop4214" offset="1"/></linearGradient><linearGradient id="linearGradient4879" x1="24.99" x2="23.452" y1="49.424" y2="14.383" gradientTransform="matrix(1,0,0,0.4199694,-5,-2.9729709)" gradientUnits="userSpaceOnUse" xlink:href="#linearGradient6204"/><linearGradient id="linearGradient4415" x1="25.986" x2="15.889" y1="24.92" y2="11.67" gradientTransform="translate(0.5,-0.353553)" gradientUnits="userSpaceOnUse" xlink:href="#linearGradient4409"/><linearGradient id="linearGradient3526" x1="14.997" x2="32.511" y1="11.188" y2="34.307" gradientTransform="matrix(1.190476,0,0,1.190476,-4.308944,-3.833323)" gradientUnits="userSpaceOnUse" xlink:href="#aigrd1"/><linearGradient id="linearGradient3523" x1="12.274" x2="35.391" y1="32.416" y2="14.203" gradientTransform="matrix(1.190476,0,0,1.190476,-4.308944,-3.833324)" gradientUnits="userSpaceOnUse" xlink:href="#aigrd2"/><linearGradient id="linearGradient3519" x1="10.502" x2="48.799" y1="3.61" y2="54.698" gradientTransform="matrix(0.9807685,0,0,0.9807685,0.3837105,-0.8525346)" gradientUnits="userSpaceOnUse" xlink:href="#linearGradient6036"/><linearGradient id="linearGradient3515" x1="28.703" x2="17.743" y1="31.495" y2="18.367" gradientUnits="userSpaceOnUse" xlink:href="#linearGradient6028"/><radialGradient id="radialGradient3507" cx="23.335" cy="41.636" r="22.627" fx="23.335" fy="41.636" gradientTransform="matrix(1,0,0,0.25,0,31.22703)" gradientUnits="userSpaceOnUse" xlink:href="#linearGradient23419"/><linearGradient id="linearGradient23419"><stop id="stop23421" offset="0" style="stop-color:#000;stop-opacity:1"/><stop id="stop23423" offset="1" style="stop-color:#000;stop-opacity:0"/></linearGradient><linearGradient id="aigrd1" x1="14.997" x2="32.511" y1="11.188" y2="34.307" gradientUnits="userSpaceOnUse"><stop id="stop3034" offset="0" style="stop-color:#ebebeb"/><stop id="stop3036" offset=".5" style="stop-color:#fff"/><stop id="stop3038" offset="1" style="stop-color:#ebebeb"/></linearGradient><linearGradient id="aigrd2" x1="12.274" x2="35.391" y1="32.416" y2="14.203" gradientUnits="userSpaceOnUse"><stop id="stop3043" offset="0" style="stop-color:#fbfbfb"/><stop id="stop3045" offset=".5" style="stop-color:#b6b6b6"/><stop id="stop3047" offset="1" style="stop-color:#e4e4e4"/></linearGradient><linearGradient id="linearGradient6036"><stop id="stop6038" offset="0" style="stop-color:#fff;stop-opacity:1"/><stop id="stop6040" offset="1" style="stop-color:#fff;stop-opacity:0"/></linearGradient><linearGradient id="linearGradient6028"><stop id="stop6030" offset="0" style="stop-color:#fff;stop-opacity:1"/><stop id="stop6032" offset="1" style="stop-color:#fff;stop-opacity:0"/></linearGradient><linearGradient id="linearGradient4409"><stop id="stop4411" offset="0" style="stop-color:#fff;stop-opacity:1"/><stop id="stop4413" offset="1" style="stop-color:#fff;stop-opacity:0"/></linearGradient><linearGradient id="linearGradient6198" x1="6.675" x2="8" y1="10.141" y2="10.654" gradientUnits="userSpaceOnUse" xlink:href="#linearGradient6190"/><linearGradient id="linearGradient6200" x1="41.448" x2="37.308" y1="9.345" y2="10.742" gradientUnits="userSpaceOnUse" xlink:href="#linearGradient6190"/><linearGradient id="linearGradient6216" x1="37.308" x2="43.588" y1="20.232" y2="23.422" gradientTransform="matrix(1,0,0,1.329903,0,-16.16441)" gradientUnits="userSpaceOnUse" xlink:href="#linearGradient6210"/><linearGradient id="linearGradient6218" x1="8" x2="1.827" y1="16.527" y2="23.5" gradientTransform="matrix(1,0,0,1.329903,0,-16.16441)" gradientUnits="userSpaceOnUse" xlink:href="#linearGradient6210"/><linearGradient id="linearGradient6228" x1="24.5" x2="24.5" y1="17.813" y2="26.188" gradientUnits="userSpaceOnUse" xlink:href="#linearGradient6222"/><linearGradient id="linearGradient6232" x1="24.99" x2="23.452" y1="49.424" y2="14.383" gradientTransform="matrix(1,0,0,1.2132448,-5,-10.088583)" gradientUnits="userSpaceOnUse" xlink:href="#linearGradient4210"/><linearGradient id="linearGradient6240" x1="28.029" x2="27.375" y1="31.772" y2="20.731" gradientUnits="userSpaceOnUse" xlink:href="#linearGradient6234"/><linearGradient id="linearGradient6248" x1="6.946" x2="39.044" y1="8.067" y2="8.067" gradientUnits="userSpaceOnUse" xlink:href="#linearGradient6242"/><linearGradient id="linearGradient6252" x1="17.327" x2="17.702" y1="24.164" y2="27.945" gradientTransform="matrix(1,0,0,1.329903,0,-16.16441)" gradientUnits="userSpaceOnUse" xlink:href="#linearGradient4210"/><linearGradient id="linearGradient6254" x1="24.883" x2="25.148" y1="14.295" y2="10.942" gradientUnits="userSpaceOnUse" xlink:href="#linearGradient6190"/><linearGradient id="linearGradient6262" x1="24.938" x2="24.938" y1="19.219" y2="13.46" gradientUnits="userSpaceOnUse" xlink:href="#linearGradient6256"/><filter id="filter6290" width="1.222" height="2.014" x="-.111" y="-.507"><feGaussianBlur id="feGaussianBlur6292" stdDeviation="2.029"/></filter></defs><metadata id="metadata7859"/><g id="layer1"><rect style="opacity:.5;color:#000;fill:#000;fill-opacity:1;fill-rule:nonzero;stroke:none;stroke-width:1;stroke-linecap:butt;stroke-linejoin:round;marker:none;marker-start:none;marker-mid:none;marker-end:none;stroke-miterlimit:4;stroke-dasharray:none;stroke-dashoffset:0;stroke-opacity:1;visibility:visible;display:block;overflow:visible;filter:url(#filter6290);enable-background:accumulate" id="rect6264" width="36.5" height="8" x="5" y="31" rx="4" ry="4"/><rect style="opacity:1;color:#000;fill:url(#linearGradient6232);fill-opacity:1;fill-rule:nonzero;stroke:#a0670c;stroke-width:1.00000083;stroke-linecap:butt;stroke-linejoin:miter;marker:none;marker-start:none;marker-mid:none;marker-end:none;stroke-miterlimit:4;stroke-dasharray:none;stroke-dashoffset:0;stroke-opacity:1;visibility:visible;display:block;overflow:visible;enable-background:accumulate" id="rect4873" width="31" height="26" x="7.5" y="11.5" rx="1.914" ry="1.914"/><path style="opacity:1;color:#000;fill:url(#linearGradient6216);fill-opacity:1;fill-rule:nonzero;stroke:url(#linearGradient6200);stroke-width:1;stroke-linecap:butt;stroke-linejoin:round;marker:none;marker-start:none;marker-mid:none;marker-end:none;stroke-miterlimit:4;stroke-dasharray:none;stroke-dashoffset:0;stroke-opacity:1;visibility:visible;display:block;overflow:visible;enable-background:accumulate" id="path4881" d="M 38.5,11.480393 L 44.558058,15.234836 L 43.616117,8.529871 L 38.338388,4.6723352 L 38.5,11.480393 z"/><rect id="rect4877" width="31" height="9" x="7.5" y="4.5" rx=".544" ry=".544" style="opacity:1;color:#000;fill:url(#linearGradient4879);fill-opacity:1;fill-rule:nonzero;stroke:#a0670c;stroke-width:1.00000083;stroke-linecap:butt;stroke-linejoin:miter;marker:none;marker-start:none;marker-mid:none;marker-end:none;stroke-miterlimit:4;stroke-dasharray:none;stroke-dashoffset:0;stroke-opacity:1;visibility:visible;display:block;overflow:visible;enable-background:accumulate"/><rect style="opacity:.55294118;color:#000;fill:url(#linearGradient6228);fill-opacity:1;fill-rule:nonzero;stroke:none;stroke-width:1.00000083;stroke-linecap:butt;stroke-linejoin:miter;marker:none;marker-start:none;marker-mid:none;marker-end:none;stroke-miterlimit:4;stroke-dasharray:none;stroke-dashoffset:0;stroke-opacity:1;visibility:visible;display:block;overflow:visible;enable-background:accumulate" id="rect6220" width="30.25" height="11.625" x="7.75" y="15.25"/><path style="opacity:.47647059;color:#000;fill:none;fill-opacity:1;fill-rule:nonzero;stroke:url(#linearGradient6240);stroke-width:1.00000083;stroke-linecap:butt;stroke-linejoin:miter;marker:none;marker-start:none;marker-mid:none;marker-end:none;stroke-miterlimit:4;stroke-dasharray:none;stroke-dashoffset:0;stroke-opacity:1;visibility:visible;display:block;overflow:visible;enable-background:accumulate" id="path6230" d="M 9.40625,12.5625 C 8.9075222,12.5625 8.5625,12.907522 8.5625,13.40625 L 8.5625,35.59375 C 8.5625,36.092477 8.9075204,36.437499 9.40625,36.4375 L 36.59375,36.4375 C 37.092477,36.4375 37.4375,36.092477 37.4375,35.59375 L 37.4375,13.40625 C 37.4375,12.907521 37.09248,12.5625 36.59375,12.5625 L 9.40625,12.5625 z" xlink:href="#rect4873"/><path style="opacity:1;color:#000;fill:url(#linearGradient6252);fill-opacity:1;fill-rule:nonzero;stroke:url(#linearGradient6254);stroke-width:1.00000083;stroke-linecap:butt;stroke-linejoin:miter;marker:none;marker-start:none;marker-mid:none;marker-end:none;stroke-miterlimit:4;stroke-dasharray:none;stroke-dashoffset:0;stroke-opacity:1;visibility:visible;display:block;overflow:visible;enable-background:accumulate" id="path4885" d="M 7.5580583,11.441942 L 5.5580583,20.5 L 40.46967,20.5 L 38.566942,11.472272 L 7.5580583,11.441942 z"/><path style="opacity:.25882353;color:#000;fill:none;fill-opacity:1;fill-rule:nonzero;stroke:url(#linearGradient6262);stroke-width:1.00000083;stroke-linecap:butt;stroke-linejoin:miter;marker:none;marker-start:none;marker-mid:none;marker-end:none;stroke-miterlimit:4;stroke-dasharray:none;stroke-dashoffset:0;stroke-opacity:1;visibility:visible;display:block;overflow:visible;enable-background:accumulate" id="path6250" d="M 8.34375,12.4375 L 6.8125,19.5 L 39.25,19.5 L 37.75,12.46875 L 8.34375,12.4375 z" xlink:href="#path4885"/><g id="g5212" transform="matrix(0.6544316,0,0,0.6710291,-6.1872626e-2,15.658575)"><path id="path23417" d="M 45.961941,41.63604 A 22.627417,5.6568542 0 1 1 0.70710754,41.63604 A 22.627417,5.6568542 0 1 1 45.961941,41.63604 z" transform="matrix(1,0,0,1.066291,0.91548,-4.218429)" style="opacity:.55;color:#000;fill:url(#radialGradient3507);fill-opacity:1;fill-rule:evenodd;stroke:none;stroke-width:2;stroke-linecap:butt;stroke-linejoin:miter;marker:none;marker-start:none;marker-mid:none;marker-end:none;stroke-miterlimit:4;stroke-dasharray:none;stroke-dashoffset:0;stroke-opacity:1;visibility:visible;display:inline;overflow:visible"/><path style="fill:url(#linearGradient3526);fill-rule:nonzero;stroke:none;stroke-miterlimit:4" id="path3040" d="M 24.262486,2.8333435 C 12.714866,2.8333435 3.4291519,12.119058 3.4291519,23.666677 C 3.4291519,35.214297 12.714866,44.500012 24.262486,44.500012 C 35.810106,44.500012 45.095821,35.214297 45.095821,23.666677 C 45.095821,12.119058 35.810106,2.8333435 24.262486,2.8333435 L 24.262486,2.8333435 z M 24.262486,28.666678 C 21.524391,28.666678 19.262486,26.404773 19.262486,23.666677 C 19.262486,20.928582 21.524391,18.666677 24.262486,18.666677 C 27.000581,18.666677 29.262486,20.928582 29.262486,23.666677 C 29.262486,26.404773 27.000581,28.666678 24.262486,28.666678 z"/><path style="fill:url(#linearGradient3523);fill-rule:nonzero;stroke:gray;stroke-width:1.5090276;stroke-miterlimit:4;stroke-opacity:1" id="path3049" d="M 24.262486,2.8333431 C 12.714866,2.8333431 3.429152,12.119058 3.429152,23.666677 C 3.429152,35.214297 12.714866,44.500012 24.262486,44.500012 C 35.810106,44.500012 45.095821,35.214297 45.095821,23.666677 C 45.095821,12.119058 35.810106,2.8333431 24.262486,2.8333431 L 24.262486,2.8333431 z M 24.262486,28.666678 C 21.524391,28.666678 19.262486,26.404773 19.262486,23.666677 C 19.262486,20.928582 21.524391,18.666677 24.262486,18.666677 C 27.000581,18.666677 29.262486,20.928582 29.262486,23.666677 C 29.262486,26.404773 27.000581,28.666678 24.262486,28.666678 z"/><path id="path3531" d="M 23.410538,3.4587825 C 12.648847,3.864693 4.1109275,12.676135 4.1109275,23.541217 C 4.1109275,28.466722 5.858051,32.943607 8.7777601,36.427697 L 19.895113,27.017403 C 19.173772,26.174062 18.845878,24.974235 18.845878,23.791217 C 18.845878,20.400827 21.150167,18.223842 24.413253,18.223842 C 25.897178,18.223842 27.38434,18.897269 28.271719,19.97014 L 39.639072,10.684846 C 35.963901,6.2606919 30.394797,3.4587825 24.163253,3.4587825 C 23.902492,3.4587825 23.668819,3.4490406 23.410538,3.4587825 z" style="fill:url(#linearGradient4415);fill-opacity:1;fill-rule:nonzero;stroke:none;stroke-miterlimit:4;stroke-opacity:1"/><path style="opacity:.51098902;fill:#eeeeec;fill-rule:nonzero;stroke:none;stroke-miterlimit:4" id="path3051" d="M 24.262486,13.562512 C 18.6199,13.562512 14.15832,18.155315 14.15832,23.666677 C 14.15832,29.309265 18.751124,33.770843 24.262486,33.770843 C 29.905072,33.770843 34.366652,29.178041 34.366652,23.666677 C 34.366652,18.024091 29.773848,13.562512 24.262486,13.562512 L 24.262486,13.562512 z M 24.262486,29.178041 C 21.244359,29.178041 18.751124,26.684806 18.751124,23.666677 C 18.751124,20.64855 21.244359,18.155315 24.262486,18.155315 C 27.280613,18.155315 29.773848,20.64855 29.773848,23.666677 C 29.773848,26.684806 27.280613,29.178041 24.262486,29.178041 z"/><path id="path5264" d="M 24.262484,4.2497813 C 13.499977,4.2497813 4.8455905,12.90417 4.8455905,23.666675 C 4.8455905,34.429182 13.499977,43.083568 24.262484,43.083568 C 35.02499,43.083568 43.679376,34.429182 43.679376,23.666675 C 43.679376,12.90417 35.02499,4.2497813 24.262484,4.2497813 L 24.262484,4.2497813 z" style="opacity:.54644811;fill:none;fill-rule:nonzero;stroke:url(#linearGradient3519);stroke-width:1.50902772;stroke-miterlimit:4;stroke-opacity:1"/><path id="path6026" d="M 30.405591,24.930641 A 6.0987959,6.0987959 0 1 1 18.207999,24.930641 A 6.0987959,6.0987959 0 1 1 30.405591,24.930641 z" transform="translate(3.868e-3,-1.244934)" style="opacity:.67213111;color:#000;fill:none;fill-opacity:.31638417;fill-rule:nonzero;stroke:url(#linearGradient3515);stroke-width:1.40420842;stroke-linecap:butt;stroke-linejoin:miter;marker:none;marker-start:none;marker-mid:none;marker-end:none;stroke-miterlimit:4;stroke-dashoffset:0;stroke-opacity:1;visibility:visible;display:inline;overflow:visible"/></g><path style="opacity:1;color:#000;fill:url(#linearGradient6218);fill-opacity:1;fill-rule:nonzero;stroke:url(#linearGradient6198);stroke-width:1.00000083;stroke-linecap:butt;stroke-linejoin:round;marker:none;marker-start:none;marker-mid:none;marker-end:none;stroke-miterlimit:4;stroke-dasharray:none;stroke-dashoffset:0;stroke-opacity:1;visibility:visible;display:block;overflow:visible;enable-background:accumulate" id="path4883" d="M 7.5625,4.6830582 L 7.5,11.5 L 1.6464466,16.499999 L 2.5303301,8.6464466 L 7.5625,4.6830582 z"/><path style="opacity:1;color:#000;fill:url(#linearGradient6248);fill-opacity:1;fill-rule:nonzero;stroke:none;stroke-width:1.00000083;stroke-linecap:butt;stroke-linejoin:miter;marker:none;marker-start:none;marker-mid:none;marker-end:none;stroke-miterlimit:4;stroke-dasharray:none;stroke-dashoffset:0;stroke-opacity:1;visibility:visible;display:block;overflow:visible;enable-background:accumulate" id="path6202" d="M 7.0719223,6.1048543 C 6.9414144,5.6177923 7.2880931,4.9987436 7.9549508,4.9987436 L 38.132582,4.9558058 C 38.598675,4.9652138 39.012489,5.4300361 39.044338,5.9716761 L 39.027251,11.049995 L 38,11.036612 L 38.006989,6.0155348 L 8.0875338,6.0155348 L 8.0433397,10.876894 L 6.9461918,11.177674 L 7.0719223,6.1048543 z"/></g></svg>