<svg xmlns="http://www.w3.org/2000/svg" xmlns:cc="http://web.resource.org/cc/" xmlns:svg="http://www.w3.org/2000/svg" xmlns:xlink="http://www.w3.org/1999/xlink" id="svg1306" width="48" height="48"><defs id="defs1308"><linearGradient id="linearGradient2223"><stop style="stop-color:#fff;stop-opacity:1" id="stop2225" offset="0"/><stop style="stop-color:#fff;stop-opacity:0" id="stop2229" offset="1"/></linearGradient><linearGradient id="linearGradient2222"><stop style="stop-color:#5187d6;stop-opacity:1" id="stop2224" offset="0"/><stop style="stop-color:#1e4580;stop-opacity:1" id="stop2227" offset="1"/></linearGradient><linearGradient id="linearGradient3090"><stop style="stop-color:#626c07;stop-opacity:1" id="stop3092" offset="0"/><stop style="stop-color:#313603;stop-opacity:1" id="stop3094" offset="1"/></linearGradient><linearGradient id="linearGradient2238"><stop style="stop-color:#fff;stop-opacity:1" id="stop2240" offset="0"/><stop style="stop-color:#fff;stop-opacity:0" id="stop2242" offset="1"/></linearGradient><linearGradient id="linearGradient2224"><stop style="stop-color:#32342f;stop-opacity:.54639173" id="stop2226" offset="0"/><stop style="stop-color:#32342f;stop-opacity:0" id="stop2228" offset="1"/></linearGradient><linearGradient id="linearGradient2214"><stop style="stop-color:#a9aaa7;stop-opacity:1" id="stop2216" offset="0"/><stop style="stop-color:#676964;stop-opacity:1" id="stop2218" offset="1"/></linearGradient><linearGradient id="linearGradient2206"><stop style="stop-color:#c3c6c0;stop-opacity:1" id="stop2208" offset="0"/><stop style="stop-color:#e8eae6;stop-opacity:1" id="stop2210" offset="1"/></linearGradient><linearGradient id="linearGradient2198"><stop style="stop-color:#32342f;stop-opacity:1" id="stop2200" offset="0"/><stop style="stop-color:#171816;stop-opacity:1" id="stop2202" offset="1"/></linearGradient><linearGradient id="linearGradient2180"><stop style="stop-color:#fff;stop-opacity:1" id="stop2182" offset="0"/><stop style="stop-color:#fff;stop-opacity:0" id="stop2184" offset="1"/></linearGradient><linearGradient id="linearGradient2212" x1="25.861" x2="18.3" y1="26.134" y2="19.568" gradientTransform="matrix(0.952387,0.000000,0.000000,1.018339,1.142599,-1.941627)" gradientUnits="userSpaceOnUse" xlink:href="#linearGradient2206"/><linearGradient id="linearGradient2220" x1=".001" x2="47.999" y1="24.012" y2="24.012" gradientTransform="matrix(0.952387,0.000000,0.000000,1.018339,1.142599,-1.941627)" gradientUnits="userSpaceOnUse" xlink:href="#linearGradient2214"/><radialGradient id="radialGradient2230" cx="24.042" cy="42.242" r="17.577" fx="24.042" fy="42.242" gradientTransform="matrix(1.000000,0.000000,0.000000,0.304598,-5.757924e-16,29.37527)" gradientUnits="userSpaceOnUse" xlink:href="#linearGradient2224"/><linearGradient id="linearGradient2244" x1="20.339" x2="46.092" y1="19.637" y2="39.708" gradientTransform="matrix(0.952387,0.000000,0.000000,1.015657,1.142599,-0.876325)" gradientUnits="userSpaceOnUse" xlink:href="#linearGradient2238"/><linearGradient id="linearGradient1340" x1="8.821" x2="12.499" y1="12.538" y2="24.238" gradientTransform="matrix(3.809547,0.000000,0.000000,1.750325,-16.00036,-15.78719)" gradientUnits="userSpaceOnUse" xlink:href="#linearGradient2180"/><radialGradient id="radialGradient2229" cx="23.994" cy="32.267" r="19.089" fx="23.994" fy="32.267" gradientTransform="matrix(1.768625,-1.961257e-23,1.552064e-23,1.387102,-18.44248,-15.29268)" gradientUnits="userSpaceOnUse" xlink:href="#linearGradient2222"/><linearGradient id="linearGradient2231" x1="35.694" x2="15.044" y1="37.334" y2="5.959" gradientUnits="userSpaceOnUse" xlink:href="#linearGradient2223"/></defs><metadata id="metadata1311"/><g id="layer1"><path style="opacity:1;fill:url(#radialGradient2230);fill-opacity:1;fill-rule:evenodd;stroke:none;stroke-width:1.07686412;stroke-linecap:round;stroke-linejoin:round;stroke-miterlimit:4;stroke-dasharray:none;stroke-dashoffset:0;stroke-opacity:1" id="path2222" d="M 41.618284 42.24213 A 17.576654 5.3538084 0 1 1 6.4649754,42.24213 A 17.576654 5.3538084 0 1 1 41.618284 42.24213 z" transform="matrix(1.126713,0.000000,0.000000,1.002108,-2.891865,-0.821244)"/><rect style="opacity:1;fill:url(#linearGradient2212);fill-opacity:1;fill-rule:evenodd;stroke:url(#linearGradient2220);stroke-width:.9999997;stroke-linecap:round;stroke-linejoin:round;stroke-miterlimit:4;stroke-dasharray:none;stroke-dashoffset:0;stroke-opacity:1" id="rect1316" width="44.76" height="41.702" x="1.62" y="1.66" rx="4.566" ry="4.566"/><rect style="opacity:1;fill:url(#radialGradient2229);fill-opacity:1;fill-rule:evenodd;stroke:#173562;stroke-width:.99999982;stroke-linecap:round;stroke-linejoin:round;stroke-miterlimit:4;stroke-dasharray:none;stroke-dashoffset:0;stroke-opacity:1" id="rect1314" width="37.178" height="28.955" x="5.405" y="5.482" rx="1.695" ry="1.695"/><path style="opacity:1;fill:#ecffd9;fill-opacity:1;fill-rule:evenodd;stroke:#c3ea9b;stroke-width:1;stroke-linecap:butt;stroke-linejoin:miter;stroke-miterlimit:10;stroke-dasharray:none;stroke-opacity:.41618497" id="path2188" d="M 12.390689,20.935247 L 6.3688614,20.935247 L 6.3688614,22.152253 L 14.087646,22.152253 L 15.493568,16.239132 L 18.956082,29.936652 L 22.164804,19.116952 L 25.059348,25.028755 L 28.946308,21.516786 L 41.654736,21.516786 L 41.654736,19.457141 L 28.505235,19.457141 L 25.335019,22.596741 L 22.059557,15.937588 L 19.049723,24.112486 L 15.78119,11.248712 L 12.390689,20.935247 z"/><rect style="opacity:1;fill:none;fill-opacity:1;fill-rule:evenodd;stroke:url(#linearGradient2244);stroke-width:.99999982;stroke-linecap:round;stroke-linejoin:round;stroke-miterlimit:4;stroke-dasharray:none;stroke-dashoffset:0;stroke-opacity:1" id="rect2232" width="42.895" height="39.647" x="2.554" y="2.654" rx="4.13" ry="4.13"/><path id="path3088" d="M 11.515689,20.012278 L 6.3688614,20.012278 L 6.3688614,23.061029 L 14.962646,22.936029 L 15.618568,19.893387 L 18.963229,32.601726 L 22.539804,21.135091 L 25.059348,26.551191 L 29.321308,22.442609 L 41.654736,22.317609 L 40.904736,18.408071 L 28.505235,18.283071 L 25.460019,21.456026 L 22.059557,13.665616 L 19.424723,20.604266 L 15.90619,8.333659 L 11.515689,20.012278 z" style="opacity:.38068183;fill:#ecffd9;fill-opacity:1;fill-rule:evenodd;stroke:#c3ea9b;stroke-width:1.00000036;stroke-linecap:butt;stroke-linejoin:miter;stroke-miterlimit:4;stroke-dasharray:none;stroke-opacity:.41618497"/><path style="opacity:.43181817;fill:url(#linearGradient1340);fill-opacity:1;fill-rule:evenodd;stroke:none;stroke-width:1;stroke-linecap:round;stroke-linejoin:round;stroke-miterlimit:4;stroke-dasharray:none;stroke-dashoffset:0;stroke-opacity:1" id="rect2178" d="M 6.84375,6.96875 L 6.84375,15.795073 C 10.513653,16.483179 14.582567,16.875 18.875,16.875 C 27.810295,16.875 35.812258,15.21019 41.15625,12.596829 L 41.15625,6.96875 L 6.84375,6.96875 z"/><g id="g3126" transform="translate(0.187500,0.687500)" style="opacity:.07954544;fill:#000;fill-opacity:1;stroke:#000;stroke-opacity:1"><path style="opacity:1;color:#000;fill:#000;fill-opacity:1;fill-rule:nonzero;stroke:#000;stroke-width:1;stroke-linecap:butt;stroke-linejoin:miter;marker:none;marker-start:none;marker-mid:none;marker-end:none;stroke-miterlimit:10;stroke-dasharray:none;stroke-dashoffset:0;stroke-opacity:1;visibility:visible;display:inline;overflow:visible" id="path3120" d="M 39.125,37.8125 L 38.0625,37.34375 C 37.805688,37.204184 37.500156,37.125 37.1875,37.125 C 36.187,37.125 35.375,37.937 35.375,38.9375 C 35.375,39.938 36.187,40.75 37.1875,40.75 C 38.156734,40.75 38.951426,39.988481 39,39.03125 C 39.000392,39.02353 38.999705,39.007745 39,39 L 39.125,37.8125 z"/><path id="path3122" d="M 28.992526,37.544659 L 28.893139,38.709836 C 28.855813,38.999729 28.892396,39.313228 29.005385,39.604754 C 29.366952,40.537636 30.417519,41.001313 31.350402,40.639747 C 32.283284,40.27818 32.746961,39.227613 32.385394,38.29473 C 32.035127,37.391001 31.037884,36.925219 30.127792,37.225858 C 30.120452,37.228282 30.105982,37.234627 30.098654,37.237151 L 28.992526,37.544659 z" style="opacity:1;color:#000;fill:#000;fill-opacity:1;fill-rule:nonzero;stroke:#000;stroke-width:1;stroke-linecap:butt;stroke-linejoin:miter;marker:none;marker-start:none;marker-mid:none;marker-end:none;stroke-miterlimit:10;stroke-dasharray:none;stroke-dashoffset:0;stroke-opacity:1;visibility:visible;display:inline;overflow:visible"/><path style="opacity:1;color:#000;fill:#000;fill-opacity:1;fill-rule:nonzero;stroke:#000;stroke-width:1;stroke-linecap:butt;stroke-linejoin:miter;marker:none;marker-start:none;marker-mid:none;marker-end:none;stroke-miterlimit:10;stroke-dasharray:none;stroke-dashoffset:0;stroke-opacity:1;visibility:visible;display:inline;overflow:visible" id="path3124" d="M 25.5,37.8125 L 24.5625,37.34375 C 24.305688,37.204184 24.000156,37.125 23.6875,37.125 C 22.687,37.125 21.875,37.937 21.875,38.9375 C 21.875,39.938 22.687,40.75 23.6875,40.75 C 24.656734,40.75 25.451426,39.988481 25.5,39.03125 C 25.500392,39.02353 25.499705,39.007745 25.5,39 L 25.5,37.8125 z"/></g><path style="opacity:1;color:#000;fill:#e0e2df;fill-opacity:1;fill-rule:nonzero;stroke:#9b9d99;stroke-width:1;stroke-linecap:butt;stroke-linejoin:miter;marker:none;marker-start:none;marker-mid:none;marker-end:none;stroke-miterlimit:10;stroke-dasharray:none;stroke-dashoffset:0;stroke-opacity:1;visibility:visible;display:inline;overflow:visible" id="path3111" d="M 39.125,37.8125 L 38.0625,37.34375 C 37.805688,37.204184 37.500156,37.125 37.1875,37.125 C 36.187,37.125 35.375,37.937 35.375,38.9375 C 35.375,39.938 36.187,40.75 37.1875,40.75 C 38.156734,40.75 38.951426,39.988481 39,39.03125 C 39.000392,39.02353 38.999705,39.007745 39,39 L 39.125,37.8125 z"/><path id="path3116" d="M 28.992526,37.544659 L 28.893139,38.709836 C 28.855813,38.999729 28.892396,39.313228 29.005385,39.604754 C 29.366952,40.537636 30.417519,41.001313 31.350402,40.639747 C 32.283284,40.27818 32.746961,39.227613 32.385394,38.29473 C 32.035127,37.391001 31.037884,36.925219 30.127792,37.225858 C 30.120452,37.228282 30.105982,37.234627 30.098654,37.237151 L 28.992526,37.544659 z" style="opacity:1;color:#000;fill:#e0e2df;fill-opacity:1;fill-rule:nonzero;stroke:#9b9d99;stroke-width:1;stroke-linecap:butt;stroke-linejoin:miter;marker:none;marker-start:none;marker-mid:none;marker-end:none;stroke-miterlimit:10;stroke-dasharray:none;stroke-dashoffset:0;stroke-opacity:1;visibility:visible;display:inline;overflow:visible"/><path style="opacity:1;color:#000;fill:#e0e2df;fill-opacity:1;fill-rule:nonzero;stroke:#9b9d99;stroke-width:1;stroke-linecap:butt;stroke-linejoin:miter;marker:none;marker-start:none;marker-mid:none;marker-end:none;stroke-miterlimit:10;stroke-dasharray:none;stroke-dashoffset:0;stroke-opacity:1;visibility:visible;display:inline;overflow:visible" id="path3118" d="M 25.5,37.8125 L 24.5625,37.34375 C 24.305688,37.204184 24.000156,37.125 23.6875,37.125 C 22.687,37.125 21.875,37.937 21.875,38.9375 C 21.875,39.938 22.687,40.75 23.6875,40.75 C 24.656734,40.75 25.451426,39.988481 25.5,39.03125 C 25.500392,39.02353 25.499705,39.007745 25.5,39 L 25.5,37.8125 z"/><rect id="rect2221" width="39.35" height="30.646" x="4.319" y="4.636" rx="2.57" ry="2.57" style="opacity:.57386364;fill:none;fill-opacity:1;fill-rule:evenodd;stroke:url(#linearGradient2231);stroke-width:1;stroke-linecap:round;stroke-linejoin:round;stroke-miterlimit:4;stroke-dasharray:none;stroke-dashoffset:0;stroke-opacity:1"/></g></svg>