<svg xmlns="http://www.w3.org/2000/svg" xmlns:cc="http://web.resource.org/cc/" xmlns:svg="http://www.w3.org/2000/svg" xmlns:xlink="http://www.w3.org/1999/xlink" id="svg11300" width="48" height="48"><defs id="defs3"><linearGradient id="linearGradient2240"><stop style="stop-color:#99b00b;stop-opacity:1" id="stop2242" offset="0"/><stop style="stop-color:#99b00b;stop-opacity:0" id="stop2244" offset="1"/></linearGradient><linearGradient id="linearGradient2232"><stop style="stop-color:#788600;stop-opacity:1" id="stop2234" offset="0"/><stop style="stop-color:#788600;stop-opacity:0" id="stop2236" offset="1"/></linearGradient><linearGradient id="linearGradient4991"><stop style="stop-color:#fff;stop-opacity:1" id="stop4993" offset="0"/><stop style="stop-color:#fff;stop-opacity:0" id="stop4995" offset="1"/></linearGradient><linearGradient id="linearGradient8662"><stop style="stop-color:#000;stop-opacity:1" id="stop8664" offset="0"/><stop style="stop-color:#000;stop-opacity:0" id="stop8666" offset="1"/></linearGradient><radialGradient id="radialGradient8668" cx="24.837" cy="36.421" r="15.645" fx="24.837" fy="36.421" gradientTransform="matrix(1.000000,0.000000,0.000000,0.536723,-5.825329e-14,16.87306)" gradientUnits="userSpaceOnUse" xlink:href="#linearGradient8662"/><linearGradient id="linearGradient2187"><stop id="stop2189" offset="0" style="stop-color:#fff;stop-opacity:1"/><stop id="stop2191" offset="1" style="stop-color:#fff;stop-opacity:0"/></linearGradient><linearGradient id="linearGradient1764" x1="17.061" x2="12.624" y1="11.395" y2="12.584" gradientTransform="matrix(1.813471e-16,-1.171926,1.171926,1.813471e-16,1.782801,54.10111)" gradientUnits="userSpaceOnUse" xlink:href="#linearGradient2187"/><radialGradient id="radialGradient4997" cx="16.564" cy="11.132" r="19.063" fx="16.564" fy="11.132" gradientTransform="matrix(-1.290127e-2,1.685197,1.713082,1.311475e-2,-1.041499,-10.11571)" gradientUnits="userSpaceOnUse" xlink:href="#linearGradient4991"/><linearGradient id="linearGradient2238" x1="33" x2="31.5" y1="35.75" y2="42.5" gradientUnits="userSpaceOnUse" xlink:href="#linearGradient2232"/><linearGradient id="linearGradient2246" x1="33" x2="31.5" y1="35.75" y2="42.5" gradientUnits="userSpaceOnUse" xlink:href="#linearGradient2240"/></defs><metadata id="metadata4"/><g id="layer1"><path id="path8660" d="M 40.481863 36.421127 A 15.644737 8.3968935 0 1 1 9.1923885,36.421127 A 15.644737 8.3968935 0 1 1 40.481863 36.421127 z" transform="matrix(1.489736,0.000000,0.000000,-1.001252,-12.64716,75.31260)" style="opacity:.14117647;color:#000;fill:url(#radialGradient8668);fill-opacity:1;fill-rule:evenodd;stroke:none;stroke-width:1;stroke-linecap:butt;stroke-linejoin:miter;marker:none;marker-start:none;marker-mid:none;marker-end:none;stroke-miterlimit:10;stroke-dasharray:none;stroke-dashoffset:0;stroke-opacity:1;visibility:visible;display:inline;overflow:visible"/><path style="opacity:1;color:#000;fill:url(#linearGradient2246);fill-opacity:1;fill-rule:nonzero;stroke:url(#linearGradient2238);stroke-width:1.00000012;stroke-linecap:butt;stroke-linejoin:miter;marker:none;marker-start:none;marker-mid:none;marker-end:none;stroke-miterlimit:4;stroke-dasharray:none;stroke-dashoffset:0;stroke-opacity:1;visibility:visible;display:block;overflow:visible" id="path1432" d="M 38.37476,45.034369 C -1.6510486,46.355509 4.6747954,12.29355 25.49479,12.49765 L 25.49479,3.1222396 L 42.143271,17.708819 L 25.49479,33.006349 C 25.49479,33.006349 25.49479,23.337969 25.49479,23.337969 C 11.43168,22.751999 7.3172614,44.770549 38.37476,45.034369 z"/><path id="path2177" d="M 16.92492,39.315519 C 5.2018204,33.235892 8.7371274,13.087489 26.5085,13.549959 L 26.5085,5.4508678 C 26.5085,5.4508678 40.556238,17.714589 40.556238,17.714589 L 26.5085,30.658617 C 26.5085,30.658617 26.5085,22.380979 26.5085,22.380979 C 11.66865,22.032709 12.34859,35.138579 16.92492,39.315519 z" style="opacity:.69886361;color:#000;fill:none;fill-opacity:1;fill-rule:nonzero;stroke:url(#linearGradient1764);stroke-width:.9999997;stroke-linecap:butt;stroke-linejoin:miter;marker:none;marker-start:none;marker-mid:none;marker-end:none;stroke-miterlimit:10;stroke-dasharray:none;stroke-dashoffset:0;stroke-opacity:1;visibility:visible;display:block;overflow:visible"/><path style="opacity:.49431817;color:#000;fill:url(#radialGradient4997);fill-opacity:1;fill-rule:nonzero;stroke:none;stroke-width:.9999997;stroke-linecap:butt;stroke-linejoin:miter;marker:none;marker-start:none;marker-mid:none;marker-end:none;stroke-miterlimit:10;stroke-dasharray:none;stroke-dashoffset:0;stroke-opacity:1;visibility:visible;display:inline;overflow:visible" id="path4989" d="M 26.036989,4.5686095 L 36.723727,14.798241 C 29.786227,14.79824 32.036989,23.735424 25.911989,26.610424 L 25.974489,22.943609 C 10.786989,22.881109 11.661989,38.443609 22.724489,42.693609 C 3.6363414,37.811681 6.2869904,13.381109 25.911989,12.88111 L 26.036989,4.5686095 z"/></g></svg>