<svg xmlns="http://www.w3.org/2000/svg" xmlns:cc="http://web.resource.org/cc/" xmlns:svg="http://www.w3.org/2000/svg" xmlns:xlink="http://www.w3.org/1999/xlink" id="svg11300" width="48" height="48"><defs id="defs3"><linearGradient id="linearGradient2690"><stop style="stop-color:#c4d7eb;stop-opacity:1" id="stop2692" offset="0"/><stop style="stop-color:#c4d7eb;stop-opacity:0" id="stop2694" offset="1"/></linearGradient><linearGradient id="linearGradient2682"><stop style="stop-color:#3977c3;stop-opacity:1" id="stop2684" offset="0"/><stop style="stop-color:#89aedc;stop-opacity:0" id="stop2686" offset="1"/></linearGradient><linearGradient id="linearGradient2402"><stop style="stop-color:#729fcf;stop-opacity:1" id="stop2404" offset="0"/><stop style="stop-color:#528ac5;stop-opacity:1" id="stop2406" offset="1"/></linearGradient><linearGradient id="linearGradient2380"><stop style="stop-color:#b9cfe7;stop-opacity:1" id="stop2382" offset="0"/><stop style="stop-color:#729fcf;stop-opacity:1" id="stop2384" offset="1"/></linearGradient><linearGradient id="linearGradient2871"><stop style="stop-color:#3465a4;stop-opacity:1" id="stop2873" offset="0"/><stop style="stop-color:#3465a4;stop-opacity:1" id="stop2875" offset="1"/></linearGradient><linearGradient id="linearGradient2847"><stop style="stop-color:#3465a4;stop-opacity:1" id="stop2849" offset="0"/><stop style="stop-color:#3465a4;stop-opacity:0" id="stop2851" offset="1"/></linearGradient><linearGradient id="linearGradient2831"><stop style="stop-color:#3465a4;stop-opacity:1" id="stop2833" offset="0"/><stop id="stop2855" offset=".333" style="stop-color:#5b86be;stop-opacity:1"/><stop style="stop-color:#83a8d8;stop-opacity:0" id="stop2835" offset="1"/></linearGradient><linearGradient id="linearGradient2797"><stop style="stop-color:#fff;stop-opacity:1" id="stop2799" offset="0"/><stop style="stop-color:#fff;stop-opacity:0" id="stop2801" offset="1"/></linearGradient><linearGradient id="linearGradient8662"><stop style="stop-color:#000;stop-opacity:1" id="stop8664" offset="0"/><stop style="stop-color:#000;stop-opacity:0" id="stop8666" offset="1"/></linearGradient><linearGradient id="linearGradient1486" x1="13.479" x2="15.419" y1="10.612" y2="19.115" gradientTransform="translate(0.465413,-0.277593)" gradientUnits="userSpaceOnUse" xlink:href="#linearGradient2831"/><linearGradient id="linearGradient1488" x1="37.128" x2="37.065" y1="29.73" y2="26.194" gradientTransform="matrix(-1,0,0,-1,47.52791,45.84741)" gradientUnits="userSpaceOnUse" xlink:href="#linearGradient2847"/><linearGradient id="linearGradient1491" x1="5.965" x2="52.854" y1="26.048" y2="26.048" gradientUnits="userSpaceOnUse" xlink:href="#linearGradient2797"/><linearGradient id="linearGradient1493" x1="5.965" x2="52.854" y1="26.048" y2="26.048" gradientUnits="userSpaceOnUse" xlink:href="#linearGradient2797"/><linearGradient id="linearGradient1501" x1="46.835" x2="45.38" y1="45.264" y2="50.94" gradientUnits="userSpaceOnUse" xlink:href="#linearGradient2871"/><radialGradient id="radialGradient1503" cx="24.837" cy="36.421" r="15.645" fx="24.837" fy="36.421" gradientTransform="matrix(1,0,0,0.536723,-9.680928e-14,16.87306)" gradientUnits="userSpaceOnUse" xlink:href="#linearGradient8662"/><linearGradient id="linearGradient2386" x1="62.514" x2="15.985" y1="36.061" y2="20.609" gradientUnits="userSpaceOnUse" xlink:href="#linearGradient2380"/><linearGradient id="linearGradient2408" x1="18.936" x2="53.589" y1="23.668" y2="26.649" gradientUnits="userSpaceOnUse" xlink:href="#linearGradient2402"/><linearGradient id="linearGradient2688" x1="36.714" x2="37.124" y1="31.456" y2="24.842" gradientUnits="userSpaceOnUse" xlink:href="#linearGradient2682"/><linearGradient id="linearGradient2696" x1="32.648" x2="37.124" y1="30.749" y2="24.842" gradientUnits="userSpaceOnUse" xlink:href="#linearGradient2690"/></defs><metadata id="metadata4"/><g id="layer1"><path id="path8660" d="M 40.481863 36.421127 A 15.644737 8.3968935 0 1 1 9.1923885,36.421127 A 15.644737 8.3968935 0 1 1 40.481863 36.421127 z" transform="matrix(-1.489736,0,0,-1.001252,61.20865,75.2819)" style="opacity:.38333333;color:#000;fill:url(#radialGradient1503);fill-opacity:1;fill-rule:evenodd;stroke:none;stroke-width:1;stroke-linecap:butt;stroke-linejoin:miter;marker:none;marker-start:none;marker-mid:none;marker-end:none;stroke-miterlimit:10;stroke-dasharray:none;stroke-dashoffset:0;stroke-opacity:1;visibility:visible;display:inline;overflow:visible"/><path style="color:#000;fill:url(#linearGradient1486);fill-opacity:1;fill-rule:nonzero;stroke:url(#linearGradient1488);stroke-width:.99999958;stroke-linecap:butt;stroke-linejoin:miter;marker:none;marker-start:none;marker-mid:none;marker-end:none;stroke-miterlimit:4;stroke-dasharray:none;stroke-dashoffset:0;stroke-opacity:1;visibility:visible;display:block;overflow:visible" id="path2865" d="M 20.152913,10.409904 C 20.152913,10.409904 11.215413,9.784904 13.965413,20.284904 L 6.2779132,20.284904 C 6.2779132,20.284904 6.7779132,8.409904 20.152913,10.409904 z"/><g id="g1878" transform="matrix(-0.579051,-0.489228,-0.489228,0.579051,56.91585,13.37137)" style="fill:url(#linearGradient2386);fill-opacity:1;stroke:#3465a4;stroke-opacity:1"><path id="path1880" d="M 44.306783,50.229694 C 62.821497,35.818859 49.664587,13.411704 22.462411,12.49765 L 22.113843,3.1515478 L 7.6245439,20.496754 L 22.714328,33.219189 C 22.714328,33.219189 22.462411,23.337969 22.462411,23.337969 C 41.292171,24.336946 55.444038,37.409698 44.306783,50.229694 z" style="opacity:1;color:#000;fill:url(#linearGradient2386);fill-opacity:1;fill-rule:nonzero;stroke:url(#linearGradient1501);stroke-width:1.31916928;stroke-linecap:butt;stroke-linejoin:miter;marker:none;marker-start:none;marker-mid:none;marker-end:none;stroke-miterlimit:4;stroke-dasharray:none;stroke-dashoffset:0;stroke-opacity:1;visibility:visible;display:block;overflow:visible"/></g><path id="path2839" d="M 28.375,33.4375 C 28.375,33.4375 37.3125,34.0625 34.5625,23.5625 L 42.338388,23.5625 C 42.338388,25.065102 41.75,35.4375 28.375,33.4375 z" style="color:#000;fill:url(#linearGradient2696);fill-opacity:1;fill-rule:nonzero;stroke:url(#linearGradient2688);stroke-width:.99999958;stroke-linecap:butt;stroke-linejoin:miter;marker:none;marker-start:none;marker-mid:none;marker-end:none;stroke-miterlimit:4;stroke-dasharray:none;stroke-dashoffset:0;stroke-opacity:1;visibility:visible;display:block;overflow:visible"/><g style="color:#000;fill:url(#linearGradient2408);fill-opacity:1;fill-rule:nonzero;stroke:url(#linearGradient1501);stroke-width:1.31916928;stroke-linecap:butt;stroke-linejoin:miter;marker:none;marker-start:none;marker-mid:none;marker-end:none;stroke-miterlimit:4;stroke-dasharray:none;stroke-dashoffset:0;stroke-opacity:1;visibility:visible;display:block;overflow:visible;opacity:1" id="g2779" transform="matrix(0.579051,0.489228,0.489228,-0.579051,-7.921023,30.53599)"><path style="opacity:1;color:#000;fill:url(#linearGradient2408);fill-opacity:1;fill-rule:nonzero;stroke:url(#linearGradient1501);stroke-width:1.31916928;stroke-linecap:butt;stroke-linejoin:miter;marker:none;marker-start:none;marker-mid:none;marker-end:none;stroke-miterlimit:4;stroke-dasharray:none;stroke-dashoffset:0;stroke-opacity:1;visibility:visible;display:block;overflow:visible" id="path2781" d="M 44.306783,50.229694 C 62.821497,35.818859 49.664587,13.411704 22.462411,12.49765 L 22.399432,3.0690297 L 7.793943,20.424005 L 22.462411,33.006349 C 22.462411,33.006349 22.462411,23.337969 22.462411,23.337969 C 41.292171,24.336946 55.444038,37.409698 44.306783,50.229694 z"/></g><path style="opacity:.27222224;color:#000;fill:#fff;fill-opacity:1;fill-rule:nonzero;stroke:none;stroke-width:.99999982;stroke-linecap:round;stroke-linejoin:miter;marker:none;marker-start:none;marker-mid:none;marker-end:none;stroke-miterlimit:4;stroke-dasharray:none;stroke-dashoffset:0;stroke-opacity:1;visibility:visible;display:inline;overflow:visible" id="path2791" d="M 7.0625,38.1875 L 7.125,23.3125 L 20.0625,22.9375 L 15.673627,28.116317 L 19.540852,30.489516 C 16.540852,32.739516 14.991304,32.911644 13.991304,35.474144 L 11.174446,33.363872 L 7.0625,38.1875 z"/><g id="g2793" transform="matrix(0.508536,0.429651,0.429651,-0.508536,-3.973188,30.54119)" style="opacity:.5;fill:none;fill-opacity:1;stroke:#fff;stroke-opacity:1"><path id="path2795" d="M 51.090265,45.943705 C 60.210465,30.723955 46.631614,12.20113 19.485058,11.948579 L 19.513464,3.7032834 L 6.5341979,19.296639 L 19.367661,30.26876 C 19.367661,30.26876 19.423281,21.261882 19.423281,21.261882 C 36.951096,21.037973 54.618466,31.365254 51.090265,45.943705 z" style="opacity:1;color:#000;fill:none;fill-opacity:1;fill-rule:nonzero;stroke:url(#linearGradient1493);stroke-width:1.50208926;stroke-linecap:butt;stroke-linejoin:miter;marker:none;marker-start:none;marker-mid:none;marker-end:none;stroke-miterlimit:4;stroke-dasharray:none;stroke-dashoffset:0;stroke-opacity:1;visibility:visible;display:block;overflow:visible"/></g><g style="opacity:.5;fill:none;fill-opacity:1;stroke:#fff;stroke-opacity:1" id="g2805" transform="matrix(-0.508536,-0.429651,-0.429651,0.508536,53.049,13.36548)"><path style="opacity:1;color:#000;fill:none;fill-opacity:1;fill-rule:nonzero;stroke:url(#linearGradient1491);stroke-width:1.50208926;stroke-linecap:butt;stroke-linejoin:miter;marker:none;marker-start:none;marker-mid:none;marker-end:none;stroke-miterlimit:4;stroke-dasharray:none;stroke-dashoffset:0;stroke-opacity:1;visibility:visible;display:block;overflow:visible" id="path2807" d="M 51.389927,46.505946 C 60.510127,31.286196 47.050763,12.432359 19.628482,12.069755 L 19.342824,4.0507204 L 6.3413093,19.379475 L 19.809059,30.764589 C 19.809059,30.764589 19.627294,21.311346 19.627294,21.311346 C 37.872231,21.693318 54.411175,32.236592 51.389927,46.505946 z"/></g><path style="opacity:.27222224;color:#000;fill:#fff;fill-opacity:1;fill-rule:nonzero;stroke:none;stroke-width:.99999982;stroke-linecap:round;stroke-linejoin:miter;marker:none;marker-start:none;marker-mid:none;marker-end:none;stroke-miterlimit:4;stroke-dasharray:none;stroke-dashoffset:0;stroke-opacity:1;visibility:visible;display:inline;overflow:visible" id="path2811" d="M 6.8125,16.5 C 10.405935,6.0587275 23.256282,10.355393 27,12 C 31.175307,12.211475 32.674736,9.164996 36,9 C 21.950264,-0.7899963 7.1875,2.5 6.8125,16.5 z"/></g></svg>