<svg xmlns="http://www.w3.org/2000/svg" xmlns:svg="http://www.w3.org/2000/svg" xmlns:xlink="http://www.w3.org/1999/xlink" id="svg2" width="48" height="48" version="1.0"><defs id="defs4"><linearGradient id="linearGradient2371"><stop id="stop2373" offset="0" stop-color="#000" stop-opacity="1"/><stop id="stop2375" offset="1" stop-color="#000" stop-opacity="0"/></linearGradient><linearGradient id="linearGradient2350"><stop id="stop2352" offset="0" stop-color="#858585" stop-opacity="1"/><stop id="stop2356" offset=".5" stop-color="#cbcbcb" stop-opacity="1"/><stop id="stop2354" offset="1" stop-color="#6b6b6b" stop-opacity="1"/></linearGradient><linearGradient id="linearGradient2277"><stop id="stop2279" offset="0" stop-color="#fff" stop-opacity="1"/><stop id="stop2281" offset="1" stop-color="#fff" stop-opacity="0"/></linearGradient><linearGradient id="linearGradient2263"><stop id="stop2265" offset="0" stop-color="#1e2d69" stop-opacity="1"/><stop id="stop2267" offset="1" stop-color="#78a7e0" stop-opacity="1"/></linearGradient><linearGradient id="linearGradient2269" x1="40.885" x2="16.88" y1="71.869" y2="-.389" gradientTransform="matrix(0.976612,0.000000,0.000000,1.139789,0.564215,-3.271158)" gradientUnits="userSpaceOnUse" xlink:href="#linearGradient2263"/><linearGradient id="linearGradient2283" x1="13.784" x2="33.075" y1="-.997" y2="55.702" gradientTransform="matrix(0.985432,0.000000,0.000000,1.148179,0.641070,-2.933883)" gradientUnits="userSpaceOnUse" xlink:href="#linearGradient2277"/><linearGradient id="linearGradient2348" x1="20.125" x2="28.563" y1="21.844" y2="42.469" gradientTransform="matrix(1.067698,0.000000,0.000000,1.121532,-1.368937,-5.574460)" gradientUnits="userSpaceOnUse" xlink:href="#linearGradient2350"/><radialGradient id="radialGradient2377" cx="24.313" cy="41.156" r="22.875" fx="24.313" fy="41.156" gradientTransform="matrix(1.000000,0.000000,0.000000,0.269126,-1.352272e-16,30.08005)" gradientUnits="userSpaceOnUse" xlink:href="#linearGradient2371"/><radialGradient id="radialGradient2580" cx="55" cy="125" r="14.375" fx="55" fy="125" gradientUnits="userSpaceOnUse" xlink:href="#linearGradient12512"/><linearGradient id="linearGradient12512"><stop id="stop12513" offset="0" stop-color="#fff" stop-opacity="1"/><stop id="stop12517" offset=".5" stop-color="#fff520" stop-opacity=".891"/><stop id="stop12514" offset="1" stop-color="#fff300" stop-opacity="0"/></linearGradient><radialGradient id="radialGradient2937" cx="55" cy="125" r="14.375" fx="55" fy="125" gradientUnits="userSpaceOnUse" xlink:href="#linearGradient12512"/></defs><metadata id="metadata7"/><g id="layer1"><path id="path2361" fill="url(#radialGradient2377)" fill-opacity="1" stroke="none" stroke-dasharray="none" stroke-dashoffset="0" stroke-linecap="butt" stroke-linejoin="miter" stroke-miterlimit="4" stroke-opacity="1" stroke-width="1.005" d="M 47.1875 41.15625 A 22.875 6.15625 0 1 1 1.4375,41.15625 A 22.875 6.15625 0 1 1 47.1875 41.15625 z" opacity=".506" transform="matrix(0.918032,0.000000,0.000000,0.981221,1.680328,0.647887)"/><path id="rect2259" fill="url(#linearGradient2269)" fill-opacity="1" stroke="#25375f" stroke-dashoffset="0" stroke-linecap="round" stroke-linejoin="round" stroke-miterlimit="4" stroke-opacity="1" stroke-width="1" d="M 4.5577604,3.5675797 L 43.448063,3.5675797 C 44.037357,3.5675797 44.511771,4.0419938 44.511771,4.6312883 L 44.511771,42.396499 C 44.511771,42.985793 44.037357,43.460207 43.448063,43.460207 L 6.5577604,43.460207 C 6.5577604,43.460207 3.4940519,40.396499 3.4940519,40.396499 L 3.4940519,4.6312883 C 3.4940519,4.0419938 3.9684659,3.5675797 4.5577604,3.5675797 z"/><rect id="rect2328" width="30" height="23" x="9" y="4" fill="#fff" fill-opacity="1" stroke="none" stroke-dasharray="none" stroke-dashoffset="0" stroke-linecap="butt" stroke-linejoin="miter" stroke-miterlimit="4" stroke-opacity="1" stroke-width="1" opacity="1"/><rect id="rect2330" width="30" height="4" x="9" y="4" fill="#d31c00" fill-opacity="1" stroke="none" stroke-dasharray="none" stroke-dashoffset="0" stroke-linecap="butt" stroke-linejoin="miter" stroke-miterlimit="4" stroke-opacity="1" stroke-width="1" opacity="1" rx=".126" ry=".126"/><rect id="rect2332" width="2" height="2" x="6" y="6" fill="#000" fill-opacity="1" stroke="none" stroke-dasharray="none" stroke-dashoffset="0" stroke-linecap="butt" stroke-linejoin="miter" stroke-miterlimit="4" stroke-opacity="1" stroke-width="1" opacity=".739" rx=".126" ry=".126"/><path id="path2334" fill="#000" fill-opacity="1" stroke="#000" stroke-dasharray="none" stroke-dashoffset="0" stroke-linecap="butt" stroke-linejoin="miter" stroke-miterlimit="4" stroke-opacity="1" stroke-width="1" d="M 11,12.5 L 37,12.5" opacity=".131"/><path id="path2336" fill="#000" fill-opacity="1" stroke="#000" stroke-dasharray="none" stroke-dashoffset="0" stroke-linecap="butt" stroke-linejoin="miter" stroke-miterlimit="4" stroke-opacity="1" stroke-width="1" d="M 11,17.5 L 37,17.5" opacity=".131"/><path id="path2338" fill="#000" fill-opacity="1" stroke="#000" stroke-dasharray="none" stroke-dashoffset="0" stroke-linecap="butt" stroke-linejoin="miter" stroke-miterlimit="4" stroke-opacity="1" stroke-width="1" d="M 11,22.5 L 37,22.5" opacity=".131"/><path id="rect2273" fill="none" fill-opacity="1" stroke="url(#linearGradient2283)" stroke-dashoffset="0" stroke-linecap="round" stroke-linejoin="miter" stroke-miterlimit="4" stroke-opacity="1" stroke-width="1" d="M 4.6189226,4.5276647 L 43.387404,4.5276647 C 43.457323,4.5276647 43.513612,4.5839533 43.513612,4.6538724 L 43.513612,42.302111 C 43.513612,42.37203 43.457323,42.428319 43.387404,42.428319 L 6.9282818,42.428319 C 6.9282818,42.428319 4.4927149,40.036946 4.4927149,40.036946 L 4.4927149,4.6538724 C 4.4927149,4.5839533 4.5490035,4.5276647 4.6189226,4.5276647 z" opacity=".597"/><path id="rect2340" fill="url(#linearGradient2348)" fill-opacity="1" stroke="#525252" stroke-dashoffset="0" stroke-linecap="butt" stroke-linejoin="miter" stroke-miterlimit="4" stroke-opacity="1" stroke-width="1" d="M 14.113967,28.562183 L 33.863791,28.562183 C 34.751762,28.562183 35.466627,29.313093 35.466627,30.245836 L 35.466627,43.447387 C 35.466627,43.447387 12.511131,43.447387 12.511131,43.447387 L 12.511131,30.245836 C 12.511131,29.313093 13.225996,28.562183 14.113967,28.562183 z"/><rect id="rect2359" width="5.03" height="10.066" x="16.464" y="30.457" fill="#4967a2" fill-opacity="1" stroke="#525252" stroke-dasharray="none" stroke-dashoffset="0" stroke-linecap="butt" stroke-linejoin="miter" stroke-miterlimit="4" stroke-opacity="1" stroke-width="1" opacity="1" rx=".751" ry=".751"/><path id="path12511" fill="url(#radialGradient2937)" fill-opacity="1" fill-rule="nonzero" stroke="none" stroke-width="1.25" d="m 69.375,125 a 14.375,14.375 0 1 1 -28.75,0 14.375,14.375 0 1 1 28.75,0 z" display="block" transform="matrix(0.611127,0,0,0.611127,5.615939,-67.942577)" visibility="visible" style="marker:none"/></g></svg>