<svg xmlns="http://www.w3.org/2000/svg" xmlns:cc="http://web.resource.org/cc/" xmlns:svg="http://www.w3.org/2000/svg" xmlns:xlink="http://www.w3.org/1999/xlink" id="svg11300" width="48" height="48"><defs id="defs3"><linearGradient id="linearGradient2846"><stop id="stop2848" offset="0" style="stop-color:#8a8a8a;stop-opacity:1"/><stop id="stop2850" offset="1" style="stop-color:#484848;stop-opacity:1"/></linearGradient><linearGradient id="linearGradient2366"><stop id="stop2368" offset="0" style="stop-color:#fff;stop-opacity:1"/><stop style="stop-color:#fff;stop-opacity:.21904762" id="stop2374" offset=".5"/><stop id="stop2370" offset="1" style="stop-color:#fff;stop-opacity:1"/></linearGradient><linearGradient id="linearGradient4487"><stop style="stop-color:#fff;stop-opacity:1" id="stop4489" offset="0"/><stop style="stop-color:#fff;stop-opacity:0" id="stop4491" offset="1"/></linearGradient><linearGradient id="linearGradient4477"><stop style="stop-color:#000;stop-opacity:1" id="stop4479" offset="0"/><stop style="stop-color:#000;stop-opacity:0" id="stop4481" offset="1"/></linearGradient><linearGradient id="linearGradient4467"><stop style="stop-color:#fff;stop-opacity:1" id="stop4469" offset="0"/><stop style="stop-color:#fff;stop-opacity:.24761905" id="stop4471" offset="1"/></linearGradient><linearGradient id="linearGradient4454"><stop style="stop-color:#729fcf;stop-opacity:.20784314" id="stop4456" offset="0"/><stop style="stop-color:#729fcf;stop-opacity:.6761905" id="stop4458" offset="1"/></linearGradient><linearGradient id="linearGradient4440"><stop style="stop-color:#7d7d7d;stop-opacity:1" id="stop4442" offset="0"/><stop id="stop4448" offset=".5" style="stop-color:#b1b1b1;stop-opacity:1"/><stop style="stop-color:#686868;stop-opacity:1" id="stop4444" offset="1"/></linearGradient><linearGradient id="linearGradient4446" x1="30.656" x2="33.219" y1="34" y2="31.063" gradientTransform="matrix(1.334593,0.000000,0.000000,1.291292,-6.973842,-7.460658)" gradientUnits="userSpaceOnUse" xlink:href="#linearGradient4440"/><radialGradient id="radialGradient4460" cx="18.241" cy="21.818" r="8.309" fx="18.241" fy="21.818" gradientUnits="userSpaceOnUse" xlink:href="#linearGradient4454"/><radialGradient id="radialGradient4473" cx="15.414" cy="13.078" r="6.656" fx="15.414" fy="13.078" gradientTransform="matrix(2.592963,-7.746900e-24,-5.714443e-24,2.252104,-25.05975,-18.94100)" gradientUnits="userSpaceOnUse" xlink:href="#linearGradient4467"/><radialGradient id="radialGradient4493" cx="24.13" cy="37.968" r="16.529" fx="24.13" fy="37.968" gradientTransform="matrix(1.000000,0.000000,0.000000,0.237968,3.152859e-15,28.93278)" gradientUnits="userSpaceOnUse" xlink:href="#linearGradient4487"/><linearGradient id="linearGradient2372" x1="18.293" x2="17.501" y1="13.602" y2="25.743" gradientUnits="userSpaceOnUse" xlink:href="#linearGradient2366"/><radialGradient id="radialGradient2842" cx="24.13" cy="37.968" r="16.529" fx="24.13" fy="37.968" gradientTransform="matrix(1.000000,0.000000,0.000000,0.237968,-2.471981e-16,28.93278)" gradientUnits="userSpaceOnUse" xlink:href="#linearGradient4477"/><linearGradient id="linearGradient2852" x1="27.366" x2="31.336" y1="26.58" y2="30.558" gradientUnits="userSpaceOnUse" xlink:href="#linearGradient2846"/></defs><metadata id="metadata4"/><g id="layer1"><g id="g1772"><path style="opacity:.17112298;color:#000;fill:url(#radialGradient2842);fill-opacity:1;fill-rule:evenodd;stroke:none;stroke-width:1;stroke-linecap:round;stroke-linejoin:miter;marker:none;marker-start:none;marker-mid:none;marker-end:none;stroke-miterlimit:10;stroke-dasharray:none;stroke-dashoffset:0;stroke-opacity:1;visibility:visible;display:inline;overflow:visible" id="path4475" d="M 40.658640 37.967922 A 16.528622 3.9332814 0 1 1 7.6013966,37.967922 A 16.528622 3.9332814 0 1 1 40.658640 37.967922 z" transform="matrix(1.446431,0.000000,0.000000,1.519990,-10.97453,-17.75168)"/><path id="path2844" d="M 18.627569,3.1435548 C 10.488439,3.1435548 3.8827682,9.7492259 3.8827682,17.888356 C 3.8827682,26.027486 10.488439,32.633158 18.627569,32.633158 C 22.107124,32.633158 25.178570,31.248765 27.701292,29.230511 C 27.495915,30.237392 27.623257,31.265879 28.457436,31.990436 L 39.421520,41.517846 C 40.654936,42.589175 42.508982,42.448806 43.580310,41.215389 C 44.651638,39.981971 44.511269,38.127927 43.277853,37.056599 L 32.313769,27.529188 C 31.642242,26.945909 30.820891,26.773219 30.007531,26.886466 C 31.994231,24.374044 33.372370,21.337663 33.372370,17.888356 C 33.372370,9.7492259 26.766699,3.1435548 18.627569,3.1435548 z M 18.551954,4.3697381 C 26.191413,4.3697381 31.843729,9.1586886 31.843729,17.661513 C 31.843729,26.336626 26.027039,30.953288 18.551954,30.953288 C 11.249005,30.953288 5.2601806,25.475196 5.2601806,17.661513 C 5.2601806,9.6774061 11.084819,4.3697380 18.551954,4.3697381 z" style="opacity:1;color:#000;fill:#dcdcdc;fill-opacity:1;fill-rule:evenodd;stroke:url(#linearGradient2852);stroke-width:2.000001;stroke-linecap:round;stroke-linejoin:miter;marker:none;marker-start:none;marker-mid:none;marker-end:none;stroke-miterlimit:10;stroke-dasharray:none;stroke-dashoffset:0;stroke-opacity:1;visibility:visible;display:inline;overflow:visible"/><path style="opacity:1;color:#000;fill:#dcdcdc;fill-opacity:1;fill-rule:evenodd;stroke:none;stroke-width:1.0000004;stroke-linecap:round;stroke-linejoin:miter;marker:none;marker-start:none;marker-mid:none;marker-end:none;stroke-miterlimit:10;stroke-dasharray:none;stroke-dashoffset:0;stroke-opacity:1;visibility:visible;display:inline;overflow:visible" id="path4430" d="M 18.602905,3.0803551 C 10.437465,3.0803551 3.8104408,9.7073791 3.8104408,17.872819 C 3.8104408,26.038259 10.437465,32.665283 18.602905,32.665283 C 22.093708,32.665283 25.175082,31.276416 27.705960,29.251638 C 27.499919,30.261774 27.627672,31.293585 28.464547,32.020484 L 39.464073,41.578691 C 40.701476,42.653483 42.561515,42.512661 43.636306,41.275256 C 44.711097,40.037852 44.570274,38.177814 43.332871,37.103023 L 32.333346,27.544815 C 31.659648,26.959651 30.835642,26.786402 30.019653,26.900016 C 32.012775,24.379472 33.395369,21.333276 33.395369,17.872819 C 33.395369,9.7073791 26.768345,3.0803551 18.602905,3.0803551 z M 18.527046,6.2664243 C 24.808154,6.2664245 29.905864,11.364135 29.905864,17.645243 C 29.905864,23.926351 24.808154,29.024061 18.527046,29.024061 C 12.245938,29.024061 7.1482276,23.926351 7.1482276,17.645243 C 7.1482278,11.364135 12.245938,6.2664243 18.527046,6.2664243 z"/><path style="opacity:1;color:#000;fill:url(#linearGradient4446);fill-opacity:1;fill-rule:evenodd;stroke:none;stroke-width:1;stroke-linecap:round;stroke-linejoin:miter;marker:none;marker-start:none;marker-mid:none;marker-end:none;stroke-miterlimit:10;stroke-dasharray:none;stroke-dashoffset:0;stroke-opacity:1;visibility:visible;display:inline;overflow:visible" id="path4438" d="M 39.507004,41.577690 C 39.028332,39.304503 40.904334,36.766268 43.091057,36.789315 C 43.091057,36.789315 32.330690,27.531204 32.330690,27.531204 C 29.385899,27.474498 28.061188,29.803820 28.553876,32.131126 L 39.507004,41.577690 z"/><path style="opacity:1;color:#000;fill:none;fill-opacity:1;fill-rule:evenodd;stroke:url(#linearGradient2372);stroke-width:.8027336;stroke-linecap:round;stroke-linejoin:miter;marker:none;marker-start:none;marker-mid:none;marker-end:none;stroke-miterlimit:10;stroke-dasharray:none;stroke-dashoffset:0;stroke-opacity:1;visibility:visible;display:inline;overflow:visible" id="path4450" d="M 28.549437 18.920233 A 11.048544 11.048544 0 1 1 6.4523487,18.920233 A 11.048544 11.048544 0 1 1 28.549437 18.920233 z" transform="matrix(1.245743,0.000000,0.000000,1.245743,-3.425346,-6.177033)"/><path id="path4485" d="M 40.658640 37.967922 A 16.528622 3.9332814 0 1 1 7.6013966,37.967922 A 16.528622 3.9332814 0 1 1 40.658640 37.967922 z" transform="matrix(0.497764,0.000000,0.000000,0.609621,8.973526,15.61929)" style="opacity:1;color:#000;fill:url(#radialGradient4493);fill-opacity:1;fill-rule:evenodd;stroke:none;stroke-width:1;stroke-linecap:round;stroke-linejoin:miter;marker:none;marker-start:none;marker-mid:none;marker-end:none;stroke-miterlimit:10;stroke-dasharray:none;stroke-dashoffset:0;stroke-opacity:1;visibility:visible;display:inline;overflow:visible"/><rect style="opacity:.43315509;color:#000;fill:none;fill-opacity:1;fill-rule:evenodd;stroke:#fff;stroke-width:1.0000311;stroke-linecap:round;stroke-linejoin:miter;marker:none;marker-start:none;marker-mid:none;marker-end:none;stroke-miterlimit:10;stroke-dasharray:none;stroke-dashoffset:0;stroke-opacity:1;visibility:visible;display:inline;overflow:visible" id="rect4495" width="19.048" height="4.44" x="40.373" y=".141" rx="2.137" ry="1.888" transform="matrix(0.752986,0.658037,-0.648902,0.760872,0.000000,0.000000)"/><path style="color:#000;fill:url(#radialGradient4460);fill-opacity:1;fill-rule:evenodd;stroke:#3063a3;stroke-width:.71499395;stroke-linecap:round;stroke-linejoin:miter;stroke-miterlimit:10;stroke-dashoffset:0;stroke-opacity:1;marker:none;marker-start:none;marker-mid:none;marker-end:none;visibility:visible" id="path4452" d="M 25.897786 18.478292 A 8.3085051 8.3085051 0 1 1 9.2807760,18.478292 A 8.3085051 8.3085051 0 1 1 25.897786 18.478292 z" transform="matrix(1.398614,0.000000,0.000000,1.398614,-6.224338,-8.298958)"/><path style="opacity:.83422458;color:#000;fill:url(#radialGradient4473);fill-opacity:1;fill-rule:evenodd;stroke:none;stroke-width:1;stroke-linecap:round;stroke-linejoin:miter;marker:none;marker-start:none;marker-mid:none;marker-end:none;stroke-miterlimit:10;stroke-dasharray:none;stroke-dashoffset:0;stroke-opacity:1;visibility:visible;display:inline;overflow:visible" id="path4462" d="M 18.156915,7.3966938 C 12.949325,7.3966938 8.7323681,11.613651 8.7323681,16.821241 C 8.7323681,18.325216 9.1526753,19.709014 9.7795400,20.971144 C 11.031920,21.432757 12.362297,21.746827 13.774307,21.746827 C 19.945262,21.746827 24.873589,16.885190 25.254413,10.809698 C 23.523449,8.7641668 21.044374,7.3966938 18.156915,7.3966938 z"/></g></g></svg>