<svg xmlns="http://www.w3.org/2000/svg" xmlns:cc="http://web.resource.org/cc/" xmlns:svg="http://www.w3.org/2000/svg" xmlns:xlink="http://www.w3.org/1999/xlink" id="svg11300" width="48" height="48"><defs id="defs3"><linearGradient id="linearGradient5330"><stop id="stop5334" offset="0" style="stop-color:#fff;stop-opacity:1"/><stop style="stop-color:#2e2e2e;stop-opacity:1" id="stop5340" offset=".575"/><stop id="stop5332" offset="1" style="stop-color:#cbcbcb;stop-opacity:1"/></linearGradient><linearGradient id="linearGradient5312"><stop style="stop-color:#fff;stop-opacity:0" id="stop5314" offset="0"/><stop id="stop5320" offset=".5" style="stop-color:#fff;stop-opacity:1"/><stop style="stop-color:#fff;stop-opacity:.10625" id="stop5316" offset="1"/></linearGradient><linearGradient id="linearGradient5300"><stop id="stop5302" offset="0" style="stop-color:#f8f8f7;stop-opacity:1"/><stop style="stop-color:#b3b6af;stop-opacity:1" id="stop5310" offset=".545"/><stop style="stop-color:#6b7264;stop-opacity:1" id="stop5304" offset=".673"/><stop style="stop-color:#d1d5cc;stop-opacity:1" id="stop5306" offset=".787"/><stop id="stop5308" offset="1" style="stop-color:#e0e3de;stop-opacity:1"/></linearGradient><linearGradient id="linearGradient15679"><stop style="stop-color:#000;stop-opacity:1" id="stop15681" offset="0"/><stop style="stop-color:#000;stop-opacity:0" id="stop15683" offset="1"/></linearGradient><radialGradient id="radialGradient15659" cx="21.723" cy="11.658" r="19.875" fx="21.723" fy="11.658" gradientTransform="matrix(1.376352,0,0,2.5935409,-8.1178793,-19.236296)" gradientUnits="userSpaceOnUse" xlink:href="#linearGradient5300"/><radialGradient id="radialGradient15685" cx="23.313" cy="40.938" r="17.188" fx="23.313" fy="40.938" gradientTransform="matrix(1,0,0,0.316364,0,27.98636)" gradientUnits="userSpaceOnUse" xlink:href="#linearGradient15679"/><linearGradient id="linearGradient5318" x1="5.249" x2="36.812" y1="23.5" y2="23.5" gradientUnits="userSpaceOnUse" xlink:href="#linearGradient5312"/><radialGradient id="radialGradient5336" cx="24.188" cy="10.036" r="2.688" fx="24.188" fy="10.036" gradientTransform="matrix(2.175,0,0,2.175,-28.420311,-11.926601)" gradientUnits="userSpaceOnUse" xlink:href="#linearGradient5330"/><radialGradient id="radialGradient5344" cx="24.188" cy="10.036" r="2.688" fx="24.188" fy="10.036" gradientTransform="matrix(2.175,0,0,2.175,-28.420311,-11.926601)" gradientUnits="userSpaceOnUse" xlink:href="#linearGradient5330"/><radialGradient id="radialGradient5348" cx="24.188" cy="10.036" r="2.688" fx="24.188" fy="10.036" gradientTransform="matrix(2.175,0,0,2.175,-28.420311,-11.926601)" gradientUnits="userSpaceOnUse" xlink:href="#linearGradient5330"/><radialGradient id="radialGradient5352" cx="24.188" cy="10.036" r="2.688" fx="24.188" fy="10.036" gradientTransform="matrix(2.175,0,0,2.175,-28.420311,-11.926601)" gradientUnits="userSpaceOnUse" xlink:href="#linearGradient5330"/><radialGradient id="radialGradient5356" cx="24.188" cy="10.036" r="2.688" fx="24.188" fy="10.036" gradientTransform="matrix(2.175,0,0,2.175,-28.420311,-11.926601)" gradientUnits="userSpaceOnUse" xlink:href="#linearGradient5330"/><radialGradient id="radialGradient5360" cx="24.188" cy="10.036" r="2.688" fx="24.188" fy="10.036" gradientTransform="matrix(2.175,0,0,2.175,-28.420311,-11.926601)" gradientUnits="userSpaceOnUse" xlink:href="#linearGradient5330"/><radialGradient id="radialGradient5364" cx="24.188" cy="10.036" r="2.688" fx="24.188" fy="10.036" gradientTransform="matrix(2.175,0,0,2.175,-28.420311,-11.926601)" gradientUnits="userSpaceOnUse" xlink:href="#linearGradient5330"/><radialGradient id="radialGradient5368" cx="24.188" cy="10.036" r="2.688" fx="24.188" fy="10.036" gradientTransform="matrix(2.175,0,0,2.175,-28.420311,-11.926601)" gradientUnits="userSpaceOnUse" xlink:href="#linearGradient5330"/><radialGradient id="radialGradient5372" cx="24.188" cy="10.036" r="2.688" fx="24.188" fy="10.036" gradientTransform="matrix(2.175,0,0,2.175,-28.420311,-11.926601)" gradientUnits="userSpaceOnUse" xlink:href="#linearGradient5330"/></defs><metadata id="metadata4"/><g id="layer1"><path style="opacity:.36931817;color:#000;fill:url(#radialGradient15685);fill-opacity:1;fill-rule:nonzero;stroke:none;stroke-width:1.00000024;stroke-linecap:round;stroke-linejoin:round;marker:none;marker-start:none;marker-mid:none;marker-end:none;stroke-miterlimit:4;stroke-dasharray:none;stroke-dashoffset:0;stroke-opacity:1;visibility:visible;display:block;overflow:visible" id="path15677" d="M 40.5 40.9375 A 17.1875 5.4375 0 1 1 6.125,40.9375 A 17.1875 5.4375 0 1 1 40.5 40.9375 z" transform="translate(0.4053299,0.625)"/><path style="opacity:1;color:#000;fill:url(#radialGradient15659);fill-opacity:1;fill-rule:nonzero;stroke:#888a85;stroke-width:1.0000002400000001;stroke-linecap:round;stroke-linejoin:round;marker:none;marker-start:none;marker-mid:none;marker-end:none;stroke-miterlimit:4;stroke-dasharray:none;stroke-dashoffset:0;stroke-opacity:1;visibility:visible;display:block;overflow:visible" id="path15651" d="M 23.530328,3 C 16.129362,8.5765861 4.5303298,12 4.5303298,12 C 7.5303298,37.75 23.905328,44 23.905328,44 C 23.905328,44 40.030328,37.5 43.280328,11.625 C 43.280328,11.625 29.280328,6.5 23.530328,3 z"/><path id="path15665" d="M 23.553915,4.289309 C 16.618418,9.5151669 5.7488838,12.723272 5.7488838,12.723272 C 8.5602048,36.853777 23.866022,42.710696 23.866022,42.710696 C 23.866022,42.710696 39.016181,36.619501 42.061778,12.371857 C 42.061778,12.371857 28.94228,7.5691835 23.553915,4.289309 z" style="opacity:1;color:#000;fill:none;fill-opacity:1;fill-rule:nonzero;stroke:url(#linearGradient5318);stroke-width:1.00000036000000003;stroke-linecap:round;stroke-linejoin:round;marker:none;marker-start:none;marker-mid:none;marker-end:none;stroke-miterlimit:4;stroke-dasharray:none;stroke-dashoffset:0;stroke-opacity:1;visibility:visible;display:block;overflow:visible"/><path style="opacity:1;color:#000;fill:url(#radialGradient5336);fill-opacity:1;fill-rule:nonzero;stroke:none;stroke-width:1;stroke-linecap:round;stroke-linejoin:round;marker:none;marker-start:none;marker-mid:none;marker-end:none;stroke-miterlimit:4;stroke-dasharray:none;stroke-dashoffset:0;stroke-opacity:.10625;visibility:visible;display:inline;overflow:visible;enable-background:accumulate" id="path5326" d="M 26.875,11.3125 A 2.6875,2.6875 0 1 1 21.5,11.3125 A 2.6875,2.6875 0 1 1 26.875,11.3125 z" transform="matrix(0.5581396,0,0,0.5581396,10.125,1.4360465)"/><path id="path5342" d="M 26.875,11.3125 A 2.6875,2.6875 0 1 1 21.5,11.3125 A 2.6875,2.6875 0 1 1 26.875,11.3125 z" transform="matrix(0.5581396,0,0,0.5581396,-5.0625,8.3110461)" style="opacity:1;color:#000;fill:url(#radialGradient5344);fill-opacity:1;fill-rule:nonzero;stroke:none;stroke-width:1;stroke-linecap:round;stroke-linejoin:round;marker:none;marker-start:none;marker-mid:none;marker-end:none;stroke-miterlimit:4;stroke-dasharray:none;stroke-dashoffset:0;stroke-opacity:.10625;visibility:visible;display:inline;overflow:visible;enable-background:accumulate"/><path style="opacity:1;color:#000;fill:url(#radialGradient5348);fill-opacity:1;fill-rule:nonzero;stroke:none;stroke-width:1;stroke-linecap:round;stroke-linejoin:round;marker:none;marker-start:none;marker-mid:none;marker-end:none;stroke-miterlimit:4;stroke-dasharray:none;stroke-dashoffset:0;stroke-opacity:.10625;visibility:visible;display:inline;overflow:visible;enable-background:accumulate" id="path5346" d="M 26.875,11.3125 A 2.6875,2.6875 0 1 1 21.5,11.3125 A 2.6875,2.6875 0 1 1 26.875,11.3125 z" transform="matrix(0.5581396,0,0,0.5581396,25.874999,8.0610459)"/><path id="path5350" d="M 26.875,11.3125 A 2.6875,2.6875 0 1 1 21.5,11.3125 A 2.6875,2.6875 0 1 1 26.875,11.3125 z" transform="matrix(0.385474,0,0,0.385474,14.697125,33.603363)" style="opacity:1;color:#000;fill:url(#radialGradient5352);fill-opacity:1;fill-rule:nonzero;stroke:none;stroke-width:1;stroke-linecap:round;stroke-linejoin:round;marker:none;marker-start:none;marker-mid:none;marker-end:none;stroke-miterlimit:4;stroke-dasharray:none;stroke-dashoffset:0;stroke-opacity:.10625;visibility:visible;display:inline;overflow:visible;enable-background:accumulate"/><path style="opacity:1;color:#000;fill:url(#radialGradient5356);fill-opacity:1;fill-rule:nonzero;stroke:none;stroke-width:1;stroke-linecap:round;stroke-linejoin:round;marker:none;marker-start:none;marker-mid:none;marker-end:none;stroke-miterlimit:4;stroke-dasharray:none;stroke-dashoffset:0;stroke-opacity:.10625;visibility:visible;display:inline;overflow:visible;enable-background:accumulate" id="path5354" d="M 26.875,11.3125 A 2.6875,2.6875 0 1 1 21.5,11.3125 A 2.6875,2.6875 0 1 1 26.875,11.3125 z" transform="matrix(0.385474,0,0,0.385474,14.676348,23.706537)"/><path id="path5358" d="M 26.875,11.3125 A 2.6875,2.6875 0 1 1 21.5,11.3125 A 2.6875,2.6875 0 1 1 26.875,11.3125 z" transform="matrix(0.385474,0,0,0.385474,14.863848,18.519037)" style="opacity:1;color:#000;fill:url(#radialGradient5360);fill-opacity:1;fill-rule:nonzero;stroke:none;stroke-width:1;stroke-linecap:round;stroke-linejoin:round;marker:none;marker-start:none;marker-mid:none;marker-end:none;stroke-miterlimit:4;stroke-dasharray:none;stroke-dashoffset:0;stroke-opacity:.10625;visibility:visible;display:inline;overflow:visible;enable-background:accumulate"/><path style="opacity:1;color:#000;fill:url(#radialGradient5364);fill-opacity:1;fill-rule:nonzero;stroke:none;stroke-width:1;stroke-linecap:round;stroke-linejoin:round;marker:none;marker-start:none;marker-mid:none;marker-end:none;stroke-miterlimit:4;stroke-dasharray:none;stroke-dashoffset:0;stroke-opacity:.10625;visibility:visible;display:inline;overflow:visible;enable-background:accumulate" id="path5362" d="M 26.875,11.3125 A 2.6875,2.6875 0 1 1 21.5,11.3125 A 2.6875,2.6875 0 1 1 26.875,11.3125 z" transform="matrix(0.385474,0,0,0.385474,14.738848,13.603364)"/><path id="path5366" d="M 26.875,11.3125 A 2.6875,2.6875 0 1 1 21.5,11.3125 A 2.6875,2.6875 0 1 1 26.875,11.3125 z" transform="matrix(0.385474,0,0,0.385474,14.676348,8.728364)" style="opacity:1;color:#000;fill:url(#radialGradient5368);fill-opacity:1;fill-rule:nonzero;stroke:none;stroke-width:1;stroke-linecap:round;stroke-linejoin:round;marker:none;marker-start:none;marker-mid:none;marker-end:none;stroke-miterlimit:4;stroke-dasharray:none;stroke-dashoffset:0;stroke-opacity:.10625;visibility:visible;display:inline;overflow:visible;enable-background:accumulate"/><path id="path5370" d="M 26.875,11.3125 A 2.6875,2.6875 0 1 1 21.5,11.3125 A 2.6875,2.6875 0 1 1 26.875,11.3125 z" transform="matrix(0.385474,0,0,0.385474,14.676348,28.706537)" style="opacity:1;color:#000;fill:url(#radialGradient5372);fill-opacity:1;fill-rule:nonzero;stroke:none;stroke-width:1;stroke-linecap:round;stroke-linejoin:round;marker:none;marker-start:none;marker-mid:none;marker-end:none;stroke-miterlimit:4;stroke-dasharray:none;stroke-dashoffset:0;stroke-opacity:.10625;visibility:visible;display:inline;overflow:visible;enable-background:accumulate"/></g></svg>