<svg xmlns="http://www.w3.org/2000/svg" xmlns:cc="http://web.resource.org/cc/" xmlns:svg="http://www.w3.org/2000/svg" xmlns:xlink="http://www.w3.org/1999/xlink" id="svg8728" width="48" height="48"><defs id="defs3"><linearGradient id="linearGradient2195"><stop id="stop2197" offset="0" stop-color="#000" stop-opacity="1"/><stop id="stop2199" offset="1" stop-color="#000" stop-opacity="0"/></linearGradient><linearGradient id="linearGradient6581"><stop id="stop6583" offset="0" stop-color="#fce94f" stop-opacity="1"/><stop id="stop6585" offset="1" stop-color="#edd400" stop-opacity="1"/></linearGradient><linearGradient id="linearGradient14920"><stop id="stop14922" offset="0" stop-color="#5a7aa4" stop-opacity="1"/><stop id="stop14924" offset="1" stop-color="#1f2b3a" stop-opacity="1"/></linearGradient><linearGradient id="linearGradient13390"><stop id="stop13392" offset="0" stop-color="#81a2cd" stop-opacity="1"/><stop id="stop13394" offset="1" stop-color="#2a415f" stop-opacity="1"/></linearGradient><linearGradient id="linearGradient10325"><stop id="stop10327" offset="0" stop-color="#5a7aa4" stop-opacity="1"/><stop id="stop10329" offset="1" stop-color="#455e7e" stop-opacity="1"/></linearGradient><linearGradient id="linearGradient13217" x1="23.598" x2="37.747" y1="23.992" y2="39.486" gradientTransform="matrix(0.906588,0,0,0.861825,3.284439,2.469471)" gradientUnits="userSpaceOnUse" xlink:href="#linearGradient6581"/><radialGradient id="radialGradient2201" cx="25.125" cy="44.813" r="20.25" fx="25.125" fy="44.813" gradientTransform="matrix(1,0,0,0.157407,0,37.75868)" gradientUnits="userSpaceOnUse" xlink:href="#linearGradient2195"/><linearGradient id="linearGradient2207" x1="10.99" x2="22.65" y1="8.593" y2="19.819" gradientUnits="userSpaceOnUse" xlink:href="#linearGradient6581"/></defs><metadata id="metadata4"/><g id="layer1"><path id="path1320" fill="url(#radialGradient2201)" fill-opacity="1" fill-rule="evenodd" stroke="none" stroke-dasharray="none" stroke-dashoffset="0" stroke-linecap="butt" stroke-linejoin="miter" stroke-miterlimit="4" stroke-opacity="1" stroke-width="1" marker-end="none" marker-mid="none" marker-start="none" d="M 45.375 44.8125 A 20.25 3.1875 0 1 1 4.875,44.8125 A 20.25 3.1875 0 1 1 45.375 44.8125 z" color="#000" display="block" opacity=".183" overflow="visible" transform="translate(-0.375,-2.125)" visibility="visible" style="marker:none"/><path id="path1324" fill="url(#linearGradient2207)" fill-opacity="1" fill-rule="evenodd" stroke="#c4a00f" stroke-dasharray="none" stroke-dashoffset="0" stroke-linecap="butt" stroke-linejoin="round" stroke-miterlimit="4" stroke-opacity=".941" stroke-width="1.093" d="M 26.332331,31.650072 L 13.763558,22.787459 L -0.51813183,28.827974 L 4.0267499,14.135663 L -6.1314057,2.4195899 L 9.2462579,2.2018556 L 17.249863,-11.07959 L 22.2089,3.4781535 L 37.313555,6.9858415 L 25.000745,16.200756 L 26.332331,31.650072 z" opacity="1" transform="matrix(0.909870,-9.795807e-2,9.795807e-2,0.909870,9.853481,17.28247)"/><path id="path2199" fill="none" fill-opacity="1" fill-rule="evenodd" stroke="#fdfdfb" stroke-dasharray="none" stroke-dashoffset="0" stroke-linecap="butt" stroke-linejoin="miter" stroke-miterlimit="4" stroke-opacity=".667" stroke-width="1.252" d="M 26.479053,31.831231 L 13.724294,22.898053 L -0.64508456,29.023496 L 3.9094352,14.132496 L -6.356589,2.3592704 L 9.213018,2.0893039 L 17.237645,-11.312392 L 22.305671,3.41176 L 37.531187,6.9022816 L 25.093793,16.272274 L 26.479053,31.831231 z" opacity="1" transform="matrix(0.792129,-8.572711e-2,8.528191e-2,0.796265,11.7369,18.38563)"/></g></svg>