<svg xmlns="http://www.w3.org/2000/svg" xmlns:cc="http://web.resource.org/cc/" xmlns:svg="http://www.w3.org/2000/svg" xmlns:xlink="http://www.w3.org/1999/xlink" id="svg1377" width="48" height="48"><defs id="defs1379"><radialGradient id="radialGradient6719" cx="605.714" cy="486.648" r="117.143" fx="605.714" fy="486.648" gradientTransform="matrix(-2.774389,0,0,1.969706,112.7623,-872.8854)" gradientUnits="userSpaceOnUse" xlink:href="#linearGradient5060"/><linearGradient id="linearGradient5060"><stop id="stop5062" offset="0" stop-color="#000" stop-opacity="1"/><stop id="stop5064" offset="1" stop-color="#000" stop-opacity="0"/></linearGradient><radialGradient id="radialGradient6717" cx="605.714" cy="486.648" r="117.143" fx="605.714" fy="486.648" gradientTransform="matrix(2.774389,0,0,1.969706,-1891.633,-872.8854)" gradientUnits="userSpaceOnUse" xlink:href="#linearGradient5060"/><linearGradient id="linearGradient5048"><stop id="stop5050" offset="0" stop-color="#000" stop-opacity="0"/><stop id="stop5056" offset=".5" stop-color="#000" stop-opacity="1"/><stop id="stop5052" offset="1" stop-color="#000" stop-opacity="0"/></linearGradient><linearGradient id="linearGradient6715" x1="302.857" x2="302.857" y1="366.648" y2="609.505" gradientTransform="matrix(2.774389,0,0,1.969706,-1892.179,-872.8854)" gradientUnits="userSpaceOnUse" xlink:href="#linearGradient5048"/><linearGradient id="aigrd1" x1="4.191" x2="47.32" y1="11.113" y2="56.052" gradientUnits="userSpaceOnUse"><stop id="stop6490" offset="0" stop-color="#D4D4D4"/><stop id="stop6492" offset=".398" stop-color="#E2E2E2"/><stop id="stop6494" offset="1" stop-color="#FFF"/></linearGradient><linearGradient id="linearGradient7451" x1="4.191" x2="47.32" y1="11.113" y2="56.052" gradientUnits="userSpaceOnUse" xlink:href="#aigrd1"/><linearGradient id="linearGradient4126"><stop id="stop4128" offset="0" stop-color="#000" stop-opacity="1"/><stop id="stop4130" offset="1" stop-color="#000" stop-opacity="0"/></linearGradient><radialGradient id="radialGradient7449" cx="23.857" cy="40" r="17.143" fx="23.857" fy="40" gradientTransform="matrix(1,0,0,0.5,2.139286e-14,20)" gradientUnits="userSpaceOnUse" xlink:href="#linearGradient4126"/><linearGradient id="linearGradient5250" x1="8.547" x2="30.851" y1="30.282" y2="48.302" gradientTransform="matrix(0.899009,0,0,0.934235,1.875108,1.193645)" gradientUnits="userSpaceOnUse" xlink:href="#linearGradient6525"/><linearGradient id="linearGradient3922" x1="4.191" x2="47.32" y1="11.113" y2="56.052" gradientUnits="userSpaceOnUse" xlink:href="#aigrd1"/><linearGradient id="linearGradient3924" x1="8.547" x2="30.851" y1="30.282" y2="48.302" gradientTransform="matrix(0.899009,0,0,0.934235,1.875108,1.193645)" gradientUnits="userSpaceOnUse" xlink:href="#linearGradient6525"/><linearGradient id="linearGradient3933" x1="8.547" x2="30.851" y1="30.282" y2="48.302" gradientTransform="matrix(0.899009,0,0,0.934235,1.875108,1.193645)" gradientUnits="userSpaceOnUse" xlink:href="#linearGradient6525"/><linearGradient id="linearGradient3935" x1="4.191" x2="47.32" y1="11.113" y2="56.052" gradientUnits="userSpaceOnUse" xlink:href="#aigrd1"/><linearGradient id="linearGradient3948" x1="8.547" x2="30.851" y1="30.282" y2="48.302" gradientTransform="matrix(0.899009,0,-3.913358e-3,0.934235,2.055271,2.470241)" gradientUnits="userSpaceOnUse" xlink:href="#linearGradient6525"/></defs><metadata id="metadata1382"/><g id="layer1"><g id="g7435" transform="matrix(1.566667,0.000000,0.000000,1.566667,-8.925566,-23.94764)"><g id="g6707" display="inline" transform="matrix(1.444074e-2,0,0,1.331973e-2,33.38871,40.40337)"><rect id="rect6709" width="1339.633" height="478.357" x="-1559.252" y="-150.697" fill="url(#linearGradient6715)" fill-opacity="1" fill-rule="nonzero" stroke="none" stroke-dasharray="none" stroke-dashoffset="0" stroke-linecap="round" stroke-linejoin="miter" stroke-miterlimit="4" stroke-opacity="1" stroke-width="1" marker-end="none" marker-mid="none" marker-start="none" color="#000" display="inline" opacity=".402" overflow="visible" visibility="visible" style="marker:none"/><path id="path6711" fill="url(#radialGradient6717)" fill-opacity="1" fill-rule="nonzero" stroke="none" stroke-dasharray="none" stroke-dashoffset="0" stroke-linecap="round" stroke-linejoin="miter" stroke-miterlimit="4" stroke-opacity="1" stroke-width="1" marker-end="none" marker-mid="none" marker-start="none" d="M -219.61876,-150.68038 C -219.61876,-150.68038 -219.61876,327.65041 -219.61876,327.65041 C -76.744594,328.55086 125.78146,220.48075 125.78138,88.454235 C 125.78138,-43.572302 -33.655436,-150.68036 -219.61876,-150.68038 z" color="#000" display="inline" opacity=".402" overflow="visible" visibility="visible" style="marker:none"/><path stroke-width="1" style="marker:none" id="path6713" fill="url(#radialGradient6719)" fill-opacity="1" fill-rule="nonzero" stroke="none" stroke-dasharray="none" stroke-dashoffset="0" stroke-linecap="round" stroke-linejoin="miter" stroke-miterlimit="4" stroke-opacity="1" marker-end="none" marker-mid="none" marker-start="none" d="M -1559.2523,-150.68038 C -1559.2523,-150.68038 -1559.2523,327.65041 -1559.2523,327.65041 C -1702.1265,328.55086 -1904.6525,220.48075 -1904.6525,88.454235 C -1904.6525,-43.572302 -1745.2157,-150.68036 -1559.2523,-150.68038 z" color="#000" display="inline" opacity=".402" overflow="visible" visibility="visible"/></g><path id="path6485" fill="#edd400" fill-opacity="1" fill-rule="nonzero" stroke="#c4a000" stroke-dasharray="none" stroke-miterlimit="4" stroke-opacity="1" stroke-width=".638" d="M 33.315864,39.92134 L 22.525698,19.671361 C 22.215556,19.108862 21.654365,18.796363 21.029366,18.796363 C 20.404366,18.796363 19.840296,19.171361 19.525441,19.733861 L 8.8156265,39.983841 C 8.563532,40.48384 8.5606522,41.17134 8.8710578,41.671339 C 9.1814624,42.171339 9.6804152,42.421338 10.305415,42.421338 L 31.805393,42.421338 C 32.430392,42.421338 32.9942,42.108839 33.246296,41.608839 C 33.560889,41.108839 33.563507,40.48384 33.315864,39.92134 z"/><g id="g6487" fill="#fce94f" fill-opacity="1" fill-rule="nonzero" stroke="#000" stroke-miterlimit="4" opacity="1" transform="matrix(0.625,0,-2.656787e-3,0.634254,6.096665,15.76055)"><linearGradient id="linearGradient6525" x1="4.191" x2="47.32" y1="11.113" y2="56.052" gradientUnits="userSpaceOnUse"><stop id="stop6529" offset="0" stop-color="#fff" stop-opacity="1"/><stop id="stop6531" offset="1" stop-color="#fff" stop-opacity=".34"/></linearGradient><path id="path6496" fill="#fce94f" fill-opacity="1" stroke="none" d="M 9.5,37.6 C 9.2,38.1 9.5,38.5 10,38.5 L 38.2,38.5 C 38.7,38.5 39,38.1 38.7,37.6 L 24.4,11 C 24.1,10.5 23.7,10.5 23.5,11 L 9.5,37.6 z"/></g><path id="path1325" fill="none" fill-opacity="1" fill-rule="nonzero" stroke="url(#linearGradient3948)" stroke-dasharray="none" stroke-miterlimit="4" stroke-opacity="1" stroke-width=".638" d="M 32.348323,39.460501 L 22.254733,20.542262 C 21.824856,19.727286 21.670669,19.465809 21.017377,19.465809 C 20.455496,19.465809 20.161503,19.846616 19.755459,20.615887 L 9.7739008,39.518892 C 9.1942916,40.580184 9.1321917,40.856824 9.4111756,41.323941 C 9.6901579,41.791058 10.048358,41.765616 11.371874,41.796087 L 30.990026,41.796087 C 32.222195,41.811322 32.499751,41.717433 32.72646,41.250316 C 33.009357,40.783198 32.889028,40.412596 32.348323,39.460501 z" opacity=".5"/><g id="g6498" fill-rule="nonzero" stroke="#000" stroke-miterlimit="4" transform="matrix(0.555088,0,0,0.555052,7.749711,17.80196)"><path id="path6500" stroke="none" d="M 23.9,36.5 C 22.6,36.5 21.6,35.5 21.6,34.2 C 21.6,32.8 22.5,31.9 23.9,31.9 C 25.3,31.9 26.1,32.8 26.2,34.2 C 26.2,35.5 25.3,36.5 23.9,36.5 L 23.9,36.5 z M 22.5,30.6 L 21.9,19.1 L 25.9,19.1 L 25.3,30.6 L 22.4,30.6 L 22.5,30.6 z"/></g></g></g></svg>