<svg xmlns="http://www.w3.org/2000/svg" xmlns:xlink="http://www.w3.org/1999/xlink">
  <symbol viewBox="0 0 16 16" id="arrow">
      <g transform="translate(8.000000, 8.000000) scale(1, -1) translate(-8.000000, -8.000000) ">
          <path d="M7,1 L7,12.4960693 L1.80560132,7.48532007 C1.39439868,7.08487085 0.719604613,7.08487085 0.308401977,7.48532007 C-0.102800659,7.88576929 -0.102800659,8.5326488 0.308401977,8.93309803 L7.25667216,15.6996631 C7.66787479,16.1001123 8.33212521,16.1001123 8.74332784,15.6996631 L15.691598,8.93309803 C16.1028007,8.5326488 16.1028007,7.88576929 15.691598,7.48532007 C15.2803954,7.08487085 14.616145,7.08487085 14.2049423,7.48532007 L9,12.4960693 L9,1 C9,0.435263918 8.58517298,0 8.00527183,0 C7.42537068,0 7,0.435263918 7,1 Z"></path>
      </g>
  </symbol>
</svg>
