<svg xmlns="http://www.w3.org/2000/svg" xmlns:xlink="http://www.w3.org/1999/xlink" id="svg2" width="48" height="48"><defs id="defs4"><linearGradient id="linearGradient7614"><stop id="stop7616" offset="0" style="stop-color:#babdb6;stop-opacity:1"/><stop id="stop7628" offset=".487" style="stop-color:#fff;stop-opacity:1"/><stop id="stop7618" offset="1" style="stop-color:#d3d7cf;stop-opacity:1"/></linearGradient><linearGradient id="linearGradient7604"><stop id="stop7606" offset="0" style="stop-color:#000;stop-opacity:1"/><stop id="stop7608" offset="1" style="stop-color:#000;stop-opacity:0"/></linearGradient><linearGradient id="linearGradient7592"><stop id="stop7594" offset="0" style="stop-color:#fff;stop-opacity:1"/><stop id="stop7596" offset="1" style="stop-color:#fff;stop-opacity:0"/></linearGradient><linearGradient id="linearGradient7582"><stop id="stop7584" offset="0" style="stop-color:#fff;stop-opacity:1"/><stop id="stop7586" offset="1" style="stop-color:#fff;stop-opacity:0"/></linearGradient><linearGradient id="linearGradient7567"><stop id="stop7569" offset="0" style="stop-color:#000;stop-opacity:1"/><stop id="stop7571" offset="1" style="stop-color:#000;stop-opacity:0"/></linearGradient><linearGradient id="linearGradient7557"><stop id="stop7559" offset="0" style="stop-color:#eeeeec;stop-opacity:1"/><stop id="stop7561" offset="1" style="stop-color:#eeeeec;stop-opacity:1"/></linearGradient><linearGradient id="linearGradient7549"><stop id="stop7551" offset="0" style="stop-color:#fff;stop-opacity:1"/><stop id="stop7553" offset="1" style="stop-color:#eeeeec;stop-opacity:1"/></linearGradient><linearGradient id="linearGradient7491"><stop id="stop7493" offset="0" style="stop-color:#eeeeec;stop-opacity:1"/><stop id="stop7495" offset="1" style="stop-color:#babdb6;stop-opacity:1"/></linearGradient><linearGradient id="linearGradient6826"><stop id="stop6828" offset="0" style="stop-color:#babdb6;stop-opacity:1"/><stop id="stop6830" offset="1" style="stop-color:#eeeeec;stop-opacity:1"/></linearGradient><linearGradient id="linearGradient2816"><stop id="stop2818" offset="0" style="stop-color:white;stop-opacity:1"/><stop id="stop2820" offset="1" style="stop-color:white;stop-opacity:0"/></linearGradient><linearGradient id="linearGradient4542"><stop id="stop4544" offset="0" style="stop-color:#888a85;stop-opacity:1"/><stop id="stop4546" offset="1" style="stop-color:#888a85;stop-opacity:0"/></linearGradient><linearGradient id="linearGradient6958"><stop id="stop6960" offset="0" style="stop-color:#000;stop-opacity:1"/><stop id="stop6962" offset="1" style="stop-color:#888a85;stop-opacity:0"/></linearGradient><linearGradient xlink:href="#linearGradient7614" id="linearGradient6789" x1="6.719" x2="44.344" y1="22.936" y2="42.605" gradientTransform="matrix(0 .6737 -.67614 0 37.102 14.816)" gradientUnits="userSpaceOnUse"/><linearGradient xlink:href="#linearGradient6958" id="linearGradient6791" x1="17" x2="17" y1="45.248" y2="30.759" gradientTransform="matrix(0 .625 -.67614 0 37.102 15.875)" gradientUnits="userSpaceOnUse"/><linearGradient xlink:href="#linearGradient4542" id="linearGradient6798" x1="33.12" x2="22.328" y1="20.5" y2="20.5" gradientTransform="matrix(.72727 0 0 1 12.273 -34.844)" gradientUnits="userSpaceOnUse"/><linearGradient xlink:href="#linearGradient2816" id="linearGradient6834" x1="15.406" x2="16.865" y1="37.344" y2="24.25" gradientTransform="matrix(0 .6737 -.67614 0 37.102 14.816)" gradientUnits="userSpaceOnUse"/><linearGradient xlink:href="#linearGradient6826" id="linearGradient7425" x1="13.819" x2="36.228" y1="30.03" y2="45.195" gradientTransform="matrix(0 .6737 -.67614 0 37.102 14.816)" gradientUnits="userSpaceOnUse"/><linearGradient xlink:href="#linearGradient6958" id="linearGradient7427" x1="17" x2="17" y1="45.248" y2="30.759" gradientTransform="matrix(0 .625 -.67614 0 37.102 15.875)" gradientUnits="userSpaceOnUse"/><linearGradient xlink:href="#linearGradient2816" id="linearGradient7431" x1="15.406" x2="16.865" y1="37.344" y2="24.25" gradientTransform="matrix(0 .6737 -.67614 0 37.102 14.816)" gradientUnits="userSpaceOnUse"/><linearGradient xlink:href="#linearGradient4542" id="linearGradient7433" x1="33.12" x2="22.328" y1="20.5" y2="20.5" gradientTransform="matrix(.72727 0 0 1 12.273 -34.844)" gradientUnits="userSpaceOnUse"/><linearGradient xlink:href="#linearGradient7567" id="linearGradient6195" x1="20.723" x2="22.697" y1="16.83" y2="15.894" gradientTransform="matrix(1.13043 -.23598 .91543 .63736 -15.02 7.538)" gradientUnits="userSpaceOnUse"/><radialGradient xlink:href="#linearGradient7604" id="radialGradient7610" cx="20" cy="46" r="8" fx="20" fy="46" gradientTransform="matrix(1 0 0 .25 0 34.5)" gradientUnits="userSpaceOnUse"/><radialGradient xlink:href="#linearGradient7604" id="radialGradient7612" cx="20" cy="46" r="8" fx="20" fy="46" gradientTransform="matrix(1 0 0 .25 0 34.5)" gradientUnits="userSpaceOnUse"/><radialGradient xlink:href="#linearGradient7557" id="radialGradient6179" cx="17.813" cy="14.729" r="9.5" fx="17.813" fy="14.729" gradientTransform="matrix(1 0 0 .63158 0 2.947)" gradientUnits="userSpaceOnUse"/><radialGradient xlink:href="#linearGradient7491" id="radialGradient6183" cx="23.681" cy="5.341" r="5.055" fx="23.681" fy="5.341" gradientTransform="matrix(-1.59228 -.19078 -1.18029 -1.43457 57.81 15.557)" gradientUnits="userSpaceOnUse"/><radialGradient xlink:href="#linearGradient7592" id="radialGradient6187" cx="11.156" cy="2.063" r=".906" fx="11.156" fy="2.063" gradientTransform="matrix(1 0 0 .62069 0 .782)" gradientUnits="userSpaceOnUse"/><radialGradient xlink:href="#linearGradient7549" id="radialGradient6191" cx="24.091" cy="5.053" r="4.492" fx="24.091" fy="5.053" gradientTransform="matrix(1.63721 -.363 2.15251 1.85009 -36.53 2.087)" gradientUnits="userSpaceOnUse"/><radialGradient xlink:href="#linearGradient7582" id="radialGradient6201" cx="11.156" cy="2.063" r=".906" fx="11.156" fy="2.063" gradientTransform="matrix(1 0 0 .62069 0 .782)" gradientUnits="userSpaceOnUse"/></defs><g id="layer1"><path id="path7600" d="M28 46a8 2 0 1 1-16 0 8 2 0 1 1 16 0" style="opacity:.16289593;fill:url(#radialGradient7612);fill-opacity:1;fill-rule:evenodd;stroke:none;stroke-width:1;stroke-linecap:round;stroke-linejoin:miter;marker:none;marker-start:none;marker-mid:none;marker-end:none;stroke-miterlimit:4;stroke-dasharray:none;stroke-dashoffset:.67741673999999996;stroke-opacity:1;visibility:visible;display:inline;overflow:visible" transform="matrix(1.1875 0 0 1.75 9.75 -37.5)"/><path id="path7602" d="M28 46a8 2 0 1 1-16 0 8 2 0 1 1 16 0" style="opacity:.16289593;fill:url(#radialGradient7610);fill-opacity:1;fill-rule:evenodd;stroke:none;stroke-width:1;stroke-linecap:round;stroke-linejoin:miter;marker:none;marker-start:none;marker-mid:none;marker-end:none;stroke-miterlimit:4;stroke-dasharray:none;stroke-dashoffset:.67741673999999996;stroke-opacity:1;visibility:visible;display:inline;overflow:visible" transform="matrix(1.25 0 0 1.75 -8 -37.5)"/><path id="use6159" d="M24.281 13.418c-2.496.52-8.007-1.484-12.303-4.474-4.295-2.99-5.755-5.84-3.26-6.362" style="fill:none;fill-opacity:1;fill-rule:evenodd;stroke:#babdb6;stroke-width:3;stroke-linecap:round;stroke-linejoin:miter;stroke-miterlimit:4;stroke-dashoffset:.69999992;stroke-opacity:1"/><path id="use6161" d="M21.022 7.056c4.295 2.99 5.755 5.84 3.26 6.362-2.497.52-8.008-1.484-12.304-4.474-4.295-2.99-5.755-5.84-3.26-6.362 2.497-.52 8.009 1.484 12.304 4.474z" style="fill:none;fill-opacity:1;fill-rule:evenodd;stroke:url(#radialGradient6179);stroke-width:1;stroke-linecap:round;stroke-linejoin:miter;stroke-miterlimit:4;stroke-dashoffset:.69999992;stroke-opacity:1"/><path id="use6173" d="M12.063 2.063a.906.563 0 1 1-1.813 0 .906.563 0 1 1 1.813 0" style="fill:url(#radialGradient6201);fill-opacity:1;fill-rule:evenodd;stroke:none;stroke-width:1;stroke-linecap:round;stroke-linejoin:miter;marker:none;marker-start:none;marker-mid:none;marker-end:none;stroke-miterlimit:4;stroke-dasharray:none;stroke-dashoffset:.67741674;stroke-opacity:1;visibility:visible;display:inline;overflow:visible" transform="matrix(1.10345 0 0 1.77778 2.637 7.01)"/><g id="g7413" transform="rotate(15 70.27 49.102)scale(1.26558)"><path id="path7415" d="M13.438 16.5c-3.92 0-7.094 3.158-7.094 7.063 0 2.818 1.604 5.3 4 6.437v1.5l1.5 1.5-1.5 1.5v1l2 1v1l-2 1v1l1.5 1.5-1.5 1.5v1l2.5 2h2.5l1-1.5V30c2.372-1.145 4-3.699 4-6.5 0-3.905-2.988-7-6.907-7zm-.094 2a2 2 0 1 1-.002 4.001 2 2 0 0 1 .002-4.001z" style="fill:url(#linearGradient7425);fill-opacity:1;fill-rule:evenodd;stroke:#888a85;stroke-width:.79014969000000002;stroke-linecap:round;stroke-linejoin:miter;stroke-miterlimit:4;stroke-dasharray:none;stroke-opacity:1"/><path id="path7417" d="M18.847 24H8.028c0 2.76 2.424 5 5.41 5 2.985 0 5.409-2.24 5.409-5" style="opacity:.3;fill:url(#linearGradient7427);fill-opacity:1;fill-rule:evenodd;stroke:none;stroke-width:1.0274241;stroke-linecap:round;stroke-linejoin:miter;stroke-miterlimit:4;stroke-dasharray:none;stroke-opacity:1"/><path id="path7419" d="M13.438 17.281c-3.502 0-6.313 2.798-6.313 6.282 0 2.523 1.441 4.743 3.563 5.75a.78.78 0 0 1 .437.687v1.156l1.281 1.282a.777.777 0 0 1 0 1.124l-1.281 1.282v.187l1.563.782a.78.78 0 0 1 .437.687v1a.78.78 0 0 1-.437.688l-1.563.78v.188l1.281 1.282a.777.777 0 0 1 0 1.124l-1.281 1.282v.281l2 1.594h1.781l.656-.969V30a.78.78 0 0 1 .438-.687c2.09-1.01 3.563-3.312 3.563-5.813 0-3.509-2.616-6.219-6.125-6.219zm-.094.438a2.797 2.797 0 0 1 2.781 2.781 2.797 2.797 0 0 1-2.781 2.781 2.797 2.797 0 0 1-2.781-2.781 2.797 2.797 0 0 1 2.78-2.781z" style="opacity:1;fill:none;fill-opacity:1;fill-rule:evenodd;stroke:#fff;stroke-width:.79014969000000002;stroke-linecap:round;stroke-linejoin:miter;stroke-miterlimit:4;stroke-dasharray:none;stroke-opacity:1"/><path id="path7421" d="M13.406 17.625a7 7 0 0 0-.687.063c-.933.12-1.776.46-2.531.937.173.635.424 1.158.718 1.625a2.6 2.6 0 0 1 2.594-2.344 2.59 2.59 0 0 1 2.594 2.594 2.59 2.59 0 0 1-2.594 2.594c-.077 0-.147-.021-.219-.032 1.06 1.27 2.022 2.945 2.281 6.094 2.267-.909 3.876-2.925 3.876-5.593-.086-2.602-1.542-4.612-4-5.625a6 6 0 0 0-2.032-.313m1.969 17.063c-.28 2.585-.855 5.742-1.812 9.687h1.156l.656-1.312z" style="opacity:.6;fill:url(#linearGradient7431);fill-opacity:1;fill-rule:evenodd;stroke:none;stroke-width:1;stroke-linecap:round;stroke-linejoin:miter;stroke-miterlimit:4;stroke-dasharray:none;stroke-opacity:1"/><path id="rect7423" d="M29-14.844h16.312v.981H29z" style="opacity:.61538463;fill:url(#linearGradient7433);fill-opacity:1;fill-rule:evenodd;stroke:none;stroke-width:1;stroke-linecap:round;stroke-linejoin:miter;stroke-miterlimit:4;stroke-dasharray:none;stroke-opacity:1" transform="rotate(90)"/></g><path id="path7441" d="M25.688 8.875a9 9 0 0 0-1.782.281c-4.79 1.284-7.654 6.196-6.375 10.969.923 3.445 3.7 5.957 7 6.563l.188.75.531-1.938c3.275-.623 6.114-3.2 7.031-6.625 1.018-3.8-.444-7.588-3.5-9.625a8.6 8.6 0 0 0-3.093-.375zm-.844 1.5c.168.01.331.049.5.094a2.54 2.54 0 0 1 1.875 2.281c.13.207.246.44.312.688a2.52 2.52 0 0 1-1.781 3.093 2.52 2.52 0 0 1-3.094-1.781 2.5 2.5 0 0 1-.093-.469c-.005-.007.004-.024 0-.031a2.53 2.53 0 0 1-.313-2 2.535 2.535 0 0 1 2.594-1.875z" style="fill:#000;fill-opacity:1;fill-rule:evenodd;stroke:#000;stroke-width:.99999976000000002;stroke-linecap:round;stroke-linejoin:miter;stroke-miterlimit:4;stroke-dasharray:none;stroke-opacity:1;opacity:.15"/><g id="g6765" transform="rotate(-15 -27.847 -11.644)scale(1.26558)"><path id="path6767" d="M13.438 16.5c-3.92 0-7.094 3.158-7.094 7.063 0 2.818 1.604 5.3 4 6.437v1.5l1.5 1.5-1.5 1.5v1l2 1v1l-2 1v1l1.5 1.5-1.5 1.5v1l2.5 2h2.5l1-1.5V30c2.372-1.145 4-3.699 4-6.5 0-3.905-2.988-7-6.907-7zm-.094 2a2 2 0 1 1-.002 4.001 2 2 0 0 1 .002-4.001z" style="fill:url(#linearGradient6789);fill-opacity:1;fill-rule:evenodd;stroke:#888a85;stroke-width:.79014969000000002;stroke-linecap:round;stroke-linejoin:miter;stroke-miterlimit:4;stroke-dasharray:none;stroke-opacity:1"/><path id="path6769" d="M18.847 24H8.028c0 2.76 2.424 5 5.41 5 2.985 0 5.409-2.24 5.409-5" style="opacity:.3;fill:url(#linearGradient6791);fill-opacity:1;fill-rule:evenodd;stroke:none;stroke-width:1.0274241;stroke-linecap:round;stroke-linejoin:miter;stroke-miterlimit:4;stroke-dasharray:none;stroke-opacity:1"/><path id="path6771" d="M13.438 17.281c-3.502 0-6.313 2.798-6.313 6.282 0 2.523 1.441 4.743 3.563 5.75a.78.78 0 0 1 .437.687v1.156l1.281 1.282a.777.777 0 0 1 0 1.124l-1.281 1.282v.187l1.563.782a.78.78 0 0 1 .437.687v1a.78.78 0 0 1-.437.688l-1.563.78v.188l1.281 1.282a.777.777 0 0 1 0 1.124l-1.281 1.282v.281l2 1.594h1.781l.656-.969V30a.78.78 0 0 1 .438-.687c2.09-1.01 3.563-3.312 3.563-5.813 0-3.509-2.616-6.219-6.125-6.219zm-.094.438a2.797 2.797 0 0 1 2.781 2.781 2.797 2.797 0 0 1-2.781 2.781 2.797 2.797 0 0 1-2.781-2.781 2.797 2.797 0 0 1 2.78-2.781z" style="opacity:1;fill:none;fill-opacity:1;fill-rule:evenodd;stroke:#fff;stroke-width:.79014969000000002;stroke-linecap:round;stroke-linejoin:miter;stroke-miterlimit:4;stroke-dasharray:none;stroke-opacity:1"/><path id="path6832" d="M13.406 17.625a7 7 0 0 0-.687.063c-.933.12-1.776.46-2.531.937.173.635.424 1.158.718 1.625a2.6 2.6 0 0 1 2.594-2.344 2.59 2.59 0 0 1 2.594 2.594 2.59 2.59 0 0 1-2.594 2.594c-.077 0-.147-.021-.219-.032 1.06 1.27 2.022 2.945 2.281 6.094 2.267-.909 3.876-2.925 3.876-5.593-.086-2.602-1.542-4.612-4-5.625a6 6 0 0 0-2.032-.313m1.969 17.063c-.28 2.585-.855 5.742-1.812 9.687h1.156l.656-1.312z" style="opacity:.6;fill:url(#linearGradient6834);fill-opacity:1;fill-rule:evenodd;stroke:none;stroke-width:1;stroke-linecap:round;stroke-linejoin:miter;stroke-miterlimit:4;stroke-dasharray:none;stroke-opacity:1"/><path id="rect6776" d="M29-14.844h16.312v.981H29z" style="opacity:.61538463;fill:url(#linearGradient6798);fill-opacity:1;fill-rule:evenodd;stroke:none;stroke-width:1;stroke-linecap:round;stroke-linejoin:miter;stroke-miterlimit:4;stroke-dasharray:none;stroke-opacity:1" transform="rotate(90)"/></g><path id="use6163" d="M7.974 5.144c-1.59-2.594.939-3.42 5.645-1.844 4.707 1.577 9.817 4.962 11.407 7.556q1.185 1.93-.437 2.479" style="fill:none;fill-opacity:1;fill-rule:evenodd;stroke:url(#radialGradient6183);stroke-width:3;stroke-linecap:round;stroke-linejoin:miter;stroke-miterlimit:4;stroke-dashoffset:.69999992;stroke-opacity:1"/><path id="use6165" d="M12.063 2.063a.906.563 0 1 1-1.813 0 .906.563 0 1 1 1.813 0" style="fill:url(#radialGradient6187);fill-opacity:1;fill-rule:evenodd;stroke:none;stroke-width:1;stroke-linecap:round;stroke-linejoin:miter;marker:none;marker-start:none;marker-mid:none;marker-end:none;stroke-miterlimit:4;stroke-dasharray:none;stroke-dashoffset:.67741674;stroke-opacity:1;visibility:visible;display:inline;overflow:visible" transform="matrix(1.5911 0 0 2.56345 -6.229 -2.588)"/><path id="use6167" d="M10.813 8.082c-3.85-3.035-4.427-5.535-1.288-5.58 3.139-.046 8.811 2.38 12.662 5.416 3.791 2.989 4.422 5.46 1.422 5.577" style="fill:none;fill-opacity:1;fill-rule:evenodd;stroke:url(#radialGradient6191);stroke-width:1;stroke-linecap:round;stroke-linejoin:miter;stroke-miterlimit:4;stroke-dashoffset:.69999992;stroke-opacity:1"/><path id="use6169" d="M22.186 7.917c3.792 2.99 4.423 5.462 1.423 5.578" style="opacity:.10407242;fill:none;fill-opacity:1;fill-rule:evenodd;stroke:url(#linearGradient6195);stroke-width:1;stroke-linecap:round;stroke-linejoin:miter;stroke-miterlimit:4;stroke-dashoffset:.69999992;stroke-opacity:1"/><path id="use6171" d="M12.063 2.063a.906.563 0 1 1-1.813 0 .906.563 0 1 1 1.813 0" style="fill:#fff;fill-opacity:1;fill-rule:evenodd;stroke:none;stroke-width:1;stroke-linecap:round;stroke-linejoin:miter;marker:none;marker-start:none;marker-mid:none;marker-end:none;stroke-miterlimit:4;stroke-dasharray:none;stroke-dashoffset:.67741674;stroke-opacity:1;visibility:visible;display:inline;overflow:visible" transform="matrix(1.10345 0 0 1.77778 -.7 -.946)"/></g></svg>