<svg xmlns="http://www.w3.org/2000/svg" xmlns:xlink="http://www.w3.org/1999/xlink" id="svg2108" width="48" height="48"><defs id="defs3"><linearGradient id="linearGradient12512"><stop id="stop12513" offset="0" style="stop-color:#fff;stop-opacity:1"/><stop id="stop12517" offset=".5" style="stop-color:#fff520;stop-opacity:.89108908"/><stop id="stop12514" offset="1" style="stop-color:#fff300;stop-opacity:0"/></linearGradient><linearGradient id="linearGradient4356"><stop id="stop4358" offset="0" style="stop-color:#000;stop-opacity:1"/><stop id="stop4360" offset="1" style="stop-color:#000;stop-opacity:0"/></linearGradient><linearGradient id="linearGradient4344"><stop id="stop4346" offset="0" style="stop-color:#727e0a;stop-opacity:1"/><stop id="stop4348" offset="1" style="stop-color:#5b6508;stop-opacity:1"/></linearGradient><linearGradient id="linearGradient4338"><stop id="stop4340" offset="0" style="stop-color:#e9b15e;stop-opacity:1"/><stop id="stop4342" offset="1" style="stop-color:#966416;stop-opacity:1"/></linearGradient><linearGradient id="linearGradient4163"><stop id="stop4165" offset="0" style="stop-color:#3b74bc;stop-opacity:1"/><stop id="stop4167" offset="1" style="stop-color:#2d5990;stop-opacity:1"/></linearGradient><linearGradient id="linearGradient3824"><stop id="stop3826" offset="0" style="stop-color:#fff;stop-opacity:1"/><stop id="stop3828" offset="1" style="stop-color:#c9c9c9;stop-opacity:1"/></linearGradient><linearGradient id="linearGradient3816"><stop id="stop3818" offset="0" style="stop-color:#000;stop-opacity:1"/><stop id="stop3820" offset="1" style="stop-color:#000;stop-opacity:0"/></linearGradient><linearGradient id="linearGradient3800"><stop id="stop3802" offset="0" style="stop-color:#f4d9b1;stop-opacity:1"/><stop id="stop3804" offset="1" style="stop-color:#df9725;stop-opacity:1"/></linearGradient><linearGradient xlink:href="#linearGradient3824" id="linearGradient3830" x1="30.936" x2="30.936" y1="29.553" y2="35.803" gradientUnits="userSpaceOnUse"/><linearGradient xlink:href="#linearGradient4356" id="linearGradient4362" x1="20.662" x2="22.627" y1="35.818" y2="36.218" gradientTransform="rotate(10.462 17.596 32.707)" gradientUnits="userSpaceOnUse"/><linearGradient xlink:href="#linearGradient4356" id="linearGradient4366" x1="22.687" x2="21.408" y1="36.39" y2="35.74" gradientTransform="rotate(167.873 27.764 .954)scale(1 -1)" gradientUnits="userSpaceOnUse"/><linearGradient xlink:href="#linearGradient4356" id="linearGradient1366" x1="22.687" x2="21.408" y1="36.39" y2="35.74" gradientTransform="rotate(167.873 21.493 -3.339)scale(1 -1)" gradientUnits="userSpaceOnUse"/><linearGradient xlink:href="#linearGradient4356" id="linearGradient1369" x1="20.662" x2="22.627" y1="35.818" y2="36.218" gradientTransform="rotate(10.462 50.12 -43.535)" gradientUnits="userSpaceOnUse"/><linearGradient xlink:href="#linearGradient3824" id="linearGradient1372" x1="30.936" x2="30.936" y1="29.553" y2="35.803" gradientTransform="translate(-12.418 -7)" gradientUnits="userSpaceOnUse"/><radialGradient xlink:href="#linearGradient3816" id="radialGradient3822" cx="31.113" cy="19.009" r="8.662" fx="31.113" fy="19.009" gradientUnits="userSpaceOnUse"/><radialGradient xlink:href="#linearGradient4163" id="radialGradient4169" cx="28.09" cy="27.203" r="13.565" fx="28.09" fy="27.203" gradientTransform="matrix(1.29756 0 0 .88483 -8.359 4.94)" gradientUnits="userSpaceOnUse"/><radialGradient xlink:href="#linearGradient3800" id="radialGradient4171" cx="29.345" cy="17.064" r="9.162" fx="29.345" fy="17.064" gradientTransform="translate(6.221 3.618)scale(.788)" gradientUnits="userSpaceOnUse"/><radialGradient xlink:href="#linearGradient3816" id="radialGradient4179" cx="31.113" cy="19.009" r="8.662" fx="31.113" fy="19.009" gradientUnits="userSpaceOnUse"/><radialGradient xlink:href="#linearGradient4338" id="radialGradient4328" cx="29.345" cy="17.064" r="9.162" fx="29.345" fy="17.064" gradientTransform="translate(6.221 3.618)scale(.788)" gradientUnits="userSpaceOnUse"/><radialGradient xlink:href="#linearGradient3816" id="radialGradient4330" cx="31.113" cy="19.009" r="8.662" fx="31.113" fy="19.009" gradientUnits="userSpaceOnUse"/><radialGradient xlink:href="#linearGradient3816" id="radialGradient4336" cx="31.113" cy="19.009" r="8.662" fx="31.113" fy="19.009" gradientUnits="userSpaceOnUse"/><radialGradient xlink:href="#linearGradient4344" id="radialGradient1381" cx="16.215" cy="19.836" r="13.565" fx="16.215" fy="19.836" gradientTransform="matrix(1 0 0 .68192 0 8.234)" gradientUnits="userSpaceOnUse"/><radialGradient xlink:href="#linearGradient12512" id="radialGradient2580" cx="55" cy="125" r="14.375" fx="55" fy="125" gradientUnits="userSpaceOnUse"/></defs><g id="layer1" style="display:inline"><path id="path4177" d="M39.775 19.009a8.662 8.662 0 1 1-17.324 0 8.662 8.662 0 1 1 17.324 0" style="opacity:1;color:#000;fill:url(#radialGradient4336);fill-opacity:1;fill-rule:evenodd;stroke:none;stroke-width:1px;stroke-linecap:round;stroke-linejoin:round;marker:none;marker-start:none;marker-mid:none;marker-end:none;stroke-miterlimit:4;stroke-dasharray:none;stroke-dashoffset:0;stroke-opacity:1;visibility:visible;display:inline;overflow:visible" transform="matrix(1.77551 0 0 .95918 -37.378 11.772)"/><path id="path2329" d="M12.861 34.636h10.607c3.005 0 5.98-1.102 7.07-4.243 1.036-2.982.178-8.662-6.54-13.258H11.447C4.729 21.378 3.89 27.18 5.437 30.57c1.575 3.454 4.242 4.066 7.424 4.066" style="opacity:1;color:#000;fill:url(#radialGradient1381);fill-opacity:1;fill-rule:evenodd;stroke:#404604;stroke-width:1px;stroke-linecap:round;stroke-linejoin:round;marker:none;marker-start:none;marker-mid:none;marker-end:none;stroke-miterlimit:4;stroke-dasharray:none;stroke-dashoffset:0;stroke-opacity:1;visibility:visible;display:inline;overflow:visible"/><path id="path3812" d="M17.932 19.787s-2.151 1.66-1.966 3.66c-2.04-1.8-2.1-5.251-2.1-5.251z" style="opacity:1;color:#000;fill:#9db029;fill-opacity:1;fill-rule:evenodd;stroke:none;stroke-width:1px;stroke-linecap:round;stroke-linejoin:round;marker:none;marker-start:none;marker-mid:none;marker-end:none;stroke-miterlimit:4;stroke-dasharray:none;stroke-dashoffset:0;stroke-opacity:1;visibility:visible;display:inline;overflow:visible"/><path id="path3838" d="M12.967 33.572h10.316c2.64 0 5.253-.968 6.211-3.727.91-2.62-.094-7.608-5.995-11.646H11.974C6.074 21.926 5.086 27.023 6.445 30c1.384 3.034 3.727 3.572 6.522 3.572" style="opacity:.21518983;color:#000;fill:none;fill-opacity:1;fill-rule:evenodd;stroke:#fff;stroke-width:.99999976px;stroke-linecap:round;stroke-linejoin:round;marker:none;marker-start:none;marker-mid:none;marker-end:none;stroke-miterlimit:4;stroke-dasharray:none;stroke-dashoffset:0;stroke-opacity:1;visibility:visible;display:inline;overflow:visible"/><path id="path3810" d="M18.91 19.787s2.152 1.66 1.967 3.66c2.041-1.8 2.1-5.251 2.1-5.251z" style="opacity:1;color:#000;fill:#9db029;fill-opacity:1;fill-rule:evenodd;stroke:none;stroke-width:1px;stroke-linecap:round;stroke-linejoin:round;marker:none;marker-start:none;marker-mid:none;marker-end:none;stroke-miterlimit:4;stroke-dasharray:none;stroke-dashoffset:0;stroke-opacity:1;visibility:visible;display:inline;overflow:visible"/><path id="path3814" d="M39.775 19.009a8.662 8.662 0 1 1-17.324 0 8.662 8.662 0 1 1 17.324 0" style="opacity:1;color:#000;fill:url(#radialGradient4330);fill-opacity:1;fill-rule:evenodd;stroke:none;stroke-width:1px;stroke-linecap:round;stroke-linejoin:round;marker:none;marker-start:none;marker-mid:none;marker-end:none;stroke-miterlimit:4;stroke-dasharray:none;stroke-dashoffset:0;stroke-opacity:1;visibility:visible;display:inline;overflow:visible" transform="translate(-13.25 -3.5)"/><path id="path2327" d="M39.775 19.009a8.662 8.662 0 1 1-17.324 0 8.662 8.662 0 1 1 17.324 0" style="opacity:1;color:#000;fill:url(#radialGradient4328);fill-opacity:1;fill-rule:evenodd;stroke:#6f4709;stroke-width:1px;stroke-linecap:round;stroke-linejoin:round;marker:none;marker-start:none;marker-mid:none;marker-end:none;stroke-miterlimit:4;stroke-dasharray:none;stroke-dashoffset:0;stroke-opacity:1;visibility:visible;display:inline;overflow:visible" transform="translate(-13.125 -7)"/><path id="path3834" d="M39.775 19.009a8.662 8.662 0 1 1-17.324 0 8.662 8.662 0 1 1 17.324 0" style="opacity:.12658228;color:#000;fill:none;fill-opacity:1;fill-rule:evenodd;stroke:#fff;stroke-width:1.1401283px;stroke-linecap:round;stroke-linejoin:round;marker:none;marker-start:none;marker-mid:none;marker-end:none;stroke-miterlimit:4;stroke-dasharray:none;stroke-dashoffset:0;stroke-opacity:1;visibility:visible;display:inline;overflow:visible" transform="translate(-9.301 -4.664)scale(.8771)"/><path id="path4173" d="M22.584 27.035h4.243l-2.475-2.298-.53.707-.531-.53z" style="opacity:1;color:#000;fill:url(#linearGradient1372);fill-opacity:1;fill-rule:evenodd;stroke:none;stroke-width:1px;stroke-linecap:round;stroke-linejoin:round;marker:none;marker-start:none;marker-mid:none;marker-end:none;stroke-miterlimit:4;stroke-dasharray:none;stroke-dashoffset:0;stroke-opacity:1;visibility:visible;display:inline;overflow:visible"/><path id="path4368" d="M8.548 33.602c-1.248-.545-1.806-1.859-1.806-1.859.841-4.069 3.72-7.046 3.72-7.046s-2.28 6.412-1.914 8.905" style="opacity:.22784807;color:#000;fill:url(#linearGradient1369);fill-opacity:1;fill-rule:evenodd;stroke:none;stroke-width:1px;stroke-linecap:round;stroke-linejoin:round;marker:none;marker-start:none;marker-mid:none;marker-end:none;stroke-miterlimit:4;stroke-dasharray:none;stroke-dashoffset:0;stroke-opacity:1;visibility:visible;display:inline;overflow:visible"/><path id="path4370" d="M27.454 32.743c1.23-.58 1.804-2.002 1.804-2.002-.96-4.043-3.976-6.843-3.976-6.843s2.464 6.343 2.172 8.845" style="opacity:.22784807;color:#000;fill:url(#linearGradient1366);fill-opacity:1;fill-rule:evenodd;stroke:none;stroke-width:1px;stroke-linecap:round;stroke-linejoin:round;marker:none;marker-start:none;marker-mid:none;marker-end:none;stroke-miterlimit:4;stroke-dasharray:none;stroke-dashoffset:0;stroke-opacity:1;visibility:visible;display:inline;overflow:visible"/></g><g id="layer2" style="display:inline"><path id="path4306" d="M39.775 19.009a8.662 8.662 0 1 1-17.324 0 8.662 8.662 0 1 1 17.324 0" style="opacity:1;color:#000;fill:url(#radialGradient4179);fill-opacity:1;fill-rule:evenodd;stroke:none;stroke-width:1px;stroke-linecap:round;stroke-linejoin:round;marker:none;marker-start:none;marker-mid:none;marker-end:none;stroke-miterlimit:4;stroke-dasharray:none;stroke-dashoffset:0;stroke-opacity:1;visibility:visible;display:inline;overflow:visible" transform="matrix(1.77551 0 0 .95918 -24.253 18.772)"/><path id="path4308" d="M25.986 41.636h10.607c3.005 0 5.98-1.102 7.07-4.243 1.036-2.982.178-8.662-6.54-13.258H24.572c-6.718 4.243-7.557 10.045-6.01 13.435 1.575 3.454 4.242 4.066 7.424 4.066" style="opacity:1;color:#000;fill:url(#radialGradient4169);fill-opacity:1;fill-rule:evenodd;stroke:#204a87;stroke-width:1px;stroke-linecap:round;stroke-linejoin:round;marker:none;marker-start:none;marker-mid:none;marker-end:none;stroke-miterlimit:4;stroke-dasharray:none;stroke-dashoffset:0;stroke-opacity:1;visibility:visible;display:inline;overflow:visible"/><path id="path4310" d="M26.693 25.726c3.182 2.829 4.596 13.082 4.596 13.082s1.415-10.253 3.89-13.259z" style="opacity:1;color:#000;fill:url(#linearGradient3830);fill-opacity:1;fill-rule:evenodd;stroke:none;stroke-width:1px;stroke-linecap:round;stroke-linejoin:round;marker:none;marker-start:none;marker-mid:none;marker-end:none;stroke-miterlimit:4;stroke-dasharray:none;stroke-dashoffset:0;stroke-opacity:1;visibility:visible;display:inline;overflow:visible"/><path id="path4312" d="M28.973 26.787s-2.152 1.66-1.966 3.66c-2.041-1.8-2.1-5.251-2.1-5.251z" style="opacity:1;color:#000;fill:#729fcf;fill-opacity:1;fill-rule:evenodd;stroke:none;stroke-width:1px;stroke-linecap:round;stroke-linejoin:round;marker:none;marker-start:none;marker-mid:none;marker-end:none;stroke-miterlimit:4;stroke-dasharray:none;stroke-dashoffset:0;stroke-opacity:1;visibility:visible;display:inline;overflow:visible"/><path id="path4314" d="m25.915 40.594 10.493-.022c2.64 0 5.253-.968 6.211-3.727.91-2.62-.094-7.608-5.995-11.646L25.1 24.956C19.2 28.683 18.057 33.78 19.437 37c1.381 3.221 3.396 3.572 6.478 3.594" style="opacity:.21518983;color:#000;fill:none;fill-opacity:1;fill-rule:evenodd;stroke:#fff;stroke-width:.99999976px;stroke-linecap:round;stroke-linejoin:round;marker:none;marker-start:none;marker-mid:none;marker-end:none;stroke-miterlimit:4;stroke-dasharray:none;stroke-dashoffset:0;stroke-opacity:1;visibility:visible;display:inline;overflow:visible"/><path id="path4316" d="M33.41 26.787s2.152 1.66 1.967 3.66c2.041-1.8 2.1-5.251 2.1-5.251z" style="opacity:1;color:#000;fill:#729fcf;fill-opacity:1;fill-rule:evenodd;stroke:none;stroke-width:1px;stroke-linecap:round;stroke-linejoin:round;marker:none;marker-start:none;marker-mid:none;marker-end:none;stroke-miterlimit:4;stroke-dasharray:none;stroke-dashoffset:0;stroke-opacity:1;visibility:visible;display:inline;overflow:visible"/><path id="path4318" d="M39.775 19.009a8.662 8.662 0 1 1-17.324 0 8.662 8.662 0 1 1 17.324 0" style="opacity:1;color:#000;fill:url(#radialGradient3822);fill-opacity:1;fill-rule:evenodd;stroke:none;stroke-width:1px;stroke-linecap:round;stroke-linejoin:round;marker:none;marker-start:none;marker-mid:none;marker-end:none;stroke-miterlimit:4;stroke-dasharray:none;stroke-dashoffset:0;stroke-opacity:1;visibility:visible;display:inline;overflow:visible" transform="translate(-.125 3.5)"/><path id="path4320" d="M39.775 19.009a8.662 8.662 0 1 1-17.324 0 8.662 8.662 0 1 1 17.324 0" style="opacity:1;color:#000;fill:url(#radialGradient4171);fill-opacity:1;fill-rule:evenodd;stroke:#c17d11;stroke-width:1px;stroke-linecap:round;stroke-linejoin:round;marker:none;marker-start:none;marker-mid:none;marker-end:none;stroke-miterlimit:4;stroke-dasharray:none;stroke-dashoffset:0;stroke-opacity:1;visibility:visible;display:inline;overflow:visible"/><path id="path4322" d="M39.775 19.009a8.662 8.662 0 1 1-17.324 0 8.662 8.662 0 1 1 17.324 0" style="opacity:.19620253;color:#000;fill:none;fill-opacity:1;fill-rule:evenodd;stroke:#fff;stroke-width:1.1401283px;stroke-linecap:round;stroke-linejoin:round;marker:none;marker-start:none;marker-mid:none;marker-end:none;stroke-miterlimit:4;stroke-dasharray:none;stroke-dashoffset:0;stroke-opacity:1;visibility:visible;display:inline;overflow:visible" transform="translate(3.824 2.336)scale(.8771)"/><path id="path4354" d="M21.852 40.775c-1.248-.545-1.806-1.858-1.806-1.858.841-4.07 3.72-7.046 3.72-7.046s-2.28 6.411-1.914 8.904" style="opacity:.22784807;color:#000;fill:url(#linearGradient4362);fill-opacity:1;fill-rule:evenodd;stroke:none;stroke-width:1px;stroke-linecap:round;stroke-linejoin:round;marker:none;marker-start:none;marker-mid:none;marker-end:none;stroke-miterlimit:4;stroke-dasharray:none;stroke-dashoffset:0;stroke-opacity:1;visibility:visible;display:inline;overflow:visible"/><path id="path4364" d="M40.757 39.917c1.232-.581 1.805-2.002 1.805-2.002-.96-4.043-3.976-6.843-3.976-6.843s2.464 6.342 2.171 8.845" style="opacity:.22784807;color:#000;fill:url(#linearGradient4366);fill-opacity:1;fill-rule:evenodd;stroke:none;stroke-width:1px;stroke-linecap:round;stroke-linejoin:round;marker:none;marker-start:none;marker-mid:none;marker-end:none;stroke-miterlimit:4;stroke-dasharray:none;stroke-dashoffset:0;stroke-opacity:1;visibility:visible;display:inline;overflow:visible"/><path id="path12511" d="M69.375 125a14.375 14.375 0 1 1-28.75 0 14.375 14.375 0 1 1 28.75 0" style="fill:url(#radialGradient2580);fill-opacity:1;fill-rule:nonzero;stroke:none;stroke-width:1.25000024;stroke-linecap:butt;stroke-linejoin:round;marker:none;marker-start:none;marker-mid:none;marker-end:none;stroke-miterlimit:4;stroke-dashoffset:0;stroke-opacity:1;visibility:visible;display:block" transform="translate(3.618 -65.11)scale(.61113)"/></g></svg>