<?xml version="1.0" encoding="UTF-8"?>
<svg xmlns="http://www.w3.org/2000/svg" xmlns:xlink="http://www.w3.org/1999/xlink" width="64px" height="64px" viewBox="0 0 64 71" version="1.1">
    <g id="surface1">
        <path style="fill-rule:nonzero;fill:rgb(0%,0%,0%);fill-opacity:1;stroke-width:5;stroke-linecap:butt;stroke-linejoin:miter;stroke:rgb(0%,0%,0%);stroke-opacity:1;stroke-miterlimit:4;" d="M 324.898608 27.663057 C 325.201097 27.895955 325.554001 28.15473 325.85649 28.387627 L 326.814373 29.163953 C 326.990825 29.29334 327.167277 29.422728 327.318521 29.577993 L 328.326819 30.380195 L 329.335116 31.208276 L 330.393828 32.036356 C 330.545073 32.217499 330.746732 32.346886 330.923184 32.502151 L 331.956689 33.381987 L 333.040609 34.313577 L 334.149736 35.245167 L 336.342782 37.211858 C 336.544442 37.367123 336.720894 37.548265 336.922553 37.729408 L 338.056888 38.764508 C 338.23334 38.919773 338.409792 39.100916 338.586244 39.282059 L 339.745786 40.317159 L 340.88012 41.404014 C 341.08178 41.559279 341.258232 41.740422 341.459891 41.921564 L 342.619433 43.034297 C 342.770678 43.21544 342.972337 43.370705 343.173997 43.577725 L 344.308331 44.690458 L 346.627415 46.967679 L 348.921292 49.296654 L 350.055626 50.461142 L 351.189961 51.677385 L 352.324295 52.841873 C 352.47554 53.048893 352.677199 53.255913 352.878859 53.462933 L 353.987986 54.653299 L 355.097113 55.895419 C 355.298772 56.102439 355.450017 56.283582 355.626469 56.490602 L 356.735596 57.732722 L 357.819516 58.948965 C 357.97076 59.130108 358.147212 59.337128 358.348872 59.570026 L 359.382376 60.786268 C 359.558829 60.993289 359.735281 61.200309 359.911733 61.407329 L 360.945237 62.649449 C 361.121689 62.830592 361.298141 63.037612 361.449386 63.244632 L 362.457683 64.486752 C 362.936625 65.107812 363.440773 65.702995 363.919714 66.324055 L 364.85239 67.540298 C 368.935994 72.871065 372.364205 78.046567 374.708496 82.756274 C 398.403483 130.68142 396.613755 210.77231 380.002057 269.074338 L 378.111499 275.543715 L 377.405691 277.898568 L 376.901543 279.502974 C 375.0614 285.506556 372.817938 292.027688 370.019913 297.798373 C 369.868669 298.083025 369.692217 298.367678 369.56618 298.678208 L 369.188068 299.325146 L 368.431845 300.722531 L 367.776452 301.835264 L 367.095851 302.973874 L 364.625523 307.114276 L 363.365151 309.262109 L 362.88621 310.141944 L 362.356854 310.995902 C 362.306439 311.12529 362.230816 311.280555 362.129987 311.409942 L 361.676253 312.315655 C 359.382376 316.585444 357.718686 320.67409 358.298457 323.287719 C 358.525324 324.400452 359.483206 325.87547 360.869615 327.557508 L 361.298141 328.075058 L 361.777083 328.618486 C 361.827498 328.696118 361.90312 328.799628 362.00395 328.877261 L 362.508098 329.420688 C 362.583721 329.498321 362.68455 329.601831 362.760173 329.679464 L 363.844092 330.818074 L 364.398656 331.413257 L 365.583405 332.551867 L 366.51608 333.431702 L 367.171473 334.052763 L 368.129356 334.932598 L 369.162861 335.864188 L 370.145951 336.744024 L 371.179455 337.623859 L 372.616279 338.891857 L 374.027895 340.1081 L 375.94366 341.738383 L 378.439196 343.808583 L 382.144689 346.913885 L 383.253816 347.819597 L 383.959624 348.466535 L 384.58981 349.009963 L 384.942714 349.320493 C 385.018336 349.372248 385.043544 349.424003 385.093958 349.44988 L 386.329123 350.666123 L 387.009723 351.261306 C 387.135761 351.390694 387.23659 351.468326 387.362627 351.597714 L 388.396132 352.503426 L 389.480052 353.460894 L 391.370609 355.091177 L 394.496331 357.756561 L 396.86583 359.826761 L 398.025372 360.861862 L 398.781595 361.586432 L 399.563025 362.259247 L 400.319248 362.983818 L 401.050264 363.708388 L 401.756072 364.407081 C 406.066543 368.754502 409.393924 373.231311 409.898073 377.552855 C 410.503051 382.443704 409.545169 388.188511 408.05793 393.959196 L 407.705026 395.278949 C 407.452952 396.158784 407.200877 397.064497 406.948803 397.944332 L 406.142165 400.583838 L 405.713639 401.877713 L 405.10866 403.792649 L 403.293725 409.356314 L 402.713954 411.090107 L 402.36105 412.228717 C 402.310635 412.40986 402.235013 412.591002 402.184598 412.772145 L 400.168004 419.526175 C 396.840622 430.757013 393.412411 441.936097 389.984201 452.778773 L 233.042721 452.778773 L 225.606528 454.771342 L 220.993568 455.93583 L 217.514942 456.86742 L 215.750422 457.28146 L 213.40613 457.850765 L 211.969307 458.21305 L 210.431653 458.575335 L 208.79317 458.911743 L 207.583213 459.118763 L 206.095975 459.377538 L 205.087677 459.558681 L 204.608736 459.610436 L 204.129795 459.688068 L 203.701268 459.739823 L 203.348364 459.765701 C 203.19712 459.791578 203.045875 459.791578 202.945045 459.791578 C 201.180525 459.739823 198.432915 458.575335 198.004389 457.980153 L 197.878351 457.773133 C 197.827937 457.747255 197.802729 457.6955 197.777522 457.669623 L 197.575862 457.38497 L 197.374203 457.048562 L 197.071714 456.505135 L 196.668395 455.858197 L 196.265076 455.055994 L 195.584475 453.813874 L 195.004704 452.778773 L 35.290407 452.778773 L 35.290407 452.856406 L 17.09064 452.856406 C 16.813358 452.157713 16.536076 451.407266 16.284002 450.656818 L 15.805061 449.155922 C 15.02363 446.775191 14.14137 444.316828 13.233902 441.754955 L 12.528094 439.814142 L 9.956936 432.904847 L 9.225921 430.938156 L 8.520112 428.91971 C 5.999369 421.95866 3.7307 414.971733 2.798025 408.761131 C 1.310787 398.850045 5.671672 393.959196 11.771871 390.310467 L 12.452472 389.922304 L 13.15828 389.508264 C 13.284317 389.456509 13.385147 389.404754 13.536392 389.327122 L 14.2422 388.938959 L 14.973215 388.550796 L 16.082342 388.007369 L 17.544374 387.308676 L 20.216362 386.040678 L 21.350696 385.49725 L 22.863142 384.746803 L 23.594158 384.35864 C 23.720195 384.281007 23.871439 384.229252 23.972269 384.177497 L 24.703285 383.763457 C 26.064486 383.013009 27.375273 382.236684 28.585229 381.382726 C 35.895385 376.103715 42.499733 371.833926 49.129287 367.797034 L 51.145882 366.632546 L 53.137269 365.416303 L 55.128657 364.251815 L 58.178756 362.466267 L 67.606336 356.980235 L 69.799383 355.712238 L 74.286306 353.072732 L 76.60539 351.675346 C 77.008709 351.442449 77.412028 351.209551 77.815347 350.976653 L 78.294288 350.692001 L 79.100926 350.226206 L 80.991483 349.165228 L 85.554029 346.655109 L 88.049565 345.257724 L 89.335144 344.559031 L 90.595515 343.808583 L 91.855887 343.084013 C 91.981924 343.006381 92.133169 342.902871 92.259206 342.825238 L 93.872482 341.841893 L 94.653912 341.376098 L 95.410135 340.910302 L 96.141151 340.41863 L 96.846959 339.926957 C 96.972996 339.875202 97.073826 339.79757 97.199863 339.69406 L 97.855256 339.228264 C 99.846643 337.805001 101.333882 336.485248 101.812823 335.476026 C 103.526929 331.930807 102.190935 327.63514 100.048303 323.520616 L 99.317287 322.200864 L 98.939176 321.502171 C 98.863553 321.424538 98.813139 321.295151 98.737516 321.191641 L 97.956086 319.871888 L 97.3259 318.91442 L 94.981609 315.239814 L 94.452253 314.385856 L 94.099348 313.842428 L 93.796859 313.299 C 93.746444 313.19549 93.69603 313.117858 93.620407 313.040225 L 93.343125 312.522675 C 93.091051 312.108635 92.889392 311.668717 92.687732 311.306432 L 92.61211 311.073535 C 88.301639 301.654121 86.108592 293.476829 85.503614 284.186803 C 70.001042 281.676685 58.304793 272.386659 50.893808 261.9839 C 39.096729 244.671847 30.904313 212.583736 41.088116 188.181245 C 41.314983 187.663695 41.74351 187.042634 42.272866 186.318064 L 44.087801 183.937333 C 45.17172 182.436438 46.15481 180.883787 46.381677 179.486402 C 46.860618 176.924528 46.558129 174.026247 46.028773 171.076211 L 45.827114 170.066989 C 45.801906 169.911724 45.776699 169.756458 45.726284 169.575316 L 45.549832 168.566093 L 45.146513 166.72879 L 44.894439 165.434914 C 44.49112 163.494101 44.188631 161.630921 44.087801 159.87125 C 42.903051 128.171302 49.381362 100.87053 70.782473 91.269974 C 75.773544 71.344292 88.226017 59.078353 103.476514 48.986124 L 104.837715 48.080412 L 106.224124 47.226454 C 107.131592 46.657149 108.064267 46.087843 108.996942 45.492661 L 110.38335 44.638703 C 110.635425 44.509315 110.862292 44.35405 111.089159 44.25054 L 112.525982 43.370705 L 113.937598 42.542625 C 114.21488 42.439115 114.441747 42.28385 114.693821 42.154462 L 116.130645 41.300504 L 118.298484 40.084261 L 119.760516 39.282059 L 122.734993 37.625898 L 128.179798 34.624107 C 131.986121 32.528029 135.792443 30.406073 139.598766 28.15473 C 147.337448 23.574411 155.655901 20.158579 164.30205 16.949768 L 167.831091 15.604138 L 174.990002 12.964632 C 219.405499 -3.415831 288.020133 -0.31053 324.898608 27.663057 Z M 190.593403 409.563334 C 190.870685 415.411651 192.483961 421.3376 194.349311 426.823632 L 194.777837 428.09163 C 194.954289 428.50567 195.105534 428.91971 195.231571 429.33375 L 196.139038 431.766236 L 197.046506 434.095212 L 198.558952 437.899206 L 199.138723 439.425979 L 199.542042 440.435202 C 199.592457 440.590467 199.642872 440.745732 199.718494 440.900997 L 200.046191 441.80671 C 200.096605 441.987852 200.172228 442.11724 200.197435 442.272505 C 200.298265 442.53128 200.399095 442.815933 200.499924 443.074708 L 200.827621 444.161563 L 201.33177 445.765969 L 201.483014 446.283519 L 201.659466 446.775191 C 202.340067 448.741882 203.19712 450.242778 205.012055 450.682695 C 207.154687 451.14849 211.263498 450.32041 215.775629 449.000657 L 216.783926 448.66425 C 216.935171 448.612495 217.111623 448.56074 217.288075 448.534862 L 218.32158 448.198454 C 218.674484 448.069067 219.00218 447.965557 219.355085 447.836169 L 220.363382 447.499762 L 221.926243 446.956334 L 223.413481 446.412906 L 224.446986 446.024744 L 226.362751 445.248418 L 227.295426 444.886133 L 228.202894 444.523848 L 229.085154 444.161563 L 229.942207 443.799278 L 230.723637 443.46287 L 231.857971 442.971198 L 232.841061 442.479525 L 233.471247 442.194872 C 233.546869 442.168995 233.647699 442.091362 233.748529 442.065485 L 234.277885 441.780832 C 234.353507 441.754955 234.42913 441.729077 234.479545 441.677322 C 240.277254 438.546144 245.394363 434.43162 250.284605 430.291218 L 252.023918 428.867955 L 253.712816 427.392937 C 257.141027 424.520534 260.493616 421.75164 264.022656 419.370909 C 264.299938 416.187976 264.299938 412.953287 264.602427 409.873864 C 259.006377 407.079093 252.502859 405.060647 244.007954 404.672484 C 246.226208 403.533874 248.872989 402.861059 251.519769 402.265876 L 254.216965 401.644816 C 257.569553 400.894368 260.84652 400.066288 263.392471 398.461882 L 263.69496 394.761398 C 258.653473 394.502623 255.300884 393.131115 252.275992 391.371445 L 251.015621 390.620997 C 250.939998 390.569242 250.813961 390.517487 250.738339 390.413977 L 250.108153 390.051692 L 248.898196 389.249489 C 247.536995 388.395531 246.150586 387.489818 244.587725 386.661738 L 243.503806 386.454718 C 233.294795 380.865176 217.993883 374.861594 204.684358 372.273843 C 193.618295 370.151888 190.845477 381.227461 190.366536 393.260503 L 190.341329 394.321481 C 190.341329 394.502623 190.341329 394.683766 190.341329 394.839031 L 190.316121 395.900009 L 190.316121 399.652248 L 190.341329 401.230776 L 190.366536 402.265876 L 190.416951 404.284322 Z M 347.383638 338.788347 C 345.316629 341.893648 342.216114 344.481399 339.039978 346.939762 L 337.577947 348.078372 L 335.586559 349.579268 L 334.653884 350.303838 C 332.309593 352.167019 330.217376 353.978444 328.90659 355.867503 C 356.10541 342.980503 360.995652 405.060647 350.307701 425.089839 C 351.139546 428.039875 352.878859 430.110076 354.719001 432.050889 L 356.029788 433.422397 C 357.542234 435.026802 359.05468 436.70884 359.987355 438.882551 L 358.399287 441.987852 L 382.598423 441.987852 C 382.800082 441.987852 383.203401 441.987852 383.40506 442.194872 L 383.40506 441.573812 L 384.161283 439.089571 C 384.665432 437.459288 385.144373 435.803128 385.623315 434.172845 L 386.329123 431.740359 C 388.572584 424.054739 390.463142 416.627894 391.874758 409.822109 L 392.25287 408.062438 L 393.412411 402.602284 L 393.765316 401.049633 L 393.941768 399.988655 L 394.269464 398.358372 L 394.471124 397.297394 L 394.647576 396.184661 C 394.697991 396.029396 394.723198 395.848254 394.748405 395.692989 L 394.924857 394.606133 C 395.403799 391.500832 395.68108 388.628429 395.403799 386.791126 C 394.824028 382.417827 391.547061 378.587955 387.665117 375.223879 L 386.959309 374.602819 C 386.808064 374.499309 386.707234 374.395799 386.581197 374.292289 L 385.850181 373.722984 L 385.119166 373.127801 L 383.279023 371.678661 L 380.052472 369.220297 L 379.371871 368.67687 L 378.086292 367.641769 C 377.556936 367.201852 377.052787 366.787811 376.599053 366.373771 C 373.548954 363.579 370.776136 360.913617 368.179771 358.325866 L 365.558198 355.738115 L 363.037454 353.202119 L 361.348556 351.494204 C 357.113707 347.302047 352.752822 343.135768 347.383638 338.788347 Z M 319.000068 430.886401 L 318.420297 440.978629 L 350.307701 440.978629 L 350.131248 440.719854 C 349.904382 440.383447 349.652307 440.021162 349.400233 439.684754 L 348.996914 439.167204 C 348.870877 439.011939 348.719632 438.830796 348.593595 438.649654 L 348.165069 438.157981 L 347.736542 437.640431 L 347.308016 437.174636 C 347.232394 437.071126 347.131564 436.993493 347.081149 436.941738 L 346.602208 436.450065 C 346.526586 436.346555 346.450963 436.268923 346.375341 436.19129 L 345.417458 435.2597 C 344.81248 434.74215 344.232709 434.2246 343.602523 433.758804 L 343.022752 433.318887 C 336.746101 428.660935 328.352026 426.487224 319.000068 430.886401 Z M 256.082315 437.355778 L 250.511472 440.978629 L 258.67868 440.978629 L 257.01499 438.675531 C 256.712501 438.261491 256.410011 437.821573 256.082315 437.355778 Z M 31.307632 440.668099 L 190.82027 440.668099 L 188.526394 433.189499 L 187.820585 430.886401 L 187.139985 428.635058 L 186.711458 427.16004 L 186.131687 425.038084 L 185.728369 423.640698 L 185.350257 422.295068 L 185.02256 420.975315 L 184.34196 418.387564 L 184.03947 417.145444 L 183.4597 414.738835 L 182.955551 412.435737 L 182.728684 411.323004 L 182.501817 410.236149 L 182.300158 409.175171 C 182.249743 408.838763 182.199328 408.476478 182.098498 408.140071 L 181.922046 407.10497 C 181.896839 406.949705 181.871631 406.79444 181.846424 406.613298 L 181.569142 404.672484 L 181.443105 403.740894 C 181.417897 403.585629 181.417897 403.430364 181.39269 403.275099 L 177.636782 401.489551 L 170.049345 397.8667 L 167.503394 396.650457 L 164.982651 395.434214 C 164.554125 395.227194 164.125598 395.020174 163.697072 394.813154 L 161.176328 393.596911 C 151.14377 388.628429 141.338078 383.375295 132.767551 377.345835 L 131.608009 376.491877 L 131.431557 376.36249 C 131.40635 376.336612 131.381142 376.310735 131.330727 376.284857 L 131.129068 376.077837 L 130.876994 375.844939 L 129.818281 374.783962 L 129.314133 374.214656 L 128.759569 373.567719 L 127.927724 372.636128 L 126.59173 371.083478 L 120.138627 363.47549 L 118.096825 361.120637 L 116.861661 359.671496 L 115.651704 358.325866 L 114.945896 357.549541 L 114.265295 356.799093 L 113.584694 356.1004 L 112.954509 355.427585 L 111.971419 354.418362 L 111.240403 353.745547 L 110.887499 353.435017 L 110.58501 353.124487 L 110.257313 352.917467 L 109.980031 352.684569 C 109.324638 352.192896 108.845697 351.959999 108.593623 352.063509 C 85.201125 361.172392 62.993376 375.120369 42.247658 390.077569 L 39.903367 391.785485 L 37.584283 393.493401 C 37.180964 393.778053 36.82806 394.036828 36.424741 394.321481 L 34.105657 396.055274 L 29.517904 399.496983 L 24.980566 402.912814 L 20.518851 406.354522 L 18.300597 408.088316 C 23.090009 418.465197 27.324858 429.463138 31.307632 440.668099 Z M 282.272838 421.829273 L 280.48311 422.657353 L 279.348776 423.174903 C 276.525543 424.417024 273.500651 425.245104 269.895988 423.873596 C 269.467462 424.339391 269.08935 424.831064 268.686031 425.296859 L 267.501282 426.746 C 266.568607 427.858732 265.635932 428.91971 264.602427 429.773668 C 267.501282 433.163622 270.097648 436.760595 272.492354 440.668099 L 287.793266 440.668099 C 288.095755 437.562798 290.389632 435.2597 293.389316 435.2597 C 296.515038 435.2597 298.708085 437.562798 298.708085 440.383447 L 310.858067 440.383447 L 311.160557 434.172845 L 311.387423 430.084198 C 306.421559 430.342973 302.539614 428.065752 299.060989 425.659144 L 297.977069 424.908696 L 296.918357 424.132371 L 296.212549 423.640698 L 295.531948 423.174903 C 293.364109 421.699885 291.271892 420.483642 289.003223 420.173112 C 286.684139 419.88846 284.491092 420.768295 282.272838 421.829273 Z M 293.112034 386.791126 C 293.288486 387.334553 293.515353 387.877981 293.74222 388.395531 L 293.994295 389.042469 L 294.397613 389.999937 C 295.153836 391.63022 295.834437 393.389891 295.985682 395.770621 C 301.279243 394.399113 308.110457 395.278949 312.79904 397.582047 C 312.143646 397.633802 311.513461 397.685557 310.858067 397.711435 L 308.488569 397.918455 L 307.505479 397.97021 L 306.572804 398.07372 C 306.446767 398.099597 306.270315 398.099597 306.11907 398.125475 L 305.186395 398.228985 C 302.136295 398.617147 299.33827 399.238208 297.296468 400.687348 C 296.69149 402.214121 296.666282 404.129057 296.767112 406.199257 L 296.817527 407.156725 L 296.893149 408.657621 C 297.019187 410.676066 297.069601 412.8239 296.69149 414.971733 C 309.698525 418.672217 324.797778 420.690662 341.510306 421.182335 C 344.535198 416.990179 345.745155 409.408069 345.518288 401.411918 L 345.493081 400.868491 L 345.8964 401.670693 L 345.871192 400.997878 L 345.770363 399.548738 L 345.669533 398.410127 L 345.59391 397.193884 L 345.442666 395.925886 L 345.367044 395.097806 L 345.266214 394.217971 L 345.089762 392.898218 L 344.938517 391.552587 L 344.736858 390.181079 L 344.459576 388.343776 L 344.207502 386.946391 L 344.03105 386.0148 C 344.005842 385.859535 343.980635 385.730148 343.93022 385.549005 L 343.778975 384.617415 L 343.577316 383.73758 L 343.375656 382.831867 C 343.300034 382.391949 343.173997 381.926154 343.098375 381.486236 L 342.871508 380.606401 C 342.770678 380.321749 342.720263 380.037096 342.644641 379.752443 L 342.417774 378.924363 C 341.056572 374.214656 339.266845 370.410663 336.998176 369.065032 C 330.923184 365.519813 322.478694 368.935645 314.387108 373.722984 L 313.404018 374.318166 C 313.227566 374.447554 313.051114 374.525187 312.899869 374.628697 L 311.891572 375.249757 L 310.93369 375.844939 L 308.538984 377.423468 L 306.144277 378.976118 L 302.564822 381.382726 L 301.279243 382.236684 L 300.472605 382.780112 L 299.64076 383.297662 L 298.077899 384.281007 C 296.187341 385.419618 294.498443 386.325331 293.112034 386.791126 Z M 269.19018 394.761398 L 269.492669 394.968419 C 269.038936 398.539515 269.240595 400.997878 269.795159 403.611507 L 269.921196 404.284322 C 269.946403 404.439587 269.971611 404.543097 269.971611 404.672484 L 270.248892 405.785217 L 270.727834 407.803663 L 270.929493 408.657621 L 271.105945 409.563334 C 271.15636 409.744476 271.181567 409.899741 271.206775 410.055006 L 271.408434 411.064229 C 271.509264 411.581779 271.584886 412.099329 271.710923 412.668635 C 295.279874 419.966092 291.09544 380.062973 269.19018 394.761398 Z M 145.799794 368.469849 C 140.506233 373.878249 151.34543 380.554646 162.613152 384.850313 L 163.671864 385.29023 C 163.873524 385.341985 164.049976 385.39374 164.226428 385.471373 L 165.28514 385.859535 L 166.36906 386.247698 C 167.074868 386.454718 167.780676 386.687616 168.486484 386.894636 L 169.519989 387.205166 C 169.872893 387.334553 170.225797 387.412186 170.528286 387.515696 L 171.536584 387.774471 C 171.713036 387.852104 171.86428 387.877981 172.015525 387.929736 L 172.998615 388.188511 C 173.780045 388.395531 174.536268 388.550796 175.292491 388.706061 L 176.124336 388.887204 C 177.535953 389.145979 178.796324 389.301244 179.804622 389.352999 C 179.804622 387.205166 180.283563 385.109088 180.863334 383.116519 L 181.140616 382.107297 L 181.569142 380.632279 C 182.148913 378.562078 182.602647 376.67302 182.426195 374.990982 C 180.283563 374.602819 178.090516 374.318166 175.821847 374.111146 L 173.326311 373.878249 L 172.091147 373.800616 L 164.50371 373.231311 L 163.243338 373.153679 C 156.437331 372.506741 150.085058 371.47164 145.799794 368.469849 Z M 302.312748 368.185197 C 298.279558 368.521604 294.044709 369.40144 289.658616 370.410663 L 287.541192 370.928213 L 284.566714 371.626906 C 283.53321 371.885681 282.55012 372.118578 281.56703 372.351476 L 280.331866 372.636128 L 279.247946 372.869026 L 278.113612 373.127801 L 276.979277 373.334821 L 275.87015 373.567719 L 274.735815 373.774739 C 274.559363 373.826494 274.382911 373.852371 274.181252 373.878249 L 273.072125 374.085269 C 265.056161 375.430899 257.166234 375.663797 250.082946 372.558496 C 250.082946 372.920781 249.881286 373.050169 249.629212 373.179556 L 249.326723 373.283066 C 249.125063 373.412454 248.923404 373.515964 248.898196 373.774739 C 258.426606 381.201584 265.812384 383.504682 277.458218 383.504682 L 278.567345 383.504682 C 278.945457 383.504682 279.323568 383.478805 279.726887 383.478805 L 280.886429 383.452927 L 282.096386 383.401172 C 282.298045 383.401172 282.499705 383.401172 282.701364 383.375295 C 285.045656 381.641501 287.289117 379.830076 289.507371 377.992773 L 291.750833 376.15547 C 295.128629 373.412454 298.531633 370.669438 302.312748 368.185197 Z M 200.298265 26.472692 L 198.735404 27.274894 C 198.458122 27.378404 198.206048 27.533669 197.953974 27.663057 L 196.340698 28.46526 L 194.727422 29.345095 L 191.450456 31.053011 L 188.097867 32.890314 C 187.820585 33.045579 187.543304 33.174966 187.266022 33.356109 L 185.577124 34.313577 C 162.386285 47.407596 136.80074 65.884138 127.121086 88.164673 C 131.809669 99.059104 132.061743 109.617128 130.675334 120.123396 L 130.498882 121.365517 L 130.120771 123.901513 L 129.667037 126.437509 C 129.616622 126.618651 129.566207 126.825671 129.541 127.058569 L 129.314133 128.326567 L 129.062058 129.594565 L 128.809984 130.78493 C 128.55791 132.001173 128.305835 133.191538 128.053761 134.407781 L 126.768182 140.178466 L 126.440485 141.731116 C 124.751587 149.390859 123.239141 157.179989 122.886237 165.176139 C 122.734993 171.542007 124.045779 177.519711 125.60864 183.575048 L 126.969842 188.828183 C 127.045464 189.138713 127.146294 189.423365 127.221916 189.733895 L 127.650442 191.493566 C 128.910814 196.513803 129.994734 201.689304 130.196393 207.278846 C 127.448783 211.859165 120.491531 213.541204 113.761146 213.955244 L 112.929301 213.981121 C 112.652019 214.006999 112.374738 214.006999 112.072248 214.006999 L 111.265611 214.032876 C 110.988329 214.032876 110.68584 214.032876 110.433765 214.032876 L 108.039059 214.032876 L 107.232421 214.006999 L 106.501406 213.981121 L 106.249331 212.713123 L 106.072879 211.910921 L 105.921635 211.08284 L 105.114997 207.770519 C 105.089789 207.615254 105.039375 207.459989 105.014167 207.330601 L 104.560433 205.674441 C 104.484811 205.415666 104.409189 205.105136 104.333566 204.846361 L 104.081492 204.01828 C 104.031077 203.888893 103.980662 203.759505 103.955455 203.630118 L 103.703381 202.827915 L 103.148817 201.223509 C 99.871851 192.062871 94.527875 184.429006 84.797806 183.393906 C 64.909141 181.27195 50.213207 197.755923 49.381362 214.964467 C 48.32265 235.252434 65.085593 268.763808 88.503298 266.460709 C 91.679435 266.150179 94.023726 264.856304 96.141151 263.277776 L 96.695714 262.889613 L 97.22507 262.449695 C 97.3259 262.372063 97.42673 262.29443 97.502352 262.216798 L 99.317287 260.74178 L 99.821436 260.353617 L 100.350792 259.9137 C 102.871535 257.998764 105.719975 256.368481 109.904409 256.368481 C 112.198286 260.897045 111.063951 264.105856 108.845697 266.900627 L 108.568415 267.262912 L 108.240719 267.651075 L 107.913022 268.01336 L 107.585325 268.401522 L 106.526613 269.4625 L 105.543523 270.394091 L 104.68647 271.222171 L 104.182322 271.739721 C 102.266557 273.654657 100.552451 275.621347 100.098718 277.976201 C 100.048303 278.234976 100.048303 278.571383 100.048303 278.985424 L 100.07351 279.425341 C 100.07351 279.502974 100.07351 279.554729 100.098718 279.632361 L 100.199547 280.667462 L 100.249962 281.262644 L 100.426414 282.45301 L 100.552451 283.410478 L 100.728903 284.4197 L 100.905355 285.506556 L 101.081808 286.412269 L 101.333882 287.757899 L 101.611164 289.051775 L 101.863238 290.24214 L 102.03969 290.96671 L 102.090105 291.27724 C 103.174024 295.598784 104.560433 300.256736 106.173709 304.99232 L 106.778687 306.803746 C 111.719344 320.803478 118.600974 335.450148 125.406981 345.257724 C 133.498567 356.695583 146.959336 361.689942 162.663567 364.251815 L 164.049976 364.484713 C 164.276843 364.510591 164.528917 364.562346 164.755784 364.588223 L 166.1674 364.795243 C 166.394267 364.821121 166.621134 364.846998 166.873208 364.872876 L 168.284825 365.079896 C 168.511692 365.105773 168.763766 365.131651 168.990633 365.157528 L 170.452664 365.338671 C 170.679531 365.364548 170.931605 365.390426 171.158472 365.416303 L 172.620503 365.571568 L 174.057327 365.700956 C 174.309401 365.726833 174.561476 365.778589 174.788342 365.804466 L 176.275581 365.907976 L 177.76282 366.063241 L 179.250058 366.166751 L 180.737297 366.296139 L 182.980758 366.451404 L 186.00565 366.684301 C 188.677638 360.835984 195.660097 358.765784 203.171912 358.558764 L 203.928135 358.558764 C 204.054173 358.558764 204.18021 358.558764 204.331454 358.558764 L 205.087677 358.558764 C 205.339752 358.558764 205.591826 358.558764 205.8439 358.558764 L 206.650538 358.584641 L 208.162984 358.688151 L 208.944415 358.765784 L 209.700638 358.817539 C 209.851882 358.817539 209.952712 358.843416 210.103957 358.843416 L 210.834972 358.946926 L 211.591195 359.024559 L 212.322211 359.128069 L 213.103641 359.257456 L 213.834657 359.360966 L 215.246273 359.593864 L 216.657889 359.878516 L 217.33849 360.033782 L 217.993883 360.163169 C 209.423356 356.799093 201.256147 350.148573 193.76954 342.851116 L 192.609998 341.738383 L 191.475663 340.599772 C 191.299211 340.41863 191.097552 340.21161 190.895892 340.00459 L 189.811973 338.865979 L 188.702846 337.753246 L 187.593719 336.588758 L 184.367167 333.14705 L 182.804306 331.465012 C 181.140616 329.653586 179.502132 327.816283 177.863649 325.97898 L 177.057011 325.021512 L 176.225166 324.064044 C 176.073922 323.882902 175.922677 323.701759 175.79664 323.546494 L 174.939587 322.537271 L 173.301104 320.518825 L 172.519673 319.509603 C 165.18431 310.167822 159.512638 300.049716 159.084112 288.689489 L 165.512007 297.591353 L 168.03275 301.058939 L 169.318329 302.792732 L 170.578701 304.47477 C 170.780361 304.759422 170.98202 305.044075 171.208887 305.328728 L 172.469259 307.036643 L 173.72963 308.692804 C 174.385024 309.520884 174.990002 310.348964 175.645395 311.202922 L 176.930974 312.833205 C 192.383131 332.370725 209.448563 348.595923 237.806926 358.196478 C 267.602112 367.978177 302.514407 353.357384 325.201097 337.365084 C 330.620695 333.612845 334.729507 328.566731 338.535829 323.184209 L 339.367674 321.993843 C 339.493712 321.786823 339.644956 321.579803 339.770993 321.346906 L 340.602839 320.15654 L 341.838003 318.319237 L 343.451279 315.834996 L 344.283124 314.644631 C 345.241006 313.19549 346.198889 311.772227 347.207186 310.348964 C 372.490242 274.068697 384.312528 222.080782 381.690955 171.774904 L 381.615333 170.041111 L 381.438881 166.599402 L 381.085977 158.83615 L 380.985147 157.154112 L 380.909525 155.420319 L 380.808695 153.764158 L 380.707865 152.056242 L 380.632243 150.400082 C 380.581828 150.115429 380.55662 149.856654 380.55662 149.572002 L 380.455791 147.941718 L 380.304546 146.285558 C 380.279339 145.74213 380.228924 145.198703 380.178509 144.655275 L 380.027264 143.050869 C 379.044174 132.881008 377.279654 123.642738 373.599369 116.371158 C 366.289213 101.776243 341.787588 88.759856 327.217692 101.776243 C 324.419667 87.388348 338.989563 78.693505 356.20624 83.765496 L 351.870561 78.124199 L 348.593595 73.776778 L 345.820777 70.153927 L 344.686443 68.704786 L 343.577316 67.255646 L 342.417774 65.806505 L 341.283439 64.383242 C 333.191853 54.368646 324.344044 45.052743 313.706507 39.075038 L 314.185449 40.161894 C 284.112981 23.16037 232.588987 10.351004 200.298265 26.472692 Z M 235.790331 282.090725 L 236.09282 282.168357 C 245.192704 305.069953 271.786546 307.709459 299.060989 307.450683 L 303.195008 307.398928 L 306.295522 307.347173 L 311.437838 307.191908 L 317.588452 307.036643 L 319.605047 307.010766 C 319.932743 307.010766 320.285647 306.984888 320.588137 306.984888 C 319.000068 310.685372 315.798724 315.058671 311.790742 316.688954 C 310.858067 317.051239 309.74894 317.439402 308.513776 317.801687 L 307.656723 318.060462 C 307.076952 318.18985 306.497181 318.370992 305.866996 318.526257 L 304.909113 318.733277 L 303.926023 318.940297 C 302.111088 319.354338 300.119701 319.690745 298.027484 320.001275 L 296.893149 320.182418 C 296.313378 320.234173 295.7084 320.311805 295.153836 320.389438 L 293.918672 320.518825 C 292.733923 320.67409 291.523966 320.777601 290.288802 320.855233 L 289.02843 320.958743 C 277.533841 321.709191 264.879709 320.751723 256.712501 316.481934 C 251.519769 313.661286 247.360543 309.003334 243.806295 304.26775 L 243.050072 303.258527 L 242.293849 302.223427 L 241.588041 301.240081 L 240.176424 299.247513 L 238.84043 297.358455 L 238.210245 296.426865 C 238.084207 296.2716 237.983378 296.116335 237.882548 295.986947 L 237.227155 295.107112 C 236.823836 294.537806 236.420517 293.994379 235.991991 293.476829 C 235.765124 293.192176 235.487842 292.881646 235.134938 292.545238 L 234.681204 292.105321 L 234.202263 291.665403 L 233.193965 290.707935 L 232.664609 290.216262 L 232.034423 289.595202 L 231.37903 288.948265 L 230.950504 288.482469 L 230.547185 288.042552 L 230.169073 287.602634 L 229.992621 287.395614 L 229.639717 286.929819 L 229.51368 286.722799 L 229.362436 286.515779 L 229.261606 286.308759 C 229.236398 286.282881 229.211191 286.205249 229.211191 286.179371 L 229.085154 285.998229 C 229.059946 285.946474 229.034739 285.920596 229.034739 285.868841 L 228.858287 285.480678 L 228.807872 285.273658 C 228.454968 284.083293 228.984324 283.125825 230.975711 282.530642 L 231.328615 282.45301 C 231.429445 282.427132 231.58069 282.427132 231.681519 282.401255 L 232.110046 282.323622 C 232.36212 282.271867 232.689817 282.220112 232.992306 282.194235 L 233.496455 282.168357 L 234.000603 282.116602 L 234.580374 282.090725 C 234.681204 282.090725 234.782034 282.090725 234.857656 282.090725 L 235.487842 282.090725 C 235.588672 282.090725 235.689501 282.090725 235.790331 282.090725 Z M 239.193335 265.787894 C 248.041144 270.368213 260.695275 272.800699 274.030007 273.991064 L 275.693698 274.120452 C 275.996187 274.172207 276.248261 274.198084 276.525543 274.198084 L 278.189234 274.327472 C 278.769005 274.35335 279.323568 274.379227 279.878132 274.45686 L 281.56703 274.534492 C 281.844312 274.56037 282.121593 274.56037 282.398875 274.586247 L 284.087773 274.638002 C 284.642337 274.66388 285.222108 274.715635 285.776671 274.741512 L 289.12926 274.845022 C 289.683823 274.845022 290.238387 274.8709 290.79295 274.8709 L 294.120332 274.922655 L 295.758815 274.97441 L 299.010574 274.97441 L 301.430487 274.922655 L 304.606624 274.8709 L 306.925708 274.845022 L 309.219584 274.76739 C 309.975807 278.027956 310.253089 281.780195 310.379126 285.610066 L 310.429541 287.188594 L 310.454748 288.741244 L 310.479956 291.872423 C 281.390578 293.476829 247.007639 286.282881 239.193335 265.787894 Z M 364.398656 254.867585 L 363.592018 256.394358 L 363.037454 257.429459 L 362.482891 258.438682 L 361.90312 259.473782 C 361.80229 259.629047 361.726668 259.81019 361.600631 259.965455 L 360.995652 261.000555 L 360.415881 262.009778 C 360.340259 262.19092 360.214222 262.372063 360.113392 262.527328 L 359.483206 263.536551 C 350.811849 277.588038 338.460207 290.475038 316.807022 290.992588 L 316.680984 289.362305 L 316.580155 287.654389 L 316.504532 286.308759 L 316.403703 283.539865 L 316.378495 282.608275 L 316.353288 281.702562 L 316.353288 279.942891 C 316.353288 279.787626 316.353288 279.632361 316.353288 279.502974 L 316.353288 278.674894 C 316.353288 278.519628 316.378495 278.390241 316.378495 278.234976 L 316.403703 277.458651 C 316.454118 276.061265 316.605362 274.8709 316.807022 274.068697 C 327.016032 273.033597 335.258863 269.87654 342.921923 266.098424 L 344.131879 265.477364 L 345.316629 264.882181 C 345.518288 264.778671 345.719948 264.675161 345.921607 264.571651 L 348.291106 263.303653 L 349.450648 262.682593 L 354.24006 260.094842 C 357.542234 258.283416 360.894822 256.497868 364.398656 254.867585 Z M 305.362847 155.808481 L 305.388054 155.886114 C 308.76585 163.830509 314.361901 172.706494 320.764589 181.453093 L 321.924131 183.005743 C 322.478694 183.782068 323.083673 184.558394 323.638236 185.334719 L 324.848193 186.861492 L 326.032942 188.414142 L 327.217692 189.915038 L 328.427648 191.415933 L 329.612398 192.916829 L 330.847562 194.417724 L 334.477432 198.791023 L 336.922553 201.611672 L 338.107303 203.009057 L 340.476802 205.726196 L 341.636343 207.045949 L 343.400864 208.986762 L 344.535198 210.228882 L 345.644325 211.471003 C 345.845985 211.652145 345.997229 211.859165 346.198889 212.066186 C 346.652623 212.609613 347.156771 213.153041 347.711335 213.670591 L 348.770047 214.705691 L 349.879174 215.689037 L 352.047013 217.552217 L 352.551162 218.018013 L 353.030103 218.432053 C 354.366097 219.648296 355.374395 220.786906 355.651676 221.796129 L 355.676884 221.977271 C 356.508729 225.237838 355.601261 228.834811 354.44172 232.224765 L 354.164438 233.078723 C 354.088815 233.182233 354.063608 233.337498 354.013193 233.492763 L 353.130933 235.925249 L 352.853651 236.727452 C 352.097428 238.92704 351.542865 240.919608 351.744524 242.498136 L 351.769732 242.627524 L 349.349818 244.206052 L 347.610505 245.344662 L 345.266214 246.793803 L 344.106672 247.54425 L 342.921923 248.268821 L 341.737173 249.019268 L 340.527216 249.717961 L 338.107303 251.167102 L 336.872139 251.865794 L 335.636974 252.53861 C 333.771624 253.57371 331.881067 254.582933 329.940094 255.566278 L 328.629308 256.187338 C 315.143331 262.682593 299.691174 266.978259 280.508318 265.089201 C 273.878763 259.266762 271.408434 246.276252 277.911952 237.684919 C 278.390893 238.538877 278.769005 239.470467 279.071494 240.47969 L 279.348776 241.514791 C 279.373983 241.592423 279.399191 241.695933 279.399191 241.773566 L 279.60085 242.575769 L 280.281451 245.862212 L 280.432695 246.40564 L 280.609147 247.207843 L 280.735185 247.725393 L 280.886429 248.268821 L 281.062881 248.786371 C 282.096386 252.228079 283.961736 255.100483 288.599904 255.876808 C 295.683193 257.118929 303.220215 255.643911 310.505163 253.082037 L 311.664705 252.693875 C 313.025907 252.202202 314.361901 251.684652 315.672687 251.141224 L 316.807022 250.675429 L 319.050483 249.692084 L 321.268737 248.734616 L 322.882013 247.95829 L 324.495289 247.207843 L 326.612713 246.19862 L 330.696317 244.206052 L 332.63729 243.300339 L 333.62038 242.834544 L 335.006788 242.213483 L 335.914256 241.773566 C 336.065501 241.721811 336.216745 241.670056 336.342782 241.566546 L 337.25025 241.204261 L 338.964356 240.47969 C 339.241637 240.37618 339.518919 240.27267 339.796201 240.16916 C 343.93022 233.130478 343.426071 228.420771 341.006158 224.306247 L 340.703668 223.840452 C 340.678461 223.736942 340.628046 223.685187 340.577631 223.607555 L 339.947445 222.675964 C 339.897031 222.624209 339.846616 222.546577 339.770993 222.468944 L 339.443297 222.029026 L 339.090393 221.563231 C 339.039978 221.485599 338.989563 221.433844 338.913941 221.330334 L 338.157718 220.450498 L 337.577947 219.751806 L 336.972968 219.104868 L 335.737804 217.707483 L 334.452225 216.335975 L 334.023699 215.844302 L 333.393513 215.145609 L 332.763327 214.395161 L 332.334801 213.877611 L 331.906274 213.385939 L 326.889995 207.434111 L 325.024645 205.208646 L 324.09197 204.044158 L 323.159295 202.931425 L 322.22662 201.766937 L 321.268737 200.602449 L 320.336062 199.437961 C 320.184818 199.230941 320.033573 199.023921 319.882329 198.842779 L 318.949653 197.626536 C 318.798409 197.419516 318.647164 197.212495 318.49592 197.031353 L 317.563245 195.81511 C 316.933059 195.012907 316.353288 194.210704 315.748309 193.382624 L 314.840842 192.140504 L 313.933374 190.872506 C 313.656092 190.458466 313.378811 190.044425 313.051114 189.604508 L 312.219269 188.362387 C 304.05206 176.174081 297.800617 162.562511 298.077899 147.475923 C 301.027168 145.353968 302.665652 147.036006 303.673949 149.494369 L 303.799986 149.830777 L 304.026853 150.503592 L 304.15289 150.891754 L 304.455379 151.97861 L 304.631831 152.70318 L 305.110773 154.876891 L 305.186395 155.239176 L 305.312432 155.653216 Z M 100.199547 230.180442 L 100.199547 229.766402 C 98.485442 228.783056 97.12424 226.738733 95.914284 224.38388 L 95.586587 223.685187 C 95.510965 223.581677 95.46055 223.452289 95.410135 223.348779 L 95.082438 222.624209 L 94.250593 220.812784 L 92.889392 217.94038 C 92.788562 217.707483 92.662525 217.500462 92.561695 217.267565 L 92.183584 216.59475 C 90.5451 213.463571 88.578921 211.031085 85.780896 210.87582 C 81.596462 210.617045 79.479037 214.032876 78.420325 218.949603 L 78.294288 219.674173 L 78.168251 220.424621 C 78.143043 220.528131 78.117836 220.657519 78.117836 220.786906 L 77.991799 221.537354 C 77.966591 221.640864 77.966591 221.796129 77.941384 221.899639 L 77.865761 222.727719 L 77.764932 223.478167 C 77.764932 223.633432 77.739724 223.788697 77.739724 223.892207 L 77.689309 224.720287 L 77.638895 225.52249 L 77.58848 226.35057 L 77.563272 227.204528 L 77.512857 228.058486 L 77.48765 228.886566 L 77.48765 230.180442 L 77.462443 231.86248 L 77.462443 233.156355 L 77.512857 235.666474 L 77.58848 240.453813 L 77.613687 241.928831 C 77.613687 242.032341 77.613687 242.161728 77.613687 242.265238 C 70.580813 236.184024 69.522101 216.69826 74.487965 206.864806 C 71.311829 205.286278 69.14399 206.347256 67.278639 208.029294 L 67.001358 208.313947 L 66.673661 208.572722 L 66.396379 208.857374 L 66.119098 209.167905 L 65.362875 209.94423 C 64.556237 210.77231 63.749599 211.60039 62.892546 212.169696 C 67.001358 182.384683 106.778687 198.480493 100.199547 230.180442 Z M 118.298484 92.279197 C 98.40982 93.780092 81.999781 101.957385 70.001042 114.973772 L 70.001042 115.258425 L 69.900213 115.258425 C 62.413605 123.51335 60.220558 135.934554 59.968484 148.588656 L 59.968484 149.908409 L 59.943276 151.228162 L 59.968484 152.522038 L 59.968484 153.841791 L 60.018899 155.161543 L 60.069314 156.455419 L 60.119728 157.775172 L 60.195351 159.690108 L 60.245766 160.983983 L 60.371803 162.924796 L 60.523047 164.813854 L 60.674292 167.298095 L 61.304478 175.061348 C 84.722183 160.362923 115.601289 176.174081 115.39963 201.171754 C 120.592361 201.042367 121.87794 197.988821 121.550243 193.926052 L 121.499828 193.460257 L 121.398999 192.580421 L 121.298169 192.114626 L 121.247754 191.622954 L 120.99568 190.458466 L 120.819228 189.708018 L 120.239457 187.456675 L 119.659686 185.593494 L 118.92867 183.186886 C 118.424522 181.530725 117.94558 179.874564 117.592676 178.373669 C 115.450044 169.135398 115.828156 159.66423 116.987698 150.218939 L 117.16415 148.588656 L 117.391017 146.958373 L 117.617884 145.353968 C 117.693506 145.069315 117.718713 144.81054 117.769128 144.551765 L 118.500144 139.660916 L 119.382404 134.174884 L 119.710101 132.001173 L 120.037797 129.85334 L 120.264664 128.378322 L 120.466324 126.955059 C 120.516739 126.463386 120.567153 125.971713 120.667983 125.505918 L 120.819228 124.082655 C 122.130014 113.058836 122.281259 102.345548 118.298484 92.279197 Z M 240.983062 136.322717 L 241.00827 136.270962 L 240.882233 136.063942 C 242.167812 138.392918 243.201316 140.747771 244.209614 143.076747 L 244.73897 144.344745 L 245.243119 145.612743 L 246.528698 148.743921 L 247.032846 149.960164 C 249.35193 155.497951 251.822259 160.69933 256.107522 165.098507 L 256.737708 165.69369 L 257.166234 166.133607 L 258.09891 166.987565 L 259.081999 167.919155 L 259.434903 168.229685 L 259.939052 168.721358 L 260.266749 169.031888 L 260.796105 169.549438 L 261.123802 169.911724 L 261.426291 170.274009 L 261.753987 170.662171 C 261.804402 170.713926 261.854817 170.791559 261.905232 170.843314 L 262.232929 171.231476 C 264.400768 174.129757 265.736762 177.959629 263.820997 183.471538 C 263.568923 184.066721 262.989152 184.843046 262.207721 185.722881 L 261.779195 186.136922 C 261.401083 186.525084 261.048179 186.861492 260.619653 187.223777 L 260.115504 187.689572 L 259.586148 188.12949 C 259.409696 188.258877 259.233244 188.414142 259.056792 188.54353 L 258.502228 188.983448 C 256.737708 190.303201 254.897565 191.415933 253.511157 191.881729 C 240.80661 195.582212 211.187876 192.476911 221.195227 176.795141 C 223.791593 176.821018 226.614825 177.235059 229.51368 177.752609 L 233.521662 178.503056 L 234.378715 178.658322 L 235.160145 178.761832 L 235.966783 178.917097 L 237.504437 179.124117 L 238.26066 179.227627 L 239.04209 179.305259 C 239.168127 179.331137 239.294164 179.331137 239.420201 179.357014 L 240.176424 179.434647 C 245.343948 179.848687 250.133361 179.305259 253.712816 175.863551 L 252.502859 173.845105 L 251.645807 172.395964 L 250.738339 170.843314 L 249.377138 168.359073 L 248.898196 167.505115 L 248.444463 166.651157 L 247.536995 164.865609 L 246.856394 163.519979 C 246.780772 163.338836 246.679942 163.209449 246.629527 163.054184 L 246.175794 162.148471 C 246.100171 161.967328 246.049756 161.837941 245.948927 161.656798 L 245.5204 160.725208 L 245.117081 159.793618 C 245.016252 159.612475 244.965837 159.483087 244.890214 159.301945 L 244.486896 158.344477 C 244.386066 158.21509 244.335651 158.033947 244.285236 157.904559 L 243.881917 156.921214 C 243.806295 156.765949 243.75588 156.610684 243.680258 156.455419 L 243.327354 155.472074 L 242.949242 154.540483 C 240.579743 147.967596 239.319372 141.420586 240.983062 136.322717 Z M 358.399287 135.882799 C 359.357169 137.823612 360.264637 139.816181 361.197312 141.782871 L 362.306439 144.163602 L 364.499485 148.925064 L 365.558198 151.279917 C 369.036823 158.810272 372.691901 166.133607 377.204032 172.680617 C 372.187753 184.480761 338.712281 194.98703 339.292052 173.767472 C 341.96404 172.628862 345.266214 172.188944 348.719632 171.956047 L 349.828759 171.878414 L 353.710704 171.671394 L 354.693794 171.593762 C 354.870246 171.593762 354.996283 171.593762 355.172735 171.567884 L 356.155825 171.490252 C 359.735281 171.179721 363.037454 170.584539 365.507783 169.057766 C 365.255708 168.359073 365.028842 167.686258 364.776767 166.987565 L 364.373448 165.978342 L 363.970129 164.943242 L 363.390358 163.468224 L 362.00395 160.000638 L 361.398971 158.473865 L 361.046067 157.464642 L 360.642748 156.455419 C 358.500116 150.555347 356.886841 144.215357 357.416197 135.882799 Z M 216.304985 89.872588 L 216.708304 89.950221 L 217.13683 90.027854 L 217.993883 90.260751 C 218.170335 90.286629 218.296372 90.312506 218.447617 90.364261 L 218.876143 90.519526 L 219.329877 90.648914 L 219.758403 90.804179 C 219.834026 90.830056 219.884441 90.855934 219.960063 90.881811 L 220.388589 91.062954 L 220.842323 91.269974 L 221.699376 91.658137 L 222.556429 92.123932 C 222.606843 92.149809 222.657258 92.175687 222.758088 92.227442 L 223.1362 92.486217 C 223.237029 92.537972 223.287444 92.563849 223.337859 92.615604 L 223.741178 92.874379 L 224.144497 93.159032 C 224.396571 93.340175 224.648646 93.521317 224.875512 93.728337 L 225.228416 94.01299 C 225.354454 94.142377 225.455283 94.22001 225.581321 94.32352 L 225.88381 94.659928 C 228.63142 97.428821 229.841377 101.206937 227.194596 105.580236 C 201.407392 99.550777 188.022245 115.672465 179.930659 133.062151 L 179.451718 134.123129 C 179.350888 134.330149 179.275266 134.485414 179.199643 134.666556 C 174.788342 133.657334 174.082534 129.64632 174.637098 125.531796 L 174.71272 125.040123 C 174.71272 124.962491 174.737928 124.884858 174.737928 124.781348 L 174.838757 124.315553 L 174.939587 123.82388 L 175.015209 123.332207 L 175.242076 122.348862 L 175.393321 121.883067 L 175.519358 121.417272 L 175.69581 120.744457 L 176.048714 119.657601 L 176.325996 118.829521 L 176.603278 118.079073 C 181.39269 104.881544 200.600754 87.46598 216.304985 89.872588 Z M 162.285456 32.476274 L 162.285456 32.786804 C 132.994418 40.964097 95.485757 62.183654 83.487019 88.475203 C 87.167304 87.957653 90.368648 86.922552 93.49437 85.80982 L 96.34281 84.774719 C 100.17434 83.429089 103.980662 82.161091 108.492793 81.876438 C 109.677542 81.798806 110.937914 81.902316 112.273908 82.083458 L 114.088843 82.316356 C 116.206267 82.575131 118.424522 82.730396 120.491531 82.161091 C 123.239141 81.514153 125.785092 78.978157 128.205006 75.665836 L 128.683947 75.018898 C 128.784777 74.889511 128.860399 74.786001 128.910814 74.656613 L 129.389755 73.983798 L 129.893904 73.259228 C 129.969526 73.155718 130.045148 73.000453 130.145978 72.896943 L 130.599712 72.172372 L 131.078653 71.421925 L 131.532387 70.671477 L 132.011328 69.921029 L 132.742344 68.678909 L 133.145663 68.006093 L 135.23788 64.460875 L 136.397422 62.494184 L 136.977193 61.588471 L 137.556963 60.656881 C 138.691298 58.871333 139.825632 57.292805 140.909552 56.076562 L 141.212041 55.791909 C 143.631955 53.074771 146.278735 51.00457 148.875101 49.089634 L 151.2446 47.329964 C 154.017417 45.337396 156.63899 43.293072 158.80683 40.679444 C 159.462223 40.317159 160.193239 40.058384 160.924254 39.799609 L 162.33587 39.307936 L 163.142508 39.023283 C 163.192923 38.997406 163.268545 38.945651 163.344168 38.945651 L 163.697072 38.790386 C 165.28514 38.039938 166.545512 36.927205 166.696756 34.468842 C 165.28514 33.071456 163.797902 31.984601 162.285456 32.476274 Z M 162.285456 32.476274 " transform="matrix(0.154964,0,0,0.150952,0,0.554688)"/>
    </g>
</svg>
