<!--
 Sourced from: https://github.com/jenkins-contrib-themes/jenkins-core-theme/tree/master/images
 License: MIT
 -->
<svg width="0" height="0" class="hidden">
    <symbol xmlns="http://www.w3.org/2000/svg" viewBox="0 0 24 24" id="weather-pouring">
        <g stroke="none" stroke-width="1" fill="none" fill-rule="evenodd">
            <g transform="translate(0.000000, 1.000000)" fill="currentColor" fill-rule="nonzero">
                <path d="M8.72727273,11 C9.30545455,11.154 9.65454545,11.759 9.50181818,12.342 L8.08363636,17.655 C7.93090909,18.249 7.33090909,18.59 6.75272727,18.436 C6.47237636,18.365187 6.23311582,18.1814942 6.09083689,17.9278322 C5.94855796,17.6741701 5.91572218,17.372756 6,17.094 L7.39636364,11.781 C7.54909091,11.187 8.14909091,10.846 8.72727273,11 M13.0909091,11 C13.6690909,11.154 14.0181818,11.759 13.8654545,12.342 L11.6072727,20.845 C11.4545455,21.45 10.8545455,21.78 10.2654545,21.626 C9.68727273,21.45 9.33818182,20.867 9.49090909,20.273 L11.76,11.781 C11.9127273,11.187 12.5127273,10.846 13.0909091,11 M17.4545455,11 C18.0327273,11.154 18.3818182,11.759 18.2290909,12.342 L16.8109091,17.655 C16.6581818,18.249 16.0581818,18.59 15.48,18.436 C15.1996491,18.365187 14.9603886,18.1814942 14.8181096,17.9278322 C14.6758307,17.6741701 14.6429949,17.372756 14.7272727,17.094 L16.1236364,11.781 C16.2763636,11.187 16.8763636,10.846 17.4545455,11 M17.4545455,8.8 L17.4545455,7.7 C17.4545455,4.66243388 15.0124623,2.2 12,2.2 C9.27272727,2.2 7.03636364,4.202 6.61090909,6.809 C6.2404402,6.67205998 5.84912034,6.60133322 5.45454545,6.6 C3.64706809,6.6 2.18181818,8.07746033 2.18181818,9.9 C2.18181818,11.121 2.83636364,12.188 3.81818182,12.76 L3.81818182,12.749 C4.36363636,13.057 4.51636364,13.75 4.22181818,14.256 C3.91636364,14.773 3.27272727,14.96 2.72727273,14.652 L2.72727273,14.663 C1.03636399,13.6838855 -0.00447451729,11.8661304 -1.43689321e-05,9.9 C-1.43689321e-05,6.86243388 2.44208318,4.4 5.45454545,4.4 C6.54545455,1.815 9.05454545,-1.95399252e-15 12,-1.95399252e-15 C15.7418182,-1.95399252e-15 18.8072727,2.926 19.0909091,6.633 L19.6363636,6.6 C22.0463335,6.6 24,8.5699471 24,11 C24,12.65 23.1272727,14.047 21.8181818,14.806 C21.2727273,15.103 20.6290909,14.927 20.3236364,14.399 C20.0290909,13.871 20.1818182,13.2 20.7272727,12.892 L20.7272727,12.903 C21.3818182,12.529 21.8181818,11.814 21.8181818,11 C21.8181818,9.78497355 20.8413485,8.8 19.6363636,8.8 L17.4545455,8.8 L17.4545455,8.8 Z" id="Shape"></path>
            </g>
        </g>
    </symbol>

    <symbol xmlns="http://www.w3.org/2000/svg" viewBox="0 0 24 24" id="weather-rainy">
        <g stroke="none" stroke-width="1" fill="none" fill-rule="evenodd">
            <g transform="translate(0.000000, 1.000000)" fill="currentColor" fill-rule="nonzero">
                <path d="M5.45454545,13.0909091 C6.05703791,13.0909091 6.54545455,13.5793257 6.54545455,14.1818182 C6.54545455,14.7843106 6.05703791,15.2727273 5.45454545,15.2727273 C4.00791006,15.2727273 2.62052508,14.6980536 1.59759938,13.6751279 C0.574673675,12.6522022 -2.42230478e-16,11.2648172 -2.42230478e-16,9.81818182 C-2.42230478e-16,6.80571955 2.44208318,4.36363636 5.45454545,4.36363636 C6.54545455,1.8 9.05454545,9.68921912e-16 12,9.68921912e-16 C15.7418182,9.68921912e-16 18.8072727,2.90181818 19.0909091,6.57818182 L19.6363636,6.54545455 C22.0463335,6.54545455 24,8.49912109 24,10.9090909 C24,13.3190607 22.0463335,15.2727273 19.6363636,15.2727273 L18.5454545,15.2727273 C17.9429621,15.2727273 17.4545455,14.7843106 17.4545455,14.1818182 C17.4545455,13.5793257 17.9429621,13.0909091 18.5454545,13.0909091 L19.6363636,13.0909091 C20.8413485,13.0909091 21.8181818,12.1140758 21.8181818,10.9090909 C21.8181818,9.704106 20.8413485,8.72727273 19.6363636,8.72727273 L17.4545455,8.72727273 L17.4545455,7.63636364 C17.4545455,4.62390136 15.0124623,2.18181818 12,2.18181818 C9.27272727,2.18181818 7.03636364,4.16727273 6.61090909,6.75272727 C6.2404402,6.61691899 5.84912034,6.54677675 5.45454545,6.54545455 C3.64706809,6.54545455 2.18181818,8.01070446 2.18181818,9.81818182 C2.18181818,11.6256592 3.64706809,13.0909091 5.45454545,13.0909091 M15.0872727,14.9127273 C16.7890909,16.6145455 16.7890909,19.0909091 15.0872727,20.8145455 C14.2363636,21.6654545 13.0909091,21.8181818 12,21.8181818 C10.9090909,21.8181818 9.76363636,21.6654545 8.91272727,20.8145455 C7.21090909,19.0909091 7.21090909,16.6145455 8.91272727,14.9127273 L12,9.81818182 L15.0872727,14.9127273 M13.5381818,16.0254545 L12,13.3636364 L10.4618182,16.0254545 C9.6,16.9090909 9.6,18.2181818 10.4618182,19.0909091 C10.9090909,19.56 11.4545455,19.6363636 12,19.6363636 C12.5454545,19.6363636 13.0909091,19.56 13.5381818,19.0909091 C14.4,18.2181818 14.4,16.9090909 13.5381818,16.0254545 Z" id="Shape"></path>
            </g>
        </g>
    </symbol>

    <symbol xmlns="http://www.w3.org/2000/svg" viewBox="0 0 24 24" id="weather-cloudy">
        <g stroke="none" stroke-width="1" fill="none" fill-rule="evenodd">
            <g transform="translate(0.000000, 4.000000)" fill="currentColor" fill-rule="nonzero">
                <path d="M5.45454545,15.2727273 C4.00791006,15.2727273 2.62052508,14.6980536 1.59759938,13.6751279 C0.574673675,12.6522022 0,11.2648172 0,9.81818182 C0,6.80571955 2.44208318,4.36363636 5.45454545,4.36363636 C6.54545455,1.8 9.05454545,3.87568765e-15 12,3.87568765e-15 C15.7418182,3.87568765e-15 18.8072727,2.90181818 19.0909091,6.57818182 L19.6363636,6.54545455 C22.0463335,6.54545455 24,8.49912109 24,10.9090909 C24,13.3190607 22.0463335,15.2727273 19.6363636,15.2727273 L5.45454545,15.2727273 M19.6363636,8.72727273 L17.4545455,8.72727273 L17.4545455,7.63636364 C17.4545455,4.62390136 15.0124623,2.18181818 12,2.18181818 C9.27272727,2.18181818 7.03636364,4.16727273 6.61090909,6.75272727 C6.2404402,6.61691899 5.84912034,6.54677675 5.45454545,6.54545455 C3.64706809,6.54545455 2.18181818,8.01070446 2.18181818,9.81818182 C2.18181818,11.6256592 3.64706809,13.0909091 5.45454545,13.0909091 L19.6363636,13.0909091 C20.8413485,13.0909091 21.8181818,12.1140758 21.8181818,10.9090909 C21.8181818,9.704106 20.8413485,8.72727273 19.6363636,8.72727273 Z" id="Shape"></path>
            </g>
        </g>
    </symbol>

    <symbol xmlns="http://www.w3.org/2000/svg" viewBox="0 0 24 24" id="weather-partly-cloudy">
        <g stroke="none" stroke-width="1" fill="none" fill-rule="evenodd">
            <g fill="currentColor" fill-rule="nonzero">
                <path d="M13.4171429,5.10857143 C16.1142857,6.28571429 17.5428571,9.17714286 17.0514286,11.9542857 C18.5598507,13.2564185 19.4274629,15.1501489 19.4285714,17.1428571 L19.4285714,17.3371429 C19.7957344,17.2079806 20.1822099,17.1422797 20.5714286,17.1428571 C22.4649763,17.1428571 24,18.6778809 24,20.5714286 C24,22.4649763 22.4649763,24 20.5714286,24 L5.71428571,24 C3.18955543,24 1.14285714,21.9533017 1.14285714,19.4285714 C1.14285714,16.9038411 3.18955543,14.8571429 5.71428571,14.8571429 L6.02285714,14.8571429 C4.57142857,13.0857143 4.11428571,10.56 5.14285714,8.29714286 C6.54892003,5.13353033 10.251702,3.70662956 13.4171429,5.10857143 M12.4914286,7.2 C10.4685714,6.28571429 8.10285714,7.21142857 7.21142857,9.22285714 C6.70888506,10.3439587 6.75104659,11.6341014 7.32571429,12.72 C8.62869913,11.1733266 10.5490647,10.2821765 12.5714286,10.2857143 C13.349866,10.2845595 14.122817,10.4159611 14.8571429,10.6742857 C14.7880425,9.16233187 13.8728899,7.81833965 12.4914286,7.2 M14.3428571,3.01714286 C13.7142857,2.74285714 13.0857143,2.54857143 12.4342857,2.42285714 L15.28,0.937142857 L16.3085714,4.24 C15.7102781,3.74726829 15.0492768,3.336064 14.3428571,3.01714286 M5.81714286,3.93142857 C5.25714286,4.33142857 4.76571429,4.78857143 4.34285714,5.29142857 L4.46857143,2.08 L7.85142857,2.85714286 C7.14285714,3.09714286 6.45714286,3.46285714 5.81714286,3.93142857 M19.4285714,9.95428571 C19.331934,9.2900021 19.1750979,8.63588081 18.96,8 L21.68,9.71428571 L19.3371429,12.2628571 C19.4628571,11.52 19.4857143,10.7428571 19.4285714,9.95428571 M2.33142857,11.7714286 C2.41142857,12.4571429 2.56,13.1085714 2.77714286,13.7142857 L0.0685714286,12 L2.4,9.46285714 C2.28571429,10.2057143 2.25142857,10.9828571 2.33142857,11.7714286 M20.5714286,19.4285714 L17.1428571,19.4285714 L17.1428571,17.1428571 C17.1428571,14.6181269 15.0961589,12.5714286 12.5714286,12.5714286 C10.0466983,12.5714286 8,14.6181269 8,17.1428571 L5.71428571,17.1428571 C4.45192057,17.1428571 3.42857143,18.1662063 3.42857143,19.4285714 C3.42857143,20.6909366 4.45192057,21.7142857 5.71428571,21.7142857 L20.5714286,21.7142857 C21.2026111,21.7142857 21.7142857,21.2026111 21.7142857,20.5714286 C21.7142857,19.940246 21.2026111,19.4285714 20.5714286,19.4285714 Z" id="Shape"></path>
            </g>
        </g>
    </symbol>

    <symbol xmlns="http://www.w3.org/2000/svg" viewBox="0 0 24 24" id="weather-sunny">
        <g stroke="none" stroke-width="1" fill="none" fill-rule="evenodd">
            <g transform="translate(1.000000, 0.000000)" fill="currentColor" fill-rule="nonzero">
                <path d="M10.8,6 C14.1137085,6 16.8,8.6862915 16.8,12 C16.8,15.3137085 14.1137085,18 10.8,18 C7.4862915,18 4.8,15.3137085 4.8,12 C4.8,8.6862915 7.4862915,6 10.8,6 M10.8,8.4 C8.8117749,8.4 7.2,10.0117749 7.2,12 C7.2,13.9882251 8.8117749,15.6 10.8,15.6 C12.7882251,15.6 14.4,13.9882251 14.4,12 C14.4,10.0117749 12.7882251,8.4 10.8,8.4 M10.8,0 L13.668,4.104 C12.7487597,3.76983548 11.7780941,3.59925827 10.8,3.6 C9.792,3.6 8.82,3.78 7.932,4.104 L10.8,0 M0.408,6 L5.4,5.58 C4.65522041,6.20908528 4.02228249,6.95968473 3.528,7.8 C3,8.688 2.7,9.6 2.532,10.548 L0.408,6 M0.432,18 L2.544,13.476 C2.89665685,15.4110521 3.90525776,17.1655091 5.4,18.444 L0.432,18 M21.18,6 L19.056,10.548 C18.7161518,8.60491495 17.7054771,6.8426039 16.2,5.568 L21.18,6 M21.168,18 L16.2,18.432 C16.908,17.82 17.544,17.064 18.048,16.2 C18.552,15.324 18.876,14.4 19.044,13.452 L21.168,18 M10.8,24 L7.908,19.872 C8.796,20.196 9.768,20.4 10.8,20.4 C11.784,20.4 12.756,20.196 13.644,19.872 L10.8,24 Z" id="Shape"></path>
            </g>
        </g>
    </symbol>
</svg>
