<svg xmlns="http://www.w3.org/2000/svg" width="2414" height="3333" viewBox="0 0 2414 3332"><path style="stroke:none;fill-rule:evenodd;fill:#d33833;fill-opacity:1" d="M2372.852 1606.41c0 659.84-523.059 1194.754-1168.282 1194.754-645.215 0-1168.27-534.914-1168.27-1194.754C36.3 946.55 559.356 411.63 1204.57 411.63c645.223 0 1168.282 534.922 1168.282 1194.781"/><path style="stroke:none;fill-rule:nonzero;fill:#ef3d3a;fill-opacity:1" d="M83.906 1902.309S-.668 656.375 1147.59 620.773l-80.106-133.496-623.078 209.145L266.38 901.109l-155.77 298.145-89.015 347.082 26.703 231.387"/><path style="stroke:none;fill-rule:nonzero;fill:#231f20;fill-opacity:1" d="M404.402 791.363c-204.976 209.692-331.816 499.211-331.816 819.504 0 320.223 126.84 609.781 331.816 819.438 205.075 209.652 487.7 339.02 800.153 339.02 312.46 0 595.105-129.368 800.16-339.02 204.965-209.657 331.832-499.215 331.832-819.438 0-320.293-126.867-609.812-331.832-819.504-205.055-209.613-487.7-338.98-800.16-339.008-312.453.028-595.078 129.395-800.153 339.008zM352.516 2481.02C134.676 2258.273 0 1950.434 0 1610.867c0-339.62 134.676-647.43 352.516-870.191 217.793-222.801 519.273-360.899 852.039-360.86 332.77-.039 634.277 138.059 852.03 360.86 217.864 222.761 352.556 530.597 352.528 870.191.028 339.567-134.664 647.406-352.527 870.153-217.754 222.789-519.262 360.87-852.031 360.87-332.766 0-634.246-138.081-852.04-360.87"/><path style="stroke:none;fill-rule:evenodd;fill:#f0d6b7;fill-opacity:1" d="m1696.355 1613.031-178.03 26.696-240.337 26.699-155.777 4.445-151.313-4.445-115.722-35.602-102.367-111.238-80.11-226.941-17.8-48.954-106.813-35.586-62.313-102.351L441.27 958.91l48.964-129.047 115.707-40.047 93.461 44.504 44.516 97.89 53.406-8.901 17.797-22.239-17.797-102.351-4.457-129.047 26.703-177.988-1.043-101.668L899.68 260.3l142.422-102.352L1291.34 51.156l275.93 40.047 240.332 173.543 111.273 177.984 71.207 129.051 17.797 320.383-53.406 275.89-97.91 244.735-93.461 129.047"/><path style="stroke:none;fill-rule:evenodd;fill:#335061;fill-opacity:1" d="m1545.027 2382.832-636.445 26.7v106.796l53.406 373.781-26.703 31.157-445.05-151.301-31.165-53.399-44.504-502.816-102.347-302.59-22.262-71.191 356.04-244.735 111.273-44.507 97.906 120.144 84.558 75.652 97.922 31.145 44.5 13.348 53.407 231.386 40.054 48.95 102.371-35.602-71.218 137.953 387.203 182.434-48.946 26.695"/><path style="stroke:none;fill-rule:evenodd;fill:#6d6b6d;fill-opacity:1" d="m490.234 829.863 115.707-40.047 93.461 44.504 44.516 97.89 53.406-8.901 13.352-53.399-26.703-102.336 26.703-244.746-22.258-133.492 80.11-93.45 173.574-137.937-48.961-66.746-244.778 120.145-102.367 80.093-57.855 124.59-89.016 120.145-26.703 142.398 17.812 151.29"/><path style="stroke:none;fill-rule:evenodd;fill:#dcd9d8;fill-opacity:1" d="M672.7 411.586s66.757-164.637 333.792-244.73c267.035-80.098 13.352-57.86 13.352-57.86L730.566 220.25 619.293 331.492l-48.95 89 102.356-8.906M539.184 798.719S445.719 487.227 801.77 442.73l-13.352-53.394-244.777 57.855-71.22 231.383 17.813 151.29 48.95-31.145"/><path style="stroke:none;fill-rule:evenodd;fill:#f7e4cd;fill-opacity:1" d="m681.602 1212.55 58.273-56.456s26.305 3.058 30.746 34.203c4.445 31.156 17.797 311.492 209.168 462.793 17.457 13.805-142.41-22.266-142.41-22.266l-142.426-222.48M1500.54 1128.008s10.374-134.883 46.702-124.512c36.332 10.375 36.332 46.7 36.332 46.7s-88.23 57.066-83.035 77.812"/><path style="stroke:none;fill-rule:nonzero;fill:#f7e4cd;fill-opacity:1" d="M1869.914 634.082s-73.351 15.484-80.11 80.094c-6.757 64.625 80.11 13.351 93.462 8.906M1331.395 638.54s-97.922 13.35-97.922 75.636c0 62.304 111.277 57.86 142.425 31.16"/><path style="stroke:none;fill-rule:evenodd;fill:#f7e4cd;fill-opacity:1" d="M726.105 927.766s-169.128-102.348-186.921-4.446c-17.801 97.89-57.868 169.098 26.703 271.434l-57.856-17.793-53.41-137.941-17.793-133.493L539.184 798.72l115.714 8.902 66.758 53.399 4.45 66.746M806.219 647.43s75.66-391.575 458.418-467.227c315.117-62.273 480.652 13.348 542.965 84.543 0 0-280.387-333.723-547.426-231.387C993.14 135.711 797.324 322.602 801.77 442.73c7.578 204.622 4.449 204.7 4.449 204.7M1838.766 309.238s-129.059-4.445-133.52 111.254c0 0-.012 17.793 8.895 35.59 0 0 102.382-115.7 164.68-53.398"/><path style="stroke:none;fill-rule:evenodd;fill:#f7e4cd;fill-opacity:1" d="M1273.61 468.137s-22.22-177.59-173.653-74.344c-97.91 66.746-89.004 160.191-71.207 177.988 17.8 17.805 12.96 53.649 26.512 29.047 13.543-24.601 9.082-104.7 58.047-126.937 48.957-22.254 129.214-47.114 160.3-5.754"/><path style="stroke:none;fill-rule:evenodd;fill:#49728b;fill-opacity:1" d="m855.176 1670.871-418.348 186.89s173.57 689.723 84.555 903.313l-62.313-22.238-4.449-262.547-115.7-498.367-48.964-137.953 436.148-293.672 129.07 124.574M898.195 2052.36l59.352 72.406v266.984h-71.219s-8.89-186.89-8.89-209.145c0-22.253 8.89-102.347 8.89-102.347M899.68 2431.8l-200.278 8.891 57.868 40.047 142.41 22.25"/><path style="stroke:none;fill-rule:evenodd;fill:#335061;fill-opacity:1" d="m1585.082 2387.293 164.668-4.45 40.055 409.387-169.125 22.243-35.598-427.18"/><path style="stroke:none;fill-rule:evenodd;fill:#335061;fill-opacity:1" d="m1629.582 2387.293 249.238-13.352s102.356-258.086 102.356-271.433c0-13.348 89.015-373.778 89.015-373.778l-200.277-209.132-40.055-35.602-106.812 106.793v413.832l-93.465 382.672"/><path style="stroke:none;fill-rule:evenodd;fill:#49728b;fill-opacity:1" d="m1740.844 2356.145-155.762 31.148 22.242 124.602c57.856 26.699 155.778-44.504 155.778-44.504M1745.305 1577.441l311.535 231.383 8.906-106.793-235.887-218.035-84.554 93.445"/><path style="stroke:none;fill-rule:evenodd;fill:#fff;fill-opacity:1" d="m1054.133 3263.945-92.145-373.836-45.828-275.836-7.578-204.742 417.04-22.195 259.46-.043-23.594 467.27 40.055 360.433-4.445 66.746-338.235 26.7-204.73-44.497"/><path style="stroke:none;fill-rule:evenodd;fill:#dcd9d8;fill-opacity:1" d="M1527.215 2382.844s-22.242 462.785 44.515 792.062c0 0-133.52 84.555-329.355 106.793l373.855-13.347 44.504-26.7-53.41-729.757-13.351-155.758"/><path style="stroke:none;fill-rule:evenodd;fill:#fff;fill-opacity:1" d="m1797.387 2756.668 173.574-48.95 329.336-17.796 48.96-151.285-89.015-262.543-102.355-13.352-142.422 44.496-136.645 66.703-72.539-13.304-56.531 22.207"/><path style="stroke:none;fill-rule:evenodd;fill:#dcd9d8;fill-opacity:1" d="M1794.25 2667.629s115.707-53.387 133.52-48.938l-48.95-244.75 57.856-22.238s40.054 231.383 40.054 258.082c0 0 249.223 13.348 271.48 13.348 0 0 53.407-102.348 40.056-209.14l48.96 142.394 4.446 80.093-71.203 106.797-80.11 17.797-133.52-4.449-44.5-57.84-155.776 22.242-48.961 17.809"/><path style="stroke:none;fill-rule:nonzero;fill:#fff;fill-opacity:1" d="m1619.355 2351.746-97.906-249.195-102.37-146.844s22.245-62.3 53.41-62.3h102.366l97.907 35.6-8.89 164.641-44.517 258.098"/><path style="stroke:none;fill-rule:evenodd;fill:#dcd9d8;fill-opacity:1" d="M1638.488 2267.148s-124.625-240.277-124.625-275.878c0 0 22.246-53.399 53.407-40.047 31.164 13.347 97.921 48.937 97.921 48.937v-84.539l-151.328-31.16-102.355 13.351 173.574 409.383 35.598 4.461"/><path style="stroke:none;fill-rule:nonzero;fill:#fff;fill-opacity:1" d="m1094.195 1679.828-123.297-13.402-115.722-35.602v40.047l56.543 62.344 178.02 80.094"/><path style="stroke:none;fill-rule:evenodd;fill:#dcd9d8;fill-opacity:1" d="M895.246 1693.164s137.977 57.86 182.48 44.508l4.43 53.344-124.593-26.645-75.668-53.398 13.351-17.809"/><path style="stroke:none;fill-rule:evenodd;fill:#d33833;fill-opacity:1" d="M1796.906 1908.559c-75.515-2.215-143.742-11.188-203.48-28.036 4.058-24.48-3.535-48.511 2.566-66.144 16.649-11.988 44.555-11.8 69.723-14.617-21.766-10.696-52.34-14.926-77.453-8.746-.59-16.993-8.215-27.524-12.832-40.82 42.457-15.153 142.687-114.485 199.074-81.594 26.863 15.648 38.277 105.007 40.363 148.46 1.735 36.043-3.273 72.407-17.96 91.497"/><path style="fill:none;stroke-width:2;stroke-linecap:butt;stroke-linejoin:miter;stroke:#d33833;stroke-opacity:1;stroke-miterlimit:4" d="M134.582 106.63c-5.656.166-10.766.838-15.24 2.1.304 1.834-.265 3.634.192 4.955 1.247.898 3.337.884 5.222 1.095-1.63.801-3.92 1.118-5.8.655-.045 1.273-.616 2.062-.962 3.058 3.18 1.135 10.687 8.576 14.91 6.112 2.012-1.172 2.867-7.866 3.023-11.121.13-2.7-.245-5.424-1.345-6.854zm0 0" transform="matrix(13.35177 0 0 -13.34936 0 3332)"/><path style="stroke:none;fill-rule:evenodd;fill:#d33833;fill-opacity:1" d="M1435.781 1785.129c-.199 5.715-.437 11.469-.668 17.234-23.578 15.485-61.644 15.297-87.52 28.313 38.145 1.672 68.177 10.855 94.157 23.804-.574 14.391-1.121 28.766-1.68 43.157-43.222 29.582-82.703 73.636-133.59 101.379-24.058 13.117-108.5 46.879-134.097 40.91-14.48-3.36-15.785-21.332-21.574-38.27-12.336-36.27-40.735-94.008-43.211-148.605-3.157-68.961-10.118-184.543 64.215-170.336 59.968 11.437 129.714 39.058 176.14 64.422 28.375 15.511 44.785 34.683 87.828 37.992"/><path style="fill:none;stroke-width:2;stroke-linecap:butt;stroke-linejoin:miter;stroke:#d33833;stroke-opacity:1;stroke-miterlimit:4" d="M107.535 115.876c-.015-.428-.033-.86-.05-1.291-1.766-1.16-4.617-1.146-6.555-2.12 2.857-.126 5.106-.814 7.052-1.784l-.126-3.233c-3.237-2.216-6.194-5.516-10.005-7.594-1.802-.983-8.127-3.512-10.044-3.065-1.084.252-1.182 1.598-1.616 2.867-.923 2.717-3.05 7.042-3.236 11.132-.236 5.166-.758 13.824 4.81 12.76 4.491-.857 9.715-2.926 13.192-4.826 2.125-1.162 3.354-2.598 6.578-2.846zm0 0" transform="matrix(13.35177 0 0 -13.34936 0 3332)"/><path style="stroke:none;fill-rule:evenodd;fill:#d33833;fill-opacity:1" d="M1478.707 1867.414c-6.594-37.562-14.219-48.285-11.266-81.055 100.204-66.8 119.016 114.735 11.266 81.055"/><path style="fill:none;stroke-width:2;stroke-linecap:butt;stroke-linejoin:miter;stroke:#d33833;stroke-opacity:1;stroke-miterlimit:4" d="M110.75 109.712c-.494 2.814-1.065 3.617-.844 6.072 7.505 5.004 8.914-8.595.844-6.072zm0 0" transform="matrix(13.35177 0 0 -13.34936 0 3332)"/><path style="stroke:none;fill-rule:evenodd;fill:#ef3d3a;fill-opacity:1" d="M1623.8 1897.863s-31.16-44.504-8.902-57.855c22.254-13.348 44.512.015 57.864-22.238 13.351-22.254 0-35.602 4.449-62.301 4.445-26.7 26.715-31.16 48.96-35.606 22.243-4.445 84.571-13.347 93.462 8.907l-26.703-80.098-53.407-17.793-169.128 97.89-8.907 48.954v97.89M1156.492 2044.71c-5.344-69.444-11.004-138.796-17.3-208.17-9.419-103.595 24.89-85.517 114.703-85.517 13.714 0 84.46 16.352 89.52 26.7 24.273 49.562-40.59 38.55 27.96 75.93 57.863 31.542 160.086-19.157 136.707-89.282-13.086-15.59-68.172-4.86-87.922-15.098-34.765-18.023-69.535-36.043-104.308-54.066-44.235-22.945-146.477-56.398-193.641-24.336-119.504 81.258 7.543 284.29 50.172 369.055"/><path style="stroke:none;fill-rule:evenodd;fill:#231f20;fill-opacity:1" d="M1273.61 468.137c-121.305-28.25-181.583 50.754-218.348 132.691-32.832-7.957-19.77-52.598-11.477-75.344 21.711-59.699 109.215-139.168 180.707-128.394 30.77 4.633 72.403 32.758 49.117 71.047M1864.64 606.246c1.91.082 3.848.149 5.755.23 27.414 56.934 51.14 117.247 85.718 167.508-23.164 53.942-175.414 101.68-173.066 4.817 32.926-14.39 89.765-2.938 118.953-21.317-16.879-46.312-41.23-85.73-37.36-151.238M1335.71 607.73c26.009 47.668 34.474 97.758 71.446 133.786 16.649 16.218 49.028 35.992 32.98 81.097-3.753 10.64-31.163 34.364-46.988 39.02-57.796 17.062-192.48 3.527-146.87-68.52 47.8 2.227 112.05 31.035 147.78-3.66-27.437-43.851-76.355-130.61-58.347-181.723M1842.945 1092.23c-87.027 55.895-184.066 116.676-326.664 102.579-30.468-26.485-42.086-85.422-12.484-124.352 15.406 26.488 5.726 75.2 48.668 82.527 80.91 13.844 175.082-49.484 233.281-71.62 36.09-60.833-3.11-83.204-35.621-122.36-66.559-80.215-155.844-179.64-152.598-299.734 26.903-19.5 29.227 29.77 33.086 38.742 34.754 81.324 122.219 185.328 186.055 254.933 15.676 17.14 41.484 33.586 44.355 44.918 8.278 32.961-21.535 72.45-18.078 94.367M695.648 1033.387c-27.277-15.567-33.77-84.13-65.793-86.074-45.77-2.778-37.421 88.945-37.238 142.582-31.504-28.594-37.043-116.633-13.902-161.848-26.375-12.95-38.153 14.285-52.781 23.883 18.8-136.563 199.808-63.344 169.714 81.457M1898.355 1149.098c-40.511 77.093-97.816 161.996-216.687 164.465-2.414-24.895-4.273-62.782.133-77.774 90.875-8.73 146.976-54.973 216.554-86.691M1328.855 1199.078c75.817 39.863 215.157 44.149 318.207 41.129 5.528 22.574 5.395 50.461 5.606 77.988-132.461 6.61-289.078-26.164-323.813-119.117M1314.445 1273.41c52.43 131.61 232.625 116.457 384.582 112.828-6.691 17.086-21.191 37.27-39.215 44.574-48.695 19.81-183 34.84-250.601-1.054-42.871-22.79-70.414-74.278-93.906-104.461-11.344-14.578-67.828-51.809-.86-51.887"/><path style="stroke:none;fill-rule:evenodd;fill:#81b0c4;fill-opacity:1" d="M1836.617 1999.383c-61.527 105.355-120.394 213.566-193.387 306.496 30.602-89.965 43.7-240.535 48.32-355.324 64.02-29.957 118.845 6.742 145.067 48.828"/><path style="stroke:none;fill-rule:evenodd;fill:#231f20;fill-opacity:1" d="M2167.688 2378.043c-68.883 13.785-117.282 80.723-184.481 76.426 36.93-52.055 101.645-73.996 184.48-76.426M2198.074 2485.824c-56.144 5.926-122.086 15.016-179.031 10.332 26.957-41.168 130.82-26.96 179.031-10.332M2217.527 2578.746c-63.097 1.367-141.527.11-201.504-4.922 35.477-38.097 160.582-14.137 201.504 4.922"/><path style="stroke:none;fill-rule:evenodd;fill:#dcd9d8;fill-opacity:1" d="M1717.89 2833.04c9.055 79.233 40.473 159.51 36.532 246.28-34.887 11.766-54.93 22.055-101.672 21.992-3.3-73.746-13.164-186.48-10.215-256.777 22.992 1.52 56.89-16.422 75.356-11.496"/><path style="stroke:none;fill-rule:evenodd;fill:#f0d6b7;fill-opacity:1" d="M1616.164 1665.348c-31.684 20.675-58.668 46.492-89.094 68.574-67.48 3.336-104.304-4.672-153.879-43.414.813-3.11 5.793-1.719 5.98-5.54 72.231 32.188 164.052-13.109 236.993-19.62"/><path style="stroke:none;fill-rule:evenodd;fill:#81b0c4;fill-opacity:1" d="M1236.969 2157.64c19.843-85.98 97.61-130.515 168.226-177.863 72.887 92.489 117.215 211.426 166.028 326.203-115.332-34.757-233.176-91.16-334.254-148.34"/><path style="stroke:none;fill-rule:evenodd;fill:#231f20;fill-opacity:1" d="M1642.535 2844.535c-2.95 70.297 6.914 183.031 10.215 256.778 46.742.062 66.785-10.227 101.672-21.993 3.941-86.77-27.477-167.047-36.531-246.28-18.465-4.927-52.364 13.015-75.356 11.495zm-727.86-399.797c30.825 283.313 75.47 521.473 157.352 772.352 181.735 55.172 400.82 59.98 561.453 10.195-29.492-141.597-16.609-313.984-33.843-465.09-12.992-113.574-6.371-227.847-24.18-343.718-194.645-40.485-469.762-9.465-660.781 26.261zm706.805-24.484c-1.644 121.676 5.446 241.703 14.739 363.531 46.73-7.015 78.441-11.7 121.863-21.215-14.102-117.285-12.363-249.261-41.086-353.011-33.191.32-62.418-.387-95.516 10.695zm237.06-19.613c-22.177-5.082-48-.196-69.188.214 9.96 99.188 34.125 208.637 42.632 312.75 33.34 1.04 51.149-14.683 78.575-19.968 1.468-91.395-7.985-217.305-52.02-292.996zm358.948 327.898c69.496-16.871 113.196-101.973 93.758-189.371-13.047-58.738-36.277-169.34-61.14-206.914-18.372-27.793-68.188-64.184-107.961-38.715-64.704 41.426-178.688 53.45-225.872 103.594 23.66 78.762 31.004 186.941 40.762 286.738 80.832 5.04 180.29-22.238 247.516 6.707-46.93 15.2-107.828 15.32-148.38 37.473 33.142 16.004 110.727 12.77 161.317.488zm-646.265-422.559c-48.813-114.777-93.141-233.714-166.028-326.203-70.617 47.348-148.382 91.883-168.226 177.864 101.078 57.18 218.922 113.582 334.254 148.34zm120.328-355.425c-4.621 114.789-17.719 265.36-48.32 355.324 72.992-92.93 131.859-201.14 193.386-306.496-26.222-42.086-81.047-78.785-145.066-48.828zm-136.403-48.457c-27.652-2.977-51.125 31.785-87.082 16.754-8.238 9.101-15.726 18.968-24.125 27.859 79.414 95.687 115.504 231.45 176.844 343.902 32.91-108.02 29.121-226.363 36.371-344.261-45.222 2.867-70.312-40.891-102.008-44.254zm-87.707-115.739c-2.953 32.77 4.672 43.493 11.266 81.055 107.75 33.68 88.938-147.855-11.266-81.055zm-119.488-39.222c-46.426-25.364-116.172-52.985-176.14-64.422-74.333-14.219-67.372 101.375-64.215 170.336 2.476 54.597 30.875 112.336 43.21 148.605 5.79 16.938 7.094 34.91 21.575 38.27 25.597 5.969 110.039-27.793 134.097-40.91 50.887-27.743 90.368-71.797 133.59-101.38.559-14.39 1.106-28.765 1.68-43.156-25.98-12.949-56.012-22.132-94.156-23.804 25.875-13.016 63.941-12.828 87.52-28.313.23-5.765.468-11.52.667-17.234-43.043-3.309-59.453-22.48-87.828-37.992zm-443.457-80.535c-38.535 39.113 108.074 92.43 154.754 95.3-.262-24.75 14.105-48.086 11.21-65.84-55.437-9.73-128.3-3.308-165.964-29.46zm474.676 18.367c-.188 3.82-5.168 2.43-5.98 5.539 49.574 38.742 86.398 46.75 153.878 43.414 30.426-22.082 57.41-47.899 89.094-68.574-72.941 6.511-164.762 51.808-236.992 19.62zm435.695 132.093c-2.086-43.453-13.5-132.812-40.363-148.46-56.387-32.907-156.617 66.441-199.074 81.593 4.617 13.297 12.242 23.828 12.832 40.82 25.113-6.18 55.687-1.949 77.453 8.747-25.168 2.816-53.074 2.629-69.723 14.617-6.101 17.633 1.492 41.664-2.566 66.144 59.738 16.848 127.965 25.82 203.48 28.036 14.688-19.09 19.696-55.454 17.961-91.496zm-975.242-112.628c-12.102-8.625-93.96-115.114-105.172-110.696-148.121 58.407-286.621 159.395-410.387 254.907 118.004 253.16 165.637 563.32 174.055 862.261 135.176 63.211 253.906 154.336 437.336 163.852-21.227-150.153-40.602-284.117-52.648-425.485-46.09-19.425-112.215.883-155.344-6.023-.367-51.969 65.87-22.758 71.387-57.703 4.16-26.434-36.446-28.438-23.223-70.059 33.719 12.254 51.426 39.325 87.387 49.489 32.859-71.875-.461-199.043 4.273-259.114.899-11.281 5.637-62.488 30.906-53.504 22.364 7.954-1.28 136.188 1.172 193.043 2.235 52.383-6.328 103.067 14.89 135.95 177.25-24.122 357.368-39.711 549.15-44.973-42.192-18.102-92.313-35.23-147.266-66.2-29.793-16.792-123.696-51.73-132.293-80.019-13.715-45.078 35.988-69.094 44.488-107.738-89.473 48.789-106.926-46.766-128.094-114.461-19.176-61.313-30.094-107.113-34.797-142.477-77.074-36.738-159.48-73.941-225.82-121.05zm896.96-97.813c123.411-59.832 145.653 223.617 97.282 314.926 7.477 27.234 33.192 37.66 43.684 62.14-68.867 123.348-145.36 238.485-215.63 360.383 52.274-32.535 126.934-5.82 188.446-30.172 22.485-8.89 38.762-60.355 55.785-101.523 46.825-113.266 95.985-256.066 117.856-364.156 4.941-24.63 18.398-78.293 15.383-100.215-5.383-39.246-58.641-68.348-85.735-92.617-49.906-44.828-81.336-84.274-133.394-126.192-21.11 31.157-66.414 52.09-83.676 77.426zM557.384 512.402c-58.805 64.692-46.496 185.903-39.375 272.141 106.293-66.856 247.37 5.285 246.043 118.996 50.746-1.348 18.957-63.371 9.777-103.324-30-130.504 50.54-272.29 3.652-391.633-91.039 6.902-165.828 44.082-220.097 103.82zm420.765-375.465C845.023 174.665 674.406 271.38 619.7 390.95c42.36-6.152 71.766-27.512 113.555-30.156 15.793-1.027 36.48 6.621 54.633 2.11 36.168-8.973 66.695-90.055 93.98-120.223 26.602-29.465 58.57-42.051 80.45-68.91 14.058-6.782 34.843-6.317 35.64-27.422-6.094-6.512-12.508-11.48-19.809-9.41zm693 35.485c-138.18-77.95-372.062-136.578-519.046-63.317-118.602 59.125-278.918 156.946-333.575 280.91 51.059 119.622-15.125 229.235-19.351 350.688-2.242 64.625 30.433 121.04 32.937 191.39-17.472 28.821-70.855 32.372-107.804 30.395-12.442-62.234-34.215-132.183-98.313-139.207-90.7-9.918-157.016 65.133-161.137 143.559-4.875 92.23 70.856 245.094 178.192 234.48 41.46-4.097 51.648-45.652 96.824-45.226 24.488 48.847-37.77 64.183-44.176 99.12-1.668 9.024 5.164 44.294 9.137 60.833 19.496 80.535 62.957 184.77 105.738 246.082 54.293 77.773 160.961 89.492 275.719 97.117 20.496-44.148 96-40.516 145.2-28.969-58.962-23.347-113.778-79.949-159.204-130.05-52.184-57.48-105.043-119.141-107.71-194.274 98.609 136.777 180.073 256.23 359.386 316.395 135.676 45.496 294.137-20.852 398.387-94.047 43.261-30.422 69.082-78.696 99.832-122.88 115.05-165.464 168.738-401.644 156.937-630.558-4.863-94.406-4.648-188.492-36.332-252.008-33.113-66.414-145.105-125.832-210.664-65.761-12.148-64.582 54.516-104.524 132.824-81.281-55.836-72.047-114.437-158.618-193.8-203.391zm257.434 2130.117c107.977-53.668 309.723-144.453 377.414.2 24.984 53.32 54.29 143.452 67.227 198.491 18.28 77.653-19.813 240.864-99.645 266.922-70.508 23.012-152.781 21.61-237.715 4.551-10-8.316-21.133-22.812-28.918-37.926-60.644-2.351-117.43 3.254-165.336 28.18 4.54 44.84-25.796 52.035-54.234 61.273-21.082 83.579 42.18 192.727 27.035 268.938-10.8 54.293-77.613 62.687-126.719 72.848-1.601 30.171 2.149 55.355 5.5 80.882-11.23 41.368-61.59 64.914-109.312 70.684-157.004 18.875-395.387 27.356-546.406-26.937-42.141-103.348-75.336-229.047-110.438-347.06-147.285 15.727-266.41-63.538-378.71-115.472-38.88-18.02-92.669-27.949-107.196-58.894-14.082-29.957-8.317-87.375-11.813-141.61-8.89-138.527-16.507-272.14-53.093-413.98-16.43-63.649-45.063-119.809-65.04-181.137-18.46-56.84-50.718-127.086-59.132-183.765-12.477-84.008 66.644-88.68 117.234-125.086 78.207-56.293 139.594-87.422 224.293-138.23 25.09-15.048 100.742-53.13 109.348-70.673 17.105-34.773-29.364-83.808-41.79-111.066-19.652-43.106-29.902-79.723-32.718-122.254-71.05-11.227-124.91-53.504-157.445-101.176-53.817-78.894-91.141-224.855-44.578-335.883 3.652-8.742 21.863-25.937 24.55-39.367 5.301-26.445-9.972-61.605-10.922-89.734-4.89-144.305 24.422-268.64 121.586-312.16 39.446-157.11 180.625-209.344 313.637-287.426 49.719-29.18 104.527-47.832 161.133-68.656 203.055-74.715 514.601-60.645 683.129 66.789 71.457 54.035 185.683 168.132 226.539 250.738 107.91 218.09 100.246 582.566 24.77 847.86-10.149 35.617-24.864 87.972-45.41 130.757-14.329 29.875-58.856 89.652-53.45 116.031 5.57 27.274 101.527 100.121 122.102 119.957 37.05 35.739 107.441 83.168 113.144 128.262 6.129 47.992-21.148 113.645-34.969 159.953-46.195 154.543-91.273 297.399-143.652 435.176"/><path style="stroke:none;fill-rule:evenodd;fill:#f7e4cd;fill-opacity:1" d="M1208.215 1232.746c5.86-7.797 38.062-19.637 83.125 2.055 0 0-53.406 8.906-48.965 97.933l-22.254-4.46s-23-80.723-11.906-95.528"/><path style="stroke:none;fill-rule:evenodd;fill:#1d1919;fill-opacity:1" d="M1598.434 1997.945c0 13.512-10.961 24.465-24.489 24.465-13.511 0-24.472-10.953-24.472-24.465 0-13.507 10.96-24.484 24.472-24.484 13.528 0 24.489 10.976 24.489 24.484M1622.906 2111.414c0 13.512-10.96 24.469-24.484 24.469-13.512 0-24.477-10.957-24.477-24.469s10.965-24.48 24.477-24.48c13.523 0 24.484 10.968 24.484 24.48"/></svg>
