<?xml version="1.0" encoding="UTF-8"?>
<svg version="1.1" viewBox="0 0 180 180" xml:space="preserve" xmlns="http://www.w3.org/2000/svg">
  <g transform="matrix(1.25,0,0,-1.25,0,180)">
			<path d="m107.96 30.661-12.506-1.8759-16.883-1.8759-10.943-0.31233-10.629 0.31233-8.1292 2.5015-7.1909 7.8157-5.6276 15.945-1.2504 3.4394-7.5034 2.5005-4.3771 7.1911-3.1263 10.317 3.4396 9.0669 8.1281 2.8138 6.5655-3.127 3.127-6.8778 3.7517 0.6256 1.2501 1.5626-1.2501 7.1911-0.31327 9.0669 1.8759 12.505-0.07325 7.1433 5.7008 9.1138 10.005 7.1911 17.508 7.5034 19.383-2.8138 16.883-12.193 7.8167-12.505 5.002-9.0669 1.2503-22.51-3.7517-19.384-6.8778-17.195-6.5655-9.0669"
                  fill="#f0d6b7" fill-rule="evenodd"/>
      <path d="m97.334-23.425-44.709-1.8759v-7.5034l3.7517-26.262-1.8759-2.1891-31.264 10.63-2.1891 3.7517-3.1263 35.328-7.1898 21.26-1.5637 5.002 25.011 17.195 7.8167 3.127 6.8776-8.4413 5.9401-5.3152 6.8788-2.1882 3.1259-0.93793 3.7517-16.257 2.8138-3.4392 7.1913 2.5013-5.0029-9.6925 27.2-12.818-3.4384-1.8759"
            fill="#335061" fill-rule="evenodd"/>
      <path d="m23.238 85.687 8.1281 2.8138 6.5655-3.127 3.127-6.8778 3.7517 0.6256 0.93793 3.7517-1.8759 7.1902 1.8759 17.196-1.5637 9.3793 5.6276 6.5655 12.193 9.6916-3.4392 4.6896-17.195-8.4414-7.1909-5.6276-4.0642-8.7537-6.253-8.4414-1.8759-10.005 1.2512-10.63"
            fill="#6d6b6d" fill-rule="evenodd"/>
      <path d="m36.055 115.07s4.6896 11.567 23.448 17.195c18.759 5.6276 0.93793 4.065 0.93793 4.065l-20.321-7.8167-7.8167-7.8158-3.4384-6.2532 7.1902 0.6256"
            fill="#dcd9d8" fill-rule="evenodd"/>
      <path d="m26.676 87.875s-6.5655 21.886 18.446 25.012l-0.93793 3.7517-17.195-4.065-5.0029-16.257 1.2512-10.63 3.4384 2.1882"
            fill="#dcd9d8" fill-rule="evenodd"/>
      <path d="m36.681 58.799 4.0936 3.9665s1.8476-0.21478 2.1598-2.403c0.31214-2.1891 1.2501-21.886 14.694-32.516 1.2262-0.96982-10.004 1.5645-10.004 1.5645l-10.005 15.631"
            fill="#f7e4cd" fill-rule="evenodd"/>
      <path d="m94.209 64.739s0.72877 9.4768 3.2809 8.748c2.5521-0.72877 2.5521-3.2809 2.5521-3.2809s-6.1978-4.0096-5.833-5.4672"
            fill="#f7e4cd" fill-rule="evenodd"/>
      <path d="m120.16 99.442s-5.153-1.088-5.6276-5.6276c-0.47459-4.5405 5.6276-0.93793 6.5655-0.6256" fill="#f7e4cd"/>
      <path d="m82.327 99.129s-6.8788-0.93793-6.8788-5.3143c0-4.3773 7.8169-4.065 10.005-2.1891" fill="#f7e4cd"/>
      <path d="m39.807 78.808s-11.881 7.1911-13.131 0.31233c-1.2504-6.8778-4.065-11.881 1.8759-19.071l-4.0642 1.2503-3.7517 9.6916-1.2501 9.3793 7.1902 7.5044 8.1288-0.6256 4.6896-3.7517 0.31252-4.6896"
            fill="#f7e4cd" fill-rule="evenodd"/>
      <path d="m45.435 98.504s5.315 27.512 32.203 32.827c22.136 4.3754 33.765-0.93792 38.142-5.9399 0 0-19.696 23.447-38.455 16.257-18.759-7.1911-32.514-20.322-32.202-28.762 0.53237-14.377 0.31252-14.382 0.31252-14.382"
            fill="#f7e4cd" fill-rule="evenodd"/>
      <path d="m117.97 122.27s-9.066 0.31233-9.3793-7.8167c0 0-9.4e-4 -1.2503 0.62466-2.5005 0 0 7.192 8.129 11.568 3.7517"
            fill="#f7e4cd" fill-rule="evenodd"/>
      <path d="m78.268 111.1s-1.5608 12.477-12.199 5.2233c-6.878-4.6896-6.2522-11.255-5.0022-12.505 1.2504-1.2512 0.91045-3.7695 1.8623-2.0409 0.95143 1.7286 0.63817 7.3562 4.0777 8.9188 3.4392 1.5635 9.077 3.31 11.261 0.40425"
            fill="#f7e4cd" fill-rule="evenodd"/>
      <path d="m48.874 26.597-29.388-13.131s12.193-48.46 5.9397-63.467l-4.3771 1.5626-0.31252 18.446-8.1277 35.015-3.4396 9.6925 30.638 20.633 9.0668-8.7527"
            fill="#49728b" fill-rule="evenodd"/>
      <path d="m51.896-0.20622 4.1694-5.0871v-18.759h-5.0029s-0.62466 13.131-0.62466 14.695c0 1.5633 0.62466 7.1909 0.62466 7.1909"
            fill="#49728b" fill-rule="evenodd"/>
      <path d="m52-26.866-14.069-0.62466 4.065-2.8138 10.004-1.5633" fill="#49728b" fill-rule="evenodd"/>
      <path d="m100.15-23.739 11.567 0.31252 2.8138-28.764-11.881-1.5626-2.5005 30.014" fill="#335061"
            fill-rule="evenodd"/>
      <path d="m103.27-23.739 17.508 0.93793s7.1902 18.133 7.1902 19.071c0 0.93793 6.2532 26.262 6.2532 26.262l-14.069 14.694-2.8138 2.5015-7.5034-7.5034v-29.076l-6.5655-26.887"
            fill="#335061" fill-rule="evenodd"/>
      <path d="m111.09-21.55-10.942-2.1884 1.5626-8.7546c4.064-1.8759 10.943 3.127 10.943 3.127" fill="#49728b"
            fill-rule="evenodd"/>
      <path d="m111.4 33.162 21.885-16.257 0.6256 7.5034-16.57 15.319-5.9399-6.5655" fill="#49728b"
            fill-rule="evenodd"/>
      <path d="m62.85-85.332-6.4728 26.266-3.2193 19.38-0.53237 14.385 29.296 1.5596 18.226 3e-3 -1.6573-32.83 2.8138-25.324-0.31233-4.6896-23.76-1.8759-14.382 3.1263"
            fill="#fff" fill-rule="evenodd"/>
      <path d="m96.083-23.426s-1.5626-32.515 3.127-55.65c0 0-9.3793-5.9409-23.136-7.5034l26.262 0.93793 3.1261 1.8759-3.7517 51.273-0.93793 10.944"
            fill="#dcd9d8" fill-rule="evenodd"/>
      <path d="m115.06-49.691 12.193 3.4392 23.135 1.2504 3.4394 10.629-6.2532 18.446-7.1902 0.93793-10.005-3.1263-9.5987-4.6866-5.0958 0.93493-3.9712-1.5603"
            fill="#fff" fill-rule="evenodd"/>
      <path d="m114.84-43.435s8.1281 3.751 9.3793 3.4384l-3.4384 17.196 4.064 1.5626s2.8138-16.257 2.8138-18.133c0 0 17.507-0.93793 19.071-0.93793 0 0 3.7517 7.1909 2.8138 14.694l3.4394-10.005 0.31233-5.6276-5.002-7.5034-5.6276-1.2504-9.3793 0.31252-3.1261 4.0639-10.943-1.5626-3.4394-1.2512"
            fill="#dcd9d8" fill-rule="evenodd"/>
      <path d="m102.56-21.241-6.8778 17.508-7.1911 10.317s1.5626 4.3773 3.7517 4.3773h7.1911l6.8778-2.5015-0.62466-11.568-3.127-18.134"
            fill="#fff"/>
      <path d="m103.9-15.297s-8.7546 16.882-8.7546 19.383c0 0 1.5626 3.7517 3.7517 2.8138 2.1891-0.93793 6.8788-3.4384 6.8788-3.4384v5.9399l-10.63 2.1891-7.1902-0.93793 12.193-28.763 2.5005-0.31327"
            fill="#dcd9d8" fill-rule="evenodd"/>
      <path d="m65.664 25.968-8.6612 0.94168-8.1292 2.5015v-2.8138l3.9719-4.3801 12.506-5.6276" fill="#fff"/>
      <path d="m51.689 25.031s9.6925-4.065 12.819-3.127l0.31102-3.748-8.7524 1.8721-5.3154 3.7517 0.93793 1.2512"
            fill="#dcd9d8" fill-rule="evenodd"/>
      <path d="m115.03 9.8973c-5.3049 0.1557-10.098 0.78598-14.294 1.9696 0.28513 1.7202-0.24855 3.4084 0.18008 4.6474 1.1696 0.84226 3.1299 0.82913 4.8979 1.027-1.5288 0.75128-3.6767 1.0486-5.4409 0.61434-0.0413 1.194-0.57683 1.934-0.90135 2.8682 2.9826 1.0645 10.024 8.0437 13.984 5.7326 1.8871-1.0993 2.689-7.3777 2.8354-10.431 0.12193-2.5324-0.22979-5.0873-1.2615-6.4286"
            fill="#d33833" fill-rule="evenodd"/>
      <path d="m115.03 9.8973c-5.3049 0.1557-10.098 0.78598-14.294 1.9696 0.28513 1.7202-0.24855 3.4084 0.18008 4.6474 1.1696 0.84226 3.1299 0.82913 4.8979 1.027-1.5288 0.75128-3.6767 1.0486-5.4409 0.61434-0.0413 1.194-0.57683 1.934-0.90135 2.8682 2.9826 1.0645 10.024 8.0437 13.984 5.7326 1.8871-1.0993 2.689-7.3777 2.8354-10.431 0.12193-2.5324-0.22979-5.0873-1.2615-6.4286z"
            fill="none" stroke="#d33833" stroke-width="2"/>
      <path d="m89.66 18.569c-0.01407-0.40143-0.03095-0.80568-0.0469-1.2109-1.6564-1.088-4.3304-1.0749-6.1481-1.9893 2.6797-0.11724 4.7891-0.76254 6.6143-1.6723-0.04033-1.0111-0.07879-2.0212-0.11818-3.0323-3.0361-2.0784-5.8095-5.1736-9.3841-7.1227-1.6901-0.9218-7.6218-3.2937-9.42-2.8746-1.0174 0.23626-1.109 1.4988-1.5157 2.6889-0.86646 2.5484-2.8614 6.605-3.0354 10.441-0.22163 4.8453-0.71076 12.966 4.5109 11.968 4.2126-0.8038 9.1122-2.7444 12.374-4.5264 1.9931-1.0899 3.1458-2.4367 6.1697-2.6693"
            fill="#d33833" fill-rule="evenodd"/>
      <path d="m89.66 18.569c-0.01407-0.40143-0.03095-0.80568-0.0469-1.2109-1.6564-1.088-4.3304-1.0749-6.1481-1.9893 2.6797-0.11724 4.7891-0.76254 6.6143-1.6723-0.04033-1.0111-0.07879-2.0212-0.11818-3.0323-3.0361-2.0784-5.8095-5.1736-9.3841-7.1227-1.6901-0.9218-7.6218-3.2937-9.42-2.8746-1.0174 0.23626-1.109 1.4988-1.5157 2.6889-0.86646 2.5484-2.8614 6.605-3.0354 10.441-0.22163 4.8453-0.71076 12.966 4.5109 11.968 4.2126-0.8038 9.1122-2.7444 12.374-4.5264 1.9931-1.0899 3.1458-2.4367 6.1697-2.6693z"
            fill="none" stroke="#d33833" stroke-width="2"/>
      <path d="m92.675 12.788c-0.46334 2.6393-0.99889 3.3925-0.79161 5.6951 7.0391 4.6934 8.3607-8.0615 0.79161-5.6951"
            fill="#d33833" fill-rule="evenodd"/>
      <path d="m92.675 12.788c-0.46334 2.6393-0.99889 3.3925-0.79161 5.6951 7.0391 4.6934 8.3607-8.0615 0.79161-5.6951z"
            fill="none" stroke="#d33833" stroke-width="2"/>
      <path d="m102.87 10.649s-2.1891 3.127-0.6256 4.065c1.5635 0.93793 3.127-9.38e-4 4.065 1.5626s0 2.5015 0.31233 4.3773 1.8768 2.1891 3.4394 2.5015c1.5626 0.31233 5.9408 0.93793 6.5655-0.6256l-1.8758 5.6276-3.7517 1.2503-11.881-6.8778-0.6256-3.4394v-6.8778"
            fill="#ef3d3a" fill-rule="evenodd"/>
      <path d="m70.041 0.33131c-0.37555 4.8792-0.77304 9.7517-1.2153 14.626-0.66171 7.2783 1.7483 6.0084 8.0574 6.0084 0.96363 0 5.9332-1.149 6.2887-1.8759 1.7052-3.4825-2.8513-2.7087 1.964-5.3349 4.065-2.2163 11.246 1.3459 9.6034 6.2729-0.91917 1.0955-4.7891 0.34141-6.1763 1.0608-2.4424 1.2662-4.8847 2.5324-7.3274 3.7986-3.1075 1.6123-10.29 3.9627-13.603 1.7098-8.3948-5.7092 0.52984-19.974 3.5245-25.93"
            fill="#ef3d3a" fill-rule="evenodd"/>
      <path d="m78.268 111.1c-8.5213 1.9846-12.755-3.566-15.338-9.323-2.3064 0.559-1.3886 3.6954-0.80606 5.2937 1.5253 4.1944 7.672 9.7779 12.694 9.021 2.1613-0.32546 5.086-2.3017 3.4502-4.9916"
            fill="#231f20" fill-rule="evenodd"/>
      <path d="m119.79 101.4c0.13412-6e-3 0.27012-0.0103 0.40424-0.0159 1.9256-4.0003 3.5923-8.2378 6.0215-11.769-1.6273-3.7902-12.322-7.1442-12.157-0.33859 2.3129 1.0111 6.3057 0.20634 8.356 1.4979-1.1855 3.2537-2.8963 6.0234-2.6243 10.626"
            fill="#231f20" fill-rule="evenodd"/>
      <path d="m82.63 101.29c1.8271-3.3493 2.4217-6.8684 5.0188-9.3999 1.1696-1.1396 3.4441-2.5287 2.3167-5.6979-0.26356-0.74753-2.1891-2.4142-3.3006-2.7416-4.0603-1.1987-13.521-0.24761-10.317 4.8144 3.3579-0.15663 7.8713-2.1807 10.381 0.25699-1.9274 3.0811-5.3636 9.1767-4.0987 12.768"
            fill="#231f20" fill-rule="evenodd"/>
      <path d="m118.26 67.253c-6.1134-3.9271-12.93-8.1975-22.947-7.207-2.1404 1.8608-2.9563 6.0018-0.87696 8.7368 1.0824-1.8608 0.40237-5.2833 3.4187-5.7983 5.6838-0.97263 12.299 3.4769 16.387 5.032 2.5352 4.2741-0.21853 5.8461-2.5024 8.597-4.6756 5.636-10.947 12.622-10.72 21.059 1.8899 1.3703 2.0531-2.0916 2.3242-2.7219 2.4414-5.7139 8.5858-13.021 13.07-17.912 1.1011-1.2043 2.9141-2.3598 3.1158-3.1561 0.58151-2.3157-1.5129-5.0901-1.27-6.6302"
            fill="#231f20" fill-rule="evenodd"/>
      <path d="m37.668 71.387c-1.9162 1.0936-2.3723 5.9108-4.6219 6.0478-3.2149 0.19509-2.6287-6.2494-2.6159-10.018-2.2129 2.009-2.6021 8.1947-0.97638 11.371-1.8528 0.90979-2.6801-1.0036-3.7078-1.678 1.3208 9.595 14.036 4.4505 11.922-5.7232"
            fill="#231f20" fill-rule="evenodd"/>
      <path d="m122.15 63.257c-2.8457-5.4165-6.8712-11.382-15.222-11.555-0.16977 1.7492-0.30014 4.4111 9e-3 5.4644 6.3835 0.6134 10.325 3.8624 15.212 6.0909"
            fill="#231f20" fill-rule="evenodd"/>
      <path d="m82.149 59.745c5.3259-2.8007 15.114-3.1017 22.353-2.8898 0.3883-1.586 0.37892-3.5454 0.39393-5.4794-9.3052-0.46427-20.307 1.8383-22.747 8.3691"
            fill="#231f20" fill-rule="evenodd"/>
      <path d="m81.136 54.523c3.683-9.247 16.341-8.1825 27.016-7.9274-0.4699-1.2005-1.4885-2.6187-2.7547-3.1317-3.4206-1.3919-12.855-2.448-17.604 0.0741-3.0117 1.601-4.9466 5.2186-6.5967 7.3393-0.79686 1.0242-4.7648 3.6401-0.0604 3.6457"
            fill="#231f20" fill-rule="evenodd"/>
      <path d="m117.82 3.5159c-4.322-7.4023-8.4573-15.005-13.585-21.534 2.1497 6.3208 3.0698 16.9 3.3944 24.965 4.4974 2.1047 8.3485-0.47365 10.191-3.4308"
            fill="#81b0c4" fill-rule="evenodd"/>
      <path d="m141.07-23.089c-4.8388-0.96869-8.2388-5.6715-12.959-5.3696 2.5943 3.6573 7.1404 5.1989 12.959 5.3696"
            fill="#231f20" fill-rule="evenodd"/>
      <path d="m143.21-30.661c-3.944-0.41653-8.5764-1.0552-12.577-0.72614 1.8937 2.8926 9.1898 1.8945 12.577 0.72614"
            fill="#231f20" fill-rule="evenodd"/>
      <path d="m144.58-37.19c-4.4326-0.09604-9.942-0.0077-14.155 0.34581 2.4921 2.6768 11.28 0.99327 14.155-0.34581"
            fill="#231f20" fill-rule="evenodd"/>
      <path d="m109.48-55.057c0.63591-5.5668 2.8428-11.207 2.5662-17.304-2.4508-0.8265-3.8586-1.5494-7.1423-1.545-0.23167 5.1813-0.9248 13.102-0.71752 18.041 1.6151-0.10692 3.9965 1.1537 5.2937 0.80756"
            fill="#dcd9d8" fill-rule="evenodd"/>
      <path d="m102.33 26.985c-2.2257-1.4528-4.1213-3.2668-6.2588-4.8181-4.7403-0.23448-7.3271 0.32827-10.81 3.0501 0.05721 0.21854 0.40706 0.12099 0.42019 0.38924 5.0742-2.2613 11.524 0.92104 16.648 1.3788"
            fill="#f0d6b7" fill-rule="evenodd"/>
      <path d="m75.694-7.6034c1.3941 6.0412 6.8568 9.17 11.817 12.497 5.1201-6.4981 8.2341-14.855 11.663-22.919-8.1018 2.4423-16.38 6.405-23.481 10.422"
            fill="#81b0c4" fill-rule="evenodd"/>
      <path d="m104.18-55.865c-0.20728-4.9391 0.48585-12.86 0.71752-18.041 3.2837-0.0044 4.6915 0.71845 7.1423 1.545 0.27668 6.0965-1.9303 11.737-2.5662 17.304-1.2972 0.34619-3.6786-0.91448-5.2937-0.80756zm-51.13 28.09c2.1653-19.906 5.3014-36.639 11.054-54.266 12.766-3.8763 28.157-4.2141 39.441-0.71627-2.0719 9.9487-1.1668 22.061-2.3776 32.677-0.9126 7.9797-0.44739 16.009-1.6986 24.15-13.673 2.8445-33 0.66499-46.418-1.8451zm49.651 1.7202c-0.11536-8.549 0.38268-16.982 1.0355-25.542 3.2828 0.49279 5.5103 0.82181 8.5605 1.4905-0.99045 8.2405-0.86852 17.513-2.886 24.803-2.3317-0.02232-4.3848 0.02711-6.7099-0.75147zm16.653 1.378c-1.5579 0.35716-3.3718 0.01388-4.8603-0.01501 0.6997-6.9689 2.3974-14.659 2.9948-21.974 2.342-0.07288 3.5932 1.0317 5.5197 1.4032 0.10317 6.4211-0.56088 15.268-3.6542 20.586zm25.215-23.038c4.8819 1.1855 7.9517 7.1648 6.5861 13.305-0.91635 4.1269-2.5484 11.898-4.2948 14.538-1.2906 1.9528-4.79 4.5094-7.5841 2.72-4.5452-2.9105-12.552-3.7554-15.867-7.2784 1.662-5.5338 2.1779-13.135 2.8635-20.146 5.6782-0.35397 12.665 1.5626 17.387-0.47122-3.2968-1.0679-7.5747-1.0764-10.423-2.6328 2.3279-1.1244 7.7782-0.89722 11.332-0.03442zm-45.399 29.689c-3.4291 8.0643-6.543 16.421-11.663 22.919-4.9606-3.3268-10.423-6.4557-11.817-12.497 7.1006-4.0173 15.379-7.9801 23.481-10.422zm8.4526 24.972c-0.32453-8.0651-1.2446-18.644-3.3944-24.965 5.1276 6.5292 9.263 14.132 13.585 21.534-1.8421 2.9571-5.6932 5.5355-10.191 3.4308zm-9.5819 3.4047c-1.9424 0.20916-3.5913-2.2332-6.1172-1.1771-0.5787-0.63967-1.1049-1.3328-1.6948-1.9575 5.5788-6.7232 8.114-16.262 12.423-24.163 2.312 7.5895 2.0456 15.904 2.5549 24.188-3.1768-0.20165-4.9391 2.8729-7.1658 3.1092zm-6.1612 8.1318c-0.20728-2.3026 0.32828-3.0558 0.79161-5.6951 7.5691-2.3664 6.2475 10.388-0.79161 5.6951zm-8.3935 2.7556c-3.2615 1.7821-8.161 3.7226-12.374 4.5264-5.2216 0.99889-4.7325-7.1226-4.5109-11.968 0.17398-3.8361 2.169-7.8927 3.0354-10.441 0.40668-1.19 0.49832-2.4526 1.5157-2.6889 1.7982-0.41916 7.7298 1.9528 9.42 2.8746 3.5746 1.9491 6.3481 5.0443 9.3842 7.1227 0.03939 1.0111 0.07785 2.0212 0.11818 3.0323-1.8252 0.90979-3.9346 1.5551-6.6143 1.6723 1.8177 0.91448 4.4917 0.90135 6.1481 1.9893 0.01595 0.40518 0.03283 0.80943 0.0469 1.2109-3.0239 0.23261-4.1766 1.5795-6.1697 2.6693zm-31.152 5.6585c-2.7069-2.7481 7.5921-6.4942 10.871-6.6959-0.01829 1.7389 0.99101 3.3784 0.78767 4.6259-3.8946 0.68375-9.0128 0.23261-11.659 2.07zm33.345-1.2906c-0.01313-0.26825-0.36298-0.1707-0.42019-0.38924 3.4825-2.7219 6.0693-3.2846 10.81-3.0501 2.1375 1.5513 4.0331 3.3653 6.2588 4.8181-5.1239-0.45771-11.574-3.6401-16.648-1.3788zm30.606-9.2808c-0.14631 3.053-0.94824 9.3314-2.8354 10.431-3.9609 2.312-11.002-4.6681-13.984-5.7326 0.32452-0.93418 0.86008-1.6742 0.90135-2.8682 1.7642 0.43426 3.9121 0.13694 5.4409-0.61434-1.768-0.1979-3.7283-0.18477-4.8979-1.027-0.42863-1.239 0.10505-2.9273-0.18008-4.6474 4.1963-1.1837 8.9891-1.814 14.294-1.9696 1.0317 1.3412 1.3834 3.8962 1.2615 6.4286zm-68.508 7.9133c-0.85004 0.6059-6.6003 8.0877-7.3881 7.7773-10.405-4.1034-20.134-11.199-28.828-17.91 8.2893-17.787 11.635-39.579 12.227-60.582 9.4958-4.4413 17.836-10.844 30.722-11.512-1.4911 10.55-2.8522 19.962-3.6986 29.895-3.2376 1.3648-7.8826-0.0619-10.913 0.42319-0.0257 3.6513 4.6274 1.5989 5.0149 4.0543 0.29207 1.8572-2.5602 1.9979-1.6314 4.9223 2.3686-0.86102 3.6125-2.7629 6.1386-3.477 2.3082 5.0498-0.03226 13.985 0.30042 18.205 0.06303 0.79245 0.39571 4.3903 2.1708 3.759 1.571-0.55872-0.08976-9.5686 0.08244-13.563 0.15682-3.6803-0.44448-7.2415 1.046-9.5519 12.451 1.6948 25.104 2.7903 38.576 3.16-2.9639 1.2717-6.4848 2.4753-10.345 4.6512-2.0927 1.1797-8.6893 3.6345-9.2932 5.6221-0.96353 3.1673 2.528 4.8544 3.1252 7.5697-6.2851-3.4278-7.5114 3.2857-8.9982 8.0419-1.3471 4.3079-2.114 7.5259-2.4445 10.01-5.4143 2.5812-11.203 5.1952-15.863 8.5051zm63.009 6.8722c8.6693 4.2038 10.232-15.711 6.8337-22.127 0.52524-1.9134 2.3317-2.6459 3.0689-4.3661-4.8378-8.6664-10.211-16.756-15.148-25.32 3.672 2.2858 8.9169 0.40884 13.238 2.1198 1.5795 0.62466 2.7228 4.2405 3.9187 7.133 3.2893 7.9581 6.7428 17.991 8.2791 25.586 0.34703 1.7305 1.2925 5.5009 1.0805 7.041-0.37798 2.7575-4.1194 4.8022-6.0224 6.5073-3.506 3.1496-5.7139 5.9211-9.3708 8.8662-1.4829-2.1891-4.6653-3.6598-5.878-5.44zm-82.836 76.88c-4.1309-4.5452-3.2662-13.062-2.7661-19.121 7.4667 4.6971 17.377-0.37142 17.284-8.3607 3.5649 0.09473 1.3318 4.4523 0.68694 7.2596-2.1073 9.1692 3.5502 19.131 0.25652 27.516-6.3952-0.48491-11.649-3.097-15.461-7.2943zm29.558 26.38c-9.3518-2.6506-21.337-9.4459-25.18-17.847 2.9757 0.43239 5.0414 1.9331 7.9768 2.1188 1.1094 0.0722 2.5628-0.46521 3.8378-0.14819 2.5408 0.63029 4.6852 6.3273 6.6021 8.447 1.8685 2.07 4.1144 2.9545 5.6514 4.8416 0.98745 0.47646 2.4474 0.44364 2.5035 1.9265-0.42798 0.45771-0.87865 0.80662-1.3915 0.66124zm48.681-2.493c-9.7066 5.4766-26.136 9.5959-36.462 4.4486-8.3314-4.1541-19.593-11.027-23.433-19.737 3.5868-8.4048-1.0625-16.106-1.3592-24.639-0.15757-4.5405 2.1378-8.5042 2.3137-13.447-1.2274-2.025-4.9773-2.2745-7.5731-2.1357-0.87377 4.3726-2.4034 9.2874-6.9061 9.7807-6.3713 0.69688-11.03-4.5761-11.319-10.086-0.34253-6.4801 4.9772-17.22 12.517-16.475 2.9127 0.28794 3.6283 3.2077 6.8018 3.1777 1.7201-3.4319-2.6533-4.5096-3.1032-6.9641-0.11724-0.63404 0.3627-3.112 0.64182-4.2741 1.3696-5.6585 4.4226-12.982 7.4276-17.29 3.814-5.4644 11.307-6.2879 19.369-6.8234 1.4398 3.1017 6.7439 2.8466 10.2 2.0353-4.1419 1.6404-7.9925 5.6172-11.184 9.1373-3.6656 4.0387-7.3788 8.371-7.5664 13.65 6.9271-9.61 12.65-18.003 25.246-22.23 9.531-3.1965 20.662 1.465 27.986 6.6077 3.0389 2.1375 4.8528 5.5291 7.0129 8.6336 8.0821 11.626 11.854 28.219 11.024 44.303-0.34141 6.633-0.3264 13.244-2.5521 17.706-2.3261 4.6662-10.193 8.8409-14.799 4.6202-0.85352 4.5377 3.8296 7.344 9.3305 5.711-3.9224 5.062-8.039 11.144-13.614 14.29zm18.084-149.66c7.585 3.7708 21.757 10.149 26.512-0.01388 1.7549-3.7463 3.8136-10.079 4.7225-13.946 1.284-5.4557-1.3919-16.923-6.9998-18.754-4.9532-1.6168-10.733-1.5183-16.699-0.31983-0.70251 0.58433-1.4847 1.6029-2.0316 2.6647-4.2601 0.16526-8.2491-0.22867-11.614-1.9799 0.3189-3.1505-1.8121-3.6561-3.8099-4.305-1.481-5.8723 2.9629-13.541 1.8993-18.896-0.75878-3.8147-5.4522-4.4046-8.9019-5.1183-0.11255-2.1199 0.15101-3.8895 0.38643-5.6829-0.7888-2.9065-4.3267-4.561-7.6788-4.9663-11.029-1.3263-27.775-1.922-38.384 1.8927-2.9603 7.2612-5.2924 16.093-7.7581 24.384-10.346-1.105-18.715 4.4643-26.603 8.1131-2.7313 1.2662-6.5098 1.9637-7.5302 4.1379-0.98923 2.1049-0.58442 6.139-0.82988 9.9497-0.62466 9.7329-1.1596 19.121-3.7298 29.086-1.154 4.4719-3.1655 8.4179-4.5687 12.727-1.297 3.9936-3.563 8.929-4.154 12.911-0.87631 5.9024 4.6816 6.2307 8.2355 8.7884 5.4938 3.9552 9.8061 6.1425 15.756 9.7122 1.7623 1.057 7.0767 3.733 7.6812 4.9654 1.2017 2.4433-2.0627 5.8883-2.9354 7.8036-1.3805 3.0286-2.1005 5.6013-2.2983 8.5895-4.9912 0.7888-8.7748 3.7592-11.06 7.1086-3.7806 5.5432-6.4025 15.798-3.1315 23.599 0.25652 0.61434 1.5359 1.8224 1.7246 2.7659 0.37226 1.858-0.70054 4.3285-0.76722 6.3047-0.34366 10.139 1.7155 18.875 8.541 21.932 2.7709 11.038 12.688 14.709 22.032 20.195 3.4927 2.0503 7.3429 3.3606 11.319 4.8238 14.264 5.2496 36.15 4.261 47.988-4.6924 5.0198-3.7967 13.044-11.813 15.914-17.617 7.5803-15.323 7.042-40.931 1.7399-59.571-0.71283-2.5024-1.7464-6.1809-3.1899-9.187-1.0064-2.0991-4.1344-6.2991-3.7545-8.1525 0.39112-1.9162 7.132-7.0345 8.5774-8.4282 2.6028-2.5108 7.5475-5.8433 7.948-9.0116 0.43051-3.3718-1.4857-7.9846-2.4564-11.238-3.2452-10.858-6.4117-20.895-10.091-30.576"
            fill="#231f20" fill-rule="evenodd"/>
      <path d="m73.674 57.38c0.41147 0.54775 2.6738 1.3797 5.8393-0.14444 0 0-3.7517-0.6256-3.4396-6.8806l-1.5633 0.31327s-1.6157 5.6716-0.83644 6.7118"
            fill="#f7e4cd" fill-rule="evenodd"/>
      <path d="m101.09 3.617c0-0.94928-0.77004-1.719-1.7202-1.719-0.94918 0-1.7192 0.76976-1.7192 1.719 0 0.94918 0.77004 1.7202 1.7192 1.7202 0.95012 0 1.7202-0.77098 1.7202-1.7202"
            fill="#1d1919" fill-rule="evenodd"/>
      <path d="m102.81-4.3554c0-0.94928-0.77004-1.719-1.7202-1.719-0.94918 0-1.7192 0.76976-1.7192 1.719 0 0.94928 0.77004 1.7202 1.7192 1.7202 0.95012 0 1.7202-0.77088 1.7202-1.7202"
            fill="#1d1919" fill-rule="evenodd"/> </g>
</svg>
